<?xml version="1.0" encoding="utf-8"?>
<!-- Generator: Adobe Illustrator 26.1.0, SVG Export Plug-In . SVG Version: 6.00 Build 0)  -->
<svg version="1.1" id="Слой_1" xmlns="http://www.w3.org/2000/svg" xmlns:xlink="http://www.w3.org/1999/xlink" x="0px" y="0px"
	 viewBox="0 0 2000 2000" style="enable-background:new 0 0 2000 2000;" xml:space="preserve">
<style type="text/css">
	.st0{fill:#FFFFFF;}
</style>
<rect width="2000" height="2000"/>
<g>
	<path class="st0" d="M1029.4,987.7h-243C784,858.5,722,755,645.9,755S507.8,858.5,505.4,987.7h-240
		c5.2-241.9,174.2-436.2,382-436.2C855.1,551.5,1024.2,745.8,1029.4,987.7z"/>
	<path class="st0" d="M1029,1021.6c-10,236.8-177,425.3-381.6,425.3c-204.6,0-371.7-188.5-381.6-425.3h240.4
		c7.6,120.4,67.3,214.2,139.7,214.2S778,1142,785.6,1021.6H1029z"/>
	<path class="st0" d="M1402.6,551.5c-183.4,0-332.1,135.5-332.1,302.7c0,47.9,12.2,93.2,34,133.5h596.2c21.8-40.3,34-85.6,34-133.5
		C1734.7,687,1586,551.5,1402.6,551.5z M1402.6,969.9c-59.3,0-107.4-48.1-107.4-107.4c0-59.3,48.1-107.4,107.4-107.4
		c59.3,0,107.4,48.1,107.4,107.4C1510.1,921.8,1462,969.9,1402.6,969.9z"/>
	<path class="st0" d="M1679.7,1021.6l-262,402.3h-271.8l197.2-271.9c-90.5-14.9-168.2-63.3-217.2-130.5H1679.7z"/>
</g>
</svg>
