<?xml version="1.0" encoding="utf-8"?>
<!-- Generator: Adobe Illustrator 26.1.0, SVG Export Plug-In . SVG Version: 6.00 Build 0)  -->
<svg version="1.1" id="Слой_1" xmlns="http://www.w3.org/2000/svg" xmlns:xlink="http://www.w3.org/1999/xlink" x="0px" y="0px"
	 viewBox="0 0 2000 2000" style="enable-background:new 0 0 2000 2000;" xml:space="preserve">
<style type="text/css">
	.st0{fill:#83ABFF;}
	.st1{fill:#F3F6FD;}
	.st2{fill:#FFCB66;}
	.st3{fill:#FFFFFF;}
</style>
<rect class="st0" width="2000" height="2000"/>
<path class="st1" d="M755.4,1570.6H2000V427.2H755.4c-189.2,0-342.5,153.4-342.5,342.5V1228C412.9,1417.2,566.3,1570.6,755.4,1570.6
	z"/>
<circle class="st2" cx="1000" cy="1000" r="398.1"/>
<path class="st3" d="M1183.8,1173.6l-117.6-116.8c22.2-25.2,35.7-58.4,35.7-94.6c0-79-64.3-143.3-143.3-143.3
	c-79,0-143.3,64.3-143.3,143.3s64.3,143.3,143.3,143.3c35.5,0,68-13,93-34.4l117.8,116.9c2,2,4.6,3,7.2,3c2.6,0,5.3-1,7.2-3
	C1187.8,1184,1187.8,1177.5,1183.8,1173.6z M835.8,962.2c0-67.7,55.1-122.9,122.9-122.9s122.9,55.1,122.9,122.9
	c0,67.7-55.1,122.9-122.9,122.9S835.8,1030,835.8,962.2z"/>
</svg>
