<?xml version="1.0" encoding="utf-8"?>
<!-- Generator: Adobe Illustrator 26.1.0, SVG Export Plug-In . SVG Version: 6.00 Build 0)  -->
<svg version="1.1" id="Слой_1" xmlns="http://www.w3.org/2000/svg" xmlns:xlink="http://www.w3.org/1999/xlink" x="0px" y="0px"
	 viewBox="0 0 1024 1024" style="enable-background:new 0 0 1024 1024;" xml:space="preserve">
<style type="text/css">
	.st0{fill:#DD1249;}
	.st1{fill:#F3C44E;}
	.st2{fill:#FDC016;}
	.st3{fill:#6E2129;}
	.st4{fill:#FFFFFF;}
	.st5{fill:#4C2205;}
	.st6{fill:#EB233B;}
	.st7{opacity:0.42;fill:#3F2401;}
	.st8{opacity:0.41;fill:#FFFFFF;}
	.st9{opacity:0.26;fill:#4C2205;}
	.st10{fill:#DB003A;}
	.st11{opacity:0.34;fill:#3F2401;}
	.st12{fill:#FCF0B6;}
</style>
<g>
	<path class="st0" d="M106.2,1024h803c26.1-22.5,110.6-106.7,109.6-250.9c-19.4,21.6-67.5,55-67.5,55l22.1-121.4
		c9.9-53.3,12.3-91.6,12.3-91.6s-35.7,15.7-97.4,102.7l-15.5,2.2c84.1-279.1-42.7-434.4-42.7-434.4s19.9,179-30.7,305.8
		c-0.4-3.1-0.7-6.1-1.1-9.2c-2.4-19.1-5-37.6-8-55.3C738.1,218.3,595,124.1,595,124.1s28.9,109.2,16.3,224.5
		c-0.6-4.6-1.3-9.2-2.1-13.9c0-0.1,0-0.2,0-0.3c-0.1-0.6-0.2-1.2-0.3-1.9C593.3,247,537.9,138.9,493.2,73.5
		c6.7,65.8,0,199.3,0,199.3s-0.4-2.5-1-6.9C488,235.9,472,115.6,472,45.3c-30.2,51.8-81.8,204.4-98.1,253.4v0c0,0,0,0,0,0.1
		c0,0,0,0.1,0,0.1c0,0,0,0.1-0.1,0.2c-3.1,9.4-4.9,14.9-4.9,14.9s-0.5-4-1.4-11.2c-0.4-3.4-0.9-7.5-1.5-12.2
		c-4.3-36.7-12.1-110.5-13.4-177.7c-78.7,86.2-126.5,232.9-152.3,337.5c-17.6,71-25,122.6-25,122.6s-0.9-3-2.5-8.5
		c-3.6-12-10.9-35.6-21-65.1c-17.2-50.4-42.3-118-70.6-173.7c-53.9,156.2-14,318.6,3.6,375.8c4.1,13.4,7,21,7.2,21.5
		c-0.3-0.2-2.6-2.2-6.5-5.6c-0.5-0.4-1-0.8-1.5-1.3C67.1,701,27.6,664.2,5.3,627c16.1,86.2,43.5,161.6,63.3,208.8
		c-0.4-0.5-43.3-51.9-63.3-84.4C-1.9,818.7,23.3,964.9,106.2,1024z"/>
	<path class="st1" d="M151.8,499.3v15.3l-18.9,123.1c0,0-24-69.3-31.3-123.1c-18.5,57.4-17.9,148.4-16.7,186.7
		c-17.6-57.2-57.5-219.6-3.6-375.8C109.5,381.3,134.6,448.9,151.8,499.3z"/>
	<path class="st1" d="M859.1,761.3c2.9-4.5,5.7-8.9,8.4-13.1c-10.9,26.3-32.3,72.9-62.2,113.3c29.3-64.9,51.1-167.2,45.4-221.1
		c-9,23.8-52.5,65.1-52.5,65.1l2.8-63.1l-2.7-60c0.4,3,0.7,6.1,1.1,9.2c50.6-126.8,30.7-305.8,30.7-305.8S969.5,456.3,859.1,761.3z"
		/>
	<path class="st1" d="M368.9,314c0,0-16.2,51.4-13.1,42c-2.9,9.5-31.5,99.5-32.8,103.2c-5.4,16.5-17,42.4-19.3,48.5
		c0-6.8-9.5-53.2-9.5-113.4c-79.7,118-133,302.7-133,302.7l11.5-132.6c1.7,5.5,2.5,8.5,2.5,8.5s7.4-51.6,25-122.6
		c25.8-104.5,73.7-251.2,152.3-337.5C354.4,207,368.9,314,368.9,314z"/>
	<path class="st1" d="M609.2,381c-22.7-64.1-85.8-116-85.8-116l-17.3,159.3l-44.6-156.7L339.9,416.8l19.9-64.4l6.2-61.8
		c0.6,4.7,1,8.8,1.5,12.2c0.9,7.2,1.4,11.2,1.4,11.2s1.8-5.5,4.9-14.9c0-0.1,0-0.1,0.1-0.2c0-0.1,0-0.1,0-0.1c0-0.1,0-0.1,0-0.1v0
		c16.2-49,67.9-201.6,98.1-253.4c0,70.4,16,190.6,20.2,220.6c0.6,4.5,1,6.9,1,6.9s6.7-133.5,0-199.3
		c44.7,65.4,100.2,173.5,115.7,259.1C610.8,352.7,611.2,369.9,609.2,381z"/>
	<path class="st1" d="M793.4,580.7c0,0-39.5-156-141-247.9c-18,60.7-49.3,109.6-50.2,110.7c0.4-1.2,16.3-52.5,7-108.7
		c0.8,4.7,1.5,9.4,2.1,13.9C624,233.3,595,124.1,595,124.1S738.1,218.3,790.3,527L793.4,580.7z"/>
	<path class="st2" d="M461.5,267.6l-3.5,75.9c0,0,13.7,54.3,49.2,93.8c-2.4-33.2-2.2-32.2-2.2-32.2l-15.5-159.2L461.5,267.6z"/>
	<g>
		<path class="st3" d="M674.9,765.8c-0.5,31.5-14.1,103.6-86.5,146.5c-18.6,11-41,20.1-68.1,26c-55.8,12.3-100-0.7-133.4-22.7
			c-46.1-30.3-71.6-77.7-78.7-99.2c-10.6-32.3-14.2-61.6,0-81.1c2.1-2.9,5.3-6.1,9.5-9.5c15-12,43.8-26,87.7-34.3
			c6.7-1.3,13.7-2.4,21.1-3.3c23-3,49.5-4.4,79.6-3.5c8,0.3,15.8,0.7,23.2,1.2c10.4,0.8,20.2,1.8,29.4,3.1
			c47,6.6,78.3,19.7,96.5,35.9C668.9,737.2,675.1,751.4,674.9,765.8z"/>
		<path class="st4" d="M365.7,791.2c-32.4,4.8-48-65.4-48-65.4c15-12,43.8-26,87.7-34.3C409.1,738.8,398,786.3,365.7,791.2z"/>
		<path class="st4" d="M529.2,685.9c-0.9,14.8,0,88.5-52.9,84.6c-52.5-3.9-49.9-81.1-49.8-82.3c23-3,49.5-4.4,79.6-3.5
			C514,684.9,521.8,685.4,529.2,685.9z"/>
		<path class="st4" d="M655,724.9c-3.2,32.3-33.6,73.3-67.7,54.4c-34.1-18.9-28.8-90.3-28.8-90.3C605.5,695.6,636.8,708.7,655,724.9
			z"/>
		<path class="st5" d="M362.5,793.9c-31.7,0-46.6-64.7-47.2-67.5c-0.2-0.9,0.1-1.9,0.9-2.5c18.9-15,51.2-27.7,88.7-34.8
			c0.7-0.1,1.4,0,1.9,0.5c0.5,0.4,0.9,1.1,0.9,1.8c3.5,43.8-5.3,96.8-41.7,102.3l0,0C364.8,793.8,363.6,793.9,362.5,793.9z
			 M365.7,791.2L365.7,791.2L365.7,791.2z M320.4,726.8c2.5,10,17.7,66.1,44.9,62c30.3-4.5,40.7-50.2,37.8-94.3
			C354.9,703.9,329.9,719.5,320.4,726.8z"/>
		<path class="st5" d="M480.3,773.1c-1.4,0-2.8-0.1-4.2-0.2c-54.6-4.1-52.1-84.1-52.1-84.9c0-1.2,0.9-2.2,2.1-2.3
			c24.7-3.2,51.6-4.4,80-3.5c8.1,0.3,16,0.7,23.3,1.2c1.3,0.1,2.3,1.3,2.3,2.6c-0.1,1-0.1,2.3-0.2,3.8c-0.7,16.2-2.2,54.3-23,72.9
			C500.8,769.6,491.4,773.1,480.3,773.1z M428.9,690.3c0,12.2,2.3,74.3,47.6,77.7c11.5,0.9,21.2-2.1,28.7-8.9
			c19.3-17.3,20.8-55.2,21.4-69.5c0-0.5,0-1,0.1-1.5c-6.5-0.5-13.5-0.8-20.7-1C478.6,686.3,452.7,687.3,428.9,690.3z"/>
		<path class="st5" d="M604.8,786.5c-6.3,0-12.6-1.7-18.7-5.1c-35.1-19.4-30.3-89.6-30-92.6c0-0.7,0.4-1.3,0.9-1.7
			c0.5-0.4,1.2-0.6,1.9-0.5c44.1,6.2,77.9,18.8,97.7,36.5c0.6,0.5,0.9,1.3,0.8,2.1c-2,20.1-14.6,46-35,56.8
			C616.7,785,610.8,786.5,604.8,786.5z M560.9,691.8c-0.5,12.9-1.1,69.4,27.7,85.3c10.6,5.9,21.2,6,31.7,0.5
			c16-8.5,29.7-30.6,32.3-51.7C633.6,709.6,602,697.9,560.9,691.8z"/>
		<path class="st6" d="M590.1,902.5c0,3.3-0.6,6.6-1.8,9.7c-18.6,11-41,20.1-68.1,26c-55.8,12.3-100-0.8-133.4-22.7
			c-2.1-4.2-3.2-8.6-3.2-13.1c0-14.8,12-28.1,31.3-37.7c18.6-9.2,44-14.9,72-14.9c17.3,0,33.5,2.2,47.8,6
			C567.6,864.7,590.1,882.3,590.1,902.5z"/>
		<path class="st5" d="M478,947.9c-33.8,0-65.2-9.4-93.9-28.3c-47.7-31.3-73.6-80.3-80.6-101.8c-13-39.8-12.8-67,0.7-85.5
			c2.5-3.4,6-6.9,10.4-10.4c19.2-15.3,51.9-28.1,89.8-35.3c7-1.3,14.2-2.5,21.4-3.4c24.8-3.2,51.8-4.4,80.3-3.5
			c8.2,0.3,16,0.7,23.4,1.2c10.4,0.8,20.4,1.8,29.7,3.1c45.2,6.3,78.5,18.8,99,37.1c14.3,12.8,21.8,28.2,21.5,44.6l0,0
			c-0.3,16.5-5.8,101.5-88.9,150.7c-20.1,11.9-43.5,20.9-69.6,26.6C506.4,946.3,492,947.9,478,947.9z M487.7,689.3
			c-21.3,0-41.6,1.2-60.6,3.7c-7,0.9-14,2-20.9,3.3c-51.7,9.7-77,26.5-85.5,33.3c-3.7,2.9-6.7,5.9-8.6,8.5
			c-11.3,15.5-11.1,40.6,0.7,76.6c6.7,20.4,31.3,66.8,76.7,96.7c38.2,25.1,81.8,32.5,129.7,22c25-5.5,47.5-14.1,66.7-25.4
			c78.6-46.5,83.9-126.7,84.1-142.4c0.2-13.6-5.9-26.1-18.2-37.1c-18.8-16.7-51.2-28.7-93.9-34.7c-9.1-1.3-18.9-2.3-29.1-3.1
			c-7.2-0.5-14.9-0.9-23-1.2C499.7,689.4,493.6,689.3,487.7,689.3z M674.9,765.8L674.9,765.8L674.9,765.8z"/>
	</g>
	<g>
		<path class="st7" d="M464.2,571c-1.2,22.7-8.4,42.3-19.8,58c-68-47.9-124.3-17.2-132.1,25.1c-13.5-12.5-21.8-31.6-21.8-57.1
			c0-50.4,68.9-146.6,111.1-145.4C435.1,452.6,467.1,518,464.2,571z"/>
		<path class="st5" d="M445.4,575.1c-6,32.7-27.8,53.3-53.9,58.1c-37,6.8-65.5-14.9-60-57.1c4.5-34.6,57.4-94,84.4-89.1
			C437.4,491,452,539,445.4,575.1z"/>
		<path class="st5" d="M446.2,632.2c-1.1-0.1-2.4-0.2-4.1-0.3c-19.9-1.3-78.5-2.3-127.4,24.3c-0.5,0.3-1.1,0.6-1.6,0.9
			c-0.6,0.3-1.2-0.2-1.2-0.8c0.1-0.7,0.2-1.4,0.3-2.1c7.8-42.3,64.1-73,132.1-25.1c0.8,0.6,1.6,1.1,2.4,1.7
			C447.4,631.2,447,632.3,446.2,632.2z"/>
		<ellipse class="st4" cx="412.6" cy="546.1" rx="23.6" ry="31.4"/>
		<ellipse class="st8" cx="350.4" cy="596" rx="10.6" ry="14"/>
	</g>
	<g>
		<path class="st7" d="M491.9,574c1.2,22.7,8.4,42.3,19.8,58c68-47.9,124.3-17.2,132.1,25.1c13.5-12.5,21.8-31.6,21.8-57.1
			c0-50.4-68.9-146.6-111.1-145.4C520.9,455.6,488.9,521,491.9,574z"/>
		<path class="st5" d="M514.2,575.1c6,32.7,27.8,53.3,53.9,58.1c37,6.8,65.5-14.9,60-57.1c-4.5-34.6-57.4-94-84.4-89.1
			C522.2,491,507.6,539,514.2,575.1z"/>
		<path class="st5" d="M511.9,632.2c14.5-1.2,79.9-4.8,133.1,24.8c0.6,0.3,1.3-0.2,1.2-0.8c-6.3-43.9-64.6-76.7-134.8-25.5
			C510.7,631.2,511.1,632.3,511.9,632.2z"/>
		<ellipse class="st8" cx="607.2" cy="596" rx="10.6" ry="14"/>
		<ellipse class="st4" cx="547" cy="546.1" rx="23.6" ry="31.4"/>
	</g>
	<path class="st5" d="M94.6,715.5c11.5,32.5,22.8,65.1,32.5,98.2c-6.3-16-13.1-31.8-20.1-47.5c-7-15.7-14.1-31.4-21.4-46.9
		C83,713,92.1,709.2,94.6,715.5L94.6,715.5z"/>
	<path class="st5" d="M180.4,568.3l-19.6,134.4l9.9-135.5C171.4,560.5,181.2,561.6,180.4,568.3L180.4,568.3z"/>
	<path class="st5" d="M376.8,305.1c-17.2,53-34.1,106.1-53.8,158.3c8.4-26.5,15.8-53.4,23.2-80.2c7.3-26.9,14.4-53.8,21.3-80.8
		C369.3,296,378.6,298.6,376.8,305.1L376.8,305.1z"/>
	<path class="st5" d="M496.2,259.6l9.9,164.8l-19.6-163.9C486,253.8,495.6,252.9,496.2,259.6L496.2,259.6z"/>
	<path class="st5" d="M616.2,348.4c-1,32.1-4.5,64.3-14,95c3.2-15.6,4.8-31.4,5.3-47.3c0.5-15.7,0.2-31.8-1-47.4
		C606.1,342,616,341.6,616.2,348.4L616.2,348.4z"/>
	<path class="st5" d="M803.1,580.1c0.6,41.8,0.7,83.9-4.9,125.4c0.7-10.4,0.8-20.8,0.8-31.3c-0.2-20.8-1.4-41.6-2.9-62.4
		c-0.8-10.4-1.7-20.8-2.7-31.1C792.9,574,802.7,573.3,803.1,580.1L803.1,580.1z"/>
	<path class="st5" d="M864.4,761.1c-17.5,34.7-36.5,68.7-59.1,100.4c14.9-24.9,27.4-51.1,39-77.6c3.8-8.9,7.6-17.8,11.1-26.7
		C858.2,751,867.2,755,864.4,761.1L864.4,761.1z"/>
	<path class="st5" d="M864,758.7c0,0,93.6-238,120-158.6C992.1,562.8,975.5,378.3,864,758.7z"/>
	<path class="st9" d="M325.7,751.4c0,0,21.7-47.7,79.1-20.2c1.3-21.1,0-35.8,0-35.8s-44.7-3.7-87.1,30.4
		C319.7,733.8,325.7,751.4,325.7,751.4z"/>
	<path class="st9" d="M427.6,708.2c0,0,45-28,100.2,0c3-17.6,1.4-22.3,1.4-22.3l-102.7,2.3L427.6,708.2z"/>
	<path class="st9" d="M558.4,708.2c0,0,59.3-5.9,89.4,41.6c5.4-15,7.2-24.9,7.2-24.9s-53.3-37.1-96.5-35.9
		C558.3,697.4,558.4,708.2,558.4,708.2z"/>
	<path class="st5" d="M534.7,855.9c-14.3-3.8-30.6-6-47.8-6c-28,0-53.4,5.7-72,14.9c-12.4-16.1-23.5-38.9-14.7-62.5
		c16.5-44.2,64.7-26.7,59.8,0c-4.9,26.7,16.9,30.3,25,19.5c8-10.8-8.5-33.3,25-37.7C541.5,779.9,549.6,824.8,534.7,855.9z"/>
	<path class="st9" d="M389.3,914c0,0,19.4-33,88.5-35.6s114.9,31.2,114.9,31.2l-5.5-27.3c0,0-35.1-34.1-102.1-32.3
		s-105.7,27.3-101.4,59.9C386.7,917.3,389.3,914,389.3,914z"/>
	<path class="st10" d="M172.1,507.3c0,0-84.1-233.1,49.1-299.7C205.6,268,173.5,406.6,172.1,507.3z"/>
	<path class="st5" d="M172.1,510.5c-1.3,0-2.6-0.8-3.1-2.2c-0.2-0.6-21.2-59.5-25.6-125.8c-2.6-39.1,1.1-73.2,10.8-101.2
		c12.3-35.4,34.3-61.2,65.5-76.8c1.1-0.6,2.5-0.4,3.5,0.4c1,0.8,1.4,2.1,1.1,3.4c-11.1,42.9-47.6,191.4-49,299
		c0,1.6-1.2,2.9-2.7,3.2C172.5,510.5,172.3,510.5,172.1,510.5z M216.3,213.9c-49.5,28.3-71.8,84.8-66.3,168.3
		c2.9,43.5,13,83.8,19.5,106C174.2,387.7,204.2,261.5,216.3,213.9z"/>
	<path class="st10" d="M793.4,456c0,0-4.5-154.5-78.8-230.7C796.3,212.2,825.6,262.1,793.4,456z"/>
	<path class="st5" d="M793.4,459.3c-0.1,0-0.1,0-0.2,0c-1.7-0.1-3-1.5-3-3.2c0-1.5-5.4-154.2-77.8-228.6c-0.9-0.9-1.1-2.2-0.8-3.3
		c0.4-1.2,1.4-2,2.6-2.2c32.6-5.2,55-0.4,70.5,15.3c28.7,29.1,32.3,96.7,12,219.2C796.3,458.1,795,459.3,793.4,459.3z M721.3,227.6
		c36,39.9,54.5,98.2,63.7,140.9c5,22.9,7.8,43.8,9.5,59.4c15-102.9,10.4-160.7-14.5-186C767.1,228.9,748.3,224.3,721.3,227.6z"/>
	<path class="st11" d="M8,637.8c0,0,60.8,158.9,136.4,227.1c-18.9-55-18.9-55-18.9-55L91,715C91,715,56.9,705.3,8,637.8z"/>
	<path class="st11" d="M80.1,332.9c0,0,2.5,206.6,80.7,375.3c7.9-83.6,19.6-139.9,19.6-139.9S87.8,329,80.1,332.9z"/>
	<path class="st11" d="M352.6,112.9c0,0-86.5,170-48.8,394.9c19.3-48.5,19.3-48.5,19.3-48.5l47.2-143.6L352.6,112.9z"/>
	<path class="st11" d="M468.5,53.5l-7,214.1l-3.5,75.9c0,0,13.4,56.3,49.2,93.8C505,405,505,405,505,405l-16.1-166.7L468.5,53.5z"/>
	<path class="st11" d="M595,124.1c0,0,134.7,139.1,7.1,319.4c8.3-99.9,9.1-94.8,9.1-94.8S622.8,220.5,595,124.1z"/>
	<path class="st11" d="M835.1,292.3c0,0,111.7,312.7-36.9,413.1c1.2-114,4.6-126.6,0.1-123.2C793.8,585.6,838,538.5,835.1,292.3z"/>
	<path class="st11" d="M990.6,615.3c0,0-68,182.5-185.3,246.2c51.1-84.8,65.3-125,65.3-125S979.3,602,990.6,615.3z"/>
	<path class="st5" d="M278.5,864.8c42.4,39.2,96.9,64.7,153.7,73.2c52,7.9,105.3,1.1,155.2-14.7c7.6-2.6,19.9-6.4,27.2-9.6
		c6.6-2.8,13.5-5.1,20.1-8.1c4.6-2,15.2-6.8,19.8-8.9c0,0,26.1-12.9,26.1-12.9c8.5-4.7,17-9.3,25.7-13.9
		c-31.1,23.6-65.2,43.6-101.7,58.3c-72.8,30.4-157.9,36.5-231.4,5.2C337.2,918.3,303.2,895.5,278.5,864.8L278.5,864.8z"/>
	<path class="st5" d="M347.6,943c26.8,19.9,61.2,32.8,97.1,37.2c32.8,4,66.5,0.6,98-7.4c4.8-1.3,12.5-3.3,17.2-4.9
		c4.2-1.4,8.6-2.6,12.7-4.1c2.9-1,9.6-3.5,12.5-4.5c0,0,16.5-6.6,16.5-6.6c5.4-2.4,10.8-4.7,16.2-7c-19.6,12-41.2,22.1-64.2,29.6
		c-46,15.4-99.7,18.5-146.2,2.7C384.7,970.1,363.2,958.6,347.6,943L347.6,943z"/>
	<path class="st7" d="M221.3,207.5c0,0-50.1,177.7-49.1,299.7C157.3,403.2,139.8,363.5,221.3,207.5z"/>
	<path class="st7" d="M714.6,225.3c0,0,63.5,57.4,78.5,226.3C804.5,369.3,815.5,263.1,714.6,225.3z"/>
	<path class="st7" d="M278.5,864.8c0,0-88.9-85.2,33.4-152.6c51.8-27,152.4-32.8,152.4-32.8s-140.2,16.5-165.5,70.3
		c-13.3,34.7,19.9,148.2,133.3,188.3C418.7,939.2,341.2,937.3,278.5,864.8z"/>
	<path class="st7" d="M715.8,861.5c0,0,68.2-81.8-54.1-149.2c-51.8-27-152.4-32.8-152.4-32.8s140.2,16.5,165.5,70.3
		c13.3,34.7-19.9,148.2-133.3,188.3C554.9,939.2,640,926.7,715.8,861.5z"/>
	<path class="st12" d="M80.1,343.5c0,0-39.1,196.4,30.9,419.5C94.6,715.5,21.6,525.5,80.1,343.5z"/>
	<path class="st12" d="M348,125.6c0,0-114.7,118-172.7,470.4C190,518.5,248.3,276.9,348,125.6z"/>
	<path class="st12" d="M467.4,64.3c0,0-75.3,175.5-144.4,395C363.4,364.1,467.1,85.8,467.4,64.3z"/>
	<path class="st12" d="M499.5,91.8c0,0,93,137.2,107.2,260.6C600.5,316.6,559.4,189.3,499.5,91.8z"/>
	<path class="st12" d="M626,158.5c0,0,118.2,114,158.6,364.1C774.8,473.1,720.8,265.5,626,158.5z"/>
	<path class="st12" d="M851.3,329.8c0,0,83.5,143.4,25.8,356.1C893.5,620,905.1,445.8,851.3,329.8z"/>
	<path class="st12" d="M347.6,943c0,0,96.1,81.7,266.4,4.9C566.5,965.8,430.2,994,347.6,943z"/>
	<path class="st7" d="M446.2,632.2c0,0-92,1.8-152.3,47.3C301.8,659.9,339.9,625.9,446.2,632.2z"/>
	<path class="st7" d="M511,632.2c0,0,92,1.8,152.3,47.3C655.4,659.9,617.3,625.9,511,632.2z"/>
	<ellipse transform="matrix(0.9922 -0.1246 0.1246 0.9922 -110.378 71.1875)" class="st4" cx="514" cy="918.2" rx="21.8" ry="8.2"/>
	<path class="st12" d="M216.3,213.9c0,0-76.7,33-66.3,168.3C149.4,347.6,148.4,284.9,216.3,213.9z"/>
	<path class="st12" d="M721.3,227.6c0,0,75-20.4,80.6,75.1C797.5,276,800.2,242,721.3,227.6z"/>
	<path class="st5" d="M665.5,714.4c0,0,69.7,34.5,68.9,99.3C758.8,778.5,772.5,739.9,665.5,714.4z"/>
	<path class="st5" d="M317.6,709.6c0,0-69.7,34.5-68.9,99.3C224.4,773.6,210.7,735,317.6,709.6z"/>
	<path class="st5" d="M665.5,714.4c0,0,56.9-14.2,78.5,5C748.5,697.6,746.7,674.5,665.5,714.4z"/>
	<path class="st5" d="M311.5,714.4c0,0-56.9-14.2-78.5,5C228.6,697.6,230.3,674.5,311.5,714.4z"/>
	<path class="st5" d="M320.4,706c0,0,178.9-60.9,332.1,0C596.4,681,496,639.8,320.4,706z"/>
	<path class="st5" d="M4.3,747.3c-1.7,0.4-3,1.8-3.2,3.6c-6.9,64.7,16.2,210,98.1,273.1h14.3C31.6,970.7,5.4,834.3,8.5,764
		c21.6,32.2,56.5,74,56.9,74.5c1.3,1.6,3.6,1.9,5.3,0.9c1.7-1.1,2.4-3.3,1.6-5.1c-18.4-43.9-42.8-110.8-59-187.7
		c23,31.5,54.1,60.3,67.9,72.5c0.3,0.3,0.6,0.5,0.9,0.8l0.7,0.6c3.9,3.4,6.3,5.4,6.6,5.7c1.4,1.2,3.5,1.2,5,0.1
		c1.5-1.1,2.1-3.1,1.4-4.8c0-0.1-2.9-7.6-7.1-21.2C70.4,640.3,33.7,486.9,82,336.4c26.8,54.6,50.5,118.9,65.9,164.3
		c10.1,29.6,17.4,53.4,20.9,65c1.6,5.5,2.5,8.5,2.5,8.5c0.5,1.9,2.3,3.1,4.2,3c1.9-0.1,3.5-1.6,3.8-3.5c0.1-0.5,7.6-52.2,24.9-122.2
		c25.5-103,71-242,144.5-327.8c1.8,64.3,8.9,131.9,13.1,167.5c0.6,4.7,1,8.9,1.5,12.3c0.9,7.2,1.4,11.2,1.4,11.2
		c0.3,1.9,1.8,3.4,3.7,3.6c1.9,0.1,3.7-1,4.3-2.8c0,0,1.8-5.5,4.9-14.8l0,0c0-0.1,0.1-0.2,0.1-0.2c0,0,0,0,0,0
		c0-0.1,0.1-0.2,0.1-0.4c14.2-42.8,59.7-177.4,90.2-238.6c2,70.4,15.6,173.4,20,205.2c0.6,4.5,1,7,1,7c0.3,2.1,2.2,3.6,4.3,3.5
		c2.1-0.1,3.8-1.8,3.9-3.9c0.1-1.2,5.7-115.1,1.3-184c44.1,67.7,92,165.7,106.2,244.4c0.1,0.4,0.1,0.7,0.2,1.1l0.2,0.9
		c0.8,4.7,1.5,9.4,2.1,13.7c0.3,2.1,2,3.6,4.1,3.6h0c2.1,0,3.8-1.6,4.1-3.7c10.2-93.3-6.8-183.5-13.7-214.6
		c13.1,10.9,39.3,35.4,68.3,78.2c38.2,56.3,89.4,156.7,116.2,315.1c3,17.6,5.7,36.1,8,55.1c0.4,2.9,0.7,5.7,1,8.6l0.1,0.5
		c0.2,1.9,1.7,3.4,3.5,3.6c1.9,0.3,3.7-0.8,4.4-2.6c41.8-104.7,35.8-246.1,32.3-292.5c10.8,16.8,29.6,50.4,43.6,99.2
		c19.1,66.6,32.8,176.1-10.3,319c-0.4,1.4-0.1,2.8,0.8,3.9c0.9,1.1,2.3,1.6,3.7,1.4l15.5-2.2c1.1-0.2,2.1-0.8,2.8-1.7
		c45.4-63.9,76.6-89,89.4-97.5c-1.2,13.8-4.4,44.8-11.6,83.3l-22.1,121.4c-0.3,1.7,0.4,3.3,1.8,4.2c1.4,0.9,3.2,0.9,4.6-0.1
		c1.8-1.2,39-27.2,60.9-48.2c-1.8,81.7-31.8,142.5-57.2,179.7c-22.8,33.4-46,53.9-54.7,61.1h12.7c11.4-10.3,29.9-28.9,48.6-56.1
		c27.2-39.7,59.5-105.7,58.9-194.9c0-1.7-1.1-3.2-2.7-3.8c-1.6-0.6-3.4-0.2-4.5,1.1c-14.1,15.6-44,38-58.5,48.5l20.3-111.3
		c9.9-52.9,12.3-91.7,12.3-92.1c0.1-1.4-0.6-2.8-1.8-3.7c-1.2-0.8-2.7-1-4-0.4c-1.5,0.7-37,17-98.1,102.6l-7.4,1.1
		c41.5-142.1,27.6-251.1,8.4-318c-21.2-73.7-52.3-112.4-53.6-114c-1.2-1.4-3.1-1.9-4.8-1.2c-1.7,0.7-2.7,2.5-2.5,4.3
		c0.2,1.7,17.6,165-24.6,288c-2.1-16.4-4.5-32.5-7.1-47.8c-27.1-160.2-79-261.8-117.9-318.8c-42.3-62.1-77.7-85.8-79.2-86.8
		c-1.4-0.9-3.3-0.9-4.7,0.1c-1.4,1-2,2.8-1.6,4.4c0.3,1,23.5,90.2,18.7,191.1C591,234,540.5,135.4,496.6,71.1
		c-1.1-1.6-3.1-2.2-4.8-1.5c-1.8,0.7-2.9,2.4-2.7,4.3c4.1,39.9,3.1,105.5,1.8,150.4c-6.3-50.5-14.8-127.8-14.8-179
		c0-1.9-1.2-3.5-3-4c-1.8-0.5-3.7,0.3-4.6,1.9c-29.3,50.3-77.6,191.5-97.8,252.2c-0.2-1.7-0.4-3.4-0.6-5.2
		c-4.4-37.4-12-110.3-13.3-177.2c0-1.7-1.1-3.2-2.7-3.8c-1.6-0.6-3.4-0.2-4.5,1.1c-78.7,86.3-126.8,232.1-153.3,339.3
		c-11.4,46-18.5,84.2-22.2,105.2c-4-13-10.3-33-18.4-56.7c-16.4-48.1-41.9-117.4-70.8-174.2c-0.8-1.5-2.3-2.4-4-2.2
		c-1.6,0.1-3.1,1.2-3.6,2.8C23.5,480,61.9,640.7,80.9,702.6c0.8,2.5,1.5,4.9,2.2,7c-17.8-16-53.7-50.4-74.3-84.8
		c-1-1.7-3.1-2.4-5-1.7c-1.9,0.7-2.9,2.7-2.6,4.6C14.6,699.8,36,764.5,54.4,811.9c-14.3-17.9-34-43.7-45.7-62.7
		C7.8,747.7,6.1,746.9,4.3,747.3z"/>
	<path class="st5" d="M66.9,821c0,0,30,62.5,60.2,95.6c-33.6-24.2-78-98.2-78-98.2L66.9,821z"/>
	<path class="st5" d="M876.6,691.2c0,0-30.7,82.2-33.7,96c12.4-8.4,12.4-8.4,12.4-8.4l39.2-62.6l-17.7,3.2l-4.8-1.9L876.6,691.2z"/>
	<path class="st5" d="M950.7,808.8c0,0-12.8,50.2-71.1,97.8C905.9,889,967,822,967,822l-13.8,2.9L950.7,808.8z"/>
	<path class="st11" d="M8,755.7c0,0,2.7,151.9,152.8,198.6C118.9,910,118.9,910,118.9,910L8,755.7z"/>
	<path class="st11" d="M1018.8,773.1c0,0-17.5,128.4-183.7,165c44.5-31.5,46.6-35.1,46.6-35.1l75.2-79L1018.8,773.1z"/>
</g>
</svg>
