<?xml version="1.0" encoding="utf-8"?>
<!-- Generator: Adobe Illustrator 26.1.0, SVG Export Plug-In . SVG Version: 6.00 Build 0)  -->
<svg version="1.1" id="Слой_1" xmlns="http://www.w3.org/2000/svg" xmlns:xlink="http://www.w3.org/1999/xlink" x="0px" y="0px"
	 viewBox="0 0 1024 1024" style="enable-background:new 0 0 1024 1024;" xml:space="preserve">
<style type="text/css">
	.st0{fill:#11B1B3;}
	.st1{fill:#3F2401;}
	.st2{fill:#911E83;}
	.st3{fill:#99DEFF;}
	.st4{fill:#FFFFFF;}
	.st5{opacity:0.12;fill:#FFFFFF;}
	.st6{opacity:0.19;fill:#FFFFFF;}
	.st7{opacity:0.29;fill:#3F2401;}
	.st8{opacity:0.2;fill:#3F2401;}
	.st9{fill:#E842D4;}
	.st10{fill:#D6D7F3;}
</style>
<g>
	<path class="st0" d="M1016.8,1024c-6-82.7-26.2-152.2-40.4-192.5c-8.5-24-14.8-37.7-14.8-37.7s-0.2,0-0.5-0.1
		c-0.1-0.4-0.3-0.9-0.4-1.3c-8.6-25.5-23.9-57-53.7-97.3c0,0,0,0,0,0c-13.2-17.9-29.3-37.5-48.8-59.1c-13.4-14.2-25.8-28.9-37.5-44
		c-6.3-8.1-12.3-16.4-18.1-24.7c2.8-5.9,5.4-12.1,7.6-18.5c0.1-0.3,0.2-0.5,0.3-0.7c0.2-0.6,0.4-1.3,0.6-1.9c0-0.1,0-0.1,0.1-0.2
		c0-0.1,0-0.1,0-0.1c13.1-40.6,12.8-87.8-10.2-102.1c-0.8-0.5-1.6-1-2.5-1.4c-8.8-4.3-17.5-5.8-25.6-5.7c-17.8,0.2-32.2,8-36.3,10.5
		l0,0c-0.8,0.5-1.2,0.7-1.2,0.7c-9.3-20.7-17.4-41-24.4-60.5c-1.3-3.7-2.6-7.4-3.9-11c14.2,13.5,30.9,22.4,48.2,27.8
		c0-0.2,0-0.4,0-0.5v-0.8c0-22.7,18.3-41.2,41-41.2c22.7,0,41.1,18.5,41.1,41.2c0,1.7-0.1,3.4-0.3,5.1c15.1-3.2,26.6-8.2,31.8-13.3
		c0.2-0.2,0.3-0.3,0.5-0.5c0.1-0.2,0.3-0.4,0.4-0.5c0.4-0.5,0.7-0.9,1-1.4c0.3-0.4,0.5-0.9,0.7-1.4c8-21.9-6.5-107.9-80.8-179.3
		c-18.4-18.3-37.8-33.6-57.1-46.4c-13.2-8.7-26.3-16.2-39-22.7c-27.5-14-53-23.1-73.2-29c-1-0.3-1.9-0.6-2.8-0.8
		c-12.6-3.5-22.8-5.8-29.9-7.2c-3.4-0.7-6.1-1.1-7.9-1.4c-1.8-0.3-2.8-0.4-2.8-0.4c-11.1-3.1-23.4-5.5-37.3-6.9h0
		c-10.1-1.1-21.1-1.6-32.8-1.6c-2.2,0-4.3,0-6.5,0.1c-14.4,0.3-27.4,1.4-39.3,3.3c-0.6,0.1-1.2,0.2-1.8,0.3
		c-8.6,1.4-16.5,3.3-23.9,5.5c-1.7,0.3-4,0.7-6.7,1.2c-3.6,0.7-7.9,1.6-13,2.8c-5,1.2-10.8,2.7-17.1,4.5c-0.8,0.2-1.7,0.5-2.6,0.7
		c-20.2,5.9-45.8,15.1-73.4,29.2c-12.7,6.5-25.7,14-38.8,22.6c-19.2,12.7-38.5,28-56.9,46.2c-74.3,71.4-88.8,157.4-80.7,179.3
		c3.7,10,34.1,20.9,70.3,20.5c0.6,0,1.2,0,1.9,0c0.2,0,0.4,0,0.6,0c0.8,0,1.7,0,2.5-0.1c0.8,0,1.6-0.1,2.3-0.1
		c0.6,0,1.3-0.1,1.9-0.1c0.6,0,1.1-0.1,1.7-0.1c1.4-0.1,2.8-0.2,4.1-0.4c0.7-0.1,1.3-0.1,2-0.2c1.4-0.1,2.9-0.3,4.3-0.5
		c1.2-0.2,2.3-0.4,3.5-0.6c2.7-0.4,5.3-0.9,8-1.5c1.3-0.3,2.6-0.6,4-0.9c0.7-0.2,1.3-0.3,2-0.5c2-0.5,4-1.1,5.9-1.7
		c1.3-0.4,2.6-0.8,3.9-1.3c1.3-0.4,2.5-0.9,3.7-1.3c0,0,0.1,0,0.2-0.1c4.6-1.7,9-3.6,13.4-5.9c0.6-0.3,1.3-0.6,1.9-1
		c1.9-1,3.7-2,5.6-3.1c1.2-0.7,2.4-1.5,3.6-2.2c12.8-8.3,24.4-19.3,33.7-33.7c0.7-1.1,1.5-2.3,2.2-3.5c0,0,0,0,0,0.1
		c-7.9,31.9-20.1,64-35,95.1c-0.3-0.2-0.8-0.5-1.5-0.9c0,0,0,0,0,0c-7.2-4.2-34-17.6-61.2-4.3c-25.8,12.6-26.3,62.6-12.3,104.9
		c0,0,0,0.1,0.1,0.3c0.1,0.3,0.2,0.6,0.3,0.9c0.1,0.2,0.2,0.4,0.3,0.6c1.6,4.8,3.5,9.5,5.5,14.1c-26.8,37.5-54.8,70.3-79.7,95.2
		c-8.6,8.7-16.3,17.3-23,25.7c0,0,0,0,0,0h0c-7.1,8.8-13.2,17.4-18.5,25.7c-3.4,5.4-6.5,10.7-9.2,15.8c-1.6,3.1-3.2,6.1-4.6,9
		c0,0,0,0,0,0c0,0,0,0.1,0,0.1c0,0.1-0.1,0.2-0.1,0.3C39.3,841.4,19.9,923.3,12.8,973.2c-3.7,25.8-4,43-4,50.8H1016.8z"/>
	<path class="st1" d="M13.1,1024c-0.1-7.6,0.3-24.7,3.9-50.2c7-49.3,26.1-129.9,77.3-235.1l0.8-1.8l0.7-0.7v-0.8
		c1.2-2.5,2.6-5.2,4.1-8c2.8-5.2,5.8-10.4,9.1-15.5c5.4-8.5,11.5-16.9,18-25.1l0.3-0.3c6.8-8.5,14.5-17.1,22.7-25.3
		c27-27.1,54.7-60.2,80.1-95.7l1.4-2l-1-2.2c-2-4.5-3.8-9.1-5.3-13.7l-0.1-0.3c-0.1-0.2-0.2-0.5-0.2-0.5l-0.3-1
		c-13.3-40.1-13.2-88.4,10.1-99.7c23.1-11.3,46.1-1.8,55.1,3l2.2,1.2c0.4,0.2,0.7,0.4,1,0.6l4.3,2.6l2-4.2
		c3.5-7.3,6.8-14.6,9.9-21.8c11-25.5,19.5-50.4,25.4-74.1l0.1-0.5v-0.5l-2.9,0l-0.9,0l-0.3-0.2l-3.7-2c-0.7,1.2-1.4,2.3-2.1,3.4
		c-8.4,13-19.3,24-32.4,32.4c-1.1,0.7-2.3,1.5-3.5,2.1c-1.8,1.1-3.6,2.1-5.5,3.1c-0.5,0.3-1.1,0.6-1.7,0.9
		c-4.2,2.1-8.4,3.9-12.5,5.5l-1,0.4h0c-0.8,0.3-1.7,0.6-2.5,0.9l-0.8,0.3c-1.3,0.4-2.5,0.8-3.8,1.2c-1.7,0.6-3.6,1.1-5.7,1.6
		l-0.8,0.2c-0.4,0.1-0.8,0.2-1.1,0.3l-0.4,0.1c-1.2,0.3-2.4,0.6-3.5,0.8c-2.7,0.6-5.3,1.1-7.8,1.5l-0.6,0.1c-1,0.1-1.9,0.3-2.9,0.4
		c-1.4,0.2-2.8,0.4-4.3,0.5c-0.6,0.1-1.2,0.1-1.9,0.2c-1.3,0.1-2.7,0.3-4,0.4l-3.8,0.2c-0.7,0-1.4,0.1-2.1,0.1
		c-0.8,0-1.6,0.1-2.4,0.1h-0.1l-0.5,0c-0.6,0-1.1,0-1.8,0c-35.7,0.6-63.6-10.4-66.3-17.7c-0.9-2.4-1.5-5.9-1.7-10.1
		c-1.5-30.2,16.7-102.5,81.5-164.7c16.9-16.8,35.8-32.2,56.2-45.7c12.3-8.1,25.2-15.7,38.4-22.4c23.3-11.9,47.7-21.6,72.7-28.9
		c0.6-0.2,1.2-0.4,1.8-0.5l0.6-0.2c5.6-1.6,11.3-3.1,16.9-4.4c4.4-1,8.6-1.9,12.8-2.8c2.7-0.5,4.9-0.9,6.6-1.2l0.5-0.1
		c7.3-2.2,15.2-4,23.3-5.4c0.3,0,0.7-0.1,1.1-0.2c0.3,0,0.5-0.1,0.8-0.1c11.7-1.9,24.8-2.9,38.7-3.2c2.2,0,4.3-0.1,6.4-0.1
		c11.4,0,22.3,0.5,32.4,1.6l0.3,0c13.1,1.4,25.3,3.6,36.3,6.8l0.6,0.1c0,0,1,0.1,2.7,0.4c1.9,0.3,4.7,0.8,7.8,1.4
		c6.2,1.2,16.3,3.3,29.4,7l1.2,0.4c0.5,0.1,1,0.3,1.6,0.5c24.9,7.3,49.3,16.9,72.4,28.7c13.2,6.7,26.2,14.3,38.6,22.5
		c20.5,13.6,39.5,29,56.5,45.9c65.6,63,83.4,136.4,81.3,165.9c-0.2,3.7-0.8,6.6-1.6,8.8c-0.1,0.1-0.1,0.3-0.2,0.5l-0.1,0.2
		c-0.2,0.3-0.4,0.6-0.7,1l-0.5,0.6c-4.1,4-13.1,8.1-24.3,10.9c-0.2-24.9-20.4-45.1-45.3-45.1c-23.4,0-42.7,18-45,41
		c-15.9-5.7-29.8-14.1-41.2-25l-12.6-12l0.8,2.2l5.3,15.3c1.1,3.3,2.3,6.6,3.5,10c7.5,20.9,15.8,41.4,24.5,60.8l1.9,4.3l4.1-2.5
		l1.5-0.9c4.2-2.5,17.6-9.5,33.9-9.7c8.4-0.1,16.4,1.7,23.6,5.2c0.8,0.4,1.5,0.8,2.2,1.3c21.5,13.4,20.4,60.1,8.4,97.2l-0.1,0.4
		c-0.2,0.6-0.4,1.1-0.5,1.7c-0.1,0.2-0.2,0.5-0.3,0.7c-2.1,6.3-4.6,12.3-7.4,18.1l-1.1,2.2l1.4,2c5.8,8.4,12,16.7,18.2,24.8
		c12.2,15.7,24.9,30.6,37.7,44.2c18.2,20.1,34.3,39.5,47.7,57.6v0.3l1,1c25.4,34.5,42.8,65.9,52.9,95.9l1.2,3.8l0.8,0.1
		c2,4.6,7.3,17,13.8,35.3c15.1,43,34.2,110.8,40.1,191.1h8.5c-5.9-81.5-25.3-150.3-40.6-193.9c-8.4-24-14.7-37.6-15-38.1l-0.9-1.9
		l-0.1,0c-10.4-30.4-27.8-61.9-53.2-96.4l-0.8-1.1c-13.8-18.7-30.3-38.7-49.2-59.5c-12.7-13.5-25.2-28.1-37.2-43.7
		c-5.7-7.3-11.2-14.9-16.6-22.5c2.5-5.4,4.7-11,6.7-16.8c0-0.2,0.1-0.3,0.2-0.4l0.1-0.4c0.2-0.6,0.4-1.1,0.5-1.7c0,0,0-0.1,0-0.1
		l0.3-0.7v-0.3c13.1-41.1,13.1-90.6-12.1-106.3c-1-0.7-2-1.2-3-1.7c-8.5-4.1-17.8-6.2-27.5-6.1c-15.8,0.1-29.1,6-35.5,9.4
		c-7.5-16.8-14.5-34.4-21.1-52.4c11.1,8.1,23.8,14.4,37.8,18.8l6.2,1.9l-0.8-6.5v-0.8c0-20.4,16.5-37,36.8-37
		c20.3,0,36.8,16.6,36.8,37c0,1.4-0.1,2.9-0.3,4.6l-0.7,5.8l5.7-1.2c15.5-3.3,27.8-8.5,33.9-14.4c0.3-0.3,0.5-0.5,0.8-0.8
		c0.2-0.3,0.4-0.5,0.5-0.6c0.5-0.6,0.9-1.3,1.3-1.8c0.4-0.7,0.8-1.4,1.1-2.2c8.1-22.1-4.3-109.3-81.7-183.7
		c-17.3-17.3-36.7-33-57.7-46.9c-12.7-8.3-25.9-16.1-39.4-22.9c-23.6-12-48.5-21.9-73.8-29.3c-0.6-0.2-1.1-0.3-1.7-0.5l-1.2-0.4
		c-13.5-3.8-23.9-6-30.2-7.2c-3.3-0.6-6-1.1-8.1-1.4c-1.3-0.2-2.1-0.3-2.6-0.4c-11.5-3.2-24.2-5.6-37.7-7l-0.3,0
		c-10.3-1.1-21.4-1.6-33.1-1.6c-2.2,0-4.3,0-6.6,0.1c-14.3,0.3-27.8,1.4-39.8,3.3c-0.3,0-0.7,0.1-1,0.2c-0.3,0-0.5,0.1-0.9,0.1
		c-8.4,1.4-16.6,3.3-24.2,5.6c-1.7,0.3-3.9,0.7-6.5,1.2c-4.3,0.8-8.8,1.8-13.2,2.8c-5.8,1.4-11.6,2.9-17.3,4.5l-0.6,0.1
		c-0.7,0.2-1.4,0.4-2,0.6c-25.4,7.4-50.3,17.3-74.1,29.5c-13.4,6.9-26.6,14.6-39.2,22.9c-20.9,13.8-40.3,29.6-57.5,46.7
		C147.3,282.9,135,370,143.2,392.1c4.8,13.1,38.8,23.7,74.3,23.3c0.7,0,1.3,0,1.9,0c0.3,0,0.6,0,0.8,0c0.8,0,1.6,0,2.4-0.1
		c0.8,0,1.5-0.1,2.3-0.1l3.9-0.3c1.4-0.1,2.9-0.2,4.2-0.4c0.7-0.1,1.4-0.1,2-0.2c1.5-0.1,3-0.4,4.5-0.6c1-0.1,2-0.3,3-0.5l0.6-0.1
		c2.7-0.4,5.4-1,8.3-1.6c1.2-0.3,2.4-0.6,3.6-0.8l2.5-0.6c2.2-0.6,4.2-1.1,6.1-1.7c1.3-0.4,2.6-0.8,4.1-1.3l0.8-0.3
		c0.8-0.3,1.6-0.6,2.4-0.9l0.6,0l0.7-0.4c4.4-1.6,8.9-3.6,13.5-5.9c0.7-0.3,1.3-0.7,1.9-1c1.9-1,3.9-2.1,5.8-3.2
		c1.2-0.8,2.5-1.5,3.7-2.3c8.7-5.6,16.5-12.3,23.4-19.9c-6.8,22-15.7,44.9-26.6,68.3c-10.3-5.4-36.2-16-62.6-3.1
		c-28.8,14-29.1,65.9-14.5,110c0,0.1,0.1,0.3,0.1,0.4l0.1,0.3c0.1,0.3,0.1,0.5,0.3,0.9l0.1,0.4c1.4,4.1,2.9,8.1,4.6,12.1
		c-24.8,34.5-51.7,66.5-77.8,92.8c-7.9,8-15.3,16.2-22,24.4l-1.3,1.6c-6.8,8.5-13.1,17.3-18.7,26.1c-3.3,5.3-6.5,10.7-9.4,16
		c-1.3,2.4-2.5,4.7-3.5,6.8h-1.6v3.3c-52.2,106.8-71.7,189-78.8,239.1c-3.7,26.1-4.1,43.4-4,51.4H13.1z"/>
	<path class="st2" d="M373.3,340.1c-5.4,33.7-24,43.8-33.1,69.5c-7.5,21-24.8,24.1-30.9,17.8c11-25.5,19.5-50.4,25.4-74.1l0.1-0.5
		v-0.5l-2.9,0l23.7-53.8C355.6,298.5,378.7,306.4,373.3,340.1z"/>
	<path class="st2" d="M650.7,270.8c0,0-0.4,0.7-1.1,2c-4.5,8.6-20,43.4,2.1,75.6c25.5,37,55.3,31.8,55.3,31.8L650.7,270.8z"/>
	<path class="st3" d="M396.3,207.9c-18.7,43.2-40.6,92.8-60.3,134.1c-1.7,3.5-3.5,6.9-5.4,10.1l-3.7-2c-0.7,1.2-1.4,2.3-2.1,3.4
		c-8.4,13-19.3,24-32.4,32.4c-1.1,0.7-2.3,1.5-3.5,2.1c-1.8,1.1-3.6,2.1-5.5,3.1c-0.5,0.3-1.1,0.6-1.7,0.9
		c-4.2,2.1-8.4,3.9-12.5,5.5l-1,0.4h0c-0.8,0.3-1.7,0.6-2.5,0.9l-0.8,0.3c-1.3,0.4-2.5,0.8-3.8,1.2c-1.7,0.6-3.6,1.1-5.7,1.6
		l-0.8,0.2c-0.4,0.1-0.8,0.2-1.1,0.3l-0.4,0.1c-1.2,0.3-2.4,0.6-3.5,0.8c-2.7,0.6-5.3,1.1-7.8,1.5l-0.6,0.1c-1,0.1-1.9,0.3-2.9,0.4
		c-1.4,0.2-2.8,0.4-4.3,0.5c-0.6,0.1-1.2,0.1-1.9,0.2c-1.3,0.1-2.7,0.3-4,0.4l-3.8,0.2c-0.7,0-1.4,0.1-2.1,0.1
		c-0.8,0-1.6,0.1-2.4,0.1h-0.1l-0.5,0c-0.6,0-1.1,0-1.8,0c-35.7,0.6-63.6-10.4-66.3-17.7c-0.9-2.4-1.5-5.9-1.7-10.1
		c8.5-35.4,46.5-142.1,199.2-176.8C370.5,199.4,386,201.8,396.3,207.9z"/>
	<path class="st3" d="M868.9,380.4c-0.2,3.7-0.8,6.6-1.6,8.8c-0.1,0.1-0.1,0.3-0.2,0.5l-0.1,0.2c-0.2,0.3-0.4,0.6-0.7,1l-0.5,0.6
		c-4.1,4-13.1,8.1-24.3,10.9c-0.2-24.9-20.4-45.1-45.3-45.1c-23.4,0-42.7,18-45,41c-15.9-5.7-29.8-14.1-41.2-25l-12.6-12l0.8,2.2
		c-4.8-6.3-9.2-13.4-12.9-21.3c-18.7-39.1-42.1-85.9-60.1-127.5c0.1-0.1,0.2-0.2,0.3-0.3c12.8-10.7,30.6-13.1,46-6.6
		C717.1,227,843.6,287.7,868.9,380.4z"/>
	<ellipse class="st3" cx="510.6" cy="315.2" rx="123.2" ry="147.8"/>
	<g>
		<ellipse class="st4" cx="510.6" cy="298.5" rx="114.5" ry="131.2"/>
		<ellipse class="st1" cx="510.6" cy="306.1" rx="110.2" ry="126.3"/>
		<path class="st1" d="M601,306.1c0,6.5-0.5,12.9-1.5,19.1c-7.8,48.1-44.6,84.4-88.8,84.4c-44.2,0-81-36.4-88.8-84.4
			c-1-6.2-1.5-12.6-1.5-19.1c0-57.2,40.5-103.5,90.4-103.5C560.5,202.6,601,248.9,601,306.1z"/>
		<path class="st5" d="M599.5,325.2c-7.8,48.1-44.6,84.4-88.8,84.4c-44.2,0-81-36.4-88.8-84.4c22.9-26.4,54.3-42.7,88.8-42.7
			C545.2,282.5,576.6,298.8,599.5,325.2z"/>
		<ellipse class="st4" cx="470.6" cy="266.5" rx="40" ry="53.1"/>
		<ellipse class="st6" cx="559.7" cy="358.4" rx="16.3" ry="21.7"/>
	</g>
	<path class="st1" d="M322.3,357.5l46.5-86.7l-38,90.9C328.1,367.6,319.3,363.4,322.3,357.5L322.3,357.5z"/>
	<path class="st1" d="M706.6,389.6l-55.9-116.2L715,385.1C718.1,390.8,709.6,395.4,706.6,389.6L706.6,389.6z"/>
	<path class="st1" d="M413.4,149.1c2.7-23.9,18.4-47.4,42.4-53.6c35.9-8.3,73.9-7.3,109.6,1.5c21.1,7.9,33.2,35.6,39,55.8
		c-8.5-17.2-22-42.8-41.2-48.8c-33.1-5.4-71.1-6.7-105.5-0.7C435.2,107.9,420.4,127.6,413.4,149.1L413.4,149.1z"/>
	<path class="st1" d="M482.7,498.5c7,5.6,17.3,29.2,14.7,32.5c-3,3.8-27.8-1.6-34.8-7.2c-7-5.6-8.1-15.8-2.5-22.7
		S475.7,492.9,482.7,498.5z"/>
	<path class="st1" d="M533.5,498.5c-7,5.6-17.3,29.2-14.7,32.5c3,3.8,27.8-1.6,34.8-7.2c7-5.6,8.1-15.8,2.5-22.7
		S540.5,492.9,533.5,498.5z"/>
	<path class="st1" d="M225.1,545.7c6.5,20.5,17.6,39.5,30,57c8.8,12,18.8,23.5,29.4,34c-10.5-8.9-20.9-18.6-30-29
		c-10.9-12.2-20.6-25.5-28.8-39.8c-2.4-4.1-4.6-8.3-6.6-12.6c-1-2.2-2-4.3-2.9-6.8c-0.9-2.5,0.3-5.2,2.7-6.2
		C221.5,541.4,224.4,543,225.1,545.7L225.1,545.7z"/>
	<path class="st1" d="M815.6,547c-8.1,21.7-23.5,39.9-39.9,55.7c-12.1,11.6-25.9,21.8-39.9,30.9c0,0-14.3,8.7-14.3,8.7
		c4.7-3.3,16-11.3,20.2-14.8c19.5-15.3,37.3-33.4,50.8-54.2c4.4-6.9,8.3-14,11.4-21.5c0.9-2.3,1.9-5.1,2.5-7.4
		C808.2,538.2,817.4,540.7,815.6,547L815.6,547z"/>
	<path class="st1" d="M297,442.8l16.2,21.2l-22.4-14l-0.2-0.1C284.4,445.5,292,437.1,297,442.8L297,442.8z"/>
	<path class="st1" d="M739.6,450.5l-18.1,10.4l11.6-17.4C738.1,437.2,746.3,446.1,739.6,450.5L739.6,450.5z"/>
	<path class="st1" d="M339.6,670.9C385.9,694,437,707,488.6,709.6c66.7,3.6,132.1-13.8,192.2-42.6c-39.9,28.2-87.3,47-136,53.2
		C474.5,729.3,397.3,713,339.6,670.9L339.6,670.9z"/>
	<path class="st1" d="M421.8,417.6c35.5,33.7,82.7,54.1,129.6,32.2c20-9.2,36.9-23.1,52.9-38.6c-15.5,21.8-36.8,41.2-62.5,50.3
		C496.9,477.9,448.7,454.6,421.8,417.6L421.8,417.6z"/>
	<path class="st1" d="M381.7,728.4c45.5,22.6,97.2,32.9,147.8,29.2c39.7-3,77.6-15.1,113.7-32.2c-37.8,26.7-83.9,42.1-130.4,42.6
		C466.7,768.4,419.2,755.8,381.7,728.4L381.7,728.4z"/>
	<path class="st2" d="M421.5,141.3c-0.1-1.6-0.4-3.1-0.7-4.7c-0.2-1-0.4-2.1-0.7-3.1c-0.3-1.4-0.7-2.8-1.2-4.2c0-0.1,0-0.2-0.1-0.2
		c-0.3-0.9-0.6-1.8-1-2.6c0,0-7-3.3-15.9-9.4c0,0,0,0,0,0c-0.1-0.1-0.2-0.1-0.3-0.2c-1.3-0.9-2.6-1.8-3.9-2.8
		c-0.3-0.2-0.5-0.4-0.8-0.6c-0.9-0.7-1.8-1.4-2.8-2.2c0,0-0.1-0.1-0.1-0.1c-0.5-0.4-1.1-0.9-1.6-1.3c-3.8-3.2-7.7-6.7-11.3-10.7
		c-1.1-1.2-2.2-2.5-3.2-3.8C373.7,90,370,84,367.5,77.6c-0.8-2.1-1.5-4.3-2-6.6c-4-16.9,0.6-37.2,23.1-60c2.8-2.8-0.2-7.4-3.9-6
		c-29.4,11.2-59.6,32.8-79.9,60.9c-3,4.2-5.8,8.5-8.3,12.9c-2.5,4.4-4.8,9-6.8,13.6c-1.2,2.8-2.3,5.6-3.2,8.5
		c-4.9,14.5-7.1,30-5.5,46.2c0.4,4.6,1.2,9,2.3,13.2c0.4,1.6,0.9,3.1,1.4,4.7c0.5,1.5,1.1,3.1,1.8,4.6c3.2,7.8,7.7,14.9,12.9,21.4
		c1.5,1.9,3,3.6,4.6,5.4c1,1.2,2.1,2.3,3.2,3.4c0.7,0.8,1.2,1.2,1.2,1.2s0,0,0,0c2,2,4.1,3.9,6.2,5.7c1.4,1.2,2.8,2.4,4.2,3.5
		c1.3,1,2.6,2,3.9,3c4.8,3.6,9.6,6.7,14.3,9.5c1.3,0.8,2.7,1.6,4,2.3c0.1,0.1,0.2,0.2,0.4,0.2c0.9,0.5,1.7,0.9,2.6,1.4
		c1,0.5,2,1,3,1.5c0.2,0.1,0.4,0.2,0.6,0.3c0.4,0.2,0.8,0.4,1.2,0.6c6.8,3.2,12.8,5.4,17,6.3c3.4,0.1,9.6-3.8,16.7-10.3
		c2.6-2.4,5.3-5.1,8-8.1c1.4-3.2,2.8-6.4,4.3-9.9c6-13.5,12.8-28.8,20.4-45.3c2.1-4.6,4.3-9.4,6.5-14.2
		C421.8,145.5,421.7,143.4,421.5,141.3z M381.8,11.3c-15.8,17.2-23.2,34.6-22.2,51.8c0.1,1.5,0.2,3.1,0.5,4.6
		c-24.1-8.8-48.4,4.9-58.8,12.1C319.1,49.1,349.8,24.6,381.8,11.3z"/>
	<path class="st1" d="M426.5,146.3c0-0.3,0-0.5,0-0.8c0-1.1-0.1-2.1-0.2-3.2c0-0.5-0.1-0.9-0.1-1.4c-0.4-4.5-1.4-8.8-2.7-13
		c-0.4-1.1-0.8-2.3-1.2-3.4c-0.2-0.4-0.4-0.8-0.7-1.2c-0.5-0.6-1-1.1-1.7-1.4c0,0-1.8-0.9-4.7-2.5c-2-1.1-4.4-2.5-7.1-4.3
		c-0.7-0.4-1.4-0.9-2.1-1.4c-0.1-0.1-0.1-0.1-0.2-0.2c0,0,0,0,0,0c-0.9-0.6-1.9-1.3-2.9-2c-0.3-0.2-0.6-0.4-0.8-0.6
		c0,0-0.1,0-0.1-0.1c-1.2-0.9-2.5-1.8-3.8-2.8c0,0-0.1,0-0.1-0.1c-0.3-0.2-0.6-0.5-0.9-0.7c-12.2-9.7-26.9-25.3-28.1-44.9
		c-0.9-15.6,6.8-31.8,22.9-48.1c2.8-2.9,3.2-7.2,1.1-10.6c-2.2-3.4-6.3-4.7-10-3.3c-58,22.1-113.4,79.8-106.8,147
		c0.4,5.5,1.4,10.7,2.9,15.7c0.5,1.6,1,3.1,1.5,4.7c0.5,1.6,1.1,3.1,1.8,4.5c6.4,14.8,16.6,26.9,27.1,36.3c1.3,1.2,2.6,2.3,3.9,3.4
		c1.5,1.2,2.9,2.4,4.4,3.5c3,2.3,6,4.4,8.8,6.3c4.8,3.2,9.1,5.7,12.5,7.5c0.6,0.4,1.3,0.7,1.9,1c1,0.5,1.9,1,2.9,1.5
		c1,0.5,2,1,3,1.5c0.1,0,0.2,0.1,0.3,0.1c0.2,0.1,0.3,0.2,0.5,0.2c6.3,2.9,12.3,5.1,17.1,6.2c0.3,0.1,0.6,0.1,1,0.1h0.1
		c3.6,0,7.9-2.2,12.2-5.2c3.8-2.7,7.5-6.1,10.5-9c0.8-0.8,1.6-1.6,2.3-2.3c0.6-0.6,1.1-1.2,1.6-1.7c0.7-0.7,1.2-1.3,1.7-1.8
		c0.3-0.4,0.6-0.8,0.8-1.3c8.7-19.8,17.7-39.8,26.8-59.7c1.5-3.2,2.9-6.4,4.4-9.6c0.3-0.6,0.4-1.3,0.4-2v-0.8
		C426.5,146.6,426.5,146.5,426.5,146.3z M341.5,219.9c0,0-0.1,0-0.1-0.1c-4.7-2.6-10.7-6.4-17-11.2c-0.5-0.4-0.9-0.7-1.4-1.1
		c-0.7-0.5-1.4-1.1-2.1-1.7c-4.1-3.3-8.2-7-12.1-11.2c0,0,0,0,0-0.1c-0.2-0.2-0.3-0.4-0.5-0.5c-0.1-0.1-0.1-0.1-0.2-0.2
		c-0.2-0.2-0.4-0.4-0.5-0.6c0,0,0,0,0,0c-0.6-0.6-1.2-1.3-1.7-1.9h0c-1.1-1.3-2.3-2.7-3.4-4.1c-0.6-0.7-1.2-1.5-1.7-2.3
		c-1.2-1.6-2.4-3.3-3.5-5c-2.6-4-4.9-8.4-6.7-13c-0.6-1.5-1.2-3-1.7-4.6c-0.5-1.5-1-3.1-1.4-4.7c-0.9-3.5-1.5-7.2-1.8-11
		c-1.4-14.8,0.3-29,4.7-42.5c0,0,0,0,0,0c0.6-1.8,1.2-3.6,1.8-5.4c1-2.6,2-5.2,3.2-7.7c0,0,0,0,0,0c0-0.1,0.1-0.2,0.1-0.3
		c0.8-1.8,1.7-3.6,2.7-5.4c1-1.9,2-3.8,3.1-5.7c17.9-30.7,48.5-55.2,80.5-68.5c-15.8,17.2-23.2,34.6-22.2,51.8
		c0.1,1.5,0.2,3.1,0.5,4.6c0.1,0.7,0.2,1.4,0.3,2.1c0.2,1.2,0.5,2.3,0.8,3.4s0.6,2.3,1,3.4v0c0,0,0,0,0,0c0,0,0,0.1,0,0.1
		c0.4,1.3,0.9,2.6,1.5,4c0,0,0,0.1,0,0.1c2,5,4.8,9.9,8.4,14.6c0.4,0.5,0.8,1.1,1.2,1.6c0.8,1.1,1.6,2.1,2.5,3.1
		c0.5,0.6,1.1,1.3,1.7,1.9h0v0c0,0,0.1,0.1,0.3,0.4c0.6,0.7,1.3,1.4,1.9,2.1c0.1,0.2,0.3,0.3,0.5,0.5c2.1,2.1,4.3,4.2,6.7,6.3
		c1.1,1,2.2,1.9,3.4,2.8c0.3,0.2,0.5,0.4,0.8,0.7c0,0,0.1,0.1,0.1,0.1c0.9,0.7,1.7,1.4,2.6,2c0.7,0.6,1.4,1.1,2.1,1.6
		c0.6,0.4,1.1,0.8,1.7,1.2c7.2,5.1,13.4,8.5,16.3,10c0.4,1,0.7,2.1,1,3.1c0.4,1.2,0.7,2.5,0.9,3.8c0.1,0.3,0.1,0.5,0.2,0.8
		c0.2,1,0.3,2.1,0.5,3.1c0.1,0.7,0.2,1.4,0.2,2.1c0.1,1.3,0.2,2.5,0.2,3.8c-1.8,4-3.7,7.9-5.5,11.9c-0.7,1.5-1.3,2.9-2,4.4
		c-6.4,14.1-12.8,28.2-19,42.2c-1.3,3.1-2.7,6.1-4,9.2c-9.9,10.9-17.8,15.8-20.3,16.2c-4.5-1.1-10.2-3.3-16.3-6.2
		c-0.6-0.3-1.2-0.6-1.7-0.8c-0.2-0.1-0.5-0.3-0.8-0.4c-1-0.5-2-1-3-1.6c-0.2-0.1-0.5-0.3-0.7-0.4C343,220.7,342.2,220.3,341.5,219.9
		z"/>
	<path class="st0" d="M359.6,63.1c0.1,1.5,0.2,3.1,0.5,4.6c-24.1-8.8-48.4,4.9-58.8,12.1c17.9-30.7,48.5-55.2,80.5-68.5
		C366,28.5,358.5,45.9,359.6,63.1z"/>
	<path class="st0" d="M442.1,113c-6.2,13.1-12.2,25.9-17.9,38.1c-12.2,26.4-22.8,50.3-31.2,69.4c-12.4,28.1-19.8,45.9-19.8,45.9
		s-27.3-8.7-29.2-32.6c-0.1-1.5-0.2-3.2-0.1-5c0.5-26.3,17.3-79.7,46.7-108.7c2.1-2,4.1-3.8,6-5.4C424.6,92.2,442.1,113,442.1,113z"
		/>
	<path class="st1" d="M373.2,266.4c-14.1-3.8-28.1-13.9-31.3-29.1c-1.2-5.2-1-10.2-0.8-15.1c4-40.4,21.4-84.3,52.9-111.1
		c10.3-8,24.2-13.8,37.2-9.2c4.5,1.6,8.6,4,12,7.4c0.5,0.5,1,1,1.6,1.7c0.9,1,1,2.4,0.4,3.6c-9.5,18.6-19.1,37.2-29.5,55.4
		c7.3-19.6,15.2-39,23.3-58.2c0,0,0.5,3.6,0.5,3.6c-5.9-5.8-14.8-8.2-22.9-6.2c-30.8,8.7-53.8,57.6-62.8,86.4
		c-3.9,13.2-8,27.3-6.9,41C348.9,250.5,360.6,260.5,373.2,266.4L373.2,266.4z"/>
	<path class="st1" d="M302.2,197.1c-0.1,0-0.2,0-0.3,0c-1.7-0.2-3-1.7-2.8-3.5c0.1-0.7,7.1-65.7,77.7-98.1c1.6-0.7,3.5,0,4.2,1.6
		c0.7,1.6,0,3.5-1.6,4.2c-67.3,30.9-74,92.3-74,93C305.2,195.9,303.8,197.1,302.2,197.1z"/>
	<path class="st1" d="M288.3,101.6c-0.7,0-1.5-0.3-2.1-0.8c-1.3-1.2-1.5-3.2-0.3-4.5c0.3-0.4,34.4-38.9,81.5-24.8
		c1.7,0.5,2.6,2.3,2.1,4c-0.5,1.7-2.3,2.6-3.9,2.1c-43.3-13-74.6,22.5-74.9,22.9C290,101.2,289.1,101.6,288.3,101.6z"/>
	<path class="st2" d="M731.7,101c-1-2.9-2-5.7-3.2-8.5c-1.8-4.2-3.8-8.3-6-12.3c-0.3-0.5-0.6-1.1-0.9-1.6c-1.5-2.7-3.2-5.4-4.9-8
		c-0.5-0.8-1-1.5-1.6-2.3c-2.1-3-4.2-5.9-6.5-8.7c0,0,0-0.1,0-0.1c-20.1-25-47.9-44.2-75-54.5c-3.7-1.4-6.7,3.2-3.9,6
		c22.5,22.8,27.1,43,23.1,60c-0.5,2.3-1.2,4.4-2,6.6c-2.2,5.8-5.4,11.1-9,15.9c-0.4,0.6-0.9,1.2-1.4,1.7c-0.5,0.7-1.1,1.4-1.7,2.1
		c-0.5,0.6-1,1.2-1.5,1.8c-3.6,4-7.4,7.6-11.3,10.7c-0.5,0.4-1.1,0.9-1.6,1.3c0,0.1-0.1,0.1-0.1,0.1c-0.9,0.7-1.8,1.4-2.7,2.1
		c-0.3,0.2-0.6,0.4-0.8,0.6c-1.3,1-2.6,1.9-3.9,2.8v0c-0.1,0.1-0.2,0.1-0.3,0.2h0c-0.1,0.1-0.1,0.1-0.2,0.1
		c-8.9,6.1-15.8,9.3-15.8,9.3c-1,2.5-1.8,5.1-2.4,7.7c0,0.1,0,0.2,0,0.2c-0.3,1.4-0.6,2.9-0.8,4.3c-0.4,3-0.6,6-0.6,9
		c8.6,18.8,16.5,36.3,23.4,51.7c0.5,1,0.9,2.1,1.4,3.1c1.7,3.9,3.4,7.7,5,11.3c0.5,1.1,1,2.2,1.5,3.3c0.4,0.5,0.8,0.9,1.2,1.4
		c1.4,1.5,2.8,3,4.2,4.3c8.2,8,15.5,12.8,19.3,12.7c4.6-1,11.3-3.5,18.8-7.2c0.9-0.4,1.8-0.9,2.7-1.4c0.1,0,0.2-0.1,0.3-0.1
		c0.8-0.4,1.7-0.9,2.6-1.4c0.1-0.1,0.2-0.1,0.4-0.2c3.2-1.7,6.5-3.7,9.9-5.9c1.3-0.9,2.7-1.8,4-2.7c1.5-1,2.9-2,4.4-3.1
		c6.5-4.9,12.9-10.5,18.7-16.8c0.4-0.5,0.8-0.9,1.3-1.4c0-0.1,0.1-0.1,0.2-0.2c1.1-1.3,2.2-2.5,3.2-3.8c5.2-6.5,9.7-13.7,13-21.5h0
		c0.6-1.5,1.2-3.1,1.8-4.6c0.5-1.5,1-3.1,1.4-4.7c0.6-2,1-4.1,1.4-6.2c0,0,0,0,0-0.1c0.4-2.3,0.7-4.6,0.9-6.9
		C738.8,131,736.6,115.5,731.7,101z M636.3,11.3c31.3,13,61.2,36.6,79.2,66.3c-19.6-14.1-46.7-13.2-57.2-11.9
		c0.1-0.9,0.2-1.7,0.2-2.6C659.6,45.9,652.1,28.5,636.3,11.3z"/>
	<path class="st1" d="M635.2,0.6c-3.7-1.4-7.9-0.1-10,3.3c-2.2,3.4-1.7,7.7,1.1,10.6C642.3,30.8,650,47,649.1,62.5
		c-1.2,19.6-15.9,35.2-28,44.9c-0.3,0.2-0.6,0.5-0.9,0.7c0,0,0,0-0.1,0.1c-1.3,1-2.5,1.9-3.7,2.8c-0.2,0.2-0.5,0.4-0.8,0.6
		c0,0-0.1,0.1-0.1,0.1c-0.7,0.5-1.4,1-2.1,1.5c-0.3,0.2-0.7,0.5-1,0.7l0,0c0,0,0,0-0.1,0c-0.7,0.5-1.4,0.9-2,1.3h0
		c-4.1,2.6-7.5,4.5-9.6,5.6c-1.4,0.8-2.3,1.1-2.3,1.2c-1.1,0.5-1.9,1.4-2.4,2.6c-0.4,1-0.8,2.1-1.1,3.1c-0.5,1.6-1,3.1-1.4,4.8
		c-0.8,3.2-1.3,6.5-1.6,9.9c-0.1,1.3-0.2,2.6-0.2,3.9c0,0.4,0,0.9,0,1.3c0,0.7,0.1,1.4,0.4,2c1.4,3.1,2.9,6.3,4.3,9.4
		c6.8,14.8,13.5,29.7,20.1,44.5c2.3,5.2,4.6,10.3,6.8,15.4c0.2,0.5,0.5,0.9,0.8,1.3c0.1,0.1,0.2,0.3,0.4,0.4
		c0.3,0.4,0.8,0.9,1.3,1.4c1.2,1.3,2.7,2.8,4.4,4.5c2.3,2.2,5,4.7,7.8,6.8c4.9,3.8,10.1,6.8,14.4,6.8h0.1c0.3,0,0.6,0,1-0.1
		c5-1.1,11.3-3.4,17.9-6.6c1-0.5,1.9-0.9,2.9-1.4c0.9-0.5,1.9-1,2.9-1.5c0.6-0.3,1.3-0.7,1.9-1c0.6-0.3,1.3-0.7,1.9-1.1
		c3.1-1.7,6.7-3.9,10.7-6.5c1.4-1,2.9-2,4.4-3c1.4-1,2.8-2,4.2-3.1c13.1-10.1,27.4-24.4,35.5-43.1c0.1-0.2,0.1-0.2,0.1-0.2
		c0.7-1.5,1.3-3,1.8-4.6c0.5-1.5,1.1-3.1,1.5-4.7c1.4-4.9,2.4-10.1,2.8-15.5C748.5,80.3,693.2,22.7,635.2,0.6z M673,221.9
		c-0.7,0.4-1.5,0.8-2.3,1.2c-7,3.5-13.7,6.2-18.8,7.5c-2.4-0.5-9.7-4.9-18.9-14.7c-0.4-0.5-0.9-1-1.4-1.5c-0.5-1.2-1-2.3-1.5-3.5
		c-1.6-3.6-3.1-7.1-4.7-10.7c-0.4-1-0.9-2-1.4-3.1c-7.5-16.8-15.1-33.7-22.9-50.5c0-0.1,0-0.2,0-0.3c0-1.1,0.1-2.1,0.1-3.2
		c0.4-4.6,1.3-9,2.8-13.2c2.8-1.4,8.7-4.6,15.7-9.5c0.2-0.2,0.4-0.3,0.7-0.5c0,0,0,0,0,0c0.5-0.4,1.1-0.8,1.7-1.2
		c0.7-0.5,1.4-1,2.1-1.6c0.9-0.7,1.8-1.3,2.7-2.1c0,0,0,0,0.1-0.1c0.3-0.2,0.5-0.4,0.8-0.7c1.2-0.9,2.3-1.9,3.4-2.8
		c3.5-3,6.6-6.1,9.4-9.3c0.5-0.6,1-1.2,1.5-1.7c0.9-1.1,1.8-2.2,2.7-3.3c0.9-1.1,1.7-2.2,2.5-3.4c3.8-5.5,6.8-11.2,8.7-17
		c0.3-0.9,0.6-1.8,0.8-2.7c0.4-1.4,0.7-2.8,1-4.2c0.3-1.4,0.5-2.7,0.6-4.1c0.1-0.9,0.2-1.7,0.2-2.6c1-17.2-6.4-34.6-22.2-51.8
		c31.3,13,61.2,36.6,79.2,66.3c0.4,0.7,0.8,1.4,1.2,2c1.1,1.9,2.2,3.9,3.2,5.9c0.9,1.7,1.7,3.4,2.5,5.1c0,0,0,0,0,0
		c1.2,2.7,2.4,5.4,3.4,8.1c0,0.1,0,0.1,0.1,0.2c0.6,1.7,1.2,3.4,1.8,5.1c4.4,13.5,6.2,27.9,4.7,42.8c-0.3,3.7-0.9,7.4-1.8,10.8
		c-0.4,1.6-0.8,3.2-1.3,4.7c-0.5,1.6-1.1,3.1-1.7,4.7c-2.1,5.2-4.7,10.1-7.7,14.6c-0.8,1.2-1.6,2.4-2.5,3.5
		c-0.8,1.1-1.7,2.2-2.6,3.3v0c-0.8,1-1.6,2-2.4,2.9c-0.1,0.1-0.1,0.1-0.1,0.2c-0.9,1.1-1.9,2.1-2.9,3.2
		c-6.5,6.9-13.6,12.6-20.1,17.2c-0.7,0.5-1.4,1-2.1,1.4c-0.4,0.3-0.9,0.6-1.3,0.9c-3.4,2.2-6.5,4.1-9.2,5.6
		c-0.8,0.5-1.6,0.9-2.3,1.3c-0.2,0.1-0.5,0.3-0.7,0.4C673.5,221.6,673.2,221.7,673,221.9z"/>
	<path class="st0" d="M715.6,77.6c-19.6-14.1-46.7-13.2-57.2-11.9c0.1-0.9,0.2-1.7,0.2-2.6c1-17.2-6.4-34.6-22.2-51.8
		C667.6,24.3,697.5,47.9,715.6,77.6z"/>
	<path class="st0" d="M576,113c6.2,13.1,12.2,25.9,17.9,38.1c12.2,26.4,22.8,50.3,31.2,69.4c12.4,28.1,19.8,45.9,19.8,45.9
		s27.3-8.7,29.2-32.6c0.1-1.5,0.2-3.2,0.1-5c-0.5-26.3-17.3-79.7-46.7-108.7c-2.1-2-4.1-3.8-6-5.4C593.6,92.2,576,113,576,113z"/>
	<path class="st1" d="M644.9,266.4c12.6-5.9,24.3-15.9,26.2-30c1.1-13.7-3-27.8-6.9-41c-8.9-28.8-32-77.7-62.8-86.4
		c-8.1-2-16.9,0.4-22.9,6.2c0,0,0.5-3.6,0.5-3.6c8.2,19.3,16.1,38.6,23.3,58.2c-10.3-18.2-20-36.7-29.5-55.4c-1.1-2.1,0.6-4,2-5.2
		c3.4-3.3,7.5-5.8,12-7.4c13-4.6,26.8,1.2,37.2,9.2c31.5,26.8,48.9,70.7,52.9,111.1c0.2,4.9,0.4,10-0.8,15.1
		C673,252.5,659.1,262.6,644.9,266.4L644.9,266.4z"/>
	<path class="st1" d="M715.9,197.1c-1.6,0-3-1.2-3.1-2.9l0,0c-0.1-0.6-6.8-62.1-74-93c-1.6-0.7-2.3-2.6-1.6-4.2
		c0.7-1.6,2.6-2.3,4.2-1.6C712,128,719,193,719.1,193.7c0.2,1.7-1.1,3.3-2.8,3.5C716.1,197.1,716,197.1,715.9,197.1z"/>
	<path class="st1" d="M729.9,101.6c-0.9,0-1.8-0.4-2.4-1.1c-0.3-0.4-31.8-35.8-74.9-22.9c-1.7,0.5-3.4-0.5-3.9-2.1
		c-0.5-1.7,0.5-3.5,2.1-4c47.1-14.1,81.2,24.4,81.5,24.8c1.1,1.3,1,3.3-0.3,4.5C731.4,101.3,730.6,101.6,729.9,101.6z"/>
	<path class="st1" d="M320.2,214.9c-44.1,13.1-86.4,35.9-119.1,68.9c-2.4,2.6-7.3,8.2-9.7,10.8c3.6-4.5,8.4-11,12.3-15
		c12.9-14.5,28-27.3,44.1-38.2c16.1-11,33.4-20.5,51.3-28.4c6-2.6,12-5.1,18.4-7.3c2.5-0.9,5.2,0.5,6,3
		C324.5,211.4,322.9,214.3,320.2,214.9L320.2,214.9z"/>
	<path class="st1" d="M692.9,212.1c49.4,24.2,97,54.5,133.3,96.4c-9.6-9.9-19.7-19.1-30.6-27.4c-21.7-16.7-45.1-30.8-69.4-43.2
		c-12.2-6.2-24.6-12-37.1-17C683.2,218.3,686.9,209.5,692.9,212.1L692.9,212.1z"/>
	<path class="st2" d="M345.2,829.8c0,0,42.2,18.9,42.2,71.7c0,52.8-17.2,106-98.6,29.8c-0.1-31.2,20.9-53.3,20.9-53.3L345.2,829.8z"
		/>
	<path class="st1" d="M317.5,829.3c-0.2,0.5-9,23.5-16.9,61.1c-0.3,1.5-0.6,3-0.9,4.6c-2.4,12.1-4.7,25.6-6.5,40.2
		c-1.9,14.9-3.3,31-4,48.1c-3.1-1.3-6.2-2.6-9.3-3.9c4.2-89.8,28.5-152.8,28.8-153.6c0.9-2.4,3.5-3.6,5.9-2.8c0.1,0,0.2,0.1,0.2,0.1
		C317.3,824.1,318.5,826.9,317.5,829.3z"/>
	<path class="st1" d="M774.6,965.8c-2.7-37.1-8.6-68.8-14.3-92.3c-6.6-27.4-12.9-43.7-13.1-44.1c-0.9-2.4,0.2-5.2,2.6-6.1
		c0,0,0,0,0.1-0.1c2.4-1,5.2,0.3,6.1,2.7c0.3,0.8,21.4,55.4,27.7,135.3C780.7,962.7,777.7,964.3,774.6,965.8z"/>
	<path class="st2" d="M960.6,792.3c-39.6,25.9-58.4,1.4-77.6-29.1c-19.2-30.4-75.2-13.2-90.9-71.5c-15.7-58.3,28.5-99.8,28.5-99.8
		c11.6,15.1,24.1,29.8,37.5,44C921.8,706.2,948.2,755.6,960.6,792.3z"/>
	<path class="st2" d="M185.4,823.7c11.7-14.6,44.3-23.1,42.6,7.9C226.4,862.6,141.7,878.3,185.4,823.7z"/>
	<path class="st2" d="M823.3,757.9c-26.6-3.1-50.8,8.3-39.1,32.4c11.7,24,40,19.6,62,42.2c22,22.6,39.1,3.4,36.6-23.5
		C880.4,781.9,861.3,762.3,823.3,757.9z"/>
	<path class="st1" d="M287.9,907.4c10.6-19.1,22.3-37.1,35.3-54.5c13.1-17.1,27.5-33.5,44.8-46.3c-8.2,7-15.4,14.8-22.2,23.1
		c-13.4,16.6-24.8,34.8-35.1,53.5c-5.1,9.4-10,18.9-14.4,28.5C293.5,917.5,284.9,913.3,287.9,907.4L287.9,907.4z"/>
	<path class="st1" d="M763.7,886c-11.5-17.9-24.1-35.5-38.7-51c-5-5.1-10.1-10.1-16.1-14c6.4,3.3,12.2,7.7,17.7,12.3
		c11.1,9.3,21.1,19.8,30.8,30.6c4.8,5.4,9.5,10.9,14.1,16.6c1.6,2.1,1.3,5.1-0.7,6.7C768.5,889,765.1,888.4,763.7,886L763.7,886z"/>
	<path class="st1" d="M308.6,826.1l19.1-42.2l-10.1,45.2C315.8,835.8,306,832.6,308.6,826.1L308.6,826.1z"/>
	<path class="st1" d="M747.3,829.4l-9.1-34.4l17.9,30.8c1.3,2.3,0.6,5.2-1.7,6.6C751.7,834,748,832.4,747.3,829.4L747.3,829.4z"/>
	<path class="st2" d="M737.8,1024c-3.2-28.6-9.8-65-23.2-75c-22.9-17.1-6.5-63.7-37.9-89.2c-31.4-25.6-74.2,7.8-95.4,23.4
		c-47.9,35.3-91.1,105.8-74,140.7H737.8z"/>
	<path class="st1" d="M509.8,1024c-3.9-7.3-5-16.5-3.3-27.7c5.3-35.3,38.1-83.2,76.2-111.3l2.2-1.6c21.5-15.9,61.6-45.6,90.6-21.9
		c16.2,13.2,19.1,32.1,22,50.3c2.4,15.7,4.7,30.6,16,39c9.9,7.4,17.8,33.4,22.3,73.3h4.3c-3.4-30.3-10.3-66.4-24-76.7
		c-9.9-7.4-11.9-20.7-14.3-36.2c-2.8-18.1-6-38.7-23.5-52.9c-31.6-25.8-73.4,5.2-95.8,21.8l-2.2,1.6
		c-38.9,28.7-72.4,77.8-77.9,114.1c-1.7,11.1-0.7,20.6,2.8,28.3H509.8z"/>
	<path class="st1" d="M354,971c-16.7,0-38.9-12.9-66.3-38.5c-0.3-0.3-0.5-0.8-0.5-1.2c-0.1-30.9,19.7-52.7,21.3-54.4l35.4-48.1
		c0.5-0.6,1.3-0.9,2-0.5c0.4,0.2,43.2,20,43.2,73.2c0,25.9-4.2,58.6-24.1,67.3C361.6,970.3,358,971,354,971z M290.5,930.6
		c32.5,30.3,57.2,42.2,73.2,35.2c18.3-8,22.1-39.3,22.1-64.2c0-46.1-33.3-66-40.1-69.6l-34.6,47c0,0.1-0.1,0.1-0.1,0.2
		C310.7,879.3,290.7,900.8,290.5,930.6z M309.7,877.9L309.7,877.9L309.7,877.9z"/>
	<path class="st1" d="M930.5,804.9c-2.5,0-4.9-0.3-7.3-0.8c-17.4-3.8-29.6-21.1-41.5-40c-7.4-11.7-20.9-16.2-35.1-20.9
		c-21.7-7.2-46.3-15.4-56-51.1c-15.8-58.6,28.5-101,29-101.5c0.3-0.3,0.8-0.5,1.3-0.4c0.5,0,0.9,0.3,1.2,0.6
		c11.9,15.5,24.5,30.2,37.4,43.9c53.5,59,87.2,110.4,102.9,157c0.2,0.7,0,1.5-0.7,1.9C950.1,801.2,939.9,804.9,930.5,804.9z
		 M820.4,594.5c-7.1,7.4-40.5,45.8-26.7,96.8c9.2,34,31.9,41.5,53.8,48.8c14.8,4.9,28.9,9.6,36.9,22.3c11.5,18.3,23.2,35,39.4,38.5
		c10.2,2.2,21.5-0.8,34.8-9.2c-15.8-45.9-49.1-96.5-101.8-154.6C844.3,623.8,832.1,609.5,820.4,594.5z"/>
	<path class="st1" d="M187.6,861.5c-6.8,0-12-2.1-14.6-6c-3.1-4.8-3.7-14.3,11.1-32.8l0,0c7.5-9.4,23.8-16.9,35-12.5
		c5.3,2,11.4,7.4,10.6,21.6c-0.8,13.9-16.4,24.4-30.6,28.2C195,860.9,191.1,861.5,187.6,861.5z M185.4,823.7l1.3,1
		c-10.6,13.2-14.4,23.5-10.9,28.9c3,4.7,11.8,5.8,22.4,3c13.5-3.6,27.5-13.4,28.2-25.1c0.5-9.6-2.4-15.9-8.5-18.3
		c-9.6-3.7-24.4,3-31.2,11.5L185.4,823.7z"/>
	<path class="st1" d="M864.8,844c-5,0-11.8-2.2-19.8-10.5c-9.8-10-20.7-14.6-31.3-18.9c-12.5-5.2-24.4-10.1-31-23.7
		c-5.4-11.2-2.9-18.7,0.1-23c6.5-9.2,22.4-13.8,40.6-11.7c36.7,4.3,58.4,22.9,61,52.5c1.4,16-3.8,29.6-13.1,33.9
		C869.7,843.4,867.5,844,864.8,844z M814.7,759c-13.4,0-24.4,4-29.2,10.8c-3.7,5.3-3.6,11.9,0.1,19.6c6.1,12.5,16.8,16.9,29.3,22.1
		c10.4,4.3,22.1,9.1,32.4,19.7c8.1,8.4,16.1,11.3,22.5,8.3c8-3.7,12.5-16,11.2-30.6c-2.5-27.9-23.2-45.5-58.1-49.5
		C820.2,759.2,817.4,759,814.7,759z"/>
	<path class="st7" d="M228.1,447c0,0-35.4,61,47.9,148s313.1,114.3,460.3,5.4c82.3-63.6,77.7-115.5,74.6-136.3
		c13.1,18.9,6.9,58.2,4.8,64.1c-2.1,5.8-10.8,94.8-205.6,171.2c-133.3,47.1-313-15.5-375-122.1C209.1,520.5,203.1,456.7,228.1,447z"
		/>
	<path class="st7" d="M365,278.8l-56.2,181.2l-9.9-9c0,0,3.3-19.2,8.1-28.9c4.8-9.7,33.5-91.7,33.5-91.7L365,278.8z"/>
	<path class="st7" d="M655.6,282.5L729,456.4l6.2-8.5C735.2,447.8,667.5,301.6,655.6,282.5z"/>
	<path class="st7" d="M323.6,796.1c0,0-4.1,40.4,21.6,33.7c-14.6,18.6-46.3,63.8-46.3,63.8s-1.2-21.7,1.8-29.6
		C303.7,856.2,323.6,796.1,323.6,796.1z"/>
	<path class="st7" d="M743.3,807.4c0,0-2.3,21.3-27.9,18c14.1,11.8,37.9,36.6,48.2,51.4C763.6,860.9,743.3,807.4,743.3,807.4z"/>
	<path class="st7" d="M399.5,112.6c0,0,22.3,0.5,19.2,22.4S365,262.7,365,262.7l4.9,5.7l37.7-80.5l33.1-71.7
		C440.7,116.1,433.9,89.8,399.5,112.6z"/>
	<path class="st7" d="M617.2,112.6c0,0-22.3,0.5-19.2,22.4s53.7,127.6,53.7,127.6l-5.9,3.4l-36.7-78.3L576,116.1
		C576,116.1,582.8,89.8,617.2,112.6z"/>
	<path class="st1" d="M426.9,145.6c-0.4,0-0.8-0.2-1.2-0.5c-16.4-16.2-39.8-18.2-40-18.2c-0.9-0.1-1.6-0.9-1.5-1.8
		c0.1-0.9,0.9-1.6,1.8-1.5c1,0.1,24.8,2.1,42.1,19.2c0.7,0.6,0.7,1.7,0,2.4C427.8,145.4,427.3,145.6,426.9,145.6z"/>
	<path class="st1" d="M617.9,203.8c-0.6,0-1.2-0.3-1.5-0.9c-0.4-0.8-0.1-1.8,0.7-2.3l42.8-22.3c0.8-0.4,1.8-0.1,2.2,0.7
		c0.4,0.8,0.1,1.8-0.7,2.3l-42.8,22.3C618.4,203.7,618.1,203.8,617.9,203.8z"/>
	<path class="st7" d="M265.5,467c0,0,77.9,110.9,239.8,110.2C667.2,576.5,767.5,464,767.5,464s4.5,25.6-13.9,50.6
		c-18.4,25-144.3,102.7-292.9,86.6C318.3,588.3,252.2,495.2,265.5,467z"/>
	<path class="st4" d="M388.9,586.1c-3.9-1.3-8-2.8-12.4-4.5c-22.7-8.9-51.2-23.3-75.7-42.9c0,0-3.5-64.1,51.6-95.3
		c3-1.8,5.5-2.5,7.5-2.3C377.4,442.7,358.1,516.6,388.9,586.1z"/>
	<path class="st4" d="M467.9,603.9c0,0-42.3-6.6-60.7-12.2c0,0-1.9-57.8,15.2-63.3c15.2-4.9,39.4,58.8,44.6,72.9c0,0,0,0,0,0
		C467.6,603,467.9,603.9,467.9,603.9z"/>
	<path class="st4" d="M738.8,529.8c-28.6,23-62.8,38.8-86.7,47c-0.3,0.1-0.5,0.2-0.7,0.3c-0.2,0.1-0.4,0.1-0.6,0.2
		c-0.1,0-0.1,0-0.1,0c28.6-64.6,14-132.8,25.8-143.6c2.3-2.2,5.7-2,10.7,0.9C742.4,465.6,738.8,529.8,738.8,529.8z"/>
	<path class="st4" d="M632.4,582.8c-9,2.7-23.6,5.7-36.2,8c-13.3,2.4-24.4,4.2-24.4,4.2s26.2-74.5,43.4-75.8c0.7-0.1,1.5,0,2.2,0.2
		C634.3,525,632.4,582.8,632.4,582.8z"/>
	<path class="st8" d="M388.9,586.1c0,0-3.2-0.2-12.4-4.5c-5.2-2.4-12.3-6.2-21.9-11.9c-14.3-84.6,4.7-127.4,5.2-128.6
		C377.4,442.7,358.1,516.6,388.9,586.1z"/>
	<path class="st8" d="M687.8,557.1c-22,13.8-32.2,18.3-35.7,19.6c-0.3,0.1-0.5,0.2-0.7,0.3c-0.3,0.1-0.5,0.2-0.6,0.2
		c-0.1,0-0.1,0-0.1,0c28.6-64.6,14-132.8,25.8-143.6l0.1,0C676.6,433.5,703.5,488.4,687.8,557.1z"/>
	<path class="st8" d="M467,601.2c-0.2-0.1-2.2-0.6-23.5-6.2c-7.8-52-21.1-66.6-21.1-66.6C437.6,523.4,461.8,587.2,467,601.2z"/>
	<path class="st8" d="M615.1,519.2c0,0-10.6,29.5-18.9,71.6c-13.3,2.4-24.4,4.2-24.4,4.2S597.9,520.5,615.1,519.2z"/>
	<path class="st3" d="M780.2,468.5c-8.6-2.2-17.4,4-19.7,13.9c-1.5,6.4-5.1,21.4-6.7,31.7c-34,34.4-109,91.3-236.6,96.3
		c-95.4,3.7-160.9-28.2-199-55.6c-18.6-13.3-32.6-26.9-42.6-37.9c-1.3-10.2-5.5-27.5-7.1-34.5c-2.3-9.9-11.1-16.1-19.7-13.9
		c-8.6,2.2-13.6,11.9-11.3,21.8c1.3,5.7,11.3,18,20.9,26.4c10.2,12.5,27.2,30.6,52,48.5c37.7,27.2,100.8,58.6,191.6,58.6
		c5.1,0,10.3-0.1,15.6-0.3c97.9-3.8,165.5-38.1,205-66.2c17.7-12.6,31.7-25.3,42.1-36.1c10.9-7.7,25.1-24.2,26.7-31
		C793.9,480.4,788.8,470.7,780.2,468.5z"/>
	<path class="st1" d="M780.2,460.3c-8.6-2.1-17.4,3.9-19.7,13.4c-1.5,6.2-5.1,20.6-6.7,30.6c-34,33.2-109,88.1-236.6,92.9
		c-95.4,3.6-160.9-27.2-199-53.6c-18.6-12.9-32.6-26-42.6-36.6c-1.3-9.9-5.5-26.5-7.1-33.3c-2.3-9.5-11.1-15.5-19.7-13.4
		c-8.6,2.1-13.6,11.5-11.3,21c1.3,5.5,11.3,17.4,20.9,25.5c10.2,12,27.2,29.5,52,46.8c37.7,26.2,100.8,56.6,191.6,56.6
		c5.1,0,10.3-0.1,15.6-0.3c97.9-3.7,165.5-36.7,205-63.8c17.7-12.1,31.7-24.4,42.1-34.8c10.9-7.4,25.1-23.4,26.7-29.9
		C793.9,471.9,788.8,462.4,780.2,460.3z"/>
	<path class="st9" d="M308.8,194.7c0,0,13.3-65,71.6-89.6c-2.8-3-2.8-3-2.8-3s-57.9,23.9-71.8,89.3
		C308.8,194.7,308.8,194.7,308.8,194.7z"/>
	<path class="st9" d="M290.3,104.3c0,0,31.5-33.9,73.5-23.4c-1.6-4.2-1.6-4.2-1.6-4.2s-35.1-11.7-70,22.2
		C290.6,100.5,290.3,104.3,290.3,104.3z"/>
	<path class="st9" d="M709.5,194.7c0,0-13.3-65-71.6-89.6c2.8-3,2.8-3,2.8-3s57.9,23.9,71.8,89.3
		C709.5,194.7,709.5,194.7,709.5,194.7z"/>
	<path class="st9" d="M727.9,104.3c0,0-31.5-33.9-73.5-23.4c1.6-4.2,1.6-4.2,1.6-4.2s35.1-11.7,70,22.2
		C727.6,100.5,727.9,104.3,727.9,104.3z"/>
	<path class="st7" d="M363.8,69.3c-0.1,0.5-0.2,0.9-0.2,1.2c-0.6,3-0.6,3-0.6,3s-0.6-0.1-1.7-0.3c-7.6-1-39.4-3.8-65.7,17.9
		c0,0-0.1,0.1-0.1,0.1c0,0,0,0,0,0c-1.3,1.1-2.5,2.2-3.8,3.3c0.4-1.2,1.4-3.5,2.3-5.7c1.1-2.6,2.1-5.1,2.1-5.1s0.6-0.5,1.6-1.3
		c0.9-0.7,2.1-1.6,3.6-2.6c10.4-7.2,34.7-20.9,58.8-12.1C361.3,68.2,362.5,68.7,363.8,69.3z"/>
	<path class="st7" d="M296.2,183.5c0,0,19.5-73.4,79.4-89c2.2,4.7,2.2,4.7,2.2,4.7s-55,27-76.2,90.5
		C297.4,190.2,296.2,183.5,296.2,183.5z"/>
	<path class="st7" d="M723.1,87.9c-0.1,1.9-0.6,2.7-0.6,2.7s0,0,0,0c-0.2-0.1-1.8-1.2-4.5-2.8c-10.3-6.1-36.8-19.7-61.3-13.8
		c-1,0.2-1.9,0.5-2.9,0.8c-0.3-1.5-0.4-2.9-0.4-4c-0.1-2.7,0.4-4.2,0.4-4.2c0-0.1,1.7-0.5,4.4-0.9c10.5-1.3,37.6-2.1,57.2,11.9
		c0.3,0.2,0.6,0.4,0.9,0.7c2.1,1.6,4.1,3.4,6,5.3C723,85.4,723.2,86.8,723.1,87.9z"/>
	<path class="st7" d="M645.2,92.8c0,0,64.2,27,75.4,92.5c-4.6,3.7-5.7,3.3-5.7,3.3s-13.3-59-75.7-89.6
		C635.7,93.3,645.2,92.8,645.2,92.8z"/>
	<path class="st7" d="M311.4,55.8c0,0-60.1,74.3,44.6,120.7c-7,21.4-17.1,45.3-14.6,48.9s-33-24.2-33-24.2S245.8,142.7,311.4,55.8z"
		/>
	<path class="st7" d="M704,53.4c0,0,52.2,56.3-43.3,122.1c10.5,32.1,13.5,53.3,13.5,53.3S796.1,167.2,704,53.4z"/>
	<path class="st3" d="M473.3,484.4c0,0-30.8-4.1-28.6,27C439.1,494.7,429.9,466.7,473.3,484.4z"/>
	<path class="st3" d="M543,486.6c0,0,30.8-4.1,28.6,27C577.1,496.9,586.3,468.9,543,486.6z"/>
	<ellipse class="st3" cx="497.8" cy="632.1" rx="33.6" ry="14.1"/>
	
		<ellipse transform="matrix(0.997 -7.730277e-02 7.730277e-02 0.997 -48.4701 44.6893)" class="st3" cx="553" cy="648.4" rx="14.4" ry="7.8"/>
	<path class="st7" d="M381.7,728.4c0,0,112.1,75.4,261.4-3C579.3,781.7,498.6,844.5,381.7,728.4z"/>
	<path class="st4" d="M280.4,173.9c0,0-123.8,78.9-130.6,203.4c4.7-15.8,4.7-15.8,4.7-15.8S160.4,271,280.4,173.9z"/>
	<path class="st4" d="M735.7,172.4c0,0,124.9,78.1,132.8,202.6c-4.3-30.9-15.9-114.3-135.6-195.1
		C735.7,172.4,735.7,172.4,735.7,172.4z"/>
	<path class="st10" d="M225.3,454.9c0,0,22.2-27.2,67.8-3.4C284.3,447.1,244.7,444.3,225.3,454.9z"/>
	<path class="st10" d="M735.2,454.2c0,0,50.2-31.4,73.5,5.7C800.1,451.9,774.1,442.4,735.2,454.2z"/>
	<path class="st3" d="M381.7,728.4c0,0,114.4,69.2,261.4-3C619.4,735.4,490.2,771.8,381.7,728.4z"/>
	<path class="st3" d="M338.1,759.6c0,0-39.8,64.4-53.2,165.7C286.2,887.8,322.9,738,338.1,759.6z"/>
	<path class="st3" d="M769.4,870.7c0,0-10.9-67.2-57-106.1C681.5,729.2,750.9,761.9,769.4,870.7z"/>
	<path class="st3" d="M347,236.4c0,0,0.3-56,43-108.9c8.6,2.1,8.6,2.1,8.6,2.1S365.8,152,347,236.4z"/>
	<path class="st3" d="M611.7,113.5c0,0,26.5,13.4,46.7,65.6c-4.2,2.2-4.2,2.2-4.2,2.2S644.6,138.4,611.7,113.5z"/>
	<path class="st7" d="M168.1,636.7c0,0,56.8-44.4,109.8-7.1c-19.5-17.6-44.3-47.4-50.5-71.2C215.5,570.4,168.1,636.7,168.1,636.7z"
		/>
	<path class="st7" d="M738.9,631.6c0,0,75.9-30.2,124.9,10.7c-28.2-32.1-61.3-75.1-61.3-75.1S754.8,617,738.9,631.6z"/>
	
		<ellipse transform="matrix(0.8019 -0.5975 0.5975 0.8019 -422.1062 493.4658)" class="st2" cx="533.1" cy="883.3" rx="29.4" ry="18.4"/>
	
		<ellipse transform="matrix(0.6336 -0.7737 0.7737 0.6336 -62.5732 652.3788)" class="st2" cx="657.5" cy="392.3" rx="15.8" ry="20.2"/>
	<path class="st1" d="M417.7,166c-0.5,0-0.9-0.2-1.3-0.6c-13-15.3-42.4-23-42.7-23.1c-0.9-0.2-1.4-1.1-1.2-2c0.2-0.9,1.1-1.4,2-1.2
		c1.2,0.3,30.7,8,44.4,24.2c0.6,0.7,0.5,1.8-0.2,2.4C418.4,165.9,418.1,166,417.7,166z"/>
	<path class="st1" d="M625.1,222.2c-0.6,0-1.1-0.3-1.4-0.8c-0.5-0.8-0.2-1.8,0.6-2.3l43.2-25.8c0.8-0.5,1.8-0.2,2.3,0.6
		c0.5,0.8,0.2,1.8-0.6,2.3L626,222C625.7,222.1,625.4,222.2,625.1,222.2z"/>
	<path class="st1" d="M456.2,760c-0.9,0-1.7-0.7-1.7-1.7v-47.7c0-0.9,0.7-1.7,1.7-1.7s1.7,0.7,1.7,1.7v47.7
		C457.8,759.2,457.1,760,456.2,760z"/>
	<path class="st1" d="M479.4,763.3c-0.9,0-1.7-0.7-1.7-1.7v-46.4c0-0.9,0.7-1.7,1.7-1.7s1.7,0.7,1.7,1.7v46.4
		C481.1,762.5,480.3,763.3,479.4,763.3z"/>
	<path class="st1" d="M588.8,752.6c-0.9,0-1.7-0.7-1.7-1.7v-45.1c0-0.9,0.7-1.7,1.7-1.7s1.7,0.7,1.7,1.7v45.1
		C590.4,751.8,589.7,752.6,588.8,752.6z"/>
	<path class="st1" d="M332.9,224.6c-23.7,5.8-51.5,16.9-64.6,38.8c-5.4,9.4-11,29.8,6.9,26.6c12.8-2.9,23.4-12.7,30.6-23.4
		c-6.9,11.4-17,21.7-30.1,25.5c-14.8,3.5-18.2-8.8-14.7-20.8c6.3-24.1,29.3-38.5,50.7-47.9c6.3-2.7,12.6-5,19.3-6.9
		c2.2-0.6,4.5,0.7,5.1,2.9C336.8,221.7,335.2,224.1,332.9,224.6L332.9,224.6z"/>
	<path class="st1" d="M678.2,223.2c31.8,10.6,73.3,31.8,81.7,67.2c1.8,9,4.4,23.9-5.9,28.9c-6.2,2.3-12.7-1.1-17.6-4.5
		c-9.7-7.2-16.4-17.9-20.3-29.2c4.3,11,11.4,21.2,21.2,27.9c21,13.1,24.1-5.1,19-22.2c-9.4-33-50.1-51.4-80.4-60
		C670.6,229.8,672.7,221.7,678.2,223.2L678.2,223.2z"/>
	<path class="st7" d="M387.4,7.4c0,0-63.3,28.6-23.7,94.2c8.9,11.8,22.2,21.9,22.2,21.9l10.9-10.1C396.9,113.4,337.3,73.5,387.4,7.4
		z"/>
	<path class="st7" d="M633.8,7.4c0,0,96.3,54.7-3,116.1c-9.5-10.2-9.5-10.2-9.5-10.2S682.4,75.2,633.8,7.4z"/>
	<path class="st1" d="M471.1,111.9c23.4-2.3,46.9-2.3,70.3,0C518.1,114.2,494.5,114.2,471.1,111.9L471.1,111.9z"/>
	<path class="st1" d="M480,127.5c17.5-2,35.1-2,52.6,0C515.1,129.5,497.5,129.4,480,127.5L480,127.5z"/>
	<path class="st2" d="M139.5,844.9c-25.4,27.1,8.3,89.4-32.3,122.8c-27,22.3-69.6,24.5-94.4,5.5c7.1-49.9,26.5-131.8,78.7-238.4
		c0-0.1,0.1-0.2,0.1-0.3c0,0,0-0.1,0-0.1c0,0,0,0,0,0c1.4-2.9,3-6,4.6-9c18-5.4,41.5-6.6,60.4,13
		C192.4,775.3,164.9,817.8,139.5,844.9z"/>
	<path class="st2" d="M1016.8,1024c-6-82.7-26.2-152.2-40.4-192.5c-19.8,0.7-57.4,8.7-67.6,56.8c-12,56.1,2.2,107.1-45,135.7H1016.8
		z"/>
	<path class="st1" d="M54.4,988.2c-15.8,0-31.1-4.4-42.8-13.3c-0.6-0.5-0.9-1.2-0.8-2c7.1-50.1,26.6-132.2,78.9-239
		c0,0,0-0.1,0.1-0.2c0-0.1,0-0.1,0.1-0.2c0-0.1,0.1-0.1,0.1-0.2c1.4-2.8,2.9-5.8,4.6-9c0.3-0.5,0.7-0.9,1.3-1
		c17.5-5.3,42.5-7.2,62.5,13.5c28.4,29.3,22.5,67.2-17.2,109.4c0,0,0,0,0,0c-10.7,11.4-10.3,29.9-10,49.6
		c0.4,25.4,0.9,54.1-22.5,73.4C93.4,981.8,73.5,988.2,54.4,988.2z M15.1,972.2c24.5,17.8,64.9,15.1,90.8-6.2
		c21.8-18,21.4-44.4,20.9-70c-0.3-20.5-0.7-40,11.2-52.6c26.4-28.1,50.8-68.9,17.2-103.6c-18.2-18.9-41.1-17.4-57.4-12.7
		c-1.5,2.9-2.9,5.6-4.1,8.2c0,0,0,0.1-0.1,0.1c0,0,0,0.1,0,0.1l0,0c0,0.1-0.1,0.1-0.1,0.2l0,0C41.8,841.2,22.3,922.4,15.1,972.2z
		 M139.5,844.9L139.5,844.9L139.5,844.9z M91.6,734.7l0.1,0.1v0L91.6,734.7z"/>
	<path class="st1" d="M867.8,1024c31.7-20.9,34.2-52.5,37.1-88.5c1.2-15.1,2.5-30.7,5.9-46.8c9.6-45,43.6-53.9,64.1-55
		c15.1,43.3,33.9,110.6,39.7,190.3h4.2c-5.9-81.2-25.2-149.7-40.5-193.2c-0.3-0.9-1.2-1.5-2.1-1.4c-21.5,0.8-59.2,9.5-69.6,58.5
		c-3.5,16.4-4.8,32.1-6,47.4c-3.1,38.5-5.6,69.2-41.1,88.8H867.8z"/>
	<path class="st1" d="M289.9,1024c-0.4-12.5-1.1-46.5,0.8-65.3c2.5-23.4-8.4-12.1-8.4-12.1s-5.1,55.9-5.1,77.4H289.9z"/>
	<path class="st1" d="M775.3,1024h10.5c0-14.7-0.4-54-3.1-75.6c-3.2-25.5-9,4.9-9,4.9S776.8,1002.4,775.3,1024z"/>
	<path class="st7" d="M780.7,1024c3-57-8.4-130.3-17.1-138c7.4,143.2-294.7,154.6-385.9,111.8C288,955.7,330.6,853.7,332,850.6
		c-1.4,2.3-30.2,49.3-40.9,62.7c0,0-4.8,71.2-6.6,110.7H780.7z"/>
	<path class="st2" d="M150.3,914.5c-0.8-14,20-39.3,22.6-14.7S152.3,950.6,150.3,914.5z"/>
	<path class="st2" d="M752.2,664.9c2.8-15.7,19.3-19.8,21.4,0S744,710.3,752.2,664.9z"/>
	<path class="st2" d="M858.7,939.6c-14.8,14-26.4,47.1-3.9,51.4c22.5,4.3,32.5-35.4,29.9-56.7C882.1,913,866.2,932.6,858.7,939.6z"
		/>
</g>
</svg>
