<?xml version="1.0" encoding="utf-8"?>
<!-- Generator: Adobe Illustrator 26.1.0, SVG Export Plug-In . SVG Version: 6.00 Build 0)  -->
<svg version="1.1" id="Слой_1" xmlns="http://www.w3.org/2000/svg" xmlns:xlink="http://www.w3.org/1999/xlink" x="0px" y="0px"
	 viewBox="0 0 1024 1024" style="enable-background:new 0 0 1024 1024;" xml:space="preserve">
<style type="text/css">
	.st0{fill:#00AD81;}
	.st1{fill:#3F2401;}
	.st2{opacity:0.29;fill:#3F2401;}
	.st3{fill:#E6EFDA;}
	.st4{fill:#D2E48E;}
	.st5{fill:#543F2C;}
	.st6{fill:#422F20;}
	.st7{fill:#4C2205;}
	.st8{fill:#FFFFFF;}
	.st9{fill:#F15278;}
	.st10{opacity:0.42;fill:#FFFFFF;}
	.st11{fill:#FFA2C1;}
</style>
<g>
	<path class="st0" d="M63.1,714.1c0,2.4,0,4.8,0.1,7.3c6.3,67.9,39.3,54.5,49.7,24.5c1.9,22.6,4.4,48.4,7.6,75.5
		c1.9,16,4,32.4,6.4,49v0.3c1.5,11.6,3.2,23.5,5,35.3c0,0,0,0,0,0c3.7,23.8,7.9,47.4,11.9,68.3c3.8,19.6,7.3,36.8,10,49.7h730.6
		c2-7.9,4.2-16.9,6.6-26.6c14.9-59.6,36.5-143.5,36.5-143.5c0.9-3.4,1.8-6.9,2.7-10.5c7-27.7,13.9-60.6,18.6-96.8
		c0.3-2.7,0.7-5.3,1-8c10,34.6,53.8,42.2,46.1-32c-7-67.2-44.3-142.3-51.3-155.9c-2.9-11.5-6.8-23-12-34c-0.2-0.4-0.4-0.8-0.5-1.1
		c-2.9-5.9-6-11.6-9.7-17c2.6,2.8,5.2,5.3,7.7,7.3c37.3,29.6,64.4-26.6-48.7-133.7c35.7,22.2,81.4-31.2-139.6-155.2
		c50.3,13.5,61.9-51.2-138.8-88.6c25.6-23.8,33-76.5-96.6-2.1c0,0-102.9-14.3-196.3,33.9c-73,38.8,3.6,36.7,3.6,36.7
		S206.5,238,178.3,281c-27.2,41.6,37.9,24.5,42.1,23.4c-4.8,1.9-81.7,33.8-107.4,165.5c-12.3,70,44.3,6.6,48.5,1.8
		c-1.3,1.7-8.3,11.1-16.9,26.7C144.6,498.4,63.1,592.4,63.1,714.1z"/>
	<path class="st1" d="M311.3,191.6c25.5,0.3,51,0.8,76.5,2.5c-25.4,1.8-50.7,4.7-75.9,7.9C304.6,202.6,304,191.8,311.3,191.6
		L311.3,191.6z"/>
	<path class="st1" d="M215.9,300.1c12.5-3.6,25.1-7.2,37.6-10.7c12.6-3.5,25.1-6.9,37.8-9.9c-12.1,4.7-24.1,9.8-36.1,14.9
		c-12,5.1-23.9,10.3-35.8,15.6C212.6,312.5,209,302.4,215.9,300.1L215.9,300.1z"/>
	<path class="st1" d="M157,468.9l47.6-54.6l-39.5,60.9C161,481.2,152.4,474.6,157,468.9L157,468.9z"/>
	<path class="st1" d="M512.1,129c-15.1,8.3-30.5,16.1-44.7,25.9c2.9-3.2,6.1-6.2,9.3-9.1c9.7-8.7,19.6-17.1,29.7-25.5
		C512.4,115.8,518.6,125.1,512.1,129L512.1,129z"/>
	<path class="st1" d="M611.7,135.2c-17.6-4.1-35.7-6.9-53.9-6.3c13.5-3.1,27.5-4.1,41.4-4.2c4.7,0,9.3,0,14.1,0.3
		c2.9,0.2,5,2.6,4.9,5.5C618.1,133.7,614.9,136,611.7,135.2L611.7,135.2z"/>
	<path class="st1" d="M747,223.2c-22.7-7.7-45.5-15.4-68.7-21.5c12,1.3,23.9,3.2,35.8,5.2c11.9,2,23.7,4.1,35.6,6.3
		c2.8,0.5,4.6,3.2,4.1,6.1C753.2,222.3,749.9,224.2,747,223.2L747,223.2z"/>
	<path class="st1" d="M882.8,378.6c-23.1-16.8-47-32.6-71.9-46.7c13.2,5.5,26.3,11.5,39.2,17.8c12.9,6.4,25.6,13,38.3,20.1
		C894.5,373.7,888.8,382.7,882.8,378.6L882.8,378.6z"/>
	<path class="st1" d="M921.4,504.8c-14.9-19.1-29.6-38.5-45.8-56.5c9.4,7.7,18.2,16.1,27.1,24.4c8.9,8.3,17.6,16.7,26.3,25.2
		c2.1,2,2.1,5.3,0.1,7.4C927,507.5,923.3,507.3,921.4,504.8L921.4,504.8z"/>
	<path class="st0" d="M435.7,176.9c0,0-47.5,26-54.4,53.1s25.1,21.4,37.8,0c-15.5,21.9-16,63.5,16.6,57.7
		c32.6-5.8,31.7-64.6,31.7-64.6S470.6,138.8,435.7,176.9z"/>
	<path class="st1" d="M435.7,176.9c-9.2,6.9-18.1,14-26.3,21.6c-7.9,7.4-15.8,15.7-20.6,25.2c-2.3,4.8-5.5,13.9-1.6,18.1
		c0.9,0.8,2.5,1.3,4.5,1.2c9.1-0.4,18.4-7.7,23.4-15.6c0,0,8.1,5.3,8.1,5.3c-3.5,4.7-6.1,10.2-8,16c-4.3,13-5.2,33.9,11.1,38.1
		c3,0.8,6.2,1,9.5,0.8c-6.4,2-13.8,2.1-19.7-1.9c-17-12.9-11.3-43-0.8-58.6c3.5-5,11.1-0.3,8.2,5.1c-3.2,5.7-7.7,10.6-13,14.4
		c-25,17.2-44.9-0.5-29.7-27.3C392.9,199.5,415,186,435.7,176.9L435.7,176.9z"/>
	<path class="st0" d="M603.3,177.6c0,0,43.6,31.2,49.7,55.2s-18.7,19-41.7,3.6c17.9,30.2-2.6,50.7-23,31.5
		c-20.4-19.2-16.8-73.7-16.8-73.7L603.3,177.6z"/>
	<path class="st1" d="M603.3,177.6c9.9,5.4,19.1,11.9,27.7,19.2c8.8,7.6,17,15.6,23,26c4.9,8.5,8.8,23.3-1.7,29.7
		c-9.2,4.9-20.3,0.5-28.6-3.2c-5.3-2.5-10.3-5.6-15-8.9l6.6-6.3c2.8,5.2,5.1,10.8,6.1,16.8c2.5,12.4-3.9,28.8-19,26.3
		c-6.1-1.1-10.7-5-14.2-9.2c7.7,5.9,20.6,9.3,25-1.6c3.4-9.1-1-19.5-6-27.5c-2.7-4.3,2.5-9.2,6.6-6.3c6.1,4,28.8,16.3,34.4,10
		c1.2-2.4,0.6-5.4,0-8.6c-1.1-4.7-3.6-9.4-6.4-13.6C631.1,204.3,617.1,191.1,603.3,177.6L603.3,177.6z"/>
	<path class="st2" d="M288.8,173.2c0,0,23.8,22.2,146.9,3.7c-13.7,9.1-26.8,17.9-26.8,17.9h-30.8c0,0-81.8,3.1-81.4,2
		C297.1,195.6,259.5,193.2,288.8,173.2z"/>
	<path class="st2" d="M174.8,289c0,0,84.7-28,86.9-28s69.6,5.3,69.6,5.3L256.7,289c0,0-54.6,24.4-69.3,19.5S173,291.9,174.8,289z"/>
	<path class="st2" d="M541.1,130c0,0,67.7-35.2,74.8-34.6s1.9,21.8-10.3,30.4C583.2,125.2,541.1,130,541.1,130z"/>
	<path class="st2" d="M605.6,178.9c0,0,141.5,24.1,151.6,7.3c19,10.6,16.8,22.2,12.7,27.7c-4.1,5.5-16,12.6-16,12.6l-57,9.7
		l-52.4-19.7L605.6,178.9z"/>
	<path class="st2" d="M799.8,325.3l89.6,54.3c0,0,27.5,1.1,18.7-26.2C891.9,333.5,799.8,325.3,799.8,325.3z"/>
	<path class="st2" d="M861.3,433.3l69,72.5c0,0,27.8,20.6,32.3-9.6C963.9,474.3,861.3,433.3,861.3,433.3z"/>
	<path class="st2" d="M113.3,488.2c0,0,85.3-79.7,98.9-86.6c-7.5,12.7-45.2,62.8-45.2,62.8s-30.9,32.5-33,32.9
		C131.8,497.7,105.6,507.4,113.3,488.2z"/>
	<path class="st3" d="M116.5,485.2c0,0,38.7-126.2,105.9-176C204.1,319.5,136.9,354.4,116.5,485.2z"/>
	<path class="st3" d="M306.1,168.3c0,0,75.9-37.5,180.6-31.3c7.9-6.8,7.9-6.8,7.9-6.8S397.7,118.9,306.1,168.3z"/>
	<path class="st3" d="M585.8,130.4l21.8,4.3c0,0,104.6,18.5,146.3,52C730.6,172.1,660.1,150.5,585.8,130.4z"/>
	<path class="st1" d="M416.3,226.4c8.4-9.4,16.7-19.4,27.3-26.3c-2.3,2.2-4.1,4.6-6,7.2c-5.3,7.6-9.9,15.8-14.2,24
		C420.3,236.8,412.4,231.5,416.3,226.4L416.3,226.4z"/>
	<path class="st2" d="M663.1,681.3c-3.2,5.9-11.1,15.3-30.3,23.7c-59.9-56.9-98.2-16.7-98.2-16.7s-14.1-33.2-65.5-29
		c-42.2,3.4-59.1,34-63.8,44.9c-2.2-10.3-3.4-27.8,7.6-45c2.7-4.3,6.2-8.6,10.7-12.7c32.1-30.1,95-22,117.3,16.3
		c16.1-24,64-34.5,95.3-17.7C649.2,652.1,659.4,663.8,663.1,681.3z"/>
	<path class="st4" d="M948.9,746.6c-4.7,36.1-11.6,69.1-18.6,96.8c-9.9-12.3-26.8-22-53.5-6.3c-49.5,29.3-117,3.5-109.2-43
		c7.8-46.5,47.7-50,88.7-31c41,18.9,60.6-33.6,5-37c-55.6-3.5-80.1-57.7-45.1-84.4c35.1-26.7,73.4,5.8,73.4,5.8
		C922.9,663.4,940.2,709.5,948.9,746.6z"/>
	<path class="st4" d="M537.8,413.6c-14.5-34.1-30.2-87.8-16.8-115.9s42.9,23.2,67.2,8.2c18.9-11.7,91.1-76.8,121.1-20.8
		c32.4,60.5,55.2,77.1,90.5,75.1c35.3-2,51.9,66.3-16,83.5C705.8,463.6,614.5,594.2,537.8,413.6z"/>
	<g>
		<path class="st1" d="M516.1,590.1c-2.7,0-4.9-2.1-5-4.8l-2-49.8c-0.1-2.8,2-5.1,4.8-5.2c2.8-0.1,5.1,2,5.2,4.8l2,49.8
			c0.1,2.8-2,5.1-4.8,5.2C516.2,590.1,516.1,590.1,516.1,590.1z"/>
		<g>
			<path class="st5" d="M572.9,494c0,16.5-33.4,49.2-58.8,49.2c-20.9,0-58.8-32.7-58.8-49.2c0-0.8,0.1-1.7,0.2-2.5
				c2.5-15.3,27.8-27.3,58.6-27.3C546.6,464.2,572.9,477.5,572.9,494z"/>
			<path class="st6" d="M572.9,494c0,16.5-33.4,49.2-58.8,49.2c-20.9,0-58.8-32.7-58.8-49.2c0-0.8,0.1-1.7,0.2-2.5l0,0
				C455.5,491.5,492.2,519.4,572.9,494z"/>
			
				<ellipse transform="matrix(0.7459 -0.6661 0.6661 0.7459 -212.0633 486.9797)" class="st1" cx="532.2" cy="521.4" rx="13.9" ry="9.7"/>
			
				<ellipse transform="matrix(0.6661 -0.7459 0.7459 0.6661 -222.4911 545.8173)" class="st1" cx="498.4" cy="521.4" rx="9.7" ry="13.9"/>
		</g>
		<g>
			<g>
				<path class="st7" d="M767.7,533.1c-4.2,45.2-14.1,218.1-101.2,310.6c-33.1,35.2-77.5,58.7-136.9,59.2
					c-47.8,0.4-86.7-11-118.6-30.2l0,0c-111.9-67.7-136-233.4-146.5-333.8c0,0,28.5,17.2,83.5,31.1c25,6.3,55.4,11.9,91.2,15
					c21,1.8,43.8,2.7,68.5,2.3c25.7-0.4,49.5-1.9,71.4-4.1c36-3.7,66.8-9.3,92.5-15.6C726.4,554,758.1,537.9,767.7,533.1z"/>
				<path class="st8" d="M439.1,584.9c-0.7,12.7-2.4,35.2-6.9,41.9c-16.7,15-91.7,5.9-93.5-5.5c-2.2-16.2,8.9-50.4,9.2-51.3
					C373,576.2,403.4,581.8,439.1,584.9z"/>
				<path class="st8" d="M676.2,610.3c-24.4,24.6-85.8,25.5-91.7,17.8c-4.3-5.7-5.3-31.8-5.5-45c36-3.7,66.8-9.3,92.5-15.6
					C674.9,581,679.6,603.2,676.2,610.3z"/>
				<path class="st9" d="M666.5,843.7c-33.1,35.2-77.4,58.7-136.9,59.2c-47.8,0.4-86.7-11-118.6-30.2l0,0l0-0.1c0,0-1.6-3.5-2.8-9.1
					c-2.2-10.3-3.4-27.8,7.6-45c2.7-4.3,6.2-8.6,10.7-12.7c32.1-30.1,95-22,117.3,16.3c16.1-24,64-34.5,95.3-17.7
					c13,7,23.2,18.7,26.9,36.2C666.1,841.6,666.3,842.6,666.5,843.7z"/>
				<path class="st1" d="M639,804.4c-31.2-16.8-79.2-6.3-95.3,17.7c-22.3-38.3-85.2-46.4-117.3-16.3c-4.4,4.1-7.9,8.4-10.7,12.7
					c-24.5-24.1-60.4-69.5-50.5-121.1c14.7-76.7,112.4-53.6,127.2-6.5c14.8,47.1,60.6,35.1,62.5,6.5c1.8-28.7,57.7-61.9,95.3-8.3
					C675.5,725.3,664.3,772.5,639,804.4z"/>
				<path class="st1" d="M527.4,907.9c-45,0-84.9-10.4-118.9-30.9c-0.1,0-0.1-0.1-0.2-0.1c-49.8-30.2-87.9-83.1-113.2-157.2
					c-21.3-62.3-30.1-129.1-35.4-180.3c-0.2-1.9,0.7-3.7,2.3-4.7c1.6-1,3.6-1.1,5.2-0.1c0.3,0.2,28.6,17,82.1,30.5
					c28.4,7.2,58.8,12.1,90.4,14.8c22.1,1.9,45,2.7,68,2.3c24.3-0.4,48.2-1.8,71-4.1c32.2-3.3,63.1-8.5,91.8-15.5
					c53.8-13.1,84.7-28.7,94.8-33.8l0.3-0.2c1.6-0.8,3.5-0.7,5,0.4c1.5,1,2.3,2.8,2.1,4.6c-0.3,2.7-0.5,5.9-0.8,9.5
					c-5.1,59-18.7,215.9-101.7,304c-37.6,39.9-84.8,60.3-140.5,60.8C528.9,907.9,528.1,907.9,527.4,907.9z M413.7,868.5
					c32.9,19.8,71.9,29.7,115.8,29.4c52.8-0.4,97.7-19.8,133.3-57.6c80.6-85.6,94-239.9,99-298c0-0.2,0-0.5,0.1-0.7
					c-14.8,7.1-44.2,19.8-89.3,30.8c-29.2,7.1-60.5,12.4-93.1,15.7c-23.1,2.3-47.2,3.7-71.8,4.1c-23.3,0.4-46.5-0.4-69-2.3
					c-32.1-2.7-63-7.8-92-15.1c-38.5-9.7-64-21-76.3-27.1c13,118.8,41.9,259.5,143.1,320.7C413.6,868.4,413.7,868.5,413.7,868.5z"/>
				<path class="st1" d="M736,503.7c18.8,14,38.9,28.9,60.1,38.9c3.1,1.7,6.4,2.9,9.5,4.7c-1.8,0.2-3.6,0.2-5.4,0.3
					C774.1,547.4,746.2,527.9,736,503.7L736,503.7z"/>
				<path class="st1" d="M296.8,508.3c-10.1,24.2-38,43.8-64.2,43.9c-1.8,0-3.6-0.1-5.4-0.3c3.1-1.8,6.4-3,9.5-4.7
					C257.8,537.2,278,522.3,296.8,508.3L296.8,508.3z"/>
				<path class="st1" d="M550,814.8c0,0-10.7,11.2-11.4,30.4c1-11.6,1.7-25-3.6-34.6C541.1,808.3,550,814.8,550,814.8z"/>
			</g>
			<path class="st3" d="M312.4,767l22.3,33c0,0,42.4,95.5,167.9,106.6c86.2,5.8,175.5-18.2,229.1-154.3
				c-30.7,75.1-91.8,169.4-210.6,169.5C424.3,922,365.6,859.7,312.4,767z"/>
			<path class="st3" d="M277.3,538.9c0,0,201.9,99.6,476.4-3.6C703.6,545.9,517.1,613.7,277.3,538.9z"/>
			<path class="st3" d="M738.1,503.7c0,0,54,44.5,83.4,43.9c8.1-11.2,8.1-11.2,8.1-11.2S774,533.2,738.1,503.7z"/>
			<path class="st3" d="M298.8,508.3c0,0-56.3,40.6-76.4,45.6c-8.5-6.1-8.5-6.1-8.5-6.1S276.3,527.3,298.8,508.3z"/>
		</g>
		
			<ellipse transform="matrix(0.9958 -9.139698e-02 9.139698e-02 0.9958 -43.0106 50.9755)" class="st3" cx="535.1" cy="495.1" rx="18" ry="5"/>
		<path class="st2" d="M582.5,610.3c0,0,38.9-35.2,95.8-20.1c-2.8-14.4-4.7-22.7-4.7-22.7L581,586.5L582.5,610.3z"/>
		<path class="st2" d="M343.6,593.9c0,0,52.1-18.3,95.7,13.6c1.5-15.4,1.9-22.7,1.9-22.7L348.9,573C348.9,573,344,592,343.6,593.9z"
			/>
		<path class="st1" d="M401.5,905.1c44.2,32.7,101.1,52.5,155.8,41.1c33.1-6.4,62.6-22.2,91-41.1c-19.4,21.1-44.3,38.2-71.5,48.2
			c-38.8,14.2-83.3,11.4-120.2-6.6C435.7,936.6,416.4,922.9,401.5,905.1L401.5,905.1z"/>
	</g>
	<path class="st1" d="M541.1,173.2"/>
	<path class="st1" d="M609.7,241.8l-31.9-34.3l37.6,27.8C620.2,239.3,614.1,246.2,609.7,241.8L609.7,241.8z"/>
	<path class="st1" d="M548.8,181.8c-4,17.4-12.7,52.7,10.9,58.3c13.8-0.3,12.1-22.4,10.9-32.4c3.9,9.1,6.4,19.5,2.5,29.4
		c-2.1,5.6-7.6,9.8-13.7,9.6c-8.7-0.4-15.6-7-19-14.6C534,215.7,540.6,196.2,548.8,181.8L548.8,181.8z"/>
	<path class="st3" d="M435.7,176.9c0,0-43.8,33-49,51.9c-3.3,12,1.5,15.3,6.3,14.2C389.1,239.1,389.1,217.1,435.7,176.9z"/>
	<path class="st3" d="M603.3,177.6c0,0,25.6,24.5,37.1,40.6c10.1,14.1,9.2,23,6.9,25.1C648.9,238,634.8,206.9,603.3,177.6z"/>
	<path class="st3" d="M548.8,181.8c0,0-3.7,52.9,11.8,58.2C555.6,238.7,534.5,236.8,548.8,181.8z"/>
	<path class="st3" d="M582.7,839.2c0,0-21.6,8.5-50,5.1C504.3,841,534.6,870.8,582.7,839.2z"/>
	<path class="st1" d="M224.3,306.1c0,0-168.7,48.8-100.5,84.1C105.8,402.8-31.5,348.6,224.3,306.1z"/>
	<path class="st1" d="M503.5,134.2c0,0,55.2-74.7,68.4-55.5C574.4,47.6,557.9-7.9,503.5,134.2z"/>
	<g>
		<path class="st2" d="M566.4,361.4c-10.1,31.7-1,64.8,20.7,85.6c1.4,1.4,3,2.7,4.5,4c48.2-26.2,81.8-11.2,98.9-1.8
			c1.8-1.5,3.5-3.1,5.2-4.7c9.3-9.3,16.6-21.1,20.9-34.6c13.8-43.6-8.6-89.8-50.1-103.2C625.1,293.3,580.3,317.8,566.4,361.4z"/>
		<g>
			
				<ellipse transform="matrix(3.895266e-02 -0.9992 0.9992 3.895266e-02 233.7626 998.1498)" class="st1" cx="635.8" cy="377.5" rx="59.2" ry="53.9"/>
			<path class="st1" d="M589.9,452c0.6-0.3,1.1-0.6,1.7-1c48.2-26.2,81.8-11.2,98.9-1.8c0.2,0.1,0.3,0.2,0.5,0.3
				c2.2,1.2,4.9-2.3,4.7-5c-0.1-0.7-0.3-1.2-0.7-1.7c-32.9-38.3-81-40.6-107.5,3.5c-0.2,0.2-0.3,0.5-0.4,0.8
				C585.8,450.1,587.5,453.4,589.9,452z"/>
			
				<ellipse transform="matrix(0.2917 -0.9565 0.9565 0.2917 93.9866 841.9554)" class="st8" cx="615.5" cy="357.5" rx="22.8" ry="19"/>
			
				<ellipse transform="matrix(0.2917 -0.9565 0.9565 0.2917 85.078 920.9884)" class="st10" cx="664.4" cy="403" rx="10.7" ry="8.9"/>
		</g>
		
			<ellipse transform="matrix(0.129 -0.9916 0.9916 0.129 110.4056 1052.8776)" class="st11" cx="654.5" cy="463.6" rx="16.9" ry="38.8"/>
	</g>
	<g>
		<path class="st2" d="M456.9,361.4c10.1,31.7,1,64.8-20.7,85.6c-1.4,1.4-2.9,2.7-4.5,4c-48.2-26.2-81.8-11.2-98.9-1.8
			c-1.8-1.5-3.5-3.1-5.2-4.7c-9.3-9.3-16.6-21.1-20.9-34.6c-13.8-43.6,8.6-89.8,50.1-103.2C398.2,293.3,443.1,317.8,456.9,361.4z"/>
		<g>
			
				<ellipse transform="matrix(0.9992 -3.895266e-02 3.895266e-02 0.9992 -14.4124 15.3828)" class="st1" cx="387.6" cy="377.5" rx="53.9" ry="59.2"/>
			<path class="st1" d="M433.4,452c-0.6-0.3-1.1-0.6-1.7-1c-48.2-26.2-81.8-11.2-98.9-1.8c-0.2,0.1-0.3,0.2-0.5,0.3
				c-2.2,1.2-4.9-2.3-4.7-5c0.1-0.7,0.3-1.2,0.7-1.7c32.9-38.3,81-40.6,107.5,3.5c0.2,0.2,0.3,0.5,0.4,0.8
				C437.5,450.1,435.9,453.4,433.4,452z"/>
			
				<ellipse transform="matrix(0.9565 -0.2917 0.2917 0.9565 -86.5552 134.525)" class="st8" cx="407.8" cy="357.5" rx="19" ry="22.8"/>
			
				<ellipse transform="matrix(0.9565 -0.2917 0.2917 0.9565 -101.9652 122.237)" class="st10" cx="358.9" cy="403" rx="8.9" ry="10.7"/>
		</g>
		
			<ellipse transform="matrix(0.9916 -0.129 0.129 0.9916 -56.7096 51.4363)" class="st11" cx="368.8" cy="463.6" rx="38.8" ry="16.9"/>
	</g>
	<path class="st1" d="M107.2,751.3c4.4-42.2,18.3-86,48.4-116.7c4.3-4.3,9-8.1,13.8-11.6c-18.5,15.2-31.1,36.5-39.1,59
		c-6,16.8-9.6,34.4-11.5,52.1c-0.6,5.9-1,12-1.1,17.7C117.5,759,106.9,758.6,107.2,751.3L107.2,751.3z"/>
	<path class="st1" d="M945.1,747.2c-4.3-28-15.6-55-32.1-77.9c-5.5-7.9-12.1-14.9-18.8-21.8c15.2,12,28.6,26.7,39,43.2
		c10.7,16.8,19.2,35.1,24.1,54.5C957.2,745.2,945.1,747.2,945.1,747.2L945.1,747.2z"/>
	<path class="st1" d="M511.1,130.4c0,0-59-135.2-96.2-60.6C386.3,10.5,515.6-76.6,511.1,130.4z"/>
	<path class="st4" d="M795,875c-19.4-3.8-41.9-11.4-63.3,8.6s-22,66.4,41,46.4s87.8-25.7,93.4-43.6S822.4,880.4,795,875z"/>
	<path class="st4" d="M305.3,892.5c3.7-12.3,38.8-18.4,38.5,5.7s29.7,34.4,16.1,53.7S282.4,968.7,305.3,892.5z"/>
	<path class="st4" d="M728.2,289c-8.8-16.4-1.4-38.8,20-26.3C769.6,275.2,762.2,352.2,728.2,289z"/>
	<path class="st2" d="M69.6,752.4c0,0,13.7-119.9,121-152.5C169.4,623,169.4,623,169.4,623s-43.2,18.8-57.5,128
		C96.7,773.9,75.4,777.3,69.6,752.4z"/>
	<path class="st2" d="M894.1,647.5c0,0,104.5,39.9,100.9,94.7c-8.1,28.8-33,27.2-45.2-3.5C937.7,707.9,919.7,670.2,894.1,647.5z"/>
	<path class="st3" d="M760.3,233.4c0,0,116.6,66.2,141.2,114.6C885.9,330.4,760.3,233.4,760.3,233.4z"/>
	<path class="st3" d="M878,376c0,0,70.8,65.8,78.1,108.4C946.7,465.7,878,376,878,376z"/>
	<path class="st3" d="M114.6,552.2c0,0-61,100.9-43.2,188.4C73.3,700.5,71.8,628.2,114.6,552.2z"/>
	<path class="st3" d="M182.7,283.9c0,0,33.5-44.5,133.1-82.2C278.8,222.2,234.7,236,182.7,283.9z"/>
	<path class="st1" d="M58.7,692.5L54,833.3c0,0,31.4,31.9,37.4,37.3c29.8-44,29.8-44,29.8-44l-9.3-75.6
		C111.9,751,68.2,817.9,58.7,692.5z"/>
	<path class="st1" d="M997.2,727.7l-1.2,64.2c-13.6,17.9-25,29.7-35.4,41.4c-0.9-23.9-17.2-50-17.2-50s-8.6-54.1,29.6-17.9
		c10.7,0.9,16.9-7.3,20.5-18C995.4,741.2,996.5,734.2,997.2,727.7z"/>
	<path class="st4" d="M199.8,874.1c20.7,2.3,95,15.6,95.5-28.9c0.7-65.2-52.7-66.7-70.6-45.9c-18,20.8-44.6,38.9-55.2,20.2
		c-6.7-11.9,3.2-27.4,37.5-29.9c34.3-2.5,41.5-101.3-18.1-99.7c-59.6,1.6-72.4,67-72.4,67L131.1,898c0.4,2.3,0.7,4.6,1.1,6.8l0,0
		c0,0-0.1,0.4-0.2,1c0,0,0,0,0,0c3.7,23.8,7.9,47.4,11.9,68.3c27.5-6.6,70.9,46.2,99.6,38.7c32.2-8.4,37.7-40.3,37.7-40.3
		c8.5-29.5-9.9-72.2-53.1-69.7C171.4,906.2,179.7,871.9,199.8,874.1z"/>
	<polygon class="st1" points="80,1024 121.2,826.6 55.3,795.8 41.2,1024 	"/>
	<path class="st1" d="M991.4,1024l4.5-232.2l1.2-64.2l0.5-24.7c-0.1,4.3-0.8,26.3-4.3,44.3c-2.3,12.2-5.9,22.5-11.5,24.3
		c-14.6,4.7-38.6,11.7-38.6,11.7l8.5,240.8H991.4z"/>
	<path class="st4" d="M884.6,1024c4.8-9.8,7.7-19.2,6.5-26.6c0,0-71.3-74.7-98.5-35.1c-11.3,16.4-4.8,39.8,6.7,61.6H884.6z"/>
	<path class="st1" d="M58.7,721.5c0,0.1,0,0.2,0,0.3c4.1,43.7,18.9,52,27.4,53c8.4,1.1,17.1-4.1,23.7-13.2c1.9,20.7,4,40.9,6.3,60.3
		c1.9,16.3,4,32.7,6.4,48.8c0,0.2,0,0.4,0,0.5c1.5,11.6,3.2,23.5,5,35.3c0,0.1,0,0.1,0,0.2c3.2,20.8,7.1,43.2,11.9,68.5
		c3.7,19.6,7.2,36.5,9.8,48.8h9.1c-2.6-12.5-6.3-30.1-10.2-50.5c-4.8-25.1-8.6-47.4-11.8-68c0-0.1,0-0.1,0-0.2
		c-1.8-11.7-3.5-23.4-5-34.9v0c0-0.2,0-0.4,0-0.6c-2.3-16.1-4.5-32.6-6.4-48.9c-2.8-24-5.4-49.4-7.6-75.3c-0.2-2.1-1.8-3.8-3.9-4.1
		c-2.1-0.3-4.1,1-4.8,3c-4.6,13.2-13.8,22.4-21.5,21.5c-9.7-1.2-17-18-19.6-44.8c-0.1-2.3-0.1-4.7-0.1-7
		c0-118.5,79.7-211.8,80.5-212.7c0.2-0.2,0.4-0.5,0.5-0.8c8.7-15.9,15.7-25.1,16.5-26.1c1.5-1.9,1.2-4.7-0.7-6.2
		c-1.8-1.6-4.6-1.3-6.2,0.5c-16.7,18.9-34.1,31.7-39.5,29.1c-0.9-0.5-5.4-3.9-1.3-27C142.7,340.9,218.8,309.8,222,308.5
		c2.2-0.9,3.3-3.3,2.6-5.6c-0.7-2.3-3.1-3.6-5.4-3c-21.2,5.5-38.6,5.7-42.3,0.5c-2-2.8-0.1-9,5.1-17c27-41.3,132.5-82.1,133.5-82.5
		c2-0.8,3.2-2.9,2.8-5.1c-0.4-2.1-2.3-3.8-4.5-3.6c-14.5,0.4-29.7-2.5-30.5-5.8c0-0.1-1.2-6.3,29.1-22.4
		c91-46.9,192.6-33.6,193.6-33.5c1,0.1,2-0.1,2.8-0.5c86.4-49.6,101.6-37.2,103.8-34.2c4,5.5-2,19.3-12.5,29.1
		c-1.2,1.2-1.7,2.9-1.3,4.5s1.8,2.9,3.5,3.2c112.4,21,159.6,50.8,165.8,70c1,3.2,0.7,5.8-1.1,7.7c-3,3.1-11,5.6-23.9,2.1
		c-2.2-0.6-4.4,0.6-5.3,2.7c-0.8,2.1,0,4.5,2,5.6C898.9,310.1,907,354.9,907,363c0,3.9-1.4,6.6-4,8.1c-4.5,2.6-12.2,1.4-19.1-2.9
		c-2-1.2-4.5-0.7-5.9,1.1c-1.4,1.8-1.2,4.4,0.5,6c78.7,74.5,85.6,120.5,76.6,131c-4.1,4.8-12.8,3.2-22-4.1c-2.3-1.8-4.8-4.1-7.2-6.8
		c-1.6-1.7-4.2-1.9-6-0.5c-1.8,1.5-2.2,4.1-0.9,6c3.4,5.1,6.4,10.5,9.3,16.5l0.2,0.4c0.1,0.2,0.2,0.3,0.2,0.5c0,0.1,0.1,0.1,0.1,0.2
		c4.7,9.9,8.6,21,11.7,33.1c0.1,0.3,0.2,0.7,0.4,1c7.3,14.1,43.9,88,50.8,154.3c3.7,35.7-4.7,50.4-13.9,52.2
		c-9,1.8-19.6-8-23.6-21.9c-0.6-2-2.5-3.4-4.6-3.2c-2.1,0.2-3.8,1.8-4.1,3.9l-1,8c-4.1,31.7-10.3,64.1-18.5,96.2
		c-0.7,2.9-1.5,5.7-2.2,8.4l-0.5,2c-0.2,0.8-21.8,84.6-36.5,143.6c-2.5,9.9-4.8,19.2-6.8,27.3c0,0.1-0.1,0.3-0.1,0.4h9.2
		c1.9-7.7,4-16.3,6.4-25.5c14.7-58.9,36.3-142.7,36.5-143.5l0.5-2c0.7-2.8,1.5-5.6,2.2-8.5c7.6-30.2,13.6-60.5,17.8-90.4
		c7.1,10.1,17.4,15.8,27.1,13.9c6.3-1.2,26.5-9.4,21-62c-7-67.1-43.6-141.5-51.5-157c-3.1-12.3-7.1-23.6-11.9-33.8
		c9.9,4.6,19.1,3.7,24.8-3c15-17.6,0.6-65.4-64.2-130.8c3.6-0.1,6.9-0.9,9.8-2.5c5.5-3.1,8.6-8.8,8.6-15.9
		c0-15.5-15.5-59.6-154.8-140.4c5.1-0.9,9.4-3,12.3-6.1c4.1-4.3,5.2-10.3,3.1-16.6c-7.1-22-54.2-52.9-164.6-74.5
		c9.2-11.2,14.5-25.6,7.8-34.8c-11.5-15.9-51-5.2-114.1,30.9c-13.3-1.5-110-10.5-197.4,34.6c-25.6,13.6-35.9,23.6-33.6,32.6
		c1.7,6.7,10.4,9.8,19.5,11.3c-32.3,14-97.8,45.3-119.5,78.5c-7.8,11.9-9.4,20.8-4.9,27.2c4.8,6.8,15.6,8.2,26.9,7.4
		c-26.7,19.4-70,63.9-88,156c-3.7,21.2-1.8,32.9,6.2,36.8c6.2,3,14.6-0.3,22.9-6c-15.8,20.1-79.1,107-79.1,214.3
		C58.6,716.6,58.6,719,58.7,721.5z"/>
	<path class="st2" d="M369.6,1024c-230.4-48.2-256.2-283.7-256.2-283.7c6.9,85.4,33.9,243.7,40.8,283.7H369.6z"/>
	<path class="st2" d="M884.4,1024l64.4-261.3l-3.8-15.5c0,0-75.8,236.6-207.7,276.8H884.4z"/>
</g>
</svg>
