<?xml version="1.0" encoding="utf-8"?>
<!-- Generator: Adobe Illustrator 26.1.0, SVG Export Plug-In . SVG Version: 6.00 Build 0)  -->
<svg version="1.1" id="Слой_1" xmlns="http://www.w3.org/2000/svg" xmlns:xlink="http://www.w3.org/1999/xlink" x="0px" y="0px"
	 viewBox="0 0 1024 1024" style="enable-background:new 0 0 1024 1024;" xml:space="preserve">
<style type="text/css">
	.st0{fill:#FDAE2E;}
	.st1{fill:#4C2205;}
	.st2{fill:#0494C9;}
	.st3{fill:#3FABE8;}
	.st4{fill:#FFFFFF;}
	.st5{opacity:0.29;fill:#3F2401;}
	.st6{opacity:0.1;fill:#FFFFFF;}
	.st7{opacity:0.27;fill:#FFFFFF;}
	.st8{opacity:0.33;fill:#3F2401;}
	.st9{opacity:0.17;fill:#3F2401;}
	.st10{opacity:0.55;fill:#ECFFA6;}
	.st11{fill:#ECFFA6;}
	.st12{fill:#3F2401;}
</style>
<g>
	<path class="st0" d="M1019.7,1024c-6.7-45.3-21.9-130.4-58.2-225.5c-2.6-7.1-5.9-15.8-10.2-25.6c0,0,0,0,0,0
		c-8.3-19.2-19.9-42.4-35.4-65.7c-15.7-23.8-35.5-47.6-59.8-67.5c-0.1-0.1-0.2-0.2-0.3-0.3c-11-8.9-22.9-17.1-35.8-24
		c-2.4-1.3-5.1-2.5-8-3.7c-90.3-36.3-389.8-0.2-550.9,22.9c-46.3,6.7-81.2,12.2-96.4,14.7c-5.4,0.9-8.3,1.4-8.3,1.4
		s-35.1,22.7-66.7,64.9C72.9,738.3,57,766.5,48,799.9l0,0c0,0-41.8,119.1-43.8,224.1H1019.7z"/>
	<path class="st1" d="M1024,1024h-8.7c-11.5-77.2-30.4-150.9-56.1-219.4c-0.6-1.5-1.1-3-1.7-4.5c0,0,0,0,0-0.1
		c0-0.1-0.1-0.2-0.1-0.3c0,0,0-0.1,0-0.1c-3-8.2-6.3-16.6-9.9-24.9c-6.6-15.2-13.9-29.8-21.9-43.6c-4.2-7.4-8.6-14.5-13.2-21.4
		c-0.6-0.9-1.2-1.8-1.8-2.7v0c-16.2-24.1-34.3-44.6-53.8-61.1c-1.1-0.9-2.1-1.8-3.2-2.7c-0.1-0.1-0.2-0.2-0.3-0.3
		c-11.2-9.1-23-17-35.1-23.5c-2.3-1.2-4.9-2.4-7.6-3.5c-88.7-35.6-381.8-0.8-548.7,23.1c-47.9,6.9-83.3,12.6-96.3,14.7
		c-0.9,0.1-1.7,0.3-2.4,0.4c-2.4,0.4-4,0.7-5,0.8c-5,3.4-35,24.5-62.7,60.5c0,0,0,0,0,0c-0.7,0.9-1.4,1.9-2.1,2.8
		c-4.3,5.8-8.4,11.7-12.2,17.7c-10.9,17.3-19.5,35.3-25.5,53.8c-0.1,0.4-0.3,0.8-0.4,1.2c-1.1,3.4-2.1,6.7-3,10.1
		c0,0.1-0.1,0.2-0.1,0.3c-0.6,1.8-41.5,119.1-43.5,222.6H0c1.9-102.8,42.2-220.4,43.9-225.4c8.1-29.9,22.4-58.7,42.5-85.5
		c2.3-3.1,4.7-6.1,7-9c29.5-36.6,59.4-56,60.7-56.9c0.5-0.3,1-0.5,1.6-0.6c0,0,0,0,0.1,0h0c0.7-0.1,3.5-0.6,8.2-1.4
		c13-2.1,48.5-7.8,96.5-14.7c167.7-24.1,462.5-59,553.1-22.6c3,1.2,5.8,2.5,8.4,3.9c12.6,6.7,24.9,15,36.4,24.4
		c0.2,0.1,0.3,0.3,0.4,0.4c0.9,0.8,1.8,1.5,2.8,2.3c18.9,15.9,36.4,35.4,52.4,58.1c1.8,2.6,3.6,5.2,5.4,7.9
		c13.4,20.2,25.4,42.5,35.8,66.4c3.7,8.6,7.2,17.3,10.2,25.8C992.5,867.7,1012.1,944.1,1024,1024z"/>
	<path class="st0" d="M916,707.3c-0.2,0.5-0.5,1.1-0.7,1.6c-8.7,7.1-17.6,13.9-26.7,20.3c-1.2,0.8-2.3,1.6-3.5,2.4
		c-263.2,183.1-665.7,77.3-769.6,11.5c-12.3-7.8-20.5-15-23.7-21.1c-0.7-2.2-1.3-4.3-1.9-6.4c-22.4-82.5,44-111.8,44-111.8
		c41.6,13.6,84.4,23.6,127.4,30.8c218.4,36.6,443.5,0,550.9-22.9c40.8-8.7,64.6-15.4,64.6-15.4s0.4,0.2,1.2,0.7
		c0.1,0.1,0.2,0.1,0.3,0.2C888.2,603.2,944.9,640.8,916,707.3z"/>
	<path class="st0" d="M786.2,235.7c-19.4-9.8-37-15.7-49.8-18.2c12,9.8,23.3,20.1,34,31.1c17.4,17.9,33.1,37.2,46.8,57.5
		c2.1,3.1,4.1,6.2,6.1,9.3c1.2,1.9,2.3,3.7,3.5,5.6c13.9,22.5,25.5,46,34.8,69.9c2.6,6.7,5,13.4,7.2,20.1
		c7.3,22.4,12.6,45,15.7,67.3c0.7,4.3,1.4,8.6,2,12.9c20.9,142.6-32.6,249.6-428.2,228.2c-76-4.1-357.1,13.8-342.2-204.8
		c0.5-7.7,1.2-15.4,2.2-23c3.2-27.3,8.9-54.1,16.8-80.1c2.1-7,4.4-13.8,6.9-20.7c8.9-24.8,20-48.6,33.1-71.1
		c3.1-5.4,6.4-10.7,9.7-15.9c13.7-21.3,29.3-41.3,46.7-59.5c8.4-8.8,17.3-17.2,26.5-25.2c-11.1,2.8-24.8,7.7-39.6,15
		c-3.6,1.8-7.3,3.7-11.1,5.7c-9.5,5.2-19.4,11.4-29.1,18.5c-6.5,4.7-12.9,9.9-19.2,15.5c-51.7,45.9-123-37.9-31.9-91.5
		c71.9-42.3,136.5-4.1,160.5,13.9c0.2-0.2,0.5-0.3,0.7-0.5c-17.4-13-52.6-31.7-78.6-54c-32.4-27.9-25.3-91,37.3-86.2
		c15.7,1.2,27.9,10.3,37.4,23.1c15.9,21.5,24.1,53.6,28.3,77.8c-1.5-28.1,1.1-67.8,23.5-93.4l0,0c8.3-9.5,19.4-17.1,34.1-21.4
		c59.5-17.4,72.1,39.7,35,71.6h0c-4.8,4.2-10.5,7.9-17,10.9c-35.5,16.8-47.8,33.6-52,43.8c46.8-22.4,100.1-35.2,159.2-35.2
		c64.1,0,121.5,14.7,171.3,39.6c-2.3-9.1-12.2-28.8-53.5-48.3c-4.9-2.3-9.3-5-13.2-7.9l0,0c-41.7-31.1-30.2-92.6,31.2-74.6
		c13.6,4,24.2,10.9,32.3,19.5c24,25.5,26.8,66.6,25.3,95.3c4-22.9,11.6-53.1,25.9-74.4c0,0,0,0,0,0c9.8-14.6,22.7-25.2,39.7-26.5
		c62.5-4.8,69.7,58.3,37.3,86.2c-1.7,1.5-3.5,2.9-5.3,4.4c-26.9,21.7-61.1,39.6-76.2,51.9c0.2,0.2,0.5,0.3,0.7,0.5
		c20.2-15.9,81.4-55.8,151.7-22.4c3.9,1.8,7.8,3.9,11.8,6.3c91.1,53.6,19.8,137.4-31.9,91.5c-3.6-3.2-7.2-6.2-10.8-9.1h0
		c-6.3-5-12.6-9.5-18.9-13.7l0,0C803.7,245.1,794.8,240,786.2,235.7z"/>
	<path class="st2" d="M861.6,390.8c-30.3,5.7-85.6,12.1-91.2-15.8c-5.4-26.5,32.2-45,56.5-54C840.7,343.4,852.4,366.9,861.6,390.8z"
		/>
	<path class="st2" d="M817.2,306.1c-27.4,14.1-64.3,27.7-76.4,7.3c-12.5-21,10.4-47.6,29.6-64.8
		C787.9,266.5,803.5,285.8,817.2,306.1z"/>
	<path class="st2" d="M886.6,491.1c-69.5,7.1-114.6-18.9-103.9-48.8c8-22.5,58.4-29.3,86.1-31.4c7.3,22.4,12.6,45,15.7,67.3
		C885.3,482.6,886,486.9,886.6,491.1z"/>
	<path class="st2" d="M237.5,375.7c-5.9,29.2-66.2,20.8-95.4,15c8.9-24.8,20-48.6,33.1-71.1C198.6,327.6,243.3,347,237.5,375.7z"/>
	<path class="st3" d="M218.4,234.1c-3.6,1.8-7.3,3.7-11.1,5.7l8-7.9C215.3,231.9,216.5,232.6,218.4,234.1z"/>
	<path class="st2" d="M267.1,314.1c-13,21.9-54.5,4.6-82.2-10.4c13.7-21.3,29.3-41.3,46.7-59.5C251.4,260.8,280.9,290.8,267.1,314.1
		z"/>
	<path class="st2" d="M118.4,491.6c3.2-27.3,8.9-54.1,16.8-80.1c26.6,1.7,81.5,8.1,90,31.7C236.1,473.4,189.5,499.7,118.4,491.6z"/>
	<path class="st2" d="M663.4,61c-64-6.2-63.5,55.2-63.5,55.2l-0.1,0l0,0c-41.7-31.1-30.2-92.6,31.2-74.6
		C644.7,45.5,655.3,52.4,663.4,61z"/>
	<path class="st2" d="M791.7,141.7c-1.7,1.5-3.5,2.9-5.3,4.4c-11.6-65.1-70.5-64.2-71.7-64.2c9.8-14.6,22.7-25.2,39.7-26.5
		C816.9,50.7,824.1,113.8,791.7,141.7z"/>
	<path class="st2" d="M842.4,273.8c-3.6-3.2-7.2-6.2-10.8-9.1c70.9-32.9,30.9-88.7,30.9-88.7c3.9,1.8,7.8,3.9,11.8,6.3
		C965.4,236,894.1,319.7,842.4,273.8z"/>
	<path class="st2" d="M405.2,113.1L405.2,113.1c-14.5-49.9-69-50.2-69-50.2l0,0c8.3-9.5,19.4-17.1,34.1-21.4
		C429.7,24.1,442.3,81.2,405.2,113.1z"/>
	<path class="st2" d="M284.4,78.6c-1.2,0.1-55.2,3.3-74.7,63.1c-32.4-27.9-25.3-91,37.3-86.2C262.7,56.7,274.9,65.7,284.4,78.6z"/>
	<path class="st2" d="M178.2,258.3c-6.5,4.7-12.9,9.9-19.2,15.5c-51.7,45.9-123-37.9-31.9-91.5C127.1,182.3,112.3,234.5,178.2,258.3
		z"/>
	<path class="st1" d="M876.9,177.9c-37.5-22.1-72.8-23.4-101.6-17c6.8-4.9,13.5-10,19.7-15.3c18.7-16.1,25.8-43.6,16.9-65.4
		c-1.3-3.2-3-6.2-4.9-9c-10.4-15.1-29.2-22.6-53-20.8c-20.2,1.5-35.1,14.4-46,32.2c-6.4,10.5-11.5,22.8-15.5,35.6
		c-2-15.2-6.1-31-13.9-44.8c-9.3-16.5-23.8-30.2-46.1-36.7c-3.8-1.1-7.3-1.9-10.7-2.5c-27.9-4.7-43.6,8-49.1,22.7
		c-8.4,22.5,3.5,55.4,38.2,71.8c25.5,12,38.3,23.9,44.7,32.9C606,139,552.2,127.6,495.4,127.6c-51.5,0-100.3,9.6-145.3,28.4
		c7.3-8,19.6-17.7,40.3-27.4c34.7-16.4,46.7-49.4,38.2-71.8c-5.4-14.3-20.5-26.8-47.3-22.9c-0.1,0-0.3,0-0.4,0.1
		c-3.8,0.5-7.8,1.4-12.1,2.7c-0.6,0.2-1.1,0.3-1.7,0.5c-14.4,4.5-25.4,12.1-33.9,21.5c-14.9,16.5-21.7,38.6-24.5,59.6
		c-3.3-10.5-7.3-20.7-12.2-29.8c-8.7-16.2-20.1-29.1-35.2-34.9h0c-4.4-1.7-9.1-2.8-14.1-3.1c-6.1-0.5-11.8-0.3-17.1,0.4
		c0,0-0.1,0-0.1,0c-19.4,2.6-33.8,12.8-40.6,29.3c-9,21.8-1.9,49.3,16.9,65.4c6.3,5.4,13.1,10.6,19.9,15.5
		c-18.3-4.1-39.2-5.1-61.6,0.3c-13,3.1-26.5,8.5-40.3,16.6c-42.6,25.1-47.2,53.5-46.2,68.3c0.5,6.4,2.1,12.5,4.8,18.1
		c5.2,10.8,14.3,19.7,25.6,24.3c17.9,7.3,37.4,3.3,53.5-11c24.8-22,52.2-37.3,74.9-46.3c-72.9,71.3-118.5,173-126,282.8
		c-0.1,1.4-2.8,34.7,10.8,73.9c2.5,7.2,5.6,14.8,9.6,22.6c12.7,25,34,51.9,69.4,71.3c9.6,5.2,20.2,9.9,31.9,13.9
		c0.5,0.2,1.1,0.3,1.6,0.3c2.1,0,4.1-1.3,4.8-3.5c0.9-2.7-0.5-5.5-3.2-6.4c-52.1-17.6-87.2-51.6-104.5-101.2
		c-13-37.2-10.4-69.8-10.4-70.2c7.9-115.8,59-222.2,140.1-292c1.8-1.5,2.3-4.1,1.2-6.2c-1.1-2.1-3.5-3.2-5.7-2.6
		c-12.6,3.2-57.1,16.7-101.2,55.9c-13.1,11.7-28.8,15-43,9.2c-6.7-2.7-12.3-7.3-16.5-12.9c-4.4-6-7.1-13.1-7.7-20.8
		c-0.9-12.4,3.3-36.5,41.2-58.8c49.7-29.2,95.2-19.3,125.6-4.9c0.6,0.3,1,0.5,1,0.5c11.7,5.7,21.2,11.9,27.6,16.8
		c0.4,0.3,0.7,0.5,1.1,0.6c3,2,5.3,0.8,6.2,0.2c1.3-0.9,2.2-2.4,2.2-4.1c0-1.6-0.7-3.2-2-4.2c-6.6-5-15.4-10.5-25.7-17
		c-17.2-10.8-36.6-23-52.7-36.8c-10.5-9-16.6-22.4-17.2-35.6c-0.3-6.2,0.7-12.5,3.1-18.2c7-17,23.9-25.3,47.7-23.5
		c32,2.5,48.5,42.4,56.7,75.8v0c1.8,7.4,3.2,14.5,4.3,20.8c0.5,2.6,2.9,4.5,5.6,4.2c2.7-0.3,4.6-2.6,4.5-5.3
		c-1.3-23.1,0.4-49.5,10.2-71c8.1-17.8,21.7-32.2,43.8-38.7c14.4-4.2,26.6-4,35.3,0.4c5.7,2.8,9.8,7.4,12.2,13.6
		c6.7,17.7-4.1,45.3-33.1,59c-36.3,17.1-49.7,34.7-54.6,46.5c-0.8,2-0.3,4.2,1.2,5.6c1.5,1.5,3.8,1.8,5.7,0.9
		c48-23,100.9-34.7,157-34.7c60.3,0,117.1,13.2,169,39.1c1.8,0.9,3.9,0.6,5.4-0.6c1.5-1.3,2.2-3.3,1.7-5.2
		c-2.7-10.6-13.6-31.5-56.3-51.7c-29-13.7-39.7-41.3-33.1-59c1.9-4.9,4.9-8.8,8.9-11.7l0,0c2.3-1.6,5-2.9,8-3.8
		c8.2-2.5,18.6-2.1,30.6,1.4c25.5,7.5,39.7,25.6,47.1,47.1c6.8,19.7,7.9,42.4,6.8,62.5c-0.1,2.7,1.8,5,4.5,5.3
		c2.7,0.3,5.1-1.5,5.6-4.2c0.3-1.9,0.7-3.8,1-5.8c0,0,0,0,0,0c0,0,0,0,0,0c6.8-35.2,23-88.1,60-90.9c23.8-1.8,40.7,6.5,47.7,23.5
		c0.6,1.5,1.1,3,1.5,4.5c0,0,0,0.1,0,0.1c4.7,17-1.5,37-15.7,49.2c-16,13.8-35.5,26-52.7,36.8c-3.1,2-6.1,3.9-9,5.7
		c-7.7,4.5-13.6,8.9-17.6,12c-0.4,0.3-0.8,0.6-1.3,1c-0.3,0.2-0.6,0.4-0.8,0.7c-1.2,1-1.9,2.6-1.9,4.2c0.1,1.6,0.9,3.1,2.2,4
		c1.3,0.9,4,1.9,7.1-1.1c0.2-0.1,0.3-0.3,0.5-0.4c0.1,0,0.1-0.1,0.1-0.1c0,0,0.1-0.1,0.1-0.1c4.4-3.4,10.2-7.2,16.9-11.5
		c28.4-16.8,81.2-36.7,139.7-2.3c37.9,22.3,42.1,46.4,41.2,58.8c-1,14.9-10.5,28.1-24.2,33.7c-14.2,5.8-29.8,2.5-43-9.2
		c-38.8-34.4-82.6-52.5-108.4-57.5c-2.3-0.4-4.6,0.7-5.6,2.9s-0.4,4.6,1.4,6.1c33.3,27,62.2,59.6,85.9,96.7
		c31.8,49.8,52.7,105.4,60.4,160.8c0,0.1,0,0.1,0,0.2c0.1,0.4,6.4,36.7,0.6,78.7c-7.2,53.2-29.5,91-66.1,112.2
		c-0.2,0.1-0.5,0.3-0.7,0.4c-0.2,0.1-0.3,0.2-0.4,0.3c-1.2,0.7-2.4,1.3-3.7,2c-0.5,0.2-0.9,0.5-1.2,0.9c0,0,0,0,0,0
		c-1.1,1.1-1.7,2.8-1.5,4.3c0.1,0.6,0.3,1.1,0.5,1.6c0.2,0.3,0.4,0.6,0.6,0.9c1.1,1.3,2.8,2,4.4,1.8c0.6-0.1,1.2-0.2,1.8-0.5
		c1.6-0.8,3.2-1.7,4.7-2.6c0,0,0,0,0.1,0c0,0,0,0,0,0c0,0,0.1,0,0.1-0.1c27.8-16.1,48.3-41.6,60.6-75.1c5-13.7,8.6-28.7,10.9-45
		c5.8-42.9-0.3-78.9-0.7-81.5c-7.9-56.8-29.3-113.8-61.9-164.8c-20-31.4-43.7-59.6-70.5-84c23.8,8.5,54.2,24.4,82,49
		c16.1,14.3,35.6,18.3,53.5,11c17.2-7.1,29.1-23.7,30.5-42.4C924.1,231.5,919.5,203,876.9,177.9z"/>
	<path class="st1" d="M255.6,214.6c9.2-2.7,19.5-5,28.6-1.2c-8.9-0.3-17,4.9-23.8,10.1C253.8,228.5,247.8,217.6,255.6,214.6
		L255.6,214.6z"/>
	<path class="st1" d="M339.9,171.4c-10,9-17.7,21.4-19,35.1c-1.9-12.8,2.1-26,8.4-37.1c1-1.7,1.9-3.2,3.2-5
		C337.3,158.4,345.5,166.3,339.9,171.4L339.9,171.4z"/>
	<path class="st1" d="M317.5,156l-3.2,37.2l-6.9-36.7C306.3,148.8,317.7,148.2,317.5,156L317.5,156z"/>
	<path class="st1" d="M291.4,191.7c11.2,10.5,20.6,22.6,28.3,35.7c-7.6-8.2-16-15.3-25.1-21.7c-3-2.1-6.1-4.1-9.1-5.8
		C279.1,196,285.6,186.9,291.4,191.7L291.4,191.7z"/>
	<path class="st1" d="M713.1,202.1c-14.5,8.4-29.2,16.8-42.6,26.9c11.2-12.8,24.1-23.9,36.8-35.2
		C713.1,189.2,719.4,198.2,713.1,202.1L713.1,202.1z"/>
	<path class="st1" d="M736.7,222.4c-4.3-2.6-9.8-3.2-15-3.4c-5.7-0.2-11.8,0.6-17.4,1.8c0,0,4-2,4-2c10-4.6,21.6-8.4,32.6-5.6
		C747,216.1,742.9,225,736.7,222.4L736.7,222.4z"/>
	<path class="st1" d="M670.7,168.2c3.7,11.5,3,24,0.6,35.7c-0.3-2.9-0.6-5.7-1.1-8.5c-1.2-6.8-3.3-13.4-6.5-19.4
		c-0.5-1-1.3-2.3-1.9-3c-2-2.1-2-5.4,0-7.5C664.8,162.4,669.7,164.1,670.7,168.2L670.7,168.2z"/>
	<path class="st1" d="M693.9,156.1L683,193.6l0.9-39c0.1-2.8,2.4-5.1,5.2-5C692.4,149.6,694.9,153,693.9,156.1L693.9,156.1z"/>
	<path class="st1" d="M230.9,684.2c19.7,9.9,41.3,15.4,62.6,21.1c5.4,1.4,16.4,4,21.8,5.2c-14.5-1.6-30.2-3.6-44.6-6.1
		c-15-2.8-30.3-5.5-44.6-11.2C219.7,690,224.6,680.7,230.9,684.2L230.9,684.2z"/>
	<path class="st1" d="M818.8,679.1C818.8,679.1,818.8,679.1,818.8,679.1c-0.1,0.1-0.1,0.1-0.1,0.1h0c0,0,0,0-0.1,0
		c-2.2,1.1-4.4,2.2-6.6,3.2c-19.2,8.8-39.9,14.1-60.3,19.3c-15.6,3.9-35.2,7.7-51.1,10.6l-17.1,2.9l16.9-4.1
		c15.6-4,34.7-9.3,50-14.3c16.4-5.3,32.6-11.2,48.3-18.4c3.1-1.5,6.3-3,9.3-4.7c0,0,0,0,0,0c1.7-0.9,3.3-1.9,4.9-2.9
		c0.2-0.1,0.3-0.2,0.4-0.3c0.3-0.2,0.5-0.3,0.7-0.4c2-1,4-0.5,5.3,0.7C821.7,672.8,822.3,676.8,818.8,679.1z"/>
	<path class="st1" d="M930.5,730.9c-0.1,0.1-0.1,0.1-0.2,0.1c-0.9,0.6-1.9,0.9-2.9,0.9c-0.9,0-1.8-0.2-2.6-0.7
		c-0.6-0.4-1.2-0.9-1.6-1.5l-12.2-17.9c-0.8-1.2-1.1-2.6-0.8-4c0.1-0.3,0.1-0.6,0.3-0.8c1.6-3.9,2.9-7.6,3.9-11.2
		c16.5-56.4-26.3-86.6-37.6-93.4c-1.4-0.8-2.3-1.3-2.5-1.4c-2.5-1.3-3.4-4.4-2.2-6.9c1.3-2.5,4.3-3.5,6.8-2.2
		c0.7,0.4,70.7,37.8,42.6,114.4c-0.2,0.6-0.5,1.3-0.7,1.9l10.7,15.7C933.2,726.2,932.6,729.3,930.5,730.9z"/>
	<path class="st1" d="M136,608.5c-0.1,0-0.1,0.1-0.2,0.1c-2.4,1.1-55.9,24.9-42.6,94.3c0.6,3.2,1.3,6.4,2.2,9.7
		c0.4,1.4,0.2,2.8-0.6,4c-2,3.2-3.8,6-5.4,8.5c-4.5,7.1-7.3,11.4-7.7,12c-0.3,0.3-0.5,0.6-0.8,0.9c0,0,0,0,0,0
		c-0.9,0.7-2,1.1-3.2,1.1c-1.1,0-2.1-0.3-3-1l0,0c-2.2-1.7-2.7-4.9-1-7.1c0.1-0.1,1.4-2,10.2-16c0.4-0.6,0.8-1.2,1.2-1.9
		c-10.9-43.4,2-71.9,14.9-88.3c14.2-18,31.2-25.4,31.9-25.6c2.6-1.1,5.6,0.1,6.6,2.7C139.6,604.4,138.4,607.3,136,608.5z"/>
	<path class="st1" d="M193.1,792.4c-0.3,0.7-26.4,61.2-19.8,134.8c-3.6-2.4-7.2-4.9-10.8-7.5c-4.4-72,20.1-128.6,21.4-131.5
		c1.1-2.6,4.1-3.7,6.7-2.6C193.1,786.8,194.3,789.8,193.1,792.4z"/>
	<path class="st1" d="M841.5,924c-3.5,2.4-7,4.8-10.5,7.1c5.5-85.9-32.9-137.1-33.4-137.7c-1.7-2.2-1.3-5.4,0.9-7.1
		c2.2-1.7,5.4-1.3,7.1,0.9c0.6,0.8,14.4,19,24.8,52.2C837,859.7,842.8,888.6,841.5,924z"/>
	<path class="st4" d="M335.1,618.8c-32.4,7.3-60.2,13.3-84.7,10.4c-18.3-2.2-29.9-9-37.1-17.3c0,0,0,0,0,0
		c0.3-1.5,20.9-94.6,66.9-95.2C326.6,516,335.1,618.8,335.1,618.8z"/>
	<path class="st4" d="M806.9,600.2c-8.4,15.4-24.4,27.5-55.2,33c-18.5,3.4-45.1,0-76.5-5.8c0,0,7.2-95.3,53-106.3
		C766.7,511.9,797.9,569.1,806.9,600.2z"/>
	<path class="st1" d="M263.8,631.6c-4.7,0-9.2-0.2-13.6-0.8c-16.7-2-29.5-8-38.2-17.9c-0.3-0.3-0.4-0.7-0.4-1.1c0-0.1,0-0.3,0-0.4
		c0.8-3.9,21.3-95.9,68.5-96.5c0.2,0,0.3,0,0.5,0c47,0,55.8,99.5,56.1,103.7c0.1,0.8-0.5,1.6-1.3,1.8
		C307.1,626.8,284.3,631.6,263.8,631.6z M215.1,611.4c8.1,8.8,20,14.3,35.5,16.1c23.2,2.7,49-2.4,82.7-10
		c-1.3-12.4-11.6-99.1-52.6-99.1c-0.1,0-0.3,0-0.4,0C237.9,518.9,217.3,602.1,215.1,611.4z"/>
	<path class="st1" d="M734.7,636.3c-17.8,0-39-3.3-59.8-7.2c-0.8-0.2-1.4-0.9-1.4-1.8c0.3-3.9,7.8-96.7,54.3-107.8
		c40.7-9.8,71.9,49.9,80.7,80.3c0.1,0.4,0.1,0.9-0.1,1.3c-9.7,17.7-28.1,28.8-56.3,33.9C746.8,635.9,740.9,636.3,734.7,636.3z
		 M677,626.1c27.3,5,55.1,9,74.3,5.5c26.8-4.9,44.4-15.2,53.6-31.6c-8.4-28.5-38.7-86.3-76.4-77.2
		C687.6,532.7,678.2,613.9,677,626.1z"/>
	<g>
		<path class="st5" d="M736.4,398.5c0,18.8-7.3,36.4-17.5,51.2c-33,3.9-81.1,3.8-116-1.3c-9.9-14.6-17-31.6-17-49.9
			c0-53.4,33.7-96.6,75.3-96.6C702.7,301.9,736.4,345.1,736.4,398.5z"/>
		<path class="st1" d="M724.8,401.5c0,14.2-3.6,27.4-9.8,38.6c-11.3,20.2-31.2,33.6-53.8,33.6c-21.2,0-40-11.8-51.6-29.9
			c-7.6-11.9-12-26.5-12-42.3c0-39.9,28.5-72.2,63.7-72.2C696.3,329.3,724.8,361.7,724.8,401.5z"/>
		<path class="st6" d="M715,440.1c-11.3,20.2-31.2,33.6-53.8,33.6c-21.2,0-40-11.8-51.6-29.9c3.1-37.5,25.6-66.7,52.9-66.7
			C688.8,377.2,710.7,404.4,715,440.1z"/>
		<path class="st1" d="M737.6,451.7c-8.5,5.6-20.6,12.5-35.2,17.7c-13.3,4.7-28.6,8-45.1,7.7c-13.4-0.3-25.7-3.2-36.3-7.3
			c-14.9-5.7-26.7-13.7-33.9-19.4c-2.3-1.8-0.2-4.9,2.9-4.3c4,0.8,8.3,1.6,12.8,2.2c34.9,5.1,83.1,5.2,116,1.3
			c5.8-0.7,11.2-1.5,16-2.4C738.1,446.7,740.1,450.1,737.6,451.7z"/>
		<ellipse class="st4" cx="638.5" cy="379.1" rx="25.8" ry="32.1"/>
		<ellipse class="st7" cx="689.9" cy="436" rx="12.3" ry="13"/>
		<path class="st5" d="M591,453.4c0,0,29,32.4,65.8,33.1s76.4-32,76.4-32S615.7,460.4,591,453.4z"/>
	</g>
	<g>
		<path class="st5" d="M413.1,398.5c0,18.8-7.3,36.4-17.5,51.2c-33,3.9-81.1,3.8-116-1.3c-9.9-14.6-17-31.6-17-49.9
			c0-53.4,33.7-96.6,75.3-96.6C379.4,301.9,413.1,345.1,413.1,398.5z"/>
		<path class="st1" d="M401.5,401.5c0,14.2-3.6,27.4-9.8,38.6c-11.3,20.2-31.2,33.6-53.8,33.6c-21.2,0-40-11.8-51.6-29.9
			c-7.6-11.9-12-26.5-12-42.3c0-39.9,28.5-72.2,63.7-72.2C373,329.3,401.5,361.7,401.5,401.5z"/>
		<path class="st6" d="M391.7,440.1c-11.3,20.2-31.2,33.6-53.8,33.6c-21.2,0-40-11.8-51.6-29.9c3.1-37.5,25.6-66.7,52.9-66.7
			C365.5,377.2,387.4,404.4,391.7,440.1z"/>
		<path class="st1" d="M414.3,451.7c-8.5,5.6-20.6,12.5-35.2,17.7c-13.3,4.7-28.6,8-45.1,7.7c-13.4-0.3-25.7-3.2-36.3-7.3
			c-14.9-5.7-26.7-13.7-33.9-19.4c-2.3-1.8-0.2-4.9,2.9-4.3c4,0.8,8.3,1.6,12.8,2.2c34.9,5.1,83.1,5.2,116,1.3
			c5.8-0.7,11.2-1.5,16-2.4C414.8,446.7,416.9,450.1,414.3,451.7z"/>
		<ellipse class="st4" cx="315.2" cy="379.1" rx="25.8" ry="32.1"/>
		<ellipse class="st7" cx="366.6" cy="436" rx="12.3" ry="13"/>
		<path class="st5" d="M267.7,453.4c0,0,29,32.4,65.8,33.1s76.4-32,76.4-32S292.4,460.4,267.7,453.4z"/>
	</g>
	<path class="st1" d="M732.2,639.5c-19.4,0-37.7-3.4-50.5-5.7c-2.7-0.5-5.1-0.9-7.3-1.3c-0.3,0-0.5-0.1-0.8-0.2
		c-73.6-24.5-149-34.5-223.9-29.6c-64.3,4.2-105.4,18.1-112.9,20.8c-24.5,8.8-75.3,19.7-110.3,4.3c-34.4-15.1-37.8-65.5-38-67.7
		c-0.2-2.8,2-5.2,4.7-5.4c2.8-0.2,5.2,2,5.4,4.8l0,0c0,0.5,3.3,46.4,31.9,59c28,12.3,72.9,6.3,102.8-4.5
		c15.6-5.6,157.5-53.1,343.1,8.5c2.1,0.3,4.4,0.8,7,1.3c29.5,5.4,91,16.7,119-26.2c14.3-25.8,4.5-48.7,4.4-48.9
		c-1.1-2.6,0-5.6,2.6-6.7c2.6-1.1,5.6,0,6.7,2.6c0.5,1.1,12,27.9-4.9,58.2c-0.1,0.1-0.1,0.2-0.2,0.3
		C792.2,632.1,761,639.5,732.2,639.5z"/>
	<path class="st8" d="M732.2,648.7c-19.4,0-37.7-3.4-50.5-5.7c-2.7-0.5-5.1-0.9-7.3-1.3c-0.3,0-0.5-0.1-0.8-0.2
		C600,617,524.6,607.1,449.7,612c-64.3,4.2-105.4,18.1-112.9,20.8c-24.5,8.8-75.3,19.7-110.3,4.3c-34.4-15.1-37.8-65.5-38-67.7
		c-0.2-2.8,2-5.2,4.7-5.4c2.8-0.2,5.2,2,5.4,4.8l0,0c0,0.5,3.3,46.4,31.9,59c28,12.3,72.9,6.3,102.8-4.5
		c15.6-5.6,157.5-53.1,343.1,8.5c2.1,0.3,4.4,0.8,7,1.3c29.5,5.4,91,16.7,119-26.2c14.3-25.8,4.5-48.7,4.4-48.9
		c-1.1-2.6,0-5.6,2.6-6.7c2.6-1.1,5.6,0,6.7,2.6c0.5,1.1,12,27.9-4.9,58.2c-0.1,0.1-0.1,0.2-0.2,0.3
		C792.2,641.4,761,648.7,732.2,648.7z"/>
	<path class="st1" d="M809.6,559.2c0,0-5.9-15.5-14.5-22.4c-8.6-6.9,14.8-19.1,25.3-9.4c4.8,5-0.2,45.4-0.2,45.4L809.6,559.2z"/>
	<path class="st1" d="M199.1,562c0,0,5.9-15.5,14.5-22.4c8.6-6.9-14.8-19.1-25.3-9.4c-4.8,5,2.4,44.9,2.4,44.9L199.1,562z"/>
	<path class="st1" d="M357.9,682.8C394,649,444,630.9,493.2,631c49.4,0,98.1,20.3,135.7,51.8c-23.8-13.7-48.2-25.4-74.3-32.7
		C488.4,630.2,415,644.6,357.9,682.8L357.9,682.8z"/>
	<path class="st1" d="M401.4,705.9c25.4-23.7,60.4-36.4,94.9-36.4c34.7,0,68.8,14.2,95.2,36.4c-16.7-9.6-33.8-17.8-52.1-22.9
		C492.9,669,441.4,679.1,401.4,705.9L401.4,705.9z"/>
	<path class="st1" d="M761,697.2c-0.4,0-0.7-0.3-0.8-0.6c-0.1-0.4,0.1-0.9,0.6-1c0.7-0.2,2.4-0.7,5.1-1.3c0.4-0.1,0.9,0.2,1,0.6
		c0.1,0.4-0.1,0.9-0.6,1c-1.7,0.5-3.3,0.9-5.1,1.3C761.2,697.2,761.1,697.2,761,697.2z"/>
	<path class="st2" d="M961.5,814.4c-8.6,10.3-17.5,20.4-26.8,30.1c-1.3,1.4-2.7,2.8-4.1,4.3c-9.8-27.3-26.3-71.8-42.8-110.7
		c0.4-3.1,0.6-6,0.7-8.8c1.7-49-42.1-52.6-69.8-50.1c0,0,0.1,0,0.1-0.1c14.7-8.5,27.4-19.7,37.9-33.3c19.5,16.5,37.6,37,53.8,61.1v0
		c-0.1,0.3-0.2,0.6-0.2,0.8c-0.3,1.4,0,2.8,0.7,4l12.2,17.9c0.3,0.4,1.3,0.9,2.3,1.3c7.9,13.8,15.3,28.4,21.9,43.6
		c3.6,8.4,6.9,16.7,9.9,24.9c0,0,0,0.1,0,0.1C959.1,805.6,960.3,810.4,961.5,814.4z"/>
	<path class="st2" d="M914.5,695.7c-0.1,0.4-0.2,0.8-0.4,1.2c-1,3.2-2.2,6.5-3.6,10c-16.2-24.1-34.3-44.6-53.8-61.1
		c1.7-2.3,3.4-4.6,5-7c7.1-10.4,13-22,17.7-34.9C893.4,613.1,929.9,642.9,914.5,695.7z"/>
	<path class="st1" d="M923,702.4c-10,21.7-31.4,35.6-52.9,44c14.4-8.1,27.8-18.9,36.8-33c2.7-4.3,5.2-9,6.5-13.9
		C914.8,691.9,925.8,695.2,923,702.4L923,702.4z"/>
	<path class="st2" d="M201,682c-19.2-2.4-85.6-5.7-85.6,61.2v0.5c-16.9,36.1-30.2,76.4-38.1,102.7c-9.6-9.9-18.9-20.2-27.7-30.8
		c1.8-9,3.7-17.7,6-25.9c6.1-18.5,14.6-36.5,25.5-53.8c0.3,0.7,0.6,1.4,0.7,1.2c0.4-0.6,3.2-4.9,7.7-12c1.6-2.5,3.4-5.3,5.4-8.5
		c0.3-0.4,0.4-0.8,0.6-1.3c0,0,0,0,0,0c27.7-36,57.7-57.1,62.7-60.5c0.9-0.2,2.6-0.4,5-0.8C173.5,664.3,186,673.8,201,682z"/>
	<path class="st2" d="M163.1,654.1c-2.4,0.4-4,0.7-5,0.8c-5,3.4-35,24.5-62.7,60.5c0.3-0.9,0.3-1.8,0-2.7c-0.8-2.9-1.5-5.8-2-8.6
		c-0.1-0.4-0.2-0.8-0.2-1.1c-11.3-58.9,25.4-85,38.3-92.2c6,11.9,13.9,24.1,24.4,35.8h0C158.2,649.1,160.6,651.6,163.1,654.1z"/>
	<path class="st1" d="M93.6,705.4c4.2,15.3,14.9,28.3,26.9,38.5c4.1,3.6,8.8,6.7,13.4,9.7c-6.3-2.8-12.7-6.1-18.4-9.9
		c-13.2-8.9-25.2-20.6-31.6-35.5C81.2,701.1,92,697.9,93.6,705.4L93.6,705.4z"/>
	<path class="st1" d="M162.5,894.9c8.2-20.1,22-37.7,38.5-51.5c9.8-8.1,20.9-14.5,32.5-19.4c-18.3,9.9-34,24.1-45.7,41.3
		c-6.6,10.1-12.5,21.2-15.8,32.8C170,904.9,160.2,901.6,162.5,894.9L162.5,894.9z"/>
	<path class="st1" d="M829.5,886.5c-5.3-13.6-14.3-25.8-25.4-35.3c-11.5-9.8-25.6-16.2-40.6-18.8c15.4,0.9,30.8,6,43.6,14.8
		c13.2,9,24.3,21.2,31.7,35.6C841.7,889.2,832.1,893.2,829.5,886.5L829.5,886.5z"/>
	<path class="st9" d="M738.7,520.2c0,0,36.4,49.2,10.9,112.5c29.2-2.1,53.5-29.5,53.5-29.5l1.5-9.9
		C804.7,593.4,779.9,521.4,738.7,520.2z"/>
	<path class="st9" d="M277.9,516.7c0,0-43.4,24.1-8.8,113c-18,1.4-48.1,0.5-54.4-24C218.7,592.1,238.9,519.2,277.9,516.7z"/>
	<path class="st1" d="M478.2,444.1c4.2,4.8,6.4,19.8,3.8,22c-2.5,2.2-17-1.7-21.3-6.6c-4.2-4.8-3.8-12.2,1.1-16.5
		C466.6,438.7,473.9,439.2,478.2,444.1z"/>
	<path class="st1" d="M514.6,444.1c-4.2,4.8-6.4,19.8-3.8,22c2.5,2.2,17-1.7,21.3-6.6s3.8-12.2-1.1-16.5
		C526.2,438.7,518.9,439.2,514.6,444.1z"/>
	<path class="st1" d="M478.2,507.3c4.2,4.8,6.4,19.8,3.8,22c-2.5,2.2-17-1.7-21.3-6.6c-4.2-4.8-3.8-12.2,1.1-16.5
		C466.6,501.9,473.9,502.4,478.2,507.3z"/>
	<path class="st1" d="M514.6,507.3c-4.2,4.8-6.4,19.8-3.8,22c2.5,2.2,17-1.7,21.3-6.6s3.8-12.2-1.1-16.5
		C526.2,501.9,518.9,502.4,514.6,507.3z"/>
	<path class="st8" d="M97.9,274.8c0,0,50.3-110.1,186.3-61.4c-15.5-1.7-62.7,22.8-65.8,20.6s-48.4,33.6-56,37.7
		S129.4,300.3,97.9,274.8z"/>
	<path class="st8" d="M420.5,52.8c0,0-87.1,7.5-99.6,153.7c4-27.9,22.6-57.7,42.6-68.7C383.4,126.8,444.7,97.7,420.5,52.8z"/>
	<path class="st8" d="M579.8,50.2c0,0,114.4,42.3,91.5,153.6c-1.4-27.5-5.2-50.2-47.1-74.2C582.2,105.7,567.6,75.4,579.8,50.2z"/>
	<path class="st8" d="M905.9,273.8c0,0-89.3-125.2-201.5-53.1c18.7-7.3,46.3-6.3,81.8,15s79.9,51.6,79.8,50.5
		S889.7,294.5,905.9,273.8z"/>
	<path class="st0" d="M571.5,164.3c0,35-29,9-69.3,9s-76.6,26.1-76.6-9s32.6-63.4,72.9-63.4S571.5,129.3,571.5,164.3z"/>
	<path class="st10" d="M830.8,1024v-59.2c0,0-43-38.3-79.8-57.6c-39-27.2-44.6-68.5-44.6-68.5c-3.3-56.5-27.8-107.2-65.5-143.8
		c-37.7-36.5-88.5-58.9-144.4-58.9c-111.9,0-203.4,89.8-209.9,203l-0.3-0.2c0,0-3.8,49.8-42.8,77c-8.6,5.5-16.3,11.3-23.1,17.4
		c0,0,0,0,0,0s-37.6,29.7-49.1,61.1c5.2,13.1,7.5,23.7,8.6,29.8H830.8z"/>
	<path class="st1" d="M571.5,164.3c-0.1-1-0.2-1.9-0.4-2.8c-2.7-16.4-12.2-30.8-25.4-40.4c-40.5-30.7-111-12.7-119.7,40.9
		c0,0,0,0,0,0v0c-0.1,0.8-0.2,1.6-0.3,2.4c-1-8.1,0.2-16.3,3-24c3.6-9.8,9.9-18.7,17.8-25.5c1.2-1.1,2.5-2.2,3.8-3.2
		c21.7-16.9,52.8-20,78.3-10.2c16.8,6.4,31.2,18.5,38.8,35.8c0.4,0.8,0.7,1.7,1,2.6c0,0,0,0,0,0
		C571.4,147.8,572.6,156.2,571.5,164.3z"/>
	<path class="st5" d="M95.6,648.7c0,0,60.9,74.3,219.6,61.8c-28.2-6.9-129.1-9.4-181.4-106.6C114.2,610.5,98.9,631.2,95.6,648.7z"/>
	<path class="st5" d="M915.4,636c0,0-20.7,65.3-200.5,73.6c46.3-12.4,141-32.8,159.4-108.6C898.7,606.6,915.4,636,915.4,636z"/>
	<path class="st8" d="M320.8,206.5c0,0,40.6-38.3,104.8-42.2c0.8-11.1,5.7-26.1,5.7-26.1s-76.7,15.6-93.5,30.2
		C330.7,175.7,319,189.6,320.8,206.5z"/>
	<path class="st8" d="M571.5,164.3c0,0,80.7,14,98.9,44.7c2.1-12.2-0.8-22.4-0.8-22.4l-9.4-17.4l-88.7-27.5l-3.1,4.4L571.5,164.3z"
		/>
	<path class="st8" d="M267.7,216.3c0,0-158.5,161-128.8,342.5C159.5,667.4,258.1,692,301.3,708.5c-52.3-7.5-161-38-182.9-144
		C102.1,474.1,145,303.9,267.7,216.3z"/>
	<path class="st8" d="M733.7,220.6c0,0,158.5,161,128.8,342.5C842,671.8,743.3,696.3,700.1,712.8c52.3-7.5,161-38,182.9-144
		C899.3,478.4,856.4,308.3,733.7,220.6z"/>
	<path class="st1" d="M233.8,166.9c0,0-122.9-41.8-118.8,7.9C93.7,138,117,60.8,233.8,166.9z"/>
	<path class="st1" d="M770.9,164.7c0,0,122.9-41.8,118.8,7.9C911,135.8,887.8,58.6,770.9,164.7z"/>
	<path class="st11" d="M255.2,181.9c-8.3-3.8-70.7-29.8-132,14.1c-32.9,21.1-37.1,49.1-27.1,70.3c-4.4-6-7.1-13.1-7.7-20.8
		c-0.9-12.4,3.3-36.5,41.2-58.8C179.3,157.5,224.8,167.5,255.2,181.9z"/>
	<path class="st11" d="M746.8,181c8.3-3.8,70.7-29.8,132,14.1c32.9,21.1,37.1,49.1,27.1,70.3c4.4-6,7.1-13.1,7.7-20.8
		c0.9-12.4-3.3-36.5-41.2-58.8C822.7,156.6,777.2,166.6,746.8,181z"/>
	<path class="st11" d="M804,88.6c-7.9-21.2-40.4-32.7-66.8-15.2c-26,17.2-42,76.2-42.5,78.1c6.8-35.2,23-88.1,60-90.9
		c23.8-1.8,40.7,6.5,47.7,23.5C803.1,85.5,803.6,87,804,88.6z"/>
	<path class="st11" d="M303.3,136.4C289.6,86,263,60.8,231.2,66c-31,5.1-35.3,35-35.4,36.2c-0.3-6.2,0.7-12.5,3.1-18.2
		c7-17,23.9-25.3,47.7-23.5C278.6,63,295.1,102.9,303.3,136.4z"/>
	<path class="st11" d="M676.8,93.5c-35.8-60.8-84.2-45.3-85.7-44.8l0,0l8-3.8c8.2-2.5,18.6-2.1,30.6,1.4
		C655.2,53.9,669.4,72,676.8,93.5z"/>
	<path class="st11" d="M407,46.8c-54.2-5.9-78.4,37.1-79.1,38.4v0c8.1-17.8,21.7-32.2,43.8-38.7C386.1,42.2,398.3,42.4,407,46.8z"/>
	<path class="st11" d="M412.8,647.3c0,0,67-37.8,158.2,0C539.1,632.1,487.6,601.9,412.8,647.3z"/>
	<path class="st11" d="M571.1,161.5v0.4c-5.2-13.8-19.3-46.2-73.5-47.8c-53.3-1.5-71.1,46.3-71.6,47.7
		c8.6-53.5,79.2-71.6,119.7-40.9C559,130.7,568.4,145,571.1,161.5z"/>
	<g>
		<path class="st2" d="M585.4,279.7c0,21.8-8.3,42.1-19.8,59.3c-37.3,4.5-91.7,4.4-131.2-1.5c-11.2-16.9-19.2-36.6-19.2-57.8
			c0-61.8,38.1-111.8,85.1-111.8C547.3,167.9,585.4,217.9,585.4,279.7z"/>
		<path class="st5" d="M575.5,288.2c0,18.8-7.3,36.4-17.5,51.2c-33,3.9-81.1,3.8-116-1.3c-9.9-14.6-17-31.6-17-49.9
			c0-53.4,33.7-96.6,75.3-96.6C541.8,191.5,575.5,234.8,575.5,288.2z"/>
		<path class="st1" d="M563.9,291.2c0,14.2-3.6,27.4-9.8,38.6c-11.3,20.2-31.2,33.6-53.8,33.6c-21.2,0-40-11.8-51.6-29.9
			c-7.6-11.9-12-26.5-12-42.3c0-39.9,28.5-72.2,63.7-72.2C535.4,219,563.9,251.3,563.9,291.2z"/>
		<path class="st6" d="M554.1,329.8c-11.3,20.2-31.2,33.6-53.8,33.6c-21.2,0-40-11.8-51.6-29.9c3.1-37.5,25.6-66.7,52.9-66.7
			C527.9,266.8,549.8,294,554.1,329.8z"/>
		<path class="st1" d="M576.7,341.4c-8.5,5.6-20.6,12.5-35.2,17.7c-13.3,4.7-28.6,8-45.1,7.7c-13.4-0.3-25.7-3.2-36.3-7.3
			c-14.9-5.7-26.7-13.7-33.9-19.4c-2.3-1.8-0.2-4.9,2.9-4.3c4,0.8,8.3,1.6,12.8,2.2c34.9,5.1,83.1,5.2,116,1.3
			c5.8-0.7,11.2-1.5,16-2.4C577.2,336.3,579.3,339.7,576.7,341.4z"/>
		<ellipse class="st4" cx="477.6" cy="268.8" rx="25.8" ry="32.1"/>
		<ellipse class="st7" cx="529" cy="325.7" rx="12.3" ry="13"/>
		<path class="st5" d="M430.1,343.1c0,0,29,32.4,65.8,33.1c36.9,0.7,76.4-32,76.4-32S454.8,350,430.1,343.1z"/>
	</g>
	<path class="st1" d="M474,677.2c-1.4,0-2.5-1.1-2.5-2.5V638c0-1.4,1.1-2.5,2.5-2.5s2.5,1.1,2.5,2.5v36.6
		C476.5,676,475.4,677.2,474,677.2z"/>
	<path class="st1" d="M495.3,674.9c-1.4,0-2.5-1.1-2.5-2.5v-36.6c0-1.4,1.1-2.5,2.5-2.5c1.4,0,2.5,1.1,2.5,2.5v36.6
		C497.9,673.8,496.7,674.9,495.3,674.9z"/>
	<path class="st12" d="M180.2,1024c-1.6-23-7.8-109.3-8-122.2c-0.2-14.9-10.3,4.1-10.3,4.1s1,75.3,3.7,118.1H180.2z"/>
	<path class="st12" d="M837.3,1024c1.2-21.8,5.2-100.1,4.3-116.2c-1.1-18.7-10.1,2.2-10.1,2.2s-2,84.4-6.1,114H837.3z"/>
	<path class="st2" d="M91.7,802.5C64.3,875.4,54.7,996.6,52.9,1024H8.6c1.9-103.6,42.9-220.9,43.5-222.6c0-0.1,0.1-0.2,0.1-0.3
		c0.9-3.4,1.9-6.7,3-10.1C61.1,788.8,80.9,783.6,91.7,802.5z"/>
	<path class="st2" d="M1015.3,1024h-50.8c-10.8-96-38.4-187.5-38.4-187.5s15-33.2,28.2-42.8c1.6,3.4,3.3,7,4.9,10.9
		C985,873.1,1003.8,946.8,1015.3,1024z"/>
	<path class="st2" d="M1019.5,1024h-4.1c-11.5-77.2-30.4-150.9-56.1-219.4"/>
	<path class="st5" d="M190.5,785.6c0,0-0.2,1-0.3,2.6c-1,10.2-1.3,46.3,43.3,35.7c-26.4,48.1-21.9,187.2,160.7,200
		c-63.7,0-223,0-223,0l-0.2-161.1L190.5,785.6z"/>
	<path class="st5" d="M801.5,788.8c0,0,18.3,32.1-37.9,43.5c36.8,68.3,40.6,172-94.3,191.6c55.9,0,164.4,0,164.4,0
		S857.4,834.5,801.5,788.8z"/>
</g>
</svg>
