<?xml version="1.0" encoding="utf-8"?>
<!-- Generator: Adobe Illustrator 26.1.0, SVG Export Plug-In . SVG Version: 6.00 Build 0)  -->
<svg version="1.1" id="Слой_1" xmlns="http://www.w3.org/2000/svg" xmlns:xlink="http://www.w3.org/1999/xlink" x="0px" y="0px"
	 viewBox="0 0 1024 1024" style="enable-background:new 0 0 1024 1024;" xml:space="preserve">
<style type="text/css">
	.st0{fill:#90C63E;}
	.st1{opacity:0.34;fill:#3F2401;}
	.st2{fill:#4C2205;}
	.st3{fill:#FF5D64;}
	.st4{fill:#F1EBDF;}
	.st5{fill:#DBF4B0;}
	.st6{fill:#6DA311;}
	.st7{fill:#4E7208;}
	.st8{opacity:0.5;fill:#3F2401;}
	.st9{fill:#541513;}
	.st10{opacity:0.26;fill:#3F2401;}
	.st11{fill:#D2E48E;}
	.st12{opacity:0.32;fill:#3F2401;}
	.st13{opacity:0.31;fill:#3F2401;}
	.st14{opacity:0.29;fill:#3F2401;}
	.st15{fill:#3F2401;}
	.st16{fill:#FFFFFF;}
	.st17{opacity:0.42;fill:#FFFFFF;}
</style>
<g>
	<path class="st0" d="M839.2,127.6c-55-13.6-104.5-4.4-110.6,20.5c-0.4,1.8-0.6,3.7-0.6,5.6c-2.5,29.5,4.4,49.6,4.4,49.6
		c0.7,2.5,1.8,5.1,3.4,7.6c1.6,2.5,3.6,5.1,6,7.6c0,0,5.7,8.6,5.7,17.8c0,4.6-1.4,9.3-5.7,13.2c-9.1-9.2-18.8-17.8-29-25.8
		c-21.6-16.9-45.8-31-71.9-41.9c-1.4-0.6-2.7-1.1-4.1-1.7c-37.4-15-78.6-23.3-121.8-23.3c-39,0-76.3,6.7-110.6,19
		c-24.8,8.9-48.1,20.7-69.3,34.9c-16.7,11.2-32.2,23.9-46.2,38c-11.5-11.6,0.8-30.2,0.8-30.2c2.4-2.5,4.4-5.1,6-7.6
		c1.6-2.5,2.7-5.1,3.4-7.6h0c0,0,6.9-20.1,4.4-49.6c0-1.9-0.1-3.8-0.6-5.6c-6.1-24.9-55.6-34-110.6-20.5
		c-55,13.6-94.7,44.7-88.6,69.6c0.3,1.1,0.6,2.1,1.1,3.1h0c0,0,0,0.1,0.1,0.1c1.5,3.6,4.1,6.9,7.5,9.7c6.8,8.1,18.3,20.2,35.1,33.3
		c0.5,0.4,1.1,0.9,1.6,1.3c0.1,0.1,0.1,0.1,0.2,0.2h0c4.5,3.1,10.4,5.5,17.5,7.2c47.2,11.2,69.6,52.7,74,60.5
		c-5.2,9.4-9.9,19.1-14,29.1c-9.5,23.2-15.9,47.8-18.6,73.5c-0.5,5.1-1,10.3-1.2,15.5c0,0-1.2,1.3-2.3,7.7c-0.4,2.3-0.7,5.1-1,8.8
		c-9.4,2.5-44.6,15-42.1,66.2c0.1,3,0.4,6,0.8,9.2c0.8,6.7,2.2,13.4,3.8,19.9c4.8,18.4,12.6,35.9,21,51.2
		c14.8,26.7,31.5,46.9,38,54.3c2.9,17.1,6.2,35.7,9.8,55.6c10.5,57.4,24.4,126.8,42.5,210.7l8.1,38.2l11,71.1h457.8l7.7-77.7
		c0.6-4.5,1.1-8.3,1.4-11c0.3-2.7,0.5-4.2,0.5-4.2S781.7,835,798,723.3c3.9-26.5,7.6-53.8,11-81c6-7.3,14.8-18.6,23.8-32.8
		c14.8-23.4,30.2-54.3,34.2-86.8c0.8-6.1,1-11.8,0.9-17c-0.2-8.6-1.6-16-3.8-22.4c-9.8-29-35.5-35.6-40.1-36.5
		c-0.1-4.6-0.2-8.9-0.5-13.1c-0.4-7.5-1-14.3-1.9-20.3c0,0,0-0.1,0-0.2c-4.1-35.5-15-69.1-31.7-99.5c0.4,0,4.5-9.1,13.4-20.4
		c11.7-15.1,31.6-34.3,61.4-41.4c7.1-1.6,13-4,17.5-7.2c0,0,0,0,0,0c0.1-0.1,0.1-0.1,0.2-0.2c0.6-0.4,1.1-0.8,1.6-1.3
		c16.8-13,28.3-25.2,35.1-33.3c3.4-2.8,5.9-6.1,7.5-9.7c0-0.1,0.1-0.1,0.1-0.1h0c0.4-1,0.8-2.1,1.1-3.1
		C933.9,172.3,894.2,141.2,839.2,127.6z"/>
	<path class="st1" d="M732.8,670.9c-8.8,16.4-19.6,33.1-32.5,49.8c-3,3.9-6.2,7.8-9.5,11.8c-29.1,34.2-71.9,70.6-123.4,85.6
		c-12.5,3.7-25.6,6-39.1,6.8c-33.7,1.9-70.2-6.2-108.4-29.7c-6.9-4.2-13.8-8.9-20.8-14.2c-23.1-17.4-46.8-40.6-70.7-70.7
		c-8.7-11-17.5-22.8-26.2-35.7c-0.9-1.4-1.9-2.8-2.8-4.3c-19-30.5-37.6-88-19.8-131.3c1.5-3.7,3.8-7,6.7-10
		c21.1-21.9,75.8-26.4,124.6-27c8.3-0.1,16.4-0.1,24.1-0.1c17.2,0.1,32.6,0.5,44.1,0.3c5.9-0.1,13.6-0.3,22.7-0.6
		c6-0.2,12.5-0.4,19.5-0.6c28.1-0.8,63.4-1.6,97.8-1c3.5,0.1,7,0.1,10.4,0.2c45.1,1.2,87.2,5.1,107.4,15c2.7,1.3,4.9,2.7,6.8,4.2
		C771.1,542,769.3,603.1,732.8,670.9z"/>
	<path class="st2" d="M732.8,653.6c-8.8,14.7-19.6,29.8-32.5,44.8c-3,3.5-6.2,7-9.5,10.6c-29.1,30.8-71.9,63.5-123.4,77
		c-12.5,3.3-25.6,5.4-39.1,6.1c-33.7,1.7-70.2-5.6-108.4-26.7c-6.9-3.8-13.8-8-20.8-12.8c-23.1-15.6-46.8-36.5-70.7-63.6
		c-8.7-9.9-17.5-20.5-26.2-32.1c-0.9-1.2-1.9-2.5-2.8-3.9c-19-27.4-37.6-79.1-19.8-118.1c1.5-3.3,3.8-6.3,6.7-9
		c21.1-19.7,75.8-23.8,124.6-24.3c8.3-0.1,16.4-0.1,24.1-0.1c17.2,0.1,32.6,0.4,44.1,0.3c5.9-0.1,13.6-0.3,22.7-0.5
		c6-0.2,12.5-0.3,19.5-0.5c28.1-0.7,63.4-1.5,97.8-0.9c3.5,0.1,7,0.1,10.4,0.2c45.1,1.1,87.2,4.6,107.4,13.5
		c2.7,1.2,4.9,2.5,6.8,3.8C771.1,537.8,769.3,592.7,732.8,653.6z"/>
	<path class="st3" d="M701.4,687.2c-7.3,11.5-16.4,23.3-27.2,35.1c-2.5,2.7-5.2,5.5-8,8.3c-24.3,24.1-60.1,49.8-103.1,60.3
		c-10.5,2.6-21.4,4.2-32.7,4.8c-28.2,1.3-58.7-4.4-90.6-21c-5.8-3-11.5-6.3-17.4-10c-19.3-12.3-39.1-28.6-59.1-49.9
		c-7.3-7.7-14.6-16.1-21.9-25.2c-0.8-1-1.6-2-2.4-3.1c19.9-18.1,67.8-46.4,152.9-10.1C571.7,633.8,679.5,618.6,701.4,687.2z"/>
	<path class="st4" d="M415.2,527.2c0,39.1-28.9,70.7-64.5,70.7c-35.6,0-64.5-31.7-64.5-70.7c0-0.5,0-0.9,0-1.3
		c21.1-19.7,75.9-23.8,124.6-24.3C413.6,509.5,415.2,518.2,415.2,527.2z"/>
	<path class="st4" d="M502.7,510.7c0,20.8-15.4,37.7-34.4,37.7c-19,0-34.4-16.9-34.4-37.7c0-3.1,0.4-6.2,1-9.1
		c17.2,0.1,32.6,0.4,44.1,0.3c5.9-0.1,13.6-0.3,22.7-0.5C502.3,504.3,502.7,507.4,502.7,510.7z"/>
	<path class="st4" d="M619.9,510.7c0,30.2-22.3,54.6-49.8,54.6s-49.8-24.5-49.8-54.6c0-3.4,0.3-6.7,0.8-9.9
		c28.1-0.7,63.4-1.4,97.9-0.9C619.6,503.4,619.9,507,619.9,510.7z"/>
	<path class="st4" d="M737.3,522.3c0,33.8-25,61.2-55.9,61.2c-30.9,0-55.9-27.4-55.9-61.2c0-7.8,1.3-15.3,3.8-22.2
		c45.1,1.1,87.2,4.6,107.4,13.5C737.1,516.4,737.3,519.3,737.3,522.3z"/>
	<path class="st4" d="M531.2,772.3c0,6.9-1,13.6-3,19.8c-33.7,1.7-70.2-5.6-108.4-26.7c3.1-30.6,26.8-54.3,55.5-54.3
		C506.2,711,531.2,738.4,531.2,772.3z"/>
	<path class="st4" d="M690.7,709c-29.1,30.8-71.9,63.5-123.4,77c-9.2-12.3-14.7-27.5-14.7-44.1c0-28.7,16.4-53.5,40.3-65.5
		c9.8-5,20.9-7.8,32.7-7.8c27.2,0,51,15,63.5,37.3C689.7,706.9,690.2,707.9,690.7,709z"/>
	<path class="st4" d="M415.1,716.6c0,14.3-6.2,27.2-16.1,36c-23.1-15.6-46.8-36.5-70.7-63.6c5.2-7.4,12.3-13.2,20.7-16.7
		c5.6-2.4,11.8-3.7,18.4-3.7c18.6,0,34.7,10.7,42.5,26.2C413.3,701.3,415.1,708.7,415.1,716.6z"/>
	<path class="st5" d="M518.9,792.1c-34.1,0-68.1-9.2-101.1-27.5c-7.1-3.9-14.2-8.3-21.1-13c-24.2-16.4-48.3-38-71.5-64.3
		c-8.9-10.1-17.8-20.9-26.4-32.3c-19.5-25.7-43-82.7-23.1-126.3c1.7-3.7,4.3-7.2,7.6-10.3c23.3-21.8,83.9-24.9,127.4-25.4
		c8.3-0.1,16.5-0.1,24.2,0c5.6,0,11.1,0.1,16.3,0.2c10.8,0.1,20.1,0.2,27.7,0.1c5.8-0.1,13.2-0.3,22.6-0.5l19.5-0.5
		c29.6-0.7,64.4-1.4,98-0.9c3.5,0,7,0.1,10.4,0.2c55.2,1.3,90.9,5.8,109,13.8c3,1.3,5.5,2.7,7.6,4.3c11.2,8.3,18.1,21.8,20.1,39.1
		c4.6,41.1-19.4,97.9-62.6,148c-3.1,3.6-6.3,7.2-9.7,10.7c-21.3,22.5-65.8,62.6-125.4,78.1c-13.2,3.5-26.7,5.6-40,6.2
		C525.2,792.1,522.1,792.1,518.9,792.1z M424.7,501.4c-4.5,0-9.2,0-13.9,0.1c-24.3,0.3-98.2,1.1-121.8,23.2c-2.6,2.4-4.5,5-5.7,7.7
		c-18.4,40.3,3.8,93.6,22.1,117.7c8.5,11.2,17.3,21.9,26,31.8c22.8,25.8,46.3,46.9,69.9,62.9c6.7,4.5,13.5,8.8,20.5,12.6
		c34.7,19.2,70.4,28,106.2,26.2c12.7-0.7,25.6-2.7,38.3-6c57.5-15,100.8-53.9,121.4-75.8c3.3-3.4,6.4-7,9.4-10.4c0,0,0,0,0,0
		c41.7-48.5,64.9-102.7,60.6-141.6c-1.7-14.9-7.4-26.4-16.7-33.3c-1.6-1.2-3.6-2.3-6-3.4c-16.8-7.4-52.4-11.9-105.8-13.1
		c-3.4-0.1-6.9-0.2-10.4-0.2c-33.5-0.5-68.2,0.2-97.7,0.9l-19.5,0.5c-9.4,0.2-16.9,0.4-22.7,0.5c-7.8,0.1-17.1,0-27.9-0.1
		c-5.2-0.1-10.6-0.1-16.2-0.2C431.6,501.4,428.2,501.4,424.7,501.4z"/>
	<path class="st2" d="M518.9,796.5c-34.1,0-68.1-9.2-101.1-27.5c-7.1-3.9-14.2-8.3-21.1-13c-24.2-16.4-48.3-38-71.5-64.3
		c-8.9-10.1-17.8-20.9-26.4-32.3c-19.5-25.7-43-82.7-23.1-126.3c1.7-3.7,4.3-7.2,7.6-10.3c23.3-21.8,83.9-24.9,127.4-25.4
		c8.3-0.1,16.5-0.1,24.2,0c5.6,0,11.1,0.1,16.3,0.2c10.8,0.1,20.1,0.2,27.7,0.1c5.8-0.1,13.2-0.3,22.6-0.5l19.5-0.5
		c29.6-0.7,64.4-1.4,98-0.9c3.5,0,7,0.1,10.4,0.2c55.2,1.3,90.9,5.8,109,13.8c3,1.3,5.5,2.7,7.6,4.3c11.2,8.3,18.1,21.8,20.1,39.1
		c4.6,41.1-19.4,97.9-62.6,148c-3.1,3.6-6.3,7.2-9.7,10.7c-21.3,22.5-65.8,62.6-125.4,78.1c-13.2,3.5-26.7,5.6-40,6.2
		C525.2,796.4,522.1,796.5,518.9,796.5z M424.7,505.7c-4.5,0-9.2,0-13.9,0.1c-24.3,0.3-98.2,1.1-121.8,23.2c-2.6,2.4-4.5,5-5.7,7.7
		c-18.4,40.3,3.8,93.6,22.1,117.7c8.5,11.2,17.3,21.9,26,31.8c22.8,25.8,46.3,46.9,69.9,62.9c6.7,4.5,13.5,8.8,20.5,12.6
		c34.7,19.2,70.4,28,106.2,26.2c12.7-0.7,25.6-2.7,38.3-6c57.5-15,100.8-53.9,121.4-75.8c3.3-3.4,6.4-7,9.4-10.4c0,0,0,0,0,0
		c41.7-48.5,64.9-102.7,60.6-141.6c-1.7-14.9-7.4-26.4-16.7-33.3c-1.6-1.2-3.6-2.3-6-3.4c-16.8-7.4-52.4-11.9-105.8-13.1
		c-3.4-0.1-6.9-0.2-10.4-0.2c-33.5-0.5-68.2,0.2-97.7,0.9l-19.5,0.5c-9.4,0.2-16.9,0.4-22.7,0.5c-7.8,0.1-17.1,0-27.9-0.1
		c-5.2-0.1-10.6-0.1-16.2-0.2C431.6,505.7,428.2,505.7,424.7,505.7z"/>
	<path class="st5" d="M915.6,189c-0.7,3.2-3.9,5.5-9.1,7.1c-15.1,4.5-46.7,2.2-82.1-6.9c-38.4-9.9-69.4-24.8-78.4-36.6
		c-2.2-2.8-3.1-5.5-2.5-7.9c2.8-12.3,44.8-17.8,92.3-5.6C883.3,151.3,918.4,176.6,915.6,189z"/>
	<path class="st6" d="M908.4,183.6c-0.7,2.7-3.6,4.8-8.4,6.2c-13.8,3.9-42.8,1.9-75.2-6c-35.2-8.6-63.6-21.5-71.9-31.9
		c-2-2.5-2.8-4.8-2.3-6.9c2.6-10.7,41.1-15.5,84.7-4.8C878.8,150.8,911,172.8,908.4,183.6z"/>
	<path class="st7" d="M900,189.7c-13.8,3.9-42.8,1.9-75.2-6c-35.2-8.6-63.6-21.5-71.9-31.9c14-5.3,43.7-6,76.3,2
		C864.2,162.4,891.8,178.2,900,189.7z"/>
	<path class="st5" d="M288.2,152.2c-9.5,12.2-41.3,27.1-80.4,36.7c-38.1,9.4-71.9,11-86.1,5.1c-3.9-1.6-6.3-3.8-6.9-6.6
		c-2.7-12.8,33.3-38.5,82-50.5c48.6-12,91.5-5.8,94.2,7.1C291.6,146.4,290.6,149.2,288.2,152.2z"/>
	<path class="st6" d="M277.5,150.1c-8.3,10.4-36.6,23.4-71.6,32.2c-34.1,8.5-64.5,10.5-77.3,5.8c-3.5-1.3-5.7-3.1-6.3-5.4
		c-2.6-10.7,29.2-32.9,72.8-43.8c43.5-10.9,82.2-6.4,84.9,4.3C280.4,145.2,279.5,147.6,277.5,150.1z"/>
	<path class="st7" d="M277.5,150.1c-8.3,10.4-36.6,23.4-71.6,32.2c-34.1,8.5-64.5,10.5-77.3,5.8c8.1-11.5,35.5-27.5,70.5-36.3
		C233.2,143.2,264.3,144.1,277.5,150.1z"/>
	<path class="st8" d="M900,189.7c-13.8,3.9-42.8,1.9-75.2-6c-35.2-8.6-63.6-21.5-71.9-31.9c14-5.3,43.7-6,76.3,2
		C864.2,162.4,891.8,178.2,900,189.7z"/>
	<path class="st8" d="M277.5,150.1c-8.3,10.4-36.6,23.4-71.6,32.2c-34.1,8.5-64.5,10.5-77.3,5.8c8.1-11.5,35.5-27.5,70.5-36.3
		C233.2,143.2,264.3,144.1,277.5,150.1z"/>
	<path class="st2" d="M109.1,197.6c0.3,0.4,1.1,1.1,1.4,1.4c6.1,5.1,13.9,7.7,21.7,9.1c12.8,2.4,26.3,1.4,39.1-0.5
		c6.6-1,15.7-3.1,22.3-4.8c-6.5,2.3-15.3,5.2-21.8,6.8c-11.1,2.8-22.9,4.7-34.4,4.5c-9-0.2-18-1.7-26.3-5.5
		c-3.2-1.7-5.9-3.1-8.5-5.9C98.5,198.2,105.6,192.6,109.1,197.6L109.1,197.6z"/>
	<path class="st2" d="M306.1,142.2c1.5,5.7-0.5,11.2-3.6,15.8c-0.7,1.2-2.2,2.7-3.1,3.8c-9.9,9.9-22.7,14.6-35.6,18.7
		c-2.9,1-9.7,2.6-12.7,3.4c2.9-1.2,9.5-3.6,12.2-4.9c11.4-5.1,23.7-11.4,31.4-21.3c0.6-0.9,1.7-2.3,2.1-3.3c1.5-2.7,2.5-6.7,1.6-9.3
		C296.5,139.9,304,137,306.1,142.2L306.1,142.2z"/>
	<path class="st2" d="M732.9,145.5c-0.4,3.5,1.5,7.8,3.3,11c6.1,9.5,15.8,16.6,25.5,22.3c4.2,2.5,10.3,5.5,14.7,7.6
		c0,0-7.9-2.7-7.9-2.7c-13.3-5-26.4-11-36.2-21.8c-3.7-4.1-6.6-9-7.6-14.6c-0.1-1-0.3-1.6-0.1-3.1c0.3-2.3,2.4-3.9,4.7-3.5
		C731.7,141,733.2,143.2,732.9,145.5L732.9,145.5z"/>
	<path class="st2" d="M932.1,195.3c-3.3,6.3-9.6,9.7-16,11.9c-14.3,4.5-29.2,3.2-43.6,0.8c0,0-8.5-1.6-8.5-1.6
		c5.1,0.4,12.1,0.9,17.1,0.8c12.2-0.1,25.5-1.3,36.1-7.7c2.8-1.7,5.9-4.3,7-7.1C926.4,187.2,933.9,190.1,932.1,195.3L932.1,195.3z"
		/>
	<path class="st2" d="M223.5,637.3l42,52.4l-48.1-46.8C213.3,638.7,219.7,632.8,223.5,637.3L223.5,637.3z"/>
	<path class="st2" d="M818.7,634.1c-20.6,20.4-41.1,41.1-63,60.1c5.1-5.2,9.9-10.6,14.7-16c14.4-16.3,28.3-33,42.1-49.7
		C816.4,624.1,822.7,629.9,818.7,634.1L818.7,634.1z"/>
	<path class="st2" d="M198,445.2c7.1-2.2,14.3-2.6,21.7-2.7c17.5,0,34.5,3.6,51.2,8.5l9.8,3.1l-10.1-2.1c-16.6-3-33.8-4.9-50.6-3.2
		c-6.3,0.7-12.9,1.7-18.8,4.1C195.8,455.4,192.4,447.3,198,445.2L198,445.2z"/>
	<path class="st2" d="M828.2,452.5c-20.4-6.7-42.6-5.6-63.5-2c-3.1,0.6-6.1,1.3-9.2,1.9c3-1,5.9-2,8.9-2.9
		c18.3-5.4,37.4-8.4,56.5-6.5c3.4,0.4,6.6,0.8,9.9,1.7C836.4,446.3,833.6,454.6,828.2,452.5L828.2,452.5z"/>
	<path class="st2" d="M744.2,246.5l15.5,23l-21.6-17.4C733.3,247.9,740.4,241.3,744.2,246.5L744.2,246.5z"/>
	<path class="st2" d="M786.5,316.2l-16.8-31.9l23.7,27.2C797.3,316.3,789.7,321.5,786.5,316.2L786.5,316.2z"/>
	<path class="st2" d="M293.5,250.1l-22.7,19.7l16.4-25.2C290.9,239.4,298.1,245.7,293.5,250.1L293.5,250.1z"/>
	<path class="st2" d="M235.1,313l23.6-28.1L242,317.7C238.9,323.1,231.3,318,235.1,313L235.1,313z"/>
	<path class="st2" d="M572.6,182c-18.5,0-37,0.1-55.5,0.7c18.4-1.8,36.9-2.9,55.4-4.1C574.7,178.5,574.9,181.9,572.6,182L572.6,182z
		"/>
	<path class="st2" d="M164.2,246.6c17,2.3,34.7,1.5,51.7-1.4c-12.6,4.3-25.6,7.3-38.8,8.8c-4.5,0.5-8.8,0.9-13.6,1
		c-2.3,0-4.2-1.8-4.2-4.2C159.3,248.2,161.7,246.1,164.2,246.6L164.2,246.6z"/>
	<path class="st2" d="M297.2,214.6c-11.9,9.9-26.9,14.8-41.6,18.2c0,0,5.1-2.3,5.1-2.3c11.1-5.4,22.4-12,30.4-21.6
		C294.8,203.9,301.8,210.2,297.2,214.6L297.2,214.6z"/>
	<path class="st2" d="M741.5,210.4c9.5,10.2,20.7,19.3,33,25.9c-3.4-1.1-6.8-2.2-10.1-3.6c-10.1-4.3-19.6-9.6-28.5-16.1
		c-1.9-1.4-2.3-4-0.9-5.9C736.5,208.5,739.7,208.4,741.5,210.4L741.5,210.4z"/>
	<path class="st2" d="M863.7,255.1c-20,0.9-40.1-1.8-58.6-9.5c14.1,3.7,28.9,4.4,43.3,3.1c4.8-0.4,9.7-1.1,14.2-2
		C868.4,245.9,869.6,254.5,863.7,255.1L863.7,255.1z"/>
	<path class="st9" d="M502.7,671.2c0,0-25.1,16.1-27.2,23.2c3.1-15-4.8-25.8-4.8-25.8L502.7,671.2z"/>
	<path class="st10" d="M292.4,557.6c0,0,48.1-56.9,121.4-15.8c9.1-22.8,1.4-37.9,1.4-37.9s-105-8.2-133.2,26.8
		C280.7,543.1,292.4,557.6,292.4,557.6z"/>
	<path class="st10" d="M435.8,523.2c0,0,29.3-20.7,64.9,0c11.4-10.2,10.7-20.2,10.7-20.2l-82.9-1.5L435.8,523.2z"/>
	<path class="st10" d="M520.9,519.7c0,0,42.1-21.9,98.3,0c5.3-15.5,2.5-18.3,2.5-18.3L513,500.1L520.9,519.7z"/>
	<path class="st10" d="M625.6,519.7c0,0,70-13.3,108.8,22.2c11.7-3.1,11.3-24.6,11.3-24.6s-71.3-25.6-120.1-17.5
		C619.9,510.7,625.6,519.7,625.6,519.7z"/>
	<path class="st11" d="M283.8,919.5l2.2,10.2l16.1,94h447.4c4-36.6,9.5-93.9,9.5-94.1c0-0.1,0-0.2,0-0.3c0-0.2,0.4-2.4,1.2-6.3
		c0.3-1.8,0.7-3.9,1.1-6.4c5.3-29.2,18.7-105.2,31.2-190.7c-0.8,0.4-1.6,0.8-2.5,1.2c-41.4,36.4-80.2,64.9-116.4,86.9
		c-19.8,12-38.7,22.1-57,30.3c-2.5,1.1-4.9,2.2-7.3,3.3c-32.8,14.2-63.2,22.6-91.2,26.5c-56.6,7.8-103.5-3-141.7-22.7
		c-34.9-18-62.6-43.2-83.7-68.2c-36.9-43.8-53.7-86.8-54.2-88.1c11.5,63.3,26.2,136.2,43.8,217.7L283.8,919.5z"/>
	<path class="st2" d="M479.4,879.3c-41.4,0-79.5-10.5-115.8-31.9c-95.4-56.3-131-160.4-131.3-161.4c-0.4-1.3,0.3-2.7,1.6-3.2
		c1.3-0.4,2.7,0.3,3.2,1.6c0.3,1,35.3,103.4,129.1,158.7c99,58.4,197.8,24.1,272.9-12.2c80.9-39.1,157.2-113.8,158-114.5
		c1-1,2.6-1,3.5,0c1,1,0.9,2.6,0,3.6c-0.8,0.8-77.7,76-159.3,115.5c-50.6,24.5-92.9,37.9-133.4,42.4
		C498.2,878.7,488.7,879.3,479.4,879.3z"/>
	<path class="st2" d="M486.2,946.1c-39.7,0-77.6-11.1-115.7-33.8c-90.9-54.3-114.8-93.6-115.8-95.2c-0.7-1.1-0.3-2.5,0.8-3.2
		c1.1-0.7,2.5-0.3,3.2,0.8c0.2,0.4,24.5,40,114.2,93.6c87.8,52.5,163.4,37,256.9-4.9c75.1-33.7,149.3-81.4,150.1-81.9
		c1.1-0.7,2.5-0.4,3.2,0.7c0.7,1.1,0.4,2.5-0.7,3.2c-0.7,0.5-75.2,48.4-150.7,82.2c-53.9,24.2-95,36-133.2,38.1
		C494.4,946,490.3,946.1,486.2,946.1z"/>
	<path class="st2" d="M373,994.4c14.2,9.2,28.1,16.4,42.1,21.8c-6.6-1.1-13.3-2.3-19.9-3.7c-8.2-4.1-16.4-8.8-24.7-14.2
		c-47.8-31.1-72.3-54.3-84.6-68.5c-9-10.5-11.5-16.2-11.7-16.7c-0.5-1.2,0.1-2.6,1.3-3c1.2-0.5,2.5,0.1,3,1.3c0,0.1,1.3,2.9,5.2,8.3
		c2.6,3.5,6.3,8,11.6,13.6C308.8,947.2,332.4,967.9,373,994.4z"/>
	<path class="st2" d="M531.4,1023.8c8.1-0.3,13,0.6,21,0c24.2-7,52.7-18.2,79.3-30.1c59.7-26.8,109.7-58.3,128.4-70.6
		c4.9-3.2,7.7-5.1,7.8-5.2c1-0.7,1.3-2.2,0.6-3.2c-0.7-1.1-2.2-1.3-3.2-0.6c-0.1,0.1-1.5,1-4,2.7c-14.6,9.8-67.5,44-131.4,72.7
		c-35.2,15.8-67.7,27.9-98.9,34.4H531.4z"/>
	<path class="st12" d="M685.1,148.3l-184.3,33.2c0,0,92.3-1.7,139.3-8C687.2,167.2,691,155.1,685.1,148.3z"/>
	<path class="st13" d="M238.6,723.3c0,0,68,161.3,225.4,167.3c157.4,6,311.8-120.7,331.2-153c3.6-19.7-0.3-13.4-9.5-6.7
		s-106.2,96-205,127.9c-98.8,31.9-189.6,23.3-272.1-57.9c-51.7-43.6-70-105.8-70-105.8S233.7,713.1,238.6,723.3z"/>
	<path class="st10" d="M350,671.8c0,0,0,41.9,61.2,63.8c-3.5,6.6-7.4,15.1-13.5,16c-6.3,0.7-62.9-54.8-62.9-54.8l-3.4-10.6
		C331.4,686.2,334.3,676.6,350,671.8z"/>
	<path class="st10" d="M426.2,743.1c0,0,34.8,44.5,104.8,23.9c0,10.1,0.2,20.7-2.8,25c-31.5-2.9-95.8-11.3-107.8-31.2
		C422.4,752.8,424.7,745.9,426.2,743.1z"/>
	<path class="st10" d="M553,748.5c0,0,74.9,22.7,118.8-63.4c8.4,8.1,17.6,19.3,19,23.9c-8.9,14.9-77.1,75.6-123.4,77
		C562,777.8,554,769.1,553,748.5z"/>
	<path class="st13" d="M261.7,835.9c0,0,86.5,106.9,206.2,118.4c119.8,11.6,280.5-101.1,312.5-118.4c6.8-11.4-5.2-8.1-18-0.8
		c-12.7,7.3-143,87.9-231.6,104.2c-88.5,16.3-145.2-11.8-232.8-80.4c-24.5-22.7-37.9-36.5-39.4-33.3
		C257.2,828.8,261.7,835.9,261.7,835.9z"/>
	<path class="st13" d="M284.9,937.9c0,0,72.1,63.2,119.4,85.8c10.8,0,23.2,0,23.2,0s-77.1-27.3-148.6-103.1
		C277.7,922.2,284.9,937.9,284.9,937.9z"/>
	<path class="st13" d="M762.4,926.6c0,0-99.5,72.3-193.6,97.2c-11.5-0.1-21.4,0.2-21.4,0.2s152.5-54.8,217.9-110l-0.9,12.2
		L762.4,926.6z"/>
	<path class="st2" d="M706.2,869.7C706.1,869.7,706.1,869.7,706.2,869.7c-1.3,0-2.3-1.1-2.3-2.4l1.1-74.4c0-1.3,1.1-2.3,2.4-2.3
		c1.3,0,2.3,1.1,2.3,2.4l-1.1,74.4C708.5,868.7,707.4,869.7,706.2,869.7z"/>
	<path class="st2" d="M734.4,853.8c-1.3,0-2.3-1-2.3-2.3v-78.2c0-1.3,1-2.3,2.3-2.3s2.3,1,2.3,2.3v78.2
		C736.8,852.8,735.7,853.8,734.4,853.8z"/>
	<path class="st2" d="M316.2,957.5c-1.2,0-2.2-0.9-2.3-2.1l-7.3-86c-0.1-1.3,0.8-2.4,2.1-2.5c1.3-0.1,2.4,0.8,2.5,2.1l7.3,86
		c0.1,1.3-0.8,2.4-2.1,2.5C316.4,957.5,316.3,957.5,316.2,957.5z"/>
	<path class="st2" d="M649.9,983.7c-1.3,0-2.3-1-2.3-2.3v-84.7c0-1.3,1-2.3,2.3-2.3c1.3,0,2.3,1,2.3,2.3v84.7
		C652.2,982.6,651.2,983.7,649.9,983.7z"/>
	<path class="st1" d="M849.5,252.5c-13.8,10.4-43.2,35.3-58.1,59c-0.1,0.1-0.1,0.2-0.2,0.3c-0.4,0.7-0.8,1.3-1.2,2
		c-5.1-5.8-9.7-12.2-13.1-17.6c-4.4-6.9-7.1-12-7.1-12l-10-14.8l-20-20.9c0,0,15.3-10.7,4.6-31.4
		C744.3,217.2,784.1,252.2,849.5,252.5z"/>
	<path class="st1" d="M171.6,250c0,0,66.7-3.7,116.1-32.4c-4.5,13.7-2.4,28.1,1.2,31.1c-9,7.3-31.4,37.8-31.4,37.8l-16.8,26.1
		C240.6,312.5,211.5,254.4,171.6,250z"/>
	<path class="st8" d="M867,522.7c-4,32.5-19.4,63.4-34.2,86.8c-19.7-8.3-33.6-27.9-33.6-50.7c0-30.3,24.4-54.9,54.6-54.9
		c4.9,0,9.6,0.6,14.1,1.8C868,510.9,867.8,516.6,867,522.7z"/>
	<path class="st8" d="M864.1,483.4c-6,8.9-16.1,14.7-27.6,14.7c-18.4,0-33.3-15-33.3-33.5c0-7,2.1-13.5,5.8-18.8
		c5.2,0.2,10.1,0.6,15,1.1C828.5,447.8,854.2,454.4,864.1,483.4z"/>
	<ellipse class="st8" cx="787.9" cy="499.7" rx="15.3" ry="15.4"/>
	<path class="st8" d="M240.5,483c0,25.2-20.3,45.6-45.3,45.6c-13.4,0-25.4-5.8-33.7-15.1c-2.4-51.2,32.7-63.8,42.1-66.2
		c4.6,0.4,10.8-0.3,18.6-0.8C233.3,454.7,240.5,468,240.5,483z"/>
	<ellipse class="st8" cx="236.4" cy="544.9" rx="12" ry="12.1"/>
	<path class="st8" d="M212.3,565.3c0,14.7-11,26.8-25.2,28.5c-8.5-15.3-16.3-32.8-21-51.2c4.8-3.8,10.9-6.1,17.6-6.1
		C199.5,536.5,212.3,549.4,212.3,565.3z"/>
	<path class="st8" d="M383.1,825.1c0,9.6-2.4,18.6-6.7,26.4c-34.9-18-62.6-43.2-83.7-68.2c9.6-8.2,22-13.2,35.6-13.2
		C358.6,770,383.1,794.7,383.1,825.1z"/>
	<ellipse class="st8" cx="412.7" cy="827.6" rx="21.2" ry="21.3"/>
	<path class="st8" d="M609.3,847.7c-32.8,14.2-63.2,22.6-91.1,26.5c0.4-27.2,22.5-49.1,49.6-49.1
		C585.1,825.1,600.4,834.1,609.3,847.7z"/>
	<path class="st8" d="M673.6,814.1c-19.8,12-38.8,22.1-57,30.3c-1.1-3.3-1.7-6.8-1.7-10.5c0-18.1,14.6-32.8,32.7-32.8
		C658.2,801.2,667.6,806.2,673.6,814.1z"/>
	<path class="st8" d="M821.7,413.5c-7.7,3.4-16.2,5.3-25.2,5.3c-34.5,0-62.6-28.2-62.6-62.9c0-27.8,18-51.4,42.9-59.7
		c3.5,5.3,8,11.7,13.1,17.6c16.6,30.4,27.6,64,31.7,99.5C821.7,413.4,821.7,413.5,821.7,413.5z"/>
	<path class="st8" d="M268.1,381.3c0,21.9-17.7,39.7-39.5,39.7c-7.6,0-14.6-2.1-20.6-5.9c2.7-25.6,9.1-50.3,18.6-73.4
		c0.7,0,1.3-0.1,2-0.1C250.5,341.6,268.1,359.4,268.1,381.3z"/>
	<g>
		<path class="st14" d="M480.4,354.7c12.5,29.1,6.4,61-13.1,82.4c-1.3,1.4-2.7,2.8-4.1,4.2c-49.2-20.7-80.8-3.9-96.8,6.4
			c-1.9-1.3-3.7-2.6-5.4-4.1c-9.8-8-18-18.5-23.3-30.9c-17.2-40,0.9-85.4,40.2-101.4C417.4,295.3,463.3,314.7,480.4,354.7z"/>
		<g>
			
				<ellipse transform="matrix(0.9828 -0.1848 0.1848 0.9828 -62.2653 82.9641)" class="st15" cx="414" cy="375.6" rx="52.8" ry="56"/>
			<path class="st15" d="M465.1,442.1c-0.6-0.3-1.2-0.5-1.8-0.8c-49.2-20.7-80.8-3.9-96.8,6.4c-0.1,0.1-0.3,0.2-0.4,0.3
				c-2,1.3-5-1.7-5-4.3c0-0.6,0.2-1.2,0.5-1.7c28.9-38.8,75.7-44.9,105.3-5.5c0.2,0.2,0.3,0.5,0.4,0.7
				C468.9,439.9,467.6,443.2,465.1,442.1z"/>
			
				<ellipse transform="matrix(0.8973 -0.4415 0.4415 0.8973 -112.3495 227.2839)" class="st16" cx="432.2" cy="355" rx="18.5" ry="21.6"/>
			
				<ellipse transform="matrix(0.8973 -0.4415 0.4415 0.8973 -137.5898 212.7015)" class="st17" cx="388.2" cy="402" rx="8.7" ry="10.1"/>
		</g>
	</g>
	<g>
		<path class="st14" d="M542.3,354.7c-12.5,29.1-6.4,61,13.1,82.4c1.3,1.4,2.7,2.8,4.1,4.2c49.2-20.7,80.8-3.9,96.8,6.4
			c1.9-1.3,3.7-2.6,5.4-4.1c9.8-8,18-18.5,23.3-30.9c17.2-40-0.9-85.4-40.2-101.4C605.3,295.3,559.4,314.7,542.3,354.7z"/>
		<g>
			
				<ellipse transform="matrix(0.1848 -0.9828 0.9828 0.1848 127.0737 904.3716)" class="st15" cx="608.7" cy="375.6" rx="56" ry="52.8"/>
			<path class="st15" d="M557.6,442.1c0.6-0.3,1.2-0.5,1.8-0.8c49.2-20.7,80.8-3.9,96.8,6.4c0.1,0.1,0.3,0.2,0.4,0.3
				c2,1.3,5-1.7,5-4.3c0-0.6-0.2-1.2-0.5-1.7c-28.9-38.8-75.7-44.9-105.3-5.5c-0.2,0.2-0.3,0.5-0.4,0.7
				C553.8,439.9,555.1,443.2,557.6,442.1z"/>
			
				<ellipse transform="matrix(0.4415 -0.8973 0.8973 0.4415 11.2416 728.1393)" class="st16" cx="590.5" cy="355" rx="21.6" ry="18.5"/>
			
				<ellipse transform="matrix(0.4415 -0.8973 0.8973 0.4415 -6.3295 793.7923)" class="st17" cx="634.5" cy="402" rx="10.1" ry="8.7"/>
		</g>
	</g>
	<ellipse class="st15" cx="492.3" cy="464.2" rx="13.6" ry="8.2"/>
	<ellipse class="st15" cx="530.4" cy="464.2" rx="13.6" ry="8.2"/>
	<g>
		<path class="st11" d="M580.2,332.6c0,0,50.7-24.6,92.1,17c35.8,36,64.2,14.5,20.8-39.2c48.4,2.2,48.1-41.3-38.8-34.6
			C684.3,256.8,608.1,229.7,580.2,332.6z"/>
		<path class="st2" d="M703.7,369.9c-9.1,0-21.2-6.6-33.1-18.6c-39.7-39.8-88.8-16.7-89.3-16.5c-0.9,0.4-1.9,0.3-2.7-0.3
			c-0.8-0.6-1.1-1.6-0.8-2.6c15.3-56.2,46.1-76.4,67.8-76.7c9.1-0.1,16.1,3.4,17.8,9c0.5,1.5,0.9,4.8-1.9,8.6
			c38.8-1.8,58.8,7,64.6,16.2c2.6,4.1,2.7,8.6,0.4,12.6c-4,6.8-14.5,11-28.1,11.4c22.2,29.1,22,46.9,14.8,53.5
			C710.7,368.8,707.4,369.9,703.7,369.9z M615.4,323c17.7,0,39.3,5.3,58.8,24.8c16.3,16.3,30.3,19.9,35.7,15
			c6.3-5.7,3.1-24-18.6-50.8c-0.6-0.8-0.7-1.8-0.3-2.7c0.4-0.9,1.4-1.4,2.3-1.4c17.1,0.8,26.2-4.3,28.9-8.8c1.4-2.4,1.3-4.8-0.3-7.4
			c-5.1-8.2-25.8-16.6-67.2-13.4c-1.1,0.1-2.2-0.6-2.6-1.7c-0.4-1.1,0.1-2.3,1-2.9c4.2-2.7,6.2-5.6,5.5-8c-0.8-2.7-5.5-5.5-12.9-5.4
			c-19.4,0.2-46.8,18.3-61.7,68.1C590.2,326.2,601.6,323,615.4,323z"/>
		<path class="st2" d="M654.9,278.3c-10.6,1.2-21.3,3.2-31.3,7.2c7-4.2,14.8-7.2,22.5-9.8c2.6-0.8,5.2-1.6,8-2.3
			c1.3-0.3,2.7,0.5,3.1,1.8C657.5,276.6,656.4,278.1,654.9,278.3L654.9,278.3z"/>
		<path class="st2" d="M692.9,314c-8.1-9.9-21.2-14.4-33.4-16.7c-3.8-0.7-9.2-1.2-13-1.5c4-0.1,9.3-0.1,13.2,0.3
			c8.9,0.8,17.7,2.7,25.8,6.7c3.1,1.6,6,3.4,8.7,5.6c1.6,1.4,4.9,3.9,2.4,6.2C695.5,315.6,693.7,315.3,692.9,314L692.9,314z"/>
		<path class="st14" d="M658.5,274.5c0,0-41.4,5.7-53.4,26.5c8.9-18.7,33.2-41,51.5-38.4C665,262.8,658.5,274.5,658.5,274.5z"/>
		<path class="st14" d="M628.5,297.5c0,0,71.4-24.3,96.9,0.1c0.2,6.6-17.3,14.4-27.6,12.9c-10.3-1.5-12.8-6.3-12.8-6.3
			S652,292.3,628.5,297.5z"/>
		<path class="st14" d="M580.2,332.6c0,0,10.8-18.8,58.7-18.8c47.9,0,70.6,52.2,70.6,52.2s-12,7.3-48-25.7
			C641.3,328.4,612.4,314.9,580.2,332.6z"/>
	</g>
	<g>
		<path class="st11" d="M444.4,332.6c0,0-50.7-24.6-92.1,17c-35.8,36-64.2,14.5-20.8-39.2c-48.4,2.2-48.1-41.3,38.8-34.6
			C340.3,256.8,416.5,229.7,444.4,332.6z"/>
		<path class="st2" d="M320.9,369.9c-3.7,0-6.9-1.1-9.5-3.4c-7.3-6.6-7.5-24.5,14.8-53.5c-13.6-0.3-24.1-4.5-28.1-11.4
			c-2.3-4-2.2-8.4,0.4-12.6c5.8-9.3,25.8-18.1,64.6-16.2c-2.8-3.7-2.4-7-1.9-8.6c1.6-5.6,8.6-9.1,17.8-9
			c21.8,0.2,52.6,20.4,67.8,76.7c0.3,0.9-0.1,2-0.8,2.6c-0.8,0.6-1.8,0.8-2.7,0.3c-2-1-49.7-23.3-89.3,16.5
			C342.1,363.3,330,369.9,320.9,369.9z M331.5,307.9c0.9,0,1.8,0.5,2.2,1.4c0.4,0.9,0.3,1.9-0.3,2.7c-21.7,26.8-24.8,45.1-18.6,50.8
			c5.4,4.9,19.4,1.3,35.7-15c34.6-34.8,76.1-24.4,90.1-19.4c-14.9-49.8-42.3-67.9-61.7-68.1c-7.4-0.1-12.1,2.7-12.9,5.4
			c-0.7,2.4,1.3,5.3,5.5,8c1,0.6,1.4,1.8,1,2.9c-0.4,1.1-1.4,1.8-2.6,1.7c-41.5-3.2-62.1,5.2-67.2,13.4c-1.6,2.5-1.7,5-0.3,7.4
			c2.6,4.6,11.8,9.6,28.9,8.8C331.4,307.9,331.4,307.9,331.5,307.9z"/>
		<path class="st2" d="M370.7,273.3c10.6,2.9,21.1,6.5,30.5,12.1c-10-4-20.7-6-31.4-7.2C366.3,277.8,367.2,272.5,370.7,273.3
			L370.7,273.3z"/>
		<path class="st2" d="M327.8,311c11.3-11.6,28.3-14.8,43.8-15.3c0,0,6.6,0.1,6.6,0.1c-6.3,0.4-13.3,1.2-19.4,2.9
			c-6.2,1.6-12.4,4-17.8,7.4c-3.4,2.2-6.9,4.8-9.2,8C329.7,316.9,325.6,313.8,327.8,311L327.8,311z"/>
		<path class="st14" d="M366.2,274.5c0,0,41.4,5.7,53.4,26.5c-8.9-18.7-33.2-41-51.5-38.4C359.6,262.8,366.2,274.5,366.2,274.5z"/>
		<path class="st14" d="M396.2,297.5c0,0-71.4-24.3-96.9,0.1c-0.2,6.6,17.3,14.4,27.6,12.9c10.3-1.5,12.8-6.3,12.8-6.3
			S372.7,292.3,396.2,297.5z"/>
		<path class="st14" d="M444.4,332.6c0,0-10.8-18.8-58.7-18.8S315.1,366,315.1,366s12,7.3,48-25.7
			C383.4,328.4,412.3,314.9,444.4,332.6z"/>
	</g>
	<ellipse class="st8" cx="469.9" cy="236.3" rx="54.4" ry="33.2"/>
	<ellipse class="st8" cx="542.9" cy="280.6" rx="27.2" ry="16.6"/>
	<ellipse class="st8" cx="500.8" cy="314.9" rx="18.8" ry="11.5"/>
	<ellipse class="st8" cx="520.3" cy="353.6" rx="12.7" ry="7.7"/>
	<path class="st8" d="M712.8,223.6c-8.2,7.1-19.3,11.5-31.4,11.5c-25.6,0-46.4-19.4-46.4-43.5c0-4,0.6-7.9,1.7-11.6
		c1.4,0.6,2.8,1.1,4.1,1.7C667,192.6,691.2,206.8,712.8,223.6z"/>
	<path class="st8" d="M407.7,191.7c0,21.6-17.4,39-38.8,39c-14.6,0-27.3-8.1-33.9-20.1c21.2-14.2,44.5-26,69.3-34.9
		C406.5,180.6,407.7,186,407.7,191.7z"/>
	<path class="st5" d="M280.6,454.1c0,0-63.4-16.1-91.4,4.6c-28.1,20.7-30.4,61.5-8,111.4c20.6,44,51.5,78.3,82.4,116.2
		c-33.6-46.1-99.1-114.8-88.1-190.8C182,451.7,225,444.8,280.6,454.1z"/>
	<path class="st5" d="M755.5,452.4c0,0,53.1-13.8,82.1,4.8c29.1,18.6,34,55.1,9.1,115.7c-18.6,45.8-91,118.9-91,118.9
		s84.8-79.7,99.8-163.8C865,464.5,826.7,437,755.5,452.4z"/>
	<path class="st10" d="M709.6,648.1l-0.8,33.3l-19.6,24.4c-12.5-22.3-36.3-37.3-63.5-37.3c-11.7,0-22.8,2.8-32.7,7.8
		c-54.3-25.1-117.4,18-117.4,18l1.4-2.5l12.8-41.1l12.9-30.7l92.6-7.7l61.6,10.2c-2.2-0.3-29.4-3.2,27.5,13.1
		C743.6,652.7,709.6,648.1,709.6,648.1z"/>
	<path class="st10" d="M492.2,635.7c0,0-16.4,55.3-16.8,58.6c-1.4-1.4-26.6-24.2-65.5,0.5c-7.9-15.6-24-26.2-42.5-26.2
		c-6.5,0-12.7,1.3-18.4,3.7c-2.8-2.3-4.5-3.7-4.5-3.7l17.9-26.2l117.4-10.2L492.2,635.7z"/>
	<path class="st10" d="M475.5,694.3C475.4,694.5,475.4,694.4,475.5,694.3C475.5,694.3,475.5,694.3,475.5,694.3z"/>
	<path class="st2" d="M433.9,803.1c0,0,75.3,43.3,163.5,3.5C554.9,833.3,505.5,864.6,433.9,803.1z"/>
	<path class="st2" d="M829.5,253c-0.6,0-1.1-0.3-1.5-0.9c-0.5-0.8-0.2-1.8,0.6-2.3c22-12.5,50.1-41.7,50.4-42c0.6-0.7,1.7-0.7,2.4,0
		c0.7,0.6,0.7,1.7,0,2.4c-1.2,1.2-28.7,29.9-51.2,42.6C830,252.9,829.8,253,829.5,253z"/>
	<path class="st2" d="M193.5,251.7c-0.2,0-0.5,0-0.7-0.2c-18.5-8.5-37.6-38.1-38.4-39.4c-0.5-0.8-0.3-1.8,0.5-2.3
		c0.8-0.5,1.8-0.3,2.3,0.5c0.2,0.3,19.4,30,37,38.2c0.8,0.4,1.2,1.4,0.8,2.2C194.8,251.3,194.2,251.7,193.5,251.7z"/>
	<path class="st2" d="M840.2,123.5c-58.1-14.3-109-4-115.7,23.6c-0.5,2-0.7,4.2-0.7,6.4c-2.4,28.9,3.9,48.9,4.6,51
		c0.8,2.8,2.1,5.7,3.9,8.6c1.7,2.7,3.8,5.4,6.3,8c0.9,1.5,4.8,8.3,4.8,15.2c0,2.6-0.6,4.9-1.7,6.9c-8.2-8-17-15.7-26.2-22.9
		c-22.1-17.2-46.6-31.5-72.9-42.5c-1.4-0.6-2.8-1.2-4.2-1.7c-39.1-15.6-80.6-23.6-123.4-23.6c-38.7,0-76.3,6.5-112,19.3
		c-24.9,8.9-48.5,20.8-70.3,35.4c-15.6,10.4-30.1,22.2-43.3,35c-3.8-8.3,2.4-19.2,3.6-21.1c2.5-2.6,4.6-5.3,6.3-8
		c1.7-2.8,3-5.6,3.8-8.3c0,0,0-0.1,0.1-0.1c0.3-0.9,7.1-21.2,4.6-51.1c0-2.3-0.2-4.4-0.7-6.4c-3.4-13.8-17.7-23.6-40.3-27.8
		c-21.5-4-48.2-2.5-75.4,4.2c-58.2,14.3-98.5,47.2-91.7,74.8c0.3,1.2,0.7,2.4,1.2,3.6c0,0.1,0.1,0.3,0.2,0.4c1.7,4,4.5,7.7,8.3,11
		c6.9,8.2,18.6,20.5,35.4,33.5c0.6,0.5,1.2,1,1.9,1.5c0.2,0.1,0.4,0.3,0.5,0.4c4.9,3.3,11.2,5.9,18.7,7.7
		c19.9,4.7,48.2,18.3,70.1,56.4c-4.9,9-9.2,18.2-13,27.5c-9.8,23.9-16.2,49-18.9,74.6c-0.5,4.8-0.9,9.8-1.2,14.7
		c-0.9,1.8-1.7,4.6-2.3,8.3c-0.3,1.9-0.6,4-0.8,6.2c-13.6,4.4-44.7,19.9-42.4,69.7c0.1,3.1,0.4,6.4,0.8,9.6c0.8,6.7,2.2,13.6,4,20.4
		c4.3,16.7,11.6,34.3,21.4,52.2c14.3,25.9,30.6,45.9,37.7,54.1c2.9,17.3,6.2,35.6,9.6,54.5c11.2,61.3,25.6,132.2,42.6,210.8l8,38.1
		l10.9,70.3h8.6L289.7,952c0-0.1,0-0.2,0-0.2l-8.1-38.2c-17-78.5-31.3-149.4-42.5-210.6c-3.5-19.3-6.8-38-9.8-55.6
		c-0.1-0.8-0.5-1.5-1-2.1c-6.5-7.4-23-27.4-37.5-53.5c-9.5-17.3-16.5-34.2-20.6-50.2c-1.7-6.5-2.9-13-3.7-19.4c-0.4-3-0.6-6-0.8-8.9
		c-2.2-47.4,29.3-59.4,39-61.9c1.8-0.5,3-2,3.2-3.8c0.2-3.2,0.5-6,0.9-8.5c0.6-4,1.3-5.6,1.5-5.9c0.5-0.7,0.8-1.5,0.8-2.3
		c0.2-5.1,0.6-10.3,1.2-15.3c2.7-24.8,8.8-49.1,18.3-72.3c4-9.7,8.6-19.3,13.8-28.7c0.7-1.3,0.7-2.9,0-4.2l-0.4-0.6
		c-23.6-41.8-54.5-56.7-76.3-61.9c-6.6-1.5-12-3.7-16-6.5c0,0,0,0-0.1,0c0,0-0.1-0.1-0.1-0.1c-0.5-0.3-0.9-0.7-1.5-1.2
		c-16.5-12.8-27.9-24.8-34.5-32.7c-0.2-0.2-0.3-0.4-0.5-0.5c-2.9-2.4-5-5.1-6.2-7.9c0-0.1-0.1-0.2-0.1-0.3c-0.3-0.8-0.6-1.6-0.8-2.4
		c-5.4-22.2,33.8-51.7,85.5-64.5c26-6.4,51.6-7.9,71.9-4.1c18.9,3.5,31.1,11.3,33.6,21.5c0.3,1.4,0.5,2.9,0.4,4.5c0,0.2,0,0.3,0,0.5
		c2.3,26.2-3.2,44.9-4,47.5c-0.1,0.2-0.2,0.4-0.2,0.6c-0.6,2.1-1.5,4.2-2.9,6.5c-1.4,2.3-3.3,4.6-5.5,6.9c-0.2,0.2-0.3,0.4-0.5,0.6
		c-0.6,0.9-14,21.7-0.2,35.6c0.8,0.8,1.9,1.2,3,1.2h0c1.1,0,2.2-0.4,3-1.2c13.7-13.8,29-26.4,45.5-37.4
		c21.1-14.2,44.2-25.8,68.4-34.4c34.8-12.5,71.5-18.8,109.2-18.8c41.7,0,82.2,7.7,120.3,23c1.4,0.5,2.7,1.1,4.1,1.7
		c25.5,10.6,49.4,24.6,70.9,41.3c10.1,7.9,19.8,16.5,28.6,25.4c1.6,1.6,4.2,1.7,5.8,0.2c4.6-4.2,7.1-9.9,7.1-16.3
		c0-10.3-6.1-19.8-6.4-20.1c-0.1-0.2-0.3-0.4-0.5-0.6c-2.2-2.3-4.1-4.6-5.5-6.9c-1.4-2.2-2.4-4.4-2.9-6.5c0-0.1-0.1-0.2-0.1-0.3
		c-0.1-0.2-6.6-19.7-4.2-47.8c0-0.2,0-0.3,0-0.5c0-1.6,0.1-3.1,0.4-4.5c5.4-22.2,53.7-30.1,105.5-17.4c51.8,12.8,91,42.3,85.5,64.5
		c0,0,0,0,0,0c-0.2,0.8-0.5,1.6-0.8,2.4c0,0.1-0.1,0.1-0.1,0.2c-1.2,2.9-3.4,5.6-6.3,8.1c-0.2,0.2-0.4,0.3-0.5,0.5
		c-6.6,7.8-17.9,19.9-34.5,32.7c-0.1,0.1-0.1,0.1-0.2,0.2c-0.4,0.4-0.9,0.7-1.3,1c0,0-0.1,0.1-0.1,0.1c0,0,0,0-0.1,0
		c-4,2.8-9.4,5-16,6.5c-30.9,7.3-51.8,27.4-63.8,42.9c-6.6,8.4-10.6,15.5-12.5,19c-0.3,0.6-0.6,1-0.7,1.3c-0.2,0.2-0.3,0.4-0.4,0.6
		c-0.8,1.3-0.8,2.9-0.1,4.2c16.8,30.7,27.3,63.6,31.2,97.9h0c0,0.1,0,0.1,0,0.2c0,0,0,0.1,0,0.1c0.8,5.6,1.4,12.1,1.8,19.9
		c0.2,4.3,0.4,8.7,0.5,12.9c0,2,1.4,3.7,3.4,4.1c4.6,1,27.9,7.1,36.9,33.8c2.2,6.3,3.3,13.4,3.6,21.1c0.1,5.2-0.1,10.7-0.8,16.3
		c-3.3,26.5-14.6,55.1-33.6,85c-7.1,11.2-15,22-23.5,32.4c-0.5,0.6-0.8,1.4-0.9,2.2c-3.2,25.5-6.9,52.7-11,81
		c-16.1,110.3-33.9,206.4-34.1,207.4c0,0.1,0,0.2,0,0.3l-0.5,4.2c-0.3,2.7-0.8,6.5-1.4,11.1l-7.7,78.1h8.5l7.6-77.1
		c0.6-4.5,1.1-8.4,1.4-11l0.5-4.1c0.7-4,18.3-98.9,34.1-207.6c4.1-27.9,7.7-54.7,10.9-79.9c8.4-10.3,16.3-21.2,23.3-32.3
		c19.7-31,31.4-60.8,34.8-88.6c0.8-6.1,1.1-12,0.9-17.6c-0.2-8.6-1.6-16.5-4-23.6c-9.1-26.8-30.8-35.8-39.9-38.5
		c-0.1-3.3-0.2-6.7-0.4-10c-0.4-8-1.1-14.8-1.9-20.7l0,0c-4-34.6-14.4-67.8-31-98.9c1.8-3.2,5.6-10,11.8-17.9
		c11.2-14.5,30.5-33.1,59-39.8c7.4-1.7,13.6-4.2,18.4-7.4c0.4-0.2,0.7-0.4,1-0.7c0,0,0,0,0,0c0.6-0.4,1.2-0.9,1.7-1.3
		c16.9-13.1,28.5-25.4,35.4-33.6c3.7-3.2,6.5-6.8,8.2-10.7c0.2-0.3,0.3-0.6,0.4-0.9c0.4-1,0.8-2.1,1.1-3.3
		C938.7,170.7,898.4,137.8,840.2,123.5z"/>
	<path class="st2" d="M209.9,433.6C209.9,433.6,209.9,433.6,209.9,433.6C209.9,433.6,209.9,433.6,209.9,433.6z"/>
	<path class="st2" d="M209.9,433.6C209.9,433.6,209.9,433.6,209.9,433.6C209.9,433.6,209.9,433.6,209.9,433.6z"/>
	<path class="st2" d="M209.9,433.6C209.9,433.6,209.9,433.6,209.9,433.6C209.9,433.6,209.9,433.6,209.9,433.6z"/>
	<path class="st2" d="M209.9,433.6L209.9,433.6L209.9,433.6z"/>
	<path class="st2" d="M210.2,433.1L210.2,433.1L210.2,433.1z"/>
	<path class="st2" d="M790,309.6c-0.7,0-1.3,0.2-1.9,0.5C788.7,309.7,789.3,309.6,790,309.6z"/>
	<path class="st2" d="M790,309.6C790,309.6,790,309.6,790,309.6C790,309.6,790,309.6,790,309.6z"/>
	<path class="st0" d="M423.9,194.3c0,0-37.8-111.2,6.3-171.3s73.3,22.8,37.8,110.4c57.8-94.7,122.9-104.7,62.6-24.5
		c106.7-81.4,144.6-44.3,144-30.3c-0.6,14.7-1.8,31.2-89.3,64.8c84.2-22.5,101.1-1.5,102.2,11.6c1.1,13.1-40.1,22-119.1,21.8
		C489.4,176.6,423.9,194.3,423.9,194.3z"/>
	<path class="st2" d="M423.9,194.3c-13.7-42.4-21.6-88.3-12.7-132.6c4.9-22,15.5-44.3,34.5-57.6c12.1-8.1,24.8-3.8,31.7,8.5
		C489.9,36,488,66,483.9,91.3c-2.6,14.9-6.9,29.5-12.5,43.5l-6.4-3.3c15.9-25.8,34.1-50.5,58.2-69.3c6.6-4.8,13-9.2,21.3-11
		c13.9-2.5,16.5,9.7,12.6,20.4c-5.2,14.9-14.1,27.3-23.2,39.7c0,0-5.8-5.8-5.8-5.8c28.5-21.4,59.3-42.1,94.7-49.9
		c12.2-2.4,25.1-3.1,37.1,1.4c8.3,3.1,17.6,10.2,18.7,20.2c0.5,11.4-3.9,21.1-12.5,28.7c-13.7,12.2-30.4,19.9-46.7,27.3
		c-10.9,4.8-21.8,9.2-32.9,13.4l-2.2-6.8c9.6-2.5,19.3-4.8,29.1-6.5c19.7-3.1,41-6.1,60.1,1.5c7.9,3.2,15.1,10.3,16.6,19.2
		c1.9,12.5-22.8,17.1-31.6,19.1c-29.3,5.3-58.9,6.8-88.5,8.5c0,0,0-3.1,0-3.1c9.3,0.6,18.5,1.8,27.7,3.8c6.8,1.6,13.8,3.5,19.7,7.6
		c8.9,7,5.2,13.3-5.2,14.4c-13.9,1.6-27.8-0.5-41.5-2.9c6.8,1.3,53.3,6.9,49.7-5.2c-5.7-12-38.2-13.8-50.5-14.5c-2-0.1-2-3,0-3.1
		c19.6-1.5,39.2-3.3,58.7-5.7c14.5-1.9,29.1-3.8,42.9-8.5c3.6-1.3,14.2-5.2,13-9.5c-8.7-31.4-75.4-14.1-98.3-8
		c-4.3,1.1-6.3-5.2-2.2-6.8c10.9-4.2,21.8-8.7,32.4-13.5c16.3-7.8,47.3-21.3,53-39.1c0.9-2.8,1.1-6.3,1.2-9.5
		c-1.2-6.5-7.4-10.7-13.6-13.2c-38.9-12.9-93.5,24.7-124,47.4c-3.7,2.9-8.6-2-5.8-5.8c4.4-5.9,8.7-11.9,12.5-18.1
		c3.8-6.2,7.3-12.6,9.5-19.2c0.8-2.7,1.7-6.2,1.1-8.7c-0.3-0.9-0.5-1-1.1-1.3c-0.6-0.3-2-0.3-3.4,0c-6.3,1.4-12.6,5.6-18,9.5
		c-23.2,17.7-41.4,41.9-56.8,66.7c-2.3,3.7-8.1,0.9-6.4-3.3c5.5-13.6,9.8-27.6,12.6-42c3.9-21.3,5.6-43.9-0.5-64.9
		c-2.8-9-8.5-20.5-19.2-20c-10.4,1.1-18.1,10-24.5,18C398.6,69.1,409.2,142.4,423.9,194.3L423.9,194.3z"/>
	<path class="st2" d="M476.2,125.3c-4.9,8.5-17.4,30.3-22,38.6c-2.4,4.3-4.8,8.6-7.1,13c1.6-4.7,3.4-9.3,5.2-13.9
		c3.4-8.8,12.8-32.3,16.4-41.4C471.1,116.2,479,120,476.2,125.3L476.2,125.3z"/>
	<path class="st2" d="M535.6,109.9c-14.1,11.2-28.5,22.3-41.4,35c5.3-7.4,11.4-14.2,17.4-21.1c6-6.8,12.2-13.5,18.5-20.2
		c1.6-1.7,4.2-1.8,5.9-0.2C537.8,105.2,537.6,108.3,535.6,109.9L535.6,109.9z"/>
	<path class="st2" d="M599.1,143.5l-82,21.7l79.5-29.7C602.1,133.7,604.7,141.9,599.1,143.5L599.1,143.5z"/>
	<path class="st12" d="M457.4,2.6c0,0,8.7,65.5-18.3,183.8c7.1-5.1,31.9-58.7,35.3-70.7S499.2,9.7,457.4,2.6z"/>
	<path class="st12" d="M548.2,55l-72.8,107.9l66.8-64.5C542.1,98.4,570.4,49.2,548.2,55z"/>
	<path class="st12" d="M668.8,67.2L494.2,173l96.4-31.8c0,0,59.5-26.1,73.9-39S676.3,67.9,668.8,67.2z"/>
	<path class="st2" d="M423.4,191.7c0,0-59.6-125.4-93.5-61.9C321.5,74.7,384.8-6.2,423.4,191.7z"/>
	<path class="st5" d="M455,5.6c0,0-46.3,14.5-44.8,106.1c2.7,36.7,13.3,80,13.3,80S384.4,70.1,455,5.6z"/>
	<path class="st5" d="M455.2,162.1c0,0,51.1-94.9,90.8-103C536.7,66.4,501.3,82.7,455.2,162.1z"/>
	<path class="st5" d="M509,130.4c0,0,106.9-94.4,156.2-60.9C654.4,66.4,595.4,57.5,509,130.4z"/>
	<path class="st5" d="M528.7,162.1c0,0,134.4-45.3,153.1-13.2C671.5,144.2,625,130,528.7,162.1z"/>
	<path class="st2" d="M399.6,1009.5c0,0,30.9,14.3,59.4,14.3c-27.2,0-31.6,0-31.6,0s-29.4-7-49.2-21
		C386.4,1006.1,399.6,1009.5,399.6,1009.5z"/>
</g>
</svg>
