<?xml version="1.0" encoding="utf-8"?>
<!-- Generator: Adobe Illustrator 26.1.0, SVG Export Plug-In . SVG Version: 6.00 Build 0)  -->
<svg version="1.1" id="Слой_1" xmlns="http://www.w3.org/2000/svg" xmlns:xlink="http://www.w3.org/1999/xlink" x="0px" y="0px"
	 viewBox="0 0 1024 1024" style="enable-background:new 0 0 1024 1024;" xml:space="preserve">
<style type="text/css">
	.st0{fill:#483C5E;}
	.st1{fill:#F15D5F;}
	.st2{fill:#3F2401;}
	.st3{fill:#FFFFFF;}
	.st4{fill:#ABA6BA;}
	.st5{opacity:0.59;fill:#272038;}
	.st6{fill:#360038;}
	.st7{fill:#F0EDF2;}
	.st8{opacity:0.2;fill:#3F2401;}
	.st9{opacity:0.32;fill:#3F2401;}
	.st10{fill:#A198B7;}
	.st11{opacity:0.37;fill:#3F2401;}
</style>
<g>
	<g>
		<path class="st0" d="M880.5,458.9c0,11.2-0.5,22.5-1.8,33.6c0,0,1.1,78.4-44.6,153.2c-1.3,2.2-2.7,4.3-4.1,6.5
			c-6.9,10.6-14.7,21-23.6,31.1c-73.7,83.3-60.7-1.8-40.3-28.8c-8.7,10.8-18.3,21.6-28.4,31.9c-36.5,37.2-80.2,67.4-117.2,67.4
			c-21.8,0-30.4-10.6-29.7-24.2c0.9-15.8,14.1-35.6,33.6-47.6c0.1,0,0.1,0,0.1,0c0.2-0.1,0.5-0.3,0.7-0.5c-0.1,0-0.2,0-0.3,0
			c-29.4,1.3-74.6,1.9-120.2,1.9c-39.7,0-79.7-0.4-109.4-1.2c-0.1,0-0.2,0-0.3,0c-2.7-0.1-5.3-0.1-7.8-0.2
			c36.3,22.5,51.2,71.9,4,71.9c-47.2,0-105.2-49.1-145.5-99.3c19.8,26.2,32.7,107.2-34.1,35.7c-2-2.1-4.1-4.4-6.2-6.9
			C131.7,600,133.6,497.1,133.6,497c-5.3-47.8-3-97.5-3-97.5l-71-106.6c0,0,64.5-63,171.1-122c37.1-20.6,79.3-40.6,125.7-57.4
			c37.1-13.4,76.8-24.7,118.6-32.4c45.3-7.5,112.1,8,181.7,34.8c42.2,16.2,85.4,36.6,125.5,58.5c73.3,40,135.8,85,161.6,118.5
			c-28.7,28.7-65.6,91.5-65.6,112.1C879.2,422.5,880.5,440.7,880.5,458.9z"/>
		<polygon class="st1" points="60.7,294.6 137,296.4 130.6,399.5 		"/>
		<path class="st1" d="M356.3,113.5c-46.4,16.8-88.6,36.8-125.7,57.4c-12.1-16.8-20.5-39.9-10.9-68.4c0,0,0,0,0,0
			c0.3-0.9,0.6-1.8,0.9-2.7c23.9-64.5,110.3-81.6,128.4-82.6c-11.5,21.7-20.7,43.7-19.3,57.9c0.1,0.7,0.2,1.4,0.3,2.1
			C332,87,345.2,102.1,356.3,113.5z"/>
		<path class="st1" d="M782.1,174.4c-40-21.9-83.2-42.2-125.5-58.5c9.3-9.5,21.1-22.2,26.2-32.3c0,0,0,0,0,0c1.2-2.3,2-4.5,2.3-6.4
			c2.7-13.9-6.9-37.2-18.9-59.9c18.1,1,104.5,18.1,128.4,82.6c1.9,5,3.2,9.9,4,14.6l0,0C803,139.4,793.7,159.7,782.1,174.4z"/>
		<path class="st1" d="M943.7,292.9l-80.4-6.6l14.2,116.1C877.5,402.4,899.1,332.7,943.7,292.9z"/>
		<path class="st0" d="M798.7,114.4c-54.6-45.6-114.3-31.2-115.8-30.8c1.2-2.3,2-4.5,2.3-6.4c2.7-13.9-6.9-37.2-18.9-59.9
			c18.1,1,104.5,18.1,128.4,82.6C796.5,104.8,797.9,109.7,798.7,114.4z"/>
		<path class="st0" d="M329.8,75.1c-0.9,0.3-1.9,0.6-2.8,0.8c-67.4-12.6-106.3,25.6-107.3,26.6c0.3-0.9,0.6-1.8,0.9-2.7
			c23.9-64.5,110.3-81.6,128.4-82.6C337.6,38.9,328.4,61,329.8,75.1z"/>
		<path class="st2" d="M230.6,176.1c-1.6,0-3.2-0.8-4.3-2.2c-16.8-23.3-20.4-49.5-10.6-76c24.7-66.6,111.2-84.8,133.1-86
			c1.9-0.1,3.7,0.8,4.7,2.4c1,1.6,1.1,3.6,0.2,5.3c-17.8,33.5-19.8,49.2-18.4,56.5c0.9,4.6,5.9,14.1,24.8,33.7
			c1.2,1.3,1.7,3.1,1.3,4.8c-0.4,1.7-1.7,3.1-3.3,3.7c-41.9,15.2-84,34.3-125,57C232.3,175.9,231.4,176.1,230.6,176.1z M339.9,23.6
			c-28.6,4.8-94.6,24.7-114.3,78c-8.1,21.9-5.9,42.8,6.7,62.4c37.7-20.6,76.2-38.3,114.8-52.7c-13.5-14.6-20.6-25.3-22.1-33.2
			C322.7,66.3,327.6,48.4,339.9,23.6z"/>
		<path class="st2" d="M782.1,179.6c-0.9,0-1.7-0.2-2.5-0.6c-41.1-22.4-84.2-42.6-124.8-58.2c-1.6-0.6-2.9-2.1-3.2-3.8
			c-0.4-1.7,0.1-3.5,1.4-4.8C673.7,91.1,679.1,81,680,76.2c1.4-7.3-0.7-23-18.4-56.5c-0.9-1.7-0.8-3.7,0.2-5.3
			c1-1.6,2.8-2.5,4.7-2.4c21.8,1.2,108.3,19.4,133.1,86c10.3,27.9,5.7,55.4-13.4,79.6C785.2,178.9,783.7,179.6,782.1,179.6z
			 M665.9,113.9c37.5,14.8,76.9,33.3,114.7,53.7c14.7-20.5,17.7-42.7,9.1-66C770,48.3,704,28.4,675.4,23.6
			c12.3,24.8,17.2,42.7,14.9,54.5C688.8,86.5,680.9,97.9,665.9,113.9z"/>
		<path class="st2" d="M456.1,399.2c0,61.2-50.6,110.8-112.9,110.8s-112.9-49.6-112.9-110.8s27.3-157.1,89.5-161.8
			C379.4,233,456.1,338,456.1,399.2z"/>
		<path class="st3" d="M456.1,409.6c0,55.4-47.6,100.4-106.4,100.4S243.3,465,243.3,409.6s25.7-142.3,84.3-146.5
			C383.8,259.1,456.1,354.2,456.1,409.6z"/>
		<path class="st4" d="M732.9,596.8c-0.9,1.9-2.8,3-4.7,3c-0.8,0-1.5-0.2-2.3-0.5c-126.5-60.9-238-57.7-309.3-44.4
			c-0.9,0.2-1.7,0.3-2.6,0.5c-37.5,7.3-68,17.9-89.3,26.9c-21.7,9.2-33.8,16.6-34.1,16.7c-2.5,1.5-5.7,0.8-7.2-1.7
			c-1.5-2.5-0.8-5.7,1.7-7.2c2-1.2,49.9-30.5,129-45.4c72.9-13.7,187-17.1,316.2,45.2C733.1,591,734.2,594.2,732.9,596.8z"/>
		<path class="st2" d="M732.9,603.5c-0.9,1.9-2.8,3-4.7,3c-0.8,0-1.5-0.2-2.3-0.5c-126.5-60.9-238-57.7-309.3-44.4
			c-0.9,0.2-1.7,0.3-2.6,0.5c-37.5,7.3-68,17.9-89.3,26.9c-21.7,9.2-33.8,16.6-34.1,16.7c-2.5,1.5-5.7,0.8-7.2-1.7
			c-1.5-2.5-0.8-5.7,1.7-7.2c2-1.2,49.9-30.5,129-45.4c72.9-13.7,187-17.1,316.2,45.2C733.1,597.8,734.2,600.9,732.9,603.5z"/>
		<path class="st0" d="M943.8,1024c-1.5-38.4-5.4-91.6-14.9-142.1c-2.8-14.6-6-29.1-9.8-42.8c-11.3-53.2-35.9-131-89.1-186.9
			c-6.9,10.6-14.7,21-23.6,31.1c-73.7,83.3-60.7-1.8-40.3-28.8c-40.3,50.1-98.3,99.3-145.5,99.3c-47.2,0-32.3-49.4,4-71.9
			c0.2-0.1,0.5-0.3,0.7-0.5c-29.4,1.3-74.8,1.9-120.5,1.9c-43.5,0-87.2-0.5-117.5-1.4c36.3,22.5,51.2,71.9,4,71.9
			c-47.2,0-105.2-49.2-145.5-99.3c19.8,26.2,32.7,107.1-34.1,35.6c-17.5,27.4-68.3,99.3-86.6,188.6c0,0-13.9,60.6-13.9,126.4
			c0,6.3,0.2,12.6,0.5,19H943.8z"/>
		<path class="st2" d="M116,1024c-0.3-6.2-0.4-12.5-0.4-19c0-64.4,13.7-124.8,13.8-125.5c16.5-80.4,59.7-146.7,80.5-178.6
			c0.8-1.3,1.7-2.5,2.4-3.7c22.7,23.4,38.4,31,47.7,23.1c8-6.8,7.2-23.6,2.6-39.6c37.8,40.7,86.6,77.4,128.6,77.4
			c24,0,31.1-12,33.1-19.2c4.5-15.7-5.4-36.8-23.1-52.3c28.6,0.7,66.1,1,103.6,1c42.6,0,79.5-0.5,106.2-1.3
			c-18,15.5-28,36.9-23.5,52.6c2,7.2,9,19.2,33.1,19.2c41.9,0,90.8-36.7,128.6-77.4c-4.6,16.1-5.5,33,2.7,39.7
			c10.7,8.8,29.6-2.5,57.8-34.3c7.4-8.4,14.4-17.4,20.8-26.9c49.3,54.2,72.9,127.8,84.2,180.6l0.1,0.3c3.3,12.2,6.5,25.6,9.2,39.9
			c0.2,0.9,0.4,1.7,0.5,2.6c9.5,50.6,13.3,104,14.8,141.3h8.9c-1.5-37.6-5.3-91.7-15-143c-2.9-15.5-6.2-30-9.8-43.1
			c-11.8-55.3-36.9-132.9-90.2-188.9l-3.9-4.1l-3.1,4.7c-7,10.8-14.8,21.1-23.2,30.5c-35.2,39.8-44.6,34.1-45.5,33.3
			c-7.4-6.1-0.1-40.4,12.1-56.5l-7-5.5c-38,47.2-95.2,97.6-142.1,97.6c-9.6,0-21.6-2.2-24.6-12.8c-4.1-14.7,10-38,30.8-50.9
			c0.2-0.1,0.5-0.3,0.9-0.5l13.9-8.9l-16.5,0.8c-26.8,1.2-69.5,1.9-120.3,1.9c-43.9,0-87.8-0.5-117.4-1.4l-16.5-0.5l14.1,8.7
			c20.9,12.9,35.1,36.3,30.9,50.9c-3,10.6-15,12.8-24.6,12.8c-46.9,0-104.1-50.4-142-97.6l-7,5.5c12.1,16,19.5,50.3,12.1,56.5
			c-3.8,3.2-16.4-1.8-39.4-26.5l-3.9-4.2l-3.1,4.8c-1.6,2.5-3.4,5.3-5.5,8.4c-21.1,32.3-64.9,99.6-81.7,181.5
			c-0.1,0.6-14,61.9-14,127.4c0,6.4,0.1,12.8,0.4,19H116z"/>
		<path class="st5" d="M141.7,821.1c0,0,38.5-0.8,54.2-13.1c6.3,40.6,41,54.7,60.6,29.5c12.4,50.2,61.8,186,122.4,30.6
			c25.6,54.4,73.4,41.8,88.6-71.9c30.4,3,55-31.2,55-31.2s54.4-64.4,97.9-80.3c-31.2-3.6-142-8.2-179.5-2.8
			c45.4,18.5,66.2,32.3,55.8,66.5c-8.2,30.6-52.7,5.2-52.7,5.2s11,67.8-18.3,82.8c-28.5,14.3-47-39.2-47-39.2s-19.5,87.7-54.6,93.8
			c-30.2,7.2-51.9-83.6-51.9-88.8c-14.7,19.4-42.3,25.7-58,7.7c-8.4-14-3.3-36.6-3.3-36.6l-57.2,18.3L141.7,821.1z"/>
		<path class="st5" d="M515.7,777.8c0,0-31.7,83.6,0,114.5c17.3,18,50.3-12.8,62.4-38.9c5,56.9,46.5,31.8,53.5,3
			c17.4,86.4,81.1,80.7,106.5-13.1c23.2,54.1,76.4,28.9,86.2-22.2c22.4,22.2,94,26.6,94,26.6l-6.2-37.8c0,0-53.4-2.9-109.7-56.3
			c3.8,41.4-9.8,112.2-65.6,29.8c-18.5,53.4-66.9,158.8-89.3,25.7c-20.7,28.2-56.9,47.1-54.2-5.9c-32,41-57.9,66-76.3,25.1
			C510.5,808.2,515.7,777.8,515.7,777.8z"/>
		<ellipse class="st2" cx="373.9" cy="411.5" rx="69.8" ry="82.4"/>
		<path class="st2" d="M560.2,395.5c0,63.2,50.3,114.5,112.4,114.5S785,458.7,785,395.5s-27.2-162.3-89.1-167.1
			C636.5,223.8,560.2,332.3,560.2,395.5z"/>
		<path class="st3" d="M560.2,409.6c0,55.4,47.6,100.4,106.4,100.4S772.9,465,772.9,409.6s-25.7-142.3-84.3-146.5
			C632.4,259.1,560.2,354.2,560.2,409.6z"/>
		<ellipse class="st2" cx="648.6" cy="411.5" rx="70.4" ry="83.1"/>
		<path class="st1" d="M444,753.7c14.1,107.1-49.2,99.8-65.3,43.5c-42.2,166.7-96.4,78.3-106.4,5c-38.2,42.2-69.3,14.1-60.6-33.1
			c-53.6,31.1-120.1,31.1-102-5c18.1-36.1,102-74,102-74c66.8,71.5,53.9-9.5,34.1-35.7c40.3,50.1,98.3,99.3,145.5,99.3
			c47.2,0,32.3-49.4-4-71.9c2.5,0.1,5.1,0.1,7.8,0.2c0.1,0,0.2,0,0.3,0C558.5,688.4,496.3,796.5,444,753.7z"/>
		<path class="st6" d="M395.1,682c-2.7-0.1-5.3-0.1-7.8-0.2C389.9,681.9,392.5,681.9,395.1,682z"/>
		<path class="st1" d="M798.2,753.7c22.7,79.8-53.6,87.3-59.9,12.3c-41.8,146.6-82.6,124.9-90.8,43.2
			c-30.9,42.7-60.8,37.2-52.7-11.8c-17.3,32.7-80.8,94.4-79,10.9c1.8-82.2,105.5-125.1,108.7-126.4c-36.3,22.5-51.1,71.9-3.9,71.9
			c47.2,0,105.2-49.1,145.5-99.3c-20.4,27-33.4,112.1,40.3,28.8c8.9-10.1,16.7-20.5,23.6-31.1c1.4-2.2,2.8-4.3,4.1-6.5
			C1061.5,871.7,859,817.4,798.2,753.7z"/>
		<path class="st2" d="M323.4,897.6c-0.5,0-0.9,0-1.4,0c-25.4-1.4-45.5-42.8-53.2-84.3c-15.6,14-31.3,18.5-44.1,12.1
			c-13.8-6.8-21-24.6-19.5-46.8c-38.6,19.5-82.7,24.5-97.9,10.1c-4-3.8-9.6-12.3-2.3-27c18.7-37.4,101.1-74.9,104.6-76.5
			c2-0.9,4.5-0.4,6,1.2c24.2,26,35.5,28.9,38.3,26.5c6.6-5.5,0.6-38.4-12.2-55.4c-1.7-2.3-1.3-5.5,1-7.3c2.3-1.8,5.5-1.4,7.3,0.8
			c37.8,47.1,94.8,97.3,141.4,97.3c9.3,0,20.9-2.1,23.8-12.2c3.6-12.8-7.8-35.9-30.5-50c-2-1.2-2.9-3.7-2.3-6
			c0.7-2.3,2.8-3.8,5.2-3.7l7.8,0.2c0.1,0,0.2,0,0.3,0c0,0,0,0,0,0c87.3,3.4,105.3,34.9,109,48.3c4,14.3-2,29.6-14.7,37.9
			c-9.5,6.2-24.1,9-39.4,1.2c5.8,65.5-19.7,76.3-28.1,78c-15.8,3.3-32.5-8.4-42.7-28.2C363.8,869.5,344.9,897.6,323.4,897.6z
			 M272.3,797c0.5,0,1,0.1,1.5,0.2c1.9,0.6,3.4,2.3,3.6,4.3c5.5,40.4,25,84.4,45.1,85.5c8.3,0.5,29.9-7.5,51.1-91.1
			c0.6-2.3,2.6-3.9,5-4c2.3-0.1,4.5,1.5,5.1,3.8c7.4,25.8,24.3,38.6,36.4,36.1c12.9-2.7,25.5-24.6,18.6-77.5
			c-0.3-2.1,0.8-4.2,2.6-5.3c1.9-1,4.2-0.8,5.9,0.5c14.3,11.7,28.4,10,36.8,4.6c9.1-5.9,13.1-16.2,10.3-26.3
			c-2.3-8.4-15.7-35.4-90.8-40.2c16.8,15.5,25.9,36.1,21.5,51.4c-2.1,7.4-9.3,19.8-33.9,19.8c-41.4,0-89.5-35.5-127.1-75.4
			c3.9,15.4,4.2,30.9-3.6,37.5c-9.9,8.3-26.3,0.3-50.1-24.6c-15.7,7.4-81.1,39.9-96.1,70c-5,9.9-1.2,13.5,0.1,14.7
			c11.7,11,55.6,6.2,94.6-16.5c1.8-1,4-0.9,5.6,0.2c1.7,1.2,2.5,3.2,2.1,5.2c-4,21.8,1,40.2,12.4,45.9c10.4,5.1,24.6-1.2,39.2-17.2
			C269.4,797.6,270.8,797,272.3,797z"/>
		<path class="st2" d="M678,878.6c-0.6,0-1.1,0-1.7-0.1c-15.6-1.4-27.2-21.7-32.5-56.4c-15,17.1-30.2,24.4-41.7,19.6
			c-8.1-3.4-12.8-12.2-13.7-25c-15.7,20.6-40.5,42.7-58.8,38c-13.2-3.4-19.7-19.1-19.1-46.6c1.9-85.8,107.5-129.4,112-131.2
			c2.5-1,5.4,0.1,6.6,2.5c1.2,2.4,0.4,5.4-1.9,6.8c-22.7,14.1-34.1,37.2-30.5,50c2.9,10.1,14.5,12.2,23.8,12.2
			c46.6,0,103.6-50.3,141.4-97.3c1.8-2.2,5.1-2.6,7.3-0.8c2.3,1.8,2.7,5,1,7.3c-12.6,16.6-18.7,50.1-12.2,55.4
			c0.4,0.3,9.1,6.7,44.4-33.2c8.4-9.4,16.1-19.7,23.1-30.4c1.4-2.1,2.7-4.3,4-6.4c0.8-1.4,2.3-2.3,3.8-2.5c1.6-0.2,3.2,0.4,4.3,1.5
			c77.5,77,113.2,129.3,106,155.4c-1.5,5.6-5.8,12.9-17.4,15.8c-29.5,7.5-85.9-17-119.6-44.6c2.9,20.8-1.2,37.6-11.9,47.3
			c-8.2,7.5-19.5,9.4-30.2,5.2c-12.5-4.9-22.1-16.9-27.4-33.4C722.7,833.2,702.1,878.6,678,878.6z M647.5,803.9
			c0.5,0,0.9,0.1,1.4,0.2c2.1,0.6,3.6,2.4,3.9,4.5c4,39.9,15.2,58.6,24.5,59.5c12.5,1.1,33.8-25.5,56-103.6c0.7-2.4,3-4,5.5-3.8
			c2.5,0.2,4.5,2.3,4.7,4.8c2.3,27.5,14.4,41.7,24.9,45.9c7,2.8,14,1.6,19.3-3.2c10.2-9.2,12.2-29.1,5.4-53.1
			c-0.7-2.3,0.3-4.8,2.4-6c2.1-1.2,4.7-0.8,6.4,0.9c30.1,31.5,95,59.7,121.8,53c7.3-1.8,9.1-5.7,9.9-8.4
			c2.7-9.9-1.7-43.3-98.6-140.6c-0.2,0.3-0.4,0.7-0.6,1c-7.3,11.2-15.4,21.9-24.1,31.7c-28.5,32.2-47.8,43.5-58.9,34.4
			c-7.9-6.5-7.7-22.1-3.8-37.5C710,723.4,662,759,620.6,759c-24.6,0-31.8-12.4-33.9-19.8c-3-10.6,0.4-23.6,8.2-35.7
			c-30.7,19.2-72.8,54.6-73.9,105c-0.5,21.4,3.5,34.2,11.2,36.2c15.4,4,46.1-27.2,57.9-49.7c1.2-2.3,3.9-3.3,6.3-2.5
			c2.4,0.8,3.9,3.3,3.5,5.8c-3.6,21.6,0.8,31.6,6.2,33.9c7,2.9,21.2-4,37.1-26C644.2,804.7,645.8,803.9,647.5,803.9z"/>
		<path class="st2" d="M947.8,289.7c-25.5-33.2-86.5-78-163.2-119.9c-41.5-22.7-85.1-43-126.1-58.8c-54.5-21-130.7-44.1-184.5-35.1
			c-39.6,7.3-79.8,18.3-119.5,32.6c-42.5,15.3-85,34.8-126.5,57.7C122.1,225,56.5,288.5,55.8,289.1c-1.8,1.8-2.1,4.6-0.7,6.7
			L125.2,401c-0.2,5.8-0.8,25.3-0.1,49.5c0.4,14.7,1.4,31,3.2,47.1h0c-0.1,13.6,2.6,109.5,73.1,189.1c2.2,2.4,4.3,4.8,6.3,7
			c25.2,27,42.5,36,52.7,27.3c2.5-2.1,4.2-5.2,5.2-8.9c2-7.7,1-18.2-1.6-28.5c18.1,19.1,38.5,37.3,59.4,50.9
			c22.8,14.9,46.1,24.5,67.7,24.5c24.6,0,31.8-12.4,33.9-19.8c0.6-2.2,1-4.6,1.1-7c0.5-14.3-8.3-31.4-22.8-44.7
			c28.3,0.6,64.7,1,101.4,1c41.3,0,77.4-0.4,104-1.3c-17.1,15.6-26.5,36.4-22.1,52c2.1,7.4,9.3,19.8,33.9,19.8
			c41.4,0,89.4-35.5,127.1-75.4c-2.8,11.2-3.7,22.4-1,30.2c1,3,2.6,5.5,4.8,7.3c11.1,9.1,30.4-2.2,58.9-34.4
			c8.7-9.8,16.8-20.5,24.1-31.7c1.4-2.2,2.8-4.4,4.2-6.6c31.6-51.8,41.2-104.7,44.1-133.6c1.2-12.1,1.3-20,1.2-22
			c1.2-10.5,1.8-21.6,1.8-33.9c0-16.5-1-32.9-2.1-48.8l-0.3-5.3c0.2-17.7,34.4-78.6,64.1-108.2C949.3,294.7,949.4,291.8,947.8,289.7
			z M872.8,404.2c0,0.2,0,0.5,0,0.7c0,0.1,0,0.2,0,0.3l0.3,5.5c1,15.7,2,32,2,48.2c0,12-0.6,22.8-1.8,33c0,0.2,0,0.5,0,0.7
			c0,0.8,0.6,77.8-43.8,150.3c-1.3,2.1-2.6,4.3-4,6.4c-7,10.7-14.8,21-23.1,30.4c-35.3,39.9-44,33.5-44.4,33.2
			c-3.8-3.1-3.3-16,0.4-29.4c2.5-9.4,6.6-19.2,11.8-26c1.7-2.3,1.3-5.5-0.9-7.3c-2.2-1.7-5.4-1.4-7.2,0.7c-0.1,0.1-0.1,0.1-0.1,0.1
			c-37.8,47.1-94.9,97.3-141.4,97.3c-9.3,0-20.9-2.1-23.8-12.2c-1.7-6-0.1-14.3,4.4-22.8c5.1-9.6,13.9-19.6,25.9-27.1
			c0.1,0,0.1-0.1,0.2-0.1c0.3-0.2,0.6-0.4,0.9-0.6c1.9-1.3,2.7-3.7,2-5.9c-0.7-2.2-2.7-3.7-5.1-3.7c-0.1,0-0.3,0-0.4,0
			c-26.9,1.2-69.5,1.9-120,1.9c-40.2,0-79.9-0.4-109.2-1.2h-0.1c-0.1,0-0.2,0-0.3,0l-7.8-0.2c-2.4-0.1-4.5,1.5-5.2,3.7
			c-0.7,2.3,0.2,4.7,2.3,6c8,4.9,14.6,11,19.6,17.4c9.3,11.7,13.3,24.4,10.9,32.7c-2.9,10.1-14.5,12.2-23.8,12.2
			c-38.5,0-84.2-34.4-120.2-72.9c-4.8-5.1-9.5-10.3-13.9-15.5l-0.1-0.1c0,0,0-0.1-0.1-0.1c-2.5-2.9-4.9-5.8-7.2-8.7
			c-1.8-2.2-5.1-2.6-7.3-0.9c-2.3,1.8-2.7,5-1,7.3c3.7,4.8,6.7,10.9,9.1,17.4c0,0,0,0,0,0.1c6,16.1,7.8,34,3.1,38
			c-2.8,2.4-14.1-0.5-38.3-26.5c-2-2.1-4-4.4-6.1-6.7c-71.7-80.9-70.6-180.8-70.5-182.6c0-0.2,0-0.5,0-0.7c-5.2-46.8-3-96.2-3-96.7
			c0-0.9-0.2-1.8-0.6-2.6c-0.1-0.2-0.2-0.4-0.3-0.5L66.3,293.7c14.2-13.1,75.2-67.4,166.8-118.2c41-22.7,83-41.9,125-57
			c39.2-14.2,78.8-25,117.7-32.2c40.7-6.8,102.6,5.2,179,34.6c40.6,15.6,83.8,35.7,124.8,58.2c72.8,39.7,130.9,81.8,157.1,113.6
			C909.5,321.5,873.6,381.1,872.8,404.2z"/>
		<path class="st2" d="M241.5,657.5c-16.1-26.2-30.4-53.6-40.1-82.7c6.4,13.8,13.9,27,22.2,39.8c8.2,12.6,17.1,25.1,26.4,36.9
			C254.4,657.2,245.6,663.6,241.5,657.5L241.5,657.5z"/>
		<path class="st2" d="M388.8,689.1c-19.7-12.6-39.5-26.3-54.1-44.8c8.3,8.1,18.1,14.4,28.1,20.1c9.9,5.7,20.4,10.8,30.8,15.3
			C400.4,682.9,395.4,692.7,388.8,689.1L388.8,689.1z"/>
		<path class="st2" d="M615.2,681.9c26.5-15,53.3-29.4,78.7-46.2c-11.6,10-23.9,19-36.1,28.1c-12.3,9.1-24.6,18.1-37,26.9
			c-2.4,1.7-5.6,1.1-7.3-1.2C611.6,687.1,612.4,683.4,615.2,681.9L615.2,681.9z"/>
		<path class="st2" d="M761.1,652.7c18.5-24,34.2-50.9,43.4-79.9c-1.5,7.5-3.3,15.1-5.6,22.5c-4.6,14.8-10.7,29.2-17.7,43
			c-3.6,7-7.2,13.7-11.5,20.5c-1.5,2.5-4.8,3.2-7.2,1.7C759.7,658.9,759.1,655.2,761.1,652.7L761.1,652.7z"/>
		<path class="st2" d="M125,409.8l12-113.5l-1.5,114.1C135.1,417.7,124.5,417.1,125,409.8L125,409.8z"/>
		<path class="st2" d="M883.6,409.8c0-0.1,0-0.3-0.1-0.1c-0.1,0.4,0,0.7-0.2,1.1c-1,4.1-6.8,5.4-9.4,1.5c-1-1.7-0.7-1.9-0.9-3.5
			c-0.1-1.2-0.4-4.6-0.5-5.9c-2.6-32.2-6.8-85.4-9.4-118.1c3.4,20.9,12.1,73.4,15.4,93.5c1.2,7.2,3.3,20.2,4.5,27.3
			c0.1,0.5,0.4,2.2,0.4,2.7c0-0.1-0.1-0.4-0.1-0.5c-1.8-5.4-9.6-4.4-10.1,1c-0.1,1.1,0,1.6,0.1,2.5
			C874,418.9,885.1,417.3,883.6,409.8L883.6,409.8z"/>
		<path class="st2" d="M208.5,764.9l40.3-23.4l-34,31.9C208.9,778.4,202,769.1,208.5,764.9L208.5,764.9z"/>
		<path class="st2" d="M267.1,802.7c0.1-15.6,0.6-37.7,0.1-53.1c3.5,15,7.4,36.9,10.3,52.2C278.6,809.4,267.2,810.4,267.1,802.7
			L267.1,802.7z"/>
		<path class="st2" d="M373.5,798l0.4-32.9l10,31.4C385.9,804.4,373.9,806.2,373.5,798L373.5,798z"/>
		<path class="st2" d="M446.1,760.6c-1.2,0-2.5-0.4-3.5-1.3c-0.8-0.7-18.8-16.5-25-24.3c-1.8-2.3-1.4-5.6,0.8-7.4
			c2.3-1.8,5.6-1.4,7.4,0.8c5.6,7,23.5,22.8,23.7,22.9c2.2,1.9,2.4,5.2,0.5,7.4C449,760,447.6,760.6,446.1,760.6z"/>
		<path class="st2" d="M589.9,795.4l17.4-29.3l-7.7,33.2c-0.7,2.9-3.5,4.6-6.4,4C589.8,802.6,588.1,798.4,589.9,795.4L589.9,795.4z"
			/>
		<path class="st2" d="M638.2,812.6c12.4-16.4,24.8-33,34.4-51.2c-6.6,19.8-16.1,38.4-25.6,56.9
			C643.2,824.8,633.8,818.8,638.2,812.6L638.2,812.6z"/>
		<path class="st2" d="M732.8,768.2l10.8-42.1l-0.4,43.4C742.8,777.4,731.2,775.9,732.8,768.2L732.8,768.2z"/>
		<path class="st2" d="M794.3,757.2l-20.6-31.1l28.5,24.1C808,755.7,799.1,763.6,794.3,757.2L794.3,757.2z"/>
		<path class="st2" d="M298.7,874.5c-0.2,0.7-12.5,59.5-18.7,110.4c-3.4-1.3-6.7-2.6-10.1-4c6.4-50.7,18.3-107.9,18.5-108.5
			c0.6-2.8,3.4-4.6,6.2-4.1C297.5,868.9,299.3,871.7,298.7,874.5z"/>
		<path class="st2" d="M775.4,961.8c-3.3,1.7-6.7,3.3-10,4.9c-7-75.6-32.1-175.8-32.4-176.8c-0.7-2.8,1-5.7,3.8-6.4
			c2.8-0.7,5.6,1,6.4,3.8C743.4,788.4,767.8,885.8,775.4,961.8z"/>
		<circle class="st3" cx="338.9" cy="390.4" r="42.9"/>
		<circle class="st3" cx="679.2" cy="390.4" r="42.9"/>
		<circle class="st3" cx="627.8" cy="464.7" r="16.1"/>
		<circle class="st3" cx="398" cy="464.7" r="16.1"/>
		<ellipse class="st1" cx="269.1" cy="523" rx="18.9" ry="14.9"/>
		<ellipse class="st1" cx="722.1" cy="529.1" rx="18.9" ry="14.9"/>
		<ellipse class="st1" cx="811.4" cy="463.5" rx="12.9" ry="10.2"/>
		<ellipse class="st1" cx="804.9" cy="405.1" rx="6.5" ry="5.1"/>
		<ellipse class="st1" cx="458" cy="496.4" rx="14" ry="11.1"/>
		<ellipse class="st1" cx="502.9" cy="460" rx="21.4" ry="16.9"/>
		<ellipse class="st1" cx="545.6" cy="482.4" rx="11.5" ry="9.1"/>
		<ellipse class="st1" cx="243.3" cy="487.4" rx="9.5" ry="7.5"/>
		<ellipse class="st1" cx="763.4" cy="496.4" rx="9.5" ry="7.5"/>
		<ellipse class="st1" cx="187.6" cy="479.9" rx="13.6" ry="10.8"/>
		<ellipse class="st1" cx="206.6" cy="429.3" rx="5.2" ry="4.1"/>
		<ellipse class="st1" cx="325.8" cy="523" rx="5.2" ry="4.1"/>
		<ellipse class="st1" cx="239" cy="550.5" rx="5.2" ry="4.1"/>
		<ellipse class="st1" cx="780.6" cy="538" rx="5.2" ry="4.1"/>
		<ellipse class="st1" cx="185.6" cy="554.6" rx="5.2" ry="4.1"/>
		<path class="st7" d="M451.6,637.7c-2.8,5.6-10.6,8.4-26,6.6c-52.2-6.2-88.9-42-100.8-55.3c11.9-5,26.7-10.6,44.1-15.8
			c13.6-4.1,28.7-7.9,45.2-11.1C419.4,574.6,460.5,620,451.6,637.7z"/>
		<path class="st7" d="M685.2,589c-11.9,13.3-48.5,49.1-100.8,55.3c-17.5,2.1-25.2-1.9-26.8-9c-4.6-19.1,33.3-61.2,38.3-73.2
			c15,2.9,28.8,6.3,41.4,10C656.3,577.6,672.4,583.6,685.2,589z"/>
		<path class="st2" d="M295,591.3c0,0-29.5,0.1-29,7.7c0.5,7.6,12.1,20,17.9,16.9c5.8-3,19.1-17.1,26-20.3
			C316.9,592.5,295,591.3,295,591.3z"/>
		<path class="st2" d="M704.3,586.7c0,0,43.4,4.4,49.2,7.8c5.8,3.4-11.5,19.1-19,22.8c-7.5,3.7-11,5.1-16.9,2.3
			c-5.9-2.8-7.6-20.7-20-25.7C702.2,588.4,704.3,586.7,704.3,586.7z"/>
		<ellipse class="st1" cx="443.8" cy="141.6" rx="48.3" ry="32.8"/>
		<ellipse class="st1" cx="522.7" cy="183.9" rx="18.9" ry="12.8"/>
		<ellipse class="st1" cx="500.5" cy="108.5" rx="6.5" ry="4.4"/>
		<ellipse class="st1" cx="610.5" cy="148" rx="6.5" ry="4.4"/>
		<ellipse class="st1" cx="425.2" cy="245.5" rx="6.5" ry="4.4"/>
		<ellipse class="st1" cx="520.3" cy="278.4" rx="6.5" ry="4.4"/>
		<ellipse class="st1" cx="541.5" cy="360.1" rx="6.5" ry="4.4"/>
		<ellipse class="st1" cx="578.1" cy="507.5" rx="6.5" ry="4.4"/>
		<ellipse class="st1" cx="420.6" cy="511.9" rx="6.5" ry="4.4"/>
		<ellipse class="st1" cx="583.9" cy="132.9" rx="15.8" ry="10.7"/>
		<ellipse class="st1" cx="593.9" cy="209.7" rx="10.1" ry="6.9"/>
		<ellipse class="st1" cx="395.5" cy="214.3" rx="10.1" ry="6.9"/>
		<ellipse class="st1" cx="465.8" cy="243.1" rx="21.9" ry="14.9"/>
		<ellipse class="st1" cx="545.6" cy="248.6" rx="10.9" ry="7.4"/>
		<ellipse class="st1" cx="548.5" cy="299.2" rx="24.2" ry="16.4"/>
		<ellipse transform="matrix(0.9873 -0.159 0.159 0.9873 -123.3034 145.3242)" class="st1" cx="846.7" cy="843.4" rx="17" ry="25"/>
		
			<ellipse transform="matrix(0.9873 -0.159 0.159 0.9873 -131.0445 144.5635)" class="st1" cx="838.1" cy="891.4" rx="7.5" ry="11"/>
		<ellipse class="st1" cx="465.8" cy="299.2" rx="17.8" ry="12.1"/>
		<ellipse class="st1" cx="501.6" cy="338.9" rx="10.6" ry="7.2"/>
		<ellipse class="st1" cx="527.5" cy="376" rx="7.2" ry="4.9"/>
		<ellipse class="st1" cx="481.6" cy="380.9" rx="7.2" ry="4.9"/>
		<ellipse class="st1" cx="503.8" cy="415.1" rx="7.2" ry="4.9"/>
		
			<ellipse transform="matrix(0.1404 -0.9901 0.9901 0.1404 -680.1909 1001.1595)" class="st1" cx="236.5" cy="892.3" rx="14.1" ry="9.4"/>
		
			<ellipse transform="matrix(0.1404 -0.9901 0.9901 0.1404 -767.158 969.3578)" class="st1" cx="174.7" cy="926.5" rx="56.3" ry="37.8"/>
		<path class="st1" d="M346,1024c-6.5-25-22.9-42.7-42-42.7c-8.5,0-16.5,3.5-23.2,9.6c-5,4.5-9.4,10.4-12.9,17.3c0,0,0,0,0,0
			c-0.3,6.1-0.5,11.8-0.3,15.8H346z"/>
		<path class="st1" d="M872.1,1024h67.3c-1.5-37.3-5.3-90.7-14.8-141.3c-0.2-0.9-0.3-1.7-0.5-2.6c-5.2-1.6-10.5-2.2-15.9-1.7
			c-33.1,2.9-56.4,45.2-52,94.4C857.8,992.3,863.6,1010,872.1,1024z"/>
		<path class="st2" d="M483.7,84.4c0,0-27.5-78.6-69.5-37.5C424.6-9.4,485.6-34.1,483.7,84.4z"/>
		<path class="st2" d="M480.2,82.6c0,0,119.6-68.5,105.1-13.4C623.3,52.3,604.3-46.4,480.2,82.6z"/>
		<path class="st2" d="M482.3,79.9c0,0,10.6-61.8,38.7-48.2C519.6,9.4,481.7-34.4,482.3,79.9z"/>
		<path class="st8" d="M451.6,637.7c-31.1-11.6-71.3-52.5-82.7-64.5c13.6-4.1,28.7-7.9,45.2-11.1C419.4,574.6,460.5,620,451.6,637.7
			z"/>
		<path class="st8" d="M637.3,572.1c-10.3,11.9-43.1,47.2-79.8,63.2c-4.6-19.1,33.3-61.2,38.3-73.2
			C610.9,565,624.7,568.4,637.3,572.1z"/>
		<path class="st2" d="M328.6,87.5c0,0-30.5-19.3-67.1-8.3c22.4-11.6,60.5-10.6,67.1-6.8S328.6,87.5,328.6,87.5z"/>
		<path class="st2" d="M678.9,98.9c0,0,32.1-25.9,79.6-8.3c-32.4-14.6-67.4-17.9-75.6-10.7C674.7,87,678.9,98.9,678.9,98.9z"/>
		<path class="st2" d="M217.3,689.3c0,0-103.6-2.9-84.4,30.8C99.3,715.4,76.9,626.9,217.3,689.3z"/>
		<path class="st2" d="M828.6,652.6c0,0,56.8-8.6,70.2,33.5C916.5,667.4,906.7,594.3,828.6,652.6z"/>
		<path class="st9" d="M107.7,768.8l141.1-27.3l-41.6,31.3C207.2,772.8,106.8,817.8,107.7,768.8z"/>
		<path class="st9" d="M267.2,749.6l-35.9,71.2c0,0,32.8-1.7,38.7-21.2C270.6,778.8,267.2,749.6,267.2,749.6z"/>
		<path class="st9" d="M330.4,734.6l-6.3,156.5c0,0,27.1-10.8,38.2-39.3s11.2-60.1,11.2-60.1l0.3-26.6l-4.9-13.4L330.4,734.6z"/>
		<path class="st9" d="M404.1,752.7l21.6,83.8c0,0,29.9-24.3,18.4-80.3c-14.3-19.5-21.9-19.1-21.9-19.1L404.1,752.7z"/>
		<path class="st9" d="M396.8,686.3c-0.2-0.3,99.9,62.2,99.9,62.2s11.4-22.5-7.7-36.4s-44.9-25.7-44.9-25.7H396.8z"/>
		<path class="st9" d="M526.3,845.9c0,0,39.8-89.1,65.9-103.1c12.8,8.6,20.2,10.9,20.2,10.9l-11.4,23l-13.7,36.2
			C587.3,812.9,541,863.8,526.3,845.9z"/>
		<path class="st9" d="M643.3,750l-33.9,87.5c0,0,20.7-4.7,39.4-33.4c18.7-28.7,23.8-42.7,23.8-42.7l4.1-25.7L643.3,750z"/>
		<path class="st9" d="M715.6,709.2l-30.5,162.4c0,0,37.6-35,53-95c5.4-38.3,5.5-50.5,5.5-50.5l10.5-48.4v-9.8L715.6,709.2z"/>
		<path class="st9" d="M762.3,721l26.5,95.4c0,0,20.9-17,10.7-57.4c-7.8-17.5-13.9-22.7-13.9-22.7L769.2,721H762.3z"/>
		<path class="st9" d="M810,681.7l126.7,121.8c0,0,13.1-18.7-14-55c-27.1-36.3-84.1-100.1-84.1-100.1L810,681.7z"/>
		<path class="st2" d="M220.9,137.7l-2.4-2.6c0.5-0.5,51.5-47,122.1-41.3l-0.3,3.5C271.2,91.7,221.4,137.2,220.9,137.7z"/>
		<path class="st2" d="M793.1,153.4c-35.6-50.3-117.7-55.8-118.5-55.9l0.2-3.5c0.8,0.1,84.6,5.6,121.1,57.4L793.1,153.4z"/>
		<path class="st2" d="M298.6,142.5c-56.4,34-109.2,77.8-146.8,132.3c-5.4,7.9-10.2,16.1-14.8,24.4c8.3-17.2,18.4-33.6,29.8-48.9
			c28.7-38.5,64.2-71.6,102.6-100.2c7.8-5.7,15.5-11.2,23.8-16.6L298.6,142.5L298.6,142.5z"/>
		<path class="st2" d="M712.6,133.5c30.5,19.6,58.8,42.5,84.7,67.7c15.9,15.5,31.3,33,44.4,50.9c3.8,5,7.8,11.6,11.4,16.7
			c2.6,4.1,7.7,13.2,10.2,17.5c-4.3-6.6-10.2-16.2-15-22.3c-13-17.9-28.7-34.7-44.6-49.9c-26.1-24.3-54.7-46.1-85-64.8
			c-3.8-2.3-7.6-4.6-11.4-6.7L712.6,133.5L712.6,133.5z"/>
		<path class="st10" d="M253.8,713c-2.8,2.4-14.1-0.5-38.3-26.5c-2-2.1-4-4.4-6.1-6.7c-71.7-80.9-70.6-180.8-70.5-182.6
			c0-0.2,0-0.5,0-0.7c-5.2-46.8-3-96.2-3-96.7c0-0.9-0.2-1.8-0.6-2.6l0.9-47.7c-0.2,62.1,0.4,170.6,23.6,235.4
			c33.7,93.8,98.4,122.5,91,90.2C256.8,691.1,258.5,709,253.8,713z"/>
		<path class="st1" d="M137,303.4l-0.9,46C136.2,321.5,137,303.4,137,303.4z"/>
		<path class="st10" d="M415,736.3c-2.9,10.1-14.5,12.2-23.8,12.2c-38.5,0-84.2-34.4-120.2-72.9L257.2,660l-0.1-0.1
			c0,0,0-0.1-0.1-0.1c-2.3-2.9-39.2-49.4-55.5-84.9c2.6,4.6,58.1,103.8,150.5,151.6c45.8,21.6,62.1-4.2,52.2-22.9
			C413.4,715.3,417.4,728,415,736.3z"/>
		<path class="st10" d="M804.5,572.9c-8.1,32.1-40.4,75.4-42.4,78.1c-0.1,0.1-0.1,0.1-0.1,0.1c-37.8,47.1-94.9,97.3-141.4,97.3
			c-9.3,0-20.9-2.1-23.8-12.2c-1.7-6-0.1-14.3,4.4-22.8c0.2-0.1,0.3-0.2,0.5-0.3c-7.1,26,24.8,38.1,92.2-6.7
			C779.1,647.8,803.7,575.2,804.5,572.9z"/>
		<path class="st10" d="M873.4,491.9c0,0.2,0,0.5,0,0.7c0,0.8,0.6,77.8-43.8,150.3c-1.3,2.1-2.6,4.3-4,6.4
			c-7,10.7-14.8,21-23.1,30.4c-35.3,39.9-44,33.5-44.4,33.2c-3.8-3.1-3.3-16,0.4-29.4c-4,25.6,39.7,16.1,83-80.1
			c35.7-79.3,32.2-182.3,29.9-216.1c0.4,4.9,0.9,10.7,1.5,16.9c0,0.2,0,0.5,0,0.7c0,0.1,0,0.2,0,0.3l0.3,5.5c1,15.7,2,32,2,48.2
			C875.2,470.9,874.6,481.7,873.4,491.9z"/>
		<path class="st4" d="M871.4,387.1c-0.4-4.6-0.7-8.4-0.9-10.9C870.5,377.2,870.9,381,871.4,387.1z"/>
		<path class="st10" d="M66.3,293.7c0,0,111.6-96.1,177-123.8c-25.5,23.4-33,30.6-33,30.6S105.2,261.4,66.3,293.7z"/>
		<path class="st10" d="M763.6,170.2c0,0,118.9,61.7,173.1,122.4c-14.2-9.7-84.8-69.8-139.4-91.3
			C783.9,188.6,763.6,170.2,763.6,170.2z"/>
		<polygon class="st11" points="90.5,336.8 137,296.4 130.6,399.5 		"/>
		<polygon class="st11" points="863.3,286.3 907.4,337.7 876.6,394.6 		"/>
		<path class="st11" d="M348.1,19.2c0,0-67.5,34.3-83,58.2c17.4,26.5,40.3,57.5,40.3,57.5l56.1-20.3c0,0-29-30.7-31.6-39.6
			C327.2,66.2,348.1,19.2,348.1,19.2z"/>
		<path class="st11" d="M667.3,19.2c0,0,61.8,31.2,88.1,70.3c-16.5,39.1-41.9,52-41.9,52l-56.9-25.7c0,0,26.9-29.9,28.9-42
			S667.3,19.2,667.3,19.2z"/>
		<path class="st3" d="M114.3,766.5c0,0,35.8-38.5,101.6-64.4c-5.5-5.6-5.5-5.6-5.5-5.6S132.5,731.5,114.3,766.5z"/>
		<path class="st3" d="M216.5,771.7c0,0-6.4,40.4,16.6,45.6C225.4,807.7,218.3,787.7,216.5,771.7z"/>
		<path class="st3" d="M275.6,791.7c0,0,10.6,92.1,48.7,95.4C313.4,881.4,290.9,856.3,275.6,791.7z"/>
		<path class="st3" d="M383.9,796.5c0,0,14.3,42.6,40.2,34C416.3,830.5,395.7,819.3,383.9,796.5z"/>
		<path class="st3" d="M564,726.5c0,0-64.4,52.8-35.9,115.6C521.3,819.9,520.3,776.3,564,726.5z"/>
		<path class="st3" d="M601.5,791.3c0,0-12.4,41.6,9.8,41.3C602.7,829.3,598.4,804.7,601.5,791.3z"/>
		<path class="st3" d="M652.7,808.7c-0.2-2.5,11.9,77.7,33.8,56.1C677.9,864.2,655.8,846.7,652.7,808.7z"/>
		<path class="st3" d="M744.4,772.8c0,0,12,55.7,43.4,35.4C777.3,810.3,751.8,801.8,744.4,772.8z"/>
		<path class="st3" d="M805.6,753.7c0,0,15.7,12.5,36.8,24.9c28.4,16.8,66.5,33.5,89.2,20C912.2,801.1,853.2,794.4,805.6,753.7z"/>
		<path class="st3" d="M268.4,125.2c0,0-14.2-38.6-13.4-45.3c0.7-6.7,24.6-25.4,24.6-25.4s-34.9,23.9-34.1,30
			S268.4,125.2,268.4,125.2z"/>
		<path class="st3" d="M743.6,129.4c0,0,14.2-38.6,13.4-45.3c-0.7-6.7-24.6-25.4-24.6-25.4s34.9,23.9,34.1,30
			S743.6,129.4,743.6,129.4z"/>
	</g>
	<path class="st2" d="M778.7,1024c-0.4-10-2.6-57.2-4.2-70.3c-1.8-14.7-10.4,1.2-10.4,1.2l4.5,69H778.7z"/>
	<path class="st2" d="M280,1024c0.1-4.4,0.3-19.5,0.8-33.1c0.4-9.5,0.8-18.4,1.4-22.5c1.7-11.3-11.3,5.5-11.3,5.5s-2.1,18.6-3,34.4
		c0,0,0,0,0,0c-0.3,6.1-0.5,11.8-0.3,15.8H280z"/>
	<path class="st5" d="M373.5,1024c-75.6-15.7-84.7-97.5-84.7-97.5c-7.7,11.3-13.1,86.7-13.8,97.5H373.5z"/>
	<path class="st5" d="M708.8,1024h59.9c-0.3-14.1-2.8-102.8-11.9-120.2C756.8,903.8,760.1,1007,708.8,1024z"/>
</g>
</svg>
