<?xml version="1.0" encoding="utf-8"?>
<!-- Generator: Adobe Illustrator 26.1.0, SVG Export Plug-In . SVG Version: 6.00 Build 0)  -->
<svg version="1.1" id="Слой_1" xmlns="http://www.w3.org/2000/svg" xmlns:xlink="http://www.w3.org/1999/xlink" x="0px" y="0px"
	 viewBox="0 0 1024 1024" style="enable-background:new 0 0 1024 1024;" xml:space="preserve">
<style type="text/css">
	.st0{fill:#6C297A;}
	.st1{fill:#3F2401;}
	.st2{opacity:0.58;fill:#46223C;}
	.st3{fill:#8A4197;}
	.st4{fill:#F15278;}
	.st5{opacity:0.29;fill:#3F2401;}
	.st6{fill:#FFFFFF;}
	.st7{opacity:0.42;fill:#FFFFFF;}
	.st8{fill:#FFA2C1;}
	.st9{fill:#DC96A0;}
	.st10{fill:#46223C;}
	.st11{fill:#F2C2CB;}
	.st12{opacity:0.45;fill:#46223C;}
	.st13{opacity:0.25;fill:#46223C;}
	.st14{fill:#C584D3;}
</style>
<g>
	<path class="st0" d="M274.6,1024.5l-3.1-52.3l8.7-33.6l8.7-33.4l2.7-10.3l2.7-10.5l0.4-1.5L308,681.8l-49-23.9h-41.7
		c0,0-1.8,12.4-4.7,32.5c-0.3,2.2-0.6,4.4-1,6.8c-0.3,1.7-0.5,3.4-0.8,5.2c-6.5,44.9-16.6,116-24.7,176.4c-2,14.9-3.8,29.1-5.5,42.1
		l6.6,103.7H274.6z"/>
	<path class="st0" d="M752,879.2l2.6,10.4l1.5,3.3l11.7,25.1l21,45.1l3.4,61.4H875V910.6c-0.8-2.6-1.6-5.2-2.5-7.9
		c-25.8-81-68.4-206.9-79.7-240.2c-1.8-5.4-2.8-8.3-2.8-8.3l-3.4,0.6l-2.4,0.4l-4.2,0.8l-4.1,0.8l-26.9,4.9l-43.9,32.4l42.1,166.1
		L752,879.2z"/>
	<path class="st1" d="M191.7,1024.5L185,920.9c1.7-13.1,3.5-27.1,5.4-41.7c7.8-58.7,17.7-128.3,24.7-176.4c0.2-1.8,0.5-3.5,0.7-5.2
		c0.3-2.3,0.6-4.6,1-6.7c2-13.6,3.4-23.7,4.2-28.8h37l45.5,22.2l-13.1,197.9l-23.2,89.5l3.1,52.8h8.7l-3.1-51.9l17.2-66.3l5.8-22.2
		l13.7-204.9L260,653.5h-46.5l-0.5,3.7c0,0-1.8,12.4-4.7,32.5c-0.3,2.2-0.7,4.4-1,6.8c-0.3,1.7-0.5,3.5-0.8,5.2
		c-6.9,48.1-16.9,117.7-24.7,176.4c-2,14.7-3.8,28.9-5.5,42.1l-0.1,0.4l6.6,103.9H191.7z"/>
	<path class="st1" d="M784.6,964.1l3.4,60.4h8.7l-3.5-62.5l-21.4-45.8l-13.1-28L710,695.9l40.7-30.1l36.3-6.7c0.4,1.3,1,2.9,1.6,4.8
		c8.7,25.5,53.2,156.9,79.7,240.1l2.3,7.2v113.3h8.7V909.9l-2.7-8.5c-26.5-83.3-71.1-214.8-79.8-240.3c-1.8-5.4-2.8-8.3-2.8-8.3
		l-1.2-3.5l-45.7,8.4l-47,34.7l50.3,198.3L784.6,964.1z"/>
	<path class="st2" d="M872.5,902.7c-1.7-0.5-3.3-1.1-5.1-1.8c-52.3-20.3-88.9,7.3-99.6,17.1l-11.7-25.1l-1.5-3.3l-2.6-10.4l-4.8-19
		l-42.1-166.1l43.9-32.4l26.9-4.9l4.1-0.8l4.2-0.8l2.4-0.4l3.4-0.6c0,0,1,3,2.8,8.3C804.1,695.8,846.7,821.7,872.5,902.7z"/>
	<path class="st2" d="M308,681.8L294.7,883l-0.4,1.5l-2.7,10.5l-2.7,10.3l-8.7,33.4l-2.5-0.7c0,0-25.5-53.7-91.6-59.2
		c8-60.3,18.2-131.5,24.7-176.4c0.2-1.8,0.5-3.5,0.8-5.2c0.3-2.3,0.6-4.6,1-6.8c2.9-20.1,4.7-32.5,4.7-32.5H259L308,681.8z"/>
	<path class="st3" d="M213.7,407.8c6.2-1.8,12.3-4.1,18.2-6.9c0,0,0,0,0.1,0c47.1-22,83.1-70.1,84.3-71.2
		C93.4,629,196,600.7,278.2,518.5c-121.8,175.1-60.9,222.2-21.3,152.2c-7.5,35-12.9,64.9-16.5,90.3c-22.9,158,20.3,142.5,38,88.2
		c2.6-8.1,4.7-17,5.9-26.3c0.4,31.9,7.8,79.6,16.9,125.5h0l15,76h424.6l6.3-56.6c5.9-50.5,6.2-102.5,3.1-123.7
		c6.8,15.6,12.8,27.1,18.1,35.3c36.1,55.7,38.9-48.9,26.5-144.7c-6.2-48-16.2-93.7-27.8-115.9c86.8,135.5,62.4,1.5,9.1-103.5
		c109.6,152.2,89.8-28.9-13.7-158.3c127.9,32,132.4-28.9-21.3-45.7c102-15.2,97.4-54.8-50.2-30.5c177.1-64.5,44.9-93.6-69.8-24.3
		c29.5-18.7,71.7-54.3,93.4-86.8c18.5-27.7,22-53.1-9.9-64c-29.9-10.2-56.6,10.5-77.5,38c-24.3,31.9-41,73.1-45.8,85.9
		c8-22.7,45-134.5-1.5-134.5c-46,0-41.5,97.4-39.9,118.9c-1.5-16.9-8.5-83.2-34.2-136.7c-2.5-5.1-5.1-10.2-7.9-15
		c-15-25.8-35.2-46.6-62.3-54.1c-48.7-13.5-61.7,7.9-48.6,47.7c3.7,11.2,9.4,23.8,17,37.5v0c12.7,22.9,30.6,49,52.6,76.3
		C352.8,69.4,305,130.1,397.8,183.4c-187.2-50.2-171.4,30.7-31.4,39.8c-124.8-4.6-173.7,48.6-21.5,36.4
		c-53.3,9.5-95.2,22.6-127.2,37.1c0,0,0,0,0,0c-8.5,3.9-16.4,7.9-23.5,12c0,0,0,0,0,0h0c-72.8,41.5-72.9,89.6-24.9,100.9
		C184.4,413.1,199.4,412,213.7,407.8z"/>
	<path class="st4" d="M768.1,879.6c-10-22.1-21.9-52.4-35.5-94c9.6-145.1,52-70.5,62-50.6C807,830.7,804.2,935.3,768.1,879.6z"/>
	<path class="st4" d="M287.5,770.3c-3.3,30.1-6.4,56.7-9.2,79c-17.7,54.2-60.9,69.8-38-88.2l4-6C244.3,755,263.7,678.8,287.5,770.3z
		"/>
	<path class="st4" d="M243.9,389.9c-3.4,4.3-7.5,7.9-11.9,11c0,0-0.1,0-0.1,0c-5.9,2.7-12,5.1-18.2,6.9c-14.3,4.1-29.3,5.3-44.3,1.7
		c-48-11.3-47.9-59.4,24.9-100.9h0c0,0,0,0,0,0C196.1,308.1,283.3,282.4,243.9,389.9z"/>
	<path class="st4" d="M403.7,93.6L403.7,93.6c-7.6-13.8-13.3-26.4-17-37.5c-13.1-39.8-0.1-61.2,48.6-47.7
		c27.1,7.5,47.3,28.3,62.3,54.1C501.5,73.9,521.4,143.9,403.7,93.6z"/>
	<path class="st4" d="M714.3,170c-77.5,45-88.7,5.3-87.5-26c21-27.5,47.7-48.2,77.5-38C736.3,116.8,732.8,142.3,714.3,170z"/>
	<path class="st1" d="M312.7,327.3c16.7-19.9,42.9-44,70.6-42c-10.5,0.1-20.2,4.4-28.7,10.2c-13.9,9.6-25.6,22.9-34.9,36.8
		C319.7,332.2,312.7,327.3,312.7,327.3L312.7,327.3z"/>
	<path class="st1" d="M341.7,255.5c30.5-2.5,65.7,5.5,83.7,32.1c-4.9-5.9-10.8-10.9-17.3-14.6c-19.5-11.1-43.3-12.8-65-9
		C343.1,264,341.7,255.5,341.7,255.5L341.7,255.5z"/>
	<path class="st1" d="M364.1,218.7c24.3,3.6,53.1,13.5,63.7,37.6c-6.1-10.9-17-18.2-28.5-22.4c-11.3-4.2-23.7-6.3-35.7-6.6
		C363.7,227.2,364.1,218.7,364.1,218.7L364.1,218.7z"/>
	<path class="st1" d="M393.2,176.6c44.1,20.3,67.7,69.1,71.1,115.7c-4.9-34-19.3-67.7-45.7-90.3c-8.4-7.2-17.9-13.5-28.3-17.4
		C390.4,184.6,393.2,176.6,393.2,176.6L393.2,176.6z"/>
	<path class="st1" d="M455.9,163c20.5,23.7,31.4,55.9,29.1,87.1c0,0-0.5,6.1-0.5,6.1c0.1-6-0.1-12.4-0.8-18.4
		c-2.4-20-10.3-39.3-22.2-55.5c-3.5-4.6-7.3-9.4-11.5-13.3L455.9,163L455.9,163z"/>
	<path class="st1" d="M543.7,209.5c0.4,24.3-0.6,48.8-6.9,72.3c1.8-11.9,2-23.9,1.6-35.9c-0.5-11.9-1.5-23.9-3.2-35.6
		C535.2,210.4,543.7,209.5,543.7,209.5L543.7,209.5z"/>
	<polygon class="st1" points="586.2,228.1 557.4,285.6 578.4,224.8 586.2,228.1 	"/>
	<path class="st1" d="M626.3,258.4c-19.6,10.3-38.9,21.7-56.4,35.4c7.9-8,16.3-15.4,25-22.4c8.8-7.1,17.7-13.8,27-20.3
		C621.9,251,626.3,258.4,626.3,258.4L626.3,258.4z"/>
	<path class="st1" d="M696.5,284c-29.8,6-59.7,12.6-88.8,21.6c14.1-5.9,28.5-11.1,43-16c14.5-4.9,29.1-9.5,43.8-13.9L696.5,284
		L696.5,284z"/>
	<path class="st1" d="M743.6,316.2c-30.5-3.2-61.7-3.4-92.1,1.8c7.5-2,15.1-3.7,22.7-5.1c23.1-4,46.5-5.6,70-5.3
		C744.3,307.7,743.6,316.2,743.6,316.2L743.6,316.2z"/>
	<path class="st1" d="M761.5,362.7c-14.6-15.5-35.3-24.2-55.9-28.1c-7-1.4-14.5-1.9-21.7-2.3c6.2-0.3,13-0.4,19.2,0
		c1.7,0.2,6.5,0.6,8.2,0.8c18.5,2.5,36.8,8.8,51.9,20.1c1.6,1.3,3,2.4,4.6,3.9C767.8,357,761.5,362.7,761.5,362.7L761.5,362.7z"/>
	<path class="st1" d="M269.7,523.2c27.7-33.1,55.1-66.5,84.3-98.2c-27,33.6-52.1,68.7-77.6,103.4
		C276.4,528.4,269.7,523.2,269.7,523.2L269.7,523.2z"/>
	<polygon class="st1" points="776.3,523.7 728.1,437 783.6,519.3 776.3,523.7 	"/>
	<path class="st1" d="M249.1,680.3c13.9-37.2,30.8-73.5,53.3-106.3c-5,8.5-9.7,17.2-13.9,26.1c-8.5,17.8-15.8,36.1-22.3,54.7
		c-3.2,9.3-6.3,18.7-8.9,28L249.1,680.3L249.1,680.3z"/>
	<polygon class="st1" points="768.1,628.6 719.7,539.6 775.4,624.2 768.1,628.6 	"/>
	<path class="st1" d="M280.2,829.4c3.7-39.7,6.7-79.6,14.7-118.7c-1.5,9.8-2.3,19.8-3,29.7c-2,29.7-2.8,59.6-3.2,89.4
		C288.7,829.8,280.2,829.4,280.2,829.4L280.2,829.4z"/>
	<path class="st1" d="M747.6,850.8c-10.7-42.9-21.5-88-33.8-130.5c14.9,41.7,28.6,86,42,128.2C755.9,848.5,747.6,850.8,747.6,850.8
		L747.6,850.8z"/>
	<g>
		<path class="st5" d="M548.2,458.7c-9.8,30.6-0.9,62.5,20.1,82.5c1.4,1.3,2.9,2.6,4.4,3.9c46.8-25.2,79.5-10.8,96.2-1.8
			c1.7-1.5,3.4-3,5-4.6c9-9,16.1-20.3,20.3-33.4c13.5-42.1-8.3-86.6-48.7-99.5C605.3,393,561.7,416.6,548.2,458.7z"/>
		<g>
			
				<ellipse transform="matrix(4.275100e-02 -0.9991 0.9991 4.275100e-02 115.5034 1069.0165)" class="st1" cx="615.6" cy="474.2" rx="57" ry="52.4"/>
			<path class="st1" d="M571.1,546c0.6-0.3,1.1-0.6,1.7-0.9c46.8-25.2,79.5-10.8,96.2-1.8c0.1,0.1,0.3,0.2,0.4,0.2
				c2.1,1.2,4.8-2.2,4.6-4.8c-0.1-0.6-0.3-1.2-0.7-1.7c-32-36.9-78.8-39.1-104.5,3.4c-0.2,0.2-0.3,0.5-0.4,0.7
				C567.1,544.2,568.7,547.4,571.1,546z"/>
			
				<ellipse transform="matrix(0.3046 -0.9525 0.9525 0.3046 -18.9243 883.9241)" class="st6" cx="595.9" cy="454.9" rx="21.9" ry="18.4"/>
			
				<ellipse transform="matrix(0.3046 -0.9525 0.9525 0.3046 -27.6673 959.723)" class="st7" cx="643.4" cy="498.8" rx="10.3" ry="8.6"/>
		</g>
		
			<ellipse transform="matrix(0.1274 -0.9918 0.9918 0.1274 0.4523 1114.8496)" class="st8" cx="633.8" cy="557.2" rx="16.3" ry="37.7"/>
	</g>
	<g>
		<path class="st5" d="M504,458.7c9.8,30.6,0.9,62.5-20.1,82.5c-1.4,1.3-2.9,2.6-4.4,3.9c-46.8-25.2-79.5-10.8-96.2-1.8
			c-1.7-1.5-3.4-3-5-4.6c-9-9-16.1-20.3-20.3-33.4c-13.5-42.1,8.3-86.6,48.7-99.5C446.9,393,490.5,416.6,504,458.7z"/>
		<g>
			
				<ellipse transform="matrix(0.9991 -4.275100e-02 4.275100e-02 0.9991 -19.8748 19.097)" class="st1" cx="436.6" cy="474.2" rx="52.4" ry="57"/>
			<path class="st1" d="M481.1,546c-0.6-0.3-1.1-0.6-1.7-0.9c-46.8-25.2-79.5-10.8-96.2-1.8c-0.1,0.1-0.3,0.2-0.4,0.2
				c-2.1,1.2-4.8-2.2-4.6-4.8c0.1-0.6,0.3-1.2,0.7-1.7c32-36.9,78.8-39.1,104.5,3.4c0.2,0.2,0.3,0.5,0.4,0.7
				C485.1,544.2,483.5,547.4,481.1,546z"/>
			
				<ellipse transform="matrix(0.9525 -0.3046 0.3046 0.9525 -116.896 160.616)" class="st6" cx="456.3" cy="454.9" rx="18.4" ry="21.9"/>
			
				<ellipse transform="matrix(0.9525 -0.3046 0.3046 0.9525 -132.5248 148.2197)" class="st7" cx="408.7" cy="498.8" rx="8.6" ry="10.3"/>
		</g>
		
			<ellipse transform="matrix(0.9918 -0.1274 0.1274 0.9918 -67.5878 57.849)" class="st8" cx="418.3" cy="557.2" rx="37.7" ry="16.3"/>
	</g>
	<path class="st9" d="M347.5,799l21.8,225.5h305.3l19.7-173.1c0,0,22.8-183.7,0.6-227.9c-22.2-44.1-65.2-30.3-90.5-18.4
		c-1.2,0.6-2.6,1.2-4.1,1.9c-24.6,11.4-80.9,35-136.1,8.5c-7.6-3.7-14.9-6.7-21.8-9.2c-46.2-16.7-76.6-7.1-91.7,32.5
		c-18.6,48.9-3.8,155.9-3.2,160.1C347.5,799,347.5,799,347.5,799z"/>
	<path class="st10" d="M644.2,691.5c0.4,34.1-48.6,95.7-126.5,93.5c-83.8-2.4-115.9-65.6-117.2-106.9c-1.2-39.5,41.4-33.7,63-28.4
		c1,0.2,1.9,0.5,2.8,0.7c11.8,2.9,56.8,18.5,114.5,0c2.6-0.8,5.1-1.5,7.5-2C627.1,639.3,643.8,659.4,644.2,691.5z"/>
	<path class="st6" d="M588.3,648.3c-4.1,12.5-11.3,30.2-22.2,44.8c-11.3,15.2-26.7,27-46.7,26.6c-17.5-0.4-30-11.5-38.7-25.4
		c-9.6-15.1-14.7-33.5-17.1-44.7c1,0.2,1.9,0.5,2.8,0.7c11.8,2.9,56.8,18.5,114.5,0C583.4,649.6,585.9,648.9,588.3,648.3z"/>
	<path class="st11" d="M520.5,841.6c-26.8,0-50.6-2.9-70.5-6.9c-62.7-12.5-102.1-37.7-102.5-37.9l0.6-5.9
		c0.4,0.2,41.3,26.6,103.2,38.8c57,11.3,146,14,245.9-37.4l2.3,4.6C633,831,571.4,841.6,520.5,841.6z"/>
	<path class="st1" d="M520.5,846.1c-26.8,0-50.6-2.9-70.5-6.9c-62.7-12.5-102.1-37.7-102.5-37.9l1.7-5.4c0.4,0.2,40.2,26,102,38.3
		c57,11.3,146,14,245.9-37.4l2.3,4.6C633,835.5,571.4,846.1,520.5,846.1z"/>
	<path class="st11" d="M515.7,921.4c-25.5,0-47.8-2.9-66.4-6.9c-58.4-12.5-93.4-37.7-93.8-38v-6.4c0.3,0.2,37.6,27.2,95.1,39.4
		c53,11.3,139.3,13,239.2-38.3l0.2,5.5C623.6,910.8,564.1,921.4,515.7,921.4z"/>
	<path class="st1" d="M515.7,925.6c-25.5,0-47.8-2.9-66.4-6.9c-58.4-12.5-93.4-37.7-93.8-38l0.8-5.6c0.3,0.2,36.9,26.4,94.3,38.6
		c53,11.3,138.8,13.1,238.7-38.2l0.6,5.4C623.6,915.1,564.1,925.6,515.7,925.6z"/>
	<path class="st11" d="M511,997.7c-24.2,0-45.1-2.9-62.3-6.9c-54.3-12.5-84.1-37-85.3-38.1l0.3-6.8c0.3,0.2,33.3,27.8,86.5,40
		c49.1,11.3,131.6,11.6,231.4-39.7l-0.7,6.9C614.4,987.1,556.8,997.7,511,997.7z"/>
	<path class="st1" d="M511,1001.7c-24.2,0-45.1-2.9-62.3-6.9c-54.3-12.5-84.1-37-85.3-38.1l1.4-5.9c0.3,0.2,32.2,26.9,85.4,39.1
		c49.1,11.3,131.3,12.6,231.1-38.7l-0.4,5.8C614.4,991.1,556.8,1001.7,511,1001.7z"/>
	<path class="st2" d="M350.5,815c0,0,149.2,97.8,346,0c0.5-18.1,0.5-18.1,0.5-18.1S542.3,900,347.5,801.3
		C351.9,804,350.5,815,350.5,815z"/>
	<path class="st2" d="M358.4,894.7c0,0,154.5,94.9,329.9-3.2c3.1-16.2-0.6-15.1-0.6-15.1s-147.4,103.2-332.1,4.3
		C358.5,888.5,358.4,894.7,358.4,894.7z"/>
	<path class="st2" d="M366.8,972.1c0,0,148.3,92.4,314.4-7.2c0.1-12.5-5.3-11.2-5.3-11.2s-148.8,104.3-313.6,0
		C365.7,965.1,366.8,972.1,366.8,972.1z"/>
	<path class="st1" d="M366.7,1024.5h5.1L350,798.7l0-0.3c-0.6-4.5-15.2-110.7,3.1-158.7c14.4-37.7,42.5-47.5,88.5-30.9
		c6.8,2.4,14,5.5,21.5,9.1c58.8,28.2,118.5,0.6,138.2-8.5c1.5-0.7,2.8-1.3,4.1-1.9c16.3-7.7,30.7-11.5,43.2-11.5
		c19.7,0,34.4,9.6,44.1,28.7c21.6,42.8-0.6,224.4-0.9,226.2L672,1024.5h5.2l19.6-172.8c0.6-5,10.3-84.6,10.3-150.7
		c0-33.7-2.5-63.8-10.1-78.8c-17.2-34.2-48.8-40.8-93.8-19.7c-1.2,0.6-2.6,1.2-4.1,1.9c-19.1,8.8-77.3,35.8-134,8.5
		c-7.7-3.7-15.1-6.8-22-9.3c-48.4-17.5-79.5-6.4-94.9,34c-18.6,49-4.2,155.4-3.4,161.5L366.7,1024.5z"/>
	<path class="st1" d="M285.6,362.3c0,0-136.1,135.8-153.9,50.4C110.4,466.7,154.9,572.6,285.6,362.3z"/>
	<path class="st1" d="M755.8,355.3c0,0,133.2,50.6,90.9,90.5C887,462.9,962.1,417.5,755.8,355.3z"/>
	
		<rect x="385.5" y="818.3" transform="matrix(0.9981 -6.089610e-02 6.089610e-02 0.9981 -51.5183 25.2252)" class="st1" width="5.1" height="79.1"/>
	
		<rect x="525.6" y="923.5" transform="matrix(0.9998 -1.876907e-02 1.876907e-02 0.9998 -17.9566 10.0832)" class="st1" width="5.1" height="76.3"/>
	<rect x="589.3" y="915.4" class="st1" width="5.1" height="72.5"/>
	
		<rect x="610.6" y="855.8" transform="matrix(4.362087e-02 -0.999 0.999 4.362087e-02 -236.2316 1469.8795)" class="st1" width="78" height="5.1"/>
	<path class="st1" d="M443.8,320.5c0,0,10.3,28.1,12.5,34.8c2.2,6.7,21.4,26,22.8,31.1c1.3,5.1-17.9,19.1-29.1,14.1
		c7.7,5.1-10.9,24.4-10.9,24.4s50.1-20.8,60.6-24.1c10.5-3.3-11.7-26.3-24.2-33.7C463,359.8,443.8,320.5,443.8,320.5z"/>
	<path class="st1" d="M580,344.9c0,0-4.6,31.3-10.2,38.7c-5.6,7.4,0.4,31.6,3.8,33c3.3,1.4,30.8,0,39,5.7
		c-17.1-14.5-9.9-20.7-9.9-20.7s-23.4-0.1-26.9-2.2c-3.5-2.1-3.5-12.7-1.4-15.5C576.5,381.1,581.1,357.9,580,344.9z"/>
	<path class="st2" d="M141.6,389.9c0,0,126.9-40.7,209.2-96.2c-29,23.4-78.2,86.2-78.2,86.2S180.6,445.3,141.6,389.9z"/>
	<path class="st2" d="M250.9,245.7c0,0,102.2-10.2,132.7,0c30.5,10.2,41.9,41.9,41.9,41.9S400.1,255,349.2,259
		C298.3,263,256.4,265.4,250.9,245.7z"/>
	<path class="st2" d="M260,179.8c0,0,129.8,19.5,147.3,35.4c17.5,15.9,20.5,41,20.5,41s-17.9-27.9-56.7-34.6S262.4,212.5,260,179.8z
		"/>
	<path class="st2" d="M354,118.6c0,0,78.6,56,97.6,84.7s12.5,87.3,12.5,87.3s-3-68.2-63.9-104.4C361.6,157.6,339.2,138.3,354,118.6z
		"/>
	<path class="st2" d="M430.4,5.9c0,0-30.7,13.5,29.9,107.5c49,74.8,24.2,142.9,24.2,142.9s10.3-46.6-38.9-102.7
		C413,117.3,368.2,40.4,390.4,9.8C404.6-6.9,430.4,5.9,430.4,5.9z"/>
	<path class="st2" d="M590,97.8l-32.7,187.7C557.4,285.6,629.8,132.1,590,97.8z"/>
	<path class="st2" d="M719.7,114.4L571.8,290.6c0,0,78.7-55.1,108.4-81.1S742,145.8,719.7,114.4z"/>
	<path class="st2" d="M772.8,223.3l-165.1,82.3C607.7,305.6,790.6,263.6,772.8,223.3z"/>
	<path class="st2" d="M651.6,318l158.2-36.1c0,0,6.1,15.4-53.9,26.8C713.6,314.1,651.6,318,651.6,318z"/>
	<path class="st2" d="M683.8,332.2c0,0,56,3.4,74.8,22.6c46.1,10.8,87.8,21.3,98.6-3.3C820.3,332.1,722.6,328.1,683.8,332.2z"/>
	<path class="st2" d="M741.5,377.6c0,0,67.4,74.5,100,192.7c-10.2,2.8-41.9-15.2-99.2-111.7c-29.7-50.7-28.2-66.9-28.2-66.9l30.2-14
		"/>
	<g>
		<path class="st9" d="M598,407.7c0,0,60.6,37.4,102.5,94.7c41.9,57.4,72.2,27.1,37.4-47.4c44.5,37.7,94.7-7.4-23.8-60.9
			C765.6,394.8,741.8,311.1,598,407.7z"/>
		<path class="st1" d="M738.6,535c-11.1,0-25.5-10.9-40.2-31c-41.1-56.3-101.2-93.7-101.8-94.1c-0.7-0.5-1.2-1.3-1.2-2.1
			c0-0.9,0.4-1.7,1.1-2.2c74.9-50.4,120.4-53.9,138-40.4c6,4.6,8.3,11.3,6.1,17.6c-1.8,5.3-7.2,10.9-17,13
			c41.7,20.1,66.3,42.1,66.4,59.6c0,6.2-3.2,11.3-9,14c-8.2,3.8-22.2,2.9-36.9-6.5c14.4,34.6,15.4,62.1,2.1,70
			C744,534.3,741.4,535,738.6,535z M602.7,407.7c13.3,8.8,63.8,43.8,99.9,93.3c19.5,26.7,34.3,31.6,41.1,27.6
			c10-5.9,10.5-32.7-8.1-72.3c-0.5-1.1-0.2-2.4,0.8-3.1c1-0.7,2.3-0.7,3.2,0.1c15.7,13.3,31.4,15.4,39.3,11.7c2.8-1.3,6.1-4,6.1-9.3
			c-0.1-12.8-19-35.1-72-58.9c-1.1-0.5-1.7-1.7-1.4-2.9c0.3-1.2,1.3-2,2.5-2c0,0,0,0,0,0c13.4,0.2,20.1-5.5,21.8-10.5
			c1.5-4.2-0.1-8.6-4.4-11.9C716.3,357.6,673.5,360.8,602.7,407.7z"/>
		<path class="st1" d="M737.6,460.6c-4.9-11.8-12.1-23-21.2-32c-3.1-3.1-6.5-5.7-10.1-8.2c3.8,2.1,7.6,4.4,11,7.3
			c10.4,8.5,18.7,19.1,25,30.9C743.8,461.8,738.9,463.9,737.6,460.6L737.6,460.6z"/>
		<path class="st1" d="M715.9,397.4c-14.9-5-31.3-6.8-46.9-4.7c7.8-1.9,15.9-2.9,24-2.8c8.3,0,16.3,0.8,24.4,2.6
			c1.4,0.3,2.2,1.7,1.9,3.1C718.9,397.2,717.3,398,715.9,397.4L715.9,397.4z"/>
		<path class="st12" d="M738.9,376.9c0,0-44.6-8.5-88.5,20.1c12-2.6,29-8.8,62.2-3.1C722.6,393.4,738.2,392.9,738.9,376.9z"/>
		<path class="st12" d="M737.9,455.1c0,0-26.6-52.7-74.3-43.9c33.3-8.1,96.3,8.2,118,55C775,471,753.1,468.6,737.9,455.1z"/>
		<path class="st12" d="M742.1,531.9c0,0-31.5-112.1-144-124.2c23.7,16.6,60.9,42.9,99.8,91.1C714.7,519.1,733.8,539.3,742.1,531.9z
			"/>
	</g>
	<path class="st2" d="M722.6,539.6l101,114.6c0,0,3.7,46.3-27.6,3.7C764.7,615.3,722.6,539.6,722.6,539.6z"/>
	<path class="st2" d="M186.2,563.3l105.8-116.6l46.9-7.8l-27,43.4l-49.4,57.1C262.5,539.3,193.3,590.4,186.2,563.3z"/>
	<g>
		<path class="st9" d="M456.3,407.7c0,0-60.6,37.4-102.5,94.7s-72.2,27.1-37.4-47.4c-44.5,37.7-94.7-7.4,23.8-60.9
			C288.7,394.8,312.6,311.1,456.3,407.7z"/>
		<path class="st1" d="M315.7,535c-2.8,0-5.3-0.7-7.6-2c-13.3-7.9-12.3-35.5,2.1-70c-14.7,9.4-28.7,10.4-36.9,6.5
			c-5.8-2.7-9.1-7.8-9-14c0.1-17.5,24.8-39.5,66.4-59.6c-9.8-2.1-15.2-7.7-17-13c-2.2-6.3,0.2-13,6.1-17.6c17.6-13.5,63-10,138,40.4
			c0.7,0.5,1.1,1.3,1.1,2.2c0,0.9-0.5,1.7-1.2,2.1c-0.6,0.4-60.7,37.8-101.8,94.1C341.2,524,326.8,535,315.7,535z M316.4,452.5
			c0.5,0,1.1,0.2,1.6,0.5c1,0.7,1.3,2,0.8,3.1c-18.5,39.7-18.1,66.4-8.1,72.3c6.7,4,21.6-0.8,41.1-27.6
			c36.1-49.4,86.6-84.5,99.9-93.3c-70.8-46.9-113.6-50.1-128.7-38.4c-4.3,3.3-5.9,7.6-4.4,11.9c1.7,4.9,8.4,10.6,21.8,10.5
			c1.1-0.1,2.3,0.8,2.5,2c0.3,1.2-0.3,2.4-1.4,2.9c-52.9,23.9-71.9,46.1-72,58.9c0,5.4,3.3,8,6.1,9.3c7.9,3.7,23.6,1.7,39.3-11.7
			C315.2,452.7,315.8,452.5,316.4,452.5z"/>
		<path class="st1" d="M312,458.5c8.4-15.6,20.3-29.7,36-38.2c-7.2,4.8-13.5,11-18.6,18c-5.1,6.8-9.5,14.5-12.7,22.3
			C315.3,463.9,310.5,461.7,312,458.5L312,458.5z"/>
		<path class="st1" d="M336.9,392.6c16-3.6,32.6-3.6,48.5,0.2c-11.9-1.6-24-0.9-35.6,1.6c-3.9,0.8-7.8,1.9-11.4,3.1
			C335,398.6,333.5,393.5,336.9,392.6L336.9,392.6z"/>
		<path class="st12" d="M315.4,376.9c0,0,44.6-8.5,88.5,20.1c-12-2.6-29-8.8-62.2-3.1C331.7,393.4,316.1,392.9,315.4,376.9z"/>
		<path class="st12" d="M316.4,455.1c0,0,26.6-52.7,74.3-43.9c-33.3-8.1-96.3,8.2-118,55C279.3,471,301.2,468.6,316.4,455.1z"/>
		<path class="st12" d="M312.3,531.9c0,0,31.5-112.1,144-124.2c-23.7,16.6-60.9,42.9-99.8,91.1C339.7,519.1,320.5,539.3,312.3,531.9
			z"/>
	</g>
	<path class="st2" d="M206.1,692.7c0,0,48.4-94.2,96.2-118.7c-17,19.2-48.4,107.8-48.1,107.9C254.5,682,220.8,716.8,206.1,692.7z"/>
	<path class="st2" d="M294.9,710.7l-47.8,175.9c0,0,27.8,1.5,35.3-53.4C289.9,778.4,294.9,710.7,294.9,710.7z"/>
	<path class="st2" d="M713.8,720.3c0,0,80.5,126.4,86.1,121.1c-0.6,36.4-7.6,88.6-39.3,26.4C729.5,806.7,713.8,720.3,713.8,720.3z"
		/>
	<path class="st2" d="M443.8,320.5c0,0,19,28.7,40.5,36s33.7,10.5,36.3,14.7c2.6,4.3-1.3,26.2-7.5,31.1s-48.8,9.8-48.8,9.8
		l22.5-18.4l-4.2-14.8l-27.8-27.9L443.8,320.5z"/>
	<path class="st2" d="M580,344.9c0,0-10.3,29.1-20.4,34.9c-10.1,5.8-5.8,45.2-5.8,45.2l44.2-6.6l-22.6-16l-5.6-12.5l5.6-17.2
		C575.5,372.7,580.3,348.3,580,344.9z"/>
	<polygon class="st10" points="517.4,724.6 520.6,666.3 529.8,724.6 	"/>
	<path class="st13" d="M566.1,693.1c3.5-13.1,4.8-28.4-9.8-28.8c-25.7-0.8-35.7,16.8-35.7,16.8s-2.3-19.8-20.9-16.4
		s-19.1,29.6-19.1,29.6c-9.6-15.1-14.7-33.5-17.1-44.7c1,0.2,1.9,0.5,2.8,0.7c11.8,2.9,56.8,18.5,114.5,0c2.6-0.8,5.1-1.5,7.5-2
		C584.2,660.9,577,678.5,566.1,693.1z"/>
	<path class="st10" d="M418.3,634.7c0,0,98,65.5,202.9,0C594.4,647.1,505.6,673,418.3,634.7z"/>
	<path class="st14" d="M437.6,305.6l18.7,49.7c0,0,22,25.7,22.8,31.1c0.7,5.3-12.3,17.7-27.4,14.7c13-5.7,10.1-18.9,7.2-28.3
		c-2.8-9.4-7.2-14.3-7.2-14.3L437.6,305.6z"/>
	<path class="st14" d="M579.7,325.9c0,0,3.6,33-4.2,55.5c-2.5,7.9-4.3,11.5-2.2,16.2c2.2,4.8,28.2,4.8,28.2,4.8
		s-11.4-16.5-15.2-22.1C582.4,374.6,583.2,331.3,579.7,325.9z"/>
	<path class="st14" d="M264.9,179c0,0,62-4.5,131.8,8.5C372.7,181.5,293.6,160.1,264.9,179z"/>
	<path class="st14" d="M256.9,245.2c0,0,65.2-17,109.4-17.7C343.6,227.2,289.6,223.3,256.9,245.2z"/>
	<path class="st14" d="M360.5,120.6c0,0,70.2,30.5,97.8,57.7C443.7,163.9,400.2,116.9,360.5,120.6z"/>
	<path class="st14" d="M586.2,100.7c0,0-35.7,11.1-43.1,97.4C541.9,159.4,548,90.1,586.2,100.7z"/>
	<path class="st14" d="M636.5,252.8c0,0,105-35.6,133.6-27.5C757.3,219.9,715.2,214.8,636.5,252.8z"/>
	<path class="st14" d="M674.5,288.6c0,0,114.4-9.6,131.6-4.6C798.3,276.6,759.2,271.5,674.5,288.6z"/>
	<path class="st14" d="M730.7,315.1c0,0,103.2,21.5,118.3,32.3C837.8,335.8,807.6,323.3,730.7,315.1z"/>
	<path class="st14" d="M280.4,386.4c0,0-96.4,131.9-94.2,176.9C194.4,549.2,241.1,440.4,280.4,386.4z"/>
	<path class="st14" d="M773.2,519.5c0,0,40,82.5,45.5,129.1C810.1,630.7,773.2,519.5,773.2,519.5z"/>
	<path class="st14" d="M273.1,533.5c0,0-68.1,98.3-62.3,149.4C217.3,657.8,244.9,577.3,273.1,533.5z"/>
	<path class="st1" d="M519.7,602.9c0,0-12.4-23.1-23.1-14C485.9,598,519.7,602.9,519.7,602.9z"/>
	<path class="st1" d="M532.1,602.9c0,0,12.4-23.1,23.1-14C566,598,532.1,602.9,532.1,602.9z"/>
	<path class="st1" d="M214.9,412c5.9-1.7,11.9-4,18-6.7l0.3,0l0.9-0.5c14-6.6,28.4-16.1,42.7-28.1c-37.1,52.3-64.2,95.1-80.7,127.7
		c-19.3,38.2-23.6,61.1-13.2,70.1c12.9,11.1,42.9-5,72.3-29.2c-51.1,80.8-59.8,130.3-49.6,150.4c3.3,6.6,8.9,10.2,15.6,10.4
		c8.6,0.2,18.2-5.5,27.2-15.7c-5.1,25.5-9.3,49-12.3,70c-8.2,56.5-12.9,125.1,11.2,130.7c13.7,3.2,27-16.6,34.5-38.4
		c3.1,31.6,9.5,68.2,15.2,96.5l14.9,75.2h8.8l-15.2-76.8c-7.4-37.5-16.4-89.6-16.8-124.7l-8.6-0.5c-1.1,8.8-3.1,17.4-5.7,25.5
		c-7.6,23.3-19,36.3-25,34.8c-7.9-1.9-17.8-29.4-4.6-121.1c3.8-26.4,9.3-56.7,16.5-90.1L267,644l-13.9,24.6
		c-12.2,21.6-24.8,29.1-31.8,28.9c-3.5-0.1-6.1-1.9-8-5.7c-7.9-15.5-2.4-69,68.4-170.8l-6.6-5.5c-40.9,40.9-77.8,60.2-86.6,52.5
		c-4.5-3.9-19.3-33.5,131.2-235.6l-6.4-5.8c-0.4,0.3-0.6,0.6-1.7,2C286,360.1,257,384.4,230.1,397l0,0c-5.9,2.8-11.8,5-17.6,6.6
		c-14.7,4.2-28.9,4.8-42.1,1.7c-17.4-4.1-28-13.1-29.7-25.5c-2.3-15.8,11-41.6,54.8-66.9l0.6,0l0.9-0.8c6.7-3.8,14-7.5,21.8-11.1
		l0.9-0.4c34.3-15.6,76.7-28,126.1-36.8l-1.1-8.6c-64.6,5.2-87.1-2-90-6.6c-0.2-0.3-0.3-0.4,0.1-1.1c4.6-8,43.1-22.5,111.5-20
		l0.4-8.6c-62.6-4.1-97.6-22.6-102.5-34.4c-0.9-2.2-0.7-3.9,0.8-5.5c7.1-8.1,42.8-15.3,131.7,8.5l32.1,8.6L400,179.6
		c-34-19.5-48.3-39.7-47.4-51c0.3-3.6,2.1-5.9,5.7-7.2c11.2-4.2,43.7,2,95,51.7l6.4-5.8c-21.2-26.3-39.1-52.1-51.6-74.7l-0.5-1
		c-7.5-13.6-13.1-26-16.7-36.8c-6.3-19.2-6.1-33,0.6-40c6.9-7.3,21.7-8,42.7-2.2c23.3,6.5,43.4,24,59.8,52.1
		c2.7,4.6,5.3,9.6,7.8,14.7c23.9,49.8,31.6,111.2,33.8,135.2l8.6-0.7c-1-13.5-4.8-82.1,17.6-106.2c5-5.4,10.9-8.1,18-8.1
		c5.8,0,10.1,2.1,13.1,6.3c13.5,19.1,0,77.9-15.7,122.5l8.1,3c5.8-15.3,21.9-54.3,45.2-84.8c24.6-32.3,49-44.6,72.7-36.5
		c10.7,3.6,17.4,9.2,19.9,16.4c3.4,9.9-0.8,24.1-12.1,41.1c-20.6,30.8-61.9,66.4-92.2,85.5l4.6,7.4c64.4-38.9,131.8-44.9,147-35.1
		c2.8,1.8,2.6,3.3,2.5,4c-0.9,8.3-23.3,25.8-83.4,47.7l2.2,8.3c74.8-12.3,109.5-7.5,114.6-1.3c0.3,0.4,0.3,0.5,0.2,0.8
		c-2,5.1-21.6,15.8-65.9,22.4l-33.2,5l33.3,3.6c75.1,8.2,108.2,26.3,112.2,36.5c0.6,1.4,0.4,2.4-0.6,3.5
		c-5.6,6.4-33.9,10.9-88.8-2.9l-12.4-3.1l8,10c63.5,79.3,94.9,178.7,84.4,204.5c-1.6,3.9-3.6,4.5-5,4.7c-3.9,0.5-19.9-2.2-58.8-56.1
		l-7.4,4.5c16.7,33,31.4,70.3,40.2,102.3c10.7,38.9,7.4,50.9,5.4,52.1c-0.1,0.1-9.7,3.3-47.2-55.2L763,621
		c10.5,20.1,20.7,62.9,27.3,114.5c4.9,37.8,7.2,75.9,6.5,104.7c-1.2,45.8-9.7,50.2-10.6,50.5c-2.1,0.8-7.2-2.3-14.4-13.4
		c-5.3-8.2-11.3-19.9-17.7-34.7l-13-29.9l4.7,32.3c3.1,20.9,2.8,72.4-3.1,122.6l-6.3,57h8.7l6.2-56.1c4.3-37,5.6-75,4.8-101.1
		c2.9,5.6,5.7,10.5,8.4,14.6c3.4,5.2,13.6,20.9,24.7,16.9c29.3-10.7,10.6-158.2,9.7-164.4c-4.2-32.6-9.9-61.9-16.2-84.4
		c23.5,31.6,33.3,32.8,39.2,29.4c8.9-5.1,8.5-25.9-1.4-61.9c-6-21.8-14.6-46-24.8-69.6c18.4,21,32.9,31.1,43.4,29.8
		c3.8-0.4,8.9-2.5,12-10c12.4-30.3-21-127.6-78.1-203.5c43.3,9.4,75.5,8.6,85.4-2.6c3.1-3.5,3.9-7.9,2.1-12.4
		c-6.1-15.8-41.4-30.1-92.6-38.4c26.1-6.1,42.7-14.2,46.1-22.8c1.3-3.3,0.7-6.6-1.5-9.4c-8-9.9-39.6-12.2-87-6.9
		c28.8-12.6,54-27.6,55.5-41.5c0.5-4.9-1.8-9.2-6.5-12.2c-15.1-9.7-61.2-7.3-112,13.1c21-17.7,41.7-38.6,55.2-58.7
		c13-19.5,17.5-35.9,13.1-48.7c-3.4-9.9-11.9-17.3-25.3-21.8c-27.6-9.4-55.3,3.9-82.4,39.5c-8.4,11.1-16,23.2-22.4,34.9
		c6.4-28.8,9.5-60.1-1.3-75.3c-4.7-6.6-11.5-10-20.2-10c-9.5,0-17.7,3.6-24.4,10.8c-11.8,12.6-17.1,34.9-19.4,56.8
		c-5.3-26-13.6-56.1-26.5-83c-2.6-5.3-5.3-10.5-8.1-15.3c-17.5-30.1-39.4-49-64.9-56.1c-24.6-6.8-41.9-5.3-51.3,4.5
		c-9.2,9.6-10,26-2.5,48.7c3.6,11,9.3,23.6,16.8,37.3l0.5,1c7.6,13.7,17.1,28.6,28.1,44.1c-34.7-26-60.1-31.3-72.8-26.6
		c-6.7,2.5-10.7,7.7-11.2,14.7c-0.9,10.8,7.1,27.4,30.4,45.2c-60.1-13.7-103.6-13.8-115.9,0.2c-3.6,4.1-4.4,9.3-2.2,14.5
		c4.7,11.4,24.7,24.3,59.3,32.5c-37.3,3.7-62.6,13.1-68.2,22.9c-1.9,3.4-1.9,7,0.1,10.1c5.5,8.7,25.9,11.7,48.5,12.3
		c-29.6,7.4-56.1,16.4-79,26.8l-0.9,0.4c-8.2,3.7-15.9,7.6-22.9,11.6l-1,0.6c-41.1,23.4-63.6,51.9-60.1,76.2
		c2.3,15.8,15.5,27.7,36.3,32.7C183.1,417.3,198.7,416.7,214.9,412z"/>
	<polygon class="st1" points="787.6,958.9 828.3,950.8 790.1,967.2 787.6,958.9 	"/>
	<polygon class="st1" points="269.8,976.1 228.8,953.7 273.2,968.2 269.8,976.1 	"/>
</g>
</svg>
