<?xml version="1.0" encoding="utf-8"?>
<!-- Generator: Adobe Illustrator 26.1.0, SVG Export Plug-In . SVG Version: 6.00 Build 0)  -->
<svg version="1.1" id="Слой_1" xmlns="http://www.w3.org/2000/svg" xmlns:xlink="http://www.w3.org/1999/xlink" x="0px" y="0px"
	 viewBox="0 0 1024 1024" style="enable-background:new 0 0 1024 1024;" xml:space="preserve">
<style type="text/css">
	.st0{fill:#3F2401;}
	.st1{fill:#E3E0D9;}
	.st2{opacity:0.32;fill:#3F2401;}
	.st3{fill:#11AFBB;}
	.st4{fill:#9DE2DF;}
	.st5{fill:#FFFFFF;}
	.st6{opacity:0.45;fill:#3F2401;}
	.st7{fill:#4C2205;}
	.st8{fill:#048B8E;}
	.st9{opacity:0.24;fill:#3F2401;}
	.st10{opacity:0.28;fill:#3F2401;}
	.st11{opacity:0.2;fill:#3F2401;}
</style>
<g>
	<path class="st0" d="M531.3,1014c4.3-0.1,8.5-0.2,12.7-0.3C539.8,1013.8,535.5,1013.9,531.3,1014z"/>
	<g>
		<path class="st1" d="M957.7,392.9c-18.1-14.3-41.7-22.6-67.3-24c2.8-21.1,4.3-42.4,4.3-63.7c2.4-1.9,4.8-3.6,7.4-4.9
			c35.2-18.5,75.3-64.5,95.8-97.1C1015.2,309.5,968.4,378.7,957.7,392.9z"/>
		<path class="st0" d="M957.7,397.6c-1,0-2.1-0.3-2.9-1c-17.1-13.5-40.1-21.7-64.6-23c-1.3-0.1-2.5-0.7-3.3-1.7
			c-0.8-1-1.2-2.3-1-3.6c2.8-21,4.3-42.2,4.3-63.1c0-1.4,0.6-2.7,1.7-3.6c2.7-2.2,5.4-4,8.2-5.5c33.1-17.4,73.1-62.2,94-95.4
			c1-1.6,3-2.5,4.9-2.1c1.9,0.4,3.4,1.9,3.7,3.8c17.7,108.6-31.1,180.1-41.1,193.3c-0.8,1-1.9,1.7-3.1,1.8
			C958.1,397.6,957.9,397.6,957.7,397.6z M895.7,364.6c23.1,2,44,9.4,61,21.7c12.9-18.5,49.2-79.9,38.3-170.3
			c-23,33.2-59.2,71.8-90.7,88.4c-1.6,0.9-3.3,1.9-4.9,3.1C899.3,326.4,898,345.6,895.7,364.6z"/>
		<path class="st2" d="M997.9,203.2c0,0-9.6,121.3-107.5,165.7c3.2-31.8,4.3-63.7,4.3-63.7S953.7,279,997.9,203.2z"/>
		<path class="st0" d="M969.1,324.4c-5,0-10.4-0.9-15.5-3.4c-11.6-5.7-19.1-18.3-22.4-37.4l3.7-0.6c3,17.9,9.9,29.5,20.3,34.7
			c16.1,7.9,35.5-2.2,35.7-2.3l1.7,3.3C992,318.9,981.5,324.4,969.1,324.4z"/>
		<path class="st0" d="M952.9,369.1c-6.7,0-14.2-1.3-21.6-5.1c-16.9-8.7-28.2-28.1-33.6-57.6l3.7-0.7c5.2,28.3,15.9,46.8,31.6,55
			c19.5,10.1,40.5,0.5,40.8,0.4l1.6,3.4C974.7,364.8,965.2,369.1,952.9,369.1z"/>
		<path class="st0" d="M987.9,277.3c-2.2,0-4.6-0.3-7.2-1.1c-8.6-2.6-15.9-9.7-21.7-21.2l3.3-1.7c5.3,10.5,11.8,17,19.4,19.3
			c8.6,2.6,15.7-1.3,15.8-1.3l1.8,3.3C999.1,274.8,994.5,277.3,987.9,277.3z"/>
	</g>
	<g>
		<path class="st1" d="M987.3,483.2c-21.1-9.2-46-11.3-71.1-6.1c-2.6-21.2-6.5-42.1-11.8-62.8c1.8-2.5,3.8-4.7,5.9-6.6
			c29.4-26.8,56.7-81.4,68.3-118.2C1022,387.9,994.1,466.7,987.3,483.2z"/>
		<path class="st0" d="M988.5,487.7c-1,0.3-2.1,0.2-3-0.2c-20-8.7-44.2-10.8-68.3-5.8c-1.3,0.3-2.6,0-3.7-0.8
			c-1.1-0.8-1.7-1.9-1.9-3.2c-2.5-21-6.5-42-11.7-62.2c-0.4-1.4-0.1-2.8,0.8-3.9c2-2.8,4.2-5.3,6.5-7.4
			c27.6-25.2,55.1-78.7,67-116.1c0.6-1.9,2.2-3.1,4.2-3.3c1.9-0.1,3.7,1,4.5,2.8c44.4,100.6,15.1,182.1,8.7,197.4
			c-0.5,1.2-1.4,2.1-2.6,2.5C988.9,487.6,988.7,487.7,988.5,487.7z M920.2,471.5c22.8-3.9,44.9-2,64.5,5.5
			c7.8-21.2,27.5-89.7-5.7-174.5c-13.9,38-39.2,84.4-65.6,108.5c-1.4,1.2-2.7,2.7-4,4.2C914.1,433.6,917.7,452.5,920.2,471.5z"/>
		<path class="st2" d="M978.6,289.4c0,0,21.2,119.8-62.4,187.6c-4.9-31.6-11.8-62.8-11.8-62.8S954.8,374,978.6,289.4z"/>
		<path class="st0" d="M981.2,414c-4.9,1.3-10.3,1.8-15.9,0.6c-12.6-2.6-23.1-12.9-31-30.5l3.4-1.5c7.4,16.5,17,26.1,28.4,28.4
			c17.5,3.6,33.8-11.1,34-11.3l2.5,2.8C1002,402.9,993.2,410.9,981.2,414z"/>
		<path class="st0" d="M976.7,461.4c-6.5,1.7-14,2.4-22.2,0.5c-18.5-4.2-34.3-20.1-47-47.3l3.4-1.6c12.1,26.1,27.1,41.3,44.4,45.2
			c21.5,4.9,39.4-9.7,39.5-9.9l2.4,2.9C996.7,451.7,988.6,458.3,976.7,461.4z"/>
		<path class="st0" d="M987.6,363.7c-2.1,0.6-4.5,0.9-7.2,0.8c-9-0.3-17.8-5.4-26.3-15l2.8-2.5c7.8,8.8,15.7,13.4,23.6,13.8
			c9,0.4,14.9-5.2,14.9-5.3l2.6,2.7C997.7,358.4,993.9,362,987.6,363.7z"/>
	</g>
	<g>
		<path class="st1" d="M71.2,392.9c18.1-14.3,41.7-22.6,67.3-24c-2.8-21.1-4.3-42.4-4.3-63.7c-2.4-1.9-4.8-3.6-7.4-4.9
			c-35.2-18.5-75.3-64.5-95.8-97.1C13.7,309.5,60.5,378.7,71.2,392.9z"/>
		<path class="st0" d="M71.2,397.6c-0.2,0-0.4,0-0.6,0c-1.2-0.2-2.4-0.8-3.1-1.8c-10-13.2-58.8-84.6-41.1-193.3
			c0.3-1.9,1.8-3.4,3.7-3.8c1.9-0.4,3.8,0.4,4.9,2.1c20.9,33.2,60.9,78,94,95.4c2.7,1.4,5.5,3.3,8.2,5.5c1.1,0.9,1.7,2.2,1.7,3.6
			c0,20.9,1.5,42.1,4.3,63.1c0.2,1.3-0.2,2.6-1,3.6c-0.8,1-2,1.6-3.3,1.7c-24.9,1.3-47.3,9.2-64.6,23
			C73.2,397.2,72.2,397.6,71.2,397.6z M33.8,216C23,306.5,59.2,367.8,72.1,386.3c17.1-12.2,38-19.7,61-21.7
			c-2.4-19-3.6-38.2-3.7-57.1c-1.6-1.2-3.3-2.2-4.9-3.1C93,287.8,56.8,249.3,33.8,216z"/>
		<path class="st2" d="M30.9,203.2c0,0,9.6,121.3,107.5,165.7c-3.2-31.8-4.3-63.7-4.3-63.7S75.2,279,30.9,203.2z"/>
		<path class="st0" d="M59.8,324.4c-12.4,0-22.9-5.5-23.5-5.8l1.7-3.3c0.2,0.1,19.7,10.2,35.7,2.3c10.4-5.2,17.3-16.8,20.3-34.7
			l3.7,0.6c-3.3,19.1-10.8,31.7-22.4,37.4C70.2,323.5,64.8,324.4,59.8,324.4z"/>
		<path class="st0" d="M76,369.1c-12.4,0-21.8-4.3-22.4-4.6l1.6-3.4c0.2,0.1,21.2,9.7,40.7-0.4c15.8-8.2,26.4-26.7,31.6-55l3.7,0.7
			c-5.4,29.5-16.8,48.9-33.6,57.6C90.2,367.8,82.6,369.1,76,369.1z"/>
		<path class="st0" d="M40.9,277.3c-6.6,0-11.2-2.6-11.4-2.7l1.8-3.3l-0.9,1.6l0.9-1.6c0.1,0,7.1,3.9,15.8,1.3
			c7.5-2.3,14.1-8.8,19.4-19.3l3.3,1.7c-5.8,11.5-13.1,18.6-21.7,21.2C45.6,277.1,43.1,277.3,40.9,277.3z"/>
	</g>
	<g>
		<path class="st1" d="M37,475.8c21.1-9.2,46-11.3,71.1-6.1c2.6-21.2,6.5-42.1,11.8-62.8c-1.8-2.5-3.8-4.7-5.9-6.6
			C84.7,373.4,57.3,318.8,45.7,282C2.3,380.5,30.2,459.3,37,475.8z"/>
		<path class="st0" d="M35.3,480.1c-1.2-0.5-2.1-1.4-2.6-2.5c-6.3-15.3-35.6-96.8,8.7-197.4c0.8-1.8,2.6-2.9,4.5-2.8
			c1.9,0.1,3.6,1.4,4.2,3.3c11.9,37.5,39.4,90.9,67,116.1c2.3,2.1,4.5,4.6,6.5,7.4c0.8,1.1,1.1,2.6,0.8,3.9
			c-5.2,20.2-9.1,41.1-11.7,62.2c-0.2,1.3-0.8,2.5-1.9,3.2c-1.1,0.8-2.4,1-3.7,0.8c-24.1-5-48.3-2.9-68.3,5.8c-1,0.4-2,0.5-3,0.2
			C35.6,480.2,35.5,480.2,35.3,480.1z M114.9,407.9c-1.3-1.6-2.6-3-4-4.2c-26.4-24.1-51.7-70.6-65.6-108.5
			c-33.2,84.7-13.5,153.3-5.7,174.5c19.6-7.5,41.7-9.4,64.5-5.5C106.6,445.1,110.2,426.2,114.9,407.9z"/>
		<path class="st2" d="M45.7,282c0,0-21.2,119.8,62.4,187.6c4.9-31.6,11.8-62.8,11.8-62.8S69.5,366.5,45.7,282z"/>
		<path class="st0" d="M43.2,406.6c4.9,1.3,10.3,1.8,15.9,0.6c12.6-2.6,23.1-12.9,31-30.5l-3.4-1.5c-7.4,16.5-17,26.1-28.4,28.4
			c-17.5,3.6-33.8-11.1-34-11.3l-2.5,2.8C22.4,395.5,31.2,403.4,43.2,406.6z"/>
		<path class="st0" d="M47.7,454c6.5,1.7,14,2.4,22.2,0.5c18.5-4.2,34.3-20.1,47-47.3l-3.4-1.6c-12.1,26.1-27.1,41.3-44.4,45.2
			c-21.5,4.9-39.4-9.7-39.5-9.9l-2.4,2.9C27.7,444.3,35.7,450.8,47.7,454z"/>
		<path class="st0" d="M36.8,356.3c2.1,0.6,4.5,0.9,7.2,0.8c9-0.3,17.8-5.4,26.3-15l-2.8-2.5c-7.8,8.8-15.7,13.4-23.6,13.8
			c-9,0.4-14.9-5.2-14.9-5.3l-2.6,2.7C26.6,351,30.4,354.6,36.8,356.3z"/>
	</g>
	<path class="st3" d="M1013.6,746.1C1013.6,746.1,1013.6,746.1,1013.6,746.1c-0.1,1.9-0.3,3.8-0.5,5.7c-0.1,0.7-0.1,1.4-0.2,2.1
		c-0.1,1.4-0.3,2.8-0.4,4.2c-0.2,2.2-0.4,4.4-0.7,6.6c-1.2,11.5-2.7,22.8-4.3,34c-0.1,0.1-0.1,1.1-0.2,1.2
		c-11.5,76.3-33,168.6-46.7,224H66.2c-29.8-91.3-44.3-200.3-49.7-249.2c0,0,0,0,0,0c-0.1-1.2-0.2-2.4-0.4-3.6
		c-0.2-1.6-0.3-3-0.5-4.5c-0.3-2.8-0.6-5.6-0.9-8.5c-0.6-6.1-0.9-9.4-0.9-9.4c-2.4-28.5-3.7-58.3-3.7-89.4
		c0-126,38.3-242.1,102.8-335.2c-17.1-23.2-27.5-53.9-27.5-87.6c0-72.3,47.9-130.9,107.1-130.9c18.7,0,36.3,5.9,51.6,16.2
		c16,10.8,29.4,26.4,39.1,45.2c22.1-12.5,45.2-23.3,69.1-32.2c17.6-6.5,35.6-12.1,54-16.5c26.3-6.3,53.3-10.3,81-11.9
		c8.8-0.5,17.6-0.8,26.5-0.8c14.6,0,29,0.7,43.2,2.1c28.3,2.6,56,7.8,82.7,15.5c18.5,5.2,36.5,11.5,54,18.9
		c19.6,8.2,38.6,17.8,56.9,28.5c11.1-23.2,27.8-41.9,47.9-53.1c13.6-7.6,28.7-11.9,44.6-11.9c59.1,0,107,58.6,107,130.9
		c0,36.4-12.2,69.4-31.8,93.1c62.1,92.1,98.9,206.1,98.9,329.7C1017.3,689.3,1016,718.2,1013.6,746.1z"/>
	<path class="st4" d="M128.5,131.8l45.5,40l-5.8,101.5l-65.5,38.6C102.8,311.9,50.9,209.9,128.5,131.8z"/>
	<path class="st4" d="M903.8,134.4l-45.5,40l5.8,101.5l65.5,38.6C929.5,314.5,981.4,212.6,903.8,134.4z"/>
	<path class="st4" d="M768.8,875.4c0,0-59.4,46.9-67.4,113.8c-0.9,0.3-1.8,0.5-2.7,0.8c-7.7,2.2-15.5,4.2-23.3,6
		c-2.6,0.6-5.3,1.3-8,1.9c-7.9,1.8-15.8,3.4-23.8,4.9c-0.1,0-0.3,0.1-0.5,0.1c-2.6,0.5-5.3,1-7.9,1.4c0,0,0,0,0,0
		c-2.7,0.5-5.4,0.9-8.1,1.4c-5.4,0.9-10.8,1.7-16.3,2.4c-5.5,0.8-11,1.4-16.6,2c-2.8,0.3-5.5,0.6-8.3,0.9c-2.8,0.3-5.6,0.5-8.3,0.7
		c-2.6,0.2-5.3,0.4-8,0.6c-0.2,0-0.5,0.1-0.7,0.1c-2.3,0.2-4.6,0.3-6.9,0.4c-0.7,0.1-1.3,0.1-2,0.1c-2.5,0.1-5,0.3-7.5,0.4
		c-0.9,0.1-1.8,0.1-2.8,0.1c-1.9,0.1-3.8,0.1-5.7,0.2c-1.8,0.1-3.5,0.1-5.2,0.1c-0.4,0-0.7,0-1.1,0c-2.1,0.1-4.2,0.1-6.4,0.1
		c-3,0-5.9,0.1-8.9,0.1c-3.1,0-6.3,0-9.4-0.1c-22.8-0.3-45.3-1.8-67.5-4.4c-37.5-4.4-73.9-12-109.2-22.4c-1.1-0.3-2.2-0.6-3.3-1
		c0.7-14.8-1.5-35.5-15.1-54.8c0,0,0-0.1,0-0.1c-11.7-16.7-31.9-32.4-65.9-42.4C237.2,810,238.6,757,238.6,757l3-1.3
		c0.2-0.1,0.5-0.2,0.8-0.3C268,744.9,416.5,685,499.8,685c84.2,0,239.2,53.8,283,73.1c3.7,1.6,6.6,3,8.6,4.1
		C792.2,817.9,768.8,875.4,768.8,875.4z"/>
	<path class="st4" d="M297.4,159.4c0,0-0.5,53.9,36.3,75.9S446.5,269.5,456,342.7c20.4-0.1,20.4-0.1,20.4-0.1s33.2-55.8-47.3-103.9
		c-63.2-37.7-10.6-121.8-10.6-121.8S320,144,297.4,159.4z"/>
	<path class="st4" d="M462.5,114.5c0,0-32.1,38-14.8,93.7c17.3,55.6,66.9,48.5,45.8,134.6c20.8-0.1,20.8-0.1,20.8-0.1
		s42.4-42.6,27.1-100.6s4-115.3,45.4-126.1C551.7,107.1,504.7,100,462.5,114.5z"/>
	<path class="st4" d="M636.2,127.7c0,0-66,0-59.8,80.4c5.1,65.7-15.7,114.5-45.5,134.6c24.9-1,29.6-1,29.6-1s37.5-4.6,54.8-51.3
		s52.8-126.5,121.7-126C707.2,142.8,636.2,127.7,636.2,127.7z"/>
	<path class="st4" d="M977.1,445.3c0,0-58.6,5.3-66.3,108.8c-7.7,103.5-14.2,203.7-100.7,227c43.2,3.9,93.2-11.4,113.2-63.7
		c27.6-72.3,62.9-111.4,87-104.6C1009.4,562.6,1001.6,503.5,977.1,445.3z"/>
	<path class="st4" d="M40.2,498.4c0,0,58.8,1.6,72.8,104.5s26.7,202.4,114.4,220.3c-42.9,6.6-93.8-5.6-116.9-56.5
		c-32-70.5-69.6-107.3-93.3-99C15.2,617.5,19.3,558.1,40.2,498.4z"/>
	<path class="st4" d="M727.2,1024H314.5c-0.1-1.8-0.1-3.6-0.1-5.6c19.9-19,15.5-54,15.5-54s340.9-7.4,374.5,11.9
		C703.2,996,719.9,1016.2,727.2,1024z"/>
	<ellipse class="st0" cx="831.8" cy="242" rx="73.8" ry="91.6"/>
	<ellipse class="st0" cx="209.4" cy="242" rx="73.8" ry="91.6"/>
	<path class="st1" d="M404.8,7.3c-22.1,31.5-48.9,86.4-52.3,126.2c0,0.5-0.1,0.9-0.1,1.4c-23.9,8.9-47,19.7-69.1,32.2
		c-9.7-18.8-23.1-34.4-39.1-45.2l0.2-1.3C244.4,120.6,287.4,35.4,404.8,7.3z"/>
	<path class="st1" d="M557,107.8c5.1-32.7,1.2-75.3-5.4-103.1c56.4,39.8,79.2,89.2,88.2,118.6C613,115.7,585.4,110.4,557,107.8z"/>
	<path class="st1" d="M487.4,106.5c-27.6,1.6-54.7,5.6-81,11.9c9.9-29.8,33.2-76,86.6-113.7C486.5,32.2,482.6,74,487.4,106.5z"/>
	<path class="st0" d="M283.3,171.8c-0.4,0-0.9-0.1-1.3-0.2c-1.2-0.4-2.2-1.2-2.8-2.3c-9.3-18.1-22.3-33.1-37.6-43.4
		c-1.5-1-2.3-2.8-2-4.5l0.2-1.3c0.1-0.5,0.2-1,0.5-1.5C242,115,285.6,31,403.8,2.8c1.9-0.4,3.8,0.3,4.9,1.9c1.1,1.6,1.1,3.7,0,5.3
		c-22.5,32.1-48.2,86.5-51.5,123.9c0,0.4-0.1,0.9-0.2,1.4c-0.2,1.7-1.4,3.3-3,3.9c-23.5,8.7-46.5,19.5-68.4,31.9
		C284.9,171.6,284.1,171.8,283.3,171.8z M249.9,120.3c14,10.2,26.1,24,35.2,40.5c20.2-11.2,41.4-21,62.9-29.2
		c3.6-35.5,24.8-83,46.1-116.6C299.8,41.7,257.8,106.7,249.9,120.3z"/>
	<path class="st0" d="M639.8,128c-0.4,0-0.9-0.1-1.3-0.2c-26.7-7.6-54.3-12.8-81.9-15.3c-1.3-0.1-2.5-0.8-3.2-1.8
		c-0.8-1-1.1-2.3-0.9-3.6c5.1-32.7,0.8-75.4-5.3-101.3c-0.4-1.9,0.3-3.9,1.9-5c1.6-1.1,3.7-1.1,5.3,0
		c58.8,41.5,81.6,93.7,89.9,121.1c0.5,1.6,0.1,3.4-1.1,4.6C642.2,127.5,641,128,639.8,128z M562.3,103.6
		c23.6,2.4,47.2,6.8,70.3,12.8c-9.2-25.8-29.6-66.1-73.9-100.7C563.4,41.4,565.9,75.1,562.3,103.6z"/>
	<path class="st0" d="M406.4,123.1c-1.3,0-2.5-0.5-3.4-1.5c-1.1-1.3-1.5-3-1-4.6c10.7-32.1,34.7-78.2,88.3-116.1
		c1.6-1.1,3.7-1.1,5.3,0c1.6,1.1,2.4,3.1,1.9,5c-6.2,26.3-10.4,67.4-5.5,100.1c0.2,1.3-0.2,2.6-1,3.6c-0.8,1-2,1.6-3.3,1.7
		c-26.9,1.5-53.9,5.5-80.2,11.8C407.1,123.1,406.7,123.1,406.4,123.1z M485.9,15.7C445.1,47.5,424.3,84,413.6,112
		c22.5-5,45.5-8.2,68.5-9.8C478.8,74,481.3,40.9,485.9,15.7z"/>
	<ellipse class="st5" cx="233.2" cy="217.9" rx="34.9" ry="41.2"/>
	<ellipse class="st5" cx="814.5" cy="217.9" rx="34.9" ry="41.2"/>
	<path class="st6" d="M707.7,683.6c-40.3,0-80.8-9.2-118.2-17.7c-34.7-7.9-67.5-15.3-95.9-14.7c-20.6,0.4-46.5,3.9-73.8,7.6
		c-81,11-181.7,24.6-243.3-26.4c-15-12.4-27-26.7-35.7-42.6c-17.2-31.3-21.2-69-11.4-106.1c9.3-34.9,29.8-66.8,57.8-89.9
		c23.4-19.3,60.7-26.5,105.2-20.3c34.2,4.8,70.6,17.4,102.6,35.5c1.9,1.1,4.1,2.4,6.5,3.9c29.2,17.6,97.5,58.8,228-4
		c27.3-13.2,50.4-23.2,70.7-30.7c88.4-32.3,121.3-14.4,154.4,32.5c27,38.3,31,114,9.1,172.3l0,0c-15.3,40.8-41.6,70.2-76.1,85.2
		C761.7,679.5,734.8,683.6,707.7,683.6z M496.8,640c28.9,0,61.1,7.3,95.2,15c61,13.8,130.1,29.5,191.2,2.9
		c40-17.4,60.2-52.4,70.1-78.8l5.2,2l-5.2-2c22.8-60.8,13.8-131.4-7.7-161.9c-30.4-43.2-59.3-58.4-141.4-28.4
		c-20,7.3-42.8,17.2-69.7,30.2c-54.1,26.1-98,34.9-133.3,34.9c-53.3,0-86.8-20.2-105.3-31.3c-2.3-1.4-4.4-2.7-6.3-3.7
		c-30.8-17.5-65.9-29.6-98.7-34.2c-41.3-5.8-75.6,0.5-96.5,17.8c-47.9,39.6-79.6,116.8-43.8,181.9c8,14.6,19.1,27.8,33,39.3
		c57.8,47.9,155.9,34.6,234.7,23.9c27.7-3.8,53.8-7.3,75.1-7.7C494.5,640,495.6,640,496.8,640z"/>
	<path class="st7" d="M857.4,574c-13.3,35.4-36.8,66.3-73.1,82c-97.9,42.5-210.6-19.2-291.9-17.5c-81.3,1.7-233,49.2-313.5-17.5
		c-15-12.4-26.3-26.3-34.3-41c-35.3-64.3-8.7-144.5,45.1-189c23.4-19.3,60.5-24.7,100.9-19c33.3,4.6,68.8,16.8,100.7,34.9
		c26.5,15,96.2,69.2,239.7,0c26.9-13,50.1-23.1,70.2-30.4C787.6,344.9,818,363,849,407C873,441,879.9,514,857.4,574z"/>
	<path class="st8" d="M857.4,574c-13.3,35.4-36.8,66.3-73.1,82c-97.9,42.5-210.6-19.2-291.9-17.5c-81.3,1.7-233,49.2-313.5-17.5
		c-15-12.4-26.3-26.3-34.3-41c8-11.8,22.6-23.3,48.8-20.2c50.2,6,75.2,45.3,87.8,41.9c12.6-3.4,57.3,0,61.2,4.3
		c3.8,4.3,48.5,0,48.5,0s34.3-10.3,55,0c20.7,10.3,98.1,1.9,98.1,1.9s82.6-2.8,97.1,7.5c14.5,10.3,50.4-14.5,50.4-14.5
		s16-27.4,57.9-17.1C783.5,592.2,831.8,564.7,857.4,574z"/>
	<path class="st8" d="M701.1,376.5c-5.2,18.1-13.2,40.5-22.8,49.6c-17.1,16.1-84.9,22-113.4,25.4c-28.5,3.3-79.6,4.7-119.3,9.3
		c-39.7,4.6-58.3-31.4-99.5-36.7c-27.2-3.6-45.9-32.6-55.5-51.8c33.3,4.6,68.8,16.8,100.7,34.9c26.5,15,96.2,69.2,239.7,0
		C657.8,393.9,680.9,383.9,701.1,376.5z"/>
	<g>
		<path class="st1" d="M292,617.9c-20.5,16.4-44.7,15.4-64.6,7.3c-17.5-7.2-31.6-19.9-36.9-31.5c-54.9-119.5,89.8-178.3,91.7-179.1
			c0,0,0,0,0,0S330.4,587.2,292,617.9z"/>
		<path class="st1" d="M351.4,642.3c-50.1-5.4-67.2-61.4,26.6-124.5c0,0,0,0,0,0l0,0c0.5,1.8,15.6,58,24.2,78.6
			C411,617.3,401.4,647.8,351.4,642.3z"/>
		<path class="st1" d="M451.2,634.8c-9-1.3-18.1-4.8-25.9-11.4c-29.4-24.5,16.3-67.7,28.9-76.7c0,0,35.7,41.8,41.6,62.7
			C500.2,624.7,476,638.3,451.2,634.8z"/>
		<path class="st1" d="M582,622.1c-13.3,8-26.3,11-37.8,11c-23.3-0.1-40.5-12.9-41.4-24.2c-1.4-16.8,33.9-59,33.9-59
			C564.8,565.3,606,605.7,582,622.1z"/>
		<path class="st1" d="M662.5,644c-59.7,4.5-68.7-26.3-56.1-42.7c12.7-16.4,34.8-62.7,34.8-62.7s0,0,0,0
			C715.9,584,722.2,639.4,662.5,644z"/>
		<path class="st1" d="M788.3,628.7c-0.8,0.3-1.6,0.6-2.4,0.9c-53.3,19-80.5-34.2-78.2-57c2.3-22.8,14-124.8,14-124.8
			s56.1-0.4,93.1,41.8C851.3,531.3,839.5,608.3,788.3,628.7z"/>
		<path class="st1" d="M649.9,515.8c0,0-42.6-74.1-42.6-80.9c0-4.3,16.6-21.3,38.1-29.3c12.1-4.6,25.9-6.3,39.1-1.4
			C699.5,410.9,691.7,470.8,649.9,515.8z"/>
		<path class="st1" d="M554,535.2c0,0-42.6-51.9-39-70.7c1.6-8.5,16.3-16.6,32.6-21c19.6-5.4,41.4-5.6,45.8,4.7
			C601.3,466.9,554,535.2,554,535.2z"/>
		<path class="st1" d="M432.2,529.6c0,0-25.5-83.7-12.7-89.8c6.4-3.1,23.1-1.1,38.8,3.6h0c15.5,4.7,30,12.1,33.2,20.2
			C497.9,480.1,432.2,529.6,432.2,529.6z"/>
		<path class="st1" d="M399.2,439.8c-1.2,25.9-53.7,54.7-61.3,58.6c0,0-18.6-59.3,0-83.8c10.2-13.3,27.8-12.3,41.6-4.5
			C391,416.7,399.8,428,399.2,439.8z"/>
		<path class="st0" d="M255.2,632.8c-11.5,0-21.6-3.1-28.5-5.9c-17.2-7.1-32.1-19.8-37.9-32.4c-14.9-32.3-16.6-63.3-5.1-92
			c23.6-59.1,95-88.5,97.8-89.6c0.4-0.2,0.8-0.2,1.2-0.1c0.6,0.2,1.2,0.7,1.3,1.3c2,7.1,48,174.1,9.1,205.2c0,0,0,0,0,0
			C280.4,629.6,267.1,632.8,255.2,632.8z M281,417.2c-11.6,5-72.6,33.6-93.8,86.7c-11.1,27.7-9.4,57.6,5,89
			c5.3,11.6,19.8,23.9,35.9,30.5c13.3,5.5,39.2,11.8,62.7-7C325.6,588.6,286.2,436.7,281,417.2z M292,617.9L292,617.9L292,617.9z"/>
		<path class="st0" d="M362.7,644.8c-3.6,0-7.4-0.2-11.6-0.7l0,0c-21.7-2.4-37.1-13.9-41.3-30.8c-6.9-28.4,17.5-63.7,67-97.1
			c0.4-0.3,0.9-0.4,1.4-0.3c0.6,0.1,1.1,0.5,1.4,1c0.1,0.1,0.1,0.3,0.2,0.4c0.1,0.6,15.6,57.8,24.2,78.3c4.9,11.8,3.8,24.8-3.1,34
			C395.5,636.9,384.6,644.8,362.7,644.8z M376.9,520.8c-46.1,31.5-69.7,65.7-63.4,91.6c3.8,15.3,18,25.8,38,28c0,0,0,0,0,0
			c28.1,3.1,40.7-5.4,46.3-13c6-8.1,7-19.7,2.6-30.3C392.7,578.6,379.9,532.1,376.9,520.8z"/>
		<path class="st0" d="M459.2,637.2c-2.7,0-5.5-0.2-8.2-0.6c-10.1-1.4-19.4-5.5-26.9-11.8c-7.2-6-10.7-13.5-10.3-22.3
			c0.9-24.9,31.3-51.6,39.4-57.4c0.8-0.6,1.9-0.4,2.5,0.3c1.5,1.7,36.1,42.3,42,63.4c1.5,5.3,0.1,10.6-4,15.4
			C486.6,632.3,473.1,637.2,459.2,637.2z M454,549.2c-9.1,7-35.7,31.6-36.5,53.5c-0.3,7.6,2.7,14.1,9,19.3c7,5.8,15.6,9.6,25,10.9
			l0,0c15.3,2.2,31.8-2.5,39.3-11.2c2.3-2.6,4.7-6.8,3.3-11.9C488.9,591.7,460,556.5,454,549.2z"/>
		<path class="st0" d="M544.4,635c0,0-0.1,0-0.1,0c-24.2-0.1-42.2-13.7-43.2-25.9c-1.4-17.4,32.9-58.7,34.3-60.4
			c0.6-0.7,1.5-0.9,2.3-0.4c21.8,12,52.4,39.4,53.4,59.8c0.3,6.5-2.4,11.8-8,15.6c0,0-0.1,0-0.1,0.1
			C570.5,631.2,557.5,635,544.4,635z M537.3,552.3c-5.6,6.9-33.7,42.2-32.5,56.5c0.9,10.6,17.9,22.4,39.5,22.5c0,0,0.1,0,0.1,0
			c12.4,0,24.7-3.6,36.6-10.7c4.5-3.1,6.6-7.1,6.3-12.3C586.5,589.9,557.7,563.9,537.3,552.3z M582,622.1L582,622.1L582,622.1z"/>
		<path class="st0" d="M651,646.3c-32.7,0-44.4-12-48.5-19.6c-4.5-8.5-3.6-18.7,2.5-26.5c12.4-16,34.4-61.9,34.6-62.3
			c0.3-0.5,0.8-0.9,1.4-1c0.5-0.1,1,0,1.4,0.3c43.1,26.3,67.2,58.7,61.5,82.8c-3.6,15-18.2,24.3-41.2,26l0,0
			C658.5,646.1,654.6,646.3,651,646.3z M662.5,644L662.5,644L662.5,644z M642.1,541.3c-4.3,8.9-22.8,46.5-34.1,61.2
			c-5.2,6.7-6,15.3-2.2,22.5c7,13.1,27.7,19.4,56.7,17.2l0,0c21.2-1.6,34.7-9.8,37.8-23.1C705.5,596.8,682.7,566.5,642.1,541.3z"/>
		<path class="st0" d="M764.1,635.6c-14.7,0-25.7-5.7-33.1-11.6c-17.4-13.7-26.6-37.4-25.2-51.5c2.2-22.6,13.9-123.8,14-124.8
			c0.1-0.9,0.9-1.6,1.8-1.7c0.6,0,57.4,0,94.6,42.4c19,21.6,26.2,54.1,18.9,84.8c-6.5,27.2-23.3,48.1-46.1,57.2
			c-0.8,0.3-1.7,0.7-2.5,1C778.3,634.4,770.8,635.6,764.1,635.6z M723.3,449.8c-1.5,13.4-11.7,102.1-13.8,123
			c-1.3,13.1,7.4,35.3,23.8,48.2c10.1,8,27.4,15.6,52,6.9c0.8-0.3,1.6-0.6,2.3-0.9c0,0,0,0,0,0c21.7-8.7,37.6-28.6,43.8-54.6
			c7-29.6,0.1-60.8-18.1-81.5C780.8,453.8,732.7,450.2,723.3,449.8z"/>
		<path class="st0" d="M649.9,517.7c-0.1,0-0.1,0-0.2,0c-0.6-0.1-1.1-0.4-1.4-0.9c-7.2-12.4-42.9-74.9-42.9-81.8
			c0-6.2,18.4-23.2,39.3-31.1c14.6-5.5,28.1-6,40.4-1.4c3.7,1.7,6.3,5.7,7.5,11.7c3.9,19.4-6.5,65.5-41.3,102.9
			C650.9,517.4,650.4,517.7,649.9,517.7z M667.7,403.1c-6.9,0-14.1,1.4-21.7,4.3c-21.3,8-36.8,24.2-36.9,27.6
			c0.1,4.7,24.8,49.2,41.1,77.7c32.5-36.1,42.4-79.5,38.7-97.8c-1-4.8-2.8-7.9-5.2-9C678.6,404,673.3,403.1,667.7,403.1z"/>
		<path class="st0" d="M554,537.1c-0.6,0-1.1-0.2-1.4-0.7c-1.8-2.1-43.2-52.8-39.4-72.3c2-10.2,18.8-18.3,34-22.5
			c19.7-5.4,43.1-5.9,48,5.7c8.3,19.5-37.6,86.1-39.6,88.9C555.2,536.7,554.6,537,554,537.1C554,537.1,554,537.1,554,537.1z
			 M572.4,441.7c-7.5,0-16.3,1.3-24.4,3.5c-17.4,4.8-29.9,12.6-31.3,19.6c-2.7,14.1,24.5,51.6,37.1,67.3
			c13.8-20.2,43.8-69.1,37.8-83.2C589.5,443.8,581.9,441.7,572.4,441.7z"/>
		<path class="st0" d="M432.2,531.5c-0.2,0-0.4,0-0.6-0.1c-0.6-0.2-1-0.6-1.2-1.2c-0.1-0.2-6.4-21.3-11.2-42.8
			c-8.8-40.2-4.6-47.4-0.6-49.3c7.6-3.6,25.5-0.9,40,3.5c0,0,0.1,0,0.1,0c8.9,2.7,30.1,10.2,34.4,21.4c6.7,17.2-53,62.9-59.9,68.1
			C433,531.3,432.6,531.5,432.2,531.5z M428.8,440.2c-3.7,0-6.6,0.4-8.5,1.3c-7.6,3.6,2.8,51,12.9,85c24.9-19.1,60.7-51.5,56.5-62.1
			c-2.5-6.6-14.8-13.9-31.9-19.1c0,0-0.1,0-0.1,0C447,442,436.3,440.2,428.8,440.2z"/>
		<path class="st0" d="M338,500.3c-0.2,0-0.5,0-0.7-0.1c-0.5-0.2-0.9-0.6-1.1-1.2c-0.8-2.5-18.7-60.5,0.3-85.5c11-14.5,30-12.9,44-5
			c13.1,7.4,21.2,19.7,20.6,31.3v0c-1.3,27.3-56,56.9-62.3,60.2C338.6,500.2,338.3,500.3,338,500.3z M359.3,406.3
			c-7.5,0-14.7,2.7-19.8,9.5c-15.8,20.8-3.4,69.1-0.3,79.9c22.1-12,57.3-36.1,58.3-56c0.5-10.2-6.9-21.2-18.8-27.9
			C372.7,408.4,365.9,406.3,359.3,406.3z M399.2,439.8L399.2,439.8L399.2,439.8z"/>
		<path class="st3" d="M738.6,306.7c0,0,101.3-50.4,146.2,59.4C827.4,359,738.6,306.7,738.6,306.7z"/>
		<path class="st3" d="M300.5,309.6c0,0-101.3-50.4-146.2,59.4C211.7,361.9,300.5,309.6,300.5,309.6z"/>
		<path class="st0" d="M109.1,308c7.4,14.7,18.6,27.3,30.7,38.4c5.7,5.1,11.9,9.8,18.2,14.2c-11.2-5.4-22-11.9-31.8-19.6
			c-10-8-19.5-16.9-26.9-27.5C95.2,306.6,105.5,300.8,109.1,308L109.1,308z"/>
		<path class="st0" d="M932.4,320.1c-12.8,15.2-28.1,27.8-44.6,38.5c-5.4,3.6-11,6.7-16.7,9.8c15.4-11.3,29.4-24.6,41.3-39.5
			c3.8-4.8,7.7-10.1,10.8-15.2C927.5,307,937.1,313.7,932.4,320.1L932.4,320.1z"/>
		<path class="st0" d="M285.4,161.1c8.4,26.1,10.8,53.5,11.8,80.7c0,0,0.2,11.5,0.2,11.5c-0.8-6.8-1.9-16.2-2.9-22.9
			c-3-18.8-7.1-37.5-13.4-55.5c-1.3-3.6-2.7-7.2-4.2-10.4C274.2,158.7,283.1,155,285.4,161.1L285.4,161.1z"/>
		<path class="st0" d="M759.9,165.2c-11.1,19.4-16,42-18.5,64.1c-1.5,13.7-1.6,27.6-1,41.3c-2.7-18.3-4-37-2.8-55.6
			c1.4-18.9,4.5-38.2,12.6-55.6C754.1,152.6,764,158.5,759.9,165.2L759.9,165.2z"/>
		<path class="st2" d="M402.9,10.2c2.4-2.6-89.2,60.9-116.2,154.1c34.2-15.5,65.7-29.4,65.7-29.4S365.1,51.3,402.9,10.2z"/>
		<path class="st2" d="M489.3,7.3c0.2-1.2-27.9,43.3-32.8,102c20.5-2.1,30.8-2.8,30.8-2.8S486.8,23.1,489.3,7.3z"/>
		<path class="st2" d="M551.6,4.7c0,0,33.6,38.8,37,107.2c-23.1-3.2-31.6-4-31.6-4S571.9,41.2,551.6,4.7z"/>
		<path class="st0" d="M755.8,303.7c23-4.3,72.7-6.6,112.2,39.8c1.4,1.7,4.1,0.2,3.6-1.9c-12.1-43.3-47.9-81.5-117.2-41.8
			C752.4,301,753.5,304.1,755.8,303.7z"/>
		<path class="st0" d="M284.1,305c-23-4.3-72.7-6.6-112.2,39.8c-1.4,1.7-4.1,0.2-3.6-1.9c12.1-43.3,47.9-81.5,117.2-41.8
			C287.5,302.4,286.4,305.5,284.1,305z"/>
		<path class="st0" d="M343.5,97.6c-10.5,0-19.1-2.8-25.5-8.5c-14.9-13.1-13-36.2-12.9-37.2l3.7,0.3c0,0.2-1.8,22.2,11.6,34
			c8.8,7.7,22.1,9.5,39.7,5.5l0.8,3.6C354.6,96.9,348.8,97.6,343.5,97.6z"/>
		<path class="st0" d="M325.7,138.5c-16.1,0-29.1-4.1-38.7-12.2c-18.2-15.4-17.4-39.6-17.4-40.6l3.7,0.2c0,0.2-0.7,23.4,16.1,37.6
			c13.6,11.5,34.7,14.2,62.7,8.2l0.8,3.7C343,137.5,333.9,138.5,325.7,138.5z"/>
		<path class="st0" d="M376.4,58.7c-12.8-1-22.1-5-27.8-12c-6.7-8.2-5.7-17.5-5.6-17.9l3.7,0.5c0,0.1-0.9,8.1,4.9,15.1
			c5,6.1,13.5,9.7,25.2,10.6L376.4,58.7z"/>
		<g>
			<path class="st1" d="M798.5,117.6c-20.1,11.3-36.8,30-47.9,53.2c-18.3-10.8-37.3-20.3-56.9-28.6c-0.9-3-1.5-5.9-1.7-8.7
				c-3.5-39.7-30.2-94.6-52.3-126.2C744,32.2,789.6,102.3,798.5,117.6z"/>
			<path class="st0" d="M750.6,175.5c-0.8,0-1.6-0.2-2.4-0.6c-18.2-10.7-37.2-20.2-56.3-28.3c-1.3-0.5-2.3-1.6-2.7-3
				c-1-3.3-1.6-6.6-1.9-9.7c-3.3-37.4-29-91.7-51.5-123.9c-1.1-1.6-1.1-3.7,0-5.3c1.1-1.6,3-2.4,4.9-1.9
				C747.4,28.2,794.3,101,802.6,115.3c0.6,1.1,0.8,2.4,0.5,3.6c-0.3,1.2-1.1,2.2-2.2,2.8c-19.3,10.8-35.2,28.5-46,51.1
				c-0.6,1.2-1.6,2.1-2.8,2.4C751.6,175.4,751.1,175.5,750.6,175.5z M697.7,138.8c17.3,7.4,34.5,15.9,51,25.4
				c10.7-20.6,25.6-37.1,43.4-48.2C780,96.9,737.7,39.7,650.4,15c21.7,34.1,43.2,82.5,46.3,118.1
				C696.9,134.9,697.2,136.8,697.7,138.8z"/>
			<path class="st2" d="M639.7,7.3c0,0,107.8,55.6,110.9,163.5c-28-15.2-56.9-28.6-56.9-28.6S692.3,77.5,639.7,7.3z"/>
			<path class="st0" d="M705.3,102.3c-5.3,0-11.1-0.7-17.5-2.2l0.8-3.6c17.6,4,30.9,2.2,39.7-5.5C741.9,79.1,740,57.2,740,57
				l3.7-0.3c0.1,1,2,24.1-12.9,37.2C724.4,99.4,715.8,102.3,705.3,102.3z"/>
			<path class="st0" d="M723.2,143.2c-8.3,0-17.3-1.1-27.2-3.2l0.8-3.7c28,6.1,49.1,3.3,62.7-8.2c16.8-14.2,16.1-37.4,16.1-37.6
				l3.7-0.2c0,1,0.8,25.2-17.4,40.6C752.2,139.1,739.3,143.2,723.2,143.2z"/>
			<path class="st0" d="M672.5,63.3l-0.3-3.7c11.7-0.9,20.2-4.5,25.2-10.6c5.7-7,4.8-15,4.8-15.1l3.7-0.5c0,0.4,1.1,9.7-5.6,17.9
				C694.6,58.3,685.2,62.4,672.5,63.3z"/>
		</g>
		<path class="st0" d="M473,56.8c-16.3,0-25.6-10.7-25.7-10.9l2.8-2.4l-1.4,1.2l1.4-1.2c0.5,0.6,13.6,15.6,36.8,6.9l1.3,3.5
			C482.6,56,477.5,56.8,473,56.8z"/>
		<path class="st0" d="M456.4,85c-18.9,0-30.1-9.6-30.3-9.7l2.5-2.8l-1.2,1.4l1.2-1.4c0.9,0.8,21.7,18.3,55.6,1.9l1.6,3.4
			C474.6,83.2,464.7,85,456.4,85z"/>
		<path class="st0" d="M569.4,56.8c-4.5,0-9.6-0.8-15.2-2.9l1.3-3.5c23.2,8.8,36.2-6.2,36.8-6.9l2.8,2.4
			C595.1,46.1,585.8,56.8,569.4,56.8z"/>
		<path class="st0" d="M586,85c-8.4,0-18.3-1.9-29.4-7.3l1.6-3.4c33.9,16.5,54.8-1.1,55.6-1.9l2.4,2.8C616.2,75.5,605,85,586,85z"/>
		<path class="st9" d="M292,617.9c-20.5,16.4-44.7,15.4-64.6,7.3c0,0-12.2-46.7-5-84.4c7.1-37.4,58.9-124.5,59.8-126.1c0,0,0,0,0,0
			S330.4,587.2,292,617.9z"/>
		<path class="st9" d="M788.3,628.7c-0.8,0.3-1.6,0.6-2.4,0.9c-53.3,19-80.5-34.2-78.2-57c2.3-22.8,14-124.8,14-124.8
			s43,58.6,62.1,106.1C794.1,579.9,792.2,608.2,788.3,628.7z"/>
		<path class="st9" d="M351.4,642.3c-20.7-74.7,25.4-123.2,26.6-124.5c0,0,0,0,0,0l0,0c0.5,1.8,15.6,58,24.2,78.6
			C411,617.3,401.4,647.8,351.4,642.3z"/>
		<path class="st9" d="M662.5,644c-59.7,4.5-68.7-26.3-56.1-42.7c12.7-16.4,34.8-62.7,34.8-62.7s0,0,0,0
			C642.1,539.8,671.6,585.7,662.5,644z"/>
		<path class="st9" d="M451.2,634.8c-14.5-46.8,3-88.1,3-88.1s35.7,41.8,41.6,62.7C500.2,624.7,476,638.3,451.2,634.8z"/>
		<path class="st9" d="M544.3,633.1c-23.3-0.1-40.5-12.9-41.4-24.2c-1.4-16.8,33.9-59,33.9-59S549.8,601.4,544.3,633.1z"/>
		<path class="st9" d="M399.2,439.8c-1.2,25.9-53.7,54.7-61.3,58.6c-0.5-1.8,25.4-81.4,41.6-88.3C391,416.7,399.8,428,399.2,439.8z"
			/>
		<path class="st9" d="M432.2,529.6c1.9-35.8,26.1-86.2,26.1-86.2h0c15.5,4.7,30,12.1,33.2,20.2
			C497.9,480.1,432.2,529.6,432.2,529.6z"/>
		<path class="st9" d="M554,535.2c0,0-42.6-51.9-39-70.7c1.6-8.5,16.3-16.6,32.6-21L554,535.2z"/>
		<path class="st9" d="M649.9,515.8c0,0-42.6-74.1-42.6-80.9c0-4.3,16.6-21.3,38.1-29.3C652.1,418.6,669.1,460.1,649.9,515.8z"/>
	</g>
	<path class="st4" d="M705,668.4c-40.3,0-80.8-9.2-118.2-17.7c-34.7-7.9-67.5-15.3-95.9-14.7c-20.6,0.4-46.5,3.9-73.8,7.6
		c-81,11-181.7,24.6-243.3-26.4c-15-12.4-27-26.7-35.7-42.6c-17.2-31.3-21.2-69-11.4-106.1c9.3-34.9,29.8-66.8,57.8-89.9
		c23.4-19.3,60.7-26.5,105.2-20.3c34.2,4.8,70.6,17.4,102.6,35.5c1.9,1.1,4.1,2.4,6.5,3.9c29.2,17.6,97.5,58.8,228-4
		c27.3-13.2,50.4-23.2,70.7-30.7c88.4-32.3,121.3-14.4,154.4,32.5c27,38.3,31,114,9.1,172.3l0,0c-15.3,40.8-41.6,70.2-76.1,85.2
		C759,664.3,732,668.4,705,668.4z M494,624.8c28.9,0,61.1,7.3,95.2,15c61,13.8,130.1,29.5,191.2,2.9c40-17.4,60.2-52.4,70.1-78.8
		l5.2,2l-5.2-2c22.8-60.8,13.8-131.4-7.7-161.9c-30.4-43.2-59.3-58.4-141.4-28.4c-20,7.3-42.8,17.2-69.7,30.2
		c-54.1,26.1-98,34.9-133.3,34.9c-53.3,0-86.8-20.2-105.3-31.3c-2.3-1.4-4.4-2.7-6.3-3.7c-30.8-17.5-65.9-29.6-98.7-34.2
		c-41.3-5.8-75.6,0.5-96.5,17.8c-47.9,39.6-79.6,116.8-43.8,181.9c8,14.6,19.1,27.8,33,39.3c57.8,47.9,155.9,34.6,234.7,23.9
		c27.7-3.8,53.8-7.3,75.1-7.7C491.7,624.8,492.9,624.8,494,624.8z"/>
	<path class="st0" d="M336.4,980.2c0,2.4-0.1,4.7-0.2,6.9c-3.7-1.1-7.4-2.2-11-3.4c0-1.2,0.1-2.4,0.1-3.6
		c0.1-60.6-69-86.8-69.7-87.1c-1.8-0.7-3.2-2.3-3.6-4.2l-26-139c-0.6-3,1.4-6,4.5-6.5s6,1.4,6.5,4.5l25.5,135.9
		C276.8,889.8,336.6,918.6,336.4,980.2z"/>
	<path class="st0" d="M801.8,741.1c-1.3,12.4-12.8,122.1-24,141.4c-0.6,1-1.4,1.8-2.4,2.2c-27.2,13.1-67.4,66.4-65.6,102
		c-3.7,1.1-7.3,2.2-11,3.2c-4-40.9,38.9-98.3,70.1-114.5c7.5-16.3,17.1-89.1,21.8-135.5c0.3-3.1,3.1-5.3,6.1-5
		C799.8,735.2,802.1,738,801.8,741.1z"/>
	<path class="st0" d="M706.6,676.6c-40.3,0-80.8-9.2-118.2-17.7c-34.7-7.9-67.5-15.3-95.9-14.7c-20.6,0.4-46.5,3.9-73.8,7.6
		c-81,11-181.7,24.6-243.3-26.4c-15-12.4-27-26.7-35.7-42.6c-17.2-31.3-21.2-69-11.4-106.1c9.3-34.9,29.8-66.8,57.8-89.9
		c23.4-19.3,60.7-26.5,105.2-20.3c34.2,4.8,70.6,17.4,102.6,35.5c1.9,1.1,4.1,2.4,6.5,3.9c29.2,17.6,97.5,58.8,228-4
		c27.3-13.2,50.4-23.2,70.7-30.7c88.4-32.3,121.3-14.4,154.4,32.5c27,38.3,31,114,9.1,172.3l0,0c-15.3,40.8-41.6,70.2-76.1,85.2
		C760.6,672.4,733.7,676.6,706.6,676.6z M495.7,632.9c28.9,0,61.1,7.3,95.2,15c61,13.8,130.1,29.5,191.2,2.9
		c40-17.3,60.2-52.4,70.1-78.8l5.2,2l-5.2-2c22.8-60.8,13.8-131.4-7.7-161.9C814,367,785.1,351.8,703,381.8
		c-20,7.3-42.8,17.2-69.7,30.2c-54.1,26.1-98,34.9-133.3,34.9c-53.3,0-86.8-20.2-105.3-31.3c-2.3-1.4-4.4-2.7-6.3-3.7
		c-30.8-17.5-65.9-29.6-98.7-34.2c-41.3-5.8-75.6,0.5-96.5,17.8c-47.9,39.6-79.6,116.8-43.8,181.9c8,14.6,19.1,27.8,33,39.3
		c57.8,47.9,155.9,34.6,234.7,23.9c27.7-3.8,53.8-7.3,75.1-7.7C493.4,632.9,494.5,632.9,495.7,632.9z"/>
	<path class="st0" d="M303.3,732c54-23.8,111-42.7,169.7-50.5c13.2-1.7,28.2-2.3,41.5-1.8c32.1,1.9,63.5,8.5,94.5,16.3
		c39.5,10.5,78.5,23.2,116.2,38.8c-35-9.5-70-18.7-105.2-26.8c-35-7.8-70.3-15.1-106.1-17.2c-35.5-1.7-71.2,5.3-106,12.8
		C372.8,711.7,338,721.4,303.3,732L303.3,732z"/>
	<path class="st0" d="M350.5,782.6c38.3-21.3,79.6-38.7,122.6-47.8c10.9-2.4,22.2-3.6,33.3-4.1c33.5,0.1,66,9.6,97.4,20.2
		c27.7,9.7,54.7,21,80.6,34.5c-54.5-18.3-110.1-39.3-167.3-44.6c-14-1.1-28.2,0.7-42.3,3.2C432.1,751.9,391.2,767,350.5,782.6
		L350.5,782.6z"/>
	<path class="st0" d="M381,838.2c35.4-23.5,84.3-48.4,127.2-50.6c45.3-0.2,107.2,29.9,145.6,53.5c-22.4-9.6-44.8-18.7-67.5-26.9
		c-22.4-7.7-45.7-15.5-69.2-17.4C475.5,794.1,419.2,820.7,381,838.2L381,838.2z"/>
	
		<ellipse transform="matrix(0.8421 -0.5393 0.5393 0.8421 -125.4989 303.7292)" class="st3" cx="456" cy="366.2" rx="43.4" ry="57.5"/>
	
		<ellipse transform="matrix(0.5393 -0.8421 0.8421 0.5393 -47.034 646.4211)" class="st3" cx="567.3" cy="366.2" rx="57.5" ry="43.4"/>
	
		<ellipse transform="matrix(0.8421 -0.5393 0.5393 0.8421 -131.3143 313.7817)" class="st0" cx="470.2" cy="381.2" rx="21.2" ry="28.1"/>
	
		<ellipse transform="matrix(0.5393 -0.8421 0.8421 0.5393 -74.2848 626.5247)" class="st0" cx="535.5" cy="381.2" rx="28.1" ry="21.2"/>
	<path class="st0" d="M255.3,893.1c-17.7-8.8-37.6-12.9-57.2-15.1c20.6-1.5,41.6-1,61.6,4.8C267.4,885.6,262.6,896.7,255.3,893.1
		L255.3,893.1z"/>
	<path class="st0" d="M768.3,875.7c10.2-3.1,20.5-4.3,31.1-5.1c10.2-0.6,20.4-0.5,30.6,0.3c-10,1.1-20,2.8-29.7,5.2
		c-9.3,2.5-19,5.5-27.5,9.9C765.5,889.7,760.7,878.6,768.3,875.7L768.3,875.7z"/>
	<path class="st10" d="M296.9,249.2c0,0,14.9-103.4,165.6-134.7c-36.1,1.2-89.8,10.9-175.9,49.8
		C289.7,176.5,296.9,249.2,296.9,249.2z"/>
	<path class="st10" d="M562.1,113c0,0,113.8,13.3,178.3,157.6c1-41.3-1.5-76.1,10.3-99.8C727.7,156.7,644,110.1,562.1,113z"/>
	<path class="st0" d="M394.2,342.7c14.2-21.5,41.7-38,67.7-29.1c6.8,2.2,12.9,6.5,17.9,11.4c9.3,9.2,15.1,19.3,29.4,18.5
		c8.5-0.3,15.7-4.2,22.7-9.2c8.9-6.2,17.2-13.5,27.2-18.3c22.7-11.9,43.5,0.1,58.8,17.5c-57.9-52.2-71.9,21-114.9,15.1
		c-4.4-0.6-8.7-2.5-12.3-5.2c-10.5-8.3-17.1-21.1-30.3-25.3C435.8,309,409.9,323.9,394.2,342.7L394.2,342.7z"/>
	<path class="st10" d="M303.3,732c0,0,171.3-54.1,418.1,2.9C641.8,705.3,513,649.1,303.3,732z"/>
	<path class="st10" d="M350.5,782.6c0,0,152.2-53.7,328.3,0C617.5,755.9,505.8,696,350.5,782.6z"/>
	<path class="st10" d="M381,838.2c0,0,117.2-57.1,272.8,2.8c-57.7-23.3-92.6-51.4-138.9-48.7C468.7,795,406.2,814.4,381,838.2z"/>
	<path class="st0" d="M116.9,455.6c0,0-52.5,175.9,75.4,223.9C144.3,669.2,74.6,669.6,116.9,455.6z"/>
	<path class="st0" d="M889.4,455.6c0,0,52.5,175.9-75.4,223.9C862,669.2,931.7,669.6,889.4,455.6z"/>
	<path class="st5" d="M273.4,160.7c0,0-38.2-58.1-107.5-28.9C99.3,158.1,79,261,119.5,324.4c-14.9-19.7-48.1-81.3-13.7-152.6
		s94.6-64.7,121.5-53.4C257.4,132.9,261,145,273.4,160.7z"/>
	<path class="st5" d="M762.1,160.9c0,0,38.2-58.1,107.5-28.9c66.6,26.3,86.9,129.2,46.4,192.6c14.9-19.7,48.1-81.3,13.7-152.6
		c-34.3-71.3-94.6-64.7-121.5-53.4C778.1,133,774.5,145.1,762.1,160.9z"/>
	<path class="st5" d="M394.2,342.7c0,0,22.3-20.8,48.4-21.4c16.5-0.6,31.9,7.9,37.9,13.2c-11.5-14.6-28.4-24.5-54.8-15.3
		C404.2,325.7,394.2,342.7,394.2,342.7z"/>
	<path class="st5" d="M545.4,330.7c0,0,33.4-24,72.3,2.9C600.4,316.7,576.4,303.5,545.4,330.7z"/>
	<path class="st10" d="M226.5,752.7L198.1,878c0,0,45.2,1,64.3,13.5C249.2,843.4,226.5,752.7,226.5,752.7z"/>
	<polygon class="st10" points="801.8,741.1 830,871 771.8,878.5 	"/>
	<path class="st5" d="M107.4,559.9c0,0,25.1,86.1,84.8,119.6C169.8,668.8,115.4,646.7,107.4,559.9z"/>
	<path class="st5" d="M899.2,556.7c0,0,0.7,93.7-85.1,122.8C843.2,661.2,891.2,612.4,899.2,556.7z"/>
	<path class="st5" d="M375.6,704.2c0,0,82.5-28.9,129.2-24.6s83.8,6.1,149.2,29.5c-56.7-23.9-124.7-36.2-149.2-36.6
		C480.3,671.9,419.7,689.3,375.6,704.2z"/>
	<path class="st5" d="M395.8,756.7c0,0,72.1-28.9,112.9-24.6s73.3,6.1,130.4,29.5c-49.5-23.9-109-36.2-130.4-36.6
		C487.4,724.5,434.4,741.9,395.8,756.7z"/>
	<path class="st5" d="M422.5,811.7c0,0,56.3-28.9,88.2-24.6s57.2,6.1,101.8,29.5c-38.7-23.9-85.1-36.2-101.8-36.6
		S452.6,796.9,422.5,811.7z"/>
	<path class="st0" d="M1022,659.5c0,29.3-1.2,58.5-3.7,86.6c0,0.1,0,0.3,0,0.4c-0.2,1.9-0.3,3.9-0.5,5.8l-0.2,2.1
		c-0.1,1.4-0.3,2.8-0.4,4.3l-0.2,2.1c-0.2,1.5-0.3,3-0.5,4.5c-1.2,11.3-2.7,22.8-4.4,34.2c0,0.2,0,0.3-0.1,0.4
		c0,0.3-0.1,0.7-0.2,1.1c-11.6,76.4-33.1,169-46.4,223h-9.7c0.2-0.8,0.4-1.7,0.6-2.6c0,0,0,0,0-0.1c8.5-34.4,20.3-84.3,30.7-135.7
		c5.9-29.2,11.4-58.9,15.5-86.4c0-0.1,0-0.3,0.1-0.4c0-0.3,0.1-0.7,0.2-1c1.6-11.1,3.1-22.4,4.3-33.5c0.2-1.5,0.3-3,0.5-4.5l0.2-2.1
		c0.1-1.4,0.3-2.8,0.4-4.2l0.2-2.1c0.2-1.8,0.3-3.6,0.5-5.3c0-0.1,0-0.3,0-0.4c2.4-28,3.7-57,3.7-86.2c0-118.8-33.9-231.9-98.1-327
		c-1.2-1.7-1.1-4.1,0.3-5.7c19.8-23.9,30.7-55.9,30.7-90.1c0-69.6-45.9-126.2-102.3-126.2c-14.8,0-29,3.8-42.3,11.3
		c-19,10.7-35.3,28.8-46,51.1c-0.6,1.2-1.6,2.1-2.9,2.5c-1.3,0.4-2.6,0.2-3.8-0.4c-18.2-10.7-37.2-20.2-56.3-28.3
		c-17.4-7.3-35.4-13.7-53.4-18.8c-26.8-7.6-54.3-12.8-81.9-15.3c-22.4-2.2-45.7-2.6-69-1.3c-26.9,1.5-53.9,5.5-80.2,11.7
		c-18,4.3-36,9.8-53.5,16.3c-23.5,8.7-46.5,19.5-68.4,31.9c-1.1,0.6-2.4,0.8-3.7,0.4c-1.2-0.4-2.3-1.2-2.9-2.4
		c-9.3-18.1-22.3-33.1-37.5-43.4c-14.9-10.1-31.8-15.4-48.9-15.4c-56.4,0-102.3,56.6-102.3,126.2c0,31.4,9.4,61.5,26.6,84.8
		c1.2,1.6,1.3,3.9,0.1,5.5C50.3,423.3,15.1,538.2,15.1,659.5c0,30.5,1.2,60.4,3.7,89v0.3c0.1,0.9,0.4,4,0.8,9.1
		c0.3,2.8,0.6,5.6,0.9,8.4l0.8,7.8c0,0.1,0,0.2,0,0.3c4.9,44.8,19.5,157.2,49.9,249.7h-9.9c-30-92.5-44.4-203.5-49.4-248.3
		c0-0.1,0-0.2,0-0.3l-0.9-8.1c-0.3-2.8-0.6-5.6-0.9-8.5c-0.6-6.1-0.9-9.5-0.9-9.5c0-0.1,0-0.2,0-0.2c-2.4-28.7-3.7-58.9-3.7-89.5
		c0-122.1,35.2-237.8,101.7-335.1c-17.1-24.5-26.5-55.5-26.5-87.7C80.8,161.9,131,101,192.6,101c19,0,37.7,5.9,54.2,17
		c15.3,10.3,28.5,25,38.3,42.6c21.1-11.7,43.1-21.8,65.6-30.2c17.9-6.6,36.2-12.2,54.6-16.6c26.8-6.4,54.4-10.4,81.8-12
		c23.7-1.4,47.6-0.9,70.4,1.3c28.1,2.6,56.3,7.9,83.6,15.6c18.4,5.2,36.8,11.6,54.5,19.2c18,7.6,35.8,16.4,53.1,26.3
		c11.6-22.2,27.9-39.6,47.6-50.7c14.7-8.3,30.5-12.5,46.9-12.5c61.6,0,111.8,60.8,111.8,135.7c0,35.1-10.9,68.1-30.7,93.4
		C988.2,426.2,1022,540,1022,659.5z"/>
	<path class="st0" d="M318.5,1024H306c-18.5-51.2-98.7-61-99.6-61.1c-3.2-0.4-5.6-3.3-5.2-6.5c0.4-3.2,3.3-5.6,6.5-5.2
		C211.8,951.6,300.7,962.4,318.5,1024z"/>
	<path class="st0" d="M838.5,962.9c-0.7,0.1-45.7,5.5-76.1,29.7c-10.3,8.2-18.8,18.4-23.5,31.3h-12.5c3.5-12.1,9.8-22.3,17.6-30.8
		c31.9-34.7,89.9-41.7,93.2-42c3.2-0.4,6.2,2,6.5,5.2C844.1,959.6,841.8,962.5,838.5,962.9z"/>
	<path class="st0" d="M325.1,974.4c0,0,1.6,23-13.2,39.6c4.1,8.1,6.6,10,6.6,10s20-18.6,17.9-45.8
		C331.6,969.7,325.1,974.4,325.1,974.4z"/>
	<path class="st0" d="M709.8,980.4c0,0-1,28.3,18.6,37.7c-2,5.9-2,5.9-2,5.9h-7.3c0,0-18.5-6.2-20.4-34
		C699.7,971.9,709.8,980.4,709.8,980.4z"/>
	<path class="st4" d="M306,1024H71.2c0,0-20.6-52.7-33.8-138.4c0,0,105.3,2.3,138.8,65.6c-35.8-15.2-67.5,7.2-53.2,36
		c14.3,28.8,104.7,24.8,152.5,0.4C288.1,997.4,303.3,1010.5,306,1024z"/>
	<path class="st4" d="M987,885.7c-10.4,51.3-22.2,101.3-30.7,135.7c0,0,0,0.1,0,0.1c-0.6,1.7-1,2.6-1,2.6H738.9
		c4.7-12.9,13.2-23.2,23.5-31.3c49.5,19.7,127.9,21.1,141.1-5.5c14.3-28.8-17.4-51.2-53.2-36C881,893.2,972,886.4,987,885.7z"/>
	<path class="st11" d="M238.6,757c0,0,89,221.5,192.2,267c-116.4,0-116.4,0-116.4,0s55.7-78.4-58.9-138.4
		C241.6,824.7,238.6,757,238.6,757z"/>
	<path class="st11" d="M791.4,762.2c0,0-81.2,225-200.3,261.8c33.3,0,135.3,0,135.3,0s-65-40.7,46.2-149.5
		C798.4,805.2,791.4,762.2,791.4,762.2z"/>
</g>
</svg>
