<?xml version="1.0" encoding="utf-8"?>
<!-- Generator: Adobe Illustrator 26.1.0, SVG Export Plug-In . SVG Version: 6.00 Build 0)  -->
<svg version="1.1" id="Слой_1" xmlns="http://www.w3.org/2000/svg" xmlns:xlink="http://www.w3.org/1999/xlink" x="0px" y="0px"
	 viewBox="0 0 1024 1024" style="enable-background:new 0 0 1024 1024;" xml:space="preserve">
<style type="text/css">
	.st0{fill:#7B7EDF;}
	.st1{fill:#811599;}
	.st2{fill:#4C2205;}
	.st3{fill:none;stroke:#4C2205;stroke-width:10.0931;stroke-miterlimit:10;}
	.st4{opacity:0.45;fill:#3F2401;}
	.st5{opacity:0.34;fill:#FFFFFF;}
	.st6{fill:#E85180;}
	.st7{opacity:0.42;fill:#3F2401;}
	.st8{fill:#F4B2BE;}
	.st9{fill:#E3E0D9;}
	.st10{opacity:0.11;fill:#FFFFFF;}
	.st11{fill:#FFFFFF;}
	.st12{opacity:0.35;fill:#4C2205;}
	.st13{opacity:0.26;fill:#3F2401;}
	.st14{opacity:0.21;fill:#3F2401;}
	.st15{fill:#E8C0FF;}
	.st16{opacity:0.26;fill:#A6FFB2;}
	.st17{opacity:0.42;fill:#A6FFB2;}
	.st18{opacity:0.31;fill:#3F2401;}
</style>
<g>
	<g>
		<path class="st0" d="M429.2,184c-27.5-42.5-72.1-73.4-124.8-82.2c-5.1-0.8-10.3-1.5-15.6-1.9c-33.7-2.7-66,3.8-94.5,17.5
			C136.8,145,95.1,201.7,89.6,270.1c-0.2,2.1-0.3,4.2-0.4,6.3c-1.7,35.5,6.8,69.4,23,98.5c29.1,52.5,82.9,89.8,147,95
			c1.5,0.1,3.1,0.2,4.6,0.3c99.9,5.6,186.6-69.8,194.6-170.4C461.8,257.4,450.7,217.2,429.2,184z M392.5,308.3
			c-4,50.1-44.5,88.4-93.1,91c-4.3,0.2-8.7,0.2-13.2-0.2c-40.1-3.2-72.7-30.1-85.3-65.9c-4.4-12.7-6.4-26.5-5.2-40.8
			c0.3-3.8,0.8-7.5,1.5-11.1c6.2-31.8,27.3-57.8,55.3-70.8c15-7,31.9-10.3,49.5-8.9c0.4,0,0.7,0.1,1.1,0.1
			c30.4,2.8,56.4,19.2,72.5,42.7C387.9,262.5,394.4,284.8,392.5,308.3z"/>
		<path class="st1" d="M252.4,210.5c-28,13.1-49.1,39-55.3,70.8c-44.4,10.3-84.6,2.3-108-4.9c0.1-2.1,0.2-4.2,0.4-6.3
			C95,201.7,136.8,145,194.3,117.4C233.7,139.8,247.7,186.4,252.4,210.5z"/>
		<path class="st1" d="M429.2,184l-21.9,51.3c0,0-13.8,5.7-31.8,9.1c-16-23.5-42-39.9-72.5-42.7c19-41,9.8-78.9,1.3-99.9
			C357.2,110.6,401.7,141.5,429.2,184z"/>
		<path class="st2" d="M374.4,247.2l-0.9-1.4c-16.3-23.8-42-39-70.6-41.6l-3.6-0.3l1.5-3.3c19-40.8,8.9-78.8,1.3-97.9l-1.7-4.2
			l4.4,0.7c51.7,8.6,97.9,38.9,126.5,83.3l0.7,1.1l-22.8,53.5l-1,0.4c-0.6,0.2-14.3,5.8-32.3,9.2L374.4,247.2z M306.8,199.6
			c28.2,3.5,53.4,18.7,69.9,42c14.1-2.8,25.5-7,28.8-8.3l20.9-49.1c-27.1-41.3-69.9-69.9-118-79.1
			C315.8,125.4,323.4,161.1,306.8,199.6z"/>
		<path class="st1" d="M299.3,399.3l-17.9,58.9l-17.7,12.1c-1.5-0.1-3.1-0.2-4.6-0.3c-64.1-5.2-117.9-42.5-147-95
			c0.7,0.1,55,4.3,88.7-41.7c12.6,35.8,45.2,62.7,85.3,65.9C290.6,399.5,295,399.6,299.3,399.3z"/>
		<path class="st2" d="M153.3,288.9c-25.8,0-48.3-4.9-64.9-10l-1.9-0.6l0.1-1.9c0.1-2.1,0.2-4.3,0.4-6.4
			c5.3-66.6,46-125.9,106.2-154.8l1.2-0.6l1.1,0.6c39.9,22.7,54.3,69.2,59.4,94.9l0.4,1.9l-1.8,0.8c-27.9,13-48,38.8-53.9,69
			l-0.3,1.6l-1.6,0.4C182.2,287.4,167.3,288.9,153.3,288.9z M91.8,274.6c24.7,7.4,62,13.9,103.2,4.7c6.4-30.4,26.7-56.4,54.6-70.1
			c-5.1-24.9-19-67.5-55.4-88.9c-57.9,28.3-97,85.6-102.1,150C92,271.7,91.9,273.1,91.8,274.6z"/>
		<path class="st2" d="M264.5,472.9l-0.9,0c-1.6-0.1-3.1-0.2-4.7-0.3c-62.7-5.1-118.4-41.1-149-96.3l-2.3-4.1l4.7,0.4
			c2.2,0.2,53.9,3.8,86.5-40.7l2.8-3.9l1.6,4.5c12.6,36,45.2,61.2,83.1,64.2c4.3,0.3,8.7,0.4,12.9,0.2l3.6-0.2l-19.2,63.2
			L264.5,472.9z M116.6,377.6c30.2,51.6,83.2,85,142.8,89.8c1.2,0.1,2.5,0.2,3.7,0.3l16.2-11.1l16.6-54.6c-3.3,0.1-6.6-0.1-10-0.3
			c-38.3-3.1-71.5-27.8-85.8-63.3C171.3,374.4,130.3,377.6,116.6,377.6z"/>
		<path class="st3" d="M429.2,184c-27.5-42.5-72.1-73.4-124.8-82.2c-5.1-0.8-10.3-1.5-15.6-1.9c-33.7-2.7-66,3.8-94.5,17.5
			C136.8,145,95,201.7,89.6,270.1c-0.2,2.1-0.3,4.2-0.4,6.3c-1.7,35.5,6.8,69.4,23,98.6c29.1,52.5,82.9,89.8,147,95
			c1.5,0.1,3.1,0.2,4.6,0.3c99.9,5.6,186.6-69.8,194.6-170.4C461.8,257.4,450.7,217.2,429.2,184z M299.3,399.3
			c-4.3,0.2-8.7,0.2-13.2-0.2c-40.1-3.2-72.7-30.1-85.3-65.9c-4.4-12.7-6.4-26.5-5.2-40.8c0.3-3.8,0.8-7.5,1.5-11.1
			c6.2-31.8,27.3-57.8,55.3-70.8c15-7,31.9-10.3,49.5-8.9c0.4,0,0.7,0.1,1.1,0.1c30.4,2.8,56.4,19.2,72.5,42.7
			c12.3,18.1,18.8,40.4,16.9,63.9C388.5,358.4,348,396.8,299.3,399.3z"/>
	</g>
	<g>
		<path class="st0" d="M553.3,291.4C561.4,392,648.1,467.4,748,461.8c1.5-0.1,3.1-0.2,4.6-0.3c64.1-5.2,117.9-42.5,147-95
			c16.2-29.2,24.7-63,23-98.6c-0.1-2.1-0.2-4.2-0.4-6.3c-5.5-68.4-47.2-125.1-104.8-152.7c-28.5-13.7-60.8-20.2-94.5-17.5
			c-5.3,0.4-10.5,1.1-15.6,1.9c-52.8,8.8-97.3,39.6-124.8,82.2C561,208.7,549.9,248.9,553.3,291.4z M619.2,299.9
			c-1.9-23.5,4.6-45.8,16.9-63.9c16-23.5,42-39.9,72.5-42.7c0.4-0.1,0.7-0.1,1.1-0.1c17.6-1.4,34.6,1.9,49.5,8.9
			c28,13.1,49.1,39,55.3,70.8c0.7,3.6,1.2,7.3,1.5,11.1c1.1,14.3-0.8,28.1-5.2,40.8c-12.6,35.8-45.2,62.7-85.3,65.9
			c-4.5,0.4-8.9,0.4-13.2,0.2C663.7,388.3,623.3,349.9,619.2,299.9z"/>
		<path class="st1" d="M759.3,202.1c28,13.1,49.1,39,55.3,70.8c44.4,10.3,84.6,2.3,108-4.9c-0.1-2.1-0.2-4.2-0.4-6.3
			c-5.5-68.4-47.2-125.1-104.8-152.7C778,131.3,764,177.9,759.3,202.1z"/>
		<path class="st1" d="M582.5,175.5l21.9,51.3c0,0,13.8,5.7,31.8,9.1c16-23.5,42-39.9,72.5-42.7c-19-41-9.8-78.9-1.3-99.9
			C654.6,102.1,610,133,582.5,175.5z"/>
		<path class="st1" d="M712.4,390.9l17.9,58.9l17.7,12.1c1.5-0.1,3.1-0.2,4.6-0.3c64.1-5.2,117.9-42.5,147-95
			c-0.7,0.1-55,4.3-88.7-41.7c-12.6,35.8-45.2,62.7-85.3,65.9C721.1,391,716.7,391.1,712.4,390.9z"/>
		<path class="st2" d="M858.4,280.4c-14,0-28.9-1.4-44.4-5l-1.6-0.4l-0.3-1.6c-5.9-30.2-26-56-53.9-69l-1.8-0.8l0.4-1.9
			c5-25.7,19.4-72.2,59.4-94.9l1.1-0.6l1.2,0.6c60.2,28.8,100.8,88.1,106.2,154.8c0.2,2.1,0.3,4.3,0.4,6.4l0.1,1.9l-1.9,0.6
			C906.7,275.5,884.2,280.4,858.4,280.4z M816.7,270.8c41.3,9.2,78.5,2.7,103.2-4.7c-0.1-1.4-0.2-2.9-0.3-4.3
			c-5.2-64.4-44.3-121.8-102.1-150c-36.4,21.4-50.2,64-55.4,88.9C790.1,214.4,810.3,240.4,816.7,270.8z"/>
		<path class="st2" d="M637.3,238.8l-1.6-0.3c-18-3.4-31.8-9-32.3-9.2l-1-0.4l-22.8-53.5l0.7-1.1c28.7-44.3,74.8-74.7,126.5-83.3
			l4.4-0.7l-1.7,4.2c-7.7,19-17.7,57.1,1.3,97.9l1.5,3.3l-3.6,0.3c-28.6,2.6-54.4,17.8-70.6,41.6L637.3,238.8z M606.3,224.9
			c3.3,1.3,14.7,5.5,28.8,8.3c16.5-23.3,41.7-38.5,69.9-42c-16.6-38.5-9-74.2-1.6-94.5c-48.1,9.2-90.9,37.9-118,79.1L606.3,224.9z"
			/>
		<path class="st2" d="M747.3,464.4l-19.1-13.1l-19.2-63.2l3.6,0.2c4.2,0.2,8.5,0.2,12.9-0.2c37.9-3.1,70.5-28.3,83.1-64.2l1.6-4.5
			l2.8,3.9c32.6,44.5,84.3,40.9,86.5,40.7l4.7-0.4l-2.3,4.1c-30.6,55.2-86.3,91.2-149,96.3c-1.6,0.1-3.1,0.2-4.7,0.3L747.3,464.4z
			 M732.5,448.1l16.2,11.1c1.2-0.1,2.5-0.2,3.7-0.3c59.5-4.8,112.6-38.3,142.8-89.8c-13.7,0-54.7-3.3-83.5-39.3
			c-14.3,35.5-47.5,60.2-85.8,63.3c-3.3,0.3-6.7,0.4-10,0.3L732.5,448.1z"/>
		<path class="st3" d="M553.3,291.4C561.4,392,648.1,467.4,748,461.8c1.5-0.1,3.1-0.2,4.6-0.3c64.1-5.2,117.9-42.5,147-95
			c16.2-29.2,24.7-63,23-98.6c-0.1-2.1-0.2-4.2-0.4-6.3c-5.5-68.4-47.2-125.1-104.8-152.7c-28.5-13.7-60.8-20.2-94.5-17.5
			c-5.3,0.4-10.5,1.1-15.6,1.9c-52.8,8.8-97.3,39.6-124.8,82.2C561,208.7,549.9,248.9,553.3,291.4z M619.2,299.9
			c-1.9-23.5,4.6-45.8,16.9-63.9c16-23.5,42-39.9,72.5-42.7c0.4-0.1,0.7-0.1,1.1-0.1c17.6-1.4,34.6,1.9,49.5,8.9
			c28,13.1,49.1,39,55.3,70.8c0.7,3.6,1.2,7.3,1.5,11.1c1.1,14.3-0.8,28.1-5.2,40.8c-12.6,35.8-45.2,62.7-85.3,65.9
			c-4.5,0.4-8.9,0.4-13.2,0.2C663.7,388.3,623.3,349.9,619.2,299.9z"/>
	</g>
	<path class="st4" d="M330.3,149.6c-11.6-2.8-23.8-4.3-36.2-4.3c-85.4,0-154.5,69.4-154.5,155.1c0,27.7,7.2,53.7,19.9,76.1
		c26.5,47.1,76.9,78.9,134.7,78.9c85.3,0,154.5-69.4,154.5-155.1C448.6,227.3,398.2,166,330.3,149.6z M392.5,308.3
		c-4,50.1-44.5,88.4-93.1,91c-4.3,0.2-8.7,0.2-13.2-0.2c-33.5-2.7-61.7-21.8-77.4-48.9c-3.1-5.4-5.8-11.1-7.9-17
		c-4.4-12.7-6.4-26.5-5.2-40.8c0.3-3.8,0.8-7.5,1.5-11.1c6.2-31.8,27.3-57.8,55.3-70.8c15-7,31.9-10.3,49.5-8.9
		c0.4,0,0.7,0.1,1.1,0.1c13.5,1.2,26.1,5.1,37.3,11.2c14.2,7.5,26.2,18.4,35.1,31.5C387.9,262.5,394.4,284.8,392.5,308.3z"/>
	<path class="st5" d="M330.3,149.6c-11.6-2.8-23.8-4.3-36.2-4.3c-85.4,0-154.5,69.4-154.5,155.1c0,27.7,7.2,53.7,19.9,76.1
		c-19.9-24.5-31.7-55.2-31.7-88.4c0-80.5,69.2-145.7,154.5-145.7C299.1,142.4,315.2,145,330.3,149.6z"/>
	<path class="st5" d="M682,142.1c11.6-2.8,23.8-4.3,36.2-4.3c85.4,0,154.5,69.4,154.5,155.1c0,27.7-7.2,53.7-19.9,76.1
		c19.9-24.5,31.7-55.2,31.7-88.4c0-80.5-69.2-145.7-154.5-145.7C713.2,135,697.1,137.5,682,142.1z"/>
	<path class="st4" d="M717.7,136.9c-85.4,0-154.5,69.4-154.5,155.1c0,85.6,69.2,155.1,154.5,155.1c85.3,0,154.5-69.4,154.5-155.1
		C872.2,206.3,803,136.9,717.7,136.9z M816.1,299.9c-4,50.1-44.5,88.4-93.1,91c-4.3,0.2-8.7,0.2-13.2-0.2
		c-40.1-3.2-72.7-30.1-85.3-65.9c-4.4-12.7-6.4-26.5-5.2-40.8c0.3-3.8,0.8-7.5,1.5-11.1c6.2-31.8,27.3-57.8,55.3-70.8
		c15-7,31.9-10.3,49.5-8.9c0.4,0,0.7,0.1,1.1,0.1c30.4,2.8,56.4,19.2,72.5,42.7C811.5,254,818,276.3,816.1,299.9z"/>
	<path class="st6" d="M1013.9,1024c-13.8-74.4-38.9-204.3-59-276.3c0,0,0,0,0,0c-0.9-3.8-1.8-7.7-2.8-11.5c0-0.1,0-0.1-0.1-0.2
		c-11.5-46.3-26-94.7-42.9-143.3c27.2,5.7,54.1-12.1-3.2-120C827,324,695.6,189,695.6,189c-7.8-9.2-15.7-17.9-23.6-26.2
		c-7.9-8.3-15.9-16-23.9-23.3c0,0-13.1-30.4-35.5-62.3C590.1,45.3,558.4,11.9,521,6c-63.9-10-42.8,26.2-12.3,41.4
		c-64.2-21-128.6-22.5-166.8-4.3c-41.4,19.6-18.9,53.3,45.4,52.4c-92.2,5.4-135.5,73.2-129.2,108.4c4.6,25.9,36.2,16.1,58.6-0.6
		c-33.6,41.9-65.7,91.9-95.3,146.4C198.2,380.3,78.9,539,68.1,584.1c-9.6,40.2,14.6,48.2,37.1,39.7c-17.7,54.6-32.1,108.5-42.6,159
		l0,0c0,0-32.7,142.4-49.5,241.2H1013.9z"/>
	<path class="st2" d="M378.9,90.3c42.4-1,88,10.8,118,42.2c-7.9-7-16.7-13-26.1-17.6c-23.4-11.6-49.8-15.9-75.7-15.5
		c-5,0.1-10.4,0.4-15.2,1C379.9,100.4,378.9,90.3,378.9,90.3L378.9,90.3z"/>
	<path class="st2" d="M510.7,42.7c24,13.5,43.7,33.7,58.8,56.6c-8.7-10.2-18.4-19.6-29-27.6C530,63.9,518.8,56.9,506.7,52
		C506.7,52,510.7,42.7,510.7,42.7L510.7,42.7z"/>
	<path class="st2" d="M305.8,206.5c29.5-27.2,69.9-41.6,109.7-41.8c0,0,7.8,0,7.8,0c-4.7,0.5-11,0.7-15.6,1.4
		c-33.1,4.4-65.1,18.8-89.4,41.9c-1.7,1.6-3.6,3.5-5.1,5.3C313.3,213.3,305.8,206.5,305.8,206.5L305.8,206.5z"/>
	<path class="st2" d="M101.2,619.8c6.3-1.7,15.5-6.9,22.3-10.9c15.6-9.4,30.5-20,45.2-30.8c7.4-5.4,14.6-11,21.9-16.5
		c-13.5,12.5-27.1,24.8-41.2,36.5c-13.6,11-27.1,22.6-42.9,30.4c-1.5,0.6-3.1,1.3-4.8,1.5C101.7,629.9,101.2,619.8,101.2,619.8
		L101.2,619.8z"/>
	<path class="st2" d="M910.5,598.5c-9.9-2.7-18.2-8.9-25.9-15.3c-18.1-15.5-32-35-44.3-55.1c0,0-7.1-12.2-7.1-12.2
		c9.1,13.2,19.4,26.8,30.3,38.4c10.9,11.7,23.1,22.5,37.1,30c3.7,1.8,7.4,3.5,11.3,4.3c0,0,0.1,0,0.1,0L910.5,598.5L910.5,598.5z"/>
	<path class="st7" d="M298.3,756.1c0,0-31.6,115.7,14,177c14.4,9.1,15.5-14.6,15.5-14.6s28.7,62.3,40.4,3
		c23.8,71.2,55.7,132.6,87.7,34.7c6,28.4,29.5,27.2,41.4,1.2c5.6,42.9,48.2,80.2,97.6-35.8c2.1,39.3,31.2,53.3,65.8-22.1
		c15.5,56.8,48.4,80,68.6-91C681.4,716.7,298.3,756.1,298.3,756.1z"/>
	<path class="st6" d="M307,314.3l-4.4,5.3c-28.1,5.9-71.3,25.6-93.4,92.4C209.2,412,212.4,304.6,307,314.3z"/>
	<ellipse class="st7" cx="508.7" cy="340.5" rx="158.4" ry="195.2"/>
	<ellipse class="st2" cx="510.3" cy="340.5" rx="139.1" ry="166"/>
	<path class="st6" d="M641.1,445.4l-49.7,7.7l-64.6,10l-88.3-3.2l-42.7-1.5l-71.9-56.8l19.2-98.6c0,0,27.9,31.5,54.5,47.8
		c47.9,29.4,131.7,58.7,225.8-7c10.5-7.3,34.3-29.3,45-39.1C695.7,349.6,641.1,445.4,641.1,445.4z"/>
	<path class="st8" d="M378.8,362.8c0,0-84.3-79.3-138.6-6.2s33,341.6,59.2,396.8c-20.6,49.3,0,221.1,25.7,137.7
		c11.7,48.2,36.3,32.4,41-16.1c19.9,87.7,66.3,177,91.1,33.7c6,62.2,39.5,47.8,46.2,7c4.3,83.4,37.1,90.4,96.8-27
		c-2.3,55.2,49.2,43.5,60.9-42.3c19.9,89.3,55.8,127.2,75.2-111.2c45-131.2,80.2-322.6,31.1-402c-32.1-45.8-115.9,19.1-132.2,32.5
		C608.4,387.7,473.6,439.1,378.8,362.8z"/>
	<path class="st2" d="M422.1,985.8c-21.3,0-42.7-49.5-55.5-101.5c-3.6,22.1-11.9,36.9-21.6,37.6c-8.1,0.6-15.1-8.2-20-25
		c-4,11.4-8.2,17.3-12.6,18.2c-2.6,0.5-5-0.7-7.2-3.4c-15.4-19-22.6-120.8-7.6-158.3c-13.4-28.5-41.3-108.2-59.6-191.4
		c-15.9-72.2-28.7-166.7,0.9-206.5c14.1-19,31.5-29.5,51.8-31.3c44.5-4,86.9,35.1,89.3,37.3c50.6,40.7,110.8,43.1,152.4,37.9
		c48-6,88.4-24.1,101.8-35c11-9.1,68.1-54,107.7-48.5c11.3,1.6,20.4,7.1,26.9,16.4c47.6,76.9,17.4,262.9-30.8,403.3
		c-9.7,119-24.3,180-43.3,181.4c-0.2,0-0.4,0-0.6,0c-14.8,0-26.2-35.4-32.6-61.7c-8.3,46.6-29,70.2-45.3,68.8
		c-8.3-0.7-16.8-8.7-17.6-28.3c-30.7,59.1-55.3,87.2-73.1,83.4c-12.4-2.6-20.1-20.2-22.9-52.2c-5,15.7-14.3,26-23.9,25.7
		c-10.3-0.3-18-12.3-21.6-33.2c-8.6,43.7-20.2,66-34.5,66.4C422.3,985.8,422.2,985.8,422.1,985.8z M365.4,864.5l2.3,10.2
		c12.2,53.7,34.7,107.8,54.4,107.8c0.1,0,0.2,0,0.3,0c9.3-0.2,22.7-13.3,33.2-74l2.1-12.3l1.2,12.4c2.4,25.1,9.8,40.3,19.8,40.7
		c0.1,0,0.2,0,0.3,0c9.8,0,19.6-14.4,22.7-33.8l2.5-15.4l0.8,15.6c1.9,36.3,9.4,57.6,21,60.1c9.4,2,31.3-6.7,72.6-87.8l3.5-6.9
		l-0.3,7.7c-0.8,18.8,4.8,31,14.5,31.9c13.4,1.2,35.7-21.1,43-74.4l1.3-9.3l2,9.1c9.6,43,21.4,68.2,31.7,67.5
		c9.6-0.7,27.6-24.7,40.2-178.5l0.1-0.4c48-139.7,78.2-324.7,31.2-400.6c-5.9-8.4-14.2-13.5-24.5-14.9
		C703.1,314,647,358.1,636.2,367c-13.7,11.2-54.8,29.7-103.5,35.7c-42.3,5.2-103.5,2.8-155-38.7l-0.1-0.1
		c-0.4-0.4-43.5-40.3-86.8-36.4c-19.2,1.7-35.8,11.8-49.4,30c-53.2,71.6,32.1,337.8,59.4,395.1l0.3,0.7l-0.3,0.7
		c-14.7,35.2-7.9,137.5,6.8,155.6c1.4,1.7,2.7,2.5,4,2.2c2.1-0.4,6.4-3.7,11.8-21.3l1.8-5.8l1.4,5.9c4.4,17.9,11,28.4,18,27.9
		c7.7-0.6,17-15.7,19.7-43.7L365.4,864.5z"/>
	<path class="st2" d="M274,397.4c0,0,199.5,118.8,463.8-6.4c-5.1,152.8-4.2,426.5-168.6,467.1s-246.5-96.7-275.1-229.7
		S274,397.4,274,397.4z"/>
	<path class="st9" d="M299.3,418.1c0,0-3.3,31.1-2.1,34.8c1.2,3.7,24.1,10.7,28.2,10.2c4.1-0.4,5.9-32,5.9-32L299.3,418.1z"/>
	<path class="st9" d="M343.9,436.3c0,0-7.8,32.6-5.4,40.1c2.5,7.5,35.3,18.3,42.8,15c7.5-3.2,8.2-42.4,8.2-42.4L343.9,436.3z"/>
	<path class="st9" d="M398.8,452.4c0,0-3.9,46-2.9,51.8c1.1,5.8,36,15.1,60.7,8c6.4-6.1,2.4-54.4,2.4-54.4L398.8,452.4z"/>
	<path class="st9" d="M470.5,460.3c0,0-1.8,51.9,0,60.9c1.8,9,54.9,13.2,73.1-3.6c3.2-22.2,0-59.1,0-59.1L470.5,460.3z"/>
	<path class="st9" d="M552.7,458.5c0,0,0.9,47.6,2.4,51.2c1.4,3.6,30.3,13.6,58.2-12.5c2.5-9.7-2.9-47.6-2.9-47.6L552.7,458.5z"/>
	<path class="st9" d="M655,436.3c0,0,6.4,36.2,8.9,39c2.5,2.9,44.8-14,48.5-21.5c2.6-6.4-8.5-38.7-8.5-38.7L655,436.3z"/>
	<path class="st1" d="M406.1,814.6c0,0-2.5-40.1,32-54.9c34.4-14.8,66.2,19.7,69.4,43.2c19.1-33.3,72.8-21.5,81.2,35.2
		C569.2,858.1,457.1,863.9,406.1,814.6z"/>
	<path class="st2" d="M343,303.1c66.2,72.9,169,99.1,257.5,51.5c28.2-14.9,52.8-35.4,75.3-58c-22.4,28.4-50.4,53.2-82.8,69.6
		C505.8,410.7,400.3,381.1,343,303.1L343,303.1z"/>
	<path class="st10" d="M623.2,343.9c-94.1,65.7-177.9,36.4-225.8,7c9.2-54.6,56.5-96.3,113.6-96.3
		C565.6,254.7,611.4,292.8,623.2,343.9z"/>
	<ellipse class="st11" cx="545.1" cy="254.7" rx="49.9" ry="58.6"/>
	<ellipse class="st11" cx="479.4" cy="291.9" rx="12" ry="14.1"/>
	<path class="st2" d="M250.3,423.4c0,0-0.7-58.9,63.9-39.3c-21.9-3.5-40.3,7.3-31.9,22c-5.6,2.4-5.6,2.4-5.6,2.4l-0.5-1.3
		C276.2,407.1,259.7,394.9,250.3,423.4z"/>
	<path class="st2" d="M758.1,421.3c0,0,0.7-58.9-63.9-39.3c21.9-3.5,40.3,7.3,31.9,22c5.6,2.4,5.6,2.4,5.6,2.4l0.5-1.3
		C732.2,405,748.7,392.8,758.1,421.3z"/>
	<polygon class="st2" points="364.9,877.5 355.9,813.3 368.2,876.9 364.9,877.5 	"/>
	<polygon class="st2" points="455.9,912.6 457.6,873.3 459.3,912.6 455.9,912.6 	"/>
	<polygon class="st2" points="502,921.3 505.3,877.2 505.4,921.5 502,921.3 	"/>
	<polygon class="st2" points="595,895.1 618.1,845.9 598.1,896.4 595,895.1 	"/>
	<polygon class="st2" points="661.8,857.2 656.4,813.3 665.1,856.6 661.8,857.2 	"/>
	<path class="st2" d="M296.3,742.4c7.5,16.8,17.7,33.1,31.7,45.2c-3.7-2.8-7.2-5.9-10.5-9.3c-9.8-10.2-17.8-22-24.3-34.6
		C293.3,743.8,296.3,742.4,296.3,742.4L296.3,742.4z"/>
	<path class="st2" d="M738.4,733.8c-10.3,21.1-24,40.9-42.3,55.8c13.1-11.6,23.3-26.1,31.7-41.5c2.7-5.1,5.3-10.4,7.5-15.7
		L738.4,733.8L738.4,733.8z"/>
	<polygon class="st2" points="324.5,895.5 315.6,840.3 327.8,894.8 324.5,895.5 	"/>
	<path class="st2" d="M511,798.8c0,0-7,10.8-6.6,24.2c1.3-14.2-1.3-33.3-1.3-33.3l7.9-6.8V798.8z"/>
	<path class="st12" d="M406.1,814.6c0,0,15.6-29.3,51.5-31.8s47.4,38.7,45.6,46.9c14.4-24.5,46.9-40.1,76.9-18.2
		c18.1-38.6-31.9-70.8-31.9-70.8l-83-14.7l-63.5,17.2l-13,35.1L406.1,814.6z"/>
	<path class="st13" d="M833.1,355.8c0,0-18.3,118.4,0,160.1c20.6,32.7,73.4,115.1,107.4,56.1C945.3,561.7,817.2,514.2,833.1,355.8z"
		/>
	<path class="st13" d="M178.6,409.7c0,0,9.6,156-106.6,210c12,15.3,45.5,6.6,118.7-58.1c11.6-22.1,13.8-67.1,4.7-106.1
		s-8.3-59.6-8.3-59.6L178.6,409.7z"/>
	<path class="st13" d="M423.4,164.7c0,0-91.3,1.9-99.5,118.3c-26.5-7.5-59.3-6.5-59.3-6.5l49.7-71.5
		C314.2,205,359.3,159.8,423.4,164.7z"/>
	<path class="st13" d="M643.5,141.5c0,0,54,58.8,58,133c22.5-11.3,55-19.6,55-19.6L643.5,141.5z"/>
	<path class="st13" d="M264.5,215.8c0,0,63.7-122.3,158.8-51.2c-27.3,0.8-77.2,5.8-120.3,48.6C282.9,224.3,264.5,215.8,264.5,215.8z
		"/>
	<path class="st13" d="M323.8,66.7c0,0,114.4-47.8,173.1,65.9c-13.9-12.3-49.2-47.3-125.8-37.7C337.3,91.9,320,72.9,323.8,66.7z"/>
	<path class="st13" d="M497,4.3c0,0,64.7,11.8,85.5,116c-16-25.3-16-25.3-16-25.3s-30.8-38.5-71.3-52.2
		C474.4,16.8,480.1,4.6,497,4.3z"/>
	<path class="st2" d="M323.8,317.1c-3.3,0.1-7.8,0.3-13.3,1.1c-2.5,0.4-5.1,0.8-7.9,1.4c-4.7,1-9.9,2.4-15.3,4.3
		c-0.5,0.2-1,0.4-1.4,0.5c-0.5,0.2-0.9,0.3-1.4,0.5c-0.4,0.1-0.9,0.3-1.3,0.5c-1.5,0.6-3,1.2-4.6,1.9c-0.4,0.2-0.7,0.3-1.1,0.5
		c-1.3,0.6-2.5,1.2-3.7,1.9c-0.1,0.1-0.2,0.1-0.3,0.2c-10.1,5.2-20.5,12.6-30.4,22.9c-5,5.2-9.8,11.2-14.4,18.1
		c-7.4,11.2-14.1,24.7-19.5,41c0,0,0-0.4,0.1-1.1c0.6-11.3,8.8-105.8,97.7-96.6C312.3,314.9,317.9,315.8,323.8,317.1z"/>
	<path class="st2" d="M805.5,399.7c0-0.1,0-0.1-0.1-0.2c-8.9-26.7-21.1-45.8-34.4-59.6c-9.7-10-19.9-17.2-29.8-22.3l-1.7-0.8
		c-1.6-0.8-3.3-1.6-4.9-2.3c-10.7-4.7-20.8-7.1-29-8.4c-6.1-0.9-11.2-1.2-14.8-1.3c12.3-2.8,23.2-3.7,33-3.3
		c77,3.3,81.5,93.9,81.6,98.1C805.5,399.6,805.5,399.7,805.5,399.7z"/>
	<path class="st2" d="M705.6,306.1c0,0,14.7,6.2,3.3,14.1c12-1.4,35.2-4,35.2-4S715.5,302.2,705.6,306.1z"/>
	<path class="st2" d="M794.5,373.2c0,0-6.3-8.6-9.1,2.2c-6.4-17.4-11.9-38.3-11.9-38.3s15,10.2,15.8,11.8S794.5,373.2,794.5,373.2z"
		/>
	<path class="st2" d="M310.5,318.2c0,0-6.5,6.8,0,8.6c-16.4-2.8-37.7,3.3-37.7,3.3S295.1,318.9,310.5,318.2z"/>
	<path class="st2" d="M212.4,403c0,0,11.3-14.7,12.8-9.8c4.8-14.8,10.8-32.3,10.8-32.3S213.1,381.6,212.4,403z"/>
	<path class="st7" d="M299.3,753.4c-81.1-153.4-90.7-274.3-90.8-320.7c0-13.4,0.7-20.6,0.7-20.6c0-0.4,0-0.7,0.1-1.1
		c1.2-17.4,16.1-39.8,20.1-43c-0.2,1-0.5,2.1-0.7,3.1c-1.9,8.9-3.1,18.4-3.9,28.6c-0.3,4.6-0.6,9.4-0.6,14.3
		c-2.9,123.3,62.3,311.8,74.9,338.9C299.2,753,299.3,753.2,299.3,753.4z"/>
	<path class="st7" d="M805.5,399.7c0,0,5.5,190.7-69.3,335.6c18.3-52.6,80-253.3,42-379C789.3,348.8,798.1,376.8,805.5,399.7z"/>
	<path class="st8" d="M343,303.1c0,0,51.6,78.7,152.2,83.5c83.7,2.9,137-38,180.5-90.1c-35.4,46.2-88.4,96.2-178.3,95.3
		C408,391,354.6,321.3,343,303.1z"/>
	<path class="st14" d="M317.5,778.4c0,0-23.4,36.2-17.8,117.1c-7.1-27.4-13.1-108.9-0.4-142.1C304.7,762.8,317.5,778.4,317.5,778.4z
		"/>
	<path class="st14" d="M696.2,789.6c0,0,19.9,72.9,7,116.9c17.2-23.5,32.5-122.5,32.4-167.1C728.4,752.1,709.2,782.7,696.2,789.6z"
		/>
	<path class="st14" d="M355.9,813.3c0,0-3.9,88.9-11.2,105.2c7.5,0.1,17.8-9.6,21.4-43.6C363.2,851,355.9,813.3,355.9,813.3z"/>
	<path class="st14" d="M618.1,845.9c0,0-5.6,65.8,7.1,72.7c-5,5.3-24.3,11.7-25-29.8C606.8,869.9,618.1,845.9,618.1,845.9z"/>
	<path class="st15" d="M160.9,440.6c0,0-85.6,119.5-83.8,177C63.2,614.4,70.5,561.1,160.9,440.6z"/>
	<path class="st15" d="M835,367.7c0,0,96.4,138.1,99.7,197C924.5,539.1,868.5,408.5,835,367.7z"/>
	<path class="st11" d="M285.9,401.7c0,0,181.9,103.3,424.8,1.4C685.6,413,487.5,483.1,285.9,401.7z"/>
	<path class="st15" d="M263.1,202.9c0,0,17.6-73.3,93.3-97.8C326.8,115.6,260.7,140.3,263.1,202.9z"/>
	<path class="st15" d="M327.3,62.3c0,0,25-48.5,164.1-14.8C450.1,38.7,384.8,29,327.3,62.3z"/>
	<path class="st16" d="M621.4,595.7c-16.5-44.1-13.2-137.2-13.2-137.2c-5.1-16.6-45.2-6.6-64.5,0c-19.3,6.6-27.2,54.2-40.5,98.7
		c-13.3,44.5,47.8,86.3,91.8,114.1c44,27.8,22.6,95.5,14.4,119c-8.2,23.5-20.2,56.9-64.3,50s-59.1,9.5-66.1,13.9
		c-6.9,4.5,26.2,10.9,47.9,16.9c21.7,5.9,61.4-2.8,73.2-14c11.7-11.1,19-39.2,21.2-69.5C623.6,757.4,637.9,639.8,621.4,595.7z
		 M607.4,667.2c-12.3-10.3-35.4-40.2-36.3-73.3c-0.9-33.1,29.8-73.3,29.8-73.3c1.3,7.6,5.8,54.1,12.9,72.9
		C621,612.2,609.5,661.8,607.4,667.2z"/>
	<path class="st16" d="M532.4,625.3c0,0,24.7,24.1,27.6,67.8c2.9,43.8-45.7,37.9-36.2,7.9C533.4,671.1,539.3,637.5,532.4,625.3z"/>
	<path class="st16" d="M392.8,470.6c0,0-12.3,81.7,0,141.3s50,95.9,43.1,141.5c-6.9,45.6,1.6,80.6,12.7,92.5s-34.7,0.1-62.9-32.5
		c-28.2-32.7,20.6-34.5,32.3-57.2c11.7-22.8,11.3-55.8-12-81C382.7,649.9,357.4,665.3,392.8,470.6z"/>
	<path class="st16" d="M285.9,423.4c4.5-9.6,8.2-24.5,52.1-5.3s72.5,34.6,102.4,34.3c29.8-0.2,69.7,0.8,59.5,9.8
		c-10.2,9-64.4-0.9-76.3,8.1c-11.9,9-26.4,22.7-34.1,29.6s21.2-33.4,16.5-41.4c-4.7-8-52.8,19-55.7,38.6s-15,54.6-16.7,48
		c-1.7-6.6,10.9-66.4,0.6-82C323.9,447.6,278.9,438.3,285.9,423.4z"/>
	<path class="st16" d="M334,553.8c-7.1-16.8,30.6,56.1,4.5,67.6S345.1,580.2,334,553.8z"/>
	<path class="st17" d="M549.9,667.2c0,0,5.5,27.5,3.8,40c-1.7,12.4-15.6,12.1-10.5,5.7S555.2,692.6,549.9,667.2z"/>
	<path class="st17" d="M378,601.6c0,0,0.3,36.7,4.4,46.1s17.3,18.3,21.5,20.3c4.2,2-14.9-9.1-18.4-21.6
		C382,633.9,386.7,619.4,378,601.6z"/>
	<path class="st17" d="M535.7,493.8c0,0-18.6,41.2-22.9,57.5c-4.3,16.4,11.1,21,9.9,6.3C521.4,542.9,535.7,493.8,535.7,493.8z"/>
	<path class="st17" d="M515.3,580.3c-8.1,8.7,9.7,36.6,22.2,45.1c12.5,8.5-7.2-12.8-7.2-23.7S524.7,570.2,515.3,580.3z"/>
	<path class="st17" d="M388.5,784.5c-4.9,0.8-7.6,7.5-6.8,11.9c0.8,4.4,9.1,8.5,13.2,16.9c4.1,8.5,16.5,14.3,20.4,16.4
		c3.9,2-10.2-8-16.5-16.4C392.5,804.9,395.6,783.3,388.5,784.5z"/>
	<path class="st17" d="M612.7,788.5c0,0-6.6,35.9-15.7,44.7s-28.5,11-25.8,14c2.7,3,26.1-0.3,31.2-12
		C607.5,823.5,612.7,788.5,612.7,788.5z"/>
	<path class="st17" d="M341.5,580.4c0,0,8.5,22.3,3,30.8s-9.1,3.2-5.3-3.7C343.1,600.7,346.5,592.6,341.5,580.4z"/>
	<path class="st17" d="M619.3,609.3c-2-4,6.4,44,5.5,55.2c-0.9,11.2-8.1,12.4-5.5,19.3c2.6,6.9,5.7,16.4,5.7,14.7
		c0-1.7,1.9-26.3,1.9-31.3C626.9,662.1,622.7,616.2,619.3,609.3z"/>
	<path class="st2" d="M173.9,418c0,0-96.8,62.9-77.4-7.4C45.4,450.7,61.1,552.3,173.9,418z"/>
	<path class="st2" d="M864,401.7c0,0,74,86.9,92.3,43.8C968.2,494.2,965,551.2,864,401.7z"/>
	<path class="st2" d="M647.6,134.4c0,0-30-110.2,18.2-76.6C633.9-0.8,559.1-22,647.6,134.4z"/>
	<path class="st11" d="M247.4,421.1c0,0,2.4-56.7,66.7-37C289.2,365.3,254.2,361.1,247.4,421.1z"/>
	<path class="st11" d="M686.1,383.5c0,0,53.3-19.3,67.2,16.1C745.5,368.2,732.3,354.2,686.1,383.5z"/>
	<path class="st2" d="M17.5,1024c16.3-95.8,47.8-233.6,49.3-240c0-0.1,0.1-0.2,0.1-0.3c10.5-50.5,24.7-103.8,42.5-158.5
		c0.5-1.6,0.1-3.3-1.1-4.4c-1.2-1.1-2.9-1.5-4.4-0.9c-11.2,4.2-21.3,3.6-27.2-1.6c-6.6-5.8-8-17.3-4.3-33.1
		c8.2-34.3,87.3-146.9,152.6-232.9c0.1-0.2,0.2-0.4,0.4-0.5c30.6-56.4,62.5-105.5,94.8-145.8c1.3-1.7,1.2-4.1-0.3-5.6
		c-1.5-1.5-3.9-1.7-5.6-0.5c-16.5,12.3-34.5,18.3-43.9,14.6c-4.3-1.7-6.9-5.4-7.9-11.3c-2.6-14.6,4.3-34.6,18.1-52.1
		c23.5-29.9,62.5-48.6,107.1-51.2c2.3-0.1,4.1-2.1,4-4.4c-0.1-2.3-2-4.1-4.3-4.1h-0.1c-37,0.6-59.1-10.9-61.8-22.4
		c-1.7-7.5,4.9-15.5,18.2-21.8c37.6-17.9,100.3-16.1,163.6,4.5c2.1,0.7,4.4-0.4,5.3-2.5c0.8-2.1-0.1-4.4-2.1-5.4
		c-17.5-8.7-28.7-22.9-26.7-29.2c1.4-4.5,11.8-8,36.5-4.1c37.1,5.8,68.7,41,88.7,69.4c21.9,31.2,35,61.3,35.1,61.6
		c0.2,0.6,0.6,1.1,1.1,1.5c8,7.2,16,15,23.7,23.1c7.8,8.2,15.7,16.9,23.4,26c0.1,0.1,0.1,0.1,0.2,0.2
		c1.3,1.3,131.9,136.3,209.7,282.7c40,75.3,35.5,100.4,29.3,108.7c-5.1,6.8-14.5,6.5-21.5,5c-1.5-0.3-3.1,0.2-4.1,1.4
		c-1,1.2-1.3,2.8-0.8,4.2c16.9,48.6,31.3,96.7,42.8,142.9c0,0,0,0.1,0,0.1c0,0,0,0.1,0,0.1c0.8,3.3,1.6,6.6,2.4,9.9l0.4,1.7
		c0,0.2,0.1,0.4,0.2,0.6c19.8,71.5,44.6,199.4,58.6,274.8h8.7c-14-75.4-39.1-205.2-59.2-277.5c0-0.1-0.1-0.2-0.1-0.3l-0.3-1.3
		c-0.8-3.3-1.6-6.6-2.4-9.9h0c0-0.1,0-0.1,0-0.2h0c-11-44.4-24.7-90.5-40.8-137.1c10,0.6,18-2.6,22.9-9.2
		c13.2-17.6,3.5-57.3-28.6-117.9c-77.4-145.7-206.6-280-211-284.5c-7.8-9.2-15.7-18-23.6-26.3c-7.7-8-15.5-15.7-23.5-22.9
		c-2.3-5.3-15-32.9-35.6-62.3c-30.5-43.3-62.2-67.9-94.4-72.9c-27-4.3-42.5-0.9-45.9,10c-2.4,7.5,2.3,16.6,10.2,24.6
		c-56.9-14.4-111.2-13.6-145.9,2.8c-17.3,8.2-25.6,19.7-22.9,31.5c2.7,11.9,16.1,21,35.9,25.7c-32.6,8.2-60.5,25.4-79.3,49.3
		c-15.5,19.7-22.9,41.7-19.8,58.9c2,11.1,8.3,15.8,13.2,17.7c9.2,3.7,21.2,1.1,32.5-4c-27.9,37-55.3,80.3-81.7,129
		c-24.3,32-143,190.1-153.9,235.9c-5.8,24.2,0.6,35.9,6.9,41.5c6.7,5.9,16.7,7.8,27.8,5.5c-16.6,52.2-30.2,103.1-40.2,151.5
		c0,0,0,0.1,0,0.1c-0.3,1.5-33.1,144.3-49.7,242.2H17.5z"/>
	<path class="st6" d="M825.3,423.4l-19.9-23.9c-0.1-4.2-4.6-94.8-81.6-98.1l-22.4-26.9c0,0,53-38.3,102.3-8.5
		C853.1,295.9,825.3,423.4,825.3,423.4z"/>
	<path class="st2" d="M701.4,274.5c38-27.3,100.6-37,124.8,12.9c18.1,40.5,8,96.4-0.6,138.5c1.8-42.1,13-115-15.6-148.3
		C781.8,246.9,734.5,258.3,701.4,274.5L701.4,274.5z"/>
	<path class="st15" d="M728.3,264.5c0,0,36.8-15.9,69.5,2.9c26,15.3,32.6,54.5,31.1,104.1C830.6,347.5,833.3,240.7,728.3,264.5z"/>
	<path class="st6" d="M331.4,285L307,314.3c-88.9-9.2-97.1,85.3-97.7,96.6c0,0.7-0.1,1.1-0.1,1.1s-0.7,7.2-0.7,20.6l-13.7,16.4
		c0,0-27.7-127.5,21.6-157.3C265.8,261.9,331.4,285,331.4,285z"/>
	<path class="st2" d="M327.3,283.7c-40.7-9.1-90.7-9.2-121.3,23c-9.4,11.8-13.1,26.6-15.2,41.7c-4.4,35.6-0.4,71.6,4.5,107
		c-7-23.2-11.3-47.1-12.9-71.3c-1.5-27.4-0.7-60.3,17.3-82.8C232,267.1,286.2,267.9,327.3,283.7L327.3,283.7z"/>
	<path class="st15" d="M297,279.1c0,0-61.8-6.8-91,27.6c-24.9,28.7-15.4,108.9-15.4,108.9S164.2,276.9,297,279.1z"/>
	<g>
		<path class="st1" d="M250.3,970.7c-1.4-0.7-2.8-1.3-4.2-2c-17.7-8.6-35-18.1-51.7-28.3c-1.8-1.1-3.7-2.3-5.5-3.4
			c-3.2-6.4-8.1-16.8-14-30.2c-22.4-51-58.6-146.3-62.8-237.8c-1.7-37.7,66.7-60,93.6-35.8c22.7,20.4-3.6,115.3,24.7,259.2
			c0.2,1,0.4,2,0.6,3c3.1,15.2,6.7,31,11.1,47.3c0,0.1,0,0.1,0,0.2C244.7,951.9,247.4,961.2,250.3,970.7z"/>
		<path class="st0" d="M137.8,807.7c0,0,35.6,3.3,80.1-20c1.9,32.3,6.2,72.8,6.2,72.8s-31.3,25.2-60.7,17.6
			C147.8,847.3,137.8,807.7,137.8,807.7z"/>
		<path class="st0" d="M250.3,970.7c-0.5-0.2-1-0.5-1.4-0.7c0,0.1,0.1,0.3,0.1,0.4c-0.2-0.1-0.5-0.2-0.7-0.3
			c-17.6-8.5-34.9-18-51.6-28.3c-1.2-0.7-2.4-1.4-3.5-2.2c-1.4-0.9-2.8-1.8-4.2-2.6c-3.2-6.5-7.5-15.8-12.6-27.3
			c5.4,1.8,25.6,6.1,55.5-14.4c0,0,0.1-0.1,0.1-0.1c0.2,1,0.3,2,0.5,3c2.5,15.2,6.7,31.8,11.1,47.3c0,0.1,0,0.1,0,0.2
			c2.3,8.3,4.7,16.8,7.4,25.4C250.7,970.9,250.5,970.8,250.3,970.7z"/>
		<path class="st2" d="M175.1,881.2c-4,0-8.1-0.5-12.1-1.5l-0.7-0.2l-0.3-0.7c-15.5-30.6-25.6-70.4-25.7-70.8l-0.6-2.3l2.4,0.2
			c0.4,0,35.6,3,79.2-19.8l2.3-1.2l0.2,2.6c1.9,31.9,6.1,72.3,6.2,72.7l0.1,0.9l-0.7,0.6C224,862.7,200.7,881.2,175.1,881.2z
			 M164.6,876.6c25.6,6.1,53-13.3,57.8-16.9c-0.6-6.1-4.1-40.5-5.9-69.3c-37,18.7-67.8,19.3-76.4,19.1
			C142.3,818.1,151.5,850.6,164.6,876.6z"/>
		<path class="st2" d="M245.2,945.3l-0.1-0.3c-5.1-17.9-8.9-33.7-11.1-47.1l-0.1-0.6c-0.1-0.8-0.3-1.6-0.4-2.4l-0.3-2.3l-2,1
			l-0.3,0.2c-29.2,20-48.7,15.9-54,14.2l-3.6-1.2l1.5,3.5c4.6,10.4,8.5,18.8,11.5,25c0.9,0.6,1.8,1.1,2.7,1.7c0,0,0,0,0,0
			c1.4,0.9,2.8,1.8,4.2,2.6c-0.5-0.3-1-0.7-1.5-1c-2.8-5.7-7.1-14.7-12.4-26.5c8.3,1.7,26.5,2.3,51.4-14.1l0.1,0.4
			c2.3,13.5,6,29.4,11.2,47.4l0.1,0.3c2.2,8,4.5,16,6.9,23.9c0.5,0.2,1,0.5,1.4,0.7c0.2,0.1,0.4,0.2,0.6,0.3c0.7,0.3,1.4,0.6,2,1
			C250.3,963.2,247.7,954.3,245.2,945.3z"/>
		<path class="st2" d="M219.4,708.7c0.2-42.1,0.4-67.5-11.5-78.1c-17.2-15.5-47.9-13-69.3-2.5c-18.8,9.2-29.9,23.9-29.9,39.4
			c0,0.5,0,1,0,1.5c5.1,110.1,56.7,226.6,74.8,264.4c1.8,1.1,3.6,2.3,5.4,3.4c1.8,1.2,3.7,2.3,5.5,3.4
			c-9.9-19.5-73.3-149.7-79-271.6c-0.6-13.3,9.1-26.2,26-34.5c19-9.3,47.1-11.9,62,1.4c9.5,8.6,9.4,35.6,9.2,72.9
			c-0.3,59.6-0.8,148.7,33.5,260.1c1.4,0.7,2.8,1.3,4.2,2c1.4,0.7,2.8,1.3,4.1,2C218.6,859.5,219.1,768.9,219.4,708.7z"/>
		<path class="st6" d="M109,647.9c0,0-4.6,86,3.2,108.2s107.4-1.2,115.9-33.2c7.8-32.8-22.3-109.3-22.3-109.3S130.1,595,109,647.9z"
			/>
		<path class="st2" d="M201.5,620c11.1,28.1,20,56.8,31.9,84.3c7.1,15.4-4.2,31.9-16.2,40.7c-15.6,12.4-35.3,15.9-54.1,20.6
			c-22.4,5-54.9,10.5-56.8-21.7c-2.1-15.7-1.5-31.9,1.3-47.4c0,12.6,0.7,25.1,2.7,37.3c1,6,2.1,11.9,4.1,17.6
			c6.6,16.2,33.5,7.9,46.4,4.9c17.1-5,35.9-8.1,50.4-19.2c8.6-6.5,18.1-17.4,14.5-28.5c-2.1-5.1-3.9-10.3-5.6-15.6
			C212.7,669.1,206.5,644.7,201.5,620L201.5,620z"/>
		<path class="st2" d="M108.6,744.1c-0.9,0-1.7-0.7-1.7-1.6c0-0.9,0.7-1.7,1.6-1.7c0.6,0,56.9-1.6,118.4-36.4
			c0.8-0.5,1.8-0.2,2.3,0.6c0.5,0.8,0.2,1.8-0.6,2.3C166.4,742.5,109.2,744.1,108.6,744.1C108.6,744.1,108.6,744.1,108.6,744.1z"/>
		<path class="st7" d="M189.4,753.4c0,0,9.7,128,60.9,217.3c-16.2-45.5-35.3-174.2-34.8-232.8C210.3,745.4,189.4,753.4,189.4,753.4z
			"/>
		<polygon class="st0" points="260,1024 245.7,967.2 194.5,940.4 231.5,1024 		"/>
		<polygon class="st2" points="233.1,1024 187.9,926.9 181.2,928.5 224,1024 		"/>
		<polygon class="st2" points="269.2,1024 251.7,963.8 244.7,963.8 259.3,1024 		"/>
		<path class="st1" d="M203.6,964.8c0,0,27.9,2.9,40-11.6c6.1,23,11.7,46.4,11.7,46.4s-15,14.2-31.4,8
			C217,992.8,203.6,964.8,203.6,964.8z"/>
		<path class="st2" d="M232.6,1010.8c-3,0-6.1-0.5-9.3-1.7l-0.6-0.2l-0.3-0.6c-6.8-14.7-20.2-42.5-20.3-42.8l-1.2-2.6l2.8,0.3
			c0.3,0,27.2,2.7,38.6-11l2-2.4l0.8,3c6,22.8,11.7,46.2,11.8,46.5l0.2,0.9l-0.7,0.6C255.9,1001.3,245.7,1010.8,232.6,1010.8z
			 M225,1006.4c13.2,4.6,25.5-4.7,28.5-7.2c-1.1-4.4-5.7-23.4-10.8-42.7c-10.8,10.2-29.5,10.5-36.5,10.2
			C209.6,973.7,219.4,994.1,225,1006.4z"/>
	</g>
	<g>
		<path class="st1" d="M762.1,970.7c1.4-0.7,2.8-1.3,4.2-2c17.7-8.6,35-18.1,51.7-28.3c1.8-1.1,3.7-2.3,5.5-3.4
			c3.2-6.4,8.1-16.8,14-30.2c22.4-51,58.6-146.3,62.8-237.8c1.7-37.7-66.7-60-93.6-35.8c-22.7,20.4,3.6,115.3-24.7,259.2
			c-0.2,1-0.4,2-0.6,3c-3.1,15.2-6.7,31-11.1,47.3c0,0.1,0,0.1,0,0.2C767.8,951.9,765.1,961.2,762.1,970.7z"/>
		<path class="st0" d="M874.7,807.7c0,0-35.6,3.3-80.1-20c-1.9,32.3-6.2,72.8-6.2,72.8s31.3,25.2,60.7,17.6
			C864.6,847.3,874.7,807.7,874.7,807.7z"/>
		<path class="st0" d="M762.1,970.7c0.5-0.2,1-0.5,1.4-0.7c0,0.1-0.1,0.3-0.1,0.4c0.2-0.1,0.5-0.2,0.7-0.3
			c17.6-8.5,34.9-18,51.6-28.3c1.2-0.7,2.4-1.4,3.5-2.2c1.4-0.9,2.8-1.8,4.2-2.6c3.2-6.5,7.5-15.8,12.6-27.3
			c-5.4,1.8-25.6,6.1-55.5-14.4c0,0-0.1-0.1-0.1-0.1c-0.2,1-0.3,2-0.5,3c-2.5,15.2-6.7,31.8-11.1,47.3c0,0.1,0,0.1,0,0.2
			c-2.3,8.3-4.7,16.8-7.4,25.4C761.7,970.9,761.9,970.8,762.1,970.7z"/>
		<path class="st2" d="M787.3,861.8l-0.7-0.6l0.1-0.9c0-0.4,4.3-40.8,6.2-72.7l0.2-2.6l2.3,1.2c43.6,22.8,78.8,19.8,79.2,19.8
			l2.4-0.2l-0.6,2.3c-0.1,0.4-10.3,40.2-25.7,70.8l-0.3,0.7l-0.7,0.2c-4,1-8.1,1.5-12.1,1.5C811.8,881.2,788.5,862.7,787.3,861.8z
			 M872.5,809.4c-8.6,0.2-39.4-0.4-76.4-19.1c-1.8,28.8-5.3,63.3-5.9,69.3c4.7,3.6,32.1,23.1,57.8,16.9
			C860.9,850.6,870.1,818.1,872.5,809.4z"/>
		<path class="st2" d="M759.5,971.9c0.7-0.3,1.4-0.6,2-1c0.2-0.1,0.4-0.2,0.6-0.3c0.5-0.2,1-0.5,1.4-0.7c2.4-7.9,4.7-15.9,6.9-23.9
			l0.1-0.3c5.1-17.9,8.9-33.9,11.2-47.4l0.1-0.4c24.9,16.4,43.1,15.8,51.4,14.1c-5.3,11.9-9.6,20.8-12.4,26.5c-0.5,0.3-1,0.7-1.5,1
			c1.4-0.9,2.8-1.8,4.2-2.6c0,0,0,0,0,0c0.9-0.6,1.8-1.1,2.7-1.7c3-6.2,6.9-14.6,11.5-25l1.5-3.5l-3.6,1.2
			c-5.3,1.7-24.8,5.8-54-14.2l-0.3-0.2l-2-1l-0.3,2.3c-0.1,0.8-0.3,1.6-0.4,2.4l-0.1,0.6c-2.2,13.4-6,29.3-11.1,47.1l-0.1,0.3
			C764.8,954.3,762.2,963.2,759.5,971.9z"/>
		<path class="st2" d="M758,972.6c1.4-0.6,2.8-1.3,4.1-2c1.4-0.7,2.8-1.3,4.2-2c34.3-111.3,33.8-200.5,33.5-260.1
			c-0.2-37.3-0.4-64.3,9.2-72.9c14.8-13.4,43-10.7,62-1.4c16.9,8.3,26.7,21.2,26,34.5c-5.6,121.8-69.1,252-79,271.6
			c1.8-1.1,3.7-2.3,5.5-3.4c1.8-1.1,3.6-2.3,5.4-3.4c18.1-37.8,69.7-154.3,74.8-264.4c0-0.5,0-1,0-1.5c0-15.6-11-30.2-29.9-39.4
			c-21.4-10.5-52.1-13-69.3,2.5c-11.8,10.6-11.7,36-11.5,78.1C793.4,768.9,793.9,859.5,758,972.6z"/>
		<path class="st6" d="M903.5,647.9c0,0,4.6,86-3.2,108.2s-107.4-1.2-115.9-33.2c-7.8-32.8,22.3-109.3,22.3-109.3
			S882.3,595,903.5,647.9z"/>
		<path class="st2" d="M811,620c-11.1,28.1-20,56.8-31.9,84.3c-7.1,15.4,4.2,31.9,16.2,40.7c15.6,12.4,35.3,15.9,54.1,20.6
			c22.4,5,54.9,10.5,56.8-21.7c2.1-15.7,1.5-31.9-1.3-47.4c0,12.6-0.7,25.1-2.7,37.3c-1,6-2.1,11.9-4.1,17.6
			c-6.6,16.2-33.5,7.9-46.4,4.9c-17.1-5-35.9-8.1-50.4-19.2c-8.6-6.5-18.1-17.4-14.5-28.5c2.1-5.1,3.9-10.3,5.6-15.6
			C799.8,669.1,805.9,644.7,811,620L811,620z"/>
		<path class="st2" d="M903.8,744.1c0.9,0,1.7-0.7,1.7-1.6c0-0.9-0.7-1.7-1.6-1.7c-0.6,0-56.9-1.6-118.4-36.4
			c-0.8-0.5-1.8-0.2-2.3,0.6c-0.5,0.8-0.2,1.8,0.6,2.3C846.1,742.5,903.2,744.1,903.8,744.1C903.8,744.1,903.8,744.1,903.8,744.1z"
			/>
		<path class="st7" d="M823.1,753.4c0,0-9.7,128-60.9,217.3c16.2-45.5,35.3-174.2,34.8-232.8C802.2,745.4,823.1,753.4,823.1,753.4z"
			/>
		<polygon class="st0" points="780.9,1024 818,940.4 766.7,967.2 752.5,1024 		"/>
		<polygon class="st2" points="788.5,1024 831.2,928.5 824.5,926.9 779.4,1024 		"/>
		<polygon class="st2" points="753.1,1024 767.8,963.8 760.7,963.8 743.3,1024 		"/>
		<path class="st1" d="M808.9,964.8c0,0-27.9,2.9-40-11.6c-6.1,23-11.7,46.4-11.7,46.4s15,14.2,31.4,8
			C795.5,992.8,808.9,964.8,808.9,964.8z"/>
		<path class="st2" d="M779.8,1010.8c-13.1,0-23.3-9.5-23.8-10l-0.7-0.6l0.2-0.9c0.1-0.2,5.8-23.7,11.8-46.5l0.8-3l2,2.4
			c11.4,13.7,38.3,11,38.6,11l2.8-0.3l-1.2,2.6c-0.1,0.3-13.5,28.1-20.3,42.8l-0.3,0.6l-0.6,0.2
			C786,1010.3,782.8,1010.8,779.8,1010.8z M758.9,999.1c3,2.5,15.3,11.8,28.5,7.2c5.7-12.2,15.5-32.7,18.8-39.8
			c-7.1,0.3-25.7,0.1-36.5-10.2C764.7,975.7,760,994.7,758.9,999.1z"/>
	</g>
	<path class="st18" d="M13.4,1024h216.5c-55.8-100.3-98.6-235.5-104.5-261.4c-30.7,1.8-16.2-137.4-16.2-137.4
		C87.4,665.6,24.1,971.8,13.4,1024z"/>
	<path class="st18" d="M1014.7,1024c-6.9-37.2-67.8-361.3-105.5-431.4l-4.3,103.9c0,0,8.3,67.9-18.7,67.1
		c-11.2,52.7-72.9,216.3-106,260.3H1014.7z"/>
	<path class="st18" d="M317.9,1024c-72-69.4-101.8-281.6-101.8-281.6c-8.2,101.4,38.4,251.3,48.3,281.6H317.9z"/>
	<path class="st18" d="M747.3,1024c6.6-21,55-179.2,49.6-286.2c0,0-38.4,236.1-97.6,286.2H747.3z"/>
</g>
</svg>
