<?xml version="1.0" encoding="utf-8"?>
<!-- Generator: Adobe Illustrator 26.1.0, SVG Export Plug-In . SVG Version: 6.00 Build 0)  -->
<svg version="1.1" id="Layer_1" xmlns="http://www.w3.org/2000/svg" xmlns:xlink="http://www.w3.org/1999/xlink" x="0px" y="0px"
	 viewBox="0 0 2000 2000" style="enable-background:new 0 0 2000 2000;" xml:space="preserve">
<style type="text/css">
	
		.st0{fill:url(#SVGID_1_);stroke:url(#SVGID_00000013876280066895722760000011475707011056012982_);stroke-width:82;stroke-miterlimit:10;}
	
		.st1{fill:url(#SVGID_00000024704267655364748900000012658369259479712157_);stroke:url(#SVGID_00000041292359928335450440000003699947534905196689_);stroke-width:24;stroke-miterlimit:10;}
	
		.st2{fill:url(#SVGID_00000052801526228886627770000003556232012377777036_);stroke:url(#SVGID_00000070823271108188017590000002359129998096017832_);stroke-width:14;stroke-miterlimit:10;}
	
		.st3{fill:url(#SVGID_00000166665407397927360600000000277817854643539874_);stroke:url(#SVGID_00000176746613770570369390000001514580198310854320_);stroke-width:14;stroke-miterlimit:10;}
	
		.st4{fill:url(#SVGID_00000019670836612946705280000000120773063311414456_);stroke:url(#SVGID_00000158741820917118482780000010967620116052026801_);stroke-width:24;stroke-miterlimit:10;}
</style>
<radialGradient id="SVGID_1_" cx="1000.955" cy="996.785" r="955.115" gradientTransform="matrix(1 0 0 -1 0 2000)" gradientUnits="userSpaceOnUse">
	<stop  offset="0" style="stop-color:#AA82FE"/>
	<stop  offset="1" style="stop-color:#7F52FB"/>
</radialGradient>
<linearGradient id="SVGID_00000111158078906929637080000005378725717014269350_" gradientUnits="userSpaceOnUse" x1="1756.1045" y1="96.8328" x2="245.8055" y2="1896.7372" gradientTransform="matrix(1 0 0 -1 0 2000)">
	<stop  offset="0" style="stop-color:#9A7AFE"/>
	<stop  offset="0.4302" style="stop-color:#C3A6FF"/>
</linearGradient>
<path style="fill:url(#SVGID_1_);stroke:url(#SVGID_00000111158078906929637080000005378725717014269350_);stroke-width:82;stroke-miterlimit:10;" d="
	M1438,1958.3H563.9c-286.1,0-518.1-231.9-518.1-518.1V566.2C45.8,280,277.8,48.1,563.9,48.1H1438c286.1,0,518.1,231.9,518.1,518.1
	v874.1C1956.1,1726.4,1724.1,1958.3,1438,1958.3z"/>
<linearGradient id="SVGID_00000143591215754493335510000014475240835745213088_" gradientUnits="userSpaceOnUse" x1="628.975" y1="1417.1536" x2="628.975" y2="1020.4462" gradientTransform="matrix(1 0 0 -1 0 2000)">
	<stop  offset="0" style="stop-color:#FFFFFF"/>
	<stop  offset="1" style="stop-color:#E7E4F8"/>
</linearGradient>
<radialGradient id="SVGID_00000094609276292614675530000007910694738829523900_" cx="628.975" cy="1261.3199" r="276.5875" gradientTransform="matrix(1 0 0 -1 0 2000)" gradientUnits="userSpaceOnUse">
	<stop  offset="0" style="stop-color:#AC8EFB"/>
	<stop  offset="1" style="stop-color:#A17CF6"/>
</radialGradient>
<path style="fill:url(#SVGID_00000143591215754493335510000014475240835745213088_);stroke:url(#SVGID_00000094609276292614675530000007910694738829523900_);stroke-width:24;stroke-miterlimit:10;" d="
	M770.2,1003.3H487.8c-68.1,0-123.4-55.2-123.4-123.4V597.5c0-68.2,55.2-123.4,123.4-123.4h282.4c68.2,0,123.4,55.2,123.4,123.4
	v282.4C893.6,948,838.3,1003.3,770.2,1003.3z"/>
<g>
	<g>
		
			<radialGradient id="SVGID_00000098942754231891589670000008534173346453338240_" cx="1000.9437" cy="606.1818" r="356.2276" gradientTransform="matrix(1 0 0 -1 0 1999.0177)" gradientUnits="userSpaceOnUse">
			<stop  offset="0" style="stop-color:#FFFFFF"/>
			<stop  offset="1" style="stop-color:#F5F4FB"/>
		</radialGradient>
		
			<linearGradient id="SVGID_00000013156689883643294370000014057166272817414310_" gradientUnits="userSpaceOnUse" x1="1000.9437" y1="1190.952" x2="1000.9437" y2="1594.72">
			<stop  offset="0" style="stop-color:#AE8CF7"/>
			<stop  offset="1" style="stop-color:#936CF0"/>
		</linearGradient>
		
			<path style="fill:url(#SVGID_00000098942754231891589670000008534173346453338240_);stroke:url(#SVGID_00000013156689883643294370000014057166272817414310_);stroke-width:14;stroke-miterlimit:10;" d="
			M1006,1587.7c-117.7,0-231.3-40.3-329.3-117c-78.5-61.4-121.3-126.3-126-133.5c-27-42-14.9-97.9,27.1-124.9
			c42-27,97.8-14.9,124.9,27c0.8,1.2,31.1,46.9,86.9,90.2c69.1,53.6,145.2,79.7,226.1,77.3c175.2-5.1,274.3-141.3,285-156.8
			c28.4-41.1,84.7-51.3,125.7-23c41.1,28.4,51.3,84.7,23,125.7c-10.8,15.6-51.2,70.5-119.5,122.8c-91.6,70.1-198.4,108.8-309,112
			C1016,1587.7,1011,1587.7,1006,1587.7z"/>
		
			<radialGradient id="SVGID_00000103255293639881255720000017486551904478859177_" cx="1000.9466" cy="606.1775" r="363.6181" gradientTransform="matrix(1 0 0 -1 0 1999.0175)" gradientUnits="userSpaceOnUse">
			<stop  offset="0" style="stop-color:#916CF7"/>
			<stop  offset="1" style="stop-color:#7C4DF9"/>
		</radialGradient>
		
			<linearGradient id="SVGID_00000176031176022042313640000006822154015125231806_" gradientUnits="userSpaceOnUse" x1="1000.9466" y1="1182.96" x2="1000.9466" y2="1602.72">
			<stop  offset="0" style="stop-color:#AE8CF7"/>
			<stop  offset="1" style="stop-color:#936CF0"/>
		</linearGradient>
		
			<path style="fill:url(#SVGID_00000103255293639881255720000017486551904478859177_);stroke:url(#SVGID_00000176031176022042313640000006822154015125231806_);stroke-width:14;stroke-miterlimit:10;" d="
			M626.7,1198c29.7,0,58.8,14.6,76,41.4c0.8,1.2,31.1,46.9,86.9,90.2c66.3,51.4,138.9,77.5,216.1,77.5c3.3,0,6.7-0.1,10.1-0.2
			c175.2-5.1,274.3-141.3,285-156.8c17.5-25.4,45.8-39,74.4-39c17.7,0,35.6,5.2,51.3,16c41.1,28.4,51.3,84.7,23,125.7
			c-10.8,15.6-51.2,70.5-119.5,122.8c-91.6,70.1-198.4,108.8-309,112c-5,0.1-10,0.2-15,0.2c-117.7,0-231.3-40.3-329.3-117
			c-78.5-61.4-121.3-126.3-126-133.5c-27-42-14.9-97.9,27.1-124.9C593,1202.6,610,1198,626.7,1198 M626.7,1190
			c-18.8,0-37.2,5.4-53.2,15.7c-45.6,29.4-58.8,90.3-29.5,135.9c4.7,7.3,48.2,73.2,127.8,135.4c99.2,77.7,214.8,118.7,334.2,118.7
			c5,0,10.1-0.1,15.2-0.2c112.3-3.2,220.7-42.5,313.6-113.6c69.2-53,110.3-108.7,121.2-124.6c30.8-44.6,19.6-106-25-136.8
			c-16.5-11.4-35.8-17.4-55.8-17.4c-32.4,0-62.7,15.9-81,42.5c-10.5,15.2-107.4,148.4-278.7,153.4c-3.3,0.1-6.6,0.1-9.8,0.1
			c-75.3,0-146.4-25.5-211.2-75.8c-54.3-42.2-83.6-86-85.1-88.2C691.2,1206.8,660.3,1190,626.7,1190L626.7,1190z"/>
	</g>
</g>
<linearGradient id="SVGID_00000114783425886596136370000013975280190073025692_" gradientUnits="userSpaceOnUse" x1="1373.8367" y1="742.4131" x2="1373.8367" y2="994.3627">
	<stop  offset="0" style="stop-color:#FFFFFF"/>
	<stop  offset="1" style="stop-color:#E7E4F8"/>
</linearGradient>
<linearGradient id="SVGID_00000161631911637211885060000014082221984593076390_" gradientUnits="userSpaceOnUse" x1="1097.2516" y1="868.3879" x2="1650.4216" y2="868.3879">
	<stop  offset="0" style="stop-color:#B191FB"/>
	<stop  offset="1" style="stop-color:#9A76F7"/>
</linearGradient>
<path style="fill:url(#SVGID_00000114783425886596136370000013975280190073025692_);stroke:url(#SVGID_00000161631911637211885060000014082221984593076390_);stroke-width:24;stroke-miterlimit:10;" d="
	M1512.4,994.4h-277.2c-69.6,0-126-56.4-126-126v0c0-69.6,56.4-126,126-126h277.2c69.6,0,126,56.4,126,126v0
	C1638.4,938,1582,994.4,1512.4,994.4z"/>
</svg>
