<?xml version="1.0" encoding="utf-8"?>
<!-- Generator: Adobe Illustrator 26.1.0, SVG Export Plug-In . SVG Version: 6.00 Build 0)  -->
<svg version="1.1" id="Слой_1" xmlns="http://www.w3.org/2000/svg" xmlns:xlink="http://www.w3.org/1999/xlink" x="0px" y="0px"
	 viewBox="0 0 2000 2000" style="enable-background:new 0 0 2000 2000;" xml:space="preserve">
<style type="text/css">
	.st0{fill:#FCF1F5;}
	.st1{fill:#FEA1DA;}
	.st2{fill:#FBCAA1;}
	.st3{fill:#CAE594;}
	.st4{fill:#93CAE2;}
	.st5{fill:#FFFFFF;}
</style>
<g>
	<rect class="st0" width="2000" height="2000"/>
	<g>
		<rect x="253.6" y="120.3" class="st1" width="372.9" height="433.7"/>
		<rect x="988.4" y="120.3" class="st2" width="372.9" height="433.7"/>
		<rect x="626.5" y="554" class="st3" width="372.9" height="433.7"/>
		<rect x="1372.3" y="554" class="st4" width="372.9" height="433.7"/>
		<rect x="253.6" y="987.6" class="st2" width="372.9" height="433.7"/>
		<rect x="999.4" y="987.6" class="st1" width="372.9" height="433.7"/>
		<rect x="626.5" y="1421.3" class="st4" width="372.9" height="433.7"/>
		<rect x="1372.3" y="1421.3" class="st3" width="372.9" height="433.7"/>
		<g>
			<path class="st5" d="M306,447.9V226.1c0-13.8,11.2-25,25-24.9l40.7,0.1c13.7,0,24.9,11.2,24.9,24.9v63.7
				c0,13.8,11.2,24.9,24.9,24.9h41.1c13.8,0,25-11.2,24.9-25l-0.3-63.4c-0.1-13.8,11.1-25,24.9-25h40.4c13.8,0,24.9,11.1,24.9,24.9
				l0.2,221.7c0,13.8-11.1,24.9-24.9,24.9l-40.6,0.1c-13.8,0-25-11.2-25-25l0.3-62.9c0.1-13.8-11.1-25-24.9-25h-41.1
				c-13.8,0-24.9,11.2-24.9,24.9v62.8c0,13.7-11.1,24.9-24.9,24.9l-40.7,0.1C317.2,472.9,306,461.7,306,447.9z"/>
		</g>
		<g>
			<path class="st5" d="M306,1324.3v-261.4c0-2.9,2.3-5.2,5.2-5.2l82.4,0.2c1.9,0,3.6,1,4.5,2.6l79.8,139.6c2.6,4.6,9.7,2.7,9.7-2.6
				l-0.4-134.4c0-2.9,2.3-5.2,5.2-5.2h80c2.9,0,5.2,2.3,5.2,5.2l0.2,261.2c0,2.9-2.3,5.2-5.2,5.2l-82.4,0.2c-1.9,0-3.6-1-4.5-2.6
				l-79.4-139.2c-2.6-4.6-9.7-2.7-9.7,2.6v133.6c0,2.9-2.3,5.2-5.2,5.2l-80.2,0.2C308.3,1329.5,306,1327.1,306,1324.3z"/>
		</g>
		<g>
			<path class="st5" d="M1203.4,1125.3c0-0.2,0-0.3,0-0.5c0.1-0.7,0.1-1.5,0.1-2.2c-0.4-15.1-6.1-22.6-17.2-22.6
				c-2.2,0-4.2,0.3-6,0.9c-1.7,0.6-3.2,1.4-4.5,2.2c-1.2,0.9-2.2,2.2-3,3.9c-0.7,1.7-1.3,3.1-1.7,4.1c-0.4,1-0.7,2.7-0.9,5.2
				c-0.3,2.5-0.4,4.2-0.4,5.2c0,1,0,2.9,0,5.6c0,2.7,0,4.4,0,4.9v112.9c0,0.5,0,2.1,0,4.9c0,2.7,0,4.6,0,5.6c0,1,0.1,2.7,0.4,5.2
				c0.2,2.5,0.6,4.3,0.9,5.4c0.4,1.1,0.9,2.5,1.7,4.1c0.7,1.6,1.7,2.9,2.8,3.7c1.1,0.9,2.6,1.6,4.3,2.2c1.7,0.6,3.7,0.9,6,0.9
				c11.5,0,17.2-8.1,17.2-24.3V1235c0-12.8,10.4-23.2,23.2-23.2h41.3c12.9,0,23.3,10.5,23.2,23.3l-0.2,62.1c0,8-4.2,15.4-11.1,19.7
				c-10.5,6.6-22.6,11.7-36.3,15.4c-18.8,5.1-37.7,7.7-56.7,7.7c-38.9,0-66.8-8-83.8-23.9c-7.2-6.7-12.7-14.8-16.5-24.3
				c-3.7-9.5-5.9-17.9-6.5-25.2c-0.6-7.4-0.9-17.3-0.9-29.7v-108.5c0-32.7,8.2-55.7,24.7-69.2c18-15,44-22.4,78.2-22.4
				c35.4-0.4,67.8,7.7,97.4,24.5c7.3,4.1,11.8,11.9,11.8,20.3v44.9c0,12.8-10.4,23.2-23.2,23.2h-41.2
				C1213.4,1149.7,1202.6,1138.5,1203.4,1125.3z"/>
		</g>
		<g>
			<path class="st4" d="M925.2,396.7c0,20.6-1.6,37.2-4.7,49.8c-3.1,12.6-8.4,19-15.8,19h-64.7c-4.7,0-8.1-0.5-10.2-1.5
				c-2.1-1-3.2-3.2-3.2-6.7c0-4,0.6-8.1,1.9-12.3c1.2-4.2,2.6-8.4,4.1-12.6c1.5-4.2,2.8-8.7,4.1-13.4c1.2-4.7,1.9-9.7,1.9-14.9
				c0-5.5-1.7-9.5-5.2-12.3c-3.5-2.7-9.5-4.1-18.2-4.1c-17.4,0-26,5.5-26,16.4c0.2,10.7,2.2,20.2,5.8,28.6
				c3.6,8.4,5.5,16.6,5.8,24.5c0,3.7-0.8,6-2.4,6.9c-1.6,0.9-5.1,1.3-10.6,1.3h-64c-7.7,0-13.5-6.3-17.3-19
				c-3.8-12.6-5.8-29.1-5.8-49.5c0-6.7,0.5-14.7,1.5-24c1-9.3,2.7-19,5-29.2c2.4-10.2,5.5-20.6,9.3-31.2
				c3.8-10.7,8.6-20.8,14.3-30.5c6.4-10.7,13.3-20.8,20.5-30.3c7.2-9.5,14.5-18,21.9-25.3c7.4-7.3,14.8-13.1,22.1-17.3
				c7.3-4.2,14.3-6.3,21-6.3c6,0,12.3,2.1,19.2,6.3c6.8,4.2,13.6,10,20.5,17.3c6.8,7.3,13.6,15.8,20.3,25.3c6.7,9.5,13,19.7,19,30.3
				c5.5,9.7,10,19.8,13.8,30.5c3.7,10.7,6.8,21.1,9.3,31.4c2.5,10.3,4.3,20,5.4,29C924.7,382.1,925.2,390,925.2,396.7z M813.7,287.7
				c-3,0-5.6,1.6-8,4.8c-2.4,3.2-4.4,6.9-6.1,11c-1.7,4.1-3,8.1-3.9,11.9c-0.9,3.8-1.3,6.3-1.3,7.3c0,2.5,1.4,4.8,4.3,7.1
				c2.8,2.2,7.9,3.3,15.1,3.3c8.4,0,13.9-1.2,16.6-3.7c2.6-2.5,3.9-5.2,3.9-8.2c0-1.2-0.5-3.7-1.5-7.3c-1-3.6-2.4-7.4-4.3-11.3
				c-1.9-4-4-7.4-6.5-10.4C819.4,289.2,816.6,287.7,813.7,287.7z"/>
		</g>
		<g>
			<path class="st3" d="M1298.1,832.9c0,20.6-1.6,37.2-4.7,49.8c-3.1,12.6-8.4,19-15.8,19H1213c-4.7,0-8.1-0.5-10.2-1.5
				c-2.1-1-3.2-3.2-3.2-6.7c0-4,0.6-8.1,1.9-12.3c1.2-4.2,2.6-8.4,4.1-12.6c1.5-4.2,2.8-8.7,4.1-13.4c1.2-4.7,1.9-9.7,1.9-14.9
				c0-5.5-1.7-9.5-5.2-12.3c-3.5-2.7-9.5-4.1-18.2-4.1c-17.4,0-26,5.5-26,16.4c0.2,10.7,2.2,20.2,5.8,28.6
				c3.6,8.4,5.5,16.6,5.8,24.5c0,3.7-0.8,6-2.4,6.9c-1.6,0.9-5.1,1.3-10.6,1.3h-64c-7.7,0-13.5-6.3-17.3-19
				c-3.8-12.6-5.8-29.1-5.8-49.5c0-6.7,0.5-14.7,1.5-24c1-9.3,2.7-19,5-29.2c2.4-10.2,5.5-20.6,9.3-31.2
				c3.8-10.7,8.6-20.8,14.3-30.5c6.4-10.7,13.3-20.8,20.5-30.3c7.2-9.5,14.5-18,21.9-25.3c7.4-7.3,14.8-13.1,22.1-17.3
				c7.3-4.2,14.3-6.3,21-6.3c6,0,12.3,2.1,19.2,6.3c6.8,4.2,13.6,10,20.5,17.3c6.8,7.3,13.6,15.8,20.3,25.3c6.7,9.5,13,19.7,19,30.3
				c5.5,9.7,10,19.8,13.8,30.5c3.7,10.7,6.8,21.1,9.3,31.4c2.5,10.3,4.3,20,5.4,29C1297.6,818.4,1298.1,826.2,1298.1,832.9z
				 M1186.6,723.9c-3,0-5.6,1.6-8,4.8c-2.4,3.2-4.4,6.9-6.1,11c-1.7,4.1-3,8.1-3.9,11.9c-0.9,3.8-1.3,6.3-1.3,7.3
				c0,2.5,1.4,4.8,4.3,7.1c2.8,2.2,7.9,3.3,15.1,3.3c8.4,0,13.9-1.2,16.6-3.7c2.6-2.5,3.9-5.2,3.9-8.2c0-1.2-0.5-3.7-1.5-7.3
				c-1-3.6-2.4-7.4-4.3-11.3c-1.9-4-4-7.4-6.5-10.4C1192.3,725.4,1189.5,723.9,1186.6,723.9z"/>
		</g>
		<g>
			<g>
				<path class="st1" d="M1598.3,471.1c-11.2,0-21.1-0.3-29.9-0.9c-8.8-0.6-17.2-1.2-25.3-1.9c-8.1-0.6-15.9-1.2-23.6-1.9
					c-7.7-0.6-16-0.9-24.9-0.9c-5.7,0-10.5-3.4-14.3-10.2c-3.8-6.8-6.9-15.3-9.1-25.5c-2.2-10.2-3.8-21.1-4.8-32.7
					c-1-11.7-1.5-22.3-1.5-32c0-22.8,1.2-43.9,3.7-63.2c2.5-19.3,6.4-36.1,11.7-50.4c5.3-14.3,12.4-25.4,21.2-33.5
					c8.8-8.1,19.5-12.1,32.2-12.1h102.7c7.4,0,12.7,0.5,15.8,1.5c3.1,1,4.5,3.7,4.3,8.2c0,0.5-0.1,1.2-0.2,2.2
					c-0.1,1-0.3,2.4-0.6,4.1l-15.3,42c-1.5,4.2-3.5,7.1-6.1,8.6c-2.6,1.5-5.8,2.2-9.5,2.2c-1.5,0-3.8-1.1-6.9-3.2
					c-3.1-2.1-6.7-4.5-10.8-7.3c-4.1-2.7-8.5-5.1-13.2-7.3c-4.7-2.1-9.4-3.2-14.1-3.2c-5.2,0-9.7,1.1-13.4,3.3
					c-3.7,2.2-6.8,5-9.3,8.4c-2.5,3.3-4.3,6.9-5.6,10.6c-1.2,3.7-1.9,6.9-1.9,9.7c0,4.2,1.1,6.6,3.2,7.3c2.1,0.6,4.4,0.9,6.9,0.9
					c6,0,12.1-1.1,18.4-3.2c6.3-2.1,13.2-3.2,20.6-3.2c3,0,6.1,0.1,9.5,0.4c3.3,0.3,6.4,0.7,9.3,1.5c2.8,0.7,5.3,1.9,7.3,3.3
					c2,1.5,3,3.6,3,6.3c0,2.2-0.7,5.7-2.2,10.4l-12.6,35.7c-2.5,7.7-5.7,11.5-9.7,11.5c-2.7,0-5.9-1.4-9.5-4.1
					c-3.6-2.7-8.1-4.1-13.6-4.1c-9.7,0-17.3,3-22.9,8.9c-5.6,6-8.4,13.5-8.4,22.7c0,11.9,3,21.2,8.9,27.9c6,6.7,13.9,10,23.8,10
					c6.7,0,12.3-1.3,16.9-3.9c4.6-2.6,8.7-5.5,12.3-8.7c3.6-3.2,7-6.1,10.2-8.7c3.2-2.6,6.8-3.9,10.8-3.9c3.2,0,6,2.5,8.2,7.4
					l17.1,49.1c0.7,2.2-0.3,4.6-3.2,7.1c-2.9,2.5-7,4.8-12.5,7.1c-5.5,2.2-11.9,4-19.3,5.4C1614.7,470.4,1606.8,471.1,1598.3,471.1z
					"/>
			</g>
		</g>
		<g>
			<path class="st4" d="M1598.3,1335c-11.2,0-21.1-0.3-29.9-0.9c-8.8-0.6-17.2-1.2-25.3-1.9c-8.1-0.6-15.9-1.2-23.6-1.9
				c-7.7-0.6-16-0.9-24.9-0.9c-5.7,0-10.5-3.4-14.3-10.2c-3.8-6.8-6.9-15.3-9.1-25.5c-2.2-10.2-3.8-21.1-4.8-32.7
				c-1-11.7-1.5-22.3-1.5-32c0-22.8,1.2-43.9,3.7-63.2c2.5-19.3,6.4-36.1,11.7-50.4c5.3-14.3,12.4-25.4,21.2-33.5
				c8.8-8.1,19.5-12.1,32.2-12.1h102.7c7.4,0,12.7,0.5,15.8,1.5c3.1,1,4.5,3.7,4.3,8.2c0,0.5-0.1,1.2-0.2,2.2
				c-0.1,1-0.3,2.4-0.6,4.1l-15.3,42c-1.5,4.2-3.5,7.1-6.1,8.6c-2.6,1.5-5.8,2.2-9.5,2.2c-1.5,0-3.8-1.1-6.9-3.2
				c-3.1-2.1-6.7-4.5-10.8-7.3c-4.1-2.7-8.5-5.1-13.2-7.3c-4.7-2.1-9.4-3.2-14.1-3.2c-5.2,0-9.7,1.1-13.4,3.3
				c-3.7,2.2-6.8,5-9.3,8.4c-2.5,3.3-4.3,6.9-5.6,10.6c-1.2,3.7-1.9,6.9-1.9,9.7c0,4.2,1.1,6.6,3.2,7.3c2.1,0.6,4.4,0.9,6.9,0.9
				c6,0,12.1-1.1,18.4-3.2c6.3-2.1,13.2-3.2,20.6-3.2c3,0,6.1,0.1,9.5,0.4c3.3,0.3,6.4,0.7,9.3,1.5c2.8,0.7,5.3,1.9,7.3,3.3
				c2,1.5,3,3.6,3,6.3c0,2.2-0.7,5.7-2.2,10.4l-12.6,35.7c-2.5,7.7-5.7,11.5-9.7,11.5c-2.7,0-5.9-1.4-9.5-4.1
				c-3.6-2.7-8.1-4.1-13.6-4.1c-9.7,0-17.3,3-22.9,8.9c-5.6,6-8.4,13.5-8.4,22.7c0,11.9,3,21.2,8.9,27.9c6,6.7,13.9,10,23.8,10
				c6.7,0,12.3-1.3,16.9-3.9c4.6-2.6,8.7-5.5,12.3-8.7c3.6-3.2,7-6.1,10.2-8.7c3.2-2.6,6.8-3.9,10.8-3.9c3.2,0,6,2.5,8.2,7.4
				l17.1,49.1c0.7,2.2-0.3,4.6-3.2,7.1c-2.9,2.5-7,4.8-12.5,7.1c-5.5,2.2-11.9,4-19.3,5.4C1614.7,1334.4,1606.8,1335,1598.3,1335z"
				/>
		</g>
		<g>
			<path class="st3" d="M864.3,1312.3c0.2,6.9-1.2,11.5-4.5,13.8c-3.2,2.2-9.5,3.3-18.7,3.3h-51.9c-11.7,0-19.5-5.7-23.3-17.1
				c-3.9-11.4-5.8-31.9-5.8-61.4c0-12.1,0.6-24.6,1.7-37.4c1.1-12.8,2.4-25.7,3.9-38.9c1.5-13.1,2.8-26.2,3.9-39.2
				c1.1-13,1.7-25.7,1.7-38.1c0-8.4,2.5-15.1,7.4-19.9c5-4.8,11.7-7.3,20.1-7.3H849c7.2,0,12.1,1.1,14.7,3.2
				c2.6,2.1,3.9,5.9,3.9,11.3c0,4.5-0.9,11-2.8,19.7c-1.9,8.7-4,18.5-6.3,29.6c-2.4,11-4.5,22.8-6.3,35.3c-1.9,12.5-2.8,25-2.8,37.4
				c0,14.1,0.8,26.8,2.3,37.9c1.5,11.2,3.2,21.1,5.1,29.8c1.9,8.7,3.6,16.1,5.2,22.3C863.5,1302.9,864.3,1308.1,864.3,1312.3z"/>
		</g>
		<g>
			<g>
				<path class="st1" d="M532.8,1686.9c0,32.5-6.7,57.2-20.1,74.2c-13.4,17-34.1,25.5-62.1,25.5c-6,0-11.5-0.3-16.7-0.9
					c-5.2-0.6-11-1.3-17.3-2c-6.3-0.7-13.6-1.4-21.8-2c-8.2-0.6-18.1-0.9-29.8-0.9c-15.6,0-26.6-5.5-32.9-16.4
					c-6.3-10.9-9.5-28.5-9.5-52.8c0-9.9,0.6-19.3,1.7-28.1c1.1-8.8,2.4-18,3.9-27.5c1.5-9.5,2.8-19.8,4.1-30.7
					c1.2-10.9,1.9-23.4,1.9-37.6c0.2-24.8,3.6-42.5,10-53.2c6.4-10.7,16.9-16,31.2-16c6.7,0,14.1,0.7,22.1,2.2
					c8.1,1.5,17.4,2.2,28.1,2.2c13.1,0,26.2,4.3,39.1,12.8c12.9,8.6,24.4,20.3,34.4,35.1c10,14.9,18.2,32.2,24.4,52.1
					C529.7,1642.8,532.8,1664.1,532.8,1686.9z M444.3,1651.2c0-8.4-0.7-16.7-2-24.7c-1.3-8.1-3.2-15.2-5.5-21.4
					c-2.3-6.2-5.1-11.2-8.3-14.9s-6.9-5.6-11-5.6c-5.2,0-7.4,4.8-6.6,14.3c0.7,9.5,1.1,23.1,1.1,40.7c0,11.4-0.5,22.1-1.5,32
					c-1,9.9-1.6,18.6-1.7,26c-0.1,7.4,0.8,13.3,2.8,17.5c2,4.2,5.9,6.3,11.8,6.3c7.6,0,13-5.9,16.2-17.7
					C442.7,1692.1,444.3,1674.5,444.3,1651.2z"/>
			</g>
		</g>
		<g>
			<g>
				<path class="st2" d="M1297.2,1544.1c0,18.6-2,34.7-6.1,48.2c-4.1,13.5-9.2,25.6-15.4,36.3c-6.2,10.7-12.8,20.6-19.9,29.8
					c-7.1,9.2-13.7,18.7-19.9,28.5c-6.2,9.8-11.3,20.5-15.2,32.2c-4,11.7-6,25.4-6,41.3c0,6.2-0.8,11.2-2.4,14.9
					c-1.6,3.7-6.3,5.6-13.9,5.6h-50.6c-8.4-0.2-14.7-2.7-18.8-7.4c-4.1-4.7-6.1-12.9-6.1-24.5c0-4.7,0.9-9.7,2.6-14.9
					c1.7-5.2,3.6-10.4,5.6-15.6c2-5.2,3.9-10.4,5.8-15.6s2.8-10.3,2.8-15.3c0-6.7-3.4-13.1-10.2-19.2c-6.8-6.1-14.4-13.8-22.7-23.1
					c-8.3-9.3-15.9-20.9-22.9-34.8c-6.9-13.9-10.4-32-10.4-54.3c0-11.4,1.6-20.2,4.8-26.4c3.2-6.2,9.4-9.3,18.6-9.3h54.3
					c6,0,10.6,1.5,13.9,4.5c3.3,3,5,9.2,5,18.6c0,8.7,0.2,17.1,0.7,25.3c0.5,8.2,1.4,15.4,2.8,21.6c1.4,6.2,3.2,11.2,5.4,14.9
					c2.2,3.7,5.1,5.6,8.6,5.6c4.2,0,7.6-2.2,10.2-6.5c2.6-4.3,4.5-9.7,5.8-16.2c1.2-6.4,2-13.6,2.4-21.6c0.4-7.9,0.6-15.4,0.6-22.3
					c0-9.7,1.6-16.1,4.8-19.2c3.2-3.1,7.1-4.6,11.5-4.6h45.8c8.4,0,15.3,2.4,20.6,7.3C1294.5,1532.4,1297.2,1537.9,1297.2,1544.1z"
					/>
			</g>
		</g>
		<g>
			<path class="st5" d="M774.5,1508.7l78.8,0.2c3.5,0,6.6,2.3,7.7,5.6l83.2,255.2c1.7,5.3-2.2,10.7-7.8,10.7h-82.9
				c-3.5,0-6.7-2.3-7.8-5.6l-11-33.8c-1.1-3.4-4.2-5.6-7.8-5.6h-52.4c-3.8,0-7.1,2.6-7.9,6.2l-7.9,32.6c-0.9,3.7-4.2,6.2-7.9,6.2
				l-63.7,0.2c-5.6,0-9.6-5.5-7.7-10.8l87.3-255.6C767.9,1510.9,771,1508.7,774.5,1508.7z M814.9,1679.9l-9.8-30.9
				c-2.5-7.9-13.7-7.5-15.7,0.5l-7.6,30.9c-1.3,5.1,2.6,10.1,7.9,10.1h17.4C812.6,1690.5,816.6,1685.2,814.9,1679.9z"/>
		</g>
		<g>
			<g>
				<path class="st5" d="M1544.2,1699c-31.4-52.5-47.1-94.9-47.1-127.3c0-22,5.8-40.2,17.5-54.4c11.7-14.2,26.5-21.4,44.6-21.4
					c17.4,0,31.9,6.9,43.6,20.8c11.6,13.9,17.4,31.5,17.4,52.8c0,36.4-15.8,79.6-47.5,129.5c9.3,3.5,16.5,8.9,21.6,16.3
					c5.2,7.3,7.8,15.6,7.8,24.8c0,11.9-4.2,22.2-12.7,30.7c-8.5,8.5-18.7,12.8-30.6,12.8c-11.9,0-22.2-4.3-30.9-12.8
					c-8.6-8.5-13-18.7-13-30.7c0-9.1,2.6-17.4,7.7-24.7C1527.8,1708,1534.9,1702.5,1544.2,1699z"/>
			</g>
		</g>
		<g>
			<path class="st5" d="M1217.9,483.2l-69.3-0.2c-6.4,0-12-4.1-14-10.2l-78.9-242c-3.1-9.5,4-19.3,14-19.3h69
				c6.4,0,12.1,4.1,14,10.2l32.1,99.5c4.6,14.1,24.8,13.4,28.4-1l23.8-97.4c1.6-6.6,7.5-11.2,14.3-11.2l49.3-0.1
				c10.1,0,17.3,9.9,14,19.5l-82.7,242.4C1229.9,479.2,1224.2,483.2,1217.9,483.2z"/>
		</g>
		<g>
			<path class="st5" d="M755.1,764.7c-5.2,0-9.8-3.9-10.5-9.2l-12.9-96.7c-0.8-5.8,3.3-11.2,9.1-11.9c5.8-0.8,11.2,3.3,11.9,9.1
				l12.9,96.7c0.8,5.8-3.3,11.2-9.1,11.9C756,764.7,755.5,764.7,755.1,764.7z"/>
			<path class="st5" d="M850.5,746.5c-5.2,0-9.8-3.9-10.5-9.2l-12.9-96.7c-0.8-5.8,3.3-11.2,9.1-11.9c5.8-0.8,11.2,3.3,11.9,9.1
				l12.9,96.7c0.8,5.8-3.3,11.2-9.1,11.9C851.5,746.4,851,746.5,850.5,746.5z"/>
			<path class="st5" d="M808,920.9c-75.7,0-112.4-65.5-112.9-66.3c-2.8-5.2-0.9-11.6,4.2-14.4c5.1-2.8,11.6-0.9,14.4,4.2
				c2,3.6,48.1,84.4,147.2,43.8c75-35.6,60.4-145.3,60.3-146.5c-0.8-5.8,3.2-11.2,9-12c5.8-0.8,11.2,3.2,12,9
				c0.7,5.1,17,126.6-72.5,168.8c-0.2,0.1-0.3,0.1-0.5,0.2C846.6,917.1,826.1,920.9,808,920.9z"/>
		</g>
		<path class="st5" d="M1554.8,735.7c0,0-41.7-55.3-95.4-30.1s-78.4,155.7,165.8,173.8c76.3-144.7,61.5-198,27.8-227.9
			C1622.5,624.6,1552.8,640.3,1554.8,735.7z"/>
		<path class="st1" d="M412.4,744.6c0,0,25.6-64.3,84.1-54.3s116.8,129.4-113.9,211.5c-111.9-119.3-111.7-174.7-87.1-212.4
			C317.7,655.4,389.1,652,412.4,744.6z"/>
	</g>
</g>
</svg>
