<?xml version="1.0" encoding="utf-8"?>
<!-- Generator: Adobe Illustrator 26.1.0, SVG Export Plug-In . SVG Version: 6.00 Build 0)  -->
<svg version="1.1" id="Слой_1" xmlns="http://www.w3.org/2000/svg" xmlns:xlink="http://www.w3.org/1999/xlink" x="0px" y="0px"
	 viewBox="0 0 2000 2000" style="enable-background:new 0 0 2000 2000;" xml:space="preserve">
<style type="text/css">
	.st0{fill:#FFD9E6;}
	.st1{fill:#DA5F19;}
	.st2{fill:#FAA8BE;}
	.st3{fill:#FFFFFF;}
	.st4{fill:#FCE17A;}
</style>
<g>
	<rect class="st0" width="2000" height="2000"/>
	<g>
		<g>
			<g>
				<path class="st1" d="M496.4,371.7c-12.4-26-70.5-27.2-147.2,46.4c-114.3,118.4-111,273.7-111,273.7s56.3,90.4,132.3-15.7
					C451.6,567,508.8,397.7,496.4,371.7z M380.3,521.8c-34.4,79.4-67.3,118.5-93.8,100.9c0,0,36.2-127.5,66.9-171.9
					C380.6,413.4,414.6,442.5,380.3,521.8z"/>
				<path class="st1" d="M768.1,360.5c-2.3-60.7-57.7-78-145.3-24.8c-87.5,53.2-150.1,162.9-160.9,191.3
					c-13.8,36.3-48.6,125.9-40.6,206.5c8,80.6,66.1,111.2,161.9,14.8C699,629.6,770.4,421.2,768.1,360.5z M645.2,531.1
					c-35.9,82.5-105.2,155.3-128.8,128c-23.6-27.3,8.7-103.7,21.3-131.1c21.2-46.2,69.8-98.2,98.7-104.8
					C665.2,416.6,681.1,448.6,645.2,531.1z"/>
				<path class="st1" d="M630.9,810.4c0,0,117.3-314.3,225.1-449.2c54,29.6,54,29.6,54,29.6s-41.3,101-39.4,158.1
					c64.6-129.8,69.3-132.1,69.3-132.1l31.4,27c0,0-74.9,194.6-93.5,318.3c-80.8,25.3-85.1,26.9-85.1,26.9l-6.6-171.3l-73,185.8
					L630.9,810.4z"/>
				<polygon class="st1" points="956.9,515.9 981.1,457.4 1016.8,485.6 1024.4,524.2 1011.5,526.8 1021.8,721 956.5,743.1 
					984,523.5 				"/>
				<path class="st1" d="M1327.1,553.7l-20.8,8c0,0-51.8-151-181.3-160.8c-99.4-9.3-76,79.9-35.9,150.2s114.9,155,206.8,92.7
					c54.2-2.3,68.3-4.3,68.3-4.3L1327.1,553.7z M1147.7,546.8c-41.2-46.7-31.5-74.8-23.9-82.6c27-28,107.8,46.2,108.2,87
					C1232.3,592.1,1188.9,593.5,1147.7,546.8z"/>
				<path class="st1" d="M1163.6,348.4c0,0,117.3,111.1,175.1,194c57.8,82.9,107,102.3,147.8,81.3c40.8-21.1-6.6-182.7-152.1-320.6
					c-65.8,13.7-66.1,11-66.1,11s114.8,109.8,147.1,181.8c20.4,33.5-7.6,55.5-38.4,10.5S1276.2,371.1,1220.3,327
					C1205.3,330.2,1163.6,348.4,1163.6,348.4z"/>
				<path class="st1" d="M1392,303.1c0,0,131.8,143,173.4,328.4c57,12.6,57,12.6,57,12.6s-13.5-185.8-151-324.6
					C1426.7,308.2,1392,303.1,1392,303.1z"/>
				<path class="st1" d="M1519,330.6l35.3,61.7l61.2,24.4c0,0,62.9,95.8,69.2,240.7c53.5,34.1,50.7,32.7,50.7,32.7
					s11-116.5-61-240.5c32.6,26.8,32.6,26.8,32.6,26.8S1679.1,393.5,1519,330.6z"/>
				<path class="st1" d="M234.6,752.3c0,0,2.9,155.3,182.7,413.1c34.2-18.5,34.2-18.5,34.2-18.5s-132.3-144.2-87.1-321.7
					C312,801.5,312,801.5,312,801.5s-3.2,100.1-2.4,105c0.8,4.9-36.7-125.5-36.7-125.5L234.6,752.3z"/>
				<path class="st1" d="M596.8,905.9c-46.2-36.3-142.6-80-184.8-49.4c-42.2,30.6-25.1,88.4,0,131.9c61,105.7,155.3,162.8,201,111.5
					C658.6,1048.7,643,942.2,596.8,905.9z M543.3,1034.6c-44.9,9.4-79.9-56.6-88.7-80.2c-21.8-58.3,47.3-50.1,76-23.6
					C559.4,957.3,588.1,1025.1,543.3,1034.6z"/>
				<path class="st1" d="M641.5,863.3c0,0,0.8,189.5,116.1,224.4c115.3,34.9,132.7-16.9,128.6-122c-4.1-105.1,0.9-151.3,0.9-151.3
					l-77.5,20.9c0,0,5.5,148.8-0.8,172.3c-6.3,23.5-40.1,18.6-50.5-9.9s-22-146.3-22-146.3L641.5,863.3z"/>
				<path class="st1" d="M1116.8,811.3c-19.4-93-177.9-14.4-177.9-14.4l-10.7,312.3l57.4,12l11.1-137.8l15.9,143.7l61.8,22.4
					L1060.8,966C1060.8,966,1136.1,904.3,1116.8,811.3z M1007.4,908.2l1.6-56.1c0,0,30-18.4,34.8,17.5
					C1048.7,905.5,1007.4,908.2,1007.4,908.2z"/>
				<path class="st1" d="M1368.9,705.5c-34.3-30.5-129.7,9.2-129.7,9.2s-31.7,274.9-87.7,448.6c69,48.6,146.4,29.7,202.7-97.3
					C1410.4,939,1435.9,765.7,1368.9,705.5z M1335.8,923.1c-12.2,95-32.8,123.1-94.1,142.3c13.4-35.3,47.4-250.5,47.4-250.5
					C1318.3,797.8,1348,828,1335.8,923.1z"/>
				<path class="st1" d="M1567.1,692.5c-44.3-5.6-88.7-11.2-88.7-11.2s-57.7,317.8-170.9,540c47.1,6.6,49.2,11.4,49.2,11.4
					l64.4-141.8l30-0.7l-46.1,155l44.1,8.4C1449.1,1253.5,1581.9,948.2,1567.1,692.5z M1488.5,969.2l-24.9-5.8l36.9-153.2
					L1488.5,969.2z"/>
				<path class="st1" d="M1601.2,695.9c0,0,10,142.1,3.7,254.6s-106,291.6-106,291.6h48.1c0,0,211.8-393.3,227.8-467.8
					c-49-35.2-51-29.2-51-29.2l-53.4,140.3l-4.9-166.9L1601.2,695.9z"/>
				<path class="st1" d="M524.3,1193.6c-53.3-12.2-115.2,46-115.2,46s117.5,199.6,299,303.3C692.2,1401.7,618.2,1216.8,524.3,1193.6
					z M496.3,1286.8c49-32.7,129,81.9,136.4,160.8C569.7,1424.3,496.3,1286.8,496.3,1286.8z"/>
				<path class="st1" d="M914.6,1686.5l-68.8-238.8c0,0,65.2-87.3,22.9-216.4c-32.5-92.2-148.8-118.9-242.6-79.7l153.6,448.8
					l52.9,34.8l-53.6-187l85.1,206.8L914.6,1686.5z M754.5,1339.6l-17.6-82.7c0,0,45-5.2,58.6,38.7
					C809.1,1339.6,754.5,1339.6,754.5,1339.6z"/>
				<polygon class="st1" points="922.6,1169.2 934.4,1697.6 1011.5,1747.2 1046.9,1717.9 1058.6,1588.2 1012.6,1610.9 990.1,1593.5 
					991,1515.8 1044.1,1531.6 1057.7,1393.4 1001.4,1388.4 997.9,1323.1 1068.2,1343.3 1091.5,1216.5 				"/>
				<path class="st1" d="M1148.5,1239.6l-84.7,466l56.1-19.1l16.2-117.3l34.4-10.3l-9.1,89.5l49.8-21.5l47.8-353.5L1148.5,1239.6z
					 M1189,1471.6l-32.1,3.4l34.1-131.6L1189,1471.6z"/>
				<polygon class="st1" points="1328.7,1294.2 1224.7,1616.4 1282.4,1575.8 1348,1416.7 1350.6,1471.4 1433.8,1402.1 
					1336.2,1528.9 1401.7,1490.9 1572.5,1291.7 1493.5,1298.2 1396.7,1367.4 1390.1,1304.8 				"/>
			</g>
			<g>
				<path class="st2" d="M489,351c-12.4-26-70.5-27.2-147.2,46.4c-114.3,118.4-111,273.7-111,273.7s56.3,90.4,132.3-15.7
					C444.2,546.3,501.4,377,489,351z M372.9,501.1c-34.4,79.4-67.3,118.5-93.8,100.9c0,0,36.2-127.5,66.9-171.9
					C373.1,392.7,407.2,421.7,372.9,501.1z"/>
				<path class="st2" d="M760.7,339.7c-2.3-60.7-57.7-78-145.3-24.8c-87.5,53.2-150.1,162.9-160.9,191.3
					c-13.8,36.3-48.6,125.9-40.6,206.5c8,80.6,66.1,111.2,161.9,14.8C691.5,608.8,763,400.5,760.7,339.7z M637.8,510.4
					c-35.9,82.5-105.2,155.3-128.8,128c-23.6-27.3,8.7-103.7,21.3-131.1c21.2-46.2,69.8-98.2,98.7-104.8
					C657.7,395.8,673.7,427.9,637.8,510.4z"/>
				<path class="st2" d="M623.5,789.6c0,0,117.3-314.3,225.1-449.2c54,29.6,54,29.6,54,29.6s-41.3,101-39.4,158.1
					C927.8,398.4,932.5,396,932.5,396l31.4,27c0,0-74.9,194.6-93.5,318.3c-80.8,25.3-85.1,26.9-85.1,26.9L778.7,597l-73,185.8
					L623.5,789.6z"/>
				<polygon class="st2" points="949.5,495.2 973.6,436.7 1009.3,464.9 1017,503.5 1004.1,506 1014.4,700.2 949.1,722.3 
					976.5,502.8 				"/>
				<path class="st2" d="M1319.7,533l-20.8,8c0,0-51.8-151-181.3-160.8c-99.4-9.3-76,79.9-35.9,150.2s114.9,155,206.8,92.7
					c54.2-2.3,68.3-4.3,68.3-4.3L1319.7,533z M1140.2,526.1c-41.2-46.7-31.5-74.8-23.9-82.6c27-28,107.8,46.2,108.2,87
					S1181.5,572.8,1140.2,526.1z"/>
				<path class="st2" d="M1156.2,327.6c0,0,117.3,111.1,175.1,194c57.8,82.9,107,102.3,147.8,81.3s-6.6-182.7-152.1-320.6
					c-65.8,13.7-66.1,11-66.1,11s114.8,109.8,147.1,181.8c20.4,33.5-7.6,55.5-38.4,10.5c-30.9-44.9-100.7-135.3-156.6-179.4
					C1197.9,309.4,1156.2,327.6,1156.2,327.6z"/>
				<path class="st2" d="M1384.6,282.4c0,0,131.8,143,173.4,328.4c57,12.6,57,12.6,57,12.6s-13.5-185.8-151-324.6
					C1419.3,287.5,1384.6,282.4,1384.6,282.4z"/>
				<path class="st2" d="M1511.6,309.8l35.3,61.7l61.2,24.4c0,0,62.9,95.8,69.2,240.7c53.5,34.1,50.7,32.7,50.7,32.7
					s11-116.5-61-240.5c32.6,26.8,32.6,26.8,32.6,26.8S1671.7,372.8,1511.6,309.8z"/>
				<path class="st2" d="M227.2,731.6c0,0,2.9,155.3,182.7,413.1c34.2-18.5,34.2-18.5,34.2-18.5S311.9,982,357.1,804.5
					c-52.5-23.7-52.5-23.7-52.5-23.7s-3.2,100.1-2.4,105c0.8,4.9-36.7-125.5-36.7-125.5L227.2,731.6z"/>
				<path class="st2" d="M589.4,885.2c-46.2-36.3-142.6-80-184.8-49.4c-42.2,30.6-25.1,88.4,0,131.9c61,105.7,155.3,162.8,201,111.5
					C651.2,1028,635.6,921.4,589.4,885.2z M535.8,1013.8c-44.9,9.4-79.9-56.6-88.7-80.2c-21.8-58.3,47.3-50.1,76-23.6
					C551.9,936.5,580.7,1004.4,535.8,1013.8z"/>
				<path class="st2" d="M634,842.5c0,0,0.8,189.5,116.1,224.4c115.3,34.9,132.7-16.9,128.6-122c-4.1-105.1,0.9-151.3,0.9-151.3
					l-77.5,20.9c0,0,5.5,148.8-0.8,172.3c-6.3,23.5-40.1,18.6-50.5-9.9c-10.4-28.6-22-146.3-22-146.3L634,842.5z"/>
				<path class="st2" d="M1109.4,790.6c-19.4-93-177.9-14.4-177.9-14.4l-10.7,312.3l57.4,12l11.1-137.8l15.9,143.7l61.8,22.4
					l-13.7-183.6C1053.3,945.3,1128.7,883.5,1109.4,790.6z M1000,887.5l1.6-56.1c0,0,30-18.4,34.8,17.5
					C1041.3,884.8,1000,887.5,1000,887.5z"/>
				<path class="st2" d="M1361.4,684.8c-34.3-30.5-129.7,9.2-129.7,9.2s-31.7,274.9-87.7,448.6c69,48.6,146.4,29.7,202.7-97.3
					C1403,918.3,1428.5,744.9,1361.4,684.8z M1328.4,902.3c-12.2,95-32.8,123.1-94.1,142.3c13.4-35.3,47.4-250.5,47.4-250.5
					C1310.9,777.1,1340.6,807.3,1328.4,902.3z"/>
				<path class="st2" d="M1559.7,671.8c-44.3-5.6-88.7-11.2-88.7-11.2s-57.7,317.8-170.9,540c47.1,6.6,49.2,11.4,49.2,11.4
					l64.4-141.8l30-0.7l-46.1,155l44.1,8.4C1441.7,1232.8,1574.5,927.5,1559.7,671.8z M1481.1,948.5l-24.9-5.8l36.9-153.2
					L1481.1,948.5z"/>
				<path class="st2" d="M1593.8,675.2c0,0,10,142.1,3.7,254.6c-6.3,112.5-106,291.6-106,291.6h48.1c0,0,211.8-393.3,227.8-467.8
					c-49-35.2-51-29.2-51-29.2l-53.4,140.3l-4.9-166.9L1593.8,675.2z"/>
				<path class="st2" d="M516.9,1172.9c-53.3-12.2-115.2,46-115.2,46s117.5,199.6,299,303.3C684.7,1381,610.8,1196.1,516.9,1172.9z
					 M488.9,1266.1c49-32.7,129,81.9,136.4,160.8C562.3,1403.6,488.9,1266.1,488.9,1266.1z"/>
				<path class="st2" d="M907.2,1665.7l-68.8-238.8c0,0,65.2-87.3,22.9-216.4c-32.5-92.2-148.8-118.9-242.6-79.7l153.6,448.8
					l52.9,34.8l-53.6-187l85.1,206.8L907.2,1665.7z M747.1,1318.9l-17.6-82.7c0,0,45-5.2,58.6,38.7
					C801.7,1318.9,747.1,1318.9,747.1,1318.9z"/>
				<polygon class="st2" points="915.2,1148.4 926.9,1676.8 1004.1,1726.4 1039.4,1697.2 1051.2,1567.5 1005.2,1590.2 982.7,1572.7 
					983.6,1495 1036.6,1510.8 1050.2,1372.7 994,1367.7 990.5,1302.3 1060.8,1322.6 1084,1195.8 				"/>
				<path class="st2" d="M1141.1,1218.9l-84.7,466l56.1-19.1l16.2-117.3l34.4-10.3l-9.1,89.5l49.8-21.5l47.8-353.5L1141.1,1218.9z
					 M1181.6,1450.8l-32.1,3.4l34.1-131.6L1181.6,1450.8z"/>
				<polygon class="st2" points="1321.2,1273.4 1217.3,1595.7 1274.9,1555 1340.5,1395.9 1343.2,1450.6 1426.4,1381.4 
					1328.8,1508.2 1394.2,1470.2 1565.1,1271 1486,1277.5 1389.3,1346.7 1382.7,1284.1 				"/>
			</g>
			<path class="st3" d="M572,374.7c15.2-21.3,94.3-73.1,119.6-61.7C701.2,317.3,553.6,400.5,572,374.7z"/>
			<path class="st3" d="M780.3,477.9c7.4-19.5,41.8-74.4,50.9-79.7c9.1-5.3,1.9,14.4-6.7,30.2C815.9,444.3,768.8,508.2,780.3,477.9z
				"/>
			<path class="st3" d="M439.4,354.7c8.4-0.6,26.2,5.1,23.8,32.5C460.7,414.5,431,355.3,439.4,354.7z"/>
			<path class="st3" d="M1060.1,449.1c1.4,11.2,18.5,52.5,25.9,57.7c7.4,5.2-10.1-44.1-16.2-54.4
				C1063.7,442.2,1059,440.3,1060.1,449.1z"/>
			<path class="st3" d="M1205.7,354.1c0,0,40.6,38.9,48.6,48.6c7.9,9.7,11-3.5-4.9-20.3C1233.5,365.6,1205.7,354.1,1205.7,354.1z"/>
			<path class="st3" d="M1427,313c0,0,39.1,59,49.4,70.5c10.3,11.5-5.4-28-20.1-51.7C1441.7,308.1,1419.4,301.6,1427,313z"/>
			<path class="st3" d="M555.4,882.2c8.7,4.1,48.3,44.2,54.4,74.3C615.9,986.7,546.7,878.1,555.4,882.2z"/>
			<path class="st3" d="M658,878.4c2.2,10.6,6.4,53.9,12.3,49.4c5.9-4.5-2-60.1-6.8-65C658.8,857.8,657,873.6,658,878.4z"/>
			<path class="st3" d="M945.7,802.6c-0.5,10.2-4.5,72.8,0,73.5c4.5,0.7,9.9-55.3,8.9-67.6S946.1,794.8,945.7,802.6z"/>
			<path class="st3" d="M1245.8,714.7c0,0-0.2,0.7-0.4,2.1c-2.9,14-19.1,93.5-14.4,100.5c5.2,7.7,21.5-63.1,23.7-84.2
				c2.2-21.1-6.9-28.6-9.1-17.7"/>
			<path class="st3" d="M1476.3,692.1c0,0-20.8,78.5-17.5,83.4C1462.1,780.4,1500.5,676.2,1476.3,692.1z"/>
			<path class="st3" d="M1612.1,725c0,0,0,1,0,2.7c0,14.9,0.3,85.5,3.3,88.4c3.3,3.3,9.7-68.1,5.4-87.4s-8.7-11.2-8.7-2.9"/>
			<path class="st3" d="M451.6,1205.2c0,0,47.4-27.4,78.6-4.5C547.6,1213.4,441.2,1209.3,451.6,1205.2z"/>
			<path class="st3" d="M702.4,1140.6c13.8-0.7,53.6-3.1,76.1,19.3C800.9,1182.3,688.6,1141.3,702.4,1140.6z"/>
			<path class="st3" d="M963.9,1180.7c0,0,64.9,12.5,72,19.1s-40.4,2.5-57.7-3.1S948.8,1177.7,963.9,1180.7z"/>
			<path class="st3" d="M1143.4,1244.2c0,0-16.2,57.4-11.2,61.9C1137.1,1310.5,1155.9,1236.7,1143.4,1244.2z"/>
			<path class="st3" d="M1325.5,1296.7c-6.1,11.8-20.1,60.2-16.4,58.4c3.7-1.8,27.5-48,25.7-58.4S1329.1,1289.9,1325.5,1296.7z"/>
		</g>
		<path class="st3" d="M1379.2,1559.5c0,0-76.8-69.8,5.6-101.9c65.6-25.1,64.2,63.5,51,87.9c34.2-55.1,81-69.8,105.4-25.8
			c24.4,44-41.2,74-63.5,73.3c48.9,22.3,80.3,55.8,51,97s-90.7,27.2-107.5-29.3c4.2,53-18.1,87.2-60,74.7
			c-41.9-12.6-37.7-62.8,0.7-101.2c-39.1,22.3-117.9,27.2-109.9-57.9C1259.9,1491.1,1349.9,1535.8,1379.2,1559.5z"/>
		<circle class="st4" cx="1405.9" cy="1598.3" r="38.7"/>
		<circle class="st3" cx="826.6" cy="260.4" r="18.6"/>
		<circle class="st3" cx="595" cy="190.7" r="27.5"/>
		<circle class="st3" cx="1213.6" cy="1743.8" r="27.5"/>
	</g>
</g>
</svg>
