<?xml version="1.0" encoding="utf-8"?>
<!-- Generator: Adobe Illustrator 26.1.0, SVG Export Plug-In . SVG Version: 6.00 Build 0)  -->
<svg version="1.1" id="Слой_1" xmlns="http://www.w3.org/2000/svg" xmlns:xlink="http://www.w3.org/1999/xlink" x="0px" y="0px"
	 viewBox="0 0 2000 2000" style="enable-background:new 0 0 2000 2000;" xml:space="preserve">
<style type="text/css">
	.st0{fill:#F9D5DF;}
	.st1{opacity:0.66;}
	.st2{fill:#F7C4CD;}
	.st3{fill:#FFFFFF;}
	.st4{fill:#3F252E;}
	.st5{fill:#A961AB;}
	.st6{fill:#4A88C3;}
	.st7{fill:#F3694F;}
	.st8{fill:#5FC5BA;}
	.st9{fill:#F35E88;}
	.st10{fill:#CF3662;}
	.st11{fill:#756EB2;}
	.st12{fill:#31B4A6;}
	.st13{fill:#BBEDEE;}
	.st14{fill:none;stroke:#533750;stroke-width:4.7198;stroke-linecap:round;stroke-linejoin:round;stroke-miterlimit:10;}
	.st15{fill:#DCC8ED;}
	.st16{fill:none;stroke:#533750;stroke-width:4.3902;stroke-linecap:round;stroke-linejoin:round;stroke-miterlimit:10;}
	.st17{fill:none;stroke:#533750;stroke-width:4.2353;stroke-linecap:round;stroke-linejoin:round;stroke-miterlimit:10;}
	.st18{fill:none;stroke:#533750;stroke-width:4.7902;stroke-linecap:round;stroke-linejoin:round;stroke-miterlimit:10;}
	.st19{fill:none;stroke:#533750;stroke-width:4.382;stroke-linecap:round;stroke-linejoin:round;stroke-miterlimit:10;}
	.st20{fill:none;stroke:#FFFFFF;stroke-width:2.6582;stroke-linecap:round;stroke-linejoin:round;stroke-miterlimit:10;}
</style>
<g>
	<g>
		<rect class="st0" width="2000" height="2000"/>
		<g class="st1">
			<path class="st2" d="M343.5,200.9c-111.8,68.4-156.4,63.7-172.4,54.4C155.2,245.9,45.4,156,43.4,48C43,29.7,44.9,13.8,48.7,0H415
				C450.5,52.1,434.3,145.7,343.5,200.9z"/>
			<path class="st2" d="M1193.5,162.3C1110,263.7,1066.3,274,1048.2,270.3c-18.1-3.6-151-52.5-187.9-153.9
				C841.5,64.7,849.1,26.7,867.7,0H1232C1247.6,45.3,1239.7,106.5,1193.5,162.3z"/>
			<path class="st2" d="M564.2,271.2c0,0-44.9-43.6-105.2-15.5s-61.9,133,30.7,189.4c92,56.3,128.7,52.4,141.9,44.7
				c13.1-7.7,103.5-81.7,105.2-170.6c1.6-88.9-61.9-109.3-104.1-106.5C590.5,215.4,564.8,259,564.2,271.2z"/>
			<path class="st2" d="M2000,0v235.6c-38.2,25.2-73.2,38.9-82.1,41.1c-18.9,4.6-65.2-4.2-157.3-107.1
				c-51.2-56.9-61.9-121.2-47.1-169.5H2000z"/>
			<path class="st2" d="M1488.5,233.9c0,0-29.9-55.2-95.7-46.5c-65.9,8.7-98.6,108.2-27.1,189.9c71,81.5,107.2,88.9,122,85.5
				c14.8-3.4,123.1-46.7,151.1-131c28-84.3-26.5-123-67.6-133.1C1530.2,188.6,1492.6,222.5,1488.5,233.9z"/>
			<path class="st2" d="M191.6,757.7C79.8,826.1,35.2,821.4,19.3,812c-3.2-1.9-10.2-7-19.3-14.8v-322c6.2-0.4,12.2-0.4,17.9,0
				c51.3,3.3,82.5,56.4,83.2,71.1c0,0,54.6-53,127.8-18.8C302.1,561.8,304.1,689.2,191.6,757.7z"/>
			<path class="st2" d="M913,546.8c0,0,34.4-68.1,114.7-59.8s123.5,128.1,39.3,229.8c-83.5,101.5-127.2,111.7-145.3,108.1
				c-18.1-3.6-151.1-52.5-187.9-153.9c-36.9-101.4,28.1-150.3,77.6-164C860.8,493.3,907.6,533.1,913,546.8z"/>
			<path class="st2" d="M433.3,822.5c0,0-44.9-43.6-105.2-15.5c-60.2,28.2-61.9,133,30.7,189.4c92,56.3,128.7,52.4,141.9,44.7
				c13.1-7.7,103.5-81.7,105.2-170.6c1.6-88.9-61.9-109.3-104.1-106.5S433.8,810.4,433.3,822.5z"/>
			<path class="st2" d="M1751,541.1c0,0-39.1-69.9-123-57.8s-124.1,139.9-31.3,243c92.1,102.9,138.4,111.7,157.3,107.1
				c18.9-4.6,156.3-61.7,190.7-169.8s-36-156.6-88.6-168.8S1756.1,526.4,1751,541.1z"/>
			<path class="st2" d="M1340.4,794.9c0,0-29.9-55.2-95.7-46.5c-65.9,8.7-98.6,108.2-27.1,189.9c71,81.5,107.2,88.9,122,85.5
				c14.8-3.4,123.1-46.7,151.1-131c28-84.3-26.5-123-67.6-133.1C1382.1,749.6,1344.5,783.5,1340.4,794.9z"/>
			<path class="st2" d="M255.6,1319.8c-111.8,68.4-156.4,63.7-172.4,54.4c-9.3-5.4-50.1-38-83.2-85.5v-229.3
				c25.2-18.5,56.7-23.6,81.9-22c51.2,3.3,82.5,56.4,83.2,71.1c0,0,54.6-53,127.8-18.8S368.1,1251.4,255.6,1319.8z"/>
			<path class="st2" d="M1022.5,1079c0,0,34.4-68.1,114.7-59.8s123.5,128.1,39.3,229.8c-83.5,101.5-127.2,111.7-145.3,108.1
				c-18.1-3.6-151.1-52.5-187.9-153.9c-36.9-101.4,28.1-150.3,77.6-164C970.3,1025.4,1017.1,1065.2,1022.5,1079z"/>
			<path class="st2" d="M547.2,1373.9c0,0-44.9-43.6-105.2-15.5s-61.9,133,30.7,189.4c92,56.3,128.7,52.4,141.9,44.7
				c13.1-7.7,103.5-81.7,105.2-170.6c1.6-88.9-61.9-109.3-104.1-106.5C573.4,1318.2,547.7,1361.8,547.2,1373.9z"/>
			<path class="st2" d="M2000,1024.1v286.3c-44.4,32.7-89,50.5-99.1,53c-18.9,4.6-65.2-4.2-157.3-107.1
				c-92.8-103.1-52.6-230.8,31.4-243c83.9-12.2,123,57.8,123,57.8C1902.9,1056.6,1948.6,1014.2,2000,1024.1z"/>
			<path class="st2" d="M1471.4,1320.6c0,0-29.9-55.2-95.7-46.5c-65.9,8.7-98.6,108.2-27.1,189.9c71,81.5,107.2,88.9,122,85.5
				c14.8-3.4,123.1-46.7,151.1-131s-26.5-123-67.6-133.1S1475.6,1309.2,1471.4,1320.6z"/>
			<path class="st2" d="M191.6,1844.4c-111.8,68.4-156.4,63.7-172.4,54.3c-3.2-1.9-10.2-7-19.3-14.8v-322c6.2-0.4,12.2-0.4,17.9,0
				c51.3,3.3,82.5,56.4,83.2,71.1c0,0,54.6-53,127.8-18.8C302.1,1648.5,304.1,1775.9,191.6,1844.4z"/>
			<path class="st2" d="M898.5,1611.1c0,0,34.4-68.1,114.7-59.8c80.3,8.3,123.5,128.1,39.3,229.8
				c-83.5,101.5-127.2,111.7-145.3,108.1c-18.1-3.6-151.1-52.5-187.9-153.9c-36.9-101.4,28.1-150.3,77.6-164
				C846.4,1557.6,893.1,1597.4,898.5,1611.1z"/>
			<path class="st2" d="M605.8,1957.3c-0.3,14.7-3,29.1-7.4,42.7H290.6c-13.6-45,1.5-89.4,37.5-106.2
				c60.3-28.2,105.2,15.5,105.2,15.5c0.5-12.1,26.3-55.8,68.5-58.5C543.9,1848,607.5,1868.4,605.8,1957.3z"/>
			<path class="st2" d="M1751,1627.8c0,0-39.1-69.9-123-57.8c-83.9,12.2-124.1,139.9-31.3,243c92.1,102.9,138.4,111.7,157.3,107.1
				c18.9-4.6,156.3-61.7,190.7-169.8s-36-156.6-88.6-168.8S1756.1,1613.1,1751,1627.8z"/>
			<path class="st2" d="M1490.7,1979.5c-2.4,7.1-5.3,14-8.7,20.5h-282.8c-46.3-75.8-13.8-157.2,45.5-164.9
				c65.9-8.7,95.7,46.5,95.7,46.5c4.1-11.4,41.6-45.2,82.7-35.1C1464.2,1856.5,1518.7,1895.2,1490.7,1979.5z"/>
		</g>
	</g>
	<path class="st3" d="M488.6,388.9c0.2,5.3,0.3,11,0.4,17c0.1,6.4,0.2,13.6,0.3,21.7c0.1,8.2,0.2,17.5,0.3,28
		c0.1,10.5,0.2,22.7,0.4,36.5c0,4.6,0,9.3,0.1,14c0.1,4.6,0.2,8.9,0.3,13.1c0.1,4.2,0.2,8.1,0.3,11.7c0.1,3,0.1,5.4,0.1,7.3
		c0,0.3,0.3,16.2,0.3,16.2c0.3,14.6,6.6,28.7,17.5,38.5c9.8,8.9,22.5,13.7,35.7,13.7c1.4,0,2.9-0.1,4.4-0.2l1.8-0.2
		c1.6-0.1,3.9-0.2,7.8-0.5c3.7-0.3,8-0.6,13.1-0.9c5.3-0.4,10.9-0.8,16.7-1.3c5.9-0.5,11.5-0.9,16.5-1.4c4.7-0.4,8.6-0.8,11.7-1
		c4.7-0.4,12.3-1,20.7-4.4c3.5,1.8,7.2,3.2,11,4.2c6.7,3,14,4.5,21.5,4.5h4.6c2.3,0,5.3-0.1,9.8-0.3c3.6-0.2,7.6-0.4,12.2-0.7
		c4.7-0.3,9.5-0.6,14.5-1c2.8-0.2,5.4-0.4,8-0.6c5.8,2.1,12.5,3.5,20.4,3.5c3.2,0,6.8-0.2,11.3-0.7c2.5-0.3,6.1-0.7,10.4-1.2
		c4.5-0.4,8.5-0.8,11.9-1.2c1.4-0.2,2.4-0.3,3-0.4c3.7-0.4,7.4-1.1,10.9-2.2c1.4,0.1,2.8,0.1,4.2,0.1c2.8,0,5.5-0.2,8.4-0.5
		c0.2,0,0.3,0,0.5-0.1c5.8-0.7,11.6-1.6,18.1-4.2c11.1-4.4,20-12,25.9-21.5c5.7,6,12.7,10.5,20.6,13.3c0.4,0.3,0.8,0.6,1.1,0.9
		c4.5,3.4,8.9,5.6,12.7,7.3c5.8,2.7,11.9,4.4,20.7,5.9c4.5,0.8,9.5,1.5,14.9,2.1c4.6,0.6,9,1.1,13,1.5c6.3,0.7,10.4,1,14.2,1
		c1.8,0,3.6-0.1,5.4-0.3c2.5,0.3,5,0.6,7.5,0.6c1.2,0,2.4,0,3.6-0.1c0.7,0,1.7-0.1,2.9-0.1c2.6-0.1,5.3-0.3,8-0.6
		c1.9-0.2,5.5-0.5,11-0.9c5.8-0.4,11.6-0.9,17.3-1.5c6.3-0.4,11.8-0.8,16.2-1.1c2.9-0.2,4.8-0.4,5.5-0.4c10-0.6,19.4-3.9,27.4-9.5
		c12.5-5.6,22.5-15.8,27.8-29.1c0-0.1,0.1-0.2,0.1-0.3c5.1-13.1,5-27-0.5-41.5c2.1-1.1,4.2-2.3,6.3-3.4c0.2,9.4,0.3,17.3,0.4,23.8
		c0.1,9.5,0.3,14.5,1.2,19.5c2.1,12.5,8.6,23.9,18.2,32.1c9.8,8.4,22.4,13,35.5,13c1.2,0,2.4,0,3.6-0.1c0.7,0,1.7-0.1,2.9-0.1
		c2.6-0.1,5.3-0.3,8-0.6c1.9-0.2,5.5-0.5,11-0.9c5.8-0.4,11.6-0.9,17.3-1.5c6.3-0.4,11.8-0.8,16.2-1.1c2.9-0.2,4.8-0.4,5.5-0.4
		c10-0.6,19.4-3.9,27.4-9.5c12.5-5.6,22.5-15.8,27.8-29.1c0-0.1,0.1-0.2,0.1-0.3c5.1-13.1,5-27-0.5-41.5c16.4-8.5,31.7-18,45.6-28.3
		c3.1-2.3,6-4.6,8.9-6.9c0.5,0.5,0.9,1,1.2,1.4c0.2,0.2,0.8,0.9,1,1.1l0.3,23.5c0,5.6,0,11,0.1,16.1c0.1,5.4,0.3,10.2,0.5,14.4
		c0.2,3.6,0.3,6.4,0.4,8.4l0.1,2.6c0.5,22.6,15.1,42.4,36.7,49.6c5.7,1.9,11.5,2.8,17.9,2.8c1.2,0,2.8,0,4.7-0.1
		c2.2-0.1,5.7-0.3,10.5-0.6c4.9-0.3,11.7-0.8,20.1-1.5c8.3-0.6,14.4-1,18.6-1.4c5.5-0.5,9.3-0.9,12.3-1.5
		c26.3-4.4,44.5-23.5,46.6-48.3l0.1-0.2c3.9-10.3,4.4-21.4,1.7-32.1c0,0-1.7-6.5-1.7-6.6c-1.5-5.7-2.8-11.3-3.7-16.6
		c-0.6-3.6-1-6.9-1.3-10c3.7-3.5,7.6-6.9,11.7-10.2c5.6-4.5,11.3-8.8,16.8-12.8c1.6-1.1,3.2-2.2,4.9-3.4c0,0,0.1-0.1,0.1-0.1
		c0.9-0.6,1.8-1.2,2.9-1.9c1.8-1.2,3.6-2.4,5.6-3.7c2-1.3,3.8-2.5,5.6-3.7c13.3-7.2,23-19.7,26.6-34.5c4.4-18.2-0.9-37-14.1-50.4
		c-0.1-0.1-0.2-0.2-0.3-0.3c-2-1.9-4-3.6-7.2-6.3c-0.5-0.4-1.1-0.9-1.7-1.3c-2.5-1.9-5.1-3.8-7.8-5.6c-0.3-0.3-0.6-0.5-0.9-0.7
		c-1.7-1.4-4.1-3.3-8.4-6.6c-1.8-1.5-4.3-3.3-8.1-6.2c-3.1-2.3-6.2-4.6-9.5-7.2c-4.1-3.2-7.8-5.9-11.1-8.4
		c-7.3-5.3-18.4-13.4-36-13.4c-21.4,0-34.3,12.2-39.2,16.8c-1.6,1.5-3.3,3.2-5.2,5.1c-3.5-4.2-7.6-7.9-12.3-11
		c-8.7-5.6-18.7-8.6-29-8.6c-10,0-19.6,2.8-28.5,8.1c-0.4,0.3-0.9,0.5-1.4,0.8c-2.4,1.3-4.8,2.6-7.1,4.1c-1.4,0.7-2.8,1.5-4.2,2.4
		c-0.3,0.1-0.6,0.3-1,0.5c-2,1-4.8,2.6-8.3,4.5c-1.4,0.8-3,1.7-4.8,2.7c-4.5-2.5-9.2-4.9-14-7c-9.7-4.3-20.3-7.9-31.6-10.6
		c-10.7-2.6-21.3-4.2-31.6-4.8c-2.8-0.3-6.2-0.4-11.1-0.6c-3.5-0.1-7.9-0.2-13-0.5c-5.9-0.3-12.3-0.5-19.1-0.7
		c-6.3-0.2-12.4-0.4-18.2-0.5c-5.7-0.2-10.8-0.3-15.4-0.5c-5.5-0.2-9.4-0.3-12-0.3h-5.7c-13.7,0-26.1,5.2-35.5,13.7
		c-6.1-2.2-12.5-4.1-19.2-5.7c-10.7-2.6-21.3-4.2-31.6-4.8c-2.8-0.3-6.2-0.4-11.1-0.6c-3.5-0.1-7.9-0.2-13-0.5
		c-5.9-0.3-12.3-0.5-19.1-0.7c-6.3-0.2-12.4-0.4-18.2-0.5c-5.7-0.2-10.8-0.3-15.4-0.5c-5.5-0.2-9.4-0.3-12-0.3h-5.7
		c-24.5,0-45.1,16.7-51.3,39.3c-16.7-14.6-33.9-25.7-51.1-32.9l-5.1-2.2c-6.6-2.8-13.5-4.2-20.6-4.2c-16.2,0-31.4,7.3-41.5,20
		l-4.3,5.4c-2.4,3-4.4,6.1-6,9.5c-8.9-7.8-20.5-12.7-33.4-13.2c-0.6,0-2.3-0.1-5-0.2c-3.9-0.2-8.8-0.4-14.8-0.6
		c-5.6-0.2-11.7-0.4-18.3-0.5c-6.7-0.2-12.9-0.3-18.7-0.4c-5.4-0.1-9.9-0.2-13.7-0.3c0,0-7-0.1-7.2-0.1c-2.7,0-5.3,0.2-7.9,0.6
		c-9.7-10.5-23.3-17.1-38.2-17.6c-0.7,0-2-0.1-3.5-0.2c-3.2-0.2-7.3-0.4-12.1-0.6c-4.5-0.2-9.5-0.4-15-0.6
		c-5.2-0.2-10.2-0.4-14.9-0.5c-5-0.2-9.4-0.3-13.2-0.4c-4.3-0.1-7-0.2-8.3-0.2c-7.2,0-16.7,0.7-27,5.8c-5.2,2.6-10,6-14.1,10.1
		c-15.9,15.8-15.9,34.6-15.9,42.6c0,3.7,0.1,9.9,0.3,18.9C488.6,388.6,488.6,388.8,488.6,388.9z"/>
	<path class="st3" d="M460.3,765.4c0.2,5.1,0.3,10.7,0.4,16.8c0.1,6.4,0.2,14,0.3,22.5c0.1,8.5,0.1,19.1,0.1,32.1c0,0.3,0,0.7,0,1
		c0.2,7.4,0.3,14.7,0.4,21.8c0.1,7.4,0.2,14.3,0.3,20.6c0.1,6.4,0.2,12.1,0.3,17c0.1,4.4,0.1,7.6,0.1,9.6c0,5,0.1,9.2,0.2,12.6
		c1.1,38.6,28.5,56.2,53.5,56.2c2.4,0,3.8-0.1,11.3-0.7c4.6-0.4,10.6-0.8,18-1.3c7.5-0.5,16.1-1.2,25.7-1.9
		c9.5-0.7,19.2-1.4,29.1-2.1c10.1-0.7,19.9-1.5,29.4-2.2l32.1-2.4c16.4-1.3,31-9.8,40.2-23.5l0.4-0.5c0.8-0.8,1.5-1.7,2.3-2.6
		c27,16.6,58.6,25.8,91.7,25.8c28.3,0,56.5-7,81.6-20.3c11.9-6.3,22.8-13.8,32.7-22.4c17.9,30.8,45,54.8,78.3,69
		c20.7,8.8,42.4,13.2,64.6,13.2c21.1,0,41.9-4,61.7-12c15.4-6.2,29.5-14.4,42-24.5c8.6,5.7,18.9,8.9,29.3,8.9h5.1
		c1.8,0,5.1,0,9.7-0.1c4.2-0.1,9.1-0.2,14.5-0.4c5.5-0.2,11.2-0.4,17.1-0.7c5.5-0.3,10.6-0.5,15.1-0.7c5.1-0.2,11.1-0.5,17.7-0.9
		c4.8-0.3,9.4-1.2,13.8-2.7c7,3.3,14.5,4.9,22.3,4.9c18.9,0,30.3-9,39.5-16.2c2.1-1.6,4.7-3.7,7.9-6.3c3.1,2,6.2,4,9.5,5.8
		c14.7,8.1,31.1,13.5,48.8,15.9c4.8,0.9,9.1,1,12.4,1h6.4c5.1,0,8.4-0.1,10.9-0.2c5.4-0.4,10.8-1.4,16.2-3.1c9-2.5,17.7-6.5,26-11.8
		c6.9-4.4,13.6-9.6,19.9-15.5c6.4-6,12.4-12.7,17.8-20.1c5.5-7.5,10.1-15.4,13.9-23.5c2.2-4.7,4.1-9.6,5.8-14.8
		c1.8-5.7,3.1-10.9,3.8-16l0.3-1.4c2.3-12.6,0-25.3-6.3-36.2c2.9-3.6,5.3-7.5,7.2-11.7c0.2-0.5,0.6-1.1,1-1.9
		c1.6-3.1,3.4-6.4,5.5-10.2c2.4-4.3,4.6-8.6,6.7-12.7c1.3-2.5,2-3.8,2.3-4.5c0.6-1,1.1-1.9,1.6-2.9c2-4,3.6-8.3,4.6-12.7
		c1.3-3,2.4-6.2,3.2-9.4c4.7-15.2,2.5-32.1-6.4-45.6c-0.1-0.1-0.2-0.3-0.2-0.4c-4.2-6.3-8.9-10.4-12.6-13.4c-0.4-0.4-0.9-0.7-1.3-1
		c-4-3-8.4-5.5-13.8-7.9c-1.9-0.9-4.2-1.8-6.8-2.9c-2.9-1.2-6-2.4-9.1-3.5c-3.2-1.2-6.1-2.1-8.9-2.9c-0.1,0-0.3-0.1-0.4-0.1
		c-8.9-2.6-18.3-4.7-27.8-6.2c-9.6-1.5-18.9-2.4-27.6-2.7c-0.4,0-1.7,0-1.7,0c-1.7-0.1-3.5-0.2-5.2-0.2c-2.4,0-4.7,0.1-7.2,0.4
		l-2.7,0.3c-4.3,0.5-8.6,1.4-12.8,2.8c-13.1,4.1-25.7,9.6-37.6,16.6c-0.8,0.5-1.7,1-2.5,1.5c-0.4-0.5-0.8-0.9-1.2-1.4
		c-4.5-5-18.1-20.2-42.2-20.2c-11.3,0-22.1,3.5-31.3,10.2c-3.4,2.4-7.2,5.1-11.4,7.9c-0.7,0.5-1.5,1-2.2,1.6
		c-0.1,0.1-0.2,0.2-0.3,0.3c-6-4.6-13-8-20.5-9.8c-5.5-2.7-11.5-4.4-17.8-5c-9.3-0.9-18-1.7-26.1-2.5c-0.2,0-0.3,0-0.5,0
		c-6.8-0.6-13.4-1.1-19.8-1.5c-6-0.4-10.3-0.7-13.5-0.8l-1-0.1c-1.6-0.1-3.2-0.2-4.8-0.2c-13.1,0-25.8,4.8-35.5,13.6
		c-2.6,2.3-4.9,4.9-6.9,7.6c-8.9-6.1-18.6-11.4-28.9-15.8c-20.6-8.7-42.3-13.1-64.6-13.1c-17.4,0-34.6,2.7-51.1,8.1
		c-19,6.2-36.5,15.7-51.8,27.8c-0.1-0.2-0.2-0.3-0.3-0.5c-30.3-57.2-89.5-92.8-154.5-92.8c-28.3,0-56.5,7-81.6,20.3
		c-35.6,18.9-63.6,49.5-79.1,86.6c-4-14.6-13.8-26.7-27.4-33.6c-6.5-3.3-13.5-5.2-20.8-5.7c-6.2-0.4-11.6-0.7-16.4-0.9
		c-4.5-0.2-9.4-0.4-14.8-0.6c-5.2-0.2-10.1-0.4-14.8-0.5c-5-0.2-9.5-0.3-13.4-0.4c-4.3-0.1-7.2-0.2-8.7-0.2h-5.9
		c-14.2,0-28.1,5.8-38,16c-9.9,10.2-15.5,24.1-15.1,38.3l0.3,12.4C460,753.8,460.2,759.9,460.3,765.4z M624.2,821.3
		c-0.3,0.1-0.5,0.1-0.7,0.2c0-0.2,0-0.3-0.1-0.5c0-0.3,0-0.5,0-0.7v-3.7C623.6,818.1,623.9,819.7,624.2,821.3z"/>
	<path class="st3" d="M798.6,1447.2c0-14.3-5.9-28.2-16.1-38.1c-10-9.7-23.1-15-37-15c-0.1,0-10.8,0.3-10.8,0.3
		c-23.5,0.7-40.3,1.2-50.5,1.5c-7.9,0.2-13.8,0.4-18.7,0.8c-0.1-0.1-0.2-0.2-0.2-0.2c-9.7-9.7-22.4-15.2-35.9-15.6
		c-0.7,0-1.9-0.1-3.7-0.2c-3.4-0.2-7.7-0.4-12.9-0.6c-4.9-0.2-10.2-0.4-16-0.6c-5.6-0.2-10.8-0.4-15.7-0.5
		c-5.2-0.2-9.6-0.3-13.4-0.4c-4.3-0.1-6.9-0.2-7.8-0.2c-18.6,0-35.3,8.5-45.5,22.7c-3.1,3.2-5.8,6.8-8,10.6
		c-14.4-14.5-31.7-26.6-51.7-35c-20-8.5-41.2-12.8-63-12.8c-16.9,0-33.7,2.7-49.8,7.9c-44.5,14.5-80.5,47.4-98.7,90.5
		c-34.7,81.9,3.7,176.8,85.6,211.5c20.1,8.5,41.3,12.8,62.9,12.8c20.6,0,40.8-3.9,60.1-11.7c21.8-8.7,40.9-21.8,56.6-38.3
		c0.5,0.8,0.9,1.6,1.4,2.4c7.8,20.8,27.6,34.7,51.3,34.7c2.8,0,6.3-0.2,11.6-0.5c3.8-0.3,8.2-0.6,13.1-1c5.1-0.4,10.3-0.8,15.8-1.3
		c5.7-0.5,10.8-1,15.5-1.4c4.3-0.4,9.3-0.9,15.1-1.4c12.4-1.2,24-6.7,32.8-15.4c0.2,0,0.3,0,0.5,0.1c2.6,0.3,5.7,0.6,9.7,0.8
		c4.8,0.4,10.5,0.8,17.1,1.2c6.8,0.5,13.5,0.9,19.8,1.2c5.9,0.3,11,0.7,15.3,1c7.8,0.6,10,0.7,12.2,0.7h3.2
		c27.9,0,51.2-21.8,53.1-49.7l0.5-8.2c0.1-1.2,0.1-2.4,0.1-3.6c0-0.9,0-2.9,0.1-6.1c0.1-3.9,0.2-8.6,0.3-14.3
		c0.1-5.5,0.2-11.7,0.3-18.5c0.1-7,0.1-14.2,0.1-21.7c0-7,0-13.6,0.1-20.1c0.1-6.3,0.2-12,0.4-16.9c0.2-5.4,0.3-9.9,0.4-13.5
		c0.1-2.7,0.1-4.7,0.1-6l0.2-4.8c0.1-2.6,0.1-5.3-0.2-7.9C798.6,1466.1,798.6,1447.2,798.6,1447.2z"/>
	<path class="st3" d="M1766.8,1548.3c-0.7,10-2.2,19.6-4.3,28.4c-2.6,10.9-6.2,20.7-11,29.1c-2.7,4.9-6.2,10-11.1,15.8
		c-4,4.8-8.1,9.2-12.2,13.1c-7.7,7.4-16.5,13.7-26,19c-8.2,4.5-16.9,8.3-25.7,11.4c-8.9,3.1-18.2,5.4-27.5,6.8
		c-9,1.4-18,2.1-26.9,2.1c-13.1,0-26.3-1.5-39.3-4.4c-13.1-3-25.8-7.5-37.7-13.4c-12.5-6.2-24.1-14-34.5-23.3
		c-0.7-0.6-1.4-1.3-2.1-2c-19.2,25.8-45.1,45.9-75.7,58.2c-21.1,8.5-43.2,12.8-65.8,12.8c-23.7,0-46.8-4.7-68.8-14.1
		c-43.4-18.4-77-52.6-94.7-96.3c-5.3-13-8.9-26.3-11-39.8c-1.3,1.2-2.6,2.3-3.9,3.5c0.2,3,0.7,6.4,1.3,10c0.9,5.3,2.1,10.8,3.7,16.6
		c0,0.1,1.7,6.6,1.7,6.6c2.8,10.7,2.2,21.8-1.7,32.1l-0.1,0.2c-2.1,24.8-20.3,43.9-46.6,48.4c-3.1,0.5-6.9,1-12.3,1.5
		c-4.3,0.4-10.4,0.9-18.6,1.4c-8.4,0.7-15.1,1.2-20.1,1.5c-4.9,0.3-8.4,0.5-10.6,0.6c-1.9,0.1-3.5,0.1-4.7,0.1
		c-6.4,0-12.3-0.9-17.9-2.8c-21.6-7.2-36.2-27-36.7-49.6l-0.1-2.6c-0.1-2-0.2-4.9-0.4-8.5c-0.2-4.1-0.4-9-0.5-14.4
		c-0.1-5.1-0.2-10.4-0.2-16.1l-0.3-23.5c-0.2-0.2-0.8-0.9-1-1.1c-1.4-1.6-3.5-3.9-6.4-7c-3-3.2-5.9-6.4-8.7-9.3
		c-3.1-3.3-6.1-6.5-8.9-9.6c-1.8-2-2.8-3.1-3.4-3.7c-1.9-1.9-4.1-4.2-6.8-7.1c-2.3-2.5-4.5-4.9-6.6-7.2c-2.2-2.4-4.2-4.6-5.9-6.5
		c-4.7-5.2-15.8-17.6-15.8-38.2c0-17.2,8.1-33,21.9-43c0.9-0.7,1.9-1.4,2.9-2c1.9-1.2,3.7-2.4,6-3.6c1.7-1,3.7-2.2,6.4-3.7
		c3.2-1.8,6.7-3.8,10.4-5.8c5.2-3,9.5-5.5,12.7-7.3c3.6-2,6.3-3.5,8.3-4.5c0.4-0.2,0.7-0.4,1-0.5c1.4-0.9,2.8-1.6,4.2-2.4
		c2.3-1.5,4.6-2.8,7-4.1c0.5-0.3,1-0.6,1.4-0.8c8.9-5.4,18.6-8.1,28.5-8.1c10.3,0,20.3,3,29,8.6c4.7,3.1,8.9,6.8,12.4,11
		c1.9-1.9,3.6-3.6,5.2-5.1c4.9-4.6,17.8-16.8,39.2-16.8c17.6,0,28.7,8.1,36,13.4c3.3,2.4,7,5.2,11.1,8.4c3.3,2.6,6.5,4.9,9.5,7.2
		c3.9,2.9,6.3,4.7,8.2,6.2c2,1.5,3.6,2.7,4.9,3.7c17.8-23,41-41.4,67.8-53.3c0,0,27.7-10.7,77.1-15.2c22,0.6,43.4,5.3,63.7,13.9
		c19,8,36.1,19.1,50.8,32.7c10.3-10.9,24.7-16.9,38.8-16.9c9.4,0,15.2,2,26.8,6c6,2.1,13.2,4.5,21.6,7.4l30.8,10.6
		c16.8,5.8,29.5,19.6,34,36.6l8.5-3.5c4-1.7,8.1-3.4,12.3-5.3c0.3-0.1,0.6-0.3,0.9-0.4c5.3-2.2,9.8-4.1,13.6-5.7
		c0.7-0.3,1.3-0.6,1.9-0.8c8-4.4,16.9-6.7,26.1-6.7c13.9,0,27.1,5.3,37.1,15c9.1,8.7,13,18.7,14.6,23c1.2,3.1,2.3,6.3,3.4,9.8
		c1.7,4.8,2.9,9.6,3.5,14.2c1.1,3.2,2,6.7,2.7,10.6c1.8,9.6,3,19.6,3.5,29.4C1767.6,1528.7,1767.5,1538.8,1766.8,1548.3z"/>
	<path class="st3" d="M1485.7,1218.9c0,17.7-8.6,29.7-11.9,34.2c-3.5,8.4-9.1,16-16.5,22.6c-3.9,3.5-8.6,7-15,11
		c-9.1,6-19.6,11.8-31.3,17.2c-11.3,5.2-23.3,9.9-35.6,13.8c-1,0.3-2,0.6-3.1,0.9c-49.4,4.5-77.1,15.2-77.1,15.2
		c-0.9,0.1-1.8,0.1-2.7,0.2l-6.5,0.3c-2.9,0.1-5.7,0.2-8.3,0.2h-4.4c-2.5,0-5-0.2-7.4-0.5c-1-0.1-1.8-0.2-2.4-0.3
		c-15-1.9-28.4-9.8-37.3-21.8c-20.7,15.8-45.3,26.7-72.1,31.4c-8.5,1.5-17.3,2.2-25.9,2.2c-8.4,0-16.8-0.7-25.1-2.1
		c-39.9-6.6-74.9-27-99.6-57.2c-17,20.8-39.1,37.1-64.7,47.4c-19.3,7.7-39.5,11.7-60.1,11.7c-21.6,0-42.8-4.3-62.9-12.8
		c-22.4-9.5-42-23.7-57.7-41.4c-0.8,0.8-1.5,1.6-2.3,2.4c-1.9,1.9-5.8,5.8-11.6,9.5c-6.4,6-13.5,10.3-19.8,13.6
		c-0.2,0.1-0.3,0.2-0.5,0.3c-19.1,9.9-39.6,15.8-61,17.5c-4.5,0.4-8.2,0.6-11.5,0.6c-1.4,0-2.7-0.1-3.9-0.1
		c-3.3-0.2-6.7-0.5-10.9-1.1c-1.2-0.2-2.3-0.3-3.3-0.5c-14.2-2.8-27.2-7.8-38.9-14.8c-11.4-6.8-21.5-15.3-30.1-25.4
		c-8.1-9.4-14.9-20.1-20.2-31.8c-5-11-8.7-22.6-10.9-34.7c-0.8-4-1.3-8.6-1.6-13.9c-0.2-3.5-0.4-7.2-0.5-10.9
		c-0.1-4.1-0.1-8.3,0-12.4c0.2-5.1,0.6-9.7,1.2-14c2.1-15.2,6.2-29.8,12-43.6c5.9-13.9,13.5-26.9,22.6-38.4
		c9.4-12,20.3-22.4,32.5-30.9c12.8-9.1,26.9-15.8,41.7-19.9c0.7-0.2,1.4-0.4,2.2-0.6c3.3-0.7,5.4-1.2,6.6-1.5
		c3.9-0.7,7.6-1.1,11.6-1.1c3.3,0,6.7,0.3,10.3,0.8c11.8,1.3,23.5,4.9,34.9,10.7c9,4.6,17.7,10.1,25.9,16.5
		c6.8,5.3,13.2,11,19.1,17.2c19.6-25.1,46.4-44.1,77.3-54.1c16.1-5.2,32.9-7.9,49.8-7.9c21.7,0,42.9,4.3,63,12.8
		c24.4,10.4,45.5,26.2,61.8,46.3c19.4-23.6,45.2-41.5,74.9-51.1c16.1-5.2,32.9-7.9,49.8-7.9c21.7,0,42.9,4.3,63,12.8
		c13.6,5.8,26.1,13.3,37.4,22.2c0.7-0.8,1.5-1.6,2.3-2.5c10.4-10.4,24.4-16.1,39.4-16.1c7.8,0,7.8,0,8.9,0.1
		c17.3,0.8,34.7,4.1,51.8,10c15.7,5.4,31,12.6,45.3,21.2c13.8,8.4,27,18,39.1,28.7c11.7,10.3,22.3,21.3,31.6,32.6
		c2,2.3,3.8,4.8,5.6,7.6c1,1.3,2.1,2.8,3.3,4.5c1.9,2.7,3.7,5.4,5.3,8.1c1.5,2.4,2.8,4.7,4.1,6.8c1.6,2.7,2.6,4.6,3.4,6.2
		c0.3,0.6,0.6,1.3,0.9,1.9c1.9,3.2,3.6,6.8,5.4,11.1c1.5,3.6,2.9,7.4,4.3,11.3c1.2,3.5,2.2,6.6,3.1,9.4
		C1483.9,1204.2,1485.7,1210.9,1485.7,1218.9z"/>
	<g>
		<path class="st4" d="M544.2,561.4c-2,0-3.9-0.7-5.3-2.1c-1.6-1.5-2.6-3.6-2.6-5.8l-0.3-15.4c0-2.3,0-5-0.1-8.5
			c-0.1-3.5-0.2-7.4-0.3-11.5c-0.1-4.1-0.2-8.5-0.3-13c-0.1-4.5-0.1-9-0.1-13.4c-0.2-13.8-0.3-26-0.4-36.6
			c-0.1-10.5-0.2-19.9-0.3-28.1c-0.1-8.2-0.2-15.5-0.3-21.9c-0.1-6.3-0.2-12.3-0.4-17.8c-0.2-8.7-0.3-14.7-0.3-18
			c0-5.2,0-8,2.6-10.6c0.6-0.6,1.3-1.1,2.1-1.5c1.9-0.9,3.8-1.1,7.1-1.1c1.1,0,3.5,0,7.2,0.1c3.6,0.1,7.9,0.2,12.7,0.4
			c4.8,0.2,9.8,0.4,15.1,0.5c5.3,0.2,10.2,0.4,14.6,0.5c4.5,0.2,8.2,0.4,11.2,0.5c2.6,0.2,4.5,0.3,4.5,0.3c4.1,0,7.8,2.9,8.9,7.1
			c0.4,1.7,0.4,3.3,0,4.8c0.7,1.3,1.1,2.9,1.1,4.7c0,1.3-0.3,2.5-0.9,3.7c-2.2,4.3-4,8.9-5.3,13.7c-1.4,5.1-2.7,10.3-3.9,15.3
			l-1.4,9.4c-0.6,3.9-1.1,8.3-1.4,13.2c-0.2,2.1-0.3,4.8-0.4,8.1c-0.1,3.5-0.1,6.8-0.1,10.1c0,2,0,3.9,0.1,5.6
			c0.9-0.4,1.9-0.7,3-0.8c0.7-0.6,1.6-1.1,2.5-1.6c1.5-0.8,3.2-1.4,5.2-1.8c1.4-0.2,3.2-0.4,5.4-0.5c2-0.1,4.6-0.1,7.8-0.1
			c2.8-0.2,5.6-0.3,8.4-0.3c2.2,0,4.4,0.1,6.6,0.2c2,0.1,3.9,0.2,5.6,0.4c0-2.3-0.1-4.6-0.1-6.6c-0.1-4.6-0.2-9.7-0.3-15.2
			l-0.3-15.7c-0.1-4.9-0.2-9.3-0.3-13.2c-0.1-4.7-0.3-6.5-0.3-7.2c0-0.1,0-0.2,0-0.3c-0.5-5.8-0.6-10.4,2.6-13.6
			c1.5-1.5,3.5-2.3,5.6-2.3c0.2,0,6.1,0.1,6.1,0.1c3.8,0.1,8.4,0.2,14,0.3c5.6,0.1,11.7,0.2,18.2,0.4c6.5,0.2,12.5,0.4,18.1,0.5
			c5.6,0.2,10.3,0.4,14.1,0.5c3.3,0.2,5.2,0.3,5.6,0.3c4.3,0.1,7.8,3.7,7.8,8c0,2.8-1.4,4.8-2.8,6.8c-0.8,1.2-2.3,3.4-4.4,7.6
			c-1.7,3.5-3.1,6.6-4.1,9.4c-7.5,21.1-9.3,47.7-5.3,79.1c0.2,1.9,0.4,3.8,0.7,5.8c0.3,1.9,0.5,2.6,0.5,2.6c0.2,0.5,0.3,0.9,0.4,1.4
			l0.8,4c0.3,1.7,0.7,3.2,1,4.5c0,0.2,0.1,0.3,0.1,0.5c0.5,2.7,1.2,5.9,2.2,9.5c1,3.6,2,7.3,3,10.8c1,3.4,2.1,6.6,3.1,9.4
			c0.9,2.6,1.5,4,1.9,4.6c0.9,1.2,1.5,2.6,1.8,4c0.7,3.7-0.7,6.2-1.7,7.3c-1.3,1.6-3.4,2.7-5.5,2.9v0c-5.3,0.5-9.9,1-14,1.4
			c-4.1,0.4-8.5,0.7-13.2,1.1c-4.7,0.4-9.3,0.7-13.8,1c-4.4,0.3-8.4,0.5-11.8,0.7c-3.6,0.2-6,0.3-7.4,0.3h-4.6
			c-2.4,0-4.6-1.1-6.1-2.8c-0.6,0.1-1.1,0.2-1.6,0.2c-0.8,0-7.8-0.3-8.8-8.9c0-0.3-0.1-0.6-0.1-1v-6.2c0-3,0-6.6-0.1-10.6
			c-0.1-4.1-0.5-21.6-0.5-25.4c0-2-0.1-4.2-0.2-6.6c-1.7-0.1-3.8-0.2-6.7-0.2c-1,0-2,0-3.1,0c-7.3,0-14.9,0.5-22.7,1.6
			c-1.1,0.2-2.5,0.4-4.1,0.6c-1.1,0.2-2.1,0.4-3.1,0.6c0.3,1.4,0.6,3,1,4.7c0.8,3.4,1.7,6.9,2.6,10.6c0.8,3.5,1.7,6.5,2.5,9
			c0,0.1,0.1,0.3,0.1,0.4c0.9,3.2,1.6,5.8,2.2,7.8c0.6,2.1,1.1,3.7,1.5,4.8c0.2,0.6,0.3,1.1,0.5,1.4c0.3,0.7,0.6,1.4,0.9,2.1
			c0.3,0.6,0.5,1.2,0.7,1.8c0.4,0.9,0.7,2.1,0.7,3.4c0,2.1-0.8,4.1-2.3,5.6c-2.3,2.3-4.9,2.6-10.1,3c-3.2,0.3-7.3,0.6-12.1,1.1
			c-4.9,0.5-10.2,0.9-15.9,1.4c-5.7,0.5-11.1,0.9-16.3,1.2c-5.1,0.4-9.5,0.7-13.2,0.9c-4.4,0.3-6.2,0.4-7.1,0.4l-3,0.2
			C544.6,561.4,544.4,561.4,544.2,561.4z"/>
		<path class="st5" d="M721.5,508.9c0.5,2.9,1.3,6.2,2.3,10c1,3.8,2,7.5,3.1,11.1c1.1,3.6,2.2,6.9,3.2,9.9c1.1,3,2,5.1,2.7,6.4
			c0.4,0.4,0.6,0.8,0.7,1.2c0.1,0.5,0,0.7-0.1,0.7c-5.2,0.5-9.9,1-13.9,1.4c-4.1,0.4-8.4,0.7-13.1,1.1c-4.7,0.4-9.2,0.7-13.7,0.9
			c-4.4,0.3-8.3,0.5-11.8,0.7c-3.4,0.2-5.8,0.3-7,0.3h-4.6v-2.2c0-1.6-0.2-2.6-0.5-3c0-0.4-0.2-0.9-0.5-1.6
			c-0.2-0.9-0.5-1.3-1.1-1.2c-0.5,0.1-1,0.6-1.4,1.5c-0.4,0.9-0.9,1.7-1.6,2.3c-0.7,0.6-1.5,1.1-2.4,1.5c-0.5,0.2-0.9-0.4-1.1-1.9
			c0-1.1,0-3.2,0-6.2c0-3.1,0-6.7-0.1-10.8c-0.1-4.1-0.2-8.5-0.3-13c-0.1-4.5-0.2-8.7-0.3-12.4c-0.1-3.8-0.2-8.2-0.4-13.2
			c-0.9-0.7-5.7-1.2-14.3-1.4c-8.7-0.2-17.7,0.4-27,1.6c-1.3,0.2-2.7,0.4-4.3,0.7c-1.6,0.3-3.2,0.6-4.7,0.9
			c-1.5,0.4-2.8,0.7-3.9,0.9c-1.1,0.3-1.7,0.5-1.9,0.7c-0.2,0.2-0.1,1.4,0.3,3.8c0.4,2.3,0.9,5.2,1.8,8.6c0.8,3.4,1.7,7,2.6,10.7
			c0.9,3.7,1.8,6.9,2.7,9.6c0.9,3.2,1.7,5.9,2.3,8c0.6,2.1,1.1,3.7,1.5,4.9c0.4,1.2,0.7,2,0.9,2.6c0.3,0.5,0.5,1.1,0.7,1.6
			c0.4,0.7,0.5,1.2,0.5,1.4c0.2,0.4,0.3,0.6,0.3,0.8c-0.2,0.2-1.9,0.4-5.1,0.7c-3.2,0.3-7.3,0.6-12.2,1.1
			c-4.9,0.5-10.1,0.9-15.8,1.4c-5.7,0.5-11.1,0.9-16.2,1.2c-5.1,0.4-9.6,0.7-13.2,0.9c-3.7,0.3-6,0.4-6.9,0.4l-3.2,0.3l-0.3-15.4
			c0-2.2,0-5-0.1-8.5c-0.1-3.5-0.2-7.3-0.3-11.5c-0.1-4.1-0.2-8.5-0.3-13c-0.1-4.5-0.1-8.9-0.1-13.2c-0.2-13.9-0.3-26.1-0.4-36.6
			c-0.1-10.5-0.2-19.9-0.3-28.1c-0.1-8.2-0.2-15.5-0.3-21.9c-0.1-6.4-0.2-12.4-0.4-18c-0.2-8.7-0.3-14.6-0.3-17.7
			c0-3.2,0.1-4.8,0.3-5c0.4-0.2,1.5-0.3,3.5-0.3c1.1,0,3.4,0,7,0.1c3.6,0.1,7.8,0.2,12.6,0.4c4.8,0.2,9.8,0.4,15.1,0.5
			c5.3,0.2,10.2,0.4,14.6,0.5c4.4,0.2,8.1,0.4,11.1,0.5c3,0.2,4.5,0.3,4.7,0.3c0.7,0,1.2,0.4,1.4,1.1c0.2,0.7-0.1,1.3-0.8,1.6
			c-0.2,0-0.4,0.3-0.7,0.9c-0.3,0.6-0.5,1.4-0.7,2.3c-0.5,1.6-0.8,2.8-0.8,3.5c-0.4,0.7-0.3,1,0.3,0.8c0.5-0.2,1-0.6,1.4-1.4
			c0.5-0.9,1-1.4,1.5-1.5c0.4-0.1,0.7,0.3,0.7,1.2c-2.5,4.9-4.5,10-5.9,15.3c-1.4,5.3-2.8,10.6-4.1,15.8c-0.4,2.3-0.9,5.6-1.5,9.7
			c-0.6,4.1-1.1,8.7-1.5,13.8c-0.2,2.2-0.3,5-0.4,8.5c-0.1,3.5-0.1,6.9-0.1,10.3c0,3.3,0,6.2,0.1,8.7c0.1,2.4,0.2,3.7,0.4,3.9
			c0.2,0,0.4,0.4,0.8,1.1c0.2,0.4,1,0.5,2.4,0.5c1.4-0.2,2.6,0.2,3.5,1.1c0.7,0.9,1.7,1.4,3,1.4c1.1,0,1.8-0.2,2.2-0.5
			c0.4-0.4,0.2-0.7-0.5-1.1c-0.5-0.4-0.8-0.9-0.8-1.6c0-0.5,0.4-0.7,1.1-0.5c0.9,0,2-0.4,3.2-1.4c0.7-0.5,1.4-1,2-1.4
			c0.6-0.4,1.5-0.6,2.6-0.8c1.1-0.2,2.6-0.3,4.5-0.4c1.9-0.1,4.5-0.1,7.7-0.1c4.7-0.4,9.5-0.4,14.3-0.1c4.9,0.3,8.7,0.7,11.4,1.2
			c0.7,0.2,1.3,0.3,1.8,0.3c0.4,0,0.8,0,0.9,0c0-5.9,0-11.2-0.1-15.8c-0.1-4.6-0.2-9.6-0.3-15.1c-0.1-5.5-0.2-10.7-0.3-15.7
			c-0.1-5-0.2-9.4-0.3-13.2c-0.1-3.9-0.2-6.5-0.4-8c-0.4-4.3-0.3-6.8,0.3-7.3c0.2,0,2.2,0,5.9,0.1c3.8,0.1,8.5,0.2,14.1,0.3
			c5.6,0.1,11.6,0.2,18.1,0.4c6.5,0.2,12.5,0.4,18.1,0.5c5.6,0.2,10.2,0.4,13.9,0.5c3.7,0.2,5.6,0.3,5.8,0.3c0,0.2-0.5,0.9-1.4,2.2
			c-1.4,2-3.1,4.9-5,8.7s-3.4,7.2-4.5,10.3c-7.9,22.3-9.8,49.9-5.7,82.7c0.2,1.8,0.4,3.7,0.7,5.8c0.3,2.1,0.6,3.6,0.9,4.5
			c0.2,0.9,0.4,2.3,0.8,4.1C720.8,505.8,721.1,507.4,721.5,508.9z M703.4,444.3c0.9-1.4,1-2.7,0.3-3.9c-0.7-1.2-2.6-3-5.7-5.5
			c-1.3-1.1-2.2-1.7-2.7-1.9c-0.5-0.2-0.6,0-0.3,0.5c0.9,2.5,1.4,4,1.4,4.3c0,0.4-0.4,0.8-1.1,1.4c-0.7,0.7-1.2,2.1-1.4,4.1
			c-0.4,2.3-0.9,4.1-1.6,5.4c-1.1,1.8-1.3,2.7-0.5,2.7c0.2-0.2,0.4-0.4,0.8-0.8c0.4-0.2,0.7-0.4,0.9-0.7c0.3-0.3,0.6-0.6,0.9-0.9
			c1.6-2,2.3-3.1,2.2-3.2c-0.4-0.4-0.3-1,0.3-1.9c0.5-0.9,1.1-1.5,1.6-1.9c0.9-0.4,1.6-0.3,2,0.3c0.4,0.5,0.7,1.4,0.7,2.4
			C701.2,447.2,702,447.1,703.4,444.3z"/>
		<path class="st4" d="M940.5,561.4c-1.1,0-3.3-0.1-9-0.7c-4-0.4-8.2-0.9-12.7-1.5c-4.7-0.6-9-1.2-12.8-1.8c-5.7-1-7.9-1.7-9.4-2.4
			c-2.6-1.2-3.6-1.8-4.4-2.3c-1.1-0.8-2.3-2.1-3-4.1c-1-0.6-1.7-1.2-2.3-1.9c-1.4,0-2.8-0.4-4.1-1.1c-0.4,0.1-0.8,0.1-1.2,0.1
			c-1.8,0-7.7-0.7-8.4-9.3c-0.1-1.3-0.1-3-0.2-5c-0.3-3.4-0.7-6.6-1-9.6c-0.3-2.8-0.9-5.7-1.7-8.7c-0.2-0.8-0.4-1.5-0.5-1.9
			c-0.1,0-0.2,0.1-0.3,0.1c-0.7,0.3-1.4,0.6-2.2,0.9c-1.1,0.4-2.4,0.6-4.1,0.8c-1,0.1-2.6,0.2-4.7,0.3c-1.9,0.1-4.5,0.1-7.8,0.1
			c-6.3,0-11.9,0.2-16.9,0.5c-4.9,0.3-9.6,0.9-14.1,1.5c-4,0.7-7.5,1.4-10.4,2.1c-0.1,0-0.2,0.1-0.4,0.1c-0.4,1.4-0.8,2.9-1.1,4.6
			c-0.4,1.9-0.8,3.7-1.2,5.5c-0.4,1.8-0.6,3.2-0.8,4.3c-0.3,1.5-0.4,3.2-0.3,5.2c0.1,2.2,0.3,4.4,0.6,6.6c0.9,5.3-2,9-5.4,10.3
			c-1.1,0.4-2.4,0.7-6.9,1.3c-1.2,0.1-2.3,0.2-3.3,0.2c-1.1,0-2.2-0.1-3.2-0.2c-1.7-0.2-3.7-0.7-5.8-1.4c-0.4,0.1-0.9,0.1-1.3,0.1
			c-0.9,0-1.8-0.1-2.7-0.3c-1.5,2.7-4.3,3.9-6.5,4.1l0,0c-0.5,0-1.8,0.2-4.2,0.5c-2.9,0.4-6.6,0.7-10.8,1.1
			c-4.5,0.5-8.1,0.9-10.7,1.2c-2.8,0.3-5,0.5-6.5,0.5c-2.4,0-5.5-0.3-7.9-2.8c-0.9-0.9-1.6-1.9-2.2-3c-1.2-2.4-1.4-5.1-0.8-11.8
			c0.4-4.6,1-9,1.7-13.2c0-0.1,0-0.2,0.1-0.3c2.6-11.8,6.2-24.1,10.7-36.4c4.5-12.2,9.7-24.6,15.4-36.6c5.7-12,11.9-23.9,18.3-35.5
			c6.4-11.5,12.9-22.5,19.3-32.6c0.1-0.1,0.2-0.2,0.2-0.3c3.7-5.3,5.2-7,6.2-8c2.3-2.3,5.4-3.6,8.6-3.6c0.1,0,0.1,0,0.2,0
			c0.1,0,0.1-0.1,0.2-0.1c0.1-0.8,0.3-1.7,0.7-2.6c0-0.2-0.3-4.1-0.3-4.1c-0.2-2,0.5-4,1.7-5.6l4.3-5.4c1.5-1.9,3.9-3,6.2-3
			c1,0,2.1,0.2,3.1,0.6l5.1,2.2c13.2,5.5,26.7,14.4,40.2,26.4c13.3,11.8,25.6,25.8,36.5,41.6c11.8,17,21.4,34.6,28.6,52.4
			c7.2,17.9,11.8,35.6,13.6,52.6c0.2,1.9,0.3,4.2,0.3,6.8v6.8c0,2.3-0.1,4.4-0.1,6C948.3,560.5,942.8,561.4,940.5,561.4z
			 M836.8,450.5c-0.7,1.4-1.5,2.9-2.4,4.6l-4.1,7.8c-0.7,1.4-1.4,2.7-2,4c0.9-0.1,1.9-0.2,2.9-0.2c5.3-0.3,10.3-0.4,14.9-0.4
			c1.3,0,2.5,0,3.7,0c-1.2-1.8-2.6-3.5-3.9-5.2c-2.3-2.9-4.7-5.7-7.1-8.4C838.2,451.9,837.5,451.2,836.8,450.5z"/>
		<path class="st6" d="M755.3,551.6c-4.7,0.5-8.3,0.9-10.8,1.2c-2.5,0.3-4.4,0.4-5.7,0.4c-1.3,0-2-0.1-2.3-0.4
			c-0.3-0.3-0.5-0.6-0.7-0.9c-0.4-0.7-0.4-3.2,0-7.6c0.4-4.3,0.9-8.5,1.6-12.4c2.5-11.5,6-23.3,10.4-35.4c4.4-12.1,9.5-24.1,15.1-36
			c5.7-11.9,11.7-23.6,18.1-35c6.4-11.4,12.7-22.2,19.1-32.3c2.5-3.6,4.3-5.9,5.3-6.9c1-1,2.2-1.4,3.6-1.2c1.4,0,2.6-0.4,3.5-1.1
			c0.4-0.2,0.7-0.4,1.1-0.5c0.4-0.2,0.6-0.3,0.8-0.3c1.4,0,2.2-1.2,2.2-3.5c0-1.4,0.2-2.3,0.5-2.7c0.4-0.2,0.4-1.4,0.3-3.8l-0.3-3.5
			l4.3-5.4l5.1,2.2c12.4,5.2,25.1,13.6,38,25c12.9,11.4,24.6,24.8,35.3,40.1c11.5,16.6,20.8,33.5,27.7,50.8
			c6.9,17.3,11.3,34.2,13.1,50.5c0.2,1.6,0.3,3.6,0.3,5.9c0,2.3,0,4.6,0,6.8c0,2.2,0,4-0.1,5.5c-0.1,1.5-0.2,2.3-0.4,2.3
			c-1.4,0-4.1-0.2-8.1-0.7c-4-0.4-8.2-0.9-12.7-1.5c-4.5-0.5-8.6-1.1-12.4-1.8c-3.8-0.6-6.2-1.2-7.3-1.8c-1.6-0.7-2.6-1.2-3-1.5
			c-0.4-0.3-0.5-0.9-0.5-1.8c0-0.7-0.1-1.2-0.4-1.5c-0.3-0.3-0.9-0.6-1.8-0.9c-1.4-0.4-2-0.9-1.6-1.6c0.2-0.2,0.3-0.4,0.3-0.5
			l0.3-0.3c0-0.4-0.8-0.7-2.4-0.9c-1.6-0.3-2.7-0.3-3.2-0.1c-0.5,0.4-1.3,0.1-2.2-0.8c-0.5-0.5-0.9-0.9-1.1-0.9
			c-0.2-0.1-0.6,0-1.4,0.4c-0.2,0-0.3,0-0.4,0.1c-0.1,0.1-0.2,0.1-0.4,0.1l-0.5,0.3c-0.2,0-0.3-0.6-0.4-1.9
			c-0.1-1.3-0.1-2.9-0.1-4.9c-0.4-3.6-0.7-7-1.1-10.1c-0.4-3.2-1-6.4-1.9-9.9c-1.1-4.7-2.8-7.3-5.1-7.8c-0.7,0-1.4-0.6-2.2-1.9
			l-1.6-1.6c-0.2,0-0.5,0.6-0.8,1.9c-0.2,1.1-0.9,1.9-2.2,2.4c-0.4,0.2-0.8,0.4-1.4,0.5c-0.5,0.2-1.3,0.3-2.3,0.4
			c-1,0.1-2.4,0.2-4.3,0.3c-1.9,0.1-4.4,0.1-7.4,0.1c-6.5,0-12.3,0.2-17.4,0.5c-5.1,0.4-10,0.9-14.7,1.6c-4.3,0.7-8.1,1.5-11.2,2.3
			c-3.2,0.8-4.8,1.5-5,2c-0.2,0.5-0.5,1.6-0.9,3.2c-0.5,1.6-0.9,3.4-1.4,5.4c-0.5,2-0.9,3.9-1.2,5.8c-0.4,1.9-0.6,3.4-0.8,4.5
			c-0.4,2-0.5,4.2-0.4,6.8c0.1,2.5,0.3,5,0.7,7.6c0.2,0.9,0,1.4-0.4,1.6c-0.5,0.2-2.1,0.5-5,0.8c-1.6,0.2-3.2,0.2-4.6,0
			c-1.4-0.2-3.2-0.6-5.1-1.4c-1.4-0.4-2.4-0.4-3,0c-1.6,0-2.9-0.8-3.8-2.4c-0.7-0.5-1.4-1.4-2.2-2.7c0-0.5-0.2-1-0.5-1.4
			c-0.2-0.2-0.4-0.4-0.5-0.5c-0.2,0-0.4,0.4-0.5,1.2c-0.2,0.8-0.3,1.8-0.3,2.8c-0.4,2.9-0.7,4.3-1.1,4.3c-0.4,0.4-0.5,0.8-0.5,1.4
			c0,0.7-0.1,1.1-0.3,1.1c-0.2,0-1.7,0.2-4.6,0.5C763,550.9,759.4,551.2,755.3,551.6z M814.5,478.1l3-0.8c4.3-1.4,9.1-2.3,14.2-2.6
			c5.1-0.3,10-0.4,14.5-0.4c3.2,0,6.3,0,9.2,0.1c2.9,0.1,4.8,0.2,5.7,0.4c1.6,0.4,2.6,0.5,2.8,0.4c0.3-0.1,0.3-0.4,0.1-0.9
			c-1.3-2.7-2.9-5.6-5-8.8c-2.1-3.2-4.3-6.3-6.8-9.3c-2.4-3.1-4.9-6-7.4-8.8c-2.5-2.8-4.9-5.2-7-7.2l-2.7-2.7l-4.1,7
			c-1.1,2-2.3,4.3-3.6,6.9c-1.4,2.6-2.7,5.2-4.1,7.8c-1.4,2.6-2.6,5.1-3.6,7.6c-1.1,2.4-2.1,4.6-3,6.4L814.5,478.1z M880.5,448.3
			c-0.4,0-0.4,0.9,0,2.6c0.4,1.7,0.8,2.8,1.4,3.4c0.4,0.4,0.6,0.8,0.8,1.2c0.2,0.5,0.4,0.9,0.8,1.2c0.9,2.7,1.9,4.6,3,5.7
			c0.2,0.2,0.5,0.7,1.1,1.6c0.5,2.2,1.2,3.2,1.9,3.2c0.4,0,0.4-1.1,0.3-3.2c-0.4-2.2-0.8-3.7-1.4-4.6c-0.9-1.6-0.9-2.7,0-3.2
			c0.5-0.5,0.4-1-0.3-1.4c-0.4-0.4-0.7-1.1-1.1-2.2c-0.2-0.9-0.5-1.4-0.8-1.4c-0.4,0-0.6,0.5-0.8,1.4l-0.5,1.6l-1.6-0.8
			c-1.1-0.5-1.6-1.2-1.6-1.9c0-0.9-0.1-1.7-0.3-2.3C881.1,448.6,880.8,448.3,880.5,448.3z"/>
		<path class="st4" d="M953.4,561.8c-3,0-5-1.2-6.2-2.2c-1.6-1.4-2.7-3.3-3-5.5c-0.3-1.3-0.4-3.9-0.5-12.4
			c-0.1-6.8-0.2-15.3-0.4-25.4c-0.2-10.1-0.4-21-0.5-32.6c-0.2-11.5-0.3-22.5-0.3-32.6v-36.1c0-0.7,0.1-1.5,0.3-2.2
			c0.8-2.8,2.2-4.7,3.5-5.9c0,0,0,0,0,0c-3.6-2.6-4.1-6.8-4.4-11c-0.2-3.1-0.3-8.9-0.3-17.6v-14.1c0-4.4,3.6-8,8-8h5.7
			c2,0,5.4,0.1,10.3,0.3c4.7,0.2,9.9,0.4,15.8,0.5c5.9,0.2,12,0.4,18.4,0.5c6.5,0.2,12.6,0.4,18.1,0.7c5.5,0.3,10.3,0.4,14.3,0.5
			c5,0.1,7.1,0.3,8.3,0.4c7.9,0.4,16.2,1.7,24.8,3.7c8.6,2.1,16.7,4.8,24,8c8.8,3.8,16.8,8.5,23.8,13.8c7.2,5.5,12.8,11.4,16.5,17.4
			l1.7,2.8c1.2,1.9,1.4,4.2,0.8,6.4l-0.8,2.7c0,0.1-0.1,0.3-0.1,0.4c-0.9,2.4-1.8,4.5-2.8,6.3c-1.1,1.9-2.7,4.2-5.2,7.1
			c-7.6,9.7-18.2,19.5-31.4,29.3c-13.1,9.7-27.8,18.6-43.6,26.5c-2.2,1.1-4.8,2.3-7.7,3.7c-2.9,1.3-5.9,2.5-8.8,3.7
			c-2.8,1.1-5.5,2.1-8,3c-1.3,0.5-2.6,0.9-3.7,1.3c0.2,0.9,0.4,2.1,0.6,3.4c0.8,4.1,1.7,8.5,2.8,13.3c1,4.7,2.2,9.4,3.5,14
			c1.3,4.5,2.4,8.1,3.4,10.7c1.3,3.2,2.4,6.4,1.1,9.8c-0.7,1.7-2.9,5.5-9.1,5.7c-0.1,0.3-0.3,0.6-0.4,0.8c-1.4,2.3-3.8,3.7-6.5,3.8
			c-0.6,0-2.7,0.2-6.4,0.5c-4.3,0.4-9.7,0.7-15.9,1.1c-5.7,0.5-11.6,1-17.4,1.5c-5.7,0.4-9.6,0.8-11.5,0.9c-2.1,0.2-4.1,0.3-6.1,0.4
			c-1.5,0.1-2.6,0.1-3.2,0.1C954.1,561.7,953.8,561.8,953.4,561.8z M1017.8,416.8c-0.4,2.5-0.7,5.3-1.1,8.4c-0.4,3.5-0.8,7.2-1,11
			c1.9-0.9,3.7-1.7,5.3-2.4c4.6-2.2,9.4-4.6,14.1-7.2c4.6-2.5,8.5-4.8,11.7-7c0.1-0.1,0.7-0.5,0.9-0.6c-4.6-1-9.5-1.7-14.7-2
			c-3.3-0.2-6.3-0.4-9.1-0.4c-2.1,0-4.1,0.1-5.9,0.2C1017.9,416.8,1017.8,416.8,1017.8,416.8z"/>
		<path class="st7" d="M952.9,399.7c-0.7,0.7-1.4,1-1.9,0.8c-0.5-0.4-0.9-2-1.1-5c-0.2-3-0.3-8.7-0.3-17.2v-14.1h5.7
			c2,0,5.3,0.1,10,0.3c4.7,0.2,10,0.4,15.8,0.5c5.9,0.2,12,0.4,18.4,0.5c6.4,0.2,12.4,0.4,18,0.7c5.6,0.3,10.4,0.5,14.5,0.5
			c4.1,0.1,6.6,0.2,7.7,0.4c7.6,0.4,15.5,1.5,23.7,3.5c8.2,2,15.7,4.5,22.6,7.6c8.3,3.6,15.7,7.9,22.2,12.8c6.5,5,11.4,10,14.6,15.3
			l1.6,2.7l-0.8,2.7c-0.7,2-1.5,3.7-2.3,5.1c-0.8,1.4-2.3,3.4-4.5,5.9c-7.2,9.2-17.2,18.5-30,28c-12.8,9.5-26.9,18.1-42.4,25.8
			c-2.2,1.1-4.6,2.3-7.4,3.5c-2.8,1.3-5.6,2.4-8.4,3.5c-2.8,1.1-5.4,2.1-7.8,3c-2.4,0.9-4.5,1.6-6.1,2.2c-1.6,0.5-2.6,0.9-2.8,1.2
			c-0.3,0.3-0.4,0.9-0.4,1.8c0,1.6,0.4,4.5,1.2,8.7c0.8,4.1,1.8,8.6,2.8,13.5c1.1,4.9,2.3,9.7,3.6,14.5c1.4,4.8,2.6,8.6,3.6,11.5
			c0.9,2.2,1.3,3.5,1.1,3.9c-0.2,0.5-0.9,0.7-2.2,0.7c-1.4,0-2.2-0.2-2.2-0.5c-0.2-0.2-0.4-0.3-0.5-0.3c-0.2,0-0.8,0.2-1.9,0.5
			c-1.1,0.4-2.2,0.7-3.2,1.1c-1.1,0.4-2.5,1-4.3,1.9c0,0.4,0.5,0.7,1.6,0.9c1.1,0.3,1.9,0.3,2.4,0.1c0.7,0,1.1,0.1,1.1,0.3l0.3,0.5
			c-0.2,0-2.4,0.2-6.8,0.5c-4.3,0.4-9.6,0.7-15.7,1.1c-5.9,0.5-11.8,1-17.6,1.5c-5.8,0.5-9.6,0.8-11.6,0.9c-2,0.2-3.9,0.3-5.8,0.4
			c-1.9,0.1-3,0.1-3.4,0.1c-1.3,0.2-1.9-0.2-1.9-1.1c-0.2-0.5-0.3-4.2-0.4-11.1c-0.1-6.8-0.2-15.3-0.4-25.4
			c-0.2-10.1-0.4-21-0.5-32.6c-0.2-11.6-0.3-22.4-0.3-32.4s0-18.4,0-25.3c0-6.8,0-10.4,0-10.8c0.4-1.3,0.9-2.1,1.6-2.4
			c0.7-0.5,1.3-1.4,1.6-2.4c0.4-1.1,0.7-2.7,1.1-4.9c0.5-2.3,1.1-3.7,1.6-4.1c0.9-0.4,1.4-0.7,1.4-1.1c0-0.4,0.2-0.5,0.5-0.5
			c0.5,0,0.8-0.6,0.8-1.9c0.2-1.3-0.1-1.9-0.8-1.9c-0.5,0-1.4,0.4-2.4,1.2C954.8,397.9,953.8,398.8,952.9,399.7z M1007.2,448.6
			l4.9-2.2c1.4-0.5,3.3-1.4,5.7-2.4c2.3-1.1,4.5-2.1,6.5-3c4.9-2.3,9.7-4.8,14.6-7.4c4.9-2.6,9-5.1,12.4-7.4c1.4-0.9,2.9-1.9,4.5-3
			c1.5-1.1,2.9-2.1,4.2-3.1c1.3-1,2.3-1.8,3.2-2.6c0.9-0.7,1.4-1.2,1.4-1.4c0-0.2-0.5-0.5-1.4-0.9c-0.9-0.4-2-0.9-3.4-1.4
			c-1.4-0.4-2.8-0.9-4.5-1.4c-1.6-0.4-3.1-0.8-4.3-0.9c-5.4-1.3-11.2-2.1-17.4-2.6c-6.2-0.4-11.7-0.5-16.4-0.1
			c-1.6,0.2-3,0.4-4.2,0.5c-1.2,0.2-1.8,0.3-2,0.3c-0.2,0.2-0.5,1.7-0.9,4.6c-0.5,2.9-0.9,6.2-1.4,10c-0.5,3.8-0.8,7.7-1.1,11.8
			c-0.3,4.1-0.4,7.4-0.4,10.1V448.6z M1058.1,443.5c0.4,0,0.9-0.2,1.5-0.5c0.6-0.4,1.3-0.8,2-1.4c0.7-0.5,1.3-1,1.8-1.5
			c0.4-0.4,0.6-0.8,0.4-0.9c0-0.5-0.6-0.6-1.9-0.3h-1.6l0.5-0.5c0.2-0.2,0.3-0.4,0.4-0.5c0.1-0.2,0.2-0.4,0.4-0.5
			c0.9-0.9,1.4-2,1.5-3.4c0.1-1.4-0.1-2.3-0.7-2.8c-0.4-0.4-0.3-0.9,0.3-1.6c0.4-0.7,0.6-1.5,0.8-2.3c0.2-0.8,0.1-1.1-0.3-0.9
			c-0.5,0-1.3,0.6-2.2,1.9c-0.9,0.9-1.5,1.8-1.8,2.8c-0.3,1,0,1.4,0.7,1.2c0.7-0.2,1,0.1,0.8,0.8c-0.2,0.7-0.7,1.5-1.6,2.4
			c-1.1,1.4-1.6,2.3-1.6,2.7c0,0.4-0.8,1.2-2.4,2.4c-1.4,0.9-2.7,2.1-3.8,3.6c-1.1,1.5-1.8,3-2.2,4.5c-0.4,0.9-0.5,1.4-0.4,1.5
			c0.1,0.1,0.4,0,0.9-0.4c1.1-0.7,1.9-1.6,2.4-2.7c0.7-0.9,1.6-1.7,2.7-2.4C1055.9,443.8,1057,443.5,1058.1,443.5z"/>
		<path class="st4" d="M1134.3,561.8c-3,0-5-1.2-6.2-2.2c-1.6-1.4-2.7-3.3-3-5.5c-0.3-1.3-0.4-3.9-0.5-12.4
			c-0.1-6.8-0.2-15.3-0.4-25.4c-0.2-10.1-0.4-21-0.5-32.6c-0.2-11.5-0.3-22.5-0.3-32.6v-36.1c0-0.7,0.1-1.5,0.3-2.2
			c0.8-2.8,2.2-4.7,3.5-5.9c0,0,0,0,0,0c-3.6-2.6-4.1-6.8-4.4-11c-0.2-3.1-0.3-8.9-0.3-17.6v-14.1c0-4.4,3.6-8,8-8h5.7
			c2,0,5.4,0.1,10.3,0.3c4.7,0.2,9.9,0.4,15.8,0.5c5.9,0.2,12,0.4,18.4,0.5c6.5,0.2,12.6,0.4,18.1,0.7c5.5,0.3,10.3,0.4,14.3,0.5
			c5,0.1,7.1,0.3,8.3,0.4c7.9,0.4,16.2,1.7,24.8,3.7c8.6,2.1,16.7,4.8,24,8c8.8,3.8,16.8,8.5,23.8,13.8c7.2,5.5,12.8,11.4,16.5,17.4
			l1.7,2.8c1.2,1.9,1.4,4.2,0.8,6.4l-0.8,2.7c0,0.1-0.1,0.3-0.1,0.4c-0.9,2.4-1.8,4.5-2.8,6.3c-1.1,1.9-2.7,4.2-5.2,7.1
			c-7.6,9.7-18.2,19.5-31.4,29.3c-13.1,9.7-27.8,18.6-43.6,26.5c-2.2,1.1-4.8,2.3-7.7,3.7c-2.9,1.3-5.9,2.5-8.8,3.7
			c-2.8,1.1-5.5,2.1-8,3c-1.3,0.5-2.6,0.9-3.7,1.3c0.2,0.9,0.4,2.1,0.6,3.4c0.8,4.1,1.7,8.5,2.8,13.3c1,4.7,2.2,9.4,3.5,14
			c1.3,4.5,2.4,8.1,3.4,10.7c1.3,3.2,2.4,6.4,1.1,9.8c-0.7,1.7-2.9,5.5-9.1,5.7c-0.1,0.3-0.3,0.6-0.4,0.8c-1.4,2.3-3.8,3.7-6.5,3.8
			c-0.6,0-2.7,0.2-6.4,0.5c-4.3,0.4-9.7,0.7-15.9,1.1c-5.7,0.5-11.6,1-17.4,1.5c-5.7,0.4-9.6,0.8-11.5,0.9c-2.1,0.2-4.1,0.3-6.1,0.4
			c-1.5,0.1-2.6,0.1-3.2,0.1C1135,561.7,1134.6,561.8,1134.3,561.8z M1198.6,416.8c-0.4,2.5-0.7,5.3-1.1,8.4c-0.4,3.5-0.8,7.2-1,11
			c1.9-0.9,3.7-1.7,5.3-2.4c4.6-2.2,9.4-4.6,14.1-7.2c4.6-2.5,8.5-4.8,11.7-7c0.1-0.1,0.7-0.5,0.9-0.6c-4.6-1-9.5-1.7-14.7-2
			c-3.3-0.2-6.3-0.4-9.1-0.4c-2.1,0-4.1,0.1-5.9,0.2C1198.7,416.8,1198.7,416.8,1198.6,416.8z"/>
		<path class="st8" d="M1133.7,399.7c-0.7,0.7-1.4,1-1.9,0.8c-0.5-0.4-0.9-2-1.1-5c-0.2-3-0.3-8.7-0.3-17.2v-14.1h5.7
			c2,0,5.3,0.1,10,0.3c4.7,0.2,10,0.4,15.8,0.5c5.9,0.2,12,0.4,18.4,0.5c6.4,0.2,12.4,0.4,18,0.7c5.6,0.3,10.4,0.5,14.5,0.5
			c4.1,0.1,6.6,0.2,7.7,0.4c7.6,0.4,15.5,1.5,23.7,3.5c8.2,2,15.7,4.5,22.6,7.6c8.3,3.6,15.7,7.9,22.2,12.8c6.5,5,11.4,10,14.6,15.3
			l1.6,2.7l-0.8,2.7c-0.7,2-1.5,3.7-2.3,5.1c-0.8,1.4-2.3,3.4-4.5,5.9c-7.2,9.2-17.2,18.5-30,28c-12.8,9.5-26.9,18.1-42.4,25.8
			c-2.2,1.1-4.6,2.3-7.4,3.5c-2.8,1.3-5.6,2.4-8.4,3.5c-2.8,1.1-5.4,2.1-7.8,3c-2.4,0.9-4.5,1.6-6.1,2.2c-1.6,0.5-2.6,0.9-2.8,1.2
			c-0.3,0.3-0.4,0.9-0.4,1.8c0,1.6,0.4,4.5,1.2,8.7c0.8,4.1,1.8,8.6,2.8,13.5c1.1,4.9,2.3,9.7,3.6,14.5c1.4,4.8,2.6,8.6,3.6,11.5
			c0.9,2.2,1.3,3.5,1.1,3.9c-0.2,0.5-0.9,0.7-2.2,0.7c-1.4,0-2.2-0.2-2.2-0.5c-0.2-0.2-0.4-0.3-0.5-0.3c-0.2,0-0.8,0.2-1.9,0.5
			c-1.1,0.4-2.2,0.7-3.2,1.1c-1.1,0.4-2.5,1-4.3,1.9c0,0.4,0.5,0.7,1.6,0.9c1.1,0.3,1.9,0.3,2.4,0.1c0.7,0,1.1,0.1,1.1,0.3l0.3,0.5
			c-0.2,0-2.4,0.2-6.8,0.5c-4.3,0.4-9.6,0.7-15.7,1.1c-5.9,0.5-11.8,1-17.6,1.5c-5.8,0.5-9.6,0.8-11.6,0.9c-2,0.2-3.9,0.3-5.8,0.4
			c-1.9,0.1-3,0.1-3.4,0.1c-1.3,0.2-1.9-0.2-1.9-1.1c-0.2-0.5-0.3-4.2-0.4-11.1c-0.1-6.8-0.2-15.3-0.4-25.4
			c-0.2-10.1-0.4-21-0.5-32.6c-0.2-11.6-0.3-22.4-0.3-32.4s0-18.4,0-25.3c0-6.8,0-10.4,0-10.8c0.4-1.3,0.9-2.1,1.6-2.4
			c0.7-0.5,1.3-1.4,1.6-2.4c0.4-1.1,0.7-2.7,1.1-4.9c0.5-2.3,1.1-3.7,1.6-4.1c0.9-0.4,1.4-0.7,1.4-1.1c0-0.4,0.2-0.5,0.5-0.5
			c0.5,0,0.8-0.6,0.8-1.9c0.2-1.3-0.1-1.9-0.8-1.9c-0.5,0-1.4,0.4-2.4,1.2C1135.6,397.9,1134.6,398.8,1133.7,399.7z M1188.1,448.6
			l4.9-2.2c1.4-0.5,3.3-1.4,5.7-2.4c2.3-1.1,4.5-2.1,6.5-3c4.9-2.3,9.7-4.8,14.6-7.4c4.9-2.6,9-5.1,12.4-7.4c1.4-0.9,2.9-1.9,4.5-3
			c1.5-1.1,2.9-2.1,4.2-3.1c1.3-1,2.3-1.8,3.2-2.6c0.9-0.7,1.4-1.2,1.4-1.4c0-0.2-0.5-0.5-1.4-0.9c-0.9-0.4-2-0.9-3.4-1.4
			c-1.4-0.4-2.8-0.9-4.5-1.4c-1.6-0.4-3.1-0.8-4.3-0.9c-5.4-1.3-11.2-2.1-17.4-2.6c-6.2-0.4-11.7-0.5-16.4-0.1
			c-1.6,0.2-3,0.4-4.2,0.5c-1.2,0.2-1.8,0.3-2,0.3c-0.2,0.2-0.5,1.7-0.9,4.6c-0.5,2.9-0.9,6.2-1.4,10c-0.5,3.8-0.8,7.7-1.1,11.8
			c-0.3,4.1-0.4,7.4-0.4,10.1V448.6z M1238.9,443.5c0.4,0,0.9-0.2,1.5-0.5c0.6-0.4,1.3-0.8,2-1.4c0.7-0.5,1.3-1,1.8-1.5
			c0.4-0.4,0.6-0.8,0.4-0.9c0-0.5-0.6-0.6-1.9-0.3h-1.6l0.5-0.5c0.2-0.2,0.3-0.4,0.4-0.5c0.1-0.2,0.2-0.4,0.4-0.5
			c0.9-0.9,1.4-2,1.5-3.4c0.1-1.4-0.1-2.3-0.7-2.8c-0.4-0.4-0.3-0.9,0.3-1.6c0.4-0.7,0.6-1.5,0.8-2.3c0.2-0.8,0.1-1.1-0.3-0.9
			c-0.5,0-1.3,0.6-2.2,1.9c-0.9,0.9-1.5,1.8-1.8,2.8c-0.3,1,0,1.4,0.7,1.2c0.7-0.2,1,0.1,0.8,0.8c-0.2,0.7-0.7,1.5-1.6,2.4
			c-1.1,1.4-1.6,2.3-1.6,2.7c0,0.4-0.8,1.2-2.4,2.4c-1.4,0.9-2.7,2.1-3.8,3.6c-1.1,1.5-1.8,3-2.2,4.5c-0.4,0.9-0.5,1.4-0.4,1.5
			c0.1,0.1,0.4,0,0.9-0.4c1.1-0.7,1.9-1.6,2.4-2.7c0.7-0.9,1.6-1.7,2.7-2.4C1236.7,443.8,1237.8,443.5,1238.9,443.5z"/>
		<path class="st4" d="M1366.3,561.4c-1.3,0-2.4-0.1-3.6-0.5c-3.4-1.1-5.8-4.3-5.8-8c0-0.2-0.1-1.3-0.1-3.2
			c-0.1-2.1-0.2-5.1-0.4-8.7c-0.2-3.7-0.3-8.1-0.4-13.1c-0.1-4.9-0.1-10.1-0.1-15.6l-0.5-37.9c0,0-1-2.2-1-2.2
			c-0.6-1.5-1.6-3-2.8-4.6c-1.6-2-4.4-5.2-8.4-9.6c-1.5-1.7-3.8-4.2-6.9-7.6c-3.1-3.4-6.1-6.6-9-9.7c-2.9-3.1-5.7-6.1-8.2-8.9
			c-3-3.3-4.3-4.7-4.9-5.3c-1.5-1.5-3.4-3.5-5.7-6c-2.3-2.4-4.4-4.8-6.5-7.1c-2.1-2.3-3.9-4.3-5.5-6c-2.6-2.9-4.3-4.8-4.3-8.1
			c0-2.8,1.4-5.3,3.7-6.8c0.3-0.3,0.6-0.5,0.9-0.7c0.8-0.5,1.8-1.1,3.4-1.9c1.3-0.8,3.4-2.1,6.4-3.8c3.2-1.8,6.6-3.7,10.3-5.7
			c5.1-3,9.3-5.4,12.4-7.1c3.1-1.8,5.6-3.1,7.3-4c1.5-0.8,2.5-1.3,3.1-1.7c0.9-0.6,1.9-1.1,2.8-1.6c0.2-0.1,0.8-0.4,2.2-1.3
			c1.4-0.9,3-1.8,4.6-2.6c1.1-0.6,2.1-1.2,2.9-1.7c1.5-0.9,3.2-1.7,5.4-1.7c1.6,0,3.2,0.5,4.5,1.4c1.8,1.1,3.6,3.3,3.8,7.3l1.7,0.7
			c0.3,0.1,0.6,0.3,0.8,0.4c2.6,1.5,4.7,3.7,6.1,6.6c0.1,0.2,0.2,0.3,0.2,0.5c2.2,5.3,4.9,10.8,8.1,16.5c2.8,5,5.9,10,9.2,14.7
			c0,0,0,0,0,0c2.4-2.5,4.9-5.3,7.7-8.3c2.8-2.9,5.4-5.8,8-8.7c2.6-2.9,4.6-5.1,6-6.7c2.5-2.6,4.9-5.3,7.6-8.1
			c2.6-2.8,5.1-5.5,7.5-7.9c2.4-2.5,4.5-4.6,6.2-6.2c2.8-2.6,4.8-4.5,8.2-4.5c2.9,0,4.3,1,9.4,4.8c3,2.2,6.3,4.7,10.1,7.6
			c3.6,2.8,7,5.4,10.4,7.9c3.5,2.6,5.8,4.3,7,5.3c3.8,2.9,6.3,4.8,7.4,5.8c0.5,0.4,1.3,1.1,2.2,2.2c1.9,0.9,4.2,2.5,8.1,5.4
			c0.1,0.1,0.2,0.1,0.2,0.2c2.8,2.3,3.6,3,4.1,3.5c2.2,2.2,3,5.2,2.3,8c-0.6,2.7-2.6,4.8-5.2,5.9c-0.2,0.1-0.8,0.5-1.9,1.2
			c-1.8,1.2-3.7,2.5-5.8,3.9c-2.1,1.3-4,2.6-5.9,3.9c-1.6,1.1-2.9,1.9-3.9,2.5c-0.3,0.3-0.7,0.6-1.3,1c-0.9,0.7-1.8,1.3-2.9,1.9
			c-6.6,4.7-13.3,9.8-19.9,15.1c-6.6,5.3-12.8,10.9-18.5,16.6c-0.1,0.1-0.3,0.2-0.4,0.4c-2.8,2.4-4.6,4.1-5.6,5
			c-0.8,0.8-1.5,1.6-2.1,2.5c-0.4,0.5-1.3,2-1.8,6.1c-0.5,3.9-0.6,8.6-0.4,14.1c0.3,5.6,0.9,11.8,2.1,18.4
			c1.1,6.7,2.7,13.7,4.6,20.8l1.6,6.3c0.4,1.6,0.3,3.3-0.2,4.8l-0.8,2.2c-0.6,1.5-1.3,2.8-2.1,3.9c0.1,0.5,0.2,0.9,0.2,1.4
			c0.2,1.3,0.1,2.5-0.1,3.7v0.1c0,4.7-3.1,7.5-9.1,8.5c-1.9,0.3-4.8,0.6-9,1c-3.9,0.4-9.8,0.8-18,1.4c-8.1,0.7-14.7,1.2-19.3,1.5
			c-4.6,0.3-7.8,0.5-9.9,0.5C1367.9,561.4,1367,561.4,1366.3,561.4z"/>
		<path class="st9" d="M1486.5,399.7c-0.5-0.2-0.9-0.6-0.9-1.2c-0.1-0.6,0-1.1,0.4-1.5c0.2-0.4,2.5,1.2,7,4.6c2,1.6,3.2,2.6,3.5,3
			c0.4,0.4,0.3,0.6-0.3,0.8c-0.5,0.2-1.7,0.9-3.4,2c-1.7,1.2-3.6,2.4-5.7,3.8c-2.1,1.4-4.1,2.7-5.9,3.9c-1.9,1.3-3.3,2.2-4.2,2.7
			c-0.2,0.2-0.6,0.5-1.4,1.1c-0.7,0.5-1.5,1.1-2.4,1.6c-6.9,4.9-13.7,10-20.5,15.5c-6.9,5.5-13.2,11.2-19.2,17.2
			c-2.9,2.5-4.9,4.3-5.9,5.4c-1.1,1.1-2.1,2.3-3,3.5c-1.6,2.2-2.7,5.4-3.2,9.7c-0.5,4.3-0.7,9.5-0.4,15.4c0.3,5.9,1,12.4,2.2,19.3
			c1.2,6.9,2.7,14.1,4.7,21.5l1.6,6.2l-0.8,2.2c-0.7,1.8-1.4,2.7-1.9,2.7c-0.4,0.4-0.5,0.8-0.5,1.4c0,0.7-0.2,1.1-0.5,1.1
			c-0.4,0.4-0.3,1.1,0.3,2.2c0.2,0.5,0.3,1.2,0.4,1.9c0.1,0.7,0,1.3-0.1,1.6c0,0.5,0,0.9,0,1.1c0,0.2-0.8,0.4-2.4,0.7
			c-1.6,0.3-4.4,0.6-8.4,0.9c-4,0.4-9.9,0.8-17.8,1.4c-8.3,0.7-14.7,1.2-19.2,1.5c-4.5,0.3-7.8,0.5-9.7,0.5c-2,0.1-3.1,0.1-3.4,0
			c-0.3-0.1-0.4-0.2-0.4-0.4c0-0.2,0-1.4-0.1-3.5c-0.1-2.2-0.2-5.1-0.4-8.8c-0.2-3.7-0.3-8-0.4-12.8c-0.1-4.9-0.1-10-0.1-15.4
			l-0.5-39.7l-1.6-3.5c-0.9-2.2-2.2-4.3-3.9-6.5c-1.7-2.2-4.6-5.5-8.8-10c-1.4-1.6-3.7-4.1-6.9-7.6c-3.2-3.4-6.2-6.7-9.1-9.7
			c-2.9-3.1-5.6-6-8.1-8.8c-2.5-2.8-4.2-4.6-5.1-5.5c-1.4-1.4-3.3-3.4-5.5-5.8c-2.3-2.4-4.4-4.8-6.5-7c-2.1-2.3-3.9-4.2-5.4-5.9
			c-1.5-1.7-2.3-2.7-2.3-2.8c0.4-0.2,0.7-0.4,1.1-0.8c0.5-0.4,1.5-0.9,3-1.6c1.1-0.7,3.2-2,6.4-3.8c3.2-1.8,6.5-3.7,10.1-5.7
			c5.2-3.1,9.4-5.4,12.4-7.2c3.1-1.7,5.4-3,7.2-3.9c1.7-0.9,2.9-1.6,3.6-2c0.7-0.4,1.4-0.9,2.2-1.2c0.7-0.4,1.7-0.9,3-1.8
			c1.3-0.8,2.6-1.6,4.1-2.3c1.3-0.7,2.3-1.4,3.2-1.9c0.9-0.5,1.4-0.7,1.4-0.5c0.2,0,0.3,0.5,0.3,1.5c0,1,0,2.1,0,3.4
			c0,3.4,0.2,5.1,0.5,5.1c0.4,0.2,1.1-0.1,2.2-0.8l1.9-1.4l1.9,0.8c1.3,0.7,2.3,1.8,3,3.2c2.3,5.6,5.2,11.4,8.5,17.3
			c3.3,5.9,7,11.7,10.9,17.3c1.1,1.4,2,2.8,2.8,3.9c0.8,1.2,1.3,1.8,1.5,1.8c0,0.2,0.5-0.3,1.6-1.4c1.1-1.1,2.8-2.9,5.1-5.4
			c2.3-2.5,4.9-5.3,7.7-8.2c2.8-3,5.5-5.9,8.1-8.8c2.6-2.9,4.6-5.1,6.1-6.8c2.3-2.5,4.8-5.2,7.4-8c2.6-2.8,5.1-5.4,7.4-7.8
			c2.3-2.4,4.3-4.4,5.9-5.9c1.6-1.5,2.5-2.3,2.7-2.3c0.2,0,1.8,1.1,4.7,3.2c3,2.2,6.3,4.6,9.9,7.4c3.6,2.8,7.1,5.5,10.5,8
			c3.4,2.5,5.7,4.2,6.8,5.1c3.8,2.9,6.2,4.8,7.3,5.7c1.1,0.9,1.6,1.6,1.6,2.2c0,1.1-0.3,1.6-0.8,1.6c-0.5,0.2-0.8,0.7-0.8,1.6
			c0,0.5-0.5,1.5-1.6,3c-0.9,0.7-1.6,1.5-2,2.3c-0.5,0.8-0.5,1.4-0.1,1.8c0.7,0,1.9-0.4,3.5-1.1c2.2-0.7,3.2-1.5,3.2-2.4
			c0.4-0.5,0.8-0.8,1.4-0.8c0.7,0,1-0.3,0.9-0.8C1487.6,400.5,1487.2,400,1486.5,399.7z M1389.2,455.6c0.9-0.5,1.2-1.2,0.8-2
			c-0.4-0.8-1.1-1.2-2.2-1.2c-0.9,0-1.5-0.2-1.9-0.5c0-0.2-0.3-0.3-0.8-0.3c-0.4,0-0.4,0.5-0.1,1.6c0.3,1.1,0.7,1.8,1.2,2.2
			c0.4,0.4,0.5,0.7,0.4,0.9c-0.1,0.3-0.3,1-0.7,2.3c-0.9,1.8-1.3,3-1.1,3.5c0.2,0.5,0.7,0.1,1.6-1.4c0.5-0.5,1.2-0.8,1.9-0.8
			c0.4,0,0.6-0.1,0.8-0.3c0.2-0.2,0.1-0.7-0.3-1.6C1388.7,456.8,1388.8,456,1389.2,455.6z"/>
	</g>
	<g>
		<path class="st4" d="M515.9,930.6c-8,0-8.3-8-8.4-12.3c-0.1-3.1-0.1-6.9-0.1-11.3c0-2.1,0-5.6-0.1-10.4
			c-0.1-4.9-0.2-10.5-0.3-16.8c-0.1-6.3-0.2-13.2-0.3-20.6c-0.1-7.4-0.2-14.8-0.4-22.3c0-13.1,0-23.9-0.1-32.5
			c-0.1-8.6-0.2-16.2-0.3-22.7c-0.1-6.4-0.2-12.3-0.4-17.7c-0.2-5.4-0.4-11.5-0.5-18.2l-0.3-12.2c0-2.1,0.8-4.2,2.3-5.8
			c1.5-1.5,3.6-2.4,5.7-2.4h5.9c1.3,0,3.8,0,7.6,0.1c3.7,0.1,8,0.2,12.8,0.4c4.8,0.2,9.8,0.4,15,0.5c5.2,0.2,10.1,0.4,14.5,0.5
			c4.5,0.2,9.6,0.5,15.4,0.8c1.1,0.1,2.1,0.4,3.1,0.8c2.3,1.2,3.9,3.3,4.4,5.8c0.1,0.7,0.3,1.7,0.1,2.9c1.9,2.4,2.3,5.7,0.9,8.5
			l-1.1,2.2c-4.4,8.1-7.4,16.9-9,26.3c-1.8,10.1-3,20-3.7,29.4c-0.2,2.6-0.3,4.8-0.4,6.7c-0.1,1.8-0.1,3.4-0.1,4.9v5
			c0,1.5,0.1,3.2,0.2,5.1c0.3,2.9,0.6,6,0.8,8.8c0.2,3.4,0.4,4.3,0.4,4.4c0.2,0.8,0.4,2.2,0.8,6c0.3,2.6,0.6,5.2,0.9,8.1
			c0.5,5.6,1.2,10.7,2,15.4c0.3,1.7,0.5,3,0.7,4.1l3.5-0.2c11-0.5,21.9-1.8,32.8-3.7c10.8-1.9,20.5-4.3,28.9-7.2
			c6.1-2,8.3-2.4,10-2.4c3.1,0,5.1,1.5,6,2.4c2.5,2.5,2.9,5.8,2.9,8.7c0.2,1,0.4,2.8,0.9,6.5c0.4,3.6,0.9,7.5,1.5,11.6
			c0.4,3.3,0.7,5.8,0.9,7.6c0.3,2.3,0.5,4.1,0.5,5.6v2.3c0,2.6-0.9,4.9-2.6,6.6c-0.4,0.4-0.8,0.7-1.2,1c-0.5,0.3-0.9,0.6-1.4,0.8
			c-0.3,0.7-0.6,1.4-1.1,2.4c-0.1,0.3-0.3,0.6-0.5,0.9l-1.1,1.6c-1.4,2-3.6,3.3-6,3.5l-32,2.4c-9.5,0.7-19.2,1.4-29.2,2.2
			c-10,0.7-19.8,1.4-29.3,2.2c-9.6,0.7-18.1,1.4-25.6,1.9c-7.5,0.5-13.5,1-18.2,1.3C516.5,930.6,516.3,930.6,515.9,930.6z"/>
		<path class="st10" d="M588.1,879.9c11.2-0.5,22.4-1.8,33.7-3.8c11.3-2,21.3-4.5,30.1-7.6c4.9-1.6,7.5-2.3,7.8-1.9
			c0.4,0.4,0.5,1.6,0.5,3.8c0.2,0.9,0.5,3.2,0.9,6.8c0.4,3.6,0.9,7.5,1.5,11.6c0.4,3.2,0.7,5.8,0.9,7.7c0.3,1.9,0.4,3.4,0.4,4.5
			c0,1.1,0,1.8,0,2.3c0,0.5-0.1,0.8-0.3,0.9c-0.5,0.4-0.9,0.3-1.1-0.3l-0.8-1.6c-0.4-0.2-0.7-0.5-0.9-0.9c-0.3-0.4-0.6-0.9-0.9-1.2
			c-0.5-0.7-1.1-1.1-1.6-1.2c-0.5-0.1-0.7,0.2-0.5,0.9c0.2,0.2,0.3,0.6,0.3,1.2c0,0.6,0,1.4,0,2.3c0,2,0.3,3.4,0.8,4.3
			c0.4,0.5,0.5,0.9,0.4,1.2c-0.1,0.3-0.3,0.8-0.7,1.5l-1.1,1.6l-7,0.5c-7.2,0.5-15.5,1.2-25,1.9c-9.5,0.7-19.2,1.4-29.2,2.2
			c-10,0.7-19.8,1.4-29.3,2.2c-9.6,0.7-18.1,1.4-25.5,1.9c-7.5,0.5-13.6,1-18.2,1.4c-4.7,0.4-7.1,0.5-7.3,0.5
			c-0.2,0-0.3-1.5-0.4-4.6c-0.1-3.1-0.1-6.8-0.1-11.1c0-2.2,0-5.7-0.1-10.5c-0.1-4.9-0.2-10.4-0.3-16.8c-0.1-6.3-0.2-13.2-0.3-20.5
			c-0.1-7.4-0.2-14.9-0.4-22.4c0-13,0-23.8-0.1-32.4c-0.1-8.7-0.2-16.2-0.3-22.7c-0.1-6.5-0.2-12.4-0.4-17.8
			c-0.2-5.4-0.4-11.4-0.5-18.1l-0.3-12.2h5.9c1.3,0,3.7,0,7.4,0.1c3.7,0.1,7.9,0.2,12.7,0.4c4.8,0.2,9.8,0.4,15,0.5
			c5.2,0.2,10,0.4,14.5,0.5c4.4,0.2,9.5,0.5,15.3,0.8c0.4,0.2,0.3,0.5-0.1,1.1c-0.5,0.5-0.9,1-1.5,1.4c-0.9,0.5-1.4,1-1.4,1.4
			c0.2,0.5,0,1.3-0.5,2.2c-0.4,0.7-0.7,1.8-0.9,3.4c-0.3,1.5-0.2,2.3,0.1,2.3c0.2,0,0.4-0.2,0.8-0.7c0.4-0.4,0.7-0.9,1.1-1.2
			c0.5-1.3,1.4-2.1,2.7-2.4l1.6-0.8l-1.1,2.2c-4.7,8.6-7.9,18.2-9.7,28.5c-1.8,10.4-3.1,20.4-3.8,30.1c-0.2,2.7-0.3,5-0.4,6.9
			c-0.1,1.9-0.1,3.6-0.1,5.3c0,1.6,0,3.3,0,5c0,1.7,0.1,3.6,0.3,5.8c0.4,3.1,0.6,5.9,0.8,8.6c0.2,2.7,0.4,4.5,0.5,5.4
			c0.2,0.9,0.4,2.7,0.7,5.3c0.3,2.6,0.6,5.4,0.9,8.2c0.5,5.6,1.2,10.8,2,15.7c0.8,4.9,1.4,8,1.8,9.5c0.2,0.5,0.4,0.9,0.5,1.1
			c0.2,0.2,0.6,0.3,1.2,0.4c0.6,0.1,1.6,0.1,3,0C583.3,880.2,585.4,880.1,588.1,879.9z M545.1,832c2.3,0,2.8-0.8,1.4-2.4
			c-0.9-0.7-1.4-1.2-1.4-1.5c0-0.3,0.2-0.6,0.5-0.9c0.4-0.4,0.1-1.4-0.8-3c-0.9-1.6-1.7-2.6-2.4-3c-0.7-0.4-1.4-0.9-2.2-1.6
			c-0.4-1.1-0.7-1.6-1.1-1.6c-0.4,0-0.3,1.1,0.1,3.2c0.4,2.2,0.9,3.5,1.5,4.1c0.4,0.4,0.6,0.9,0.7,1.5c0.1,0.6,0,1.8-0.1,3.4
			c-0.2,2.7-0.1,4.1,0.3,4.1c0.2,0,0.6-0.4,1.4-1.1C543.1,832.2,543.8,831.9,545.1,832z"/>
		<path class="st4" d="M1186.3,930.8c-2.1,0-4.2-0.9-5.7-2.4c-1.5-1.5-2.3-3.6-2.3-5.7l0.3-12.4c0.2-7,0.3-13.3,0.4-18.8l0.3-17.8
			c0.1-6.4,0.2-13.8,0.3-22.3c0.1-8.5,0.2-19.3,0.4-32.5c0-7.5,0-15,0.1-22.6c0.1-7.5,0.2-14.5,0.4-20.9c0.2-6.4,0.3-11.9,0.4-16.6
			c0.1-4.6,0.1-8,0.1-10.1l0.3-15.5c0-2.2,1-4.3,2.6-5.8c1.5-1.3,3.4-2,5.3-2c0.2,0,0.5,0,0.7,0l2.6,0.2c2.4,0,6.5,0.2,12.8,0.7
			c6.2,0.5,12.7,1,19.4,1.5c8,0.7,16.6,1.5,25.8,2.4c2.7,0.3,5,1.9,6.2,4.1c1.1-0.2,2.2-0.4,3.5-0.4c3.2,0,6,1.6,7.5,4.4
			c1.5,2.7,1.3,5.9-0.5,8.7c-0.2,0.3-0.8,1.8-2.2,6.6c-1.3,4.5-2.6,9.6-4,15.1c-0.9,3.8-1.8,7.5-2.5,11.1c3.8-2.6,8.1-5.7,12.9-9.1
			l17.4-12.3c6.3-4.3,12.1-8.4,17.4-12.1c5.3-3.8,10-7.1,14.1-10.2c0.1-0.1,0.2-0.2,0.3-0.2c4.7-3.2,9.1-6.2,13-9
			c1.4-1,3-1.5,4.7-1.5c3.8,0,5.9,2.3,8.5,5.2c1.7,1.9,3.6,4.3,5.8,7.1c2,2.7,4.3,5.5,6.7,8.5c2.5,3.1,4.7,6,6.8,8.8
			c2.1,2.7,3.8,5,5.2,6.8c2.3,3,3.6,4.8,3.6,7.8c0,2.1-0.7,5.9-5.5,8.8c-2.7,2-7,5.1-12.7,9.3c-6,4.3-12.6,9.1-19.9,14.4
			c-7.3,5.2-14.7,10.5-22.3,16c-7.6,5.4-14.4,10.2-20.4,14.4l-5.9,4.2c7,7.2,14.6,14,22.7,20.3c8.6,6.7,17.1,12.4,25.2,16.9
			c1.8,1,3.2,1.8,4.5,2.6c1.5,0.9,5.8,3.6,5.3,8.4c0.5,0.7,0.9,1.6,1.3,2.4c0.4,0.9,0.6,2,0.6,3c0,1-0.1,2-0.4,3
			c-0.7,2.7-2.4,4.4-3.8,5.7c-0.9,0.8-2.1,1.8-3.7,3.2c-1.5,1.3-3.8,3.1-6.7,5.4c-9.1,7.5-15.9,13-20.1,16.3
			c-6.8,5.3-8.5,6.6-11.7,6.6c-3.4,0-5.6-2-7.1-3.4c-1-0.9-2.4-2.2-3.9-3.8c-0.7-0.7-2.3-2.2-4.8-4.6c-2.6-2.5-5.6-5.5-9-9
			c-3.4-3.5-6.9-7-10.5-10.5c-2.6-2.6-5.2-5.1-7.6-7.5c1,3.2,2,6.5,3.2,9.7c2.7,7.2,4.6,10.5,5.8,12.1c4.7,6.6,2.2,10.7,0.3,12.6
			c-1.4,1.4-3.2,2.2-5.2,2.3c-6.4,0.4-12,0.6-16.8,0.8c-4.7,0.2-9.9,0.4-15.6,0.7c-5.7,0.3-11.2,0.5-16.5,0.7
			c-5.3,0.2-9.9,0.3-14,0.4c-4.1,0.1-7,0.1-8.7,0.1H1186.3z"/>
		<path class="st11" d="M1262.5,920.2c-6.3,0.4-11.9,0.6-16.6,0.8c-4.8,0.2-10,0.4-15.7,0.7c-5.7,0.3-11.1,0.5-16.4,0.7
			c-5.2,0.2-9.9,0.3-13.9,0.4c-4.1,0.1-6.9,0.1-8.5,0.1h-5.1l0.3-12.4c0.2-7,0.3-13.3,0.4-18.8c0.1-5.5,0.2-11.4,0.3-17.8
			c0.1-6.4,0.2-13.8,0.3-22.3c0.1-8.5,0.2-19.3,0.4-32.4c0-7.6,0-15.1,0.1-22.6c0.1-7.5,0.2-14.4,0.4-20.8
			c0.2-6.4,0.3-11.9,0.4-16.6c0.1-4.7,0.1-8.1,0.1-10.3l0.3-15.4l3,0.3c2.2,0,6.4,0.2,12.6,0.7c6.2,0.5,12.7,0.9,19.3,1.5
			c7.9,0.7,16.5,1.5,25.7,2.4v2.7c-0.4,7.2-0.3,10.9,0.3,11.1c0.2,0.2,0.5,0,0.9-0.5c0.4-0.5,0.9-1.3,1.5-2.2c1.1-2,2.1-3.2,3-3.5
			c0.7-0.4,1.1-1,1.1-1.9c0.2-1.3,1.4-1.9,3.8-1.9c0.5,0,0.6,0.3,0.3,0.8c-0.7,1.1-1.8,4-3.1,8.7c-1.4,4.7-2.7,9.8-4.1,15.4
			c-1.4,5.6-2.6,11-3.6,16.2c-1.1,5.2-1.7,8.8-1.9,10.8c-0.2,1.4-0.3,2.3-0.3,2.7c0,0.4,0.2,0.5,0.5,0.3c4.9-3.4,9.4-6.6,13.5-9.5
			c4.1-2.9,9-6.3,14.5-10.1c5.5-3.9,11.3-8,17.4-12.3c6.3-4.3,12.1-8.4,17.4-12.2c5.3-3.8,10-7.2,14.2-10.3
			c4.9-3.2,9.3-6.3,13.2-9.2c0.2,0,1,0.9,2.6,2.6c1.5,1.7,3.3,3.9,5.4,6.6c2.1,2.7,4.3,5.6,6.8,8.6c2.4,3.1,4.7,5.9,6.8,8.7
			c2.1,2.7,3.8,5,5.1,6.8c1.4,1.8,2,2.8,2,3c0,0.7-0.6,1.4-1.9,2.2c-2.7,2-7,5.1-13,9.5c-5.9,4.3-12.6,9.1-19.9,14.3
			c-7.3,5.2-14.7,10.5-22.3,15.9c-7.6,5.4-14.3,10.2-20.3,14.3c-3.1,2.2-5.8,4.1-8.2,5.8c-2.4,1.7-3.8,2.7-4.2,3.1
			c-0.5,0.4-0.6,0.8-0.3,1.2c0.4,0.5,1.7,1.9,4.1,4.5c7.7,8.1,16.1,15.7,25.1,22.7c9,7,17.7,12.9,26.2,17.6c1.6,0.9,3,1.7,4.2,2.4
			c1.2,0.7,1.7,1.1,1.5,1.1c-0.4,0.2-1.1,0.2-2.2,0.1c-1.1-0.1-2.1-0.3-3-0.7c-1.1-0.4-1.8-0.4-2.2-0.1c-0.4,0.3-0.1,0.8,0.8,1.5
			c1.1,0.4,1.6,0.8,1.6,1.4c0,0.4,0.2,0.5,0.5,0.5h1.6c2.3,0.4,3.9,1.4,4.6,3.2c0,0.4,0,0.7-0.1,1.1c-0.1,0.4-0.5,0.9-1.4,1.6
			c-0.8,0.7-2,1.7-3.5,3c-1.5,1.3-3.7,3.1-6.6,5.4c-9.2,7.6-15.9,13-20,16.2c-4.1,3.2-6.4,4.9-6.8,4.9c-0.2,0-0.8-0.4-1.8-1.4
			c-1-0.9-2.2-2.1-3.6-3.5c-0.7-0.7-2.3-2.3-4.9-4.7c-2.5-2.4-5.5-5.4-8.8-8.8c-3.3-3.4-6.9-7-10.7-10.7c-3.8-3.7-7.4-7.3-10.8-10.7
			c-3.4-3.4-6.4-6.4-8.8-8.8c-2.4-2.4-4-4-4.7-4.7l-1.9-1.9v1.4c0,0.9,0.3,3,0.9,6.4c0.6,3.3,1.3,6.5,2,9.6c1.4,6.5,3.4,13,5.8,19.5
			c2.4,6.5,4.7,11.2,6.9,14.1C1262.3,919.3,1262.7,920,1262.5,920.2z M1200.9,843.4c-0.4,0.2-0.6,0.5-0.7,0.8
			c-0.1,0.4,0,1.2,0.4,2.4c1.1,4.7,1.8,7,2.2,7c0.5,0,0.9-1.4,1.1-4.3c0.4-2,0.6-3.2,0.8-3.6c0.2-0.4,0.8-1.1,1.9-2
			c1.1-0.7,1.7-1.2,1.9-1.5c0.2-0.3,0.2-0.9,0-1.8c-0.2-0.4-0.3-0.9-0.4-1.8c-0.1-0.8-0.2-1.5-0.4-2c-0.2-1.3-0.5-2-0.8-2.3
			c-0.4-0.3-0.6,0-0.8,0.9c-0.4,2.5-1.3,4.2-2.7,5.1c-1.1,0.5-1.6,1.1-1.6,1.6C1201.9,842.2,1201.6,842.7,1200.9,843.4z"/>
		<path class="st4" d="M1419.7,930.6c-2,0-3.6-0.1-5-0.4c-12.6-1.6-24.1-5.3-34.3-10.9c-10.5-5.8-19-13.3-25.5-22.4
			c-0.1-0.1-0.2-0.3-0.3-0.4c-1.4-2.2-1.9-3.1-2.1-3.7c-1.2-2.4-1.3-5.1-0.4-7.5c-0.4-1.1-0.6-2.2-0.6-3.4c0-3.8,1.9-6.9,5-8.5
			c0.4-0.2,1.5-0.7,3.3-1.5c0.1,0,0.2-0.1,0.3-0.1c0.9-0.4,3.5-1.3,7.8-2.9c4.1-1.5,8.6-3.2,13.6-5.2c4.9-2,9.3-3.7,13-5
			c4.2-1.5,6-1.9,7.3-2.1l-15.2-10.3c-5.3-3.6-10-6.7-14-9.4c-4.9-3.3-6.6-4.5-7.5-5.3l-2.6-1.9c-2.1-1.5-3.3-3.9-3.3-6.4v-6.8
			c0.2-11.6,2.5-22.3,6.8-32c4.2-9.5,9.9-18.2,17-25.8c7-7.6,15.2-14.1,24.3-19.4c9-5.2,18.5-9.4,28.4-12.5c1.4-0.5,2.9-0.8,4.3-1
			l2.4-0.3c0.7-0.1,1.4-0.1,2.2-0.1c0.7,0,1.4,0,2.1,0.1c0.5,0,1.5,0.1,3.5,0.1c6.8,0.2,14.1,0.9,21.8,2.1
			c7.7,1.2,15.2,2.9,22.3,4.9c2,0.6,4.2,1.3,6.6,2.2c2.4,0.9,4.7,1.8,7,2.7c2.2,0.9,4.2,1.8,5.8,2.5c2.2,1,3.8,1.9,5.1,2.8
			c0.1,0.1,0.1,0.1,0.2,0.2c1.7,1.3,2.6,2.2,3.2,3.3c1.8,2.7,1.9,5.9,0.5,8.6c-0.2,2.6-1.4,4.8-3.2,6.4c0.2,2.8-0.2,5.4-1.4,7.7
			c-0.1,0.2-0.2,0.4-0.3,0.5c-0.2,0.3-0.9,1.6-3.4,6.4c-1.9,3.8-4,7.6-6.2,11.7c-2.1,3.9-4.1,7.5-5.8,10.7c-1.4,2.7-1.9,3.7-2.1,4.1
			c-0.4,1.1-1,2.1-1.9,2.9c-1.5,1.5-3.5,2.3-5.6,2.3c-2.9,0-5.3-1.4-8.8-4c-3.2-2.4-7.2-4.9-11.9-7.3c-4.7-2.5-9.7-4.6-14.6-6.5
			l-2.4-0.8c-4.6,2-9.1,5.3-13.4,9.6c-2.5,2.6-4.6,5.2-6.3,7.7c3,1.2,6.1,2.7,9.1,4.5c5.7,3.2,11.3,6.9,16.7,11
			c5.4,4.1,10.5,8.4,15.3,13.1c4.8,4.6,9,9.2,12.4,13.5l5.3,6.1c1.6,1.8,2.3,4.3,1.8,6.7l-0.5,2.7c-0.3,2.5-0.9,5.4-2.1,8.9
			c-1.1,3.4-2.3,6.6-3.7,9.6c-2.5,5.5-5.7,10.8-9.4,15.9c-3.7,5.1-7.8,9.7-12.1,13.7c-4.3,4-8.8,7.5-13.4,10.5
			c-4.8,3.1-9.8,5.3-14.8,6.6c-2,0.7-4.1,1.1-6,1.3c-1.5,0.1-4,0.2-8,0.2H1419.7z M1410.8,862.8c0.2,0.5,0.4,1,0.5,1.6
			c0.1,0.3,0.1,0.5,0.2,0.8c0,0,0.3,1.4,2.6,4.7c1.6,2.3,3.3,4.3,5,5.9c0.1-0.1,0.2-0.2,0.4-0.4c1.1-1.2,2.2-2.4,3.2-3.6
			c0.2-0.2,0.3-0.4,0.5-0.6c-1.5-1.1-3.6-2.5-6.2-4.3C1415.1,865.8,1413.1,864.4,1410.8,862.8z"/>
		<path class="st12" d="M1359.8,888c0.4-0.4,0.8-0.2,1.4,0.5c0.5,0.7,1.4,1.5,2.6,2.4c1.2,0.9,1.9,1.2,2.3,0.8c0-0.2,0-0.4,0-0.8
			c0-0.4-0.2-0.9-0.5-1.6c-0.7-1.4-0.9-2.3-0.5-2.7c0-0.5-0.4-0.8-1.1-0.8c-1.1-0.4-1.6-0.7-1.6-1.1c0-0.2-0.5-0.4-1.4-0.8
			c-0.9-0.4-1.4-1-1.4-1.9c0-0.7,0.2-1.2,0.5-1.4c0.4-0.2,1.4-0.6,3-1.4c0.9-0.4,3.4-1.3,7.6-2.8c4.1-1.5,8.7-3.3,13.8-5.3
			c4.9-2,9.1-3.6,12.7-4.9c3.6-1.3,5.5-1.8,5.7-1.6c0.2,0,0.4,0.6,0.8,1.9c0.4,2,1.7,4.6,3.9,7.8c2.3,3.2,4.6,5.9,7.2,8.1
			c1.8,1.6,3,2.5,3.6,2.7c0.6,0.2,1.7-0.2,3.1-1.1c1.1-0.7,2.3-1.8,3.6-3.1c1.4-1.4,2.6-2.7,3.8-4.2c1.2-1.4,2.1-2.9,2.8-4.3
			c0.7-1.4,1.1-2.5,1.1-3.2c0-0.5-0.8-1.4-2.3-2.6c-1.5-1.2-4.6-3.3-9.1-6.4c-3.8-2.5-8.5-5.7-14.1-9.5c-5.6-3.8-11-7.5-16.4-11.1
			c-5.3-3.6-10-6.8-14.1-9.5c-4.1-2.7-6.4-4.3-6.9-4.9l-3-2.2v-6.8c0.2-10.4,2.2-20,6.1-28.8c3.9-8.7,9.1-16.6,15.5-23.7
			c6.5-7,14-13,22.4-18c8.5-5,17.4-8.9,26.8-11.8c1.1-0.4,2-0.6,2.8-0.7c0.8-0.1,1.6-0.2,2.4-0.3c0.8-0.1,1.7-0.1,2.7,0
			c1,0.1,2.4,0.1,4.2,0.1c6.3,0.2,13.2,0.9,20.5,2c7.4,1.2,14.5,2.8,21.4,4.7c1.8,0.5,3.8,1.2,6.1,2c2.3,0.8,4.5,1.7,6.6,2.6
			c2.2,0.9,4.1,1.7,5.7,2.4c1.6,0.7,2.8,1.4,3.5,1.9c0.9,0.7,1.4,1.2,1.6,1.5c0.2,0.3,0.1,0.6-0.3,0.9c-0.4,0.7-0.5,1.4-0.5,2.2
			c0,0.9-0.3,1.5-0.9,1.8c-0.6,0.3-1.1,0.1-1.5-0.4c-0.5-0.4-1.4-0.9-2.6-1.6c-1.2-0.7-1.9-1-2-0.8c-0.4,0.4-0.2,1.1,0.4,2.3
			c0.6,1.2,1.3,2.1,2,2.8c0.7,0.9,1.2,2.1,1.4,3.6c0.2,1.5,0,2.8-0.5,3.9c-0.5,0.9-1.8,3.2-3.6,6.9c-1.9,3.7-3.9,7.5-6.1,11.5
			c-2.2,4-4.1,7.6-5.8,10.8c-1.7,3.2-2.6,5-2.6,5.1c-0.5,0-1.9-0.8-4.1-2.4c-3.6-2.7-7.9-5.4-13-8c-5-2.6-10.2-4.9-15.4-6.9
			l-5.4-1.9l-2.7,1.1c-5.8,2.5-11.2,6.4-16.2,11.5c-5,5.1-8.7,10.3-10.8,15.5l-1.1,2.4l1.1,0.3c4.9,1.3,10,3.4,15.4,6.5
			c5.4,3.1,10.7,6.5,15.8,10.4c5.1,3.9,10,8,14.6,12.4c4.6,4.4,8.5,8.7,11.8,12.8l5.4,6.2l-0.5,3c-0.2,2-0.8,4.5-1.8,7.6
			c-1,3.1-2.1,5.9-3.4,8.7c-2.3,5-5.2,9.9-8.7,14.6c-3.4,4.7-7.1,8.9-11.1,12.6c-4,3.7-8.1,6.9-12.3,9.6c-4.2,2.7-8.5,4.6-12.8,5.7
			c-1.4,0.5-2.8,0.9-4.2,0.9c-1.4,0.1-3.8,0.1-7.4,0.1c-2.3,0-4.5,0-6.4,0c-1.9,0-3-0.1-3.4-0.3c-11.9-1.4-22.6-4.8-32-10
			c-9.5-5.2-17.1-11.9-22.8-20c-0.9-1.4-1.5-2.4-1.8-3C1359.4,888.8,1359.5,888.4,1359.8,888z M1434.4,831c-0.4,0.2-0.2,1.3,0.4,3.2
			c0.6,2,1.4,3.4,2.3,4.3c0.9,1.1,1.1,1.9,0.5,2.4c-0.2,0.7-0.2,1.6,0,2.7c0.4,0.7,0.7,1.2,1.1,1.5c0.4,0.3,0.5,0,0.5-0.7
			c0-0.2-0.2-0.6-0.5-1.4c-0.2-0.5,0-1.1,0.5-1.6c0.4-0.4,0.5-1.3,0.5-2.7c-0.2-1.1,0-1.6,0.5-1.6c0.4,0.2,0.9-0.1,1.6-0.8
			c0.7-0.7,1.1-1.4,1.1-1.9c0-0.4-0.6-0.8-1.8-1.2c-1.2-0.4-2.1-0.7-2.8-0.7c-0.7,0-1.4-0.4-2.2-1.1
			C1435.4,830.8,1434.8,830.6,1434.4,831z"/>
	</g>
	<path class="st3" d="M856.5,904c-63,33.4-141.5,9.3-175-53.7C664,817.1,661.6,778,675.2,743c11.2-29.1,32.5-53.1,60.1-67.7
		c63-33.4,141.5-9.3,175,53.7c16.3,30.7,19.5,65.8,9.3,99C909.3,860.9,886.9,887.8,856.5,904z"/>
	<path class="st13" d="M738.9,682.2c-26.9,14.3-46.3,37.2-56.4,63.6c-12.2,31.7-11.2,68.3,6,100.7c31.4,59.3,105,81.9,164.3,50.4
		c29.5-15.7,50-41.8,59.1-71.4c9.3-29.8,7.1-63.2-8.7-93C871.8,673.4,798.2,650.8,738.9,682.2z"/>
	<path class="st14" d="M738.9,682.2c-26.9,14.3-46.3,37.2-56.4,63.6c-12.2,31.7-11.2,68.3,6,100.7c31.4,59.3,105,81.9,164.3,50.4
		c29.5-15.7,50-41.8,59.1-71.4c9.3-29.8,7.1-63.2-8.7-93C871.8,673.4,798.2,650.8,738.9,682.2z"/>
	<path class="st3" d="M1006.3,948.8c-61.1-25.9-89.8-96.7-63.9-157.8c13.6-32.1,40.5-56.7,73.7-67.5c27.6-9,57.4-7.7,84.1,3.7
		c61.1,25.9,89.8,96.7,63.9,157.8c-12.6,29.7-36,52.7-66,64.8C1068.4,961.6,1035.8,961.3,1006.3,948.8z"/>
	<path class="st15" d="M1097.4,733.9c-26.1-11.1-54-11.6-79-3.4c-30.1,9.8-55.9,32-69.2,63.4c-24.4,57.5,2.5,123.9,60,148.2
		c28.6,12.1,59.5,11.6,86.2,0.8c27-10.8,49.8-32,62-60.8C1181.8,824.6,1154.9,758.3,1097.4,733.9z"/>
	<path class="st16" d="M1097.4,733.9c-26.1-11.1-54-11.6-79-3.4c-30.1,9.8-55.9,32-69.2,63.4c-24.4,57.5,2.5,123.9,60,148.2
		c28.6,12.1,59.5,11.6,86.2,0.8c27-10.8,49.8-32,62-60.8C1181.8,824.6,1154.9,758.3,1097.4,733.9z"/>
	<g>
		<g>
			<g>
				<path class="st4" d="M561.1,1628.4c-6.6,0-9-4.2-9.5-7.2c0-0.1,0-0.1-0.1-0.2c-0.3-1.1-0.5-2.3-0.5-3.5
					c-2.5-1.3-4.2-3.8-4.4-6.7l-0.3-4.9c0-0.1,0-0.3,0-0.4c0-0.5,0-2.6-0.1-6.3c-0.1-3.8-0.2-8.7-0.3-14.7
					c-0.1-5.9-0.2-12.8-0.3-20.4c-0.1-7.7-0.1-15.7-0.1-24c-0.2-15.7-0.4-29.1-0.5-40c-0.2-10.9-0.3-20-0.4-27.3
					c-0.1-7.3-0.2-13.1-0.3-17.5c-0.1-4.3-0.2-7.7-0.4-10.3c0-0.2,0-0.3,0-0.5c0-5.2,0.1-6.2,0.2-7c0.5-3.1,2.5-5.6,5.3-6.9
					c0.2-0.8,0.4-1.4,0.6-1.8c1-1.9,3.5-5.2,9.6-5.2c0.7,0,3,0,6.7,0.1c3.6,0.1,7.9,0.2,12.9,0.4c4.9,0.2,10.3,0.4,15.9,0.5
					c5.7,0.2,10.9,0.4,15.7,0.5c4.8,0.2,8.9,0.4,12,0.5c2.8,0.2,4.4,0.2,4.7,0.3c2.1,0,4,0.8,5.4,2.3c1.7,1.7,2.8,4,3.1,6.4
					c0.3,1.4,0.8,3.2,1.3,5.2c0.6,2.5,1.3,5,1.9,7.5c0.6,2.5,1.2,5,1.9,7.4c0.7,2.7,1.2,4.2,1.5,5c0.1,0.2,0.2,0.5,0.2,0.7
					c0.5,1.9,1,3.6,1.4,5.1c0.8,2.6,1,3.5,1,4.8c0,0,0,0.1,0,0.1c0.8,1.3,1.5,2.8,2.2,4.3c0.1,0.2,0.2,0.4,0.3,0.6
					c3.7,10,8,20,12.9,29.7c4.8,9.7,10.1,18.6,15.6,26.6c0.6,0.8,1.4,1.9,2.4,3.3c0.6-3.3,1-7.8,1.2-13.3c0.2-5.8,0.1-11.1-0.3-15.7
					c-0.8-10-2.5-19.2-5-27.5c-2.3-7.9-5.4-14.6-9-20c-2.8-3.6-4.2-6.1-4.2-9c0-3,1.7-5.8,4.4-7.1c1.9-0.9,2.1-1.1,19.1-1.5
					c10.2-0.3,27.1-0.8,50.7-1.5c0,0,9.4-0.3,9.4-0.3c2.1,0,4.1,0.8,5.6,2.3c1.5,1.5,2.4,3.6,2.4,5.7v18.2c0,1.2-0.1,2.2-0.4,3.2
					c0.5,1.1,0.7,2.3,0.7,3.6l-0.3,5.5c0,0.9-0.1,3-0.1,6.2c-0.1,3.4-0.2,7.8-0.4,13.2c-0.2,5.2-0.3,11.2-0.4,17.8
					c-0.1,6.6-0.1,13.5-0.1,20.7c0,7.2,0,14.3-0.1,21.1c-0.1,6.8-0.2,12.9-0.3,18.4c-0.1,5.5-0.2,10.2-0.3,14
					c-0.1,3.7-0.1,6.1-0.1,7.1c0,0.2,0,0.3,0,0.5l-0.5,8.4c-0.3,4.2-3.8,7.5-8,7.5h-3.2c-0.5,0-1.4,0-8.7-0.6
					c-4.6-0.4-10-0.7-16.2-1.1c-6.2-0.4-12.7-0.8-19.4-1.2c-6.7-0.4-12.4-0.9-17.1-1.2c-3.1-0.2-5.5-0.4-7.1-0.6
					c-2.6-0.3-5.1-0.8-7.2-2.9c-0.6-0.6-1-1.2-1.4-2c-0.1-0.1-0.4-0.6-0.9-1.4c-0.8-1.1-1.6-2.3-2.7-3.7c-0.2-0.3-0.4-0.6-0.6-0.9
					c-0.4-0.8-1.8-2.9-6-8.8c-3.3-4.6-7-9.5-10.9-14.4c-0.1-0.1-0.1-0.2-0.2-0.3c-1.8-2.5-3.8-5.3-6.1-8.4l-7-9.5
					c-2.3-3.1-4.6-6.2-6.8-9.1c-0.6-0.8-1.2-1.6-1.8-2.3c0.4,3,0.7,6.2,1.1,9.5c0.5,4.3,1.1,8.4,1.6,12.1c0.5,3.6,1.2,7.3,2,11
					c0.9,3.9,1.9,7.9,3,12.1c1.1,4.2,2.6,9.2,4.4,14.8c0.7,2.2,1.2,3.7,1.5,4.6c0.1,0.2,0.2,0.4,0.4,0.6c0.4,0.5,0.7,0.9,0.9,1.5
					c2,4.1,0.8,7.2-0.1,8.7c-1.3,2.1-3.8,3.6-6.3,3.8v0c-5.9,0.5-11.1,1-15.5,1.5c-4.5,0.5-9.4,0.9-14.7,1.4
					c-5.3,0.5-10.5,0.9-15.4,1.2c-4.9,0.4-9.2,0.7-13,0.9C565.5,1628.3,562.7,1628.4,561.1,1628.4z"/>
			</g>
			<path class="st12" d="M553.5,1540.2c-0.2-15.9-0.4-29.2-0.5-40.1c-0.2-10.9-0.3-20-0.4-27.3c-0.1-7.3-0.2-13.2-0.3-17.6
				c-0.1-4.4-0.2-8-0.4-10.7c0-3.2,0-5.1,0.1-5.7c0.1-0.5,0.4-0.9,0.9-1.1c0.7-0.4,1.2-0.4,1.4-0.1c0.2,0.3,0.3,1,0.3,2.3
				c0,1.4,0.4,2.3,1.1,2.7c0.7,0.4,1.1,0.8,1.1,1.4c0,0.4,0.2,0.5,0.5,0.5c0.4,0,0.6-0.5,0.8-1.5c0.2-1,0.3-2.1,0.4-3.2
				c0.1-1.2,0.1-2.3,0-3.5c-0.1-1.2-0.3-1.9-0.7-2.3c-1.3-1.6-0.6-2.4,1.9-2.4c0.7,0,2.9,0,6.5,0.1c3.6,0.1,7.9,0.2,12.8,0.4
				c5,0.2,10.3,0.4,15.9,0.5c5.7,0.2,10.9,0.4,15.7,0.5c4.8,0.2,8.7,0.4,11.9,0.5c3.2,0.2,4.8,0.3,5,0.3c0.5,0.5,0.8,1.2,0.8,1.9
				c0.4,1.6,0.9,3.6,1.5,6.1c0.6,2.4,1.3,4.9,1.9,7.4c0.6,2.5,1.3,5,1.9,7.4c0.6,2.4,1.2,4.4,1.8,5.8c0.5,2,1,3.7,1.5,5.3
				c0.4,1.5,0.7,2.4,0.7,2.6c0,0.7-0.4,1.1-1.1,1.1c-0.7,0-1.4-0.4-2.2-1.1l-2.2-1.1c-0.4,0.4-0.5,1.2-0.3,2.4
				c0.2,1.3,0.4,2.1,0.8,2.4c0.4,0.4,0.4,1,0,1.9c-0.4,0.9-0.5,2.3-0.3,4.3c0.2,2,0.4,3,0.8,3c0.5,0,1.2-0.8,2-2.4
				c0.8-1.6,1.2-2.9,1.2-3.8c0.2-2,0.8-3,1.9-3c0.2,0,0.9,1.4,2.2,4.1c3.8,10.3,8.2,20.5,13.2,30.5c5,10.1,10.4,19.3,16.2,27.6
				c0.9,1.3,2.2,2.9,3.8,5c1.6,2.1,3.2,4.1,4.6,5.9c1.4,1.9,3.3,4.2,5.7,6.9c0.2,0,0.4-0.6,0.5-1.9c0.2-1.3,0.4-2.7,0.5-4.3
				c0.4-1.6,0.7-3.5,0.9-5.7c0.3-2.2,0.5-4,0.7-5.4c0.7-3.8,1.2-8.7,1.4-14.9c0.2-6.1,0.1-11.6-0.3-16.5
				c-0.9-10.6-2.7-20.4-5.3-29.2c-2.6-8.8-6-16.3-10.1-22.4c-1.8-2.3-2.7-3.8-2.7-4.3c0.4-0.2,5.6-0.4,15.8-0.7
				c10.2-0.3,27.1-0.8,50.7-1.5l9.2-0.3v10c0,4.3,0,7.1,0,8.2c0,1.2-0.2,1.6-0.5,1.2c-0.4-0.2-0.9-1.2-1.6-3
				c-0.2-1.6-0.8-2.7-1.9-3.2c-1.3-0.4-2.2-1-2.7-1.9l-1.4-0.8c-0.2,0-0.1,0.9,0.3,2.7c0.5,1.8,1.1,2.7,1.6,2.7
				c0.7,0,1.1,0.2,1.1,0.5c0,0.5,0.2,0.8,0.5,0.8c0,0.5-0.1,1.1-0.3,1.6c-0.4,0.7-0.3,1.6,0.3,2.6c0.5,1,1.5,1.8,3,2.3l1.9,0.8
				l-0.3,5.7c0,0.7,0,2.8-0.1,6.2c-0.1,3.4-0.2,7.8-0.4,13.1c-0.2,5.3-0.3,11.3-0.4,18c-0.1,6.7-0.1,13.6-0.1,20.8
				c0,7.2,0,14.2-0.1,20.9c-0.1,6.8-0.2,12.9-0.3,18.4c-0.1,5.5-0.2,10.1-0.3,13.9c-0.1,3.8-0.1,6.2-0.1,7.3l-0.5,8.4h-3.2
				c-0.7,0-3.4-0.2-8.1-0.5c-4.7-0.4-10.1-0.7-16.4-1.1c-6.2-0.4-12.7-0.8-19.3-1.2c-6.7-0.4-12.3-0.9-17-1.2
				c-3.1-0.2-5.3-0.4-6.8-0.5c-1.4-0.2-2.3-0.4-2.4-0.5c-0.2-0.4-0.7-1.1-1.5-2.3c-0.8-1.2-1.8-2.5-2.8-3.9
				c-0.9-1.6-3.1-4.8-6.5-9.6c-3.4-4.8-7.1-9.7-11.1-14.7c-1.8-2.5-3.9-5.4-6.2-8.5c-2.3-3.2-4.7-6.3-7-9.5
				c-2.3-3.2-4.6-6.2-6.9-9.2c-2.3-3-4.2-5.5-5.8-7.7c-3.4-4.7-6-8.2-7.7-10.4c-1.7-2.3-2.9-3.9-3.5-4.9c-0.6-1-1-1.4-1.1-1.4
				c-0.1,0.1-0.2,0.1-0.4,0.1c0.2,3.4,0.3,6.3,0.4,8.5c0.1,2.3,0.3,4.5,0.5,6.8c0.3,2.3,0.5,4.1,0.7,5.5c0.2,1.3,0.4,3.4,0.8,6.5
				c0.4,3.1,0.7,6.3,1.1,9.7c0.5,4.5,1.1,8.7,1.6,12.4c0.5,3.8,1.3,7.7,2.2,11.6c0.9,4,1.9,8.1,3.1,12.4c1.2,4.3,2.7,9.4,4.5,15.1
				c0.7,2.3,1.3,4,1.6,5c0.4,1,0.9,1.9,1.6,2.8c0.4,0.7,0.4,1.1,0,1.1c-5.9,0.5-11.1,1-15.5,1.5c-4.4,0.5-9.3,0.9-14.6,1.4
				c-5.3,0.5-10.4,0.9-15.3,1.2c-4.9,0.4-9.2,0.7-13,0.9c-3.8,0.3-6.4,0.4-7.8,0.4c-1.1,0-1.6-0.1-1.6-0.4c0-0.3-0.1-0.7-0.3-1.2
				c-0.4-1.3-0.3-2.5,0.3-3.8c0.4-0.9,0.5-1.6,0.4-2c-0.1-0.4-0.3-0.9-0.7-1.2c-0.4-0.4-0.6-0.9-0.7-1.5c-0.1-0.6-0.2-1.2-0.4-1.8
				c0-1.3-0.2-2.1-0.5-2.4c-0.7,0-1.4,0.7-1.9,2.2l-1.1,2.2l-0.3-4.9c0-0.5,0-2.7-0.1-6.5c-0.1-3.8-0.2-8.7-0.3-14.6
				c-0.1-5.9-0.2-12.7-0.3-20.4C553.6,1556.4,553.5,1548.5,553.5,1540.2z M704.1,1567.2c-1.1,0.9-1,1.4,0.3,1.6
				c1.1,0.4,2,1.3,2.7,2.7l1.6,2.2c0.2,0,0.4-0.4,0.8-1.4c0.5-0.9,1.2-1.3,1.9-1.1c1.1,0,1.7-0.8,1.9-2.4c0.2-1.6-0.2-3.1-1.1-4.3
				c-0.7-1.1-1.4-2.1-1.9-3c-0.9-2.3-1.6-2.3-2.2,0c-0.4,1.3-0.4,2.3,0,3.2c0.4,0.4,0.6,0.7,0.7,1.1c0.1,0.4,0.2,0.7,0.4,1.1
				c0.2,0.5,0.2,0.9,0.1,0.9c-0.1,0.1-0.6,0-1.5-0.1c-0.4-0.2-0.6-0.3-0.8-0.3c-0.2,0-0.4-0.1-0.5-0.3c-0.4,0-0.6-0.1-0.8-0.3
				C705.5,1566.6,705,1566.7,704.1,1567.2z"/>
		</g>
	</g>
	<path class="st3" d="M346.3,1632c-59-25-86.6-93.3-61.6-152.2c13.1-31,39-54.7,71.1-65.1c26.6-8.6,55.4-7.4,81.2,3.5
		c59,25,86.6,93.3,61.6,152.2c-12.2,28.7-34.8,50.9-63.7,62.5C406.2,1644.4,374.8,1644.1,346.3,1632z"/>
	<path class="st13" d="M463.6,1442.8c-32.3-27-71.8-32.4-105.6-21.4c-38.6,12.5-70,46.5-75.2,94.1c-4,36.7,11.9,72.9,41.2,95.3
		c33.7,25.8,74.5,29.1,108.3,15.5c35-14,62.7-46.1,68.1-90.1C504.7,1501,490.8,1465.6,463.6,1442.8z"/>
	<path class="st17" d="M434.2,1424.7c-25.2-10.7-52.1-11.2-76.2-3.3c-29,9.4-53.9,30.9-66.7,61.2c-23.5,55.5,2.4,119.5,57.9,143
		c27.6,11.7,57.4,11.2,83.2,0.8c26-10.4,48-30.8,59.8-58.7C515.6,1512.2,489.7,1448.2,434.2,1424.7z"/>
	<g>
		<path class="st4" d="M1080.8,1628.6c-1.3,0-2.4-0.1-3.6-0.5c-3.4-1.1-5.8-4.3-5.8-8c0-0.2-0.1-1.3-0.1-3.2
			c-0.1-2.1-0.2-5.1-0.4-8.7c-0.2-3.7-0.3-8.1-0.4-13.1c-0.1-4.9-0.1-10.1-0.1-15.6l-0.5-37.9c0,0-1-2.2-1-2.2
			c-0.6-1.5-1.6-3-2.8-4.6c-1.6-2-4.4-5.2-8.4-9.6c-1.5-1.7-3.8-4.2-6.9-7.6c-3.1-3.4-6.1-6.6-9-9.7c-2.9-3.1-5.7-6.1-8.2-8.9
			c-3-3.3-4.3-4.7-4.9-5.3c-1.5-1.5-3.4-3.5-5.7-6c-2.3-2.4-4.4-4.8-6.5-7.1c-2.1-2.3-3.9-4.3-5.5-6c-2.6-2.9-4.3-4.8-4.3-8.1
			c0-2.8,1.4-5.3,3.7-6.8c0.3-0.3,0.6-0.5,0.9-0.7c0.8-0.5,1.8-1.1,3.4-1.9c1.3-0.8,3.4-2.1,6.4-3.8c3.2-1.8,6.6-3.7,10.3-5.7
			c5.1-3,9.3-5.4,12.4-7.1c3.1-1.8,5.6-3.1,7.3-4c1.5-0.8,2.5-1.3,3.1-1.7c0.9-0.6,1.9-1.1,2.8-1.6c0.2-0.1,0.8-0.4,2.2-1.3
			c1.4-0.9,3-1.8,4.6-2.6c1.1-0.6,2.1-1.2,2.9-1.7c1.5-0.9,3.2-1.7,5.4-1.7c1.6,0,3.2,0.5,4.5,1.4c1.8,1.1,3.6,3.3,3.8,7.3l1.7,0.7
			c0.3,0.1,0.6,0.3,0.8,0.4c2.6,1.5,4.7,3.7,6.1,6.6c0.1,0.2,0.2,0.3,0.2,0.5c2.2,5.3,4.9,10.8,8.1,16.5c2.8,5,5.9,10,9.2,14.7
			c0,0,0,0,0,0c2.4-2.5,4.9-5.3,7.7-8.3c2.8-2.9,5.4-5.8,8-8.7c2.6-2.9,4.6-5.1,6-6.7c2.5-2.6,4.9-5.3,7.6-8.1
			c2.6-2.8,5.1-5.5,7.5-7.9c2.4-2.5,4.5-4.6,6.2-6.2c2.8-2.6,4.8-4.5,8.2-4.5c2.9,0,4.3,1,9.4,4.8c3,2.2,6.3,4.7,10.1,7.6
			c3.6,2.8,7,5.4,10.4,7.9c3.5,2.6,5.8,4.3,7,5.3c3.8,2.9,6.3,4.8,7.4,5.8c0.5,0.4,1.3,1.1,2.2,2.2c1.9,0.9,4.2,2.5,8.1,5.4
			c0.1,0.1,0.2,0.1,0.2,0.2c2.8,2.3,3.6,3,4.1,3.5c2.2,2.2,3,5.2,2.3,8c-0.6,2.7-2.6,4.8-5.2,5.9c-0.2,0.1-0.8,0.5-1.9,1.2
			c-1.8,1.2-3.7,2.5-5.8,3.9c-2.1,1.3-4,2.6-5.9,3.9c-1.6,1.1-2.9,1.9-3.9,2.5c-0.3,0.3-0.7,0.6-1.3,1c-0.9,0.7-1.8,1.3-2.9,1.9
			c-6.6,4.7-13.3,9.8-19.9,15.1c-6.6,5.3-12.8,10.9-18.5,16.6c-0.1,0.1-0.3,0.2-0.4,0.4c-2.8,2.4-4.6,4.1-5.6,5
			c-0.8,0.8-1.5,1.6-2.1,2.5c-0.4,0.5-1.3,2-1.8,6.1c-0.5,3.9-0.6,8.6-0.4,14.1c0.3,5.6,0.9,11.8,2.1,18.4
			c1.1,6.7,2.7,13.7,4.6,20.8l1.6,6.3c0.4,1.6,0.3,3.3-0.2,4.8l-0.8,2.2c-0.6,1.5-1.3,2.8-2.1,3.9c0.1,0.5,0.2,0.9,0.2,1.4
			c0.2,1.3,0.1,2.5-0.1,3.7v0.1c0,4.7-3.1,7.5-9.1,8.5c-1.9,0.3-4.8,0.6-9,1c-3.9,0.4-9.8,0.8-18,1.4c-8.1,0.7-14.7,1.2-19.3,1.5
			c-4.6,0.3-7.8,0.5-9.9,0.5C1082.4,1628.6,1081.5,1628.6,1080.8,1628.6z"/>
		<path class="st9" d="M1201,1466.9c-0.5-0.2-0.9-0.6-0.9-1.2c-0.1-0.6,0-1.1,0.4-1.5c0.2-0.4,2.5,1.2,7,4.6c2,1.6,3.2,2.6,3.5,3
			c0.4,0.4,0.3,0.6-0.3,0.8c-0.5,0.2-1.7,0.9-3.4,2c-1.7,1.2-3.6,2.4-5.7,3.8c-2.1,1.4-4.1,2.7-5.9,3.9c-1.9,1.3-3.3,2.2-4.2,2.7
			c-0.2,0.2-0.6,0.5-1.4,1.1c-0.7,0.5-1.5,1.1-2.4,1.6c-6.9,4.9-13.7,10-20.5,15.5c-6.9,5.5-13.2,11.2-19.2,17.2
			c-2.9,2.5-4.9,4.3-5.9,5.4s-2.1,2.3-3,3.5c-1.6,2.2-2.7,5.4-3.2,9.7c-0.5,4.3-0.7,9.5-0.4,15.4c0.3,5.9,1,12.4,2.2,19.3
			c1.2,6.9,2.7,14.1,4.7,21.5l1.6,6.2l-0.8,2.2c-0.7,1.8-1.4,2.7-1.9,2.7c-0.4,0.4-0.5,0.8-0.5,1.4c0,0.7-0.2,1.1-0.5,1.1
			c-0.4,0.4-0.3,1.1,0.3,2.2c0.2,0.5,0.3,1.2,0.4,1.9c0.1,0.7,0,1.3-0.1,1.6c0,0.5,0,0.9,0,1.1c0,0.2-0.8,0.4-2.4,0.7
			c-1.6,0.3-4.4,0.6-8.4,0.9c-4,0.4-9.9,0.8-17.8,1.4c-8.3,0.7-14.7,1.2-19.2,1.5c-4.5,0.3-7.8,0.5-9.7,0.5c-2,0.1-3.1,0.1-3.4,0
			c-0.3-0.1-0.4-0.2-0.4-0.4c0-0.2,0-1.4-0.1-3.5c-0.1-2.2-0.2-5.1-0.4-8.8c-0.2-3.7-0.3-8-0.4-12.8c-0.1-4.9-0.1-10-0.1-15.4
			l-0.5-39.7l-1.6-3.5c-0.9-2.2-2.2-4.3-3.9-6.5c-1.7-2.2-4.6-5.5-8.8-10c-1.4-1.6-3.7-4.1-6.9-7.6c-3.2-3.4-6.2-6.7-9.1-9.7
			c-2.9-3.1-5.6-6-8.1-8.8c-2.5-2.8-4.2-4.6-5.1-5.5c-1.4-1.4-3.3-3.4-5.5-5.8c-2.3-2.4-4.4-4.8-6.5-7c-2.1-2.3-3.9-4.2-5.4-5.9
			c-1.5-1.7-2.3-2.7-2.3-2.8c0.4-0.2,0.7-0.4,1.1-0.8c0.5-0.4,1.5-0.9,3-1.6c1.1-0.7,3.2-2,6.4-3.8c3.2-1.8,6.5-3.7,10.1-5.7
			c5.2-3.1,9.4-5.4,12.4-7.2c3.1-1.7,5.4-3,7.2-3.9c1.7-0.9,2.9-1.6,3.6-2c0.7-0.4,1.4-0.9,2.2-1.2c0.7-0.4,1.7-0.9,3-1.8
			c1.3-0.8,2.6-1.6,4.1-2.3c1.3-0.7,2.3-1.4,3.2-1.9c0.9-0.5,1.4-0.7,1.4-0.5c0.2,0,0.3,0.5,0.3,1.5c0,1,0,2.1,0,3.4
			c0,3.4,0.2,5.1,0.5,5.1c0.4,0.2,1.1-0.1,2.2-0.8l1.9-1.4l1.9,0.8c1.3,0.7,2.3,1.8,3,3.2c2.3,5.6,5.2,11.4,8.5,17.3
			c3.3,5.9,7,11.7,10.9,17.3c1.1,1.4,2,2.8,2.8,3.9c0.8,1.2,1.3,1.8,1.5,1.8c0,0.2,0.5-0.3,1.6-1.4c1.1-1.1,2.8-2.9,5.1-5.4
			c2.3-2.5,4.9-5.3,7.7-8.2c2.8-3,5.5-5.9,8.1-8.8c2.6-2.9,4.6-5.1,6.1-6.8c2.3-2.5,4.8-5.2,7.4-8c2.6-2.8,5.1-5.4,7.4-7.8
			c2.3-2.4,4.3-4.4,5.9-5.9c1.6-1.5,2.5-2.3,2.7-2.3c0.2,0,1.8,1.1,4.7,3.2c3,2.2,6.3,4.6,9.9,7.4c3.6,2.8,7.1,5.5,10.5,8
			c3.4,2.5,5.7,4.2,6.8,5.1c3.8,2.9,6.2,4.8,7.3,5.7c1.1,0.9,1.6,1.6,1.6,2.2c0,1.1-0.3,1.6-0.8,1.6c-0.5,0.2-0.8,0.7-0.8,1.6
			c0,0.5-0.5,1.5-1.6,3c-0.9,0.7-1.6,1.5-2,2.3c-0.5,0.8-0.5,1.4-0.1,1.8c0.7,0,1.9-0.4,3.5-1.1c2.2-0.7,3.2-1.5,3.2-2.4
			c0.4-0.5,0.8-0.8,1.4-0.8c0.7,0,1-0.3,0.9-0.8C1202.1,1467.7,1201.7,1467.3,1201,1466.9z M1103.7,1522.9c0.9-0.5,1.2-1.2,0.8-2
			c-0.4-0.8-1.1-1.2-2.2-1.2c-0.9,0-1.5-0.2-1.9-0.5c0-0.2-0.3-0.3-0.8-0.3c-0.4,0-0.4,0.5-0.1,1.6c0.3,1.1,0.7,1.8,1.2,2.2
			c0.4,0.4,0.5,0.7,0.4,0.9c-0.1,0.3-0.3,1-0.7,2.3c-0.9,1.8-1.3,3-1.1,3.5c0.2,0.5,0.7,0.1,1.6-1.4c0.5-0.5,1.2-0.8,1.9-0.8
			c0.4,0,0.6-0.1,0.8-0.3c0.2-0.2,0.1-0.7-0.3-1.6C1103.2,1524,1103.3,1523.2,1103.7,1522.9z"/>
		<path class="st4" d="M1622.2,1628.7c-9.8,0-19.6-1.1-29.2-3.3c-9.7-2.2-19-5.5-27.7-9.8c-8.8-4.4-17-9.9-24.4-16.5
			c-7.4-6.6-13.8-14.4-19.1-23.2c-1.6-2.8-2.7-4.8-3.4-6.2c-1.3-2.4-2-5.5-2.4-10c-0.3-3.5-0.4-8.6-0.4-15.7
			c0-6.9,0.1-17.2,0.3-30.5c0.2-6.6,0.3-12.7,0.4-18.5c0.1-5.9,0.2-11.1,0.3-15.8c0.1-4.7,0.2-8.6,0.3-11.7c0.1-2.9,0.1-4.6,0.1-5.2
			c0-1.3,0-3.7,0.1-7.2c0.1-3.3,0.1-6.8,0.1-10.3v-10.5c0-10.2,7.1-10.7,8.5-10.7c1.5,0,1.9,0,12.2,3.5c6,2.1,13.3,4.5,21.7,7.4
			l30.6,10.6c2.8,1,4.8,3.3,5.3,6.2c0,0,0.3,1.8,0.3,1.9c1.2,2.4,1.2,5.3-0.1,7.8c-0.2,1.5-0.8,2.8-1.6,4c0.7,1.6,1,3.4,0.7,5.4
			c-0.2,1.4-0.6,3-1.6,5.9c-1.8,5.3-3.1,10.5-3.7,15.5c-0.7,5.2-0.9,11.2-0.7,18c0.2,5.8,0.9,12,2.1,18.4c1.2,6.1,3.1,11.9,5.7,17.1
			c2.4,4.9,5.6,9.2,9.6,12.7c3.7,3.3,8.4,5.5,14.3,6.7c1.3,0.3,2.8,0.4,4.2,0.4c1.5,0,3.1-0.1,4.7-0.4c3.3-0.6,6.3-1.6,9.1-3.2
			c0.1-0.1,0.2-0.1,0.3-0.1c2.6-1.3,3.5-1.7,4-1.9c0.2-0.1,0.4-0.2,0.6-0.2c0.4-1.3,1.1-2.7,1.9-4.3c1.2-2.1,2-4.1,2.6-5.9
			c0.6-1.9,0.9-4.3,1.1-7.1c0.5-11.2-2.6-24.1-9.3-38.4c-0.8-1.6-1.5-3.2-2-4.6c-1.4-4.1-0.8-7.5,1.7-10c1.2-1.2,2.5-1.8,5.8-3.3
			c2.1-0.9,4.8-2.1,8.1-3.4l11.4-4.7c4.3-1.8,8.6-3.7,13.1-5.6c5.4-2.2,9.9-4.1,13.8-5.7c2.5-1,4.2-1.8,5.2-2.2
			c1.7-1.2,3.5-1.9,5.4-1.9c2.2,0,4.3,0.9,5.8,2.4c1.7,1.6,2.7,3.9,3.8,6.7c0.9,2.4,1.9,5.1,2.8,8.1c1.4,3.7,1.8,6.5,1.4,9
			c-0.1,0.4-0.2,0.8-0.3,1.2c1.5,1.5,2.7,3.8,3.3,7.6c1.5,8,2.5,16.2,2.9,24.4c0.5,8.3,0.4,16.3-0.1,23.9
			c-0.6,7.7-1.6,14.9-3.2,21.4c-1.6,6.8-3.8,12.7-6.5,17.5c-1.3,2.3-3.4,5.3-6.3,8.9c-2.8,3.4-5.7,6.4-8.4,9
			c-4.9,4.7-10.6,8.8-16.7,12.2c-6,3.3-12.2,6-18.7,8.3c-6.5,2.2-13.1,3.9-19.9,4.9C1635.4,1628.2,1628.7,1628.7,1622.2,1628.7z"/>
		<path class="st10" d="M1528.6,1571.8c-1.4-2.5-2.5-4.5-3.2-5.8c-0.7-1.4-1.2-3.6-1.5-6.9c-0.3-3.2-0.4-8.2-0.4-15
			s0.1-16.9,0.3-30.4c0.2-6.5,0.3-12.7,0.4-18.5c0.1-5.9,0.2-11.1,0.3-15.8c0.1-4.7,0.2-8.6,0.3-11.6c0.1-3.1,0.1-4.9,0.1-5.4
			c0-1.3,0-3.6,0.1-7c0.1-3.4,0.1-6.9,0.1-10.5c0-5.2,0-8.7,0-10.5c0-1.8,0.2-2.7,0.5-2.7c0.4,0,3.6,1,9.6,3.1
			c6,2.1,13.3,4.6,21.8,7.4l30.5,10.5l0.3,1.6c0,1.1,0.2,1.8,0.5,2.2c0.4,0.4,0.4,0.8,0,1.4c-0.4,0.4-0.5,0.9-0.5,1.6
			c0,0.9-0.5,1.4-1.4,1.6c-0.5,0.4-0.9,0.7-0.9,0.9c-0.1,0.3-0.1,1-0.1,2.3c0.4,1.4,0.7,2.6,1.1,3.5c0.4,0.4,0.5,0.9,0.4,1.6
			c-0.1,0.7-0.5,2.2-1.2,4.3c-2,5.8-3.3,11.4-4.1,17c-0.7,5.6-1,12-0.8,19.2c0.2,6.3,0.9,12.9,2.3,19.7c1.4,6.9,3.5,13.2,6.4,19.1
			c2.9,5.9,6.7,10.9,11.5,15.1c4.8,4.2,10.8,7.1,18,8.5c3.8,0.7,7.7,0.7,11.9,0c4.1-0.7,8-2.1,11.6-4.1c1.8-0.9,2.9-1.4,3.4-1.6
			c0.4-0.2,1.1-0.2,2,0c1.3,0.4,1.8,1.3,1.6,2.7c-0.2,3.2,0,4.9,0.5,4.9c0.5,0,0.9-0.3,1.1-0.8c0.4-0.9,0.7-1.2,1.1-0.8
			c0.4,0.2,0.6-0.3,0.8-1.4c0.2-1.1,0.2-2,0-2.7c0-0.9,0.1-1.4,0.3-1.6c1.4-0.7,1.2-1.4-0.8-2.2c-1.1-0.4-1.6-1-1.6-1.9
			c0-0.9,0.5-2.3,1.6-4.3c1.4-2.5,2.5-5,3.2-7.6c0.7-2.5,1.2-5.5,1.4-8.9c0.5-12.6-2.8-26.7-10-42.2c-0.7-1.4-1.3-2.7-1.6-3.8
			c-0.4-1.1-0.5-1.7-0.3-1.9c0.2-0.2,1.3-0.7,3.4-1.6c2.1-0.9,4.7-2,8-3.4c3.2-1.4,7-2.9,11.4-4.7c4.3-1.8,8.7-3.7,13.2-5.7
			c5.2-2.2,9.8-4.1,13.7-5.7c3.9-1.6,6-2.5,6.4-2.7c0.7-0.7,1.2-0.9,1.4-0.5c0.4,0.2,1,1.4,1.9,3.8c0.9,2.3,1.8,5,2.7,7.8
			c0.9,2.3,1.3,4,1.1,5c-0.2,1-0.8,1.9-1.9,2.8c-0.5,0.5-0.8,1.1-0.8,1.6c0.2,0.5,0,1.3-0.5,2.2c-0.4,0.9-0.5,2-0.4,3.4
			c0.1,1.4,0.3,2.1,0.7,2.3c0.4,0,0.8-0.5,1.4-1.6c0.5-0.9,1.1-1.4,1.6-1.4c0.4,0,0.6-0.1,0.8-0.3c0.2-0.2,0.4-0.4,0.8-0.5
			c0.5-0.5,1,0.5,1.4,3c1.4,7.8,2.4,15.6,2.8,23.5c0.4,7.9,0.4,15.5-0.1,22.8c-0.5,7.3-1.5,14-3,20.1c-1.4,6.1-3.3,11.3-5.7,15.4
			c-1.1,2-2.9,4.6-5.5,7.7c-2.6,3.2-5.2,5.9-7.7,8.2c-4.5,4.3-9.6,8-15.1,11.1c-5.6,3.1-11.4,5.6-17.4,7.7c-6,2.1-12.2,3.6-18.5,4.6
			c-6.3,1-12.5,1.5-18.7,1.5c-9.2,0-18.3-1-27.4-3.1c-9.1-2.1-17.8-5.1-26-9.2c-8.2-4.1-15.7-9.1-22.6-15.3
			C1539.3,1587,1533.5,1579.9,1528.6,1571.8z M1538.9,1567.2c-0.4,0.2-0.6,1.4-0.7,3.5c-0.1,2.2,0,3.4,0.4,3.8
			c0.2,0.2,0.3,0.8,0.3,1.9c0.2,0.9,0.4,2.1,0.5,3.6c0.2,1.5,0.4,2.6,0.5,3.1c0.7,1.3,1.4,0.8,1.9-1.4c0.4-1.4,1-2.2,1.9-2.2
			c1.1,0,1.6,0.2,1.6,0.5c0.2,0.2,0.4,0.3,0.5,0.3c0.2,0,0.4,0,0.5,0.1c0.2,0.1,0.4,0.1,0.8,0.1c0.5,0.2,1.2,0.4,2,0.5
			c0.8,0.2,1.5,0.5,2,0.8c1.3,0.7,2.1,0.9,2.4,0.5c0.4-0.4-0.1-1-1.4-1.9c-1.3-0.9-2.3-1.4-3.2-1.6c-1.3-0.2-2.3-1-3.2-2.4
			c-0.4-0.5-0.8-1.1-1.4-1.8c-0.5-0.6-1-1.1-1.4-1.5c-0.9-0.5-1.4-1.2-1.4-1.9c0-0.4-0.4-1.2-1.2-2.6
			C1539.8,1567.6,1539.3,1567,1538.9,1567.2z"/>
	</g>
	<path class="st3" d="M1315.9,1646.1c-66.7-28.3-97.9-105.5-69.7-172.2c14.9-35.1,44.2-61.9,80.4-73.7c30.1-9.8,62.7-8.4,91.8,4
		c66.7,28.3,97.9,105.5,69.7,172.2c-13.7,32.4-39.3,57.5-72,70.7C1383.6,1660,1348.1,1659.7,1315.9,1646.1z"/>
	<path class="st15" d="M1448.5,1432c-36.5-30.5-81.2-36.6-119.5-24.2c-43.7,14.2-79.2,52.6-85.1,106.5
		c-4.6,41.5,13.4,82.5,46.6,107.8c38.1,29.2,84.2,33,122.5,17.6c39.6-15.9,71-52.1,77.1-101.9
		C1495,1497.8,1479.4,1457.7,1448.5,1432z"/>
	<path class="st18" d="M1415.3,1411.5c-28.5-12.1-59-12.6-86.2-3.8c-32.8,10.7-61,34.9-75.5,69.2c-26.6,62.7,2.7,135.1,65.4,161.7
		c31.2,13.2,64.9,12.6,94.1,0.9c29.4-11.8,54.3-34.9,67.7-66.4C1507.3,1510.5,1478,1438.1,1415.3,1411.5z"/>
	<g>
		<path class="st4" d="M651.2,1289.8c-0.6,0-1.1,0-1.6,0c-2-0.1-4.3-0.3-7.3-0.7c-0.2,0-0.3-0.1-0.5-0.1c-9-1.8-17.2-4.9-24.4-9.2
			c-7.2-4.3-13.6-9.7-19-16c-5.3-6.2-9.8-13.3-13.4-21.1c-3.5-7.7-6.1-15.9-7.6-24.5c-0.4-2-0.7-4.7-0.9-8.1c-0.2-3-0.3-6.2-0.4-9.4
			c-0.1-3.3-0.1-6.6,0-9.8c0.1-3.4,0.3-6.2,0.8-8.6c1.5-11.4,4.5-22.4,8.9-32.7c4.4-10.3,10-19.8,16.6-28.3
			c6.7-8.5,14.4-15.9,22.9-21.9c8.6-6.1,18-10.6,27.9-13.3c0.1,0,0.2-0.1,0.4-0.1c2.4-0.6,4.1-0.9,5.1-1.1c0.9-0.2,1.7-0.2,2.7-0.2
			c1.3,0,2.8,0.1,4.5,0.4c6.6,0.7,13.5,2.7,20.3,6.2c6.5,3.3,12.8,7.3,18.7,11.9c5.9,4.6,11.5,9.6,16.5,15.1
			c5.1,5.4,9.3,10.8,12.6,15.8c0.1,0.2,0.2,0.4,0.3,0.5c1.1,2.1,1.8,3.4,2,3.7c1.1,2.3,1.2,4.9,0.3,7.1c-1,2.3-2.9,4.1-5.4,4.9
			c-0.1,0-0.2,0-0.2,0.1c-0.6,1.8-1.7,3.6-3.3,5c-1.8,1.7-4.6,3.1-8.8,4.6c-9.5,3.4-16.3,5.9-20.4,7.3c-5.7,2-7.5,2.4-9.1,2.4
			c-0.5,0-0.9,0-1.4-0.1c-2.2-0.3-6.1-1.8-7.8-7.7c-0.2-0.5-0.7-1.6-2.1-3.5c-1.4-1.9-3-3.9-4.8-5.8c-1.9-2-3.8-3.8-5.7-5.4
			c-0.4-0.4-0.8-0.7-1.2-1c-2.6,2.8-5,6.6-7.2,11.3c-3,6.3-5.4,13.7-7,22.1l-0.5,3.5c-0.2,1-0.3,2-0.3,3.1c-0.1,1.2-0.1,2.6-0.1,4.2
			v6.5c0,3.1,0,5.8,0.1,8.1c0.1,2.1,0.2,4,0.5,5.7c0.2,1.6,0.5,3.1,1,4.5c0.5,1.7,1.1,3.6,1.8,5.7c1.3,3.5,3.1,6.8,5.2,9.7
			c0.8,1,1.4,1.7,1.8,2c0.7-0.1,1.5-0.4,2.4-0.8c2-0.9,4-2.2,6.1-3.8c2.1-1.5,4-3.4,5.8-5.4c1.7-2,3.3-4.1,4.6-6.3
			c-0.4-0.6-0.6-1.3-0.9-2c-2-2.1-3-5-2.7-8.2c-0.1-0.2-0.2-0.3-0.2-0.5c-0.8-1.9-1.1-3.6-1.1-5.2c0-1.6,0.4-3.4,1.7-7
			c1.4-5,2.4-7.2,4.1-8.9c1.5-1.5,3.5-2.3,5.6-2.3c0.9,0,1,0,6.6,1.1c3.2,0.6,6.9,1.4,11.3,2.3c0.1,0,0.2,0,0.3,0.1
			c4.3,1.1,9.1,2.2,14.6,3.5c5.4,1.2,9.9,2.2,13.2,2.9l12.7,3c3.9,0.9,6.5,4.6,6.1,8.6l-0.3,2.6c-0.2,3.3-1,7.1-2.3,11.5
			c-1.3,4.2-2.9,8.5-4.8,12.8c-1.9,4.3-4.1,8.6-6.5,12.7c-2.4,4.2-4.9,7.9-7.3,10.8c-2.3,2.9-4.6,5.5-6.7,7.5
			c-2.1,2.1-4.5,4.2-7.7,4.7c-0.5,1-1.2,1.9-2,2.8c-2,2.3-5.5,4.7-11.3,7.8c-13.8,7.2-28.6,11.4-44,12.6
			C655.8,1289.6,653.2,1289.8,651.2,1289.8z"/>
		<path class="st7" d="M585.3,1216.7c-0.4-1.8-0.6-4.2-0.8-7.2c-0.2-3-0.3-6-0.4-9.2c-0.1-3.2-0.1-6.3,0-9.3
			c0.1-3.1,0.3-5.6,0.7-7.6c1.4-10.8,4.2-21.1,8.4-30.8c4.1-9.7,9.3-18.6,15.5-26.5c6.2-7.9,13.3-14.7,21.2-20.3
			c7.9-5.6,16.4-9.6,25.4-12.2c2.3-0.5,4-0.9,4.9-1.1c0.9-0.2,2.4-0.1,4.6,0.3c5.8,0.5,11.7,2.3,17.7,5.4c6,3.1,11.8,6.8,17.4,11.1
			c5.6,4.3,10.8,9.1,15.5,14.2c4.8,5.1,8.7,10,11.8,14.7c1.1,2,1.7,3.2,1.9,3.5c0.2,0.4,0,0.6-0.5,0.8c-0.9,0-1.4-0.1-1.4-0.3
			c-0.2-0.2-0.6-0.3-1.4-0.3c-0.9,0.4-1.8-0.1-2.7-1.4c-1.3-0.9-2.1-1.4-2.4-1.4c0,0.2,0,0.5,0,0.8c-0.2,0.2-0.3,0.8-0.3,1.9
			c0,2,0.4,3.1,1.1,3.2c0.7,0,1.3,0.5,1.6,1.4c0.4,0.9,0,1.8-0.9,2.7c-1,0.9-3,1.9-6.1,3c-9.6,3.4-16.4,5.9-20.4,7.3
			c-4.1,1.4-6.3,2.1-6.6,1.9c-0.5,0-1-0.7-1.4-2.2c-0.5-1.6-1.6-3.6-3.2-5.8c-1.6-2.3-3.5-4.5-5.5-6.6c-2.1-2.2-4.1-4.1-6.2-5.9
			c-2.1-1.8-3.8-3.1-5.3-3.8l-2.2-1.1l-2.2,1.9c-4.1,3.6-7.9,8.9-11.2,15.8c-3.3,6.9-5.9,15-7.7,24.2c-0.2,1.3-0.4,2.5-0.5,3.6
			c-0.2,1.2-0.3,2.4-0.4,3.8c-0.1,1.4-0.1,2.9-0.1,4.7c0,1.8,0,4,0,6.5c0,3.2,0,6,0.1,8.4c0.1,2.3,0.3,4.5,0.5,6.5
			c0.3,2,0.7,3.9,1.2,5.7c0.5,1.8,1.2,3.8,1.9,5.9c1.6,4.5,3.8,8.5,6.5,12c2.7,3.5,5,5.3,7,5.3c2.2,0,4.5-0.6,6.9-1.8
			c2.4-1.2,4.9-2.7,7.4-4.6c2.5-1.9,4.9-4.1,7-6.6c2.2-2.5,4.1-5.1,5.7-7.8c1.4-2.5,2.3-4.1,2.4-4.9c0.2-0.7-0.2-1.3-1.1-1.6
			c-1.1-0.2-1.7-0.9-1.9-2.2c-0.4-1.3-0.8-2-1.4-2.2c-0.7-0.5-1-1.4-0.8-2.7c0.2-1.4-0.1-2.7-0.8-3.8c-0.4-0.9-0.5-1.6-0.5-2.2
			c0-0.5,0.4-2.1,1.4-4.6c0.9-3.2,1.6-5.1,2.2-5.7c0.2,0,1.8,0.3,5,0.9c3.2,0.6,6.9,1.4,11.2,2.3c4.3,1.1,9.2,2.3,14.7,3.5
			c5.5,1.3,10,2.3,13.4,3l12.4,3l-0.3,2.7c-0.2,2.7-0.9,6-2,9.9c-1.2,3.9-2.7,7.8-4.5,11.9c-1.8,4.1-3.8,8-6.1,11.9
			c-2.3,3.9-4.5,7.2-6.6,9.9c-2.2,2.7-4.2,5-6.1,6.9c-1.9,1.9-3,2.7-3.4,2.3c-0.2-0.4,0-0.7,0.5-1.1c0.4-0.4,0.5-0.9,0.5-1.5
			c0-0.6-0.3-1-0.8-1.2c-0.5,0-0.8-0.4-0.8-1.1c0-2.3-1.2-1.6-3.5,2.2c-0.5,0.7-0.9,1.4-0.9,1.9c-0.1,0.5-0.1,1.1-0.1,1.6
			c0.4,1.6-0.1,3.2-1.5,4.7c-1.4,1.5-4.4,3.6-9.1,6.1c-12.8,6.7-26.4,10.5-40.8,11.6c-3.8,0.4-6.5,0.5-8.2,0.4
			c-1.7-0.1-3.9-0.3-6.6-0.7c-8.1-1.6-15.4-4.4-21.9-8.2c-6.5-3.9-12.2-8.7-17-14.3c-4.9-5.7-8.9-12.1-12.2-19.2
			C589.1,1232.2,586.8,1224.7,585.3,1216.7z M605.9,1187c-0.7,0.5-0.5,1.7,0.5,3.5c0.7,1.4,1.1,2.4,1.1,3c-0.4,4.7-0.1,7,0.8,7
			c0.5,0,0.8-0.6,0.8-1.9c0.4-1.3,0.8-2,1.4-2.2c0.5-0.5,0.8-1.1,0.8-1.6c0-0.5,0.9-1.2,2.7-1.9c3.6-1.6,3.6-2.4,0-2.4
			c-2,0-3.1-0.4-3.2-1.1c-0.5-0.7-1.2-1.1-1.9-1.1c-0.9,0-1.5-0.3-1.9-0.8C606.8,1186.8,606.4,1186.6,605.9,1187z"/>
		<path class="st4" d="M1273.3,1289.3c-0.4,0-0.7,0-1.1-0.1c-1.2-0.2-2.2-0.3-2.9-0.4c-3.3-0.4-6.1-2.3-7.6-5.3
			c-0.8-1.5-1.2-3.3-1.4-5.7c-0.1-1.4-0.2-3.4-0.2-6.2v-9.2c0-2.2,0.9-4.2,2.4-5.7c-1.4-1.5-2.1-3.4-2.1-5.4c0-8.4,0-16.2-0.1-23.4
			c-0.1-7.2-0.1-15.6-0.1-25.2v-30.5c0-16.2,0-29.4-0.1-39.7c-0.1-10.3-0.1-18.3-0.1-24.1c0-6,0-10,0.1-12.4c0.1-3.5,0.3-6.5,2.7-9
			c1.3-1.3,3.7-2.9,7.4-2.9c0,0,6.9,0,7,0c13,0.6,26.1,3.1,39,7.6c12.7,4.4,25.1,10.2,36.7,17.2c11.5,7,22.5,15,32.6,24
			c10,8.8,19.1,18.2,26.8,27.8c0.7,0.8,1.4,1.8,2.2,3c0.4,0.6,0.8,1.2,1.2,1.7c0.7,0.8,1.8,2.3,3.1,4.3c1.4,1.9,2.7,3.9,3.9,5.9
			c1.2,2,2.3,3.8,3.4,5.6c1.1,1.9,1.8,3.3,2.2,4.1c0.1,0.1,0.1,0.2,0.2,0.4c0.7,1.6,1.1,2.4,1.4,2.8c1,1.5,2,3.7,3.3,6.7
			c1.1,2.7,2.2,5.7,3.3,8.7c1,3,1.9,5.7,2.6,8.1c1,3.4,1.4,5.3,1.4,6.9c0,3-1.5,5.2-3.2,7.5c-0.1,0.1-0.2,0.2-0.3,0.3
			c-1.3,1.5-2.4,2.7-3.7,3.5c0,1.3-0.2,2.8-0.8,4.3c-0.8,2.6-2.6,5.1-5.3,7.5c-2.1,1.8-5.2,4.1-9.5,6.9c-7.2,4.8-15.8,9.5-25.5,14
			c-9.6,4.4-19.9,8.4-30.5,11.8c-10.6,3.4-21.5,6.3-32.5,8.7c-11.1,2.4-22,4.1-32.3,5c-1.6,0.2-3.7,0.3-6.1,0.4l-6.5,0.3
			c-2.3,0.1-4.4,0.1-6.4,0.1H1273.3z M1335,1169.1c-0.4,3.7-0.6,8.6-0.6,14.4c-0.1,7.1,0,14.3,0.1,21.3c0.2,6.4,0.4,12,0.8,16.7
			c0.4-0.1,0.8-0.3,1.3-0.4c4.8-1.6,9.9-3.5,15.1-5.6c5.4-2.2,10.5-4.4,15.3-6.5c1.4-0.6,2.5-1.1,3.5-1.6c-1.7-2.8-3.8-5.8-6.2-8.9
			c-3.3-4.1-6.8-8.2-10.5-12.2c-3.7-3.9-7.6-7.8-11.7-11.3C1339.7,1172.8,1337.4,1170.9,1335,1169.1z"/>
		<path class="st5" d="M1268.4,1251.3c0-8.5,0-16.3-0.1-23.5c-0.1-7.2-0.1-15.6-0.1-25.1c0-9.6,0-19.7,0-30.5
			c0-16.2,0-29.5-0.1-39.7c-0.1-10.3-0.1-18.3-0.1-24.1c0-5.8,0-9.8,0.1-12c0.1-2.3,0.2-3.5,0.4-3.6c0.4-0.4,0.9-0.5,1.8-0.5
			c0.8,0,3,0,6.6,0c12.3,0.5,24.5,2.9,36.8,7.2c12.3,4.2,24,9.7,35.1,16.5c11.2,6.8,21.7,14.5,31.5,23.1c9.8,8.7,18.5,17.7,26.1,27
			c0.4,0.4,0.8,1,1.4,1.9c0.5,0.9,1.1,1.7,1.6,2.4c0.7,0.9,1.7,2.3,3,4.1c1.3,1.8,2.5,3.6,3.6,5.5c1.2,1.9,2.3,3.7,3.2,5.4
			c1,1.7,1.7,2.9,2,3.6c0.7,1.6,1.4,2.9,1.9,3.8c0.7,1.1,1.6,2.9,2.7,5.5c1.1,2.6,2.1,5.4,3.1,8.2c1,2.9,1.8,5.5,2.6,7.8
			c0.7,2.3,1.1,3.9,1.1,4.6c0,0.4-0.5,1.3-1.6,2.7c-0.9,1.1-1.5,1.7-1.9,1.9c-0.4,0.2-1.1,0.3-2.2,0.3l-2.2-0.3l-0.3,1.9
			c0,1.1-0.3,1.9-0.8,2.4c-0.4,0.4-0.1,0.8,0.8,1.4c0.4,0.4,0.6,0.7,0.8,0.9c0.2,0.3,0.1,0.9-0.3,1.8c-0.4,1.3-1.4,2.7-3.1,4.2
			c-1.7,1.5-4.6,3.6-8.5,6.1c-7,4.7-15.2,9.2-24.6,13.5c-9.4,4.3-19.2,8.2-29.6,11.5c-10.4,3.3-20.9,6.2-31.8,8.5
			c-10.8,2.3-21.3,4-31.4,4.9c-1.6,0.2-3.5,0.3-5.7,0.4c-2.2,0.1-4.3,0.2-6.5,0.3c-2.2,0.1-4.2,0.1-6.1,0.1c-1.9,0-3.4,0-4.5,0
			c-1.3-0.2-2.3-0.3-3-0.4c-0.7-0.1-1.2-0.4-1.5-0.9c-0.3-0.5-0.5-1.4-0.5-2.7c-0.1-1.3-0.1-3.2-0.1-5.7v-9.2l1.9-1.4
			c0.7-0.7,1.4-1.1,1.9-1.2c0.5-0.1,1.3-0.1,2.2-0.1c1.6,0,2.6,0.4,3,1.1c1.3,2.2,1.7,1.5,1.4-1.9v-2.7l-2.2,0.3
			c-1.3,0-1.9-0.2-1.9-0.5c0-0.2-0.5-0.3-1.4-0.3c-0.5,0-0.9-0.1-1.1-0.4c-0.2-0.3-0.5-0.9-0.8-2c0-0.9-0.5-1.4-1.4-1.4
			C1269.2,1251.9,1268.8,1251.7,1268.4,1251.3z M1285.2,1118.1c-0.2,0-0.4,0.8-0.5,2.4c-0.2,1.6-0.2,3.5-0.1,5.7
			c0.1,2.2,0.2,4.2,0.4,6.2c0.2,2,0.4,3.3,0.5,4.1c0.2,0.4,0.4,0.5,0.8,0.5c0.4,0,0.5-0.2,0.5-0.5c0-0.2,0.2-1.3,0.5-3.2
			c0.4-2,0.6-3.2,0.8-3.8c0-0.4,0.1-0.7,0.4-0.9c0.3-0.3,0.6-0.6,0.9-0.9c0.5-0.5,0.9-1.2,1.1-2c0.2-0.8,0.3-1.6,0.3-2.3
			c0.4-0.9,0.2-1.3-0.4-1.2c-0.6,0.1-1.1,0.6-1.5,1.5c-0.4,0.9-0.8,1.4-1.4,1.4c-0.4,0-0.6-0.3-0.8-0.8c-0.2-0.5-0.5-1.7-0.8-3.5
			C1285.6,1118.9,1285.4,1118.1,1285.2,1118.1z M1327.4,1165.9c-0.5,4.3-0.9,10.1-0.9,17.4c-0.1,7.3,0,14.5,0.1,21.6
			c0.2,7.1,0.5,13.2,0.9,18.4c0.4,5.1,0.9,7.7,1.5,7.7c1.8,0,5.2-0.8,10.1-2.4c5-1.6,10.2-3.6,15.7-5.8c5.5-2.3,10.7-4.5,15.5-6.6
			c4.9-2.2,8-3.8,9.5-4.9l1.6-1.4l-2.4-4.1c-2.2-4-5-8.1-8.4-12.4c-3.4-4.3-7.1-8.6-10.9-12.7c-3.9-4.1-8-8.1-12.3-11.9
			c-4.3-3.8-8.6-7.1-12.7-10c-2.7-1.8-4.3-2.8-4.9-3c-0.5-0.2-0.9-0.1-1.1,0.3c-0.2,0.4-0.4,1.4-0.5,3.2
			C1328,1161.2,1327.7,1163.4,1327.4,1165.9z"/>
	</g>
	<path class="st3" d="M833.4,1290.8c-59-25-86.6-93.3-61.6-152.2c13.1-31,39-54.7,71.1-65.1c26.6-8.6,55.4-7.4,81.2,3.5
		c59,25,86.6,93.3,61.6,152.2c-12.2,28.7-34.8,50.9-63.7,62.5C893.3,1303.1,861.9,1302.8,833.4,1290.8z"/>
	<path class="st15" d="M950.7,1101.5c-32.3-27-71.8-32.4-105.6-21.4c-38.6,12.5-70,46.5-75.2,94.1c-4,36.7,11.9,72.9,41.2,95.3
		c33.7,25.8,74.5,29.1,108.3,15.5c35-14,62.7-46.1,68.1-90.1C991.8,1159.7,978,1124.3,950.7,1101.5z"/>
	<path class="st17" d="M921.3,1083.4c-25.2-10.7-52.1-11.2-76.2-3.3c-29,9.4-53.9,30.9-66.7,61.2c-23.5,55.5,2.4,119.5,57.9,143
		c27.6,11.7,57.4,11.2,83.2,0.8c26-10.4,48-30.8,59.8-58.7C1002.7,1171,976.8,1106.9,921.3,1083.4z"/>
	<path class="st3" d="M1110.6,1298.8c-77.5-12.9-117.9-92.7-89.3-160.2c13.1-31,39-54.7,71.1-65.1c26.6-8.6,55.4-7.4,81.2,3.5
		c59,25,86.6,93.3,61.6,152.2c-15.5,36.5-47.9,62.5-88.6,69.5C1134.6,1300.7,1122.4,1300.8,1110.6,1298.8z"/>
	<path class="st13" d="M1200.1,1101.5c-32.3-27-71.8-32.4-105.6-21.4c-38.6,12.5-70,46.5-75.2,94.1c-4,36.7,11.9,72.9,41.2,95.3
		c33.7,25.8,74.5,29.1,108.3,15.5c35-14,62.7-46.1,68.1-90.1C1241.2,1159.7,1227.4,1124.3,1200.1,1101.5z"/>
	<path class="st17" d="M1200.1,1101.5c-32.3-27-71.8-32.4-105.6-21.4c-38.6,12.5-70,46.5-75.2,94.1c-4,36.7,11.9,72.9,41.2,95.3
		c33.7,25.8,74.5,29.1,108.3,15.5c35-14,62.7-46.1,68.1-90.1C1241.2,1159.7,1227.4,1124.3,1200.1,1101.5z"/>
	<g>
		
			<ellipse transform="matrix(0.7071 -0.7071 0.7071 0.7071 -506.6385 1144.8265)" class="st19" cx="1128.6" cy="1184" rx="88.7" ry="88.7"/>
		<path class="st19" d="M1082.4,1208c-3.4-2.7-3.9-7.7-1.1-11c2.7-3.4,7.7-3.9,11-1.1c3.4,2.7,3.9,7.7,1.1,11
			C1090.7,1210.3,1085.8,1210.8,1082.4,1208z"/>
		<path class="st19" d="M1132.9,1146c-3.4-2.7-3.9-7.7-1.1-11c2.7-3.4,7.7-3.9,11-1.1s3.9,7.7,1.1,11
			C1141.2,1148.2,1136.2,1148.8,1132.9,1146z"/>
		<path class="st19" d="M1170.2,1156.4c11.8,17.7,11.3,41.8-2.9,59.1c-14.1,17.4-37.6,22.8-57.3,14.8"/>
		<line class="st19" x1="1110.7" y1="1226" x2="1108.4" y2="1235.8"/>
		<line class="st19" x1="1166.1" y1="1157.9" x2="1175.3" y2="1153.6"/>
	</g>
	<g>
		<path class="st17" d="M831.2,1163.4c0-4.3,3.5-7.8,7.8-7.8c4.3,0,7.8,3.5,7.8,7.8c0,4.3-3.5,7.8-7.8,7.8
			C834.7,1171.1,831.2,1167.7,831.2,1163.4z"/>
		<path class="st17" d="M910.5,1163.4c0-4.3,3.5-7.8,7.8-7.8c4.3,0,7.8,3.5,7.8,7.8c0,4.3-3.5,7.8-7.8,7.8
			C913.9,1171.1,910.5,1167.7,910.5,1163.4z"/>
		
			<ellipse transform="matrix(0.7071 -0.7071 0.7071 0.7071 -579.7754 968.005)" class="st17" cx="878.6" cy="1183.9" rx="88" ry="88"/>
		<path class="st17" d="M925.9,1198.6c-6.3,20.2-25.1,34.8-47.3,34.8c-22.2,0-41-14.6-47.3-34.8L925.9,1198.6z"/>
	</g>
	<g>
		<circle class="st14" cx="795.9" cy="789.6" r="96.7"/>
		<path class="st14" d="M743.7,767.1c0-4.7,3.8-8.5,8.5-8.5s8.5,3.8,8.5,8.5c0,4.7-3.8,8.5-8.5,8.5S743.7,771.8,743.7,767.1z"/>
		<path class="st14" d="M830.9,767.1c0-4.7,3.8-8.5,8.5-8.5s8.5,3.8,8.5,8.5c0,4.7-3.8,8.5-8.5,8.5S830.9,771.8,830.9,767.1z"/>
		<path class="st14" d="M848.7,805.8c-14,12.7-32.5,20.4-52.9,20.4c-20.4,0-38.9-7.7-52.9-20.4"/>
		<line class="st14" x1="748" y1="803.4" x2="738.1" y2="808.2"/>
		<line class="st14" x1="843.7" y1="803.4" x2="853.7" y2="808.2"/>
		<path class="st14" d="M774,823.2v19.3c0,12.1,9.8,21.9,21.9,21.9s21.9-9.8,21.9-21.9v-19.3"/>
		<line class="st14" x1="795.9" y1="826.2" x2="795.9" y2="840.4"/>
	</g>
	<g>
		<path class="st18" d="M1295.4,1584.4c-1.8-2.1-3.4-4.3-5-6.6c-29.6-42.4-19.3-100.8,23.1-130.4c42.4-29.6,100.8-19.3,130.4,23.1
			c29.6,42.4,19.3,100.8-23.1,130.4c-25.7,18-57.3,21.2-84.8,11.6"/>
		<path class="st18" d="M1314.5,1540.2c-0.3-4,1.4-8.1,4.9-10.5c3.3-2.3,7.4-2.7,10.8-1.3"/>
		<path class="st18" d="M1400.3,1480.3c-3.6-1.7-8.1-1.5-11.6,1c-3.3,2.3-5,6-5,9.7"/>
		<path class="st18" d="M1403.4,1562.3c-0.9,2.5-2.5,4.7-4.9,6.3c-6,4.2-14.3,2.7-18.5-3.3c-2.1-3-2.8-6.5-2.2-9.9
			c0.3-1.6,0.8-3.1,1.7-4.6l0,0c-1.6,0.3-3.3,0.3-4.9,0c-3.3-0.6-6.4-2.5-8.5-5.5c-4.2-6-2.7-14.3,3.3-18.5c2.3-1.6,4.9-2.4,7.6-2.4
			"/>
		<path class="st18" d="M1328.2,1563.2c-8.1,1-13.9,8.4-12.9,16.5c0.3,2.3,0.8,3.6,2,5.5c-1.4-1.8-2.4-2.7-4.5-3.8
			c-7.3-3.7-16.2-0.8-19.9,6.4c-2.2,4.4-2.1,9.7,0.2,14c4.6,8.3,15.8,7.7,24,8.5c6.3,0.7,12.6,1.2,19,1.7c1.5-5.4,2.9-10.9,4.3-16.4
			c1-4,2-8,2.9-12c1.2-5.4,2-10.1-1.6-14.8C1338.7,1564.8,1333.4,1562.5,1328.2,1563.2z"/>
	</g>
	<g>
		
			<ellipse transform="matrix(0.7071 -0.7071 0.7071 0.7071 -284.0427 990.2386)" class="st16" cx="1053.3" cy="838" rx="91.1" ry="91.1"/>
		<path class="st16" d="M1042.3,797.2c-1.6-3-5.3-4.2-8.4-2.6c-0.9,0.4-1.3,0.9-1.9,1.6c0.5-0.8,0.7-1.3,0.8-2.3
			c0.4-3.4-2.1-6.5-5.5-6.9c-2-0.2-4.1,0.6-5.4,2.1c-2.6,3-0.7,7.3,0.2,10.7c0.7,2.6,1.4,5.1,2.1,7.7c2.4-0.2,4.7-0.5,7.1-0.7
			c1.7-0.2,3.4-0.4,5.1-0.6c2.3-0.3,4.3-0.7,5.6-2.8C1043.3,801.5,1043.4,799.1,1042.3,797.2z"/>
		<path class="st16" d="M1095.3,833.6c3.4,0.4,5.9,3.5,5.5,6.9c-0.1,1-0.3,1.5-0.8,2.3c0.6-0.7,1-1.2,1.9-1.6c3-1.6,6.8-0.4,8.4,2.6
			c0.9,1.8,0.9,4-0.1,5.8c-1.9,3.5-6.6,3.3-10,3.7c-2.6,0.3-5.3,0.6-8,0.8c-0.6-2.3-1.3-4.6-1.9-6.8c-0.4-1.7-0.9-3.3-1.3-5
			c-0.5-2.3-0.9-4.2,0.6-6.2C1091,834.3,1093.2,833.4,1095.3,833.6z"/>
		<path class="st16" d="M1085,878.3c-17.2,13.5-41.8,15-60.8,1.9s-26.4-36.6-19.9-57.4"/>
		<line class="st16" x1="1008.8" y1="823.2" x2="998.6" y2="821.6"/>
		<line class="st16" x1="1083.1" y1="874.2" x2="1088.2" y2="883.2"/>
	</g>
	<g>
		
			<ellipse transform="matrix(0.1602 -0.9871 0.9871 0.1602 -1174.3579 1666.2888)" class="st17" cx="392.1" cy="1523.3" rx="85.7" ry="85.7"/>
		<path class="st17" d="M438.2,1537.6c-6.1,19.6-24.4,33.9-46.1,33.9c-21.7,0-40-14.3-46.1-33.9"/>
		<line class="st17" x1="349.6" y1="1535.5" x2="340.8" y2="1539.7"/>
		<line class="st17" x1="434.5" y1="1535.5" x2="443.3" y2="1539.7"/>
		<path class="st17" d="M344.2,1502.7c1.8,3.2,5.3,5.3,9.2,5.3c3.7,0,6.9-1.9,8.8-4.7"/>
		<path class="st17" d="M440,1502.7c-1.8,3.2-5.3,5.3-9.2,5.3c-3.7,0-6.9-1.9-8.8-4.7"/>
	</g>
	<line class="st20" x1="552.7" y1="377" x2="552.7" y2="500.8"/>
	<path class="st20" d="M810.8,396.1c0,0-38.6,56.5-45.6,84.1"/>
	<line class="st20" x1="957.8" y1="420" x2="959.4" y2="482.9"/>
	<line class="st20" x1="1139.5" y1="420" x2="1141.1" y2="481.6"/>
	<line class="st20" x1="1320.6" y1="405.5" x2="1347.2" y2="434.7"/>
	<path class="st20" d="M1370.7,490.6c0,0,1,35.3,0,34.4"/>
	<line class="st20" x1="522.2" y1="755.5" x2="522.2" y2="839.1"/>
	<line class="st20" x1="1200.2" y1="751.1" x2="1198.7" y2="807.2"/>
	<path class="st20" d="M1438.7,744.7c0,0-50.1,22-59.2,64.7"/>
	<path class="st20" d="M659.4,1100.7c0,0-40.6,16.5-55.8,52.9"/>
	<line class="st20" x1="1278.2" y1="1153.6" x2="1278.2" y2="1232.5"/>
	<line class="st20" x1="562.3" y1="1467.1" x2="564" y2="1558.6"/>
	<line class="st20" x1="1032" y1="1470.3" x2="1067.3" y2="1507.9"/>
	<line class="st20" x1="1086.3" y1="1564" x2="1086.3" y2="1604.4"/>
	<line class="st20" x1="1536.2" y1="1452.3" x2="1534.9" y2="1537"/>
	<circle class="st3" cx="308.7" cy="1357.5" r="57.2"/>
	<circle class="st3" cx="1012" cy="1669.3" r="57.2"/>
	<circle class="st3" cx="1750.8" cy="1363.8" r="28.6"/>
	<circle class="st3" cx="1546" cy="958.4" r="57.2"/>
	<circle class="st3" cx="459.5" cy="396.1" r="68.5"/>
	<circle class="st3" cx="488.3" cy="253.8" r="39.7"/>
	<circle class="st3" cx="1534.9" cy="1074.8" r="31.6"/>
</g>
</svg>
