<?xml version="1.0" encoding="utf-8"?>
<!-- Generator: Adobe Illustrator 26.1.0, SVG Export Plug-In . SVG Version: 6.00 Build 0)  -->
<svg version="1.1" id="Слой_1" xmlns="http://www.w3.org/2000/svg" xmlns:xlink="http://www.w3.org/1999/xlink" x="0px" y="0px"
	 viewBox="0 0 2000 2000" style="enable-background:new 0 0 2000 2000;" xml:space="preserve">
<style type="text/css">
	.st0{fill:#FADEDB;}
	.st1{fill:#FF8C88;}
	.st2{fill:#FFFFFF;}
	.st3{fill:#FF7A9B;}
	.st4{fill:#FF5D72;}
</style>
<g>
	<rect class="st0" width="2000" height="2000"/>
	<g>
		<g>
			<path class="st1" d="M1835.8,1427.7c-6.8-9-15.1-16.4-23.6-22.4c4.1-2.9,7.6-6.7,10.2-11.1l13.3-22.7c5-8.5,6.2-18.8,3.5-28.2
				c-2.8-9.5-9.4-17.5-18.2-22.1c-26.1-13.5-54.5-20.6-82.1-20.6c-5,0-10,0.2-14.9,0.7c-23.8,2.3-46,12.3-62.5,27.5
				c-6.4-8.5-15.3-14.8-25.7-18c-27.4-8.3-55.9-12.7-84.7-13.2c-1.5,0-3.1,0-4.6,0c-26.1,0-52.1,3.3-77.3,9.8
				c-8,2.1-15.1,6-20.9,11.1c-5-3.6-11.1-5.7-17.7-5.7c-0.2,0-0.6,0-0.8,0l-44.5,1.1c-13.4,0.3-25,9.6-28.2,22.6
				c-0.5,1.8-0.9,3.6-1.3,5.5c-0.6-4.7-1.2-9.3-1.9-13.8c-2.2-14.7-14.6-25.4-29.6-25.4c-0.2,0-44.9,0.8-44.9,0.8
				c-11.2,0.2-21.1,6.6-26,16.2c-19.6-15-46.5-23.3-80-24.6c-0.2,0-0.4,0-0.7,0l-1.6,0c-43.8,0-77.9,22.2-99.9,53
				c-1.4-4.3-2.9-8.6-4.5-12.8c-7.2-18.5-25.4-31-45.2-31c-5,0-9.9,0.8-14.7,2.3c-13.9,4.4-24.8,14.9-30.2,27.9
				c-2-6-5.3-11.5-9.6-16.4c-8.6-9.7-20.5-15.5-33.4-16.3l-21.2-1.3c-1-0.1-2-0.1-3-0.1c-21.4,0-40,13.7-46.3,34
				c-0.8,2.6-1.6,5.3-2.3,8c-8.7-11.9-19.3-21.9-31.7-29.7c-16.9-10.9-37.1-16.6-58.4-16.6c-33.3,0-65.9,14.1-87,37.5
				c-0.9,1-1.8,2.1-2.7,3.1c-2.8-13.9-14.9-23.9-29.3-23.9c-0.2,0-0.6,0-0.8,0l-44.5,1.1c-13.4,0.3-25,9.6-28.2,22.6
				c-0.5,1.8-0.9,3.6-1.3,5.5c-0.6-4.7-1.2-9.3-1.9-13.8c-2.2-14.7-14.6-25.4-29.6-25.4c-0.2,0-44.9,0.8-44.9,0.8
				c-10.5,0.2-19.9,5.9-25.1,14.5c-4.4-3.2-9.4-5.6-14.7-7.3c-27.4-8.3-55.9-12.7-84.7-13.2c-1.5,0-3.1,0-4.6,0
				c-26.1,0-52.1,3.3-77.3,9.8c-26.1,6.7-42.3,32.7-36.9,59.1l0.4,2.1c4.8,23.4,25.5,40.3,49.3,40.3c0.7,0,1.3,0,2,0l2.6-0.1
				c0.1,0,0.2,0.1,0.2,0.1c-3.4,42.7,0,87.4,9.5,125.8c5.6,22.6,25.8,38.5,49,38.5l1.2,0c23.6-0.5,43.5-17.1,48.3-40.4
				c7.9-38.2,11.4-81.8,9.9-122.9c0,0,0.2-0.2,0.2-0.2c4.3,0.2,8.5,0.5,12.8,0.7c1.1,0.1,2.1,0.1,3.2,0.1c5.5,0,10.8-0.9,15.8-2.5
				c-1.8,48.7,3.3,99.6,15.1,141.3c3.6,12.8,15.4,21.7,28.8,21.7c0.2,0,32.2-0.6,32.2-0.6c13.8-0.2,25.5-9.8,28.6-23.2
				c3.2-14,6-28.9,8.1-44.5c2.6,14.6,5.9,28.3,9.9,41c3.9,12.5,15.4,20.9,28.5,20.9c0.2,0,0.5,0,0.8,0l31.8-0.8
				c13.5-0.3,25.1-9.7,28.3-22.8c0.9-3.8,1.7-7.7,2.6-11.6c8.4,12.5,19.4,23.2,32.7,31.5c15.6,9.8,34.3,14.9,54,14.9
				c20,0,40.3-5.1,58.7-14.8c20.6-10.8,37.1-26.7,48.7-46.3c7,13,15.8,24.7,26.9,34.2c0.2,0.2,0.5,0.4,0.7,0.6
				c18.2,14.6,39.8,22.3,62.6,22.3c39.6,0,77.3-22.9,97.1-58.1c4.7,9.3,10.4,17.9,17,25.5c22.2,25.5,53.1,39,89.1,39
				c2.6,0,5.2-0.1,7.8-0.2c35.1-1.7,63-18.9,79.3-46.7c1.4,6.1,2.8,12.1,4.5,17.8c3.6,12.8,15.4,21.7,28.8,21.7
				c0.2,0,32.2-0.6,32.2-0.6c13.8-0.2,25.5-9.8,28.6-23.2c3.2-14,6-28.9,8.1-44.5c2.6,14.6,5.9,28.3,9.9,41
				c3.9,12.5,15.4,20.9,28.5,20.9c0.2,0,0.5,0,0.8,0l31.8-0.8c13.5-0.3,25.1-9.7,28.3-22.8c4.6-19.2,8.2-40,10.5-61.8
				c5.3-5.9,8.2-13.7,7.6-22l-1.6-23.5c-0.2-3.6-1.2-6.9-2.8-9.9c0.1-5.9,0-11.7-0.1-17.4c5,1.7,10.3,2.6,15.8,2.6c0.7,0,1.3,0,2,0
				l2.6-0.1c0.1,0,0.2,0.1,0.2,0.1c-3.4,42.7,0,87.4,9.5,125.8c5.6,22.6,25.8,38.5,49,38.5l1.2,0c23.6-0.5,43.5-17.1,48.3-40.4
				c7.9-38.2,11.4-81.8,9.9-122.9c0,0,0.2-0.2,0.2-0.2c4.3,0.2,8.5,0.5,12.8,0.7c1.1,0.1,2.1,0.1,3.2,0.1c5,0,9.8-0.7,14.4-2.1
				c0.4,1.7,0.8,3.4,1.3,5.1c3.1,11.5,8.9,22.2,17.3,31.8c-10.8,6.1-18.3,17.6-18.4,30.7c-0.5,32.3,14.3,61.8,39.7,79.2
				c20.6,13.8,45.9,21.5,71.3,21.5c20.2,0,39.7-4.9,56.2-14.2c23.9-13.5,40.3-36.4,46.1-64.5
				C1854.2,1471.9,1849.4,1445.6,1835.8,1427.7z M1174.3,1406.7c0.9-1.1,1.8-2,2.8-2.9c0.9-0.7,3.3-1.4,7.3-1.4
				c4.2,0,8.9,0.8,13,1.6C1189.8,1404.5,1182.1,1405.4,1174.3,1406.7z M1219.5,1404c1.8-0.8,3.5-1.8,5.1-3l17.3-13.4
				c-0.5,6.3-0.9,12.7-1.2,19.2C1233.9,1405.4,1226.9,1404.5,1219.5,1404z"/>
			<path class="st2" d="M1822.3,1402.7c-6.8-9-15.1-16.4-23.6-22.4c4.1-2.9,7.6-6.7,10.2-11.1l13.3-22.7c5-8.5,6.2-18.8,3.5-28.2
				c-2.8-9.5-9.4-17.5-18.2-22.1c-26.1-13.5-54.5-20.6-82.1-20.6c-5,0-10,0.2-14.9,0.7c-23.8,2.3-46,12.3-62.5,27.5
				c-6.4-8.5-15.3-14.8-25.7-18c-27.4-8.3-55.9-12.7-84.7-13.2c-1.5,0-3.1,0-4.6,0c-26.1,0-52.1,3.3-77.3,9.8
				c-8,2.1-15.1,6-20.9,11.1c-5-3.6-11.1-5.7-17.7-5.7c-0.2,0-0.6,0-0.8,0l-44.5,1.1c-13.4,0.3-25,9.6-28.2,22.6
				c-0.5,1.8-0.9,3.6-1.3,5.5c-0.6-4.7-1.2-9.3-1.9-13.8c-2.2-14.7-14.6-25.4-29.6-25.4c-0.2,0-44.9,0.8-44.9,0.8
				c-11.2,0.2-21.1,6.6-26,16.2c-19.6-15-46.5-23.3-80-24.6c-0.2,0-0.4,0-0.7,0l-1.6,0c-43.8,0-77.9,22.2-99.9,53
				c-1.4-4.3-2.9-8.6-4.5-12.8c-7.2-18.5-25.4-31-45.2-31c-5,0-9.9,0.8-14.7,2.3c-13.9,4.4-24.8,14.9-30.2,27.9
				c-2-6-5.3-11.5-9.6-16.4c-8.6-9.7-20.5-15.5-33.4-16.3l-21.2-1.3c-1-0.1-2-0.1-3-0.1c-21.4,0-40,13.7-46.3,34
				c-0.8,2.6-1.6,5.3-2.3,8c-8.7-11.9-19.3-21.9-31.7-29.7c-16.9-10.9-37.1-16.6-58.4-16.6c-33.3,0-65.9,14.1-87,37.5
				c-0.9,1-1.8,2.1-2.7,3.1c-2.8-13.9-14.9-23.9-29.3-23.9c-0.2,0-0.6,0-0.8,0l-44.5,1.1c-13.4,0.3-25,9.6-28.2,22.6
				c-0.5,1.8-0.9,3.6-1.3,5.5c-0.6-4.7-1.2-9.3-1.9-13.8c-2.2-14.7-14.6-25.4-29.6-25.4c-0.2,0-44.9,0.8-44.9,0.8
				c-10.5,0.2-19.9,5.9-25.1,14.5c-4.4-3.2-9.4-5.6-14.7-7.3c-27.4-8.3-55.9-12.7-84.7-13.2c-1.5,0-3.1,0-4.6,0
				c-26.1,0-52.1,3.3-77.3,9.8c-26.1,6.7-42.3,32.7-36.9,59.1l0.4,2.1c4.8,23.4,25.5,40.3,49.3,40.3c0.7,0,1.3,0,2,0l2.6-0.1
				c0.1,0,0.2,0.1,0.2,0.1c-3.4,42.7,0,87.4,9.5,125.8c5.6,22.6,25.8,38.5,49,38.5l1.2,0c23.6-0.5,43.5-17.1,48.3-40.4
				c7.9-38.2,11.4-81.8,9.9-122.9c0,0,0.2-0.2,0.2-0.2c4.3,0.2,8.5,0.5,12.8,0.7c1.1,0.1,2.1,0.1,3.2,0.1c5.5,0,10.8-0.9,15.8-2.5
				c-1.8,48.7,3.3,99.6,15.1,141.3c3.6,12.8,15.4,21.7,28.8,21.7c0.2,0,32.2-0.6,32.2-0.6c13.8-0.2,25.5-9.8,28.6-23.2
				c3.2-14,6-28.9,8.1-44.5c2.6,14.6,5.9,28.3,9.9,41c3.9,12.5,15.4,20.9,28.5,20.9c0.2,0,0.5,0,0.8,0l31.8-0.8
				c13.5-0.3,25.1-9.7,28.3-22.8c0.9-3.8,1.7-7.7,2.6-11.6c8.4,12.5,19.4,23.2,32.7,31.5c15.6,9.8,34.3,14.9,54,14.9
				c20,0,40.3-5.1,58.7-14.8c20.6-10.8,37.1-26.7,48.7-46.3c7,13,15.8,24.7,26.9,34.2c0.2,0.2,0.5,0.4,0.7,0.6
				c18.2,14.6,39.8,22.3,62.6,22.3c39.6,0,77.3-22.9,97.1-58.1c4.7,9.3,10.4,17.9,17,25.5c22.2,25.5,53.1,39,89.1,39
				c2.6,0,5.2-0.1,7.8-0.2c35.1-1.7,63-18.9,79.3-46.7c1.4,6.1,2.8,12.1,4.5,17.8c3.6,12.8,15.4,21.7,28.8,21.7
				c0.2,0,32.2-0.6,32.2-0.6c13.8-0.2,25.5-9.8,28.6-23.2c3.2-14,6-28.9,8.1-44.5c2.6,14.6,5.9,28.3,9.9,41
				c3.9,12.5,15.4,20.9,28.5,20.9c0.2,0,0.5,0,0.8,0l31.8-0.8c13.5-0.3,25.1-9.7,28.3-22.8c4.6-19.2,8.2-40,10.5-61.8
				c5.3-5.9,8.2-13.7,7.6-22l-1.6-23.5c-0.2-3.6-1.2-6.9-2.8-9.9c0.1-5.9,0-11.7-0.1-17.4c5,1.7,10.3,2.6,15.8,2.6c0.7,0,1.3,0,2,0
				l2.6-0.1c0.1,0,0.2,0.1,0.2,0.1c-3.4,42.7,0,87.4,9.5,125.8c5.6,22.6,25.8,38.5,49,38.5l1.2,0c23.6-0.5,43.5-17.1,48.3-40.4
				c7.9-38.2,11.4-81.8,9.9-122.9c0,0,0.2-0.2,0.2-0.2c4.3,0.2,8.5,0.5,12.8,0.7c1.1,0.1,2.1,0.1,3.2,0.1c5,0,9.8-0.7,14.4-2.1
				c0.4,1.7,0.8,3.4,1.3,5.1c3.1,11.5,8.9,22.2,17.3,31.8c-10.8,6.1-18.3,17.6-18.4,30.7c-0.5,32.3,14.3,61.8,39.7,79.2
				c20.6,13.8,45.9,21.5,71.3,21.5c20.2,0,39.7-4.9,56.2-14.2c23.9-13.5,40.3-36.4,46.1-64.5
				C1840.7,1446.9,1835.9,1420.6,1822.3,1402.7z M1160.8,1381.7c0.9-1.1,1.8-2,2.8-2.9c0.9-0.7,3.3-1.4,7.3-1.4
				c4.2,0,8.9,0.8,13,1.6C1176.3,1379.5,1168.6,1380.4,1160.8,1381.7z M1206,1379c1.8-0.8,3.5-1.8,5.1-3l17.3-13.4
				c-0.5,6.3-0.9,12.7-1.2,19.2C1220.4,1380.4,1213.4,1379.5,1206,1379z"/>
			<path class="st3" d="M431,1360.3c-4.3-0.3-8.6-0.5-13-0.7c-14.8-0.8-27.1,11.4-26.6,26.2c1.5,39.1-1.8,80.4-9.4,116.9
				c-2.4,11.6-12.4,20.1-24.3,20.4h0c-11.9,0.3-22.4-7.8-25.2-19.4c-9-36.1-12-78.5-8.9-117.8c1.2-15-11.1-27.7-26.2-27.1
				c-0.9,0-1.7,0.1-2.6,0.1c-12.4,0.5-23.2-8.1-25.7-20.3c-0.1-0.7-0.3-1.4-0.4-2.2c-2.7-13.3,5.5-26.3,18.6-29.7
				c19.8-5.1,45.4-9.4,75.3-9c31.2,0.5,57.6,6,77.8,12.1c13.5,4.1,21.1,18.4,16.9,31.9c-0.1,0.3-0.2,0.7-0.3,1
				C453.4,1353.8,442.7,1361,431,1360.3z"/>
			<path class="st4" d="M650.3,1438.7C650.2,1438.7,650.2,1438.7,650.3,1438.7c-1.9,0.6-3.2,2.2-3.4,4.1
				c-2.1,23.5-5.7,46.4-10.8,67.2c-0.5,2.1-2.4,3.6-4.5,3.6l-31.8,0.8c-2.1,0.1-4-1.3-4.7-3.3c-5.4-17.1-9.3-36.1-11.8-55.9
				c-0.3-2.5-2.5-4.3-5-4.2c-11.6,0.6-23.2,0.5-34.5-0.2c-2.6-0.2-4.8,1.7-5,4.2c-2.3,21.4-5.7,42.2-10.1,61.4
				c-0.5,2.1-2.4,3.6-4.6,3.7l-31.7,0.6c-2.2,0-4.1-1.4-4.7-3.4c-17.6-62.2-19.3-147.6-4.4-210.2c0.5-2.1,2.4-3.6,4.6-3.6l44.4-0.8
				c2.4,0,4.5,1.7,4.8,4c4.3,28.6,6,60.4,5.3,92.5c-0.1,2.8,2.3,5,5.1,4.8c9.1-0.7,18.4-1,27.7-1c2.6,0,4.7-2.1,4.7-4.7
				c0.2-28.5,3.4-56.5,9.4-80.9c0.5-2.1,2.4-3.5,4.5-3.6l44.5-1.1c2.4-0.1,4.4,1.6,4.8,4c4.8,28.6,6.7,60.8,5.7,92.9
				c1,0.2,2.1,0.4,3.1,0.6l1.6,23.5C653.7,1436,652.4,1438,650.3,1438.7z"/>
			<path class="st1" d="M849.5,1438.2c-5.2,31.6-22.2,59.6-52.6,75.6c-26.8,14.1-61.3,17.4-87.8,0.8c-35.3-22-45-60.7-39-98
				c0.2-1,0.1-2.1-0.2-3.1c-8.4-30.1-4.6-62.2,19-88.1c26.9-29.8,77.6-39.5,113.3-16.7c34.1,21.5,46,60.2,48.6,96
				C851.6,1415.9,851.3,1427.1,849.5,1438.2z M778.7,1384.7c-4.6-20.9-13.1-25.8-16.3-27.3c-7.8-3.6-16.2-2-16.9-1.9
				c-1.6,0.3-3.1,0.8-4.5,1.3c-5.7,2.2-6.3,10-1.2,13.3l0,0c3.3,2.1,4.5,6.5,2.5,9.9c-6,10.8-8.8,20.2-10.2,26.7
				c0,0-6,28.1,5.9,48.7c1.6,2.8,3.8,5.5,7.3,6.9c5.6,2.2,11.6-0.2,13.6-1C775.4,1454.7,785.9,1417.9,778.7,1384.7z"/>
			<path class="st3" d="M1026.6,1468.6c-20.3,46.6-81.5,72.1-126,36.4c-46.6-40.2-44.8-130.3-26.9-188.2c3.2-10.3,13-16.9,23.8-16.3
				l21.2,1.3c12.9,0.8,22.8,12,21.9,24.9c-3.2,50.1-1,82,1.4,101.2c1.6,12.5,4.4,28.6,11.1,29.6c5.9,0.8,12.3-10.4,14.8-15
				c15.4-27.4,17.5-76.5,16.6-114c-0.3-10.5,6.4-19.9,16.4-23l0.1,0c11.8-3.7,24.5,2.3,28.9,13.9
				C1048.6,1367.2,1049.8,1421.2,1026.6,1468.6z"/>
			<path class="st4" d="M1234.5,1441c-3.4,0.9-5.8,3.9-6,7.3c-2,43.8-26.4,77.5-71.3,79.7c-77.6,4.1-110.9-65.1-102.2-127.9
				c4.7-51.8,43-105.7,104.1-104.9c24.8,1,52.1,6.6,70.2,23.2c3.6,3.3,3.3,9.1-0.6,12.2l-33.1,25.7c-0.2-0.1-0.3-0.1-0.5-0.2
				c-14.2-3.6-34.5-7.2-47.5,3.4c-24.6,20.5-27.6,70.4-14.3,98.3c0.2,0.4,0.4,0.7,0.6,1.1c13.7,21.7,45.9,20.3,52.5-5.9
				c1.2-5-2.8-9.8-8-9.7c-8.4,0.2-16.8,0.7-24.4-0.9c-3.8-0.8-6.4-4.3-6.2-8.2l1-18.5c0.2-3.6,2.8-6.6,6.3-7.4
				c25.9-5.5,54.9-6.9,79.6,1.4c3.2,1.1,5.4,4.1,5.4,7.4l0.3,16c0.1,3.6-2.3,6.9-5.9,7.8C1234.6,1440.9,1234.6,1441,1234.5,1441z"/>
			<path class="st3" d="M1429,1438.7C1429,1438.7,1428.9,1438.7,1429,1438.7c-1.9,0.6-3.2,2.2-3.4,4.1c-2.1,23.5-5.7,46.4-10.8,67.2
				c-0.5,2.1-2.4,3.6-4.5,3.6l-31.8,0.8c-2.1,0.1-4-1.3-4.7-3.3c-5.4-17.1-9.3-36.1-11.8-55.9c-0.3-2.5-2.5-4.3-5-4.2
				c-11.6,0.6-23.2,0.5-34.5-0.2c-2.6-0.2-4.8,1.7-5,4.2c-2.3,21.4-5.7,42.2-10.1,61.4c-0.5,2.1-2.4,3.6-4.6,3.7l-31.7,0.6
				c-2.2,0-4.1-1.4-4.7-3.4c-17.6-62.2-19.3-147.6-4.4-210.2c0.5-2.1,2.4-3.6,4.6-3.6l44.4-0.8c2.4,0,4.5,1.7,4.8,4
				c4.3,28.6,6,60.4,5.3,92.5c-0.1,2.8,2.3,5,5.1,4.8c9.1-0.7,18.4-1,27.7-1c2.6,0,4.7-2.1,4.7-4.7c0.2-28.5,3.4-56.5,9.4-80.9
				c0.5-2.1,2.4-3.5,4.5-3.6l44.5-1.1c2.4-0.1,4.4,1.6,4.8,4c4.8,28.6,6.7,60.8,5.7,92.9c1,0.2,2.1,0.4,3.1,0.6l1.6,23.5
				C1432.5,1436,1431.1,1438,1429,1438.7z"/>
			<path class="st4" d="M1605.7,1360.3c-4.3-0.3-8.6-0.5-13-0.7c-14.8-0.8-27.1,11.4-26.6,26.2c1.5,39.1-1.8,80.4-9.4,116.9
				c-2.4,11.6-12.4,20.1-24.3,20.4l0,0c-11.9,0.3-22.4-7.8-25.2-19.4c-9-36.1-12-78.5-8.9-117.8c1.2-15-11.1-27.7-26.2-27.1
				c-0.9,0-1.7,0.1-2.6,0.1c-12.4,0.5-23.2-8.1-25.7-20.3c-0.1-0.7-0.3-1.4-0.4-2.2c-2.7-13.3,5.5-26.3,18.6-29.7
				c19.8-5.1,45.4-9.4,75.3-9c31.2,0.5,57.6,6,77.8,12.1c13.5,4.1,21.1,18.4,16.9,31.9c-0.1,0.3-0.2,0.7-0.3,1
				C1628.1,1353.8,1617.4,1361,1605.7,1360.3z"/>
			<path class="st1" d="M1735.1,1376.7c8.2,2.8,16.1,6.2,23.9,9.8c16.2,7.6,32.7,17.2,43.3,31.3c18,23.9,13.1,76-25.5,97.8
				c-31.1,17.6-72.5,13.1-101.2-6.2c-19.6-13.4-29-36-28.7-58c0.1-6.1,5.3-10.8,11.4-10.6l20,0.8c4.8,0.2,8.9,3.5,10.1,8.1
				c2.1,8.1,6.3,15.8,14.5,19.5c11.2,4.5,26.5,5.6,36.7,0.1c5.7-2.9,10.6-10.4,6.5-15.9c-10.4-10.5-28.6-14.9-42.5-21.4
				c-24.2-8.9-50-25.1-56.6-50.3c-11.9-41,23.1-76.4,65.8-80.6c29-2.7,58.1,4.3,83.1,17.2c5.6,2.9,7.7,9.9,4.5,15.3l-13.3,22.7
				c-3.1,5.2-9.7,6.9-15,3.8c0,0-0.1-0.1-0.1-0.1c-12.1-7.1-26.9-9.5-41-7.6c-5.4,0.7-14.1,1.5-17.1,6.5c-1.2,2.1-1,4,0.1,5.7
				C1718.6,1371.8,1727.6,1374.1,1735.1,1376.7z"/>
		</g>
		<g>
			<path class="st1" d="M1450.4,886.3l-8.8-0.4c-0.7,0-1.5-0.1-2.2-0.1c-23.9,0-44.1,18.7-45.9,42.5c-0.3,4.4-0.7,8.5-1.1,12.3
				c-0.4-4.5-0.8-8.9-1.2-13.4c-2.1-24-21.8-42.1-45.9-42.1l-1,0l-26.9,0.6c-12.5,0.3-24.6,5.7-33,15c-3.4,3.8-6.2,8.1-8.2,12.7
				c-24.1-19.1-56.7-28.8-97.3-28.8c-2.7,0-5.4,0-8.1,0.1l-32.3,0.1c-19.9,0-36.8,13.7-41.1,33.2c-0.5,2-0.8,4.1-1.3,6.2
				c-1.3-1.4-2.7-2.9-4.1-4.3c-0.1-0.1-0.2-0.2-0.2-0.2c-24.6-23.2-59.7-35-104.5-35c-2.7,0-5.4,0-8.1,0.1l-32.3,0.1
				c-19.9,0-36.8,13.7-41.1,33.2c-0.9,3.8-1.7,7.8-2.4,11.7c-13.1-24.4-32.5-42.2-61.4-46.8c-5.3-0.8-10.7-1.3-15.9-1.3
				c-37.7,0-70.4,22-88.3,58.5c-0.8-7.2-1.8-14.1-3-20.9c-2.4-14.4-14.8-24.9-29.5-24.9c-0.2,0-0.6,0-0.8,0l-44.5,1.1
				c-13.4,0.3-25,9.6-28.2,22.6c-0.5,1.8-0.9,3.6-1.3,5.5c-0.6-4.7-1.2-9.3-1.9-13.8c-2.2-14.5-14.9-25.4-29.6-25.4
				c-0.2,0-44.9,0.8-44.9,0.8c-13.6,0.2-25.4,9.7-28.5,22.9c-16,67-14.1,156.5,4.7,222.8c3.6,12.8,15.4,21.7,28.8,21.7
				c0.2,0,32.2-0.6,32.2-0.6c13.8-0.2,25.5-9.8,28.6-23.2c3.2-14,6-28.9,8.1-44.5c2.6,14.6,5.9,28.3,9.9,41
				c3.9,12.5,15.4,20.9,28.5,20.9c0.2,0,0.6,0,0.8,0l31.8-0.8c7.1-0.2,13.7-2.9,18.9-7.4c7.1,7.5,16.8,12.4,27.7,13.1l20.6,1.4
				c0.9,0.1,1.9,0.1,2.8,0.1c19.9,0,37.3-14.1,41.4-33.5c0.5-2.2,0.9-4.4,1.4-6.6c1.3,0,2.5,0,3.8,0c4.3,0,8.8-0.2,13.4-0.5
				c0,0.5,0.1,0.9,0.1,1.4c1.8,21.8,20.3,38.8,42.2,38.8h15.7c11.7,0,22.3-4.8,30-12.6c7.7,8.1,18.5,12.9,30.4,12.9
				c0.1,0,21.4-0.2,21.4-0.2c19.5-0.2,36.3-13.7,40.7-32.8c1-4.1,1.8-8.3,2.5-12.4c5.5,0,11-0.4,16.5-1.2
				c24.1-2.9,45.6-12.7,62.3-27.5c1.7,14.3,4,28.2,7,41.3c4.4,19.4,21.4,32.9,41.2,32.9c0.1,0,21.4-0.2,21.4-0.2
				c19.5-0.2,36.3-13.7,40.7-32.8c1-4.1,1.8-8.3,2.5-12.4c5.5,0,11-0.4,16.5-1.2c36.3-4.4,66.8-24.4,83.7-53.8
				c7,11.9,14.9,22,23.8,30c0.2,12.4,2,24.9,5.2,37c5.3,20.1,23.6,34.1,44.5,34.1c0.5,0,1,0,1.4,0l13-0.4
				c22-0.7,40.5-16.9,44.1-38.6c1.8-10.8,3.2-21.8,4.3-32.9c34.8-28.6,54.5-82.9,54.1-149.4C1494.2,907.5,1474.9,887.5,1450.4,886.3
				z"/>
			<path class="st2" d="M1434.6,864.9l-8.8-0.4c-0.7,0-1.5-0.1-2.2-0.1c-23.9,0-44.1,18.7-45.9,42.5c-0.3,4.4-0.7,8.5-1.1,12.3
				c-0.4-4.5-0.8-8.9-1.2-13.4c-2.1-24-21.8-42.1-45.9-42.1l-1,0l-26.9,0.6c-12.5,0.3-24.6,5.7-33,15c-3.4,3.8-6.2,8.1-8.2,12.7
				c-24.1-19.1-56.7-28.8-97.3-28.8c-2.7,0-5.4,0-8.1,0.1l-32.3,0.1c-19.9,0-36.8,13.7-41.1,33.2c-0.5,2-0.8,4.1-1.3,6.2
				c-1.3-1.4-2.7-2.9-4.1-4.3c-0.1-0.1-0.2-0.2-0.2-0.2c-24.6-23.2-59.7-35-104.5-35c-2.7,0-5.4,0-8.1,0.1l-32.3,0.1
				c-19.9,0-36.8,13.7-41.1,33.2c-0.9,3.8-1.7,7.8-2.4,11.7c-13.1-24.4-32.5-42.2-61.4-46.8c-5.3-0.8-10.7-1.3-15.9-1.3
				c-37.7,0-70.4,22-88.3,58.5c-0.8-7.2-1.8-14.1-3-20.9c-2.4-14.4-14.8-24.9-29.5-24.9c-0.2,0-0.6,0-0.8,0l-44.5,1.1
				c-13.4,0.3-25,9.6-28.2,22.6c-0.5,1.8-0.9,3.6-1.3,5.5c-0.6-4.7-1.2-9.3-1.9-13.8c-2.2-14.5-14.9-25.4-29.6-25.4
				c-0.2,0-44.9,0.8-44.9,0.8c-13.6,0.2-25.4,9.7-28.5,22.9c-16,67-14.1,156.5,4.7,222.8c3.6,12.8,15.4,21.7,28.8,21.7
				c0.2,0,32.2-0.6,32.2-0.6c13.8-0.2,25.5-9.8,28.6-23.2c3.2-14,6-28.9,8.1-44.5c2.6,14.6,5.9,28.3,9.9,41
				c3.9,12.5,15.4,20.9,28.5,20.9c0.2,0,0.6,0,0.8,0l31.8-0.8c7.1-0.2,13.7-2.9,18.9-7.4c7.1,7.5,16.8,12.4,27.7,13.1l20.6,1.4
				c0.9,0.1,1.9,0.1,2.8,0.1c19.9,0,37.3-14.1,41.4-33.5c0.5-2.2,0.9-4.4,1.4-6.6c1.3,0,2.5,0,3.8,0c4.3,0,8.8-0.2,13.4-0.5
				c0,0.5,0.1,0.9,0.1,1.4c1.8,21.8,20.3,38.8,42.2,38.8H871c11.7,0,22.3-4.8,30-12.6c7.7,8.1,18.5,12.9,30.4,12.9
				c0.1,0,21.4-0.2,21.4-0.2c19.5-0.2,36.3-13.7,40.7-32.8c1-4.1,1.8-8.3,2.5-12.4c5.5,0,11-0.4,16.5-1.2
				c24.1-2.9,45.6-12.7,62.3-27.5c1.7,14.3,4,28.2,7,41.3c4.4,19.4,21.4,32.9,41.2,32.9c0.1,0,21.4-0.2,21.4-0.2
				c19.5-0.2,36.3-13.7,40.7-32.8c1-4.1,1.8-8.3,2.5-12.4c5.5,0,11-0.4,16.5-1.2c36.3-4.4,66.8-24.4,83.7-53.8
				c7,11.9,14.9,22,23.8,30c0.2,12.4,2,24.9,5.2,37c5.3,20.1,23.6,34.1,44.5,34.1c0.5,0,1,0,1.4,0l13-0.4
				c22-0.7,40.5-16.9,44.1-38.6c1.8-10.8,3.2-21.8,4.3-32.9c34.8-28.6,54.5-82.9,54.1-149.4C1478.4,886.1,1459.1,866,1434.6,864.9z"
				/>
			<path class="st1" d="M701,1024C701,1024,701,1024,701,1024c-1.9,0.6-3.2,2.2-3.4,4.1c-2.1,23.5-5.7,46.4-10.8,67.2
				c-0.5,2.1-2.4,3.6-4.5,3.6l-31.8,0.8c-2.1,0.1-4-1.3-4.7-3.3c-5.4-17.1-9.3-36.1-11.8-55.9c-0.3-2.5-2.5-4.3-5-4.2
				c-11.6,0.6-23.2,0.5-34.5-0.2c-2.6-0.2-4.8,1.7-5,4.2c-2.3,21.4-5.7,42.2-10.1,61.4c-0.5,2.1-2.4,3.6-4.6,3.7l-31.7,0.6
				c-2.2,0-4.1-1.4-4.7-3.4c-17.6-62.2-19.3-147.6-4.4-210.2c0.5-2.1,2.4-3.6,4.6-3.6l44.4-0.8c2.4,0,4.5,1.7,4.8,4
				c4.3,28.6,6,60.4,5.3,92.5c-0.1,2.8,2.3,5,5.1,4.8c9.1-0.7,18.4-1,27.7-1c2.6,0,4.7-2.1,4.7-4.7c0.2-28.5,3.4-56.5,9.4-80.9
				c0.5-2.1,2.4-3.5,4.5-3.6l44.5-1.1c2.4-0.1,4.4,1.6,4.8,4c4.8,28.6,6.7,60.8,5.7,92.9c1,0.2,2.1,0.4,3.1,0.6l1.6,23.5
				C704.5,1021.3,703.1,1023.3,701,1024z"/>
			<path class="st4" d="M871,1105.8h-15.7c-8.9,0-16.4-6.8-17.1-15.7c-0.2-3-0.4-6.1-0.6-9c-0.6-9.8-9.3-17.1-19-16.1
				c-9.4,1-18.7,1.4-27.9,0.8c-8.5-0.6-16.2,5.2-18,13.6c-0.9,4.4-1.9,8.9-2.8,13.2c-1.8,8.4-9.4,14.2-18,13.6l-20.6-1.4
				c-9.4-0.6-16.5-8.6-16-18c2.2-46.4,9-99.5,23.7-144.1c11.4-33.9,40.8-63.1,83-56.4c68.5,10.9,67.1,141.1,66.3,202.6
				C888,1098.2,880.4,1105.8,871,1105.8z M807,1019c11.3,0.7,20.2-9.4,18-20.5c-0.5-2.5-1-5-1.6-7.7c-6-27.7-9-41.5-13.3-41.8
				c-3.7-0.3-9.5,8.7-19.1,48.8c-2.5,10.4,5,20.5,15.6,21.1C806.7,1019,806.9,1019,807,1019z"/>
			<path class="st3" d="M1058.5,916.5c51.9,50.4,25,134.4-49.2,143.2c-6.3,0.9-12.6,1.2-18.9,0.8c-8.9-0.5-16.9,5.7-18.1,14.6
				c-0.8,5.8-2,11.8-3.3,17.4c-1.8,7.7-8.6,13.3-16.5,13.4c-7,0.1-14,0.2-21,0.2c-8.1,0.1-15.1-5.5-16.9-13.4
				c-13.2-58.1-13.4-132.7-0.5-190.7c1.7-7.9,8.7-13.5,16.7-13.5l32.7-0.1C997.8,887.4,1033.8,893.1,1058.5,916.5z M1002.4,953.2
				c-0.7-0.5-1.4-1.1-2.1-1.5c-11.1-7.5-26.2,1-26.2,14.4c0,7.2-0.1,14.1-0.1,17.1c0,1.7,0,6.1-0.1,11.1c-0.1,13,14,21.7,25.3,15.2
				c0.1-0.1,0.2-0.1,0.3-0.2c12.1-7.2,13.7-19.8,14.3-24.3C1014.3,982.1,1016.6,964.5,1002.4,953.2z"/>
			<path class="st4" d="M1250.2,916.5c51.9,50.4,25,134.4-49.2,143.2c-6.3,0.9-12.6,1.2-18.9,0.8c-8.9-0.5-16.9,5.7-18.1,14.6
				c-0.8,5.8-2,11.8-3.3,17.4c-1.8,7.7-8.6,13.3-16.5,13.4c-7,0.1-14,0.2-21,0.2c-8.1,0.1-15.1-5.5-16.9-13.4
				c-13.2-58.1-13.4-132.7-0.5-190.7c1.7-7.9,8.7-13.5,16.7-13.5l32.7-0.1C1189.5,887.4,1225.5,893.1,1250.2,916.5z M1194.1,953.2
				c-0.7-0.5-1.4-1.1-2.1-1.5c-11.1-7.5-26.2,1-26.2,14.4c0,7.2-0.1,14.1-0.1,17.1c0,1.7,0,6.1-0.1,11.1c-0.1,13,14,21.7,25.3,15.2
				c0.1-0.1,0.2-0.1,0.3-0.2c12.1-7.2,13.7-19.8,14.3-24.3C1206,982.1,1208.3,964.5,1194.1,953.2z"/>
			<path class="st3" d="M1453.4,910.6c0.3,58.6-16.3,107.2-46.1,130.8c-4.5,3.5-7.2,8.8-7.7,14.5c0,0,0,0.1,0,0.1
				c-1.1,11.5-2.5,22.4-4.2,32.7c-1.6,9.9-10,17.3-20.1,17.6c-4.3,0.1-8.7,0.3-13,0.4c-9.7,0.3-18.4-6-20.9-15.4
				c-2.9-10.8-5-24.3-4.3-39.7c0.1-1,0.1-2,0.2-3c-29.9-19.1-51.1-69.5-55.8-136.6c-0.8-12,8.4-22.4,20.5-22.6
				c9-0.2,18-0.4,26.9-0.6c11-0.2,20.4,8.1,21.3,19.1c1.5,17.6,3.1,32.8,4.6,45.2c2.4,20.5,4.8,38.5,14.1,40.8
				c3.1,0.7,5.9-0.6,7.1-1c18.5-7.4,24.3-55.1,26.6-84.1c0.9-11.3,10.6-19.9,21.9-19.4c2.9,0.1,5.9,0.3,8.8,0.4
				C1444.5,890.5,1453.3,899.5,1453.4,910.6z"/>
		</g>
		<g>
			<path class="st1" d="M1418.1,473l-25.6-8.8c-4.2-1.5-8.7-2.2-13.1-2.2c-12.1,0-23.4,5.3-31.1,14.6c-2.6,3.1-5.2,6.3-7.7,9.4
				c-5.6-15.7-20.6-26.7-38-26.7c-0.1,0-27.4,0.3-27.4,0.3c-12.6,0.1-24,6-31.3,15.4c-7.3-8.9-18.4-14.6-30.9-14.6l-18.7,0.1
				c-20.9,0.1-38.1,16.6-39.2,37.4c-0.4,7.1-0.8,16.1-1.2,26.1c-3.9-10.5-8.2-22.6-13.1-36.3c-5.1-14.6-18.4-24.9-33.7-26.2
				l-31.7-2.9c-1.2-0.1-2.4-0.2-3.6-0.2c-13.1,0-25.1,6.5-32.3,16.8c-7.8-9.8-19.8-15.9-33.1-15.9c-0.1,0-23.7,0.2-23.7,0.2
				c-14.1,0.2-26.7,7.1-34.3,18.1c-5.4-5.3-12.9-8.6-21-8.6c-0.2,0-0.6,0-0.8,0l-44.5,1.1c-13.4,0.3-25,9.6-28.2,22.6
				c-0.4,1.8-0.9,3.6-1.3,5.5c-0.6-4.7-1.2-9.3-1.9-13.8c-2.2-14.7-14.6-25.4-29.6-25.4c-0.2,0-44.9,0.8-44.9,0.8
				c-10.5,0.2-19.9,5.9-25.1,14.5c-4.4-3.2-9.4-5.6-14.7-7.3c-27.4-8.3-55.9-12.7-84.7-13.2c-1.5,0-3.1,0-4.6,0
				c-26.1,0-52.1,3.3-77.3,9.8c-26.1,6.7-42.3,32.7-36.9,59l0.4,2.2c4.8,23.4,25.5,40.3,49.3,40.3c0.7,0,1.3,0,2,0l2.6-0.1
				c0.1,0,0.2,0.1,0.2,0.1c-3.4,42.7,0,87.4,9.5,125.8c5.6,22.6,25.8,38.5,49,38.5l1.2,0c23.6-0.5,43.5-17.1,48.3-40.4
				c7.9-38.2,11.4-81.8,9.9-122.9l0.2-0.2c4.3,0.2,8.5,0.5,12.8,0.7c1.1,0.1,2.1,0.1,3.2,0.1c5.5,0,10.8-0.9,15.8-2.5
				c-1.8,48.7,3.3,99.6,15.1,141.3c3.6,12.8,15.4,21.7,28.7,21.7c0.2,0,32.3-0.6,32.3-0.6c13.8-0.3,25.5-9.8,28.6-23.2
				c3.2-14,6-28.9,8.1-44.5c2.6,14.6,5.9,28.3,9.9,41c3.9,12.5,15.4,20.9,28.5,20.9c0.2,0,0.6,0,0.8,0l31.8-0.8
				c11.4-0.3,21.4-7,26.2-16.9c7,14.4,21.6,23.8,38.1,23.8c0.1,0,12.4-0.1,12.4-0.1c17.4-0.2,32.5-10.7,38.8-26.2
				c0.2,0.5,0.4,1.1,0.5,1.6c5.6,15.5,20.5,25.9,37.1,25.9c1.5,0,2.9-0.1,4.4-0.2l16.5-1.8c11.9-1.3,22.2-7.8,28.5-17.2
				c0.3,0.3,1.2,1,1.3,1.1c14.3,11.8,32.4,18.3,50.7,18.3c22.4,0,44-9.6,59.2-26.3c1.5-1.5,2.9-3.1,4.3-4.7
				c4.7,17.5,20.6,29.7,38.8,29.7c0.1,0,15.8-0.2,15.8-0.2c14.8-0.2,27.9-8.2,34.8-20.6c15.2,6.7,31,11.6,46.2,14.4
				c2.4,0.4,4.9,0.7,7.3,0.7c14.1,0,26.9-7.1,34.3-19l8.4-13.4c9.6-15.4,7.7-35.6-4.8-48.9c-9.2-9.9-19.5-19.2-30.8-28
				c25.1-26.4,44.2-57.5,54.3-88.6C1450,502.7,1438.7,480.1,1418.1,473z"/>
			<path class="st2" d="M1403.7,455l-25.6-8.8c-4.2-1.5-8.7-2.2-13.1-2.2c-12.1,0-23.4,5.3-31.1,14.6c-2.6,3.1-5.2,6.3-7.7,9.4
				c-5.6-15.7-20.6-26.7-38-26.7c-0.1,0-27.4,0.3-27.4,0.3c-12.6,0.1-24,6-31.3,15.4c-7.3-8.9-18.4-14.6-30.9-14.6l-18.7,0.1
				c-20.9,0.1-38.1,16.6-39.2,37.4c-0.4,7.1-0.8,16.1-1.2,26.1c-3.9-10.5-8.2-22.6-13.1-36.3c-5.1-14.6-18.4-24.9-33.7-26.2
				l-31.7-2.9c-1.2-0.1-2.4-0.2-3.6-0.2c-13.1,0-25.1,6.5-32.3,16.8c-7.8-9.8-19.8-15.9-33.1-15.9c-0.1,0-23.7,0.2-23.7,0.2
				c-14.1,0.2-26.7,7.1-34.3,18.1c-5.4-5.3-12.9-8.6-21-8.6c-0.2,0-0.6,0-0.8,0l-44.5,1.1c-13.4,0.3-25,9.6-28.2,22.6
				c-0.4,1.8-0.9,3.6-1.3,5.5c-0.6-4.7-1.2-9.3-1.9-13.8c-2.2-14.7-14.6-25.4-29.6-25.4c-0.2,0-44.9,0.8-44.9,0.8
				c-10.5,0.2-19.9,5.9-25.1,14.5c-4.4-3.2-9.4-5.6-14.7-7.3c-27.4-8.3-55.9-12.7-84.7-13.2c-1.5,0-3.1,0-4.6,0
				c-26.1,0-52.1,3.3-77.3,9.8c-26.1,6.7-42.3,32.7-36.9,59l0.4,2.2c4.8,23.4,25.5,40.3,49.3,40.3c0.7,0,1.3,0,2,0l2.6-0.1
				c0.1,0,0.2,0.1,0.2,0.1c-3.4,42.7,0,87.4,9.5,125.8c5.6,22.6,25.8,38.5,49,38.5l1.2,0c23.6-0.5,43.5-17.1,48.3-40.4
				c7.9-38.2,11.4-81.8,9.9-122.9l0.2-0.2c4.3,0.2,8.5,0.5,12.8,0.7c1.1,0.1,2.1,0.1,3.2,0.1c5.5,0,10.8-0.9,15.8-2.5
				c-1.8,48.7,3.3,99.6,15.1,141.3c3.6,12.8,15.4,21.7,28.7,21.7c0.2,0,32.3-0.6,32.3-0.6c13.8-0.3,25.5-9.8,28.6-23.2
				c3.2-14,6-28.9,8.1-44.5c2.6,14.6,5.9,28.3,9.9,41c3.9,12.5,15.4,20.9,28.5,20.9c0.2,0,0.6,0,0.8,0l31.8-0.8
				c11.4-0.3,21.4-7,26.2-16.9c7,14.4,21.6,23.8,38.1,23.8c0.1,0,12.4-0.1,12.4-0.1c17.4-0.2,32.5-10.7,38.8-26.2
				c0.2,0.5,0.4,1.1,0.5,1.6c5.6,15.5,20.5,25.9,37.1,25.9c1.5,0,2.9-0.1,4.4-0.2l16.5-1.8c11.9-1.3,22.2-7.8,28.5-17.2
				c0.3,0.3,1.2,1,1.3,1.1c14.3,11.8,32.4,18.3,50.7,18.3c22.4,0,44-9.6,59.2-26.3c1.5-1.5,2.9-3.1,4.3-4.7
				c4.7,17.5,20.6,29.7,38.8,29.7c0.1,0,15.8-0.2,15.8-0.2c14.8-0.2,27.9-8.2,34.8-20.6c15.2,6.7,31,11.6,46.2,14.4
				c2.4,0.4,4.9,0.7,7.3,0.7c14.1,0,26.9-7.1,34.3-19l8.4-13.4c9.6-15.4,7.7-35.6-4.8-48.9c-9.2-9.9-19.5-19.2-30.8-28
				c25.1-26.4,44.2-57.5,54.3-88.6C1435.7,484.7,1424.4,462.1,1403.7,455z"/>
			<path class="st4" d="M705.7,523.7c-4.3-0.3-8.6-0.5-13-0.7c-14.8-0.8-27.1,11.4-26.6,26.2c1.5,39.1-1.8,80.4-9.4,116.9
				c-2.4,11.6-12.4,20.1-24.3,20.4h0c-11.9,0.3-22.4-7.8-25.2-19.4c-9-36.1-12-78.5-8.9-117.8c1.2-15-11.1-27.7-26.2-27.1
				c-0.9,0-1.7,0.1-2.6,0.1c-12.4,0.5-23.2-8.1-25.7-20.3c-0.1-0.7-0.3-1.4-0.4-2.2c-2.7-13.3,5.5-26.3,18.6-29.7
				c19.8-5.1,45.4-9.4,75.3-9c31.2,0.5,57.6,6,77.8,12.1c13.5,4.1,21.1,18.4,16.9,31.9c-0.1,0.3-0.2,0.7-0.3,1
				C728,517.1,717.4,524.4,705.7,523.7z"/>
			<path class="st1" d="M924.9,602.1C924.9,602.1,924.9,602.1,924.9,602.1c-1.9,0.6-3.2,2.2-3.4,4.1c-2.1,23.5-5.7,46.4-10.8,67.2
				c-0.5,2.1-2.4,3.6-4.5,3.6l-31.8,0.8c-2.1,0.1-4-1.3-4.7-3.3c-5.4-17.1-9.3-36.1-11.8-55.9c-0.3-2.5-2.5-4.3-5-4.2
				c-11.6,0.6-23.2,0.5-34.5-0.2c-2.6-0.2-4.8,1.7-5,4.2c-2.3,21.4-5.7,42.2-10.1,61.4c-0.5,2.1-2.4,3.6-4.6,3.7l-31.7,0.6
				c-2.2,0-4.1-1.4-4.7-3.4c-17.6-62.2-19.3-147.6-4.4-210.2c0.5-2.1,2.4-3.6,4.6-3.6l44.4-0.8c2.4,0,4.5,1.7,4.8,4
				c4.3,28.6,6,60.4,5.3,92.5c-0.1,2.8,2.3,5,5.1,4.8c9.1-0.7,18.4-1,27.7-1c2.6,0,4.7-2.1,4.7-4.7c0.2-28.5,3.4-56.5,9.4-80.9
				c0.5-2.1,2.4-3.5,4.5-3.6l44.5-1.1c2.4-0.1,4.4,1.6,4.8,4c4.8,28.6,6.7,60.8,5.7,92.9c1,0.2,2.1,0.4,3.1,0.6l1.6,23.5
				C928.4,599.4,927,601.4,924.9,602.1z"/>
			<path class="st3" d="M1009.4,481.9c6.8,59.4,3.1,130.1-9.4,188.4c-1.7,7.9-8.7,13.5-16.8,13.6l-11.9,0.1
				c-8.1,0.1-15.2-5.5-17.1-13.4c-13.7-57.8-14.6-132.1-2.3-190c1.7-8,8.7-13.7,16.8-13.8l23.3-0.2
				C1000.9,466.3,1008.4,473,1009.4,481.9z"/>
			<path class="st4" d="M1220.1,593.2c1.7,25.4,1.7,54.2-17.8,73.7c-19.5,21.9-52.6,24.9-75.7,5.8c-3.5-3-6.8-6.5-9.9-10.5
				c-8.1-10.2-24.3-5.7-25.8,7.2c0,0.4-0.1,0.7-0.1,1.1c-0.8,6.7-6,11.9-12.7,12.7l-16.5,1.8c-6.6,0.7-12.8-3.1-15.1-9.3
				c-21.4-59.1-22.3-141.1-2.5-200.5c2.1-6.3,8.3-10.2,14.9-9.6l31.7,2.9c5.6,0.5,10.4,4.3,12.3,9.6
				c35.8,101.6,48.5,122.6,54.5,121.3c4.3-0.9,6.7-83.5,8.5-118.2c0.4-7.6,6.7-13.6,14.3-13.6l18.7-0.1c7.3,0,13.6,5.4,14.4,12.7
				C1217.5,516.2,1218,555.8,1220.1,593.2z"/>
			<path class="st1" d="M1350.7,607.5c13.5,9.6,25.9,20.4,36.5,31.7c4.7,5.1,5.5,12.6,1.8,18.5l-8.4,13.4c-3.3,5.3-9.6,8-15.8,6.9
				c-16.6-3-33.5-8.9-49.4-16.8c-8.8-4.4-19.4,0.8-21.5,10.4c0,0.1,0,0.2-0.1,0.3c-1.5,6.9-7.6,11.9-14.7,11.9l-15.3,0.2
				c-7,0.1-13.2-4.6-14.9-11.5c-14.3-58.7-15.3-135.1-2.4-194c1.5-6.9,7.6-11.7,14.7-11.8l26.9-0.3c7.7-0.1,14.3,5.6,15.3,13.3
				c0.5,4.3,1,8.7,1.4,13.1c1.2,13.6,18.4,18.9,27,8.2c7.3-9.1,14.5-18,21.6-26.5c4-4.9,10.7-6.8,16.7-4.7l25.6,8.8
				c7.8,2.7,12.1,11.1,9.6,18.9c-10.1,31.3-30.3,61.8-56.1,86.6C1342.2,590.8,1343,602,1350.7,607.5z"/>
		</g>
		<path class="st2" d="M1645.5,1056.5c0,0-72.9-42.4-43.6-87.3c29.3-44.9,80.6,16.9,85.4,47.4c23.2-57.2,62.9-80.4,91.4-60.6
			c28.5,19.9-19.7,67.1-19.7,67.1s66-14.2,72.3,33.7c6.2,47.9-51,27.7-51,27.7s48,41.6,24.1,65.6c-23.9,24-80.5-23.1-80.5-23.1
			s22.2,78.1-21.6,73.5c-43.8-4.6-37.5-87.3-37.5-87.3s-79.4,61.8-99.7,8S1645.5,1056.5,1645.5,1056.5z"/>
		<path class="st2" d="M282,790.6c0,0,1.4-62.2,40.9-59.2s17.7,58.1-0.2,72c45.2-5.3,74.3,12,71.6,37.5C391.6,866.3,344,852,344,852
			s32.7,37.6,4,58.7c-28.7,21.1-36-23.1-36-23.1s-9.8,45.8-33.8,38.9c-24-6.9-13.7-60.2-13.7-60.2s-42.5,42.1-55.2,12.2
			c-12.6-29.9,43.1-55.3,43.1-55.3s-68.1-29.3-40.6-61.6C239.2,729.3,282,790.6,282,790.6z"/>
		<path class="st2" d="M324.6,499.6c0,0,4.1,71,8.5,80.1c18.4,10,41.2-9.7,41.2-9.7s-32-45.5-31.3-67.6
			c41.2,19.7,78.6-1.8,84.7-25.7c-1.6-19.2-61.9-25.8-86.6,1.7c8.5-43.3,18.4-71.3,18.4-71.3s35.4,55.6,102.3,13.4
			c-17.2-27.6-49.5-49.2-96.3-29.3c9.9-26.2,33-52.1,33-52.1s51.1,54.1,99.4,17.3c-8.6-21.2-51.6-41-74.8-35.6
			c22.9-17.2,60.3-19.9,60.3-19.9s71.5,29.8,98.5-26.3c-20.8-22.5-54.6-15.3-97.3,13.7c-28.5,1-31.5,1.2-31.5,1.2s39.5-52.1-21-86.1
			c-25.4,31.5,3.2,88,3.2,88s-22.5,14.4-31.7,20.3c1.4-31.7-15.2-70.8-51.9-74.2c-25.5,36.7,1.9,77.6,31.3,86.9
			c-14.3,16.3-36.3,60.2-36.3,60.2S336,326.5,278.1,340c2.8,51.7,63.8,57.6,63.8,57.6s-18.3,45.8-20.7,76.9
			c-17.3-41.4-43.4-62.1-75.5-61.2C236.8,466.5,248.2,512.3,324.6,499.6z"/>
		<circle class="st2" cx="1481.1" cy="353.9" r="27.7"/>
		<circle class="st2" cx="1602" cy="399.4" r="12.6"/>
		<circle class="st2" cx="374.6" cy="991.6" r="11.3"/>
		<circle class="st2" cx="265.9" cy="573.2" r="9.3"/>
		<circle class="st2" cx="1501.7" cy="1180.1" r="20.6"/>
		<circle class="st2" cx="472.7" cy="1674.6" r="45"/>
		<circle class="st2" cx="615.6" cy="1642.4" r="12.9"/>
		<circle class="st2" cx="1427.3" cy="1651" r="21.5"/>
		<circle class="st2" cx="1646.1" cy="1740.6" r="31.6"/>
		<circle class="st2" cx="1729" cy="859.3" r="18.5"/>
		<circle class="st2" cx="463.2" cy="635.2" r="35.6"/>
		<circle class="st2" cx="185" cy="1168" r="20.1"/>
		<circle class="st2" cx="677.3" cy="308.4" r="11.4"/>
		<circle class="st2" cx="1101.6" cy="792.8" r="16.3"/>
		<circle class="st2" cx="1512" cy="609.9" r="10.3"/>
	</g>
</g>
</svg>
