<?xml version="1.0" encoding="utf-8"?>
<!-- Generator: Adobe Illustrator 26.1.0, SVG Export Plug-In . SVG Version: 6.00 Build 0)  -->
<svg version="1.1" id="Слой_1" xmlns="http://www.w3.org/2000/svg" xmlns:xlink="http://www.w3.org/1999/xlink" x="0px" y="0px"
	 viewBox="0 0 2000 2000" style="enable-background:new 0 0 2000 2000;" xml:space="preserve">
<style type="text/css">
	.st0{fill:#F3D7ED;}
	.st1{fill:#D6B2C0;}
	.st2{fill:#F7E4F1;}
	.st3{fill:#A02A30;}
	.st4{fill:#ED9BA1;}
</style>
<g>
	<rect class="st0" width="2000" height="2000"/>
	<path class="st1" d="M1836.6,1648.8c14.2-32.2,10.4-69.5,0.3-97c-11.6-31.3-31-59.2-54.8-79.4c-1-1.4-2-2.8-3-4.1
		c4.6-7.5,8.1-16.5,9.8-27.2c1.1-7.2,2-14.2,2.4-21c10.2-8.1,20.1-21,25-41.7c3.2-13.5,3.7-27.7,3.7-37.1c0.1-14.2-1.4-26.5-4-37.1
		c16.2-14.3,30.7-41.5,33-92.2c1.2-26.3,1.5-65.4-9.9-101.5c-7.2-23-18.8-38.2-30.8-48.3c16.9-36.6,9.9-81.9,8.2-90.9l0,0
		c-3.8-20.8-11.2-38.7-20-54.6c19.5-25.4,30.6-58.3,37.6-78.9c0.8-2.3,1.5-4.3,2-5.9c16.3-45.6,22.2-101.6,17.3-166.3
		c-2.6-35.1-8-107.1-61.5-124c0.3-1.9,0.5-3.9,0.6-5.8c0.1-1.8,0.1-3.4,0.2-5.1c9.1-6.2,19.3-15,27.2-27.7
		c17.5-28.3,18.9-61.4,19.8-85.6c0.2-4,0.3-8,0.6-11.7c2.7-42.3-7.5-78.7-28-99.8c-0.9-0.9-1.8-1.7-2.6-2.6
		c-4.3-9.4-9.7-17.5-16.2-24.1c-9.4-9.7-19.5-15.3-26-18.2c-11.4-5.1-24.1-7.7-37.8-7.7c-19.2,0-36.7,5-45.8,9.4
		c-10.1,4.7-17.9,10.9-24.1,17.8c-8.4-7.1-19.5-14.6-34.5-19.8c-12.1-4.2-25.9-6.4-39.9-6.4c-15.1,0-43.6,2.8-64.3,21.6
		c-0.8,0.8-1.7,1.6-2.6,2.6c-30.4-17.2-64.4-19.3-78.6-19.3c-3,0-5.9,0.1-8.7,0.2c-25.9,1.4-47.9,11-64.2,27.1
		c-13.6-12.6-29.3-20.5-46.8-23.5c-4.5-0.8-9.1-1.1-13.6-1.1c-29.5,0-54.9,16-68.7,41.1c-8.8-2.6-19-4.6-29.8-4.6
		c-11.5,0-22.1,2.2-31.7,6.7c-0.5-0.7-1.1-1.3-1.7-2c-20.9-25.1-53.4-40.7-84.6-40.7c-18.5,0-35.9,5.4-50.4,15.7
		c-13,9.2-23.7,22.2-31.9,38.6c-3-5.1-6.4-9.8-10.3-13.9c-22.2-23.2-50-29.6-71.8-32.6c-21.8-3-47.3-6.2-73.9-6.2
		c-34.4,0-63.9,5.4-90.2,16.6c-0.1,0-0.1,0.1-0.2,0.1c-14.9-11.7-32.7-18.9-50.7-18.9c-2.1,0-4.2,0.1-6.3,0.3
		c-20.4,1.9-36.8,9.6-50.2,20.3c-13.1-11.5-30.8-17.1-53.7-17.1c-10.7,0-47.4,1.5-71.2,21.1c-2,1.6-3.9,3.4-5.8,5.2
		c-12.8-10.2-29.1-19.7-48.8-26.2c-21.3-7-46.9-11.1-70.2-11.1c-10.3,0-20.1,0.8-29.1,2.4l-2.8,0.5c-23,4-44.7,7.8-70.5,20.6
		c-22.7,11.4-59.6,46.2-68.2,95.5c-5.5,31.9,0.4,60.7,18.1,88.1c3.5,5.5,7.6,10.4,12,14.9c2.1,4,4.3,7.9,6.8,11.8
		c7.5,11.5,17,20.9,27.9,27.9c0.2,2.7,0.4,5.6,0.6,8.7c0.6,8.4,1.7,19,4.4,31.3c-0.8,0-1.6-0.1-2.3-0.1c-26.1,0-48.9,15.1-59.5,39.5
		c-13.7,31.2-11.4,65.6-9.6,93.1c0.4,5.7,0.7,11.1,0.9,15.9c0.1,4.1,0.3,8.3,0.4,12.6c1,36.7,2.1,82.4,24.3,121.3
		c0.9,1.6,1.9,3.2,3,4.7c5.8,8,13,16.9,22.2,24.4c1.6,8.7,5,23.8,10.1,36.5c-13.3,14.6-23.2,31.4-33.2,55.3c-0.4,0.9-0.7,1.8-1,2.7
		c-15.4,43.7-24.2,95.1-26.3,153c-1.1,32.1-1.5,66.5,7.1,102.5c5.9,24.3,16.7,38.6,28,47c-0.2,19.6-0.2,38.6,0,56.7
		c0.4,35.4,3.3,67.2,8.9,97.1c2,10.6,5,20.2,8.9,28.5c-24.2,21.4-42.4,50.6-47.2,80.8c-4.5,22.6-8.8,56-5.1,89.1
		c3.9,34.2,14.4,70.6,32.1,111.3c0.8,1.9,1.6,3.8,2.4,5.5c6.2,14.5,15.5,36.3,37.8,49c9.3,18,25.2,38.4,58.6,43.1
		c4.1,0.6,8.3,0.9,12.4,0.9c21.8,0,41.3-8.2,55.7-22.4c14.8,14.2,33.7,20,50.4,20c6.5,0,13.3-0.8,19.9-2.5
		c10.2-2.5,18.9-6.9,26.2-12.4c19.8,21.1,40.7,26.1,56,26.1c0,0,0,0,0,0c19.1,0,44.4-7.5,66.1-39.2c15.5,19.2,36.6,31.9,62.8,31.9
		c3.7,0,7.5-0.3,11.2-0.8c34.5-5.1,51.6-30.1,61.3-53.7c0.4,0.3,0.9,0.6,1.3,0.9c13.8,24.2,41.2,48.3,73.4,48.3c3,0,6-0.2,9-0.6
		c12.4-1.8,35.4-8.9,49.9-36.8c4.9-9.4,7.6-18.8,9.8-27.7c5.8-23,5.6-41.9,4.7-62.4c-1.4-34.9,1.2-71.1,5.1-106.7c0.9,0,1.9,0,2.8,0
		c0,0,0.3,0,0.3,0c4.8,0,9.5-0.4,14-1.1c1.9,2.2,3.8,4.4,5.9,6.4c0.1,11.9,0.4,23.5,0.9,34.8c1.6,37.4,9.1,71.9,22.2,102.3
		c6.9,16,19.5,32.6,35.9,43.8c13.9,24.4,40.3,47.5,71.8,47.5c0,0,0,0,0,0c3,0,6.1-0.2,9-0.6c44.7-6.5,56.2-50.2,60-64.6
		c1.8-6.9,3.1-13.4,4-19.8c5.1,5.4,10.7,10.2,16.5,14.4c1.6,2.8,3.2,5.5,4.9,8.1c16.5,23.8,44.1,39.2,64.5,45.7
		c19.6,6.2,39.9,9.4,60.3,9.4c18.2,0,36.2-2.5,53.6-7.5c8-2.3,15.5-5.3,22.6-9c14.1,16.7,34.1,28,58.4,28c0,0,0,0,0,0
		c5.2,0,10.5-0.5,15.8-1.6c8.8-1.8,26.9-7,43.4-20.6c20.6,13.6,43.5,20.8,66.7,20.8l1.7,0c18.7-0.3,36.4-8.3,50.2-22.8
		c21.1,16.3,48.2,25,79.3,25c33.1,0,68.6-10.5,95-28c0.4-0.3,0.9-0.6,1.3-0.9c13.9-9.8,32.2-28.4,41.7-47.8
		c19.2-38.8,9.5-78.3-4.6-100.3C1837.2,1649.7,1836.9,1649.2,1836.6,1648.8z M1018.6,550.1c3.8,6,8.2,11.5,12.9,16.6
		c1.9,3.5,3.8,6.9,5.9,10.1c2.2,3.4,4.5,6.6,7,9.7c-4.2,5-8,10.3-11.3,15.7c-0.6,0.9-1.1,1.8-1.6,2.7c-5.6-4.5-11.5-8.6-17.8-12.1
		c2.3-10.7,2.5-21.7,0.5-32.8c-3.3-17.8-11.7-32.6-23.7-43.3c-2.4-5.8-5.4-11.1-9-16c4.8-2.2,9.4-4.7,13.8-7.5
		C1000.2,514.6,1008,533.6,1018.6,550.1z M837.1,889.6c2.8,4.5,6,9,9.7,13.6c-6.5-2.3-12.7-3.7-18.5-4.3
		C831.3,896.1,834.2,893,837.1,889.6z M1224.2,1007.3c-1.4-1.7-2.9-3.4-4.5-5c7-14.3,10.1-31.4,9.3-50.8c1.2,0,2.4-0.1,3.6-0.2
		c3.5,16.5,8.3,30.7,14.4,42.4c4.4,8.5,10.1,16.4,16.2,23.7c-6,4.6-11.5,10.1-16.3,16.2c-3.4-3.6-7.1-7.2-11.2-10.7
		C1232.1,1017.4,1228.3,1012.2,1224.2,1007.3z"/>
	<path class="st2" d="M1779.9,1590.2c14.2-32.2,10.4-69.5,0.3-97c-11.6-31.3-31-59.2-54.8-79.4c-1-1.4-2-2.8-3-4.1
		c4.6-7.5,8.1-16.5,9.8-27.2c1.1-7.2,2-14.2,2.4-21c10.2-8.1,20.1-21,25-41.7c3.2-13.5,3.7-27.7,3.7-37.1c0.1-14.2-1.4-26.5-4-37.1
		c16.2-14.3,30.7-41.5,33-92.2c1.2-26.3,1.5-65.4-9.9-101.5c-7.2-23-18.8-38.2-30.8-48.3c16.9-36.6,9.9-81.9,8.2-90.9l0,0
		c-3.8-20.8-11.2-38.7-20-54.6c19.5-25.4,30.6-58.3,37.6-78.9c0.8-2.3,1.5-4.3,2-5.9c16.3-45.6,22.2-101.6,17.3-166.3
		c-2.6-35.1-8-107.1-61.5-124c0.3-1.9,0.5-3.9,0.6-5.8c0.1-1.8,0.1-3.4,0.2-5.1c9.1-6.2,19.3-15,27.2-27.7
		c17.5-28.3,18.9-61.4,19.8-85.6c0.2-4,0.3-8,0.6-11.7c2.7-42.3-7.5-78.7-28-99.8c-0.9-0.9-1.8-1.7-2.6-2.6
		c-4.3-9.4-9.7-17.5-16.2-24.1c-9.4-9.7-19.5-15.3-26-18.2c-11.4-5.1-24.1-7.7-37.8-7.7c-19.2,0-36.7,5-45.8,9.4
		c-10.1,4.7-17.9,10.9-24.1,17.8c-8.4-7.1-19.5-14.6-34.5-19.8c-12.1-4.2-25.9-6.4-39.9-6.4c-15.1,0-43.6,2.8-64.3,21.6
		c-0.8,0.8-1.7,1.6-2.6,2.6c-30.4-17.2-64.4-19.3-78.6-19.3c-3,0-5.9,0.1-8.7,0.2c-25.9,1.4-47.9,11-64.2,27.1
		c-13.6-12.6-29.3-20.5-46.8-23.5c-4.5-0.8-9.1-1.1-13.6-1.1c-29.5,0-54.9,16-68.7,41.1c-8.8-2.6-19-4.6-29.8-4.6
		c-11.5,0-22.1,2.2-31.7,6.7c-0.5-0.7-1.1-1.3-1.7-2c-20.9-25.1-53.4-40.7-84.6-40.7c-18.5,0-35.9,5.4-50.4,15.7
		c-13,9.2-23.7,22.2-31.9,38.6c-3-5.1-6.4-9.8-10.3-13.9c-22.2-23.2-50-29.6-71.8-32.6c-21.8-3-47.3-6.2-73.9-6.2
		c-34.4,0-63.9,5.4-90.2,16.6c-0.1,0-0.1,0.1-0.2,0.1c-14.9-11.7-32.7-18.9-50.7-18.9c-2.1,0-4.2,0.1-6.3,0.3
		c-20.4,1.9-36.8,9.6-50.2,20.3c-13.1-11.5-30.8-17.1-53.7-17.1c-10.7,0-47.4,1.5-71.2,21.1c-2,1.6-3.9,3.4-5.8,5.2
		c-12.8-10.2-29.1-19.7-48.8-26.2c-21.3-7-46.9-11.1-70.2-11.1c-10.3,0-20.1,0.8-29.1,2.4l-2.8,0.5c-23,4-44.7,7.8-70.5,20.6
		c-22.7,11.4-59.6,46.2-68.2,95.5c-5.5,31.9,0.4,60.7,18.1,88.1c3.5,5.5,7.6,10.4,12,14.9c2.1,4,4.3,7.9,6.8,11.8
		c7.5,11.5,17,20.9,27.9,27.9c0.2,2.7,0.4,5.6,0.6,8.7c0.6,8.4,1.7,19,4.4,31.3c-0.8,0-1.6-0.1-2.3-0.1c-26.1,0-48.9,15.1-59.5,39.5
		c-13.7,31.2-11.4,65.6-9.6,93.1c0.4,5.7,0.7,11.1,0.9,15.9c0.1,4.1,0.3,8.3,0.4,12.6c1,36.7,2.1,82.4,24.3,121.3
		c0.9,1.6,1.9,3.2,3,4.7c5.8,8,13,16.9,22.2,24.4c1.6,8.7,5,23.8,10.1,36.5c-13.3,14.6-23.2,31.4-33.2,55.3c-0.4,0.9-0.7,1.8-1,2.7
		c-15.4,43.7-24.2,95.1-26.3,153c-1.1,32.1-1.5,66.5,7.1,102.5c5.9,24.3,16.7,38.6,28,47c-0.2,19.6-0.2,38.6,0,56.7
		c0.4,35.4,3.3,67.2,8.9,97.1c2,10.6,5,20.2,8.9,28.5c-24.2,21.4-42.4,50.6-47.2,80.8c-4.5,22.6-8.8,56-5.1,89.1
		c3.9,34.2,14.4,70.6,32.1,111.3c0.8,1.9,1.6,3.8,2.4,5.5c6.2,14.5,15.5,36.3,37.8,49c9.3,18,25.2,38.4,58.6,43.1
		c4.1,0.6,8.3,0.9,12.4,0.9c21.8,0,41.3-8.2,55.7-22.4c14.8,14.2,33.7,20,50.4,20c6.5,0,13.3-0.8,19.9-2.5
		c10.2-2.5,18.9-6.9,26.2-12.4c19.8,21.1,40.7,26.1,56,26.1c0,0,0,0,0,0c19.1,0,44.4-7.5,66.1-39.2c15.5,19.2,36.6,31.9,62.8,31.9
		c3.7,0,7.5-0.3,11.2-0.8c34.5-5.1,51.6-30.1,61.3-53.7c0.4,0.3,0.9,0.6,1.3,0.9c13.8,24.2,41.2,48.3,73.4,48.3c3,0,6-0.2,9-0.6
		c12.4-1.8,35.4-8.9,49.9-36.8c4.9-9.4,7.6-18.8,9.8-27.7c5.8-23,5.6-41.9,4.7-62.4c-1.4-34.9,1.2-71.1,5.1-106.7c0.9,0,1.9,0,2.8,0
		c0,0,0.3,0,0.3,0c4.8,0,9.5-0.4,14-1.1c1.9,2.2,3.8,4.4,5.9,6.4c0.1,11.9,0.4,23.5,0.9,34.8c1.6,37.4,9.1,71.9,22.2,102.3
		c6.9,16,19.5,32.6,35.9,43.8c13.9,24.4,40.3,47.5,71.8,47.5c0,0,0,0,0,0c3,0,6.1-0.2,9-0.6c44.7-6.5,56.2-50.2,60-64.6
		c1.8-6.9,3.1-13.4,4-19.8c5.1,5.4,10.7,10.2,16.5,14.4c1.6,2.8,3.2,5.5,4.9,8.1c16.5,23.8,44.1,39.2,64.5,45.7
		c19.6,6.2,39.9,9.4,60.3,9.4c18.2,0,36.2-2.5,53.6-7.5c8-2.3,15.5-5.3,22.6-9c14.1,16.7,34.1,28,58.4,28c0,0,0,0,0,0
		c5.2,0,10.5-0.5,15.8-1.6c8.8-1.8,26.9-7,43.4-20.6c20.6,13.6,43.5,20.8,66.7,20.8l1.7,0c18.7-0.3,36.4-8.3,50.2-22.8
		c21.1,16.3,48.2,25,79.3,25c33.1,0,68.6-10.5,95-28c0.4-0.3,0.9-0.6,1.3-0.9c13.9-9.8,32.2-28.4,41.7-47.8
		c19.2-38.8,9.5-78.3-4.6-100.3C1780.5,1591.1,1780.2,1590.6,1779.9,1590.2z M961.9,491.5c3.8,6,8.2,11.5,12.9,16.6
		c1.9,3.5,3.8,6.9,5.9,10.1c2.2,3.4,4.5,6.6,7,9.7c-4.2,5-8,10.3-11.3,15.7c-0.6,0.9-1.1,1.8-1.6,2.7c-5.6-4.5-11.5-8.6-17.8-12.1
		c2.3-10.7,2.5-21.7,0.5-32.8c-3.3-17.8-11.7-32.6-23.7-43.3c-2.4-5.8-5.4-11.1-9-16c4.8-2.2,9.4-4.7,13.8-7.5
		C943.5,456,951.3,475,961.9,491.5z M780.4,831c2.8,4.5,6,9,9.7,13.6c-6.5-2.3-12.7-3.7-18.5-4.3C774.6,837.5,777.5,834.5,780.4,831
		z M1167.5,948.7c-1.4-1.7-2.9-3.4-4.5-5c7-14.3,10.1-31.4,9.3-50.8c1.2,0,2.4-0.1,3.6-0.2c3.5,16.5,8.3,30.7,14.4,42.4
		c4.4,8.5,10.1,16.4,16.2,23.7c-6,4.6-11.5,10.1-16.3,16.2c-3.4-3.6-7.1-7.2-11.2-10.7C1175.4,958.8,1171.6,953.6,1167.5,948.7z"/>
	<g>
		<g>
			<path class="st3" d="M480.3,381.4c-4.5,15.6-16,23.3-17.4,24.3c-8.7,6.2-16.4,5.5-21.2,5c-9.9-1.1-20.4-4.8-27.1-9.5
				c-6.3-4.4-21.2-21.9-37.3,6.9c-1.8,4.1-3,9.9-3,9.9s3.6-8,6.4-11.1c3.7-4.1,7.5-7.3,11.8-8.6c1.3-0.4,2.3,1.2,1.9,3
				c-8.7,41-16.2,82-17.3,122.9c-0.3,12.6-0.3,23.4-4.7,35.1c-2.9,7.7-6.6,16.5-15.3,15.7c-8.7-0.9-21.4-13.1-26.7-23.9
				c-12.5-25.3-15.7-45.5-16.8-61.9c-2-28.5-1.5-38-1.1-56.7c0.6-27.6,0.1-30.6,12.6-35.5c0,0-5.5-3.9-18.1,8.8
				c-6.5,6.6-14.6,14.4-27,11.6c-9.1-2.1-16.8-8.4-22-16.4c-8.4-13-14.3-28-10.4-50.4c5.4-31.1,30-52.5,39.8-57.4
				c19.7-9.8,36.6-12.5,58.7-16.3c22.3-3.9,52.4-0.2,73.7,6.8c28.7,9.5,43,26.5,46.3,31.7C470.6,321.9,490.1,347.5,480.3,381.4z"/>
			<path class="st3" d="M667.9,535.3c-7.3,24.8-20.5,60-44.2,68c-24.9,8.4-28-26.1-28.7-41.5c-0.9-20.8-3.2-54,1.9-60.3
				c0.6-0.8,13-2.5,18.4-0.1c-24.1-9.9-35.1-9-51.2-5.8c-10.5,2.1-18.2,1.1-22.6,10.2c5.9-6.1,8.3-4,14.9-3.9
				c-2.9,23.8-14.7,48.5-25,69.5c-8.3,17-12.9,27-30.2,25.3c-13.5-1.3-18.4-20.7-21.2-34.9c-6.4-36.7-3.4-74.3-2.3-111.1
				c1.2-38.7,4.8-81.1,20.8-117.1c6.6-14.8,15.1-29.1,26.2-38.3c11.1-9.2,49.2-12.6,57.2-4.6c27.8,27.6,9.3,94.7,1.5,129.9
				c-18.9,3.8-31.6,12-39.5,17.7c31.5-11.5,60.4-19.1,92.1-5c-6.9-7.4-19.2-14.4-34.4-16c0.6-6.6,3.9-40.1,9.8-59.5
				c10.8-28.6,26.5-71.9,59.9-75c11.6-1.1,31.5,12.3,35.6,32.6C719.6,387.1,688.9,467.7,667.9,535.3z"/>
			<path class="st3" d="M873.8,399.9c-36.2,1.9-73.2-4.5-107.3-17.3c4.8,3.1,11.8,11.6,23.6,12.6c-1.6,8.7-5,25.5-6.7,34.3
				c26.2-1.5,59.2-9.1,82.7,6c9.6,10.5-3.2,30.4-16.2,41.8c-13,11.4-28.5,15-42.6,16.5c-8.3,0.9-16.9,1.1-22.8-4.1
				c-5.8-5.1-4.4-13.2-1.5-26.2c-4.3,9.5-8.5,18.9-10.2,31.9c-2.6,19.9,9,35.4,37.2,21.8c19.3-8.8,87.4-48.5,95.3-6.1
				c5.6,30.1-33.7,50.9-57.5,58.5c-32.1,10.1-64.7,17.2-99.3,13.8c-12.5-1.2-31.1-6.6-39.8-15.6c-7.2-7.4-10.3-20.2-10.7-33.5
				c-0.4-13.4,1.6-27.5,3.7-41.4c5.6-38.2,12.3-76.6,16.8-114.9c3.1-26,6-60.9,25.6-80.6c42.5-18.1,92-12.8,136.3-6.7
				c14.7,2,30.1,5.5,40.9,16.9c10.8,11.3,13.6,49.2,4.2,66.3c-5.4,9.7-14.6,16.8-23.9,20.7C892.5,398.4,883,399.5,873.8,399.9z"/>
			<path class="st3" d="M1321,353.7c3.9,23.1,6,50.9,1.4,73.8c-2.4,11.9-9.8,30.7-23.8,42.3c-13.9,11.7-44.2,22.4-67.3,20.9
				c-21-1.4-38.2-12.7-42.7-28.1c-5-17-4.8-22.6-20.9-35.9c11.6,12.5,21,22.6,4,52.2c-14.4,25-41.1,35.5-67.9,40.1
				c-30.4,5.2-61-1.9-78.7-29.5c-24.8-38.6-24.7-95-19.4-139.1c2.9-24.7,10.8-50.2,26.5-61.2c19.3-13.7,49.2-2.1,64,15.8
				c19.6,23.6,38.3,62.4,22.3,93.1c-4.7,6.6-11.6,10.7-16.9,12.5c-3.9,1.3-8.2,4.7-25.1-3.5c7.6,5.3,17.8,9.8,32.7,3.8
				c14.8-6,24.5-17.9,29.5-29.9c5-12,6.1-24.6,8.3-36.8c1.7-9.1,4.7-19,13.5-23.1c10.5-4.9,29.6,1,40.5,7.6
				c14,8.5,25.4,24.5,30.1,34.6c10.8,23.4,6.6,49.5-21.8,50c44.1-1.4,33.1-29.9,30-49.8c-2.4-15.3,0.1-38.5,2.9-55.3
				c2.3-14.1,13.2-28,31.2-25c14.4,2.4,24.3,13.4,31.5,24.6C1312.1,319.2,1319.3,342.2,1321,353.7z"/>
			<path class="st3" d="M1561.5,452.3c-2.6,12.1-3.9,19.7-17.2,20.7c-21.1,1.6-45.5-20.4-52.3-34.3c-14.7-30.3-6.2-26.9-3.7-40.7
				c-20.2,21.8-58.2,10.1-79.8-2.7c10.2,11,32,12,37.9,32.8c12.7,45.1-35.1,53.1-65,38.6c-13.2-7.3-27.6-25.1-33-44.5
				c-10.7-38.5-8-72.6,6-110.2c5.2-15.8,16.2-30.3,41.8-31.7c16.5-0.9,44.6,2,64.1,15.9c14.9,10.6,37.6,33.9,48,47.4
				c16.3,21.2,26.3,37.3,38.8,59.7C1555.5,418.6,1564.3,439,1561.5,452.3z M1443.5,350.8c-1.9-3.9-3.9-7.7-5.8-11.6
				c-1.3-2.5-2.6-5.1-4.8-7.3c-2.2-2.2-5.6-4.1-8.5-3.9c-4.3,0.3-5.2,4.3-5.3,7.8c-0.2,10-2.6,33.1,14.2,40.6
				C1455.6,386.5,1448.2,360.1,1443.5,350.8z"/>
			<path class="st3" d="M1730.9,343.9c-1.5,22.9-0.1,52.8-12.6,72.8c-8.6,13.9-27.1,18.8-29.6,22.4c-7.6,11.1-5.1,27-5.5,35.1
				c-0.3,5-2.7,9.4-4.8,12.3c-4.3,6.1-16.2,3.5-18.2,2.7c-1.7-0.7-7.3-3-12.5-9.2c-4.3-5.2-12-19-16.5-29.2
				c-5.1-11.6-7.6-16.4-16.2-19.1c-10.4-3.3-21-9.4-35.9-18.7c-25.2-16.1-41.7-47.3-52.2-74.1c-9.7-24.9-20.7-44.4-8.1-55.8
				c9.7-8.8,34.7-10.2,51.5-4.4c12.4,4.3,19.8,11.9,26.8,19.2c18.1,19,25.1,38.8,26.5,50.6c1.3,10.7,2.4,15-2.9,19.9
				c-5.6,5.1-11.4,5.1-12.3,5c15.5,1.5,22.8-6.6,36.9-5.4c9.5,0.8,29.2,9.9,29.2,9.9c-4.8-5.2-13.3-6.6-20.1-12.2
				c-5.8-4.8-5.3-19-3.7-31.8c2.3-17.6-1.4-46.4,17.7-55.4c3.7-1.7,24.5-8,39.6-1.2c1.2,0.6,5.6,2.6,9.7,6.8
				C1725.6,292.3,1732.9,313.2,1730.9,343.9z"/>
		</g>
	</g>
	<g>
		<g>
			<path class="st4" d="M461.5,354.7c-4.5,15.6-16,23.3-17.4,24.3c-8.7,6.2-16.4,5.5-21.2,5c-9.9-1.1-20.4-4.8-27.1-9.5
				c-6.3-4.4-21.2-21.9-37.3,6.9c-1.8,4.1-3,9.9-3,9.9s3.6-8,6.4-11.1c3.7-4.1,7.5-7.3,11.8-8.6c1.3-0.4,2.3,1.2,1.9,3
				c-8.7,41-16.2,82-17.3,122.9c-0.3,12.6-0.3,23.4-4.7,35.1c-2.9,7.7-6.6,16.5-15.3,15.7c-8.7-0.9-21.4-13.1-26.7-23.9
				c-12.5-25.3-15.7-45.5-16.8-61.9c-2-28.5-1.5-38-1.1-56.7c0.6-27.6,0.1-30.6,12.6-35.5c0,0-5.5-3.9-18.1,8.8
				c-6.5,6.6-14.6,14.4-27,11.6c-9.1-2.1-16.8-8.4-22-16.4c-8.4-13-14.3-28-10.4-50.4c5.4-31.1,30-52.5,39.8-57.4
				c19.7-9.8,36.6-12.5,58.7-16.3c22.3-3.9,52.4-0.2,73.7,6.8c28.7,9.5,43,26.5,46.3,31.7C451.8,295.2,471.2,320.7,461.5,354.7z"/>
			<path class="st4" d="M649,508.6c-7.3,24.8-20.5,60-44.2,68c-24.9,8.4-28-26.1-28.7-41.5c-0.9-20.8-3.2-54,1.9-60.3
				c0.6-0.8,13-2.5,18.4-0.1c-24.1-9.9-35.1-9-51.2-5.8c-10.5,2.1-18.2,1.1-22.6,10.2c5.9-6.1,8.3-4,14.9-3.9
				c-2.9,23.8-14.7,48.5-25,69.5c-8.3,17-12.9,27-30.2,25.3c-13.5-1.3-18.4-20.7-21.2-34.9c-6.4-36.7-3.4-74.3-2.3-111.1
				c1.2-38.7,4.8-81.1,20.8-117.1c6.6-14.8,15.1-29.1,26.2-38.3c11.1-9.2,49.2-12.6,57.2-4.6c27.8,27.6,9.3,94.7,1.5,129.9
				c-18.9,3.8-31.6,12-39.5,17.7c31.5-11.5,60.4-19.1,92.1-5c-6.9-7.4-19.2-14.4-34.4-16c0.6-6.6,3.9-40.1,9.8-59.5
				c10.8-28.6,26.5-71.9,59.9-75c11.6-1.1,31.5,12.3,35.6,32.6C700.8,360.4,670.1,441,649,508.6z"/>
			<path class="st4" d="M855,373.2c-36.2,1.9-73.2-4.5-107.3-17.3c4.8,3.1,11.8,11.6,23.6,12.6c-1.6,8.7-5,25.5-6.7,34.3
				c26.2-1.5,59.2-9.1,82.7,6c9.6,10.5-3.2,30.4-16.2,41.8c-13,11.4-28.5,15-42.6,16.5c-8.3,0.9-16.9,1.1-22.8-4.1
				c-5.8-5.1-4.4-13.2-1.5-26.2c-4.3,9.5-8.5,18.9-10.2,31.9c-2.6,19.9,9,35.4,37.2,21.8c19.3-8.8,87.4-48.5,95.3-6.1
				c5.6,30.1-33.7,50.9-57.5,58.5c-32.1,10.1-64.7,17.2-99.3,13.8c-12.5-1.2-31.1-6.6-39.8-15.6c-7.2-7.4-10.3-20.2-10.7-33.5
				s1.6-27.5,3.7-41.4c5.6-38.2,12.3-76.6,16.8-114.9c3.1-26,6-60.9,25.6-80.6c42.5-18.1,92-12.8,136.3-6.7
				c14.7,2,30.1,5.5,40.9,16.9c10.8,11.3,13.6,49.2,4.2,66.3c-5.4,9.7-14.6,16.8-23.9,20.7C873.7,371.7,864.1,372.7,855,373.2z"/>
			<path class="st4" d="M1302.2,327c3.9,23.1,6,50.9,1.4,73.8c-2.4,11.9-9.8,30.7-23.8,42.3c-13.9,11.7-44.2,22.4-67.3,20.9
				c-21-1.4-38.2-12.7-42.7-28.1c-5-17-4.8-22.6-20.9-35.9c11.6,12.5,21,22.6,4,52.2c-14.4,25-41.1,35.5-67.9,40.1
				c-30.4,5.2-61-1.9-78.7-29.5c-24.8-38.6-24.7-95-19.4-139.1c2.9-24.7,10.8-50.2,26.5-61.2c19.3-13.7,49.2-2.1,64,15.8
				c19.6,23.6,38.3,62.4,22.3,93.1c-4.7,6.6-11.6,10.7-16.9,12.5c-3.9,1.3-8.2,4.7-25.1-3.5c7.6,5.3,17.8,9.8,32.7,3.8
				c14.8-6,24.5-17.9,29.5-29.9c5-12,6.1-24.6,8.3-36.8c1.7-9.1,4.7-19,13.5-23.1c10.5-4.9,29.6,1,40.5,7.6
				c14,8.5,25.4,24.5,30.1,34.6c10.8,23.4,6.6,49.5-21.8,50c44.1-1.4,33.1-29.9,30-49.8c-2.4-15.3,0.1-38.5,2.9-55.3
				c2.3-14.1,13.2-28,31.2-25c14.4,2.4,24.3,13.4,31.5,24.6C1293.2,292.4,1300.4,315.5,1302.2,327z"/>
			<path class="st4" d="M1542.6,425.6c-2.6,12.1-3.9,19.7-17.2,20.7c-21.1,1.6-45.5-20.4-52.3-34.3c-14.7-30.3-6.2-26.9-3.7-40.7
				c-20.2,21.8-58.2,10.1-79.8-2.7c10.2,11,32,12,37.9,32.8c12.7,45.1-35.1,53.1-65,38.6c-13.2-7.3-27.6-25.1-33-44.5
				c-10.7-38.5-8-72.6,6-110.2c5.2-15.8,16.2-30.3,41.8-31.7c16.5-0.9,44.6,2,64.1,15.9c14.9,10.6,37.6,33.9,48,47.4
				c16.3,21.2,26.3,37.3,38.8,59.7C1536.7,391.9,1545.5,412.3,1542.6,425.6z M1424.7,324c-1.9-3.9-3.9-7.7-5.8-11.6
				c-1.3-2.5-2.6-5.1-4.8-7.3c-2.2-2.2-5.6-4.1-8.5-3.9c-4.3,0.3-5.2,4.3-5.3,7.8c-0.2,10-2.6,33.1,14.2,40.6
				C1436.8,359.8,1429.4,333.4,1424.7,324z"/>
			<path class="st4" d="M1712.1,317.2c-1.5,22.9-0.1,52.8-12.6,72.8c-8.6,13.9-27.1,18.8-29.6,22.4c-7.6,11.1-5.1,27-5.5,35.1
				c-0.3,5-2.7,9.4-4.8,12.3c-4.3,6.1-16.2,3.5-18.2,2.7c-1.7-0.7-7.3-3-12.5-9.2c-4.3-5.2-12-19-16.5-29.2
				c-5.1-11.6-7.6-16.4-16.2-19.1c-10.4-3.3-21-9.4-35.9-18.7c-25.2-16.1-41.7-47.3-52.2-74.1c-9.7-24.9-20.7-44.4-8.1-55.8
				c9.7-8.8,34.7-10.2,51.5-4.4c12.5,4.3,19.8,11.9,26.8,19.2c18.1,19,25.1,38.8,26.5,50.6c1.3,10.7,2.4,15-2.9,19.9
				c-5.6,5.1-11.4,5.1-12.3,5c15.5,1.5,22.8-6.6,36.9-5.4c9.5,0.8,29.2,9.9,29.2,9.9c-4.8-5.2-13.3-6.6-20.1-12.2
				c-5.8-4.8-5.3-19-3.7-31.8c2.3-17.6-1.4-46.4,17.7-55.4c3.7-1.7,24.5-8,39.6-1.2c1.2,0.6,5.6,2.6,9.7,6.8
				C1706.7,265.6,1714.1,286.5,1712.1,317.2z"/>
		</g>
	</g>
	<g>
		<g>
			<path class="st3" d="M390,670.1c0.1,25.2,3,55.2-7,78.9c-7.1,16.9-23.2,27.9-25.5,33c-6.9,15.5-5.7,34.5-6.6,44.7
				c-0.6,6.4-3.2,13.1-5.3,17.7c-4.5,9.9-15.2,12.9-16.9,12.9c-1.4,0-6.2-0.2-9.7-6.4c-3-5.2-7.3-21.4-9.4-34.3
				c-2.3-14.6-3.6-20.7-9.3-22.1c-7-1.7-13.3-7.9-21.2-18.8c-17.8-31.1-16.6-74.9-17.8-109.6c-1-27.3-6.4-61.5,4.3-86
				c5.1-11.6,18.4-9.6,26.6,0.8c6.1,7.7,9.3,18.8,12.5,29.2c8.3,27.1,11.2,52.6,11,68.1c-0.2,14.1,0.2,19.7-3.8,26.7
				c-4.2,7.4-7.9,8.1-8.5,8.1c9.8,0.5,15.5-11,25-10.7c6.4,0.2,20.1,9.4,20.1,9.4c-3.3-5.7-9.3-6.6-13.6-13.1
				c-3.7-5.6-2.3-23.5-0.5-39.4c2.5-21.8,1.5-57.2,13.1-65.3c2.3-1.6,14.6-5.6,24.3,3.6c0.8,0.8,3.6,3.5,6.4,8.5
				C383.6,615.6,389.8,637.8,390,670.1z"/>
			<path class="st3" d="M528,789.9c-16.6,24.2-29.9,26.6-57.4,35.6c-41.5,13.5-64.1-32-69.9-64.9c-4.1-23.6-6-50.8-2.3-74.7
				c3.8-27.4,11.5-74.4,48.6-69.2c35.2,4.9,69.7,30.6,86,62.1C550.4,712.6,549.6,758.4,528,789.9z M463.3,723.4
				c-1.3-6.3-2.9-12.7-6.5-17.9c-9.6-13.9-18.1-5.5-18.3,7.4c0,1.2,0,2.4,0,3.6c-3.2,9.2-4.5,19.8-3.8,30.4
				c0.1-6.6,1.7-13.1,4.5-18.4c1,11.4,3.1,23.6,5.3,33.3c1,4.2,2.5,8.9,5.8,10.6c4.6,2.3,9.5-2.6,11.8-7.8
				C467.4,752.3,466.1,737.3,463.3,723.4z"/>
			<path class="st3" d="M752.1,708.4c3.3,34.4,7.6,88-31.3,102.4c-38.2,14.1-101.2,10.6-132.3-21.7c-30.5-31.6-48.5-84-41.8-128
				c2.3-15.7,9.8-32.6,26.1-32.6c12,0,24.2,9.5,32.5,20c15.3,22.3,42.1,85,27.9,96.9c-6.6,5.6-18.8,7.9-20.3,8.5
				c32.8-11.9,69.6-6.8,100.6,8.3c0,0-20.1-8.7-32.7-15.6c-19.2-10.6-23.3-52-23.1-76.8c0.2-21.8,16.5-46.8,41.6-42.6
				c16,2.7,32.4,14.6,41.3,34.4C747.5,676.7,750.7,693.1,752.1,708.4z"/>
			<path class="st3" d="M1023.5,845.3c-3.5,13.4-13.3,28.8-21.4,35c-41.6,27.4-107.3-13.1-135.3-42.9
				c-17.6-19.8-17.7-32.3-13.4-36.6c5.5-5.5,21.1,3.7,26.3,7.9c23.6,19.2,47.3,19.1,61.2,14.4c5.4-1.9,17.2-8.8,18-10.9
				c2.5-6.9-9-4.9-24.9-3.4c-38.2,3.7-75.7-15.5-95.5-48c-12.2-19.1-21.2-47.8-19.5-70.4c1.5-19.4,14.3-45.1,28.2-60.6
				c16.7-18.6,46.8-32.5,71.1-35.9c28.7-4,57.7,9.3,72.2,34.9c16.7,29.4,17.5,75.8,0,104.8c-11.2,14.6-27.7,18.2-45.6,16.7
				c-18.3-1.6-45.2-9.5-54.6-31.9c-1.3,6.6,3.4,17.5,7.8,23.5c14.6,19.6,30.1,26.9,49.7,23.4c28.1-5,49.9-12.4,66.3,11.5
				C1023,789.4,1030.3,818.7,1023.5,845.3z"/>
			<path class="st3" d="M1217.4,808.1c-22.9,59.7-119.7,28.2-110-30.6c-7.4,37.4,5.4,69.7,11,104.7c3.1,19.5,4,54.1-28.7,51.2
				c-23.3-2-38-35.2-40.3-49.3c-11.1-47.5-19.6-95.2-24.1-143.5c-4.6-49.4,2.1-104.9,28.4-147c27.5-44.1,107.6-80.6,154.6-43.3
				c26.5,23.2,32.6,59.2,37.1,90.8C1252.5,693.1,1240.2,758.4,1217.4,808.1z M1157.7,642.1c-1.9-4.1-5-3.3-7.6-2
				c-13.8,6.8-27.2,18.5-39.1,33.9c3.1-3.3,4.6-5,7.8-8.3c-6.6,7.2-12.1,18.5-15.4,32c18.7,5.6,37.4-5.1,51.2-31.3
				C1157.7,660.3,1160.8,648.8,1157.7,642.1z"/>
			<path class="st3" d="M1388.9,698.3c-32.3-2.9-64-19.4-91.4-37.1c4.7,4.8,11.8,18.1,22,20.4c-0.5,13.5-1.8,39.3-2.3,52.7
				c24.1,0.2,54.2-2.9,67.1,22.8c7.8,19.8-1.3,50.9-10.6,66.8c-9.3,15.9-20.8,17.8-31.7,16.9c-6.4-0.5-13.2-2.2-18.4-11.6
				c-5.1-9.4-4.7-21.7-3.5-41.7c-2.7,14.3-5.3,28.2-5.5,48.3c-0.3,30.8,10.3,58.5,31,44c34.6-28.6,64.4-30.7,68.1,20.1
				c2.1,29.5-6.2,69.5-38.3,80.5c-22.4,7.6-53.3-0.2-72.1-12.4c-9.2-6-25.5-19.6-33.8-35.4c-6.9-13.1-11.1-32.7-13.2-52.6
				c-2.1-19.8-2.2-40.2-2.3-60.3c-0.2-55.1,0.4-110.7-0.9-165.6c-0.8-36.1-5.3-84.5,12.6-117.4c34.3-28.7,82.2-30,123.6-20.8
				c12.7,2.8,27.5,9.1,35.1,28.4c12.9,33,11.5,80.4,3.9,116.7c-4.1,16.4-10.9,27.3-18,32.5C1403.3,698.7,1395.9,699,1388.9,698.3z"
				/>
			<path class="st3" d="M1578.6,953.8c-6.7,32.7-14.7,58.8-24.1,60c-21.6,2.8-29.8-62.1-29.5-86c0.5-38.8,5.9-71.9,14.7-109.5
				c-10.5,52.7-51.8,26-61.6-8.5c5.5,32.6,19.4,54.3,15,89.8c-2.1,17.1-5.7,108.4-32.3,115.7c-18.2,5-27.4-4.8-32.2-24.6
				c-9.6-39.2-8.8-81-6.4-120.2c6-95.9,25-189.9,50-284.7c8.2-27.5,17.9-76,46.6-83.7c11.5-3.1,33.2,7.1,41.6,44.3
				c9.2,40.7,14.1,83.6,17.3,125.6c3.7,51.4,6.1,102.9,7.8,154.3C1586.9,868.7,1587.1,912.7,1578.6,953.8z M1524.8,692.1
				c0.2-10.3,0.3-20.8,0.5-31.2c0.1-6.8,0.2-13.7-0.6-19.8c-0.8-6-2.6-11-4.9-10.6c-3.4,0.6-5.9,11.4-7.5,20.9
				c-6.1,34.1-20.5,85.6-6.7,109.3c1.1,1.9,3.9,4.1,5.9,6.2C1525.6,748.5,1524.3,714.4,1524.8,692.1z"/>
			<path class="st3" d="M1660.4,838.2c21.3,25.6,41.3,50.5,47.6,84.2c2.9,13.2,5.2,54.8-11.4,69.1c-15.6,13.4-32.6,15.6-46.1-14.2
				c-7.6-16.8-11.7-44.1-15.4-70.7c-0.3-2-0.5-3.9-0.8-6c1,17.9,1.6,38.1,0.8,51.3c-1.2,20.5-0.5,50.8-16.3,59.1
				c-9.6,5.1-17.6-21.9-20.3-47.5c-12.1-122.2-6.4-253.4,13.1-374.4c5.6-25.4,14.7-68,35.6-69.2c8.9-0.5,15.9,33.5,16.7,62.9
				c1.4,51.8,4.5,113-14.5,162.3c-3.3,7.8-5.9,12-7.8,14.2c10.3-4.7,20.4-26.9,26.9-51.8c10.2-38.7,13.7-80.3,23-119.5
				c6.9-29,19.8-56.5,26.5-54.9c19.7,4.7,24.2,52,26.1,78c3.5,46.3,1.6,99.9-14.4,144.6C1722.4,776.2,1698.3,860.5,1660.4,838.2z"/>
		</g>
	</g>
	<g>
		<g>
			<path class="st4" d="M357.5,648c0.1,25.2,3,55.2-7,78.9c-7.1,16.9-23.2,27.9-25.5,33c-6.9,15.5-5.7,34.5-6.6,44.7
				c-0.6,6.4-3.2,13.1-5.3,17.7c-4.5,9.9-15.2,12.9-16.9,12.9c-1.4,0-6.2-0.2-9.7-6.4c-3-5.2-7.3-21.4-9.4-34.3
				c-2.3-14.6-3.6-20.7-9.3-22.1c-7-1.7-13.3-7.9-21.2-18.8c-17.8-31.1-16.6-74.9-17.8-109.6c-1-27.3-6.4-61.5,4.3-86
				c5.1-11.6,18.4-9.6,26.6,0.8c6.1,7.7,9.3,18.8,12.5,29.2c8.3,27.1,11.2,52.6,11,68.1c-0.2,14.1,0.2,19.7-3.8,26.7
				c-4.2,7.4-7.9,8.1-8.5,8.1c9.8,0.5,15.5-11,25-10.7c6.4,0.2,20.1,9.4,20.1,9.4c-3.3-5.7-9.3-6.6-13.6-13.1
				c-3.7-5.6-2.3-23.5-0.5-39.4c2.5-21.8,1.5-57.2,13.1-65.3c2.3-1.6,14.6-5.6,24.3,3.6c0.8,0.8,3.6,3.5,6.4,8.5
				C351.1,593.5,357.4,615.7,357.5,648z"/>
			<path class="st4" d="M495.6,767.8c-16.6,24.2-29.9,26.6-57.4,35.6c-41.5,13.5-64.1-32-69.9-64.9c-4.1-23.6-6-50.8-2.3-74.7
				c3.8-27.4,11.5-74.4,48.6-69.2c35.2,4.9,69.7,30.6,86,62.1C518,690.6,517.2,736.3,495.6,767.8z M430.8,701.4
				c-1.3-6.3-2.9-12.7-6.5-17.9c-9.6-13.9-18.1-5.5-18.3,7.4c0,1.2,0,2.4,0,3.6c-3.2,9.2-4.5,19.8-3.8,30.4
				c0.1-6.6,1.7-13.1,4.5-18.4c1,11.4,3.1,23.6,5.3,33.3c1,4.2,2.5,8.9,5.8,10.6c4.6,2.3,9.5-2.6,11.8-7.8
				C435,730.2,433.7,715.2,430.8,701.4z"/>
			<path class="st4" d="M719.7,686.3c3.3,34.4,7.6,88-31.3,102.4c-38.2,14.1-101.2,10.6-132.3-21.7c-30.5-31.6-48.5-84-41.8-128
				c2.3-15.7,9.8-32.6,26.1-32.6c12,0,24.2,9.5,32.5,20c15.3,22.3,42.1,85,27.9,96.9c-6.6,5.6-18.8,7.9-20.3,8.5
				c32.8-11.9,69.6-6.8,100.6,8.3c0,0-20.1-8.7-32.7-15.6c-19.2-10.6-23.3-52-23.1-76.8c0.2-21.8,16.5-46.8,41.6-42.6
				c16,2.7,32.4,14.6,41.3,34.4C715.1,654.6,718.3,671,719.7,686.3z"/>
			<path class="st4" d="M991,823.2c-3.5,13.4-13.3,28.8-21.4,35c-41.6,27.4-107.3-13.1-135.3-42.9c-17.6-19.8-17.7-32.3-13.4-36.6
				c5.5-5.5,21.1,3.7,26.3,7.9c23.6,19.2,47.3,19.1,61.2,14.4c5.4-1.9,17.2-8.8,18-10.9c2.5-6.9-9-4.9-24.9-3.4
				c-38.2,3.7-75.7-15.5-95.5-48c-12.2-19.1-21.2-47.8-19.5-70.4c1.5-19.4,14.3-45.1,28.2-60.6c16.7-18.6,46.8-32.5,71.1-35.9
				c28.7-4,57.7,9.3,72.2,34.9c16.7,29.4,17.5,75.8,0,104.8c-11.2,14.6-27.7,18.2-45.6,16.7c-18.3-1.6-45.2-9.5-54.6-31.9
				c-1.3,6.6,3.4,17.5,7.8,23.5c14.6,19.6,30.1,26.9,49.7,23.4c28.1-5,49.9-12.4,66.3,11.5C990.5,767.4,997.9,796.6,991,823.2z"/>
			<path class="st4" d="M1184.9,786c-22.9,59.7-119.7,28.2-110-30.6c-7.4,37.4,5.4,69.7,11,104.7c3.1,19.5,4,54.1-28.7,51.2
				c-23.3-2-38-35.2-40.3-49.3c-11.1-47.5-19.6-95.2-24.1-143.5c-4.6-49.4,2.1-104.9,28.4-147c27.5-44.1,107.6-80.6,154.6-43.3
				c26.5,23.2,32.6,59.2,37.1,90.8C1220.1,671.1,1207.7,736.3,1184.9,786z M1125.3,620c-1.9-4.1-5-3.3-7.6-2
				c-13.8,6.8-27.2,18.5-39.1,33.9c3.1-3.3,4.6-5,7.8-8.3c-6.6,7.2-12.1,18.5-15.4,32c18.7,5.6,37.4-5.1,51.2-31.3
				C1125.3,638.2,1128.4,626.8,1125.3,620z"/>
			<path class="st4" d="M1356.4,676.3c-32.3-2.9-64-19.4-91.4-37.1c4.7,4.8,11.8,18.1,22,20.4c-0.5,13.5-1.8,39.3-2.3,52.7
				c24.1,0.2,54.2-2.9,67.1,22.8c7.8,19.8-1.3,50.9-10.6,66.8c-9.3,15.9-20.8,17.8-31.7,16.9c-6.4-0.5-13.2-2.2-18.4-11.6
				c-5.1-9.4-4.7-21.7-3.5-41.7c-2.7,14.3-5.3,28.2-5.5,48.3c-0.3,30.8,10.3,58.5,31,44c34.6-28.6,64.4-30.7,68.1,20.1
				c2.1,29.5-6.2,69.5-38.3,80.5c-22.4,7.6-53.3-0.2-72.1-12.4c-9.2-6-25.5-19.6-33.8-35.4c-6.9-13.1-11.1-32.7-13.2-52.6
				c-2.1-19.8-2.2-40.2-2.3-60.3c-0.2-55.1,0.4-110.7-0.9-165.6c-0.8-36.1-5.3-84.5,12.6-117.4c34.3-28.7,82.2-30,123.6-20.8
				c12.7,2.8,27.5,9.1,35.1,28.4c12.9,33,11.5,80.4,3.9,116.7c-4.1,16.4-10.9,27.3-18,32.5C1370.9,676.6,1363.5,676.9,1356.4,676.3z
				"/>
			<path class="st4" d="M1546.2,931.8c-6.7,32.7-14.7,58.8-24.1,60c-21.6,2.8-29.8-62.1-29.5-86c0.5-38.8,5.9-71.9,14.7-109.5
				c-10.5,52.7-51.8,26-61.6-8.5c5.5,32.6,19.4,54.3,15,89.8c-2.1,17.1-5.7,108.4-32.3,115.7c-18.2,5-27.4-4.8-32.2-24.6
				c-9.6-39.2-8.8-81-6.4-120.2c6-95.9,25-189.9,50-284.7c8.2-27.5,17.9-76,46.6-83.7c11.5-3.1,33.2,7.1,41.6,44.3
				c9.2,40.7,14.1,83.6,17.3,125.6c3.7,51.4,6.1,102.9,7.8,154.3C1554.5,846.6,1554.6,890.7,1546.2,931.8z M1492.3,670
				c0.2-10.3,0.3-20.8,0.5-31.2c0.1-6.8,0.2-13.7-0.6-19.8c-0.8-6-2.6-11-4.9-10.6c-3.4,0.6-5.9,11.4-7.5,20.9
				c-6.1,34.1-20.5,85.6-6.7,109.3c1.1,1.9,3.9,4.1,5.9,6.2C1493.2,726.4,1491.8,692.4,1492.3,670z"/>
			<path class="st4" d="M1628,816.2c21.3,25.6,41.3,50.5,47.6,84.2c2.9,13.2,5.2,54.8-11.4,69.1c-15.6,13.4-32.6,15.6-46.1-14.2
				c-7.6-16.8-11.7-44.1-15.4-70.7c-0.3-2-0.5-3.9-0.8-6c1,17.9,1.6,38.1,0.8,51.3c-1.2,20.5-0.5,50.8-16.3,59.1
				c-9.6,5.1-17.6-21.9-20.3-47.5c-12.1-122.2-6.4-253.4,13.1-374.4c5.6-25.4,14.7-68,35.6-69.2c8.9-0.5,15.9,33.5,16.7,62.9
				c1.4,51.8,4.5,113-14.5,162.3c-3.3,7.8-5.9,12-7.8,14.2c10.3-4.7,20.4-26.9,26.9-51.8c10.2-38.7,13.7-80.3,23-119.5
				c6.9-29,19.8-56.5,26.5-54.9c19.7,4.7,24.2,52,26.1,78c3.5,46.3,1.6,99.9-14.4,144.6C1690,754.1,1665.9,838.4,1628,816.2z"/>
		</g>
	</g>
	<g>
		<g>
			<path class="st3" d="M395.3,1079.6c-3.3,25.5-10.8,39.4-11.7,41.2c-5.7,11.3-10.6,12.1-13.6,12.5c-6.2,0.8-12.7-2-16.7-7.5
				c-3.8-5.2-12.5-28.5-23.1,21.4c-1.2,7-2.1,16.3-2.1,16.3s2.4-13.5,4.2-19.2c2.4-7.6,4.8-13.7,7.5-16.9c0.8-1,1.4,1.3,1.1,4.2
				c-6.2,61.9-12.8,124.1-14,186.3c-0.4,19-0.9,34.8-3.8,55.1c-1.9,13.4-4.4,29.7-9.5,33c-5,3.3-12-9.9-14.7-24.5
				c-5.4-29.1-7.7-58.6-8-88.1c-0.3-28.5-0.1-57.3,0.5-85.9c0.9-43.1,0.6-49,8-61.3c0,0-3.2-4.5-10.6,20.8
				c-3.8,13.1-8.6,28.9-15.4,29.3c-5,0.2-9.2-6.9-12-18.4c-7-29.1-6.7-58.9-5.6-88.2c1.6-45,8-94,23.3-137.3
				c11.7-28.3,21.4-39.7,35.5-51.3c19.3-15.8,26.9-10.3,45.3,5.2c18.6,15.7,26.2,50.6,28.3,60.1
				C396.2,1003.1,400.1,1041.7,395.3,1079.6z"/>
			<path class="st3" d="M478.9,1300.7c-11.8,31.1-23.3,62.5-52.5,79.8c-39,23.3-40.3-115.6-39.7-136.7c1.4-48.9,5.6-97.9,12.1-146.6
				c6.5-43,19.9-190,60.9-194.3c41.3-4.3,55.5,113.7,57.8,150.3C522.8,1135.7,508.1,1223.7,478.9,1300.7z M446.5,1165.4
				c0.4-12.9,0.8-26.6-0.8-37.2c-4.6-28.7-14.2-8.4-17.4,18.5c-0.3,2.4-0.5,5-0.8,7.6c-4.8,19.6-8.4,40.9-10.1,61.7
				c1.6-13.2,4.4-26.2,7.9-37.3c-1.8,23-3,47-3.4,66.3c-0.2,8.5-0.1,17.8,2.1,21.2c3.1,4.7,8.1-5.5,11.1-16.2
				C442.8,1223.2,445.6,1192.8,446.5,1165.4z"/>
			<path class="st3" d="M722.8,1042.2c-4.7,43.2-6.5,89.9-23,130c-10.6,25.8-30,41.1-33.4,48.5c-10.4,22.8-12.5,52-15.3,68
				c-1.8,10-5.7,20.4-8.8,27.4c-6.6,15.3-18.7,17.6-20.6,17.1c-1.6-0.4-6.8-2-9.7-12.8c-2.5-9-4.7-34.8-5-53.9
				c-0.3-21.7-0.8-30.4-7.3-32.8c-8-3-14.7-12.2-23.1-27.4c-20.3-44.3-11-106.3-7.9-153.4c3.2-49.2,1-104.8,18.2-151.3
				c9.9-26.7,27.4-29.8,36.7-11.6c6.9,13.4,9.3,35.2,11.7,54.7c4.5,39.3,6.5,79.5,2.3,118.7c-2.4,22.7-3.1,31.2-9.1,42.1
				c-6.3,11.4-11,12.6-11.7,12.6c11.9,0.2,20.7-17.6,31.8-17.7c7.5-0.1,21.3,13.9,21.3,13.9c-2.6-8.8-9.3-10-13.2-19.9
				c-3.3-8.6,1.6-37.3,6.4-65.3c7.2-41.8,6.3-95.3,27.4-133.5c2.9-4.4,18.2-18.7,27.2,0c0.7,1.5,3.3,7.3,5.4,17.9
				C729.7,955.6,727.4,1000.1,722.8,1042.2z"/>
			<path class="st3" d="M831.4,1243.4c-12.7,27.8-31.5,49.8-60.6,61.1c-51.4,20-55.4-84.2-54.9-113.6c0.8-40.5,5.6-80.8,12.6-121.1
				c6.9-34.1,24.2-149.9,63.7-145.8c42.1,4.4,61.1,89.9,66.4,129.4C867.2,1116.1,858.6,1184,831.4,1243.4z M785.4,1132.8
				c0.1-10.4-0.1-21.4-2.4-30.3c-6.3-23.9-16.5-8.9-19.4,12.7c-0.3,2-0.5,4-0.7,6.1c-5.1,15.4-8.6,32.5-10.1,49.4
				c1.5-10.7,4.4-21,8.2-29.7c-1.4,18.7-1.9,38.2-1.8,53.9c0.1,6.9,0.5,14.5,3.4,17.4c4,4,9.6-3.9,12.9-12.2
				C783.3,1180.2,785.1,1155.9,785.4,1132.8z"/>
			<path class="st3" d="M1028.4,1104.5c-0.3,47.3,3.1,111-33.9,147.1c-30.8,30-91.2,36.2-109-12.4c-23.9-65.1-22.1-150.4-11.3-220.4
				c3.7-24.8,12.1-65.5,27.9-69.8c6.1-1.7,17.2,24.3,22,46.6c8.7,44.4,30.5,142.5,7.1,169c-6.8,7.7-16.9,13.9-18.2,14.9
				c35.1-16.5,46.4-15.6,81.1,1.8c0,0-16.4-11.8-24.3-19c-19.9-18.1-12.1-89.2-8.5-121.7c1.7-15.4,14.8-85,35-72.7
				c16,9.7,22.7,45.8,26.9,67.8C1027.9,1059.4,1028.6,1083.3,1028.4,1104.5z"/>
			<path class="st3" d="M1196.8,1224.3c6.6,17.9,0.4,40.3-12.3,40.3c-41.2-0.1-82.2-44.7-89.2-85.1c1.4,25.3,8.6,27.6,12,44.4
				c2.7,13.4,4.9,36.5-22.9,43.3c-19.8,4.9-31.5-18.8-33-30c-8.6-36.9-13.7-74.6-15.3-112.3c-1.7-39.8,0.7-86.7,18.9-121.9
				c21.2-41,76.5-16.7,99.5,10.8c16.6,19.9,27.6,44.4,34.5,69.1c8.2,29.3,9.4,66.4-6.6,92.1c-9.1,14.5-31,21.9-41.7,1
				c6.9,12.4,5.3,17.1,25,24.4C1174.6,1204,1186.7,1197.1,1196.8,1224.3z M1125.7,1069.3c-1.6-3.2-3.7-3.3-5.4-2.8
				c-9.3,2.2-17.9,8.3-25.6,17.6c2-1.9,3-2.9,5-4.8c-4.3,4.1-7.7,11.6-9.5,20.8c13.3,6.4,26.4,1.1,34.7-14.5
				C1126.9,1081.8,1128.3,1074.5,1125.7,1069.3z"/>
			<path class="st3" d="M1391.8,1235.1c-1.2,9.4-6.7,21.1-11.8,26.6c-29.2,23.5-73,11.9-97-13.7c-13.5-16.2-14.4-29.3-11.7-34.1
				c3.5-6.2,14.8,0.5,18.6,3.7c17.4,14.3,34,10.1,43.2,5c3.6-2,11.2-8.2,11.6-9.9c1.2-5.4-6.5-3.6-17.3-1.3
				c-28.5,8.4-57-10.2-69-35.2c-10.9-20.5-17.9-48-17.9-71.1c0-20.7,7.1-47.8,15.5-61.8c10.2-17.1,27.7-22.4,44.8-18
				c17.1,4.4,37.2,24.7,49.8,51c10.9,22.7,20.1,54.7,9.2,79.3c-6.2,9.5-17,11.4-29.2,9.5c-12.5-1.9-31.4-8.4-39.4-28.7
				c-0.4,5.8,3.5,15.5,6.9,20.7c11.3,16.9,22.5,22.1,35.6,19.7c18.7-3.4,32.6-6.4,45.7,10.9
				C1386.5,1197.1,1394.2,1216.5,1391.8,1235.1z"/>
			<path class="st3" d="M1481.9,1158.3c-24.9-5-51.6-17.1-73.5-30.1c4.1,3.2,11.1,11.1,19,13.5c1.4,7,3.9,20.2,5.2,27
				c10.4,2.5,41.3,3.4,53.8,19.4c8.6,11,5.9,25.6,1,32.4c-4.9,6.7-13.4,6.1-21.8,4.3c-5-1.1-10.4-2.7-15.5-7.9
				c-5.2-5.2-6.5-11.3-8.2-21.1c-0.1,6.8-0.2,13.5,2.3,23.4c3.8,15.2,15.7,30.2,29.5,25.6c35.5-11.9,44.1-5.5,54.6,20.7
				c7,17.3,4.3,35.9-18.2,35.1c-24.1-0.8-41.5-8.5-57.2-15.7c-8.5-3.9-22.3-12.2-30.7-21c-7-7.2-12.7-17.6-16.8-27.9
				c-4.1-10.2-6.7-20.6-9.3-30.7c-7.2-28.8-14-57.9-21.2-86.6c-5.8-23.4-12.4-60.9-5.6-67.6c27-14,61.2-2.4,88,5.8
				c10,3.1,20.9,7.7,30.7,20.1c9.7,12.4,20.5,50.9,18.9,65.8c-0.9,8.5-4.7,13.5-9.3,15.5C1493,1160.1,1487.4,1159.4,1481.9,1158.3z"
				/>
			<path class="st3" d="M1639.3,1313.1c1.1,14.1-1.1,24.6-4,31.9c-8,19.9-27.4,8.7-43.3-5.1c-22.6-19.7-37.2-51.2-49.5-78.9
				c-11.4-25.6-19.7-56-23.7-83.8c-5-34.7-10.7-77.7,2.6-111.8c5.1-12.1,13.7-20.7,23.4-13.9c6.6,4.6,11.9,16.6,16.7,28
				c7.5,22,39,194.7,8.4,181.2c7.8,8.9,12.5,17.3,22.3,4.9c7-8.9,17.3-7,27,0.3C1628.9,1273.3,1637.5,1290.4,1639.3,1313.1z"/>
			<path class="st3" d="M1739.5,1151.1c-1.4,31.7-9.5,57.3-21.5,57.4c-9.3,0-23.5-14.5-33.6-25.9c-7.3-8.2-24-29.8-32.1,2.3
				c6.1-12.5,22.1-25.7,21.5,26.9c-0.3,21.9-5.2,7-10.2,13.1c-4.3,5.3-4.9,13.4-5.1,26.8c0.3-8.7,3-25.9,11.7-23.9
				c7.6,1.8,13.8,0.7,21.2,5.2c5.3,3.2,19.3,13.4,19,49.4c-0.1,15.9-1.6,38.3-13.3,40c-4.7,0.6-22.3-8.9-28.9-35.6
				c0.8,17.8,7.9,20.2,11.7,38.5c3.8,18.3,2.2,36,0.1,49c-1.9,11.7-8.5,15.7-17.7,6.1c-8-8.4-13.3-26-16.6-41.6
				c-3.3-15.5-6.1-44.7-7.9-59.9c-4-34.2-7.4-68.8-11.4-102.9c-2.4-21.1-5.1-43.1-4-63.3c1.8-30.2,15.5-46.6,28.3-54.8
				c20-12.7,40.8-25.7,57.5-19.2c8.8,3.4,18,11.3,23.6,29.2C1740.2,1093.7,1740.8,1123.5,1739.5,1151.1z"/>
		</g>
	</g>
	<g>
		<g>
			<path class="st4" d="M367.9,1048.2c-3.3,25.5-10.8,39.4-11.7,41.2c-5.7,11.3-10.6,12.1-13.6,12.5c-6.2,0.8-12.7-2-16.7-7.5
				c-3.8-5.2-12.5-28.5-23.1,21.4c-1.2,7-2.1,16.3-2.1,16.3s2.4-13.5,4.2-19.2c2.4-7.6,4.8-13.7,7.5-16.9c0.8-1,1.4,1.3,1.1,4.2
				c-6.2,61.9-12.8,124.1-14,186.3c-0.4,19-0.9,34.8-3.8,55.1c-1.9,13.4-4.4,29.7-9.5,33c-5,3.3-12-9.9-14.7-24.5
				c-5.4-29.1-7.7-58.6-8-88.1c-0.3-28.5-0.1-57.3,0.5-85.9c0.9-43.1,0.6-49,8-61.3c0,0-3.2-4.5-10.6,20.8
				c-3.8,13.1-8.6,28.9-15.4,29.3c-5,0.2-9.2-6.9-12-18.4c-7-29.1-6.7-58.9-5.6-88.2c1.6-45,8-94,23.3-137.3
				c11.7-28.3,21.4-39.7,35.5-51.3c19.3-15.8,26.9-10.3,45.3,5.2c18.6,15.7,26.2,50.6,28.3,60.1
				C368.8,971.7,372.7,1010.2,367.9,1048.2z"/>
			<path class="st4" d="M451.5,1269.3c-11.8,31.1-23.3,62.5-52.5,79.8c-39,23.3-40.3-115.6-39.7-136.7c1.4-48.9,5.6-97.9,12.1-146.6
				c6.5-43,19.9-190,60.9-194.3c41.3-4.3,55.5,113.7,57.8,150.3C495.3,1104.2,480.7,1192.2,451.5,1269.3z M419.1,1133.9
				c0.4-12.9,0.8-26.6-0.8-37.2c-4.6-28.7-14.2-8.4-17.4,18.5c-0.3,2.4-0.5,5-0.8,7.6c-4.8,19.6-8.4,40.9-10.1,61.7
				c1.6-13.2,4.4-26.2,7.9-37.3c-1.8,23-3,47-3.4,66.3c-0.2,8.5-0.1,17.8,2.1,21.2c3.1,4.7,8.1-5.5,11.1-16.2
				C415.4,1191.7,418.2,1161.4,419.1,1133.9z"/>
			<path class="st4" d="M695.4,1010.8c-4.7,43.2-6.5,89.9-23,130c-10.6,25.8-30,41.1-33.4,48.5c-10.4,22.8-12.5,52-15.3,68
				c-1.8,10-5.7,20.4-8.8,27.4c-6.6,15.3-18.7,17.6-20.6,17.1c-1.6-0.4-6.8-2-9.7-12.8c-2.5-9-4.7-34.8-5-53.9
				c-0.3-21.7-0.8-30.4-7.3-32.8c-8-3-14.7-12.2-23.1-27.4c-20.3-44.3-11-106.3-7.9-153.4c3.2-49.2,1-104.8,18.2-151.3
				c9.9-26.7,27.4-29.8,36.7-11.6c6.9,13.4,9.3,35.2,11.7,54.7c4.5,39.3,6.5,79.5,2.3,118.7c-2.4,22.7-3.1,31.2-9.1,42.1
				c-6.3,11.4-11,12.6-11.7,12.6c11.9,0.2,20.7-17.6,31.8-17.7c7.5-0.1,21.3,13.9,21.3,13.9c-2.6-8.8-9.3-10-13.2-19.9
				c-3.3-8.6,1.6-37.3,6.4-65.3c7.2-41.8,6.3-95.3,27.4-133.5c2.9-4.4,18.2-18.7,27.2,0c0.7,1.5,3.3,7.3,5.4,17.9
				C702.3,924.1,700,968.6,695.4,1010.8z"/>
			<path class="st4" d="M804,1212c-12.7,27.8-31.5,49.8-60.6,61.1c-51.4,20-55.4-84.2-54.9-113.6c0.8-40.5,5.6-80.8,12.6-121.1
				c6.9-34.1,24.2-149.9,63.7-145.8c42.1,4.4,61.1,89.9,66.4,129.4C839.7,1084.7,831.2,1152.6,804,1212z M757.9,1101.3
				c0.1-10.4-0.1-21.4-2.4-30.3c-6.3-23.9-16.5-8.9-19.4,12.7c-0.3,2-0.5,4-0.7,6.1c-5.1,15.4-8.6,32.5-10.1,49.4
				c1.5-10.7,4.4-21,8.2-29.7c-1.4,18.7-1.9,38.2-1.8,53.9c0.1,6.9,0.5,14.5,3.4,17.4c4,4,9.6-3.9,12.9-12.2
				C755.8,1148.8,757.7,1124.5,757.9,1101.3z"/>
			<path class="st4" d="M1001,1073.1c-0.3,47.3,3.1,111-33.9,147.1c-30.8,30-91.2,36.2-109-12.4c-23.9-65.1-22.1-150.4-11.3-220.4
				c3.7-24.8,12.1-65.5,27.9-69.8c6.1-1.7,17.2,24.3,22,46.6c8.7,44.4,30.5,142.5,7.1,169c-6.8,7.7-16.9,13.9-18.2,14.9
				c35.1-16.5,46.4-15.6,81.1,1.8c0,0-16.4-11.8-24.3-19c-19.9-18.1-12.1-89.2-8.5-121.7c1.7-15.4,14.8-85,35-72.7
				c16,9.7,22.7,45.8,26.9,67.8C1000.4,1028,1001.2,1051.9,1001,1073.1z"/>
			<path class="st4" d="M1169.3,1192.9c6.6,17.9,0.4,40.3-12.3,40.3c-41.2-0.1-82.2-44.7-89.2-85.1c1.4,25.3,8.6,27.6,12,44.4
				c2.7,13.4,4.9,36.5-22.9,43.3c-19.8,4.9-31.5-18.8-33-30c-8.6-36.9-13.7-74.6-15.3-112.3c-1.7-39.8,0.7-86.7,18.9-121.9
				c21.2-41,76.5-16.7,99.5,10.8c16.6,19.9,27.6,44.4,34.5,69.1c8.2,29.3,9.4,66.4-6.6,92.1c-9.1,14.5-31,21.9-41.7,1
				c6.9,12.4,5.3,17.1,25,24.4C1147.2,1172.5,1159.3,1165.7,1169.3,1192.9z M1098.3,1037.8c-1.6-3.2-3.7-3.3-5.4-2.8
				c-9.3,2.2-17.9,8.3-25.6,17.6c2-1.9,3-2.9,5-4.8c-4.3,4.1-7.7,11.6-9.5,20.8c13.3,6.4,26.4,1.1,34.7-14.5
				C1099.4,1050.4,1100.9,1043.1,1098.3,1037.8z"/>
			<path class="st4" d="M1364.4,1203.7c-1.2,9.4-6.7,21.1-11.8,26.6c-29.2,23.5-73,11.9-97-13.7c-13.5-16.2-14.4-29.3-11.7-34.1
				c3.5-6.2,14.8,0.5,18.6,3.7c17.4,14.3,34,10.1,43.2,5c3.6-2,11.2-8.2,11.6-9.9c1.2-5.4-6.5-3.6-17.3-1.3
				c-28.5,8.4-57-10.2-69-35.2c-10.9-20.5-17.9-48-17.9-71.1c0-20.7,7.1-47.8,15.5-61.8c10.2-17.1,27.7-22.4,44.8-18
				c17.1,4.4,37.2,24.7,49.8,51c10.9,22.7,20.1,54.7,9.2,79.3c-6.2,9.5-17,11.4-29.2,9.5c-12.5-1.9-31.4-8.4-39.4-28.7
				c-0.4,5.8,3.5,15.5,6.9,20.7c11.3,16.9,22.5,22.1,35.6,19.7c18.7-3.4,32.6-6.4,45.7,10.9
				C1359.1,1165.6,1366.8,1185.1,1364.4,1203.7z"/>
			<path class="st4" d="M1454.5,1126.8c-24.9-5-51.6-17.1-73.5-30.1c4.1,3.2,11.1,11.1,19,13.5c1.4,7,3.9,20.2,5.2,27
				c10.4,2.5,41.3,3.4,53.8,19.4c8.6,11,5.9,25.6,1,32.4c-4.9,6.7-13.4,6.1-21.8,4.3c-5-1.1-10.4-2.7-15.5-7.9
				c-5.2-5.2-6.5-11.3-8.2-21.1c-0.1,6.8-0.2,13.5,2.3,23.4c3.8,15.2,15.7,30.2,29.5,25.6c35.5-11.9,44.1-5.5,54.6,20.7
				c7,17.3,4.3,35.9-18.2,35.1c-24.1-0.8-41.5-8.5-57.2-15.7c-8.5-3.9-22.3-12.2-30.7-21c-7-7.2-12.7-17.6-16.8-27.9
				c-4.1-10.2-6.7-20.6-9.3-30.7c-7.2-28.8-14-57.9-21.2-86.6c-5.8-23.4-12.4-60.9-5.6-67.6c27-14,61.2-2.4,88,5.8
				c10,3.1,20.9,7.7,30.7,20.1c9.7,12.4,20.5,50.9,18.9,65.8c-0.9,8.5-4.7,13.5-9.3,15.5C1465.6,1128.6,1460,1127.9,1454.5,1126.8z"
				/>
			<path class="st4" d="M1611.8,1281.7c1.1,14.1-1.1,24.6-4,31.9c-8,19.9-27.4,8.7-43.3-5.1c-22.6-19.7-37.2-51.2-49.5-78.9
				c-11.4-25.6-19.7-56-23.7-83.8c-5-34.7-10.7-77.7,2.6-111.8c5.1-12.1,13.7-20.7,23.4-13.9c6.6,4.6,11.9,16.6,16.7,28
				c7.5,22,39,194.7,8.4,181.2c7.8,8.9,12.5,17.3,22.3,4.9c7-8.9,17.3-7,27,0.3C1601.5,1241.8,1610.1,1259,1611.8,1281.7z"/>
			<path class="st4" d="M1712.1,1119.6c-1.4,31.7-9.5,57.3-21.5,57.4c-9.3,0-23.5-14.5-33.6-25.9c-7.3-8.2-24-29.8-32.1,2.3
				c6.1-12.5,22.1-25.7,21.5,26.9c-0.3,21.9-5.2,7-10.2,13.1c-4.3,5.3-4.9,13.4-5.1,26.8c0.3-8.7,3-25.9,11.7-23.9
				c7.6,1.8,13.8,0.7,21.2,5.2c5.3,3.2,19.3,13.4,19,49.4c-0.1,15.9-1.6,38.3-13.3,40c-4.7,0.6-22.3-8.9-28.9-35.6
				c0.8,17.8,7.9,20.2,11.7,38.5c3.8,18.3,2.2,36,0.1,49c-1.9,11.7-8.5,15.7-17.7,6.1c-8-8.4-13.3-26-16.6-41.6
				c-3.3-15.5-6.1-44.7-7.9-59.9c-4-34.2-7.4-68.8-11.4-102.9c-2.4-21.1-5.1-43.1-4-63.3c1.8-30.2,15.5-46.6,28.3-54.8
				c20-12.7,40.8-25.7,57.5-19.2c8.8,3.4,18,11.3,23.6,29.2C1712.8,1062.3,1713.4,1092,1712.1,1119.6z"/>
		</g>
	</g>
	<g>
		<g>
			<path class="st3" d="M488.3,1495.3c-4.3,33.2-11.7,67.5-16.6,100.6c-3.4,22.9-4,47.1-9.6,69.1c-5.5,22-13.8,43-29.2,46.8
				c-16.5,4.1-27.6-5-30.1-27.8c-2.5-23.1-7.4-46.4-3.3-69.4c4-23,14.6-26.9,20.5-68.1c-7,39.3-22.5,42.9-27,67.5
				c-2.4,13.1,4.1,26-2.1,36.4c-7.6,12.8-26.7,8.1-34.6-2.9c-7.9-11-12.2-20.2-14.2-35.1c-1.6-11.3-2.9-35.6-2.9-35.6
				c-4.3,23.6-4.5,36.9,1.3,69.4c1.7,9.5,8.7,33.5,6.9,43.2c-3.7,20-17.4,27.5-32.9,25.3c-15.4-2.2-18.1-12.5-26.8-32.4
				c-13.3-30.6-24.3-63.1-28-96.2c-2.7-23.7-0.1-50.6,4.6-74.1c8-57.7,108.9-112.1,99.2-25.6c-1.4,17.3-1.7,31.1,4.9,44.4
				c6.3,12.7,19.5,24.2,22.9,23.6c-9.1-6.2-17.5-17.4-19.7-34.7c-4.4-34.3,11.8-68.3,34.3-93.5c15.2-17,48.3-41.5,66.7-19
				C490.8,1429.4,492,1466.4,488.3,1495.3z"/>
			<path class="st3" d="M687.9,1672.4c-6.9,24.4-13.3,42-27.5,44.1c-27,4-41.1-38.1-42.9-61.5c-2.3-29.2,1.6-52.1,11.7-78.9
				c-16.5,34-57.8,32.7-77.7,2.7c5.7,19.7,28.6,19.4,24.2,59.1c-2.7,24.9-32.9,129.1-73.1,66.6c-13.6-23.3-14.8-52.8-14.7-77.5
				c0.3-66,19.4-130.8,42.3-195.7c8.9-27.2,24-59,51.7-69.4c15.6-5.9,43.1-5.9,56.5,17.6c14.7,25.8,24,56.1,31.2,85.4
				c8.7,37.1,14.6,74.6,19.9,112.3C693.9,1608.3,696.5,1642.1,687.9,1672.4z M601.9,1490c-0.5-7.2-0.9-14.4-1.4-21.6
				c-0.3-4.7-0.6-9.5-2-13.5c-1.4-4-4-6.9-6.9-6.1c-4.2,1.3-6.6,9.3-8,16.1c-5.3,23.2-15.6,58.8-1.3,76
				C595.9,1557.3,603.1,1507.4,601.9,1490z"/>
			<path class="st3" d="M922.4,1434.4c-3.3,20.7-14.4,32.2-15.7,33.6c-8.4,9.2-16.4,9.3-21.3,9.3c-10.2,0-21.2-3.2-28.3-8.3
				c-6.7-4.8-22.6-25.7-37.9,15.7c-1.7,5.9-2.6,13.8-2.6,13.8s3.4-11.3,6.1-16c3.6-6.2,7.4-11,11.7-13.5c1.3-0.8,2.5,1.2,2.1,3.6
				c-7.3,54.8-14,110.9-11.8,166.3c0.7,17.1,0.9,31-3.2,47.5c-2.7,10.9-6.4,23.6-16,25c-9.6,1.4-24.2-11.1-30.3-23.9
				c-11.9-24.7-18-51.7-19.9-78.8c-1.8-25.5-2.5-51.3-2.3-76.9c0.2-37.7-0.4-41.8,12.3-51.2c0,0-5.7-4.2-18.5,16.2
				c-6.6,10.5-15,23.4-27.8,22.8c-9.5-0.5-17.5-7.2-22.7-17c-8.6-15.9-14.7-36-10.1-68c4.5-31.6,17.4-64.7,39.9-88.5
				c19.3-17.2,36.3-23.7,57.4-32.1c20.5-8.2,51.9-7.3,72.6-0.6c28.1,9.1,44,30.5,47.7,36.7C918.2,1373.7,928,1405.8,922.4,1434.4z"
				/>
			<path class="st3" d="M1160.2,1433.3c-3.7,20.5-14.9,31.1-16.3,32.5c-8.5,8.6-16.4,8.1-21.3,7.6c-10.1-0.9-21-5.1-27.9-10.9
				c-6.5-5.5-21.8-28.7-38,13c-1.8,5.9-2.9,14.2-2.9,14.2s3.6-11.5,6.5-16.2c3.7-6.1,7.6-10.9,12-13c1.3-0.7,2.4,1.5,2,3.9
				c-8.6,56.5-16.5,114.2-15.6,171.5c0.3,17.7,0.2,32.1-4.3,49.2c-3,11.3-6.9,24.5-16.6,25.9c-9.6,1.4-23.9-11.7-29.7-25.3
				c-11.4-26.5-16.7-55.1-17.9-83.7c-1.2-27.1-1.2-54.5-0.4-81.7c1.1-40,0.6-44.5,13.5-53.4c0,0-5.6-5-18.8,15.7
				c-6.8,10.7-15.6,23.9-28.3,22.3c-9.5-1.2-17.3-9-22.3-20c-11.9-23.8-11.1-50.5-8.4-74.6c3.5-31.2,18-67.1,42.1-90.9
				c19.7-16,36.7-20.7,57.9-26.5c21.4-5.9,52.5-0.1,71.9,9.3c27.3,13.2,42.7,37,46.2,43.8C1156.9,1371.1,1166.3,1404,1160.2,1433.3z
				"/>
			<path class="st3" d="M1310.6,1476.2c-34.8-5.5-68.6-21-98.6-39.9c4.8,4.6,11.9,16.6,22.9,19.4c-0.8,11.3-2.7,32.8-3.5,44.1
				c25.1,1.1,57.2,0.5,74,22.5c8.7,16.2-1.6,40-12.2,52.5c-10.6,12.5-23.7,14.1-36,13.6c-7.2-0.3-14.8-1.5-20.4-9.3
				c-5.6-7.7-4.9-18-3.1-34.7c-3.2,11.9-6.3,23.6-6.9,40.4c-0.9,25.7,10.5,47.8,34.2,35.1c26.3-16.3,75.1-33.3,78.8,14.1
				c2.3,29.3-15.7,55.8-44.9,64.1c-27.5,7.9-56.4,7.2-83.4-1.4c-11-3.5-28.4-12.8-37.1-25.5c-7.2-10.5-11.2-27.2-12.8-44.6
				c-1.6-17.4-0.9-35.5-0.3-53.4c1.8-49.2,4.4-98.4,5.3-147.6c0.6-31.7-1.8-74.8,17-102.4c39.8-20.4,89.3-6.7,128.4,8.1
				c13.7,5.2,29.8,13.3,38.4,30.3c12.6,24.8,12.7,62.4,4.9,90.8c-4.5,12-12.3,19.4-20.3,22.5
				C1326.9,1478.1,1318.5,1477.5,1310.6,1476.2z"/>
			<path class="st3" d="M1542.5,1662.3c3.5,23.6-9.5,51.1-25.5,51.4c-53.5,0.8-93.6-68.7-91.3-117.2c-3.6,35.6,4.9,39.4,5.6,62.4
				c0.6,18.4-1.5,48.6-35.9,55.7c-24.4,5-34.7-26.1-34.8-41.1c-3.8-52.4-3.7-104-0.6-156.5c2.9-48.8,13-108.1,44.7-144.8
				c35.5-41.1,107.9-5.4,135.7,29c18.1,22.9,27.4,51.8,30.5,80.4c4.2,38.7-9.4,85.5-33.4,114.4c-15.8,19-45,28.2-53.5-1.4
				c5.7,17.6,2.6,24.1,25.4,35C1520,1634.5,1537.1,1626.4,1542.5,1662.3z M1489.8,1454c-1.4-4-4.3-4.3-6.7-4.1
				c-12.9,1.3-25.8,7.3-38,18c3.1-2.2,4.6-3.2,7.7-5.3c-6.6,4.5-12.6,13.4-16.9,25.1c16.3,9.4,34.8,3.5,49.3-14.4
				C1488.6,1469,1492.2,1460.6,1489.8,1454z"/>
			<path class="st3" d="M1738.1,1668.5c-4.7,9.5-16.1,21.9-25,28.2c-34.2,22.7-99.2,31.3-125.5-8.4c-12.5-19.9-9.4-37.6-4.4-44
				c6.6-8.3,19.2,0.7,23.2,4.8c18.2,18.3,41.6,12.1,55.8,6c5.5-2.4,17.8-9.5,18.9-11.4c3.5-6.2-7.6-4.5-22.9-2
				c-38.7,8.1-70.4-9.8-79.6-47.8c-7.4-29.9-8.3-63-1.3-92.6c5.8-24.3,23-51.2,37.8-61.4c18-12.3,42.9-7.9,63.7,5
				c23.9,14.8,42.1,40.2,51.9,66.5c8.4,22.8,9.8,55.3-10.5,72.9c-11.2,7.7-26.4,7.9-42.1,3.7c-16.1-4.3-39-14.9-43.1-39.9
				c-2.4,6.6-0.4,18.8,2.5,25.5c9.4,21.9,22.6,28.9,40.9,28c26.2-1.3,45.7-0.8,58.1,18.4C1743,1630.3,1747.4,1649.7,1738.1,1668.5z"
				/>
		</g>
	</g>
	<g>
		<g>
			<path class="st4" d="M457.3,1461.3c-4.3,33.2-11.7,67.5-16.6,100.6c-3.4,22.9-4,47.1-9.6,69.1c-5.5,22-13.8,43-29.2,46.8
				c-16.5,4.1-27.6-5-30.1-27.8c-2.5-23.1-7.4-46.4-3.3-69.4c4-23,14.6-26.9,20.5-68.1c-7,39.3-22.5,42.9-27,67.5
				c-2.4,13.1,4.1,26-2.1,36.4c-7.6,12.8-26.7,8.1-34.6-2.9c-7.9-11-12.2-20.2-14.2-35.1c-1.6-11.3-2.9-35.6-2.9-35.6
				c-4.3,23.6-4.5,36.9,1.3,69.4c1.7,9.5,8.7,33.5,6.9,43.2c-3.7,20-17.4,27.5-32.9,25.3c-15.4-2.2-18.1-12.5-26.8-32.4
				c-13.3-30.6-24.3-63.1-28-96.2c-2.7-23.7-0.1-50.6,4.6-74.1c8-57.7,108.9-112.1,99.2-25.6c-1.4,17.3-1.7,31.1,4.9,44.4
				c6.3,12.7,19.5,24.2,22.9,23.6c-9.1-6.2-17.5-17.4-19.7-34.7c-4.4-34.3,11.8-68.3,34.3-93.5c15.2-17,48.3-41.5,66.7-19
				C459.8,1395.4,461,1432.3,457.3,1461.3z"/>
			<path class="st4" d="M656.9,1638.3c-6.9,24.4-13.3,42-27.5,44.1c-27,4-41.1-38.1-42.9-61.5c-2.3-29.2,1.6-52.1,11.7-78.9
				c-16.5,34-57.8,32.7-77.7,2.7c5.7,19.7,28.6,19.4,24.2,59.1c-2.7,24.9-32.9,129.1-73.1,66.6c-13.6-23.3-14.8-52.8-14.7-77.5
				c0.3-66,19.4-130.8,42.3-195.7c8.9-27.2,24-59,51.7-69.4c15.6-5.9,43.1-5.9,56.5,17.6c14.7,25.8,24,56.1,31.2,85.4
				c8.7,37.1,14.6,74.6,19.9,112.3C662.9,1574.3,665.5,1608.1,656.9,1638.3z M571,1456c-0.5-7.2-0.9-14.4-1.4-21.6
				c-0.3-4.7-0.6-9.5-2-13.5c-1.4-4-4-6.9-6.9-6.1c-4.2,1.3-6.6,9.3-8,16.1c-5.3,23.2-15.6,58.8-1.3,76
				C565,1523.2,572.1,1473.4,571,1456z"/>
			<path class="st4" d="M891.5,1400.3c-3.3,20.7-14.4,32.2-15.7,33.6c-8.4,9.2-16.4,9.3-21.3,9.3c-10.2,0-21.2-3.2-28.3-8.3
				c-6.7-4.8-22.6-25.7-37.9,15.7c-1.7,5.9-2.6,13.8-2.6,13.8s3.4-11.3,6.1-16c3.6-6.2,7.4-11,11.7-13.5c1.3-0.8,2.5,1.2,2.1,3.6
				c-7.3,54.8-14,110.9-11.8,166.3c0.7,17.1,0.9,31-3.2,47.5c-2.7,10.9-6.4,23.6-16,25c-9.6,1.4-24.2-11.1-30.3-23.9
				c-11.9-24.7-18-51.7-19.9-78.8c-1.8-25.5-2.5-51.3-2.3-76.9c0.2-37.7-0.4-41.8,12.3-51.2c0,0-5.7-4.2-18.5,16.2
				c-6.6,10.5-15,23.4-27.8,22.8c-9.5-0.5-17.5-7.2-22.7-17c-8.6-15.9-14.7-36-10.1-68c4.5-31.6,17.4-64.7,39.9-88.5
				c19.3-17.2,36.3-23.7,57.4-32.1c20.5-8.2,51.9-7.3,72.6-0.6c28.1,9.1,44,30.5,47.7,36.7C887.2,1339.6,897,1371.8,891.5,1400.3z"
				/>
			<path class="st4" d="M1129.2,1399.2c-3.7,20.5-14.9,31.1-16.3,32.5c-8.5,8.6-16.4,8.1-21.3,7.6c-10.1-0.9-21-5.1-27.9-10.9
				c-6.5-5.5-21.8-28.7-38,13c-1.8,5.9-2.9,14.2-2.9,14.2s3.6-11.5,6.5-16.2c3.7-6.1,7.6-10.9,12-13c1.3-0.7,2.4,1.5,2,3.9
				c-8.6,56.5-16.5,114.2-15.6,171.5c0.3,17.7,0.2,32.1-4.3,49.2c-3,11.3-6.9,24.5-16.6,25.9c-9.6,1.4-23.9-11.7-29.7-25.3
				c-11.4-26.5-16.7-55.1-17.9-83.7c-1.2-27.1-1.2-54.5-0.4-81.7c1.1-40,0.6-44.5,13.5-53.4c0,0-5.6-5-18.8,15.7
				c-6.8,10.7-15.6,23.9-28.3,22.3c-9.5-1.2-17.3-9-22.3-20c-11.9-23.8-11.1-50.5-8.4-74.6c3.5-31.2,18-67.1,42.1-90.9
				c19.7-16,36.7-20.7,57.9-26.5c21.4-5.9,52.5-0.1,71.9,9.3c27.3,13.2,42.7,37,46.2,43.8C1125.9,1337,1135.3,1370,1129.2,1399.2z"
				/>
			<path class="st4" d="M1279.6,1442.1c-34.8-5.5-68.6-21-98.6-39.9c4.8,4.6,11.9,16.6,22.9,19.4c-0.8,11.3-2.7,32.8-3.5,44.1
				c25.1,1.1,57.2,0.5,74,22.5c8.7,16.2-1.6,40-12.2,52.5c-10.6,12.5-23.7,14.1-36,13.6c-7.2-0.3-14.8-1.5-20.4-9.3
				c-5.6-7.7-4.9-18-3.1-34.7c-3.2,11.9-6.3,23.6-6.9,40.4c-0.9,25.7,10.5,47.8,34.2,35.1c26.3-16.3,75.1-33.3,78.8,14.1
				c2.3,29.3-15.7,55.8-44.9,64.1c-27.5,7.9-56.4,7.2-83.4-1.4c-11-3.5-28.4-12.8-37.1-25.5c-7.2-10.5-11.2-27.2-12.8-44.6
				c-1.6-17.4-0.9-35.5-0.3-53.4c1.8-49.2,4.4-98.4,5.3-147.6c0.6-31.7-1.8-74.8,17-102.4c39.8-20.4,89.3-6.7,128.4,8.1
				c13.7,5.2,29.8,13.3,38.4,30.3c12.6,24.8,12.7,62.4,4.9,90.8c-4.5,12-12.3,19.4-20.3,22.5
				C1295.9,1444,1287.6,1443.4,1279.6,1442.1z"/>
			<path class="st4" d="M1511.5,1628.2c3.5,23.6-9.5,51.1-25.5,51.4c-53.5,0.8-93.6-68.7-91.3-117.2c-3.6,35.6,4.9,39.4,5.6,62.4
				c0.6,18.4-1.5,48.6-35.9,55.7c-24.4,5-34.7-26.1-34.8-41.1c-3.8-52.4-3.7-104-0.6-156.5c2.9-48.8,13-108.1,44.7-144.8
				c35.5-41.1,107.9-5.4,135.7,29c18.1,22.9,27.4,51.8,30.5,80.4c4.2,38.7-9.4,85.5-33.4,114.4c-15.8,19-45,28.2-53.5-1.4
				c5.7,17.6,2.6,24.1,25.4,35C1489,1600.5,1506.2,1592.4,1511.5,1628.2z M1458.9,1420c-1.4-4-4.3-4.3-6.7-4.1
				c-12.9,1.3-25.8,7.3-38,18c3.1-2.2,4.6-3.2,7.7-5.3c-6.6,4.5-12.6,13.4-16.9,25.1c16.3,9.4,34.8,3.5,49.3-14.4
				C1457.6,1435,1461.2,1426.5,1458.9,1420z"/>
			<path class="st4" d="M1707.2,1634.4c-4.7,9.5-16.1,21.9-25,28.2c-34.2,22.7-99.2,31.3-125.5-8.4c-12.5-19.9-9.4-37.6-4.4-44
				c6.6-8.3,19.2,0.7,23.2,4.8c18.2,18.3,41.6,12.1,55.8,6c5.5-2.4,17.8-9.5,18.9-11.4c3.5-6.2-7.6-4.5-22.9-2
				c-38.7,8.1-70.4-9.8-79.6-47.8c-7.4-29.9-8.3-63-1.3-92.6c5.8-24.3,23-51.2,37.8-61.4c18-12.3,42.9-7.9,63.7,5
				c23.9,14.8,42.1,40.2,51.9,66.5c8.4,22.8,9.8,55.3-10.5,72.9c-11.2,7.7-26.4,7.9-42.1,3.7c-16.1-4.3-39-14.9-43.1-39.9
				c-2.4,6.6-0.4,18.8,2.5,25.5c9.4,21.9,22.6,28.9,40.9,28c26.2-1.3,45.7-0.8,58.1,18.4C1712.1,1596.3,1716.5,1615.6,1707.2,1634.4
				z"/>
		</g>
	</g>
	<path class="st2" d="M259.6,284.8c7.6-6.3,34.7-24.9,64.7-20.2c30,4.6-23.1,8.6-28.2,14.7c-5.1,6.1-21.5,36.1-36.5,31.2
		S252.9,290.4,259.6,284.8z"/>
	<path class="st2" d="M304.5,395.4c-0.1,0.9-0.1,1.9-0.2,3c-1.2,13.7-4.6,41,0.2,49c5.2,8.7,12.1-43.8,10.4-55.5
		S305.3,386.1,304.5,395.4z"/>
	<path class="st2" d="M516.1,279.2c-10,5.3-29.1,34.1-33.4,61.9c-4.3,27.8-4.3,55.1-3.5,62.7c0.9,7.7,8.2-12.8,10-31.5
		c1.7-18.7,24.3-65.3,36.9-75.8C538.6,286,532.1,270.7,516.1,279.2z"/>
	<path class="st2" d="M607.4,325.2c4.3-10.8,21.5-49.1,34.1-50.3c12.7-1.2,9.1,7.5,0,16s-24.1,31.1-28,44.2
		C609.7,348.1,603.6,334.8,607.4,325.2z"/>
	<path class="st2" d="M584.6,499c-0.6,9.1-1.3,28.6,2.2,36c3.5,7.4,9.8-31.2,6.2-42.5C589.4,481.2,585.1,491.2,584.6,499z"/>
	<path class="st2" d="M728.6,284.9c1-10.7,25.6-20.9,52.8-16.6c27.2,4.3,1.8,14-10.9,14.4c-12.7,0.4-25.3,7.7-30.2,19
		S726.5,308.4,728.6,284.9z"/>
	<path class="st2" d="M703,434.6c-7.3,15.5-12.6,56.6-9.1,72.7c3.5,16,13,1.3,13.9-13.2C708.6,479.5,709.9,419.8,703,434.6z"/>
	<path class="st2" d="M998.3,323c0.4-14.9,9.7-45.7,19-45.3c9.3,0.4-4.7,55-10.2,62.6S997.9,338.2,998.3,323z"/>
	<path class="st2" d="M1137.5,320.9c1.7-11.8,16.1-26.7,15.2-15.2C1151.9,317.1,1135.8,332.7,1137.5,320.9z"/>
	<path class="st2" d="M1230.4,301.2c-0.6-14.2,8.7-30.9,10.8-21.1C1243.3,290,1231,316.3,1230.4,301.2z"/>
	<path class="st2" d="M1341.8,303.9c-0.3-14.4,15-34,18.4-26.7c3.4,7.2-14.4,80-20.7,69.9C1333,336.9,1342,317.5,1341.8,303.9z"/>
	<path class="st2" d="M1509.1,282.9c1.6,9.9,17.8,48.1,22.9,54.9c5.1,6.8,10.2-7.4,2.5-25.9C1526.9,293.4,1506.6,267.3,1509.1,282.9
		z"/>
	<path class="st2" d="M1648.3,275.7c-2.4,9.6-10.2,33.6-3.8,36.2s14.8-38.8,11.8-42.2C1653.4,266.3,1650.7,266.3,1648.3,275.7z"/>
	<path class="st2" d="M235,596.4c-2.4,6-1.1,33,3,37.9C242.2,639.2,239.5,585,235,596.4z"/>
	<path class="st2" d="M313.8,602.8c-9.1,3.6-8.3,30.7-3,29.9C316.1,632,323.2,599.1,313.8,602.8z"/>
	<path class="st2" d="M385.4,626.6c-4.7,12.4-9.9,25.8-8.4,37.2s22.1-32.6,25.1-40.9C405.1,614.6,392.4,608.1,385.4,626.6z"/>
	<path class="st2" d="M523.2,669.5c2.7,12.4,8.7,41.3,15.5,50.4c6.8,9.1,1.9-42.9,0-54.2C536.9,654.3,518.9,649.4,523.2,669.5z"/>
	<path class="st2" d="M638.8,672.1c-1.9-14.8-4.5-32.2,4.5-35.6s5.3,18.9,4.9,29.5c-0.4,10.6,0.8,44.7-3.4,38.6
		C640.7,698.6,639.8,680.1,638.8,672.1z"/>
	<path class="st2" d="M811.1,633.1c5.5-10.1,36.7-44.7,62.1-42.8s-8,26.1-26.1,42.8S788.7,674.3,811.1,633.1z"/>
	<path class="st2" d="M1041.4,571c8-9.5,31.8-36.4,54.5-37.9c22.7-1.5-37.9,32-47.3,51C1039.1,603.2,1029.5,585.3,1041.4,571z"/>
	<path class="st2" d="M1247.3,520.7c6.3-10,65.7-24.9,81.5-15.6c15.9,9.3-50.2,12-58.5,27.9C1262.1,548.9,1239.6,533,1247.3,520.7z"
		/>
	<path class="st2" d="M1470.9,519.8c-3.9,8.6-22.9,52.7-22.3,62c0.5,9.3,43.8-53.1,39.4-65.1
		C1483.6,504.6,1476.4,507.7,1470.9,519.8z"/>
	<path class="st2" d="M1586.2,602.5c-3.8,27.4-6.2,60.2,0,50.3c6.2-9.8,19.9-54.7,13.3-65.6S1587.7,592.2,1586.2,602.5z"/>
	<path class="st2" d="M255.3,954.9c4.2-18.9,27.4-63.6,40.3-63.4c12.8,0.2-20.6,54.7-23.6,70.1C268.9,977,243.8,1006.8,255.3,954.9z
		"/>
	<path class="st2" d="M404.7,953.9c6-23.7,18-59.4,27.4-51c9.4,8.4-14.8,66.9-18.9,81.3S399,976.8,404.7,953.9z"/>
	<path class="st2" d="M560.2,906.1c-14.7,5.1-11.3,53.8-3.6,42.8C564.3,938,576.7,900.5,560.2,906.1z"/>
	<path class="st2" d="M733.9,962.1c4.2-20.2,24.1-45,35.2-34.1C780.2,939,719.5,1031,733.9,962.1z"/>
	<path class="st2" d="M859.3,989.9c-15.9,7.9-7.8,58.1,2.5,47.8C872.1,1027.4,876.8,981.1,859.3,989.9z"/>
	<path class="st2" d="M943.6,1023.3c-4.6,17.9,1.5,34.6,8.7,21.1C959.5,1031,947.2,1009.4,943.6,1023.3z"/>
	<path class="st2" d="M1028.4,999.1c5.3-19.9,30.5-39.1,40.8-29.8c10.3,9.2-29.7,39-33.6,54.7
		C1031.7,1039.7,1023.7,1017.1,1028.4,999.1z"/>
	<path class="st2" d="M1229.4,1049.2c2.8-18.5,18.6-51.6,27.8-41.4C1266.5,1018.1,1221.6,1101.9,1229.4,1049.2z"/>
	<path class="st2" d="M1354.9,1039.7c2.3,11.8,5.7,26.7,7.7,36.5c2.1,9.8,11.8-26.2,10.3-36.5S1352.3,1026.6,1354.9,1039.7z"/>
	<path class="st2" d="M1497.3,1071c1.6,14.4,1.6,63.9,8.3,78.2c6.6,14.3,14.9-66.9,11.8-85.4
		C1514.2,1045.3,1495.2,1053.1,1497.3,1071z"/>
	<path class="st2" d="M1616,1049.2c-7,11.3-13.4,38.8-9.8,55.2c3.6,16.4,51.4-56,39.6-62.2C1633.9,1036.1,1624.7,1035.1,1616,1049.2
		z"/>
	<path class="st2" d="M255.3,1459.5c-7.6,8.9-16.1,56.5-9,73.5c7.1,17.1,33.2-55.5,34.6-73.5
		C282.4,1441.5,266.2,1446.7,255.3,1459.5z"/>
	<path class="st2" d="M374.3,1411.6c-4.9,11.6-16.4,33.2-10.7,33.7s32.3-28.9,28-36.1S379.6,1398.9,374.3,1411.6z"/>
	<path class="st2" d="M540.5,1349.4c-10.4,2.8-20.1,29.9-21.9,40.8C516.8,1401.2,558.1,1344.7,540.5,1349.4z"/>
	<path class="st2" d="M715.9,1310.5c-8.9,9.3-42,57.4-41.5,75s42.2-49.3,64.5-58.4c22.3-9,40.3-32.7,25.6-34.2
		C749.8,1291.6,724.2,1301.8,715.9,1310.5z"/>
	<path class="st2" d="M945.7,1301.9c10.7-14.6,49.7-31.7,54.3-20.8C1004.6,1292,910.6,1349.7,945.7,1301.9z"/>
	<path class="st2" d="M1181.1,1296.8c23.6-4.9,74,4.8,74,11.2s-39.4,12.1-52.7,9.2C1189.1,1314.3,1160.7,1301.1,1181.1,1296.8z"/>
	<path class="st2" d="M1378,1355.8c7.2-14.6,34.2-23.4,30.8-10.2C1405.5,1358.9,1347.1,1418.6,1378,1355.8z"/>
	<path class="st2" d="M1583.9,1428.2c14-20.9,45-22.8,38.4-6.6C1615.7,1437.7,1555,1471.4,1583.9,1428.2z"/>
</g>
</svg>
