<?xml version="1.0" encoding="utf-8"?>
<!-- Generator: Adobe Illustrator 26.1.0, SVG Export Plug-In . SVG Version: 6.00 Build 0)  -->
<svg version="1.1" id="Слой_1" xmlns="http://www.w3.org/2000/svg" xmlns:xlink="http://www.w3.org/1999/xlink" x="0px" y="0px"
	 viewBox="0 0 2000 2000" style="enable-background:new 0 0 2000 2000;" xml:space="preserve">
<style type="text/css">
	.st0{fill:#F7DEF1;}
	.st1{opacity:0.73;}
	.st2{fill:#F3CBE5;}
	.st3{fill:#794F65;}
	.st4{fill:#FFFFFF;}
	.st5{fill:#FA9BB1;}
</style>
<g>
	<g>
		<rect class="st0" width="2000" height="2000"/>
		<g class="st1">
			<g>
				<g>
					<path class="st2" d="M204.4,118.4c-5.2-6-10.5-8.9-15.8-8.5c-16.1,1.5-31.6,4.3-46.7,8.5c-15,4.2-29.5,9.9-43.3,16.9
						c0-23.6,0.3-47.1,0.8-70.5c0.5-21.5,1.1-43.1,1.9-64.7H70c-0.8,22.5-1.3,45.1-1.6,67.7c-0.4,22.9-0.5,45.8-0.5,68.8v20.7
						c0,3.4,1.1,6.8,3.1,10c1.9,3.3,4.4,6,7.4,8.3c2.3,1.6,5.1,3,8.4,4.1c1.2,0.3,2.4,0.5,3.4,0.5c2.1,0,4-0.6,5.8-1.7
						c15.2-10.6,31.9-19.2,50.1-25.9c18-6.6,36.6-10.8,55.6-12.4c2.5-0.2,4.4-0.7,5.8-1.7c1.2-1.1,2.1-2.5,2.6-3.9
						c0.2-0.8,0.2-1.7,0.2-2.7C210.4,127.9,208.4,123.5,204.4,118.4z"/>
					<path class="st2" d="M402.5,20.8c-4.1-7.7-8.9-14.6-14.6-20.8H254.5c-3.7,3.4-7.2,7-10.5,10.8c-6.3,7-11.8,14.4-16.5,22.2
						c-4.9,7.8-8.5,16.1-10.8,24.9c-1.9,8-2.9,16-2.9,24.1c0,7.8,0.9,15.6,2.6,23.4c3.9,16,11.3,30.1,22.3,42.5
						c5.4,5.9,11.7,11.1,18.9,15.6c7.2,4.4,14.9,7.4,23.1,9c4.9,1,9.7,1.5,14.5,1.5c4.2,0,8.3-0.3,12.3-1c8.9-1.6,17.4-4.3,25.5-8
						c10.5-5.2,19.7-11.6,27.6-19.3c7.9-7.8,15-16.2,21.5-25.4c6.6-9.4,12.8-19.4,18.6-30c5.8-10.6,9-21.7,9.7-33.4v-4.2
						C410.4,41.7,407.8,31.1,402.5,20.8z M379.9,41.1c-0.3,9.6-3.2,19-8.7,28.3c-5.2,9.4-10.4,17.9-15.5,25.4
						c-5.1,7.5-10.8,14.6-17.1,21.2s-13.6,12.4-21.8,17.3c-7.2,4.2-15.7,7.5-25.5,9.8c-9.8,2.3-18.7,1.4-26.8-2.7
						c-2.8-1.3-5.2-3.1-7.3-5.4c-2.3-2.3-4.1-4.7-5.5-7.3c-8.2-16.7-9.7-33.6-4.5-50.5c5.4-16.9,14.2-31.9,26.5-44.9
						c5.9-6.2,12.5-11.8,19.7-16.8c7.2-5,15.1-9,23.6-11.9c10.3-3.4,21-3.9,32-1.5c11,2.3,19.4,8.1,25.2,17.3
						c2.3,3.4,3.9,6.9,4.7,10.5C379.9,33.6,380.1,37.3,379.9,41.1z"/>
					<path class="st2" d="M565.4,0c-8.8,16.1-16.8,32.6-23.8,49.4c-10.8,26-20.8,52.3-29.9,78.8c-12.9-21.1-24.2-43.1-33.6-65.9
						C469.5,42,462.7,21.2,457.6,0h-38.4c6.9,29.7,16.9,58.5,29.8,86.5c14,29.9,30.9,58.2,50.7,84.9c2.1,2.7,4.9,4.7,8.4,5.9
						c3.2,1,6.3,1.5,9.5,1.5h1c3-0.3,6.5-1.1,10.5-2.2c4-1.3,6.6-3.5,7.6-6.6c10.5-32.8,22-65.5,34.4-97.8
						c9.6-24.7,20.9-48.7,33.9-72.1H565.4z"/>
					<path class="st2" d="M783.6,122.3c-0.7-2.1-1.7-4.1-2.9-5.9c-3.5-5-7.6-8.3-12.3-9.8c-4.7-1.5-10.2-1.8-16.5-1
						c-7.9,1-15.7,2.5-23.6,4.4c-7.9,2-15.5,4.5-22.8,7.6c-7.5,3.1-14.9,6.8-22,11.2c-7.2,4.2-14.3,8.4-21.5,12.4
						c-0.3-6.8-0.6-13.7-0.8-20.5c-0.3-6.7-0.5-13.5-0.5-20.5c-0.2-2.3-0.3-4.6-0.3-7.1c-0.2-2.3-0.3-4.6-0.3-7.1
						c16.1-8.3,32.9-15,50.4-20c17.7-4.9,35.4-9.2,53.3-12.9c4.4-1,6.1-3.7,5.2-8c-0.7-4.4-1.8-7.7-3.4-10c-2.3-3.2-5.4-6.2-9.2-8.8
						c-4-2.7-8.2-3.6-12.6-2.7c-14.5,3.1-28.8,6.5-42.8,10.2c-14,3.9-27.7,8.5-41,13.9c0-5.2,0.3-10.4,0.8-15.6
						c0.3-5.2,0.9-10.4,1.8-15.6C679.3,10.1,696.5,4.6,714,0h-85.4c0.2,2.8,1.1,5.3,2.6,7.6c-1.4,11.2-2.1,22.6-2.1,34.2
						c0,11.4,0.2,22.8,0.5,34.2c0.3,10.1,0.6,20.2,0.8,30.3c0,10.1,0.2,20.2,0.5,30.3c0.2,2.6,0.3,5.5,0.3,8.5c0,2.9,0.2,6,0.5,9.3
						c0.5,5.7,1.8,11.2,3.7,16.6c1.7,5.4,5.2,9.5,10.5,12.4c2.5,1.5,4.9,2.1,7.3,2c0.9,0,1.8-0.1,2.9-0.2c3.3-0.8,6.5-2.2,9.4-4.2
						c3.3-1.8,6.6-3.6,9.7-5.6c3-1.8,6.1-3.7,9.5-5.6c7.2-3.9,14.2-8,21.3-12.2c7-4.2,14.3-8,22-11.2c7.5-3.1,15.3-5.5,23.3-7.3
						c8-1.8,16.2-3,24.4-3.6c2.3-0.3,4.3-0.9,6-1.7c1.6-0.8,2.4-2.5,2.6-4.9v-1.7C784.4,125.5,784.1,123.9,783.6,122.3z"/>
				</g>
			</g>
			<g>
				<g>
					<path class="st2" d="M249,960c4.3,5.3,6.4,10.1,6.4,14.2c0,1-0.1,2-0.3,2.8c-0.6,1.6-1.5,2.9-2.8,4.1c-1.5,1-3.5,1.6-6.1,1.8
						c-20.2,1.7-39.8,6.1-58.9,13.2c-19.3,7.1-37,16.2-53.1,27.4c-1.9,1.2-3.9,1.8-6.1,1.8c-1.1,0-2.3-0.2-3.6-0.5
						c-3.5-1.2-6.5-2.7-8.9-4.4c-3.2-2.4-5.7-5.3-7.8-8.8c-2.2-3.4-3.3-7-3.3-10.6c0-7.4,0-14.7,0-22c0-24.3,0.2-48.6,0.6-72.9
						c0.4-31.5,1.2-63,2.5-94.6c0.2-4.5,2.4-6.9,6.7-7.2c0.4,0,0.8,0,1.4,0c3.5,0,6.7,0.7,9.5,2.1c3.9,2.1,7.4,5.1,10.6,9
						c3.1,4.1,4.6,8.4,4.4,12.9c-0.9,25-1.7,49.9-2.2,74.7c-0.6,24.8-0.8,49.7-0.8,74.7c14.6-7.4,29.9-13.3,45.9-17.8
						c15.9-4.5,32.4-7.5,49.5-9C237.9,950.6,243.4,953.6,249,960z"/>
					<path class="st2" d="M515.8,856.7c5.6,10.9,8.3,22.1,8.3,33.8c0,1.4,0,2.8,0,4.4c-0.7,12.4-4.2,24.2-10.3,35.4
						c-6.1,11.2-12.7,21.8-19.7,31.8c-6.9,9.6-14.5,18.6-22.8,26.9c-8.3,8.1-18.1,14.9-29.2,20.4c-8.5,4-17.5,6.8-27,8.5
						c-4.3,0.7-8.6,1-13.1,1c-5,0-10.1-0.5-15.3-1.5c-8.7-1.7-16.9-4.9-24.5-9.6c-7.6-4.8-14.3-10.3-20-16.5
						c-11.7-13.1-19.6-28.1-23.6-45c-1.9-8.3-2.8-16.5-2.8-24.8c0-8.6,1-17.1,3.1-25.6c2.4-9.3,6.2-18.1,11.4-26.4
						c5-8.3,10.8-16.1,17.5-23.5c7.4-8.6,15.9-16.4,25.6-23.3c9.5-6.7,19.8-12,31.1-15.8c8.5-2.6,17.2-3.9,26.1-3.9
						c6.3,0,12.7,0.7,19.2,2.1c15.4,3.4,28.9,10.1,40.6,19.9C500.8,833.9,509.3,844.4,515.8,856.7z M491,866.2
						c-0.9-3.8-2.6-7.5-5-11.1c-6.1-9.8-15-15.9-26.7-18.3c-11.7-2.6-23-2.1-33.9,1.6c-9.1,3.1-17.4,7.3-25,12.7
						c-7.6,5.3-14.5,11.3-20.8,17.8c-13,13.8-22.3,29.6-28.1,47.5c-5.6,17.9-4,35.7,4.7,53.5c1.5,2.8,3.4,5.3,5.8,7.8
						c2.2,2.4,4.8,4.3,7.8,5.7c8.5,4.3,18,5.3,28.4,2.8c10.4-2.4,19.4-5.9,27-10.3c8.7-5.2,16.4-11.3,23.1-18.3
						c6.7-7.1,12.7-14.6,18.1-22.5c5.4-7.9,10.8-16.9,16.4-26.9c5.7-9.8,8.8-19.8,9.2-30C492,874.1,491.8,870.2,491,866.2z"/>
					<path class="st2" d="M796.7,802.4c3.1,1.7,4.7,3.7,4.7,5.9c0,1-0.4,2.2-1.1,3.6c-19.5,31.7-35.9,64.7-49.2,99
						c-13.2,34.3-25.3,68.8-36.4,103.6c-1.1,3.3-3.8,5.6-8.1,7c-4.3,1.2-8,2-11.1,2.3c-0.4,0-0.7,0-1.1,0c-3.3,0-6.7-0.5-10-1.5
						c-3.7-1.2-6.7-3.3-8.9-6.2c-20.9-28.2-38.8-58.2-53.6-89.9c-14.6-31.7-25.7-64.4-33.1-98.2c-0.2-0.5-0.3-1-0.3-1.5
						c0-3.4,2.4-5.9,7.2-7.5c5.6-1.7,9.8-2.8,12.8-3.1c4.1-0.2,8.3,0.5,12.8,2.1s7,4.4,7.8,8.5c5.6,25.3,13.4,50,23.6,74.1
						c10,24.1,21.9,47.4,35.6,69.8c9.6-28.1,20.2-55.9,31.7-83.5c11.5-27.4,25.2-53.9,41.1-79.6c2.4-4,5.9-6.5,10.6-7.7
						c3.5-0.9,7-1.3,10.6-1.3c1.1,0,2.2,0.1,3.3,0.3C788.4,798.7,792.1,800,796.7,802.4z"/>
					<path class="st2" d="M1033.2,964.1c0.6,1.7,0.8,3.4,0.8,4.9c0,0.7,0,1.3,0,1.8c-0.2,2.6-1.1,4.3-2.8,5.2
						c-1.9,0.9-4,1.5-6.4,1.8c-8.7,0.7-17.3,2-25.9,3.9c-8.5,1.9-16.8,4.5-24.7,7.8c-8.2,3.4-15.9,7.4-23.3,11.9
						c-7.4,4.5-14.9,8.8-22.5,12.9c-3.5,2.1-6.9,4-10,5.9c-3.3,2.1-6.8,4-10.3,5.9c-3.2,2.1-6.5,3.5-10,4.4
						c-1.1,0.2-2.1,0.3-3.1,0.3c-2.6,0.2-5.2-0.5-7.8-2.1c-5.6-3.1-9.3-7.5-11.1-13.2c-2-5.7-3.3-11.5-3.9-17.6
						c-0.4-3.4-0.6-6.7-0.6-9.8c0-3.3-0.1-6.3-0.3-9c-0.4-10.7-0.6-21.4-0.6-32c-0.2-10.7-0.5-21.4-0.8-32
						c-0.4-12.1-0.6-24.1-0.6-36.2c0-12.2,0.7-24.3,2.2-36.2c-1.9-2.9-2.8-6.2-2.8-9.8c-0.2-3.6,1.6-6.2,5.3-7.7
						c20.4-8.8,41.3-16,62.8-21.7c21.5-5.7,43.4-9.7,65.6-12.1c0.9-0.2,1.8-0.3,2.5-0.3c3.9,0,7.5,1.1,10.8,3.4
						c3.7,2.4,6.9,5.4,9.7,9c0.9,1.6,1.8,3.4,2.8,5.7c0.7,2.2,1,4.3,0.8,6.2c0,1.4-0.6,2.8-1.7,4.4c-0.9,1.7-2.2,2.7-3.9,2.8
						c-20.6,2.4-40.8,6.1-60.6,11.1c-19.8,5-39.2,11.2-58.1,18.6c-0.9,5.5-1.6,11-1.9,16.5c-0.6,5.5-0.8,11-0.8,16.5
						c14.1-5.7,28.5-10.6,43.4-14.7c14.8-4,29.9-7.6,45.3-10.9c4.6-1,9.1-0.1,13.3,2.8c4.1,2.8,7.3,5.9,9.7,9.3
						c1.7,2.4,2.9,5.9,3.6,10.6c0.9,4.7-0.9,7.5-5.6,8.5c-18.9,4-37.7,8.5-56.4,13.7c-18.5,5.3-36.3,12.4-53.4,21.2
						c0,2.6,0.1,5.1,0.3,7.5c0,2.6,0.1,5.1,0.3,7.5c0,7.4,0.2,14.6,0.6,21.7c0.2,7.2,0.5,14.5,0.8,21.7c7.6-4.3,15.2-8.7,22.8-13.2
						c7.6-4.7,15.4-8.6,23.3-11.9c7.8-3.3,15.8-5.9,24.2-8c8.3-2.1,16.7-3.6,25-4.7c6.7-0.9,12.5-0.5,17.5,1c5,1.5,9.4,5,13.1,10.3
						C1031.5,959.8,1032.5,961.9,1033.2,964.1z"/>
				</g>
			</g>
			<g>
				<g>
					<path class="st2" d="M1895.1,66c-7.6-8.8-15.3-12.9-23-12.4c-23.5,2.1-46.2,6.3-68.2,12.4c-22,6.2-43,14.4-63.2,24.6
						c0-30.3,0.3-60.5,0.9-90.6h-45.1c-0.4,30.8-0.7,61.6-0.7,92.4v30.3c0,5,1.5,9.8,4.6,14.6c2.8,4.7,6.4,8.8,10.7,12.1
						c3.3,2.4,7.4,4.4,12.2,6c1.8,0.5,3.5,0.7,5,0.7c3.1,0,5.9-0.8,8.4-2.5c22.2-15.4,46.6-28,73.2-37.8
						c26.3-9.7,53.4-15.8,81.3-18.2c3.6-0.2,6.4-1.1,8.4-2.5c1.8-1.7,3.1-3.6,3.8-5.7c0.3-1.2,0.4-2.5,0.4-3.9
						C1904,79.9,1901,73.3,1895.1,66z"/>
					<path class="st2" d="M1983.3,98.1c-4.1-1.9-7.6-4.5-10.7-7.8c-3.3-3.3-6-6.9-8-10.7c-12-24.4-14.2-49-6.5-73.7
						c0.6-2,1.3-3.9,2-5.8h-50.4c-0.4,4.3-0.6,8.6-0.6,12.9c0,11.4,1.3,22.8,3.9,34.2c5.6,23.3,16.5,43.9,32.6,62
						c7.9,8.6,17.1,16.2,27.6,22.8c8.5,5.2,17.5,9.1,27.1,11.6v-40.2C1994.2,102.5,1988.6,100.7,1983.3,98.1z"/>
				</g>
			</g>
			<g>
				<g>
					<path class="st2" d="M1006.6,541.1c6.3,7.9,9.4,14.8,9.4,20.9c0,1.5-0.1,2.9-0.4,4.2c-0.8,2.3-2.2,4.3-4.1,6.1
						c-2.2,1.5-5.2,2.4-9,2.7c-29.8,2.5-58.7,9-86.8,19.4c-28.4,10.4-54.5,23.9-78.2,40.3c-2.7,1.8-5.7,2.7-9,2.7
						c-1.6,0-3.4-0.3-5.3-0.8c-5.2-1.8-9.6-3.9-13.1-6.5c-4.6-3.6-8.5-7.9-11.5-12.9c-3.3-5.1-4.9-10.3-4.9-15.6
						c0-10.9,0-21.7,0-32.3c0-35.8,0.3-71.5,0.8-107.3c0.5-46.4,1.8-92.9,3.7-139.3c0.3-6.6,3.5-10.1,9.8-10.7c0.5,0,1.2,0,2,0
						c5.2,0,9.8,1,13.9,3c5.7,3,10.9,7.5,15.6,13.3c4.6,6.1,6.8,12.4,6.5,19c-1.4,36.8-2.5,73.4-3.3,110c-0.8,36.5-1.2,73.2-1.2,110
						c21.6-10.9,44.1-19.7,67.6-26.3c23.5-6.6,47.8-11,72.9-13.3C990.2,527.2,998.4,531.7,1006.6,541.1z"/>
					<path class="st2" d="M1315.7,388.8c8.2,16,12.3,32.6,12.3,49.9c0,2,0,4.2,0,6.5c-1.1,18.3-6.1,35.6-15.1,52.1
						c-9,16.5-18.7,32.1-29.1,46.8c-10.1,14.2-21.3,27.4-33.6,39.6c-12.3,11.9-26.6,21.9-43,30.1c-12.6,5.8-25.8,10-39.7,12.6
						c-6.3,1-12.7,1.5-19.2,1.5c-7.4,0-14.9-0.8-22.5-2.3c-12.8-2.5-24.8-7.2-36-14.1c-11.2-7.1-21-15.2-29.5-24.4
						c-17.2-19.3-28.8-41.4-34.8-66.2c-2.7-12.2-4.1-24.4-4.1-36.5c0-12.7,1.5-25.2,4.5-37.7c3.5-13.7,9.1-26.6,16.8-38.8
						c7.4-12.2,16-23.7,25.8-34.6c10.9-12.7,23.5-24.1,37.7-34.3c13.9-9.9,29.2-17.6,45.9-23.2c12.6-3.8,25.4-5.7,38.5-5.7
						c9.3,0,18.7,1,28.3,3c22.7,5.1,42.6,14.8,59.8,29.3C1293.8,355.4,1306.2,370.8,1315.7,388.8z M1279.3,402.9
						c-1.4-5.6-3.8-11-7.4-16.4c-9-14.5-22.1-23.5-39.3-27c-17.2-3.8-33.9-3-50,2.3c-13.4,4.6-25.7,10.8-36.9,18.6
						c-11.2,7.9-21.4,16.6-30.7,26.3c-19.1,20.3-32.9,43.6-41.4,70c-8.2,26.4-5.9,52.6,7,78.8c2.2,4.1,5,7.9,8.6,11.4
						c3.3,3.6,7.1,6.3,11.5,8.4c12.6,6.3,26.5,7.7,41.8,4.2c15.3-3.6,28.5-8.6,39.7-15.2c12.8-7.6,24.2-16.6,34-27
						c9.8-10.4,18.7-21.4,26.6-33.1c7.9-11.7,16-24.9,24.2-39.6c8.5-14.5,13-29.2,13.5-44.1C1280.8,414.6,1280.4,408.8,1279.3,402.9
						z"/>
					<path class="st2" d="M1645.8,308.9c4.6,2.5,7,5.5,7,8.8c0,1.5-0.6,3.3-1.6,5.3c-28.7,46.7-52.8,95.3-72.5,145.8
						c-19.4,50.5-37.3,101.4-53.6,152.6c-1.6,4.8-5.6,8.2-11.9,10.3c-6.3,1.8-11.7,2.9-16.4,3.4c-0.5,0-1.1,0-1.6,0
						c-4.9,0-9.8-0.8-14.7-2.3c-5.5-1.8-9.8-4.8-13.1-9.1c-30.8-41.6-57.2-85.8-79-132.4c-21.6-46.7-37.8-94.9-48.7-144.6
						c-0.3-0.8-0.4-1.5-0.4-2.3c0-5.1,3.5-8.8,10.6-11c8.2-2.5,14.5-4.1,18.8-4.6c6-0.2,12.3,0.8,18.8,3c6.6,2.3,10.4,6.5,11.5,12.6
						c8.2,37.3,19.8,73.7,34.8,109.2c14.7,35.5,32.2,69.8,52.4,102.8c14.2-41.4,29.7-82.3,46.7-122.9
						c16.9-40.3,37.1-79.4,60.6-117.2c3.5-5.8,8.7-9.6,15.6-11.4c5.2-1.3,10.4-1.9,15.6-1.9c1.6,0,3.3,0.1,4.9,0.4
						C1633.5,303.5,1638.9,305.4,1645.8,308.9z"/>
					<path class="st2" d="M1910.2,547.2c0.8,2.5,1.2,4.9,1.2,7.2c0,1,0,1.9,0,2.7c-0.3,3.8-1.6,6.3-4.1,7.6
						c-2.7,1.3-5.9,2.2-9.4,2.7c-12.8,1-25.5,2.9-38.1,5.7c-12.6,2.8-24.7,6.6-36.4,11.4c-12,5.1-23.5,10.9-34.4,17.5
						c-10.9,6.6-22,12.9-33.2,19c-5.2,3-10.1,6-14.7,8.8c-4.9,3-10,6-15.1,8.8c-4.6,3-9.6,5.2-14.7,6.5c-1.6,0.2-3.1,0.4-4.5,0.4
						c-3.8,0.2-7.6-0.8-11.5-3c-8.2-4.6-13.7-11-16.4-19.4c-3-8.4-4.9-17-5.7-25.9c-0.5-5.1-0.8-9.9-0.8-14.5
						c0-4.8-0.1-9.3-0.4-13.3c-0.5-15.7-0.8-31.5-0.8-47.2c-0.3-15.7-0.7-31.5-1.2-47.2c-0.5-17.8-0.8-35.5-0.8-53.3
						c0-18,1.1-35.8,3.3-53.3c-2.7-4.3-4.1-9.1-4.1-14.5c-0.3-5.3,2.3-9.1,7.8-11.4c30-12.9,60.9-23.6,92.5-32
						c31.7-8.4,63.9-14.3,96.6-17.9c1.4-0.2,2.6-0.4,3.7-0.4c5.7,0,11.1,1.7,16,4.9c5.5,3.6,10.2,8,14.3,13.3
						c1.4,2.3,2.7,5.1,4.1,8.4c1.1,3.3,1.5,6.3,1.2,9.1c0,2-0.8,4.2-2.5,6.5c-1.4,2.5-3.3,3.9-5.7,4.2c-30.3,3.6-60.1,9-89.3,16.4
						c-29.2,7.4-57.7,16.5-85.6,27.4c-1.4,8.1-2.3,16.2-2.9,24.4c-0.8,8.1-1.2,16.2-1.2,24.4c20.7-8.4,42-15.6,63.9-21.7
						c21.8-5.8,44.1-11.2,66.7-16c6.8-1.5,13.4-0.1,19.7,4.2c6,4.1,10.8,8.6,14.3,13.7c2.5,3.6,4.2,8.8,5.3,15.6
						c1.4,6.9-1.4,11-8.2,12.6c-27.8,5.8-55.5,12.6-83.1,20.2c-27.3,7.9-53.5,18.3-78.6,31.2c0,3.8,0.1,7.5,0.4,11
						c0,3.8,0.1,7.5,0.4,11c0,10.9,0.3,21.6,0.8,32c0.3,10.7,0.7,21.3,1.2,32c11.2-6.3,22.4-12.8,33.6-19.4
						c11.2-6.8,22.7-12.7,34.4-17.5c11.5-4.8,23.3-8.8,35.6-11.8c12.3-3,24.6-5.3,36.9-6.9c9.8-1.3,18.4-0.8,25.8,1.5
						c7.4,2.3,13.8,7.4,19.2,15.2C1907.7,540.8,1909.2,543.9,1910.2,547.2z"/>
				</g>
			</g>
			<g>
				<g>
					<path class="st2" d="M303.5,1534.7c6.3,7.9,9.4,14.8,9.4,20.9c0,1.5-0.1,2.9-0.4,4.2c-0.8,2.3-2.2,4.3-4.1,6.1
						c-2.2,1.5-5.2,2.4-9,2.7c-29.8,2.5-58.7,9-86.8,19.4c-28.4,10.4-54.5,23.9-78.2,40.3c-2.7,1.8-5.7,2.7-9,2.7
						c-1.6,0-3.4-0.3-5.3-0.8c-5.2-1.8-9.6-3.9-13.1-6.5c-4.6-3.6-8.5-7.9-11.5-12.9c-3.3-5.1-4.9-10.3-4.9-15.6
						c0-10.9,0-21.7,0-32.3c0-35.8,0.3-71.5,0.8-107.3c0.5-46.4,1.8-92.9,3.7-139.3c0.3-6.6,3.5-10.1,9.8-10.7c0.5,0,1.2,0,2,0
						c5.2,0,9.8,1,13.9,3c5.7,3,10.9,7.5,15.6,13.3c4.6,6.1,6.8,12.4,6.5,19c-1.4,36.8-2.5,73.4-3.3,110s-1.2,73.2-1.2,110
						c21.6-10.9,44.1-19.7,67.6-26.3c23.5-6.6,47.8-11,72.9-13.3C287.1,1520.8,295.3,1525.3,303.5,1534.7z"/>
					<path class="st2" d="M612.6,1382.4c8.2,16,12.3,32.6,12.3,49.9c0,2,0,4.2,0,6.5c-1.1,18.3-6.1,35.6-15.1,52.1
						c-9,16.5-18.7,32.1-29.1,46.8c-10.1,14.2-21.3,27.4-33.6,39.6c-12.3,11.9-26.6,21.9-43,30.1c-12.6,5.8-25.8,10-39.7,12.6
						c-6.3,1-12.7,1.5-19.2,1.5c-7.4,0-14.9-0.8-22.5-2.3c-12.8-2.5-24.8-7.2-36-14.1c-11.2-7.1-21-15.2-29.5-24.4
						c-17.2-19.3-28.8-41.4-34.8-66.2c-2.7-12.2-4.1-24.4-4.1-36.5c0-12.7,1.5-25.2,4.5-37.7c3.5-13.7,9.1-26.6,16.8-38.8
						c7.4-12.2,16-23.7,25.8-34.6c10.9-12.7,23.5-24.1,37.7-34.2c13.9-9.9,29.2-17.6,45.9-23.2c12.6-3.8,25.4-5.7,38.5-5.7
						c9.3,0,18.7,1,28.3,3c22.7,5.1,42.6,14.8,59.8,29.3C590.7,1348.9,603.1,1364.4,612.6,1382.4z M576.2,1396.5
						c-1.4-5.6-3.8-11-7.4-16.4c-9-14.5-22.1-23.5-39.3-27c-17.2-3.8-33.9-3-50,2.3c-13.4,4.6-25.7,10.8-36.9,18.6
						c-11.2,7.9-21.4,16.6-30.7,26.3c-19.1,20.3-32.9,43.6-41.4,70c-8.2,26.4-5.9,52.6,7,78.8c2.2,4.1,5,7.9,8.6,11.4
						c3.3,3.6,7.1,6.3,11.5,8.4c12.6,6.3,26.5,7.7,41.8,4.2c15.3-3.6,28.5-8.6,39.7-15.2c12.8-7.6,24.2-16.6,34-27
						c9.8-10.4,18.7-21.4,26.6-33.1c7.9-11.7,16-24.9,24.2-39.6c8.5-14.5,13-29.2,13.5-44.1C577.7,1408.2,577.3,1402.4,576.2,1396.5
						z"/>
					<path class="st2" d="M942.6,1302.5c4.6,2.5,7,5.5,7,8.8c0,1.5-0.6,3.3-1.6,5.3c-28.7,46.7-52.8,95.3-72.5,145.8
						c-19.4,50.5-37.3,101.4-53.6,152.6c-1.6,4.8-5.6,8.2-11.9,10.3c-6.3,1.8-11.7,2.9-16.4,3.4c-0.5,0-1.1,0-1.6,0
						c-4.9,0-9.8-0.8-14.7-2.3c-5.5-1.8-9.8-4.8-13.1-9.1c-30.8-41.6-57.2-85.8-79-132.4c-21.6-46.7-37.8-94.9-48.7-144.6
						c-0.3-0.8-0.4-1.5-0.4-2.3c0-5.1,3.5-8.8,10.6-11c8.2-2.5,14.5-4.1,18.8-4.6c6-0.2,12.3,0.8,18.8,3c6.6,2.3,10.4,6.5,11.5,12.6
						c8.2,37.3,19.8,73.7,34.8,109.2c14.7,35.5,32.2,69.8,52.4,102.8c14.2-41.4,29.7-82.3,46.7-122.9
						c16.9-40.3,37.1-79.4,60.6-117.2c3.5-5.8,8.7-9.6,15.6-11.4c5.2-1.3,10.4-1.9,15.6-1.9c1.6,0,3.3,0.1,4.9,0.4
						C930.4,1297.1,935.8,1299,942.6,1302.5z"/>
					<path class="st2" d="M1207.1,1540.7c0.8,2.5,1.2,4.9,1.2,7.2c0,1,0,1.9,0,2.7c-0.3,3.8-1.6,6.3-4.1,7.6
						c-2.7,1.3-5.9,2.2-9.4,2.7c-12.8,1-25.5,2.9-38.1,5.7c-12.6,2.8-24.7,6.6-36.4,11.4c-12,5.1-23.5,10.9-34.4,17.5
						c-10.9,6.6-22,12.9-33.2,19c-5.2,3-10.1,6-14.7,8.8c-4.9,3-10,6-15.1,8.8c-4.6,3-9.6,5.2-14.7,6.5c-1.6,0.2-3.1,0.4-4.5,0.4
						c-3.8,0.2-7.6-0.8-11.5-3c-8.2-4.6-13.7-11-16.4-19.4c-3-8.4-4.9-17-5.7-25.9c-0.5-5.1-0.8-9.9-0.8-14.5
						c0-4.8-0.1-9.3-0.4-13.3c-0.5-15.7-0.8-31.5-0.8-47.2c-0.3-15.7-0.7-31.5-1.2-47.2c-0.5-17.8-0.8-35.5-0.8-53.3
						c0-18,1.1-35.8,3.3-53.3c-2.7-4.3-4.1-9.1-4.1-14.5c-0.3-5.3,2.3-9.1,7.8-11.4c30-12.9,60.9-23.6,92.5-32
						c31.7-8.4,63.9-14.3,96.6-17.9c1.4-0.2,2.6-0.4,3.7-0.4c5.7,0,11.1,1.7,16,4.9c5.5,3.6,10.2,8,14.3,13.3
						c1.4,2.3,2.7,5.1,4.1,8.4c1.1,3.3,1.5,6.3,1.2,9.1c0,2-0.8,4.2-2.5,6.5c-1.4,2.5-3.3,3.9-5.7,4.2c-30.3,3.6-60.1,9-89.3,16.4
						c-29.2,7.4-57.7,16.5-85.6,27.4c-1.4,8.1-2.3,16.2-2.9,24.4c-0.8,8.1-1.2,16.2-1.2,24.4c20.7-8.4,42-15.6,63.9-21.7
						c21.8-5.8,44.1-11.2,66.7-16c6.8-1.5,13.4-0.1,19.7,4.2c6,4.1,10.8,8.6,14.3,13.7c2.5,3.6,4.2,8.8,5.3,15.6
						c1.4,6.9-1.4,11-8.2,12.6c-27.8,5.8-55.5,12.6-83.1,20.2c-27.3,7.9-53.5,18.3-78.6,31.2c0,3.8,0.1,7.5,0.4,11
						c0,3.8,0.1,7.5,0.4,11c0,10.9,0.3,21.6,0.8,32c0.3,10.7,0.7,21.3,1.2,32c11.2-6.3,22.4-12.8,33.6-19.4
						c11.2-6.8,22.7-12.7,34.4-17.5c11.5-4.8,23.3-8.8,35.6-11.8c12.3-3,24.6-5.3,36.9-6.9c9.8-1.3,18.4-0.8,25.8,1.5
						c7.4,2.3,13.8,7.4,19.2,15.2C1204.5,1534.4,1206,1537.5,1207.1,1540.7z"/>
				</g>
			</g>
			<g>
				<g>
					<path class="st2" d="M211.1,428.8c2.8,3.5,4.2,6.6,4.2,9.4c0,0.7-0.1,1.3-0.2,1.9c-0.4,1-1,1.9-1.8,2.7c-1,0.7-2.3,1.1-4,1.2
						c-13.3,1.1-26.3,4-38.8,8.7c-12.7,4.7-24.4,10.7-35,18.1c-1.2,0.8-2.6,1.2-4,1.2c-0.7,0-1.5-0.1-2.4-0.3
						c-2.3-0.8-4.3-1.8-5.9-2.9c-2.1-1.6-3.8-3.5-5.1-5.8c-1.5-2.3-2.2-4.6-2.2-7c0-4.9,0-9.7,0-14.5c0-16,0.1-32,0.4-48
						c0.2-20.8,0.8-41.6,1.6-62.3c0.1-3,1.6-4.5,4.4-4.8c0.2,0,0.5,0,0.9,0c2.3,0,4.4,0.5,6.2,1.4c2.6,1.4,4.9,3.3,7,6
						c2.1,2.7,3.1,5.6,2.9,8.5c-0.6,16.5-1.1,32.9-1.5,49.2c-0.4,16.3-0.5,32.8-0.5,49.2c9.6-4.9,19.7-8.8,30.2-11.8
						c10.5-3,21.4-4.9,32.6-6C203.8,422.6,207.5,424.6,211.1,428.8z"/>
					<path class="st2" d="M349.5,360.7c3.7,7.2,5.5,14.6,5.5,22.3c0,0.9,0,1.9,0,2.9c-0.5,8.2-2.7,16-6.8,23.3
						c-4,7.4-8.4,14.4-13,20.9c-4.5,6.4-9.5,12.3-15,17.7c-5.5,5.3-11.9,9.8-19.2,13.5c-5.6,2.6-11.5,4.5-17.8,5.6
						c-2.8,0.5-5.7,0.7-8.6,0.7c-3.3,0-6.7-0.3-10.1-1c-5.7-1.1-11.1-3.2-16.1-6.3c-5-3.2-9.4-6.8-13.2-10.9
						c-7.7-8.6-12.9-18.5-15.6-29.6c-1.2-5.4-1.8-10.9-1.8-16.3c0-5.7,0.7-11.3,2-16.9c1.6-6.1,4.1-11.9,7.5-17.4
						c3.3-5.4,7.1-10.6,11.5-15.5c4.9-5.7,10.5-10.8,16.9-15.3c6.2-4.4,13.1-7.9,20.5-10.4c5.6-1.7,11.4-2.6,17.2-2.6
						c4.1,0,8.4,0.5,12.6,1.4c10.1,2.3,19.1,6.6,26.8,13.1C339.6,345.7,345.2,352.6,349.5,360.7z M333.1,367
						c-0.6-2.5-1.7-4.9-3.3-7.3c-4-6.5-9.9-10.5-17.6-12.1c-7.7-1.7-15.1-1.4-22.4,1c-6,2-11.5,4.8-16.5,8.3
						c-5,3.5-9.6,7.4-13.7,11.8c-8.6,9.1-14.7,19.5-18.5,31.3c-3.7,11.8-2.6,23.6,3.1,35.3c1,1.8,2.3,3.5,3.8,5.1
						c1.5,1.6,3.2,2.8,5.1,3.7c5.6,2.8,11.8,3.5,18.7,1.9c6.8-1.6,12.8-3.9,17.8-6.8c5.7-3.4,10.8-7.4,15.2-12.1
						c4.4-4.7,8.4-9.6,11.9-14.8c3.5-5.2,7.1-11.1,10.8-17.7c3.8-6.5,5.8-13.1,6-19.8C333.8,372.2,333.6,369.6,333.1,367z"/>
					<path class="st2" d="M497.1,324.9c2.1,1.1,3.1,2.4,3.1,3.9c0,0.7-0.2,1.5-0.7,2.4c-12.8,20.9-23.6,42.6-32.4,65.2
						c-8.7,22.6-16.7,45.4-24,68.3c-0.7,2.2-2.5,3.7-5.3,4.6c-2.8,0.8-5.3,1.3-7.3,1.5c-0.2,0-0.5,0-0.7,0c-2.2,0-4.4-0.3-6.6-1
						c-2.4-0.8-4.4-2.2-5.9-4.1c-13.8-18.6-25.6-38.4-35.4-59.3c-9.7-20.9-16.9-42.5-21.8-64.7c-0.1-0.3-0.2-0.7-0.2-1
						c0-2.3,1.6-3.9,4.8-4.9c3.7-1.1,6.5-1.8,8.4-2c2.7-0.1,5.5,0.3,8.4,1.4c2.9,1,4.6,2.9,5.1,5.6c3.7,16.7,8.9,33,15.6,48.9
						c6.6,15.9,14.4,31.2,23.5,46c6.4-18.5,13.3-36.8,20.9-55c7.6-18.1,16.6-35.5,27.1-52.5c1.6-2.6,3.9-4.3,7-5.1
						c2.3-0.6,4.6-0.9,7-0.9c0.7,0,1.5,0.1,2.2,0.2C491.6,322.5,494.1,323.3,497.1,324.9z"/>
					<path class="st2" d="M615.5,431.5c0.4,1.1,0.6,2.2,0.6,3.2c0,0.5,0,0.9,0,1.2c-0.1,1.7-0.7,2.8-1.8,3.4c-1.2,0.6-2.6,1-4.2,1.2
						c-5.7,0.5-11.4,1.3-17,2.6c-5.6,1.3-11.1,3-16.3,5.1c-5.4,2.3-10.5,4.9-15.4,7.8c-4.9,3-9.8,5.8-14.8,8.5
						c-2.3,1.4-4.5,2.7-6.6,3.9c-2.2,1.4-4.5,2.7-6.8,3.9c-2.1,1.4-4.3,2.3-6.6,2.9c-0.7,0.1-1.4,0.2-2,0.2
						c-1.7,0.1-3.4-0.3-5.1-1.4c-3.7-2-6.1-4.9-7.3-8.7c-1.3-3.7-2.2-7.6-2.6-11.6c-0.2-2.3-0.4-4.4-0.4-6.5c0-2.2-0.1-4.1-0.2-6
						c-0.2-7-0.4-14.1-0.4-21.1c-0.1-7-0.3-14.1-0.5-21.1c-0.2-7.9-0.4-15.9-0.4-23.8c0-8.1,0.5-16,1.5-23.8
						c-1.2-1.9-1.8-4.1-1.8-6.5c-0.1-2.4,1-4.1,3.5-5.1c13.4-5.8,27.2-10.6,41.4-14.3c14.2-3.7,28.6-6.4,43.2-8
						c0.6-0.1,1.2-0.2,1.6-0.2c2.6,0,4.9,0.7,7.1,2.2c2.4,1.6,4.6,3.6,6.4,6c0.6,1,1.2,2.3,1.8,3.7c0.5,1.5,0.7,2.8,0.5,4.1
						c0,0.9-0.4,1.9-1.1,2.9c-0.6,1.1-1.5,1.8-2.6,1.9c-13.6,1.6-26.9,4-39.9,7.3c-13.1,3.3-25.8,7.4-38.3,12.3
						c-0.6,3.6-1,7.3-1.3,10.9c-0.4,3.6-0.5,7.3-0.5,10.9c9.3-3.7,18.8-7,28.6-9.7c9.8-2.6,19.7-5,29.9-7.2c3.1-0.7,6-0.1,8.8,1.9
						c2.7,1.8,4.8,3.9,6.4,6.1c1.1,1.6,1.9,3.9,2.4,7c0.6,3.1-0.6,4.9-3.7,5.6c-12.5,2.6-24.9,5.6-37.2,9
						c-12.2,3.5-23.9,8.2-35.2,14c0,1.7,0.1,3.3,0.2,4.9c0,1.7,0.1,3.3,0.2,4.9c0,4.9,0.1,9.7,0.4,14.3c0.1,4.8,0.3,9.5,0.6,14.3
						c5-2.8,10-5.7,15-8.7c5-3.1,10.1-5.7,15.4-7.8c5.1-2.2,10.4-3.9,15.9-5.3c5.5-1.4,11-2.4,16.5-3.1c4.4-0.6,8.2-0.3,11.5,0.7
						c3.3,1,6.2,3.3,8.6,6.8C614.3,428.7,615,430,615.5,431.5z"/>
				</g>
			</g>
			<g>
				<g>
					<path class="st2" d="M762.4,1848.8c2.8,3.5,4.2,6.6,4.2,9.4c0,0.7-0.1,1.3-0.2,1.9c-0.4,1-1,1.9-1.8,2.7c-1,0.7-2.3,1.1-4,1.2
						c-13.3,1.1-26.3,4-38.8,8.7c-12.7,4.7-24.4,10.7-35,18.1c-1.2,0.8-2.6,1.2-4,1.2c-0.7,0-1.5-0.1-2.4-0.3
						c-2.3-0.8-4.3-1.8-5.9-2.9c-2.1-1.6-3.8-3.5-5.1-5.8c-1.5-2.3-2.2-4.6-2.2-7c0-4.9,0-9.7,0-14.5c0-16,0.1-32,0.4-48
						c0.2-20.8,0.8-41.6,1.6-62.3c0.1-3,1.6-4.5,4.4-4.8c0.2,0,0.5,0,0.9,0c2.3,0,4.4,0.5,6.2,1.4c2.6,1.4,4.9,3.3,7,6
						c2.1,2.7,3.1,5.6,2.9,8.5c-0.6,16.5-1.1,32.9-1.5,49.2c-0.4,16.3-0.5,32.8-0.5,49.2c9.6-4.9,19.7-8.8,30.2-11.8
						c10.5-3,21.4-4.9,32.6-6C755.1,1842.6,758.7,1844.6,762.4,1848.8z"/>
					<path class="st2" d="M900.7,1780.7c3.7,7.2,5.5,14.6,5.5,22.3c0,0.9,0,1.9,0,2.9c-0.5,8.2-2.7,16-6.8,23.3
						c-4,7.4-8.4,14.4-13,20.9c-4.5,6.4-9.5,12.3-15,17.7c-5.5,5.3-11.9,9.8-19.2,13.5c-5.6,2.6-11.5,4.5-17.8,5.6
						c-2.8,0.5-5.7,0.7-8.6,0.7c-3.3,0-6.7-0.3-10.1-1c-5.7-1.1-11.1-3.2-16.1-6.3c-5-3.2-9.4-6.8-13.2-10.9
						c-7.7-8.6-12.9-18.5-15.6-29.6c-1.2-5.4-1.8-10.9-1.8-16.3c0-5.7,0.7-11.3,2-16.9c1.6-6.1,4.1-11.9,7.5-17.4
						c3.3-5.4,7.1-10.6,11.5-15.5c4.9-5.7,10.5-10.8,16.9-15.3c6.2-4.4,13.1-7.9,20.5-10.4c5.6-1.7,11.4-2.6,17.2-2.6
						c4.1,0,8.4,0.5,12.6,1.4c10.1,2.3,19.1,6.6,26.8,13.1C890.9,1765.7,896.5,1772.6,900.7,1780.7z M884.4,1787
						c-0.6-2.5-1.7-4.9-3.3-7.3c-4-6.5-9.9-10.5-17.6-12.1c-7.7-1.7-15.1-1.4-22.4,1c-6,2-11.5,4.8-16.5,8.3
						c-5,3.5-9.6,7.4-13.7,11.7c-8.6,9.1-14.7,19.5-18.5,31.3c-3.7,11.8-2.6,23.6,3.1,35.3c1,1.8,2.3,3.5,3.8,5.1
						c1.5,1.6,3.2,2.8,5.1,3.7c5.6,2.8,11.8,3.5,18.7,1.9c6.8-1.6,12.8-3.9,17.8-6.8c5.7-3.4,10.8-7.4,15.2-12.1
						c4.4-4.7,8.4-9.6,11.9-14.8c3.5-5.2,7.1-11.1,10.8-17.7c3.8-6.5,5.8-13.1,6-19.8C885.1,1792.2,884.9,1789.6,884.4,1787z"/>
					<path class="st2" d="M1048.4,1744.9c2.1,1.1,3.1,2.4,3.1,3.9c0,0.7-0.2,1.5-0.7,2.4c-12.8,20.9-23.6,42.6-32.4,65.2
						c-8.7,22.6-16.7,45.4-24,68.3c-0.7,2.2-2.5,3.7-5.3,4.6c-2.8,0.8-5.3,1.3-7.3,1.5c-0.2,0-0.5,0-0.7,0c-2.2,0-4.4-0.3-6.6-1
						c-2.4-0.8-4.4-2.2-5.9-4.1c-13.8-18.6-25.6-38.4-35.4-59.3c-9.7-20.9-16.9-42.5-21.8-64.7c-0.1-0.3-0.2-0.7-0.2-1
						c0-2.3,1.6-3.9,4.8-4.9c3.7-1.1,6.5-1.8,8.4-2c2.7-0.1,5.5,0.3,8.4,1.4c2.9,1,4.6,2.9,5.1,5.6c3.7,16.7,8.9,33,15.6,48.9
						c6.6,15.9,14.4,31.2,23.5,46c6.4-18.5,13.3-36.8,20.9-55c7.6-18.1,16.6-35.5,27.1-52.5c1.6-2.6,3.9-4.3,7-5.1
						c2.3-0.6,4.6-0.8,7-0.8c0.7,0,1.5,0.1,2.2,0.2C1042.9,1742.5,1045.4,1743.3,1048.4,1744.9z"/>
					<path class="st2" d="M1166.8,1851.5c0.4,1.1,0.6,2.2,0.6,3.2c0,0.5,0,0.9,0,1.2c-0.1,1.7-0.7,2.8-1.8,3.4
						c-1.2,0.6-2.6,1-4.2,1.2c-5.7,0.5-11.4,1.3-17,2.6c-5.6,1.3-11.1,3-16.3,5.1c-5.4,2.3-10.5,4.9-15.4,7.8
						c-4.9,3-9.8,5.8-14.8,8.5c-2.3,1.4-4.5,2.7-6.6,3.9c-2.2,1.4-4.5,2.7-6.8,3.9c-2.1,1.4-4.3,2.3-6.6,2.9c-0.7,0.1-1.4,0.2-2,0.2
						c-1.7,0.1-3.4-0.3-5.1-1.4c-3.7-2-6.1-4.9-7.3-8.7c-1.3-3.7-2.2-7.6-2.6-11.6c-0.2-2.3-0.4-4.4-0.4-6.5c0-2.2-0.1-4.1-0.2-6
						c-0.2-7-0.4-14.1-0.4-21.1c-0.1-7-0.3-14.1-0.5-21.1c-0.2-7.9-0.4-15.9-0.4-23.8c0-8.1,0.5-16,1.5-23.8
						c-1.2-1.9-1.8-4.1-1.8-6.5c-0.1-2.4,1-4.1,3.5-5.1c13.4-5.8,27.2-10.6,41.4-14.3c14.2-3.7,28.6-6.4,43.2-8
						c0.6-0.1,1.2-0.2,1.6-0.2c2.6,0,4.9,0.7,7.1,2.2c2.4,1.6,4.6,3.6,6.4,6c0.6,1,1.2,2.3,1.8,3.7c0.5,1.5,0.7,2.8,0.5,4.1
						c0,0.9-0.4,1.9-1.1,2.9c-0.6,1.1-1.5,1.8-2.6,1.9c-13.6,1.6-26.9,4-39.9,7.3c-13.1,3.3-25.8,7.4-38.3,12.3
						c-0.6,3.6-1,7.3-1.3,10.9c-0.4,3.6-0.5,7.3-0.5,10.9c9.3-3.7,18.8-7,28.6-9.7c9.8-2.6,19.7-5,29.9-7.2c3.1-0.7,6-0.1,8.8,1.9
						c2.7,1.8,4.8,3.9,6.4,6.1c1.1,1.6,1.9,3.9,2.4,7c0.6,3.1-0.6,4.9-3.7,5.6c-12.5,2.6-24.9,5.6-37.2,9
						c-12.2,3.5-23.9,8.2-35.2,14c0,1.7,0.1,3.4,0.2,4.9c0,1.7,0.1,3.3,0.2,4.9c0,4.9,0.1,9.7,0.4,14.3c0.1,4.8,0.3,9.5,0.6,14.3
						c5-2.8,10-5.7,15-8.7c5-3.1,10.1-5.7,15.4-7.8c5.1-2.2,10.4-3.9,15.9-5.3c5.5-1.4,11-2.4,16.5-3.1c4.4-0.6,8.2-0.3,11.5,0.7
						c3.3,1,6.2,3.3,8.6,6.8C1165.6,1848.7,1166.3,1850.1,1166.8,1851.5z"/>
				</g>
			</g>
			<g>
				<g>
					<path class="st2" d="M1466.4,1465.4c2.8,3.5,4.2,6.6,4.2,9.4c0,0.7-0.1,1.3-0.2,1.9c-0.4,1-1,1.9-1.8,2.7c-1,0.7-2.3,1.1-4,1.2
						c-13.3,1.1-26.3,4-38.8,8.7c-12.7,4.7-24.4,10.7-35,18.1c-1.2,0.8-2.6,1.2-4,1.2c-0.7,0-1.5-0.1-2.4-0.3
						c-2.3-0.8-4.3-1.8-5.9-2.9c-2.1-1.6-3.8-3.5-5.1-5.8c-1.5-2.3-2.2-4.6-2.2-7c0-4.9,0-9.7,0-14.5c0-16,0.1-32,0.4-48
						c0.2-20.8,0.8-41.6,1.6-62.3c0.1-3,1.6-4.5,4.4-4.8c0.2,0,0.5,0,0.9,0c2.3,0,4.4,0.5,6.2,1.4c2.6,1.4,4.9,3.3,7,6
						c2.1,2.7,3.1,5.6,2.9,8.5c-0.6,16.5-1.1,32.9-1.5,49.2c-0.4,16.3-0.5,32.8-0.5,49.2c9.6-4.9,19.7-8.8,30.2-11.8
						c10.5-3,21.4-4.9,32.6-6C1459.1,1459.2,1462.8,1461.2,1466.4,1465.4z"/>
					<path class="st2" d="M1604.8,1397.3c3.7,7.2,5.5,14.6,5.5,22.3c0,0.9,0,1.9,0,2.9c-0.5,8.2-2.7,16-6.8,23.3
						c-4,7.4-8.4,14.4-13,20.9c-4.5,6.4-9.5,12.3-15,17.7c-5.5,5.3-11.9,9.8-19.2,13.5c-5.6,2.6-11.5,4.5-17.8,5.6
						c-2.8,0.5-5.7,0.7-8.6,0.7c-3.3,0-6.7-0.3-10.1-1c-5.7-1.1-11.1-3.2-16.1-6.3c-5-3.2-9.4-6.8-13.2-10.9
						c-7.7-8.6-12.9-18.5-15.6-29.6c-1.2-5.4-1.8-10.9-1.8-16.3c0-5.7,0.7-11.3,2-16.9c1.6-6.1,4.1-11.9,7.5-17.4
						c3.3-5.4,7.1-10.6,11.5-15.5c4.9-5.7,10.5-10.8,16.9-15.3c6.2-4.4,13.1-7.9,20.5-10.4c5.6-1.7,11.4-2.6,17.2-2.6
						c4.1,0,8.4,0.5,12.6,1.4c10.1,2.3,19.1,6.6,26.8,13.1C1594.9,1382.3,1600.5,1389.2,1604.8,1397.3z M1588.5,1403.6
						c-0.6-2.5-1.7-4.9-3.3-7.3c-4-6.5-9.9-10.5-17.6-12.1c-7.7-1.7-15.1-1.4-22.4,1c-6,2-11.5,4.8-16.5,8.3
						c-5,3.5-9.6,7.4-13.7,11.8c-8.6,9.1-14.7,19.5-18.5,31.3c-3.7,11.8-2.6,23.6,3.1,35.3c1,1.8,2.3,3.5,3.8,5.1
						c1.5,1.6,3.2,2.8,5.1,3.7c5.6,2.8,11.8,3.5,18.7,1.9c6.8-1.6,12.8-3.9,17.8-6.8c5.7-3.4,10.8-7.4,15.2-12.1
						c4.4-4.7,8.4-9.6,11.9-14.8c3.5-5.2,7.1-11.1,10.8-17.7c3.8-6.5,5.8-13.1,6-19.8C1589.1,1408.8,1588.9,1406.2,1588.5,1403.6z"
						/>
					<path class="st2" d="M1752.4,1361.5c2.1,1.1,3.1,2.4,3.1,3.9c0,0.7-0.2,1.5-0.7,2.4c-12.8,20.9-23.6,42.6-32.4,65.2
						c-8.7,22.6-16.7,45.4-24,68.3c-0.7,2.2-2.5,3.7-5.3,4.6c-2.8,0.8-5.3,1.3-7.3,1.5c-0.2,0-0.5,0-0.7,0c-2.2,0-4.4-0.3-6.6-1
						c-2.4-0.8-4.4-2.2-5.9-4.1c-13.8-18.6-25.6-38.4-35.4-59.3c-9.7-20.9-16.9-42.5-21.8-64.7c-0.1-0.3-0.2-0.7-0.2-1
						c0-2.3,1.6-3.9,4.8-4.9c3.7-1.1,6.5-1.8,8.4-2c2.7-0.1,5.5,0.3,8.4,1.4c2.9,1,4.6,2.9,5.1,5.6c3.7,16.7,8.9,33,15.6,48.9
						c6.6,15.9,14.4,31.2,23.5,46c6.4-18.5,13.3-36.8,20.9-55c7.6-18.1,16.6-35.5,27.1-52.5c1.6-2.6,3.9-4.3,7-5.1
						c2.3-0.6,4.6-0.9,7-0.9c0.7,0,1.5,0.1,2.2,0.2C1746.9,1359.1,1749.4,1359.9,1752.4,1361.5z"/>
					<path class="st2" d="M1870.8,1468.1c0.4,1.1,0.6,2.2,0.6,3.2c0,0.5,0,0.9,0,1.2c-0.1,1.7-0.7,2.8-1.8,3.4
						c-1.2,0.6-2.6,1-4.2,1.2c-5.7,0.5-11.4,1.3-17,2.6c-5.6,1.3-11.1,3-16.3,5.1c-5.4,2.3-10.5,4.9-15.4,7.8
						c-4.9,3-9.8,5.8-14.8,8.5c-2.3,1.4-4.5,2.7-6.6,3.9c-2.2,1.4-4.5,2.7-6.8,3.9c-2.1,1.4-4.3,2.3-6.6,2.9c-0.7,0.1-1.4,0.2-2,0.2
						c-1.7,0.1-3.4-0.3-5.1-1.4c-3.7-2-6.1-4.9-7.3-8.7c-1.3-3.7-2.2-7.6-2.6-11.6c-0.2-2.3-0.4-4.4-0.4-6.5c0-2.2-0.1-4.1-0.2-6
						c-0.2-7-0.4-14.1-0.4-21.1c-0.1-7-0.3-14.1-0.5-21.1c-0.2-7.9-0.4-15.9-0.4-23.8c0-8.1,0.5-16,1.5-23.8
						c-1.2-1.9-1.8-4.1-1.8-6.5c-0.1-2.4,1-4.1,3.5-5.1c13.4-5.8,27.2-10.6,41.4-14.3c14.2-3.7,28.6-6.4,43.2-8
						c0.6-0.1,1.2-0.2,1.6-0.2c2.6,0,4.9,0.7,7.1,2.2c2.4,1.6,4.6,3.6,6.4,6c0.6,1,1.2,2.3,1.8,3.7c0.5,1.5,0.7,2.8,0.5,4.1
						c0,0.9-0.4,1.9-1.1,2.9c-0.6,1.1-1.5,1.8-2.6,1.9c-13.6,1.6-26.9,4-39.9,7.3c-13.1,3.3-25.8,7.4-38.3,12.3
						c-0.6,3.6-1,7.3-1.3,10.9c-0.4,3.6-0.5,7.3-0.5,10.9c9.3-3.7,18.8-7,28.6-9.7c9.8-2.6,19.7-5,29.9-7.2c3.1-0.7,6-0.1,8.8,1.9
						c2.7,1.8,4.8,3.9,6.4,6.1c1.1,1.6,1.9,3.9,2.4,7c0.6,3.1-0.6,4.9-3.7,5.6c-12.5,2.6-24.9,5.6-37.2,9
						c-12.2,3.5-23.9,8.2-35.2,14c0,1.7,0.1,3.3,0.2,4.9c0,1.7,0.1,3.3,0.2,4.9c0,4.9,0.1,9.7,0.4,14.3c0.1,4.8,0.3,9.5,0.6,14.3
						c5-2.8,10-5.7,15-8.7c5-3.1,10.1-5.7,15.4-7.8c5.1-2.2,10.4-3.9,15.9-5.3c5.5-1.4,11-2.4,16.5-3.1c4.4-0.6,8.2-0.3,11.5,0.7
						c3.3,1,6.2,3.3,8.6,6.8C1869.6,1465.3,1870.3,1466.6,1870.8,1468.1z"/>
				</g>
			</g>
			<g>
				<g>
					<path class="st2" d="M1343.5,1153.9c3.9,4.9,5.9,9.2,5.9,13c0,0.9-0.1,1.8-0.3,2.6c-0.5,1.4-1.4,2.7-2.5,3.8
						c-1.4,0.9-3.2,1.5-5.6,1.7c-18.5,1.6-36.5,5.6-54.1,12.1c-17.7,6.5-33.9,14.9-48.7,25.1c-1.7,1.1-3.6,1.7-5.6,1.7
						c-1,0-2.1-0.2-3.3-0.5c-3.2-1.1-6-2.5-8.2-4c-2.9-2.2-5.3-4.9-7.1-8.1c-2-3.2-3.1-6.4-3.1-9.7c0-6.8,0-13.5,0-20.1
						c0-22.3,0.2-44.6,0.5-66.8c0.3-28.9,1.1-57.8,2.3-86.7c0.2-4.1,2.2-6.3,6.1-6.6c0.3,0,0.8,0,1.3,0c3.2,0,6.1,0.6,8.7,1.9
						c3.6,1.9,6.8,4.7,9.7,8.3c2.9,3.8,4.2,7.7,4.1,11.9c-0.9,22.9-1.5,45.7-2,68.5c-0.5,22.8-0.8,45.6-0.8,68.5
						c13.4-6.8,27.4-12.2,42.1-16.4c14.6-4.1,29.7-6.9,45.4-8.3C1333.3,1145.3,1338.4,1148.1,1343.5,1153.9z"/>
					<path class="st2" d="M1536,1059.1c5.1,10,7.6,20.3,7.6,31c0,1.3,0,2.6,0,4c-0.7,11.4-3.8,22.2-9.4,32.5
						c-5.6,10.3-11.6,20-18.1,29.1c-6.3,8.9-13.3,17.1-20.9,24.6c-7.6,7.4-16.6,13.7-26.8,18.7c-7.8,3.6-16.1,6.2-24.7,7.8
						c-3.9,0.6-7.9,0.9-12,0.9c-4.6,0-9.3-0.5-14-1.4c-8-1.6-15.5-4.5-22.4-8.8c-7-4.4-13.1-9.5-18.4-15.2
						c-10.7-12-17.9-25.8-21.7-41.2c-1.7-7.6-2.5-15.2-2.5-22.7c0-7.9,0.9-15.7,2.8-23.5c2.2-8.5,5.7-16.6,10.5-24.2
						c4.6-7.6,9.9-14.8,16.1-21.6c6.8-7.9,14.6-15,23.5-21.3c8.7-6.2,18.2-11,28.6-14.5c7.8-2.4,15.8-3.6,24-3.6
						c5.8,0,11.6,0.6,17.6,1.9c14.1,3.2,26.5,9.2,37.2,18.2C1522.3,1038.3,1530.1,1047.9,1536,1059.1z M1513.3,1067.9
						c-0.9-3.5-2.4-6.9-4.6-10.2c-5.6-9-13.8-14.6-24.5-16.8c-10.7-2.4-21.1-1.9-31.1,1.4c-8.3,2.8-16,6.7-22.9,11.6
						c-7,4.9-13.3,10.3-19.1,16.4c-11.9,12.6-20.5,27.2-25.8,43.6c-5.1,16.4-3.7,32.8,4.3,49.1c1.4,2.5,3.1,4.9,5.4,7.1
						c2,2.2,4.4,4,7.1,5.2c7.8,4,16.5,4.8,26,2.6c9.5-2.2,17.8-5.4,24.7-9.5c8-4.7,15-10.3,21.2-16.8c6.1-6.5,11.6-13.3,16.6-20.6
						c4.9-7.3,9.9-15.5,15-24.6c5.3-9,8.1-18.2,8.4-27.5C1514.3,1075.2,1514,1071.5,1513.3,1067.9z"/>
					<path class="st2" d="M1741.5,1009.4c2.9,1.6,4.3,3.4,4.3,5.5c0,0.9-0.3,2.1-1,3.3c-17.8,29.1-32.9,59.3-45.1,90.8
						c-12.1,31.4-23.2,63.1-33.4,95c-1,3-3.5,5.1-7.4,6.4c-3.9,1.1-7.3,1.8-10.2,2.1c-0.3,0-0.7,0-1,0c-3.1,0-6.1-0.5-9.2-1.4
						c-3.4-1.1-6.1-3-8.2-5.7c-19.2-25.9-35.6-53.4-49.2-82.5c-13.4-29.1-23.5-59.1-30.3-90.1c-0.2-0.5-0.3-0.9-0.3-1.4
						c0-3.2,2.2-5.5,6.6-6.9c5.1-1.6,9-2.5,11.7-2.8c3.7-0.2,7.6,0.5,11.7,1.9c4.1,1.4,6.5,4,7.1,7.8c5.1,23.2,12.3,45.9,21.7,68
						c9.2,22.1,20.1,43.5,32.6,64c8.8-25.8,18.5-51.3,29.1-76.5c10.5-25.1,23.1-49.4,37.7-73c2.2-3.6,5.4-6,9.7-7.1
						c3.2-0.8,6.5-1.2,9.7-1.2c1,0,2,0.1,3.1,0.2C1733.9,1006,1737.3,1007.1,1741.5,1009.4z"/>
					<path class="st2" d="M1906.2,1157.7c0.5,1.6,0.8,3.1,0.8,4.5c0,0.6,0,1.2,0,1.7c-0.2,2.4-1,4-2.5,4.7c-1.7,0.8-3.7,1.3-5.9,1.7
						c-8,0.6-15.9,1.8-23.7,3.6c-7.8,1.7-15.4,4.1-22.7,7.1c-7.5,3.2-14.6,6.8-21.4,10.9c-6.8,4.1-13.7,8.1-20.7,11.8
						c-3.2,1.9-6.3,3.7-9.2,5.5c-3.1,1.9-6.2,3.7-9.4,5.5c-2.9,1.9-6,3.2-9.2,4c-1,0.2-2,0.2-2.8,0.2c-2.4,0.2-4.8-0.5-7.1-1.9
						c-5.1-2.8-8.5-6.9-10.2-12.1c-1.9-5.2-3.1-10.6-3.6-16.1c-0.3-3.2-0.5-6.2-0.5-9c0-3-0.1-5.8-0.3-8.3
						c-0.3-9.8-0.5-19.6-0.5-29.4c-0.2-9.8-0.4-19.6-0.8-29.4c-0.3-11.1-0.5-22.1-0.5-33.2c0-11.2,0.7-22.3,2-33.2
						c-1.7-2.7-2.5-5.7-2.5-9c-0.2-3.3,1.4-5.7,4.8-7.1c18.7-8.1,37.9-14.7,57.6-19.9c19.7-5.2,39.8-8.9,60.2-11.1
						c0.8-0.2,1.6-0.2,2.3-0.2c3.6,0,6.9,1,9.9,3.1c3.4,2.2,6.4,5,8.9,8.3c0.8,1.4,1.7,3.2,2.5,5.2c0.7,2.1,0.9,4,0.8,5.7
						c0,1.3-0.5,2.6-1.5,4c-0.9,1.6-2,2.5-3.6,2.6c-18.9,2.2-37.4,5.6-55.6,10.2c-18.2,4.6-35.9,10.3-53.3,17.1
						c-0.9,5.1-1.4,10.1-1.8,15.2c-0.5,5.1-0.8,10.1-0.8,15.2c12.9-5.2,26.2-9.7,39.8-13.5c13.6-3.6,27.4-7,41.6-10
						c4.2-0.9,8.3-0.1,12.2,2.6c3.7,2.5,6.7,5.4,8.9,8.5c1.5,2.2,2.6,5.5,3.3,9.7c0.8,4.3-0.9,6.9-5.1,7.8
						c-17.3,3.6-34.6,7.8-51.8,12.6c-17,4.9-33.3,11.4-49,19.4c0,2.4,0.1,4.7,0.3,6.9c0,2.4,0.1,4.7,0.3,6.9
						c0,6.8,0.2,13.4,0.5,19.9c0.2,6.6,0.4,13.3,0.8,19.9c7-3.9,13.9-8,20.9-12.1c7-4.3,14.1-7.9,21.4-10.9c7.1-3,14.5-5.5,22.2-7.3
						s15.3-3.3,22.9-4.3c6.1-0.8,11.5-0.5,16.1,0.9c4.6,1.4,8.6,4.6,12,9.5C1904.6,1153.8,1905.5,1155.7,1906.2,1157.7z"/>
				</g>
			</g>
			<g>
				<g>
					<path class="st2" d="M135.7,666.5c0,3.8-1.2,7.3-3.6,10.6c-4.2,5.8-9.1,10.5-14.8,14.3c-6.3,4.1-12.9,7.9-19.9,11.3
						c-7,3.3-14,6.2-21.1,8.8c-3.9,1.3-7.8,2.6-11.8,3.9c-4,1.1-8.1,1.9-12.3,2.3c-0.8,0.1-1.6,0.2-2.3,0.2c-3.8,0-7.4-0.7-10.8-2.2
						c-4.2-1.9-7.7-4.4-10.6-7.7c-1.2-1.5-2.5-3.6-3.8-6.3c-1.2-2.7-0.8-4.9,1.3-6.6c1.9-1.6,3.7-2,5.5-1.1c1.8,0.9,3.4,2,5,3.1
						c1.7,1,3.3,1.6,4.8,1.7c1.5,0,3.3-0.2,5.1-0.6c4.4-1,8.7-2.2,12.9-3.5c4.3-1.3,8.5-2.9,12.6-4.6c3.2-1.2,6.4-2.6,9.6-4.2
						c3.1-1.4,6.2-3,9.3-4.8c3.1-1.7,6.1-3.5,9-5.4c3-2,5.7-4.1,8.3-6.3c1.2-1.1,2.5-2.5,4-4.2c1.4-1.6,2.2-3.3,2.3-5.1
						c-0.7-0.1-1.2-0.2-1.7-0.3c-0.4-0.1-0.7-0.2-0.8-0.2c-6.1-1-12.3-1.5-18.7-1.4c-6.3,0.1-12.5,0.4-18.6,0.9
						c-5,0.4-9.9,1-14.8,1.8c-5,0.8-9.9,1.6-14.8,2.5c-4.8,0.8-9.3,0.8-13.6-0.2c-4.3-0.8-7.4-3.6-9.1-8.5c-1.3-3.9-2-7.9-2-11.9
						c0-1.5,0.1-3.1,0.3-4.6c0.7-5.4,2.8-10.6,6.3-15.4c3.1-4.1,6.6-7.9,10.4-11.3c4-3.5,8.2-6.6,12.6-9.4
						c8.7-5.5,18.1-9.8,28.2-12.8c10.1-2.9,20.4-4.4,31-4.6c0.1,0,0.2,0,0.3,0c2.7,0,5.1,1.1,7.5,3.2c2.4,2.3,4.1,4.5,5,6.8
						c0.9,2,1,3.9,0.5,5.9c-0.6,2.1-2.2,3.1-5,3.2c-8.7,0.1-17.3,1.3-25.7,3.7c-8.5,2.5-16.4,5.9-23.7,10.2
						c-3.9,2.3-7.6,4.8-11.1,7.6c-3.5,2.8-6.7,5.9-9.6,9.2c-1.1,1.1-2.2,2.5-3.3,4c-1,1.5-1.9,3.1-2.8,4.8c7.5-1.2,15-2.3,22.4-3.1
						c7.5-0.9,15-1.3,22.4-1.2c5.6,0.1,11.6,0.6,17.9,1.4c6.4,0.7,12.2,2.4,17.2,4.9c2.8,1.4,5.2,3.2,7.5,5.4
						c2.1,2.1,3.8,4.6,5.1,7.6C135.1,661.2,135.7,664,135.7,666.5z M38.5,698.6h0.2H38.5z"/>
					<path class="st2" d="M299.6,678.2c2.5,3.2,3.8,6,3.8,8.5c0,0.6-0.1,1.2-0.2,1.7c-0.3,0.9-0.9,1.7-1.7,2.5
						c-0.9,0.6-2.1,1-3.6,1.1c-12.1,1-23.8,3.6-35.2,7.9c-11.5,4.2-22.1,9.7-31.7,16.3c-1.1,0.7-2.3,1.1-3.6,1.1
						c-0.7,0-1.4-0.1-2.2-0.3c-2.1-0.7-3.9-1.6-5.3-2.6c-1.9-1.4-3.4-3.2-4.6-5.2c-1.3-2.1-2-4.2-2-6.3c0-4.4,0-8.8,0-13.1
						c0-14.5,0.1-29,0.3-43.5c0.2-18.8,0.7-37.6,1.5-56.4c0.1-2.7,1.4-4.1,4-4.3c0.2,0,0.5,0,0.8,0c2.1,0,4,0.4,5.6,1.2
						c2.3,1.2,4.4,3,6.3,5.4c1.9,2.5,2.8,5,2.7,7.7c-0.6,14.9-1,29.8-1.3,44.6c-0.3,14.8-0.5,29.7-0.5,44.6
						c8.7-4.4,17.9-8,27.4-10.6c9.5-2.7,19.3-4.5,29.5-5.4C292.9,672.6,296.2,674.4,299.6,678.2z"/>
					<path class="st2" d="M424.8,616.6c3.3,6.5,5,13.2,5,20.2c0,0.8,0,1.7,0,2.6c-0.4,7.4-2.5,14.4-6.1,21.1
						c-3.6,6.7-7.6,13-11.8,19c-4.1,5.8-8.6,11.1-13.6,16c-5,4.8-10.8,8.9-17.4,12.2c-5.1,2.4-10.4,4.1-16.1,5.1
						c-2.5,0.4-5.1,0.6-7.8,0.6c-3,0-6-0.3-9.1-0.9c-5.2-1-10.1-2.9-14.6-5.7c-4.5-2.9-8.5-6.2-11.9-9.9c-7-7.8-11.7-16.7-14.1-26.8
						c-1.1-4.9-1.7-9.9-1.7-14.8c0-5.1,0.6-10.2,1.8-15.3c1.4-5.5,3.7-10.8,6.8-15.7c3-4.9,6.5-9.6,10.4-14
						c4.4-5.1,9.5-9.8,15.3-13.9c5.6-4,11.8-7.1,18.6-9.4c5.1-1.5,10.3-2.3,15.6-2.3c3.8,0,7.6,0.4,11.4,1.2
						c9.2,2.1,17.2,6,24.2,11.9C415.9,603,420.9,609.3,424.8,616.6z M410,622.3c-0.6-2.3-1.6-4.5-3-6.6c-3.6-5.9-9-9.5-15.9-10.9
						c-7-1.5-13.7-1.2-20.2,0.9c-5.4,1.9-10.4,4.4-14.9,7.6c-4.5,3.2-8.7,6.7-12.4,10.6c-7.7,8.2-13.3,17.7-16.7,28.4
						c-3.3,10.7-2.4,21.3,2.8,31.9c0.9,1.6,2,3.2,3.5,4.6c1.3,1.4,2.9,2.6,4.6,3.4c5.1,2.6,10.7,3.1,16.9,1.7
						c6.2-1.4,11.6-3.5,16.1-6.2c5.2-3.1,9.8-6.7,13.8-10.9c4-4.2,7.6-8.7,10.8-13.4c3.2-4.7,6.5-10.1,9.8-16
						c3.4-5.9,5.3-11.8,5.5-17.9C410.6,627,410.5,624.7,410,622.3z"/>
					<path class="st2" d="M558.4,584.2c1.9,1,2.8,2.2,2.8,3.5c0,0.6-0.2,1.3-0.7,2.2c-11.6,18.9-21.4,38.6-29.4,59
						c-7.9,20.5-15.1,41.1-21.7,61.8c-0.7,2-2.3,3.3-4.8,4.2c-2.5,0.7-4.8,1.2-6.6,1.4c-0.2,0-0.4,0-0.7,0c-2,0-4-0.3-6-0.9
						c-2.2-0.7-4-2-5.3-3.7c-12.5-16.9-23.2-34.7-32-53.6c-8.7-18.9-15.3-38.4-19.7-58.6c-0.1-0.3-0.2-0.6-0.2-0.9
						c0-2.1,1.4-3.5,4.3-4.5c3.3-1,5.9-1.6,7.6-1.9c2.4-0.1,5,0.3,7.6,1.2s4.2,2.6,4.6,5.1c3.3,15.1,8,29.9,14.1,44.2
						c6,14.4,13,28.3,21.2,41.6c5.7-16.7,12.1-33.3,18.9-49.8c6.9-16.3,15-32.2,24.5-47.5c1.4-2.4,3.5-3.9,6.3-4.6
						c2.1-0.5,4.2-0.8,6.3-0.8c0.7,0,1.3,0.1,2,0.2C553.5,582,555.7,582.8,558.4,584.2z"/>
					<path class="st2" d="M665.6,680.7c0.3,1,0.5,2,0.5,2.9c0,0.4,0,0.8,0,1.1c-0.1,1.5-0.7,2.6-1.7,3.1c-1.1,0.5-2.4,0.9-3.8,1.1
						c-5.2,0.4-10.3,1.2-15.4,2.3c-5.1,1.1-10,2.7-14.8,4.6c-4.9,2.1-9.5,4.4-13.9,7.1c-4.4,2.7-8.9,5.2-13.4,7.7
						c-2.1,1.2-4.1,2.4-6,3.5c-2,1.2-4,2.4-6.1,3.5c-1.9,1.2-3.9,2.1-6,2.6c-0.7,0.1-1.3,0.2-1.8,0.2c-1.6,0.1-3.1-0.3-4.6-1.2
						c-3.3-1.8-5.5-4.5-6.6-7.9c-1.2-3.4-2-6.9-2.3-10.5c-0.2-2.1-0.3-4-0.3-5.9c0-2-0.1-3.7-0.2-5.4c-0.2-6.4-0.3-12.7-0.3-19.1
						c-0.1-6.4-0.3-12.7-0.5-19.1c-0.2-7.2-0.3-14.4-0.3-21.6c0-7.3,0.4-14.5,1.3-21.6c-1.1-1.7-1.7-3.7-1.7-5.9
						c-0.1-2.2,0.9-3.7,3.1-4.6c12.2-5.2,24.7-9.6,37.5-12.9c12.8-3.4,25.9-5.8,39.1-7.2c0.6-0.1,1-0.2,1.5-0.2c2.3,0,4.5,0.7,6.5,2
						c2.2,1.4,4.1,3.2,5.8,5.4c0.6,0.9,1.1,2.1,1.7,3.4c0.4,1.3,0.6,2.6,0.5,3.7c0,0.8-0.3,1.7-1,2.6c-0.6,1-1.3,1.6-2.3,1.7
						c-12.3,1.4-24.3,3.6-36.2,6.6c-11.8,3-23.4,6.7-34.7,11.1c-0.6,3.3-0.9,6.6-1.2,9.9c-0.3,3.3-0.5,6.6-0.5,9.9
						c8.4-3.4,17-6.3,25.9-8.8c8.8-2.4,17.9-4.5,27-6.5c2.8-0.6,5.4-0.1,8,1.7c2.4,1.6,4.4,3.5,5.8,5.5c1,1.4,1.7,3.5,2.2,6.3
						c0.6,2.8-0.6,4.5-3.3,5.1c-11.3,2.4-22.5,5.1-33.7,8.2c-11.1,3.2-21.7,7.4-31.8,12.6c0,1.5,0.1,3,0.2,4.5c0,1.5,0.1,3,0.2,4.5
						c0,4.4,0.1,8.7,0.3,12.9c0.1,4.3,0.3,8.6,0.5,12.9c4.5-2.6,9.1-5.2,13.6-7.9c4.5-2.8,9.2-5.1,13.9-7.1c4.6-2,9.5-3.5,14.4-4.8
						c5-1.2,10-2.2,14.9-2.8c4-0.5,7.5-0.3,10.4,0.6c3,0.9,5.6,3,7.8,6.2C664.5,678.1,665.1,679.4,665.6,680.7z"/>
				</g>
			</g>
			<g>
				<g>
					<path class="st2" d="M916.7,73.4c1.4-0.1,2.7,0.2,4,1c1.5,0.8,2.8,1.8,4,2.9c1.9,2,3.3,4.1,4.3,6.3c0.4,1.2,0.6,2.3,0.6,3.2
						c0,1-0.2,1.8-0.6,2.5c-0.3,0.6-0.8,1.1-1.6,1.5c-0.7,0.4-1.7,0.6-2.8,0.7c-4.5,0.2-9,0.5-13.4,0.9c-4.4,0.4-8.8,0.9-13.3,1.5
						c-1.9,12.9-3.1,26-3.6,39.1c-0.5,13.1-0.4,26.2,0.5,39.2c1.2-0.3,2.3-0.6,3.5-1c1.1-0.4,2.1-0.8,3.2-1.2c1.4-0.5,2.8-0.5,4.3,0
						c1.6,0.5,3.1,1.3,4.4,2.4c2.1,1.6,3.8,3.5,5.1,5.9c1.4,2.3,1.9,4.3,1.6,6.2c-0.2,0.7-0.6,1.3-1.1,1.9s-1.3,1.1-2.2,1.5
						c-6.9,2.4-13.6,4.6-20.4,6.6c-6.9,2.1-13.7,4-20.7,5.9c-0.5,0.1-1.1,0.1-1.7,0.1c-0.8,0-1.7-0.1-2.7-0.4
						c-1.6-0.6-3.1-1.4-4.4-2.5c-2.1-1.7-3.8-3.6-5.1-5.9c-1.4-2.4-1.8-4.4-1.4-6c0.2-0.7,0.6-1.3,1.1-1.9c0.5-0.5,1.3-0.9,2.2-1.2
						c2.7-0.7,5.5-1.4,8.2-2.2c2.7-0.7,5.4-1.5,8.1-2.4c0.4,0,0.7-0.1,0.8-0.4c0.2-0.3,0.3-0.6,0.3-0.9c-0.1-0.1-0.2-0.2-0.2-0.4
						c0-0.2,0-0.3,0-0.4c-1.4-13.1-2-26.2-1.9-39.4c0.1-13.2,0.9-26.4,2.4-39.5c-2.4,0.5-4.8,1-7.3,1.5c-2.4,0.4-4.8,0.8-7.1,1.3
						c-2.8,0.5-5.4,0-7.6-1.6c-2.3-1.7-4.2-3.4-5.5-5.3c-1.1-1.4-1.8-3.4-2.2-6c0-0.4,0-0.8,0-1.2c0-2,1.1-3.2,3.3-3.7
						c10.7-2.2,21.5-4,32.2-5.4c10.9-1.6,21.8-2.6,32.7-3.1C916.5,73.4,916.6,73.4,916.7,73.4z"/>
					<path class="st2" d="M1045.7,153.6c0,3.6-1.2,7-3.5,10.1c-4,5.5-8.7,10-14.1,13.7c-6,3.9-12.3,7.5-19,10.7
						c-6.6,3.1-13.3,5.9-20.1,8.4c-3.7,1.3-7.4,2.5-11.2,3.7c-3.8,1.1-7.7,1.8-11.7,2.2c-0.7,0.1-1.5,0.1-2.2,0.1
						c-3.6,0-7-0.7-10.3-2.1c-4-1.8-7.4-4.2-10.1-7.3c-1.2-1.5-2.4-3.5-3.6-6c-1.2-2.5-0.7-4.7,1.3-6.3c1.8-1.6,3.5-1.9,5.2-1
						c1.7,0.9,3.3,1.9,4.7,2.9c1.6,1,3.1,1.5,4.6,1.6c1.5,0,3.1-0.2,4.9-0.6c4.2-1,8.3-2.1,12.3-3.4c4.1-1.3,8.1-2.7,12-4.4
						c3.1-1.2,6.1-2.5,9.2-4c2.9-1.4,5.9-2.9,8.8-4.6c2.9-1.7,5.8-3.4,8.5-5.1c2.8-1.9,5.5-3.9,7.9-6c1.2-1.1,2.4-2.4,3.8-4
						c1.4-1.6,2.1-3.2,2.2-4.8c-0.6-0.1-1.2-0.2-1.6-0.3c-0.4-0.1-0.7-0.1-0.8-0.1c-5.8-1-11.7-1.4-17.9-1.3
						c-6,0.1-11.9,0.4-17.7,0.9c-4.7,0.4-9.4,1-14.1,1.8c-4.7,0.8-9.4,1.6-14.1,2.4c-4.5,0.8-8.8,0.7-13-0.1c-4.1-0.8-7-3.5-8.7-8.1
						c-1.3-3.7-1.9-7.5-1.9-11.3c0-1.5,0.1-2.9,0.3-4.4c0.6-5.2,2.6-10.1,6-14.7c3-3.9,6.3-7.5,10-10.7c3.8-3.3,7.8-6.3,12-9
						c8.3-5.3,17.3-9.4,26.9-12.2c9.6-2.7,19.4-4.2,29.6-4.4c0.1,0,0.2,0,0.3,0c2.5,0,4.9,1,7.1,3.1c2.3,2.2,3.9,4.3,4.7,6.5
						c0.8,1.9,1,3.7,0.5,5.6c-0.5,2-2.1,3-4.7,3.1c-8.3,0.1-16.5,1.3-24.5,3.5c-8.1,2.4-15.6,5.6-22.6,9.7
						c-3.7,2.2-7.2,4.6-10.6,7.2s-6.4,5.6-9.2,8.8c-1.1,1.1-2.1,2.4-3.2,3.8c-0.9,1.5-1.8,3-2.7,4.6c7.2-1.2,14.3-2.2,21.3-2.9
						c7.2-0.9,14.3-1.3,21.3-1.2c5.4,0.1,11.1,0.5,17.1,1.3c6.1,0.7,11.6,2.3,16.4,4.7c2.6,1.4,5,3.1,7.1,5.1c2,2,3.6,4.4,4.9,7.2
						C1045.1,148.5,1045.7,151.1,1045.7,153.6z M953.1,184.1h0.2H953.1z"/>
					<path class="st2" d="M1201.8,164.7c2.4,3,3.6,5.7,3.6,8.1c0,0.6-0.1,1.1-0.2,1.6c-0.3,0.9-0.8,1.7-1.6,2.4
						c-0.8,0.6-2,0.9-3.5,1c-11.5,1-22.6,3.5-33.5,7.5c-11,4-21,9.2-30.2,15.6c-1.1,0.7-2.2,1-3.5,1c-0.6,0-1.3-0.1-2.1-0.3
						c-2-0.7-3.7-1.5-5.1-2.5c-1.8-1.4-3.3-3-4.4-5c-1.3-2-1.9-4-1.9-6c0-4.2,0-8.4,0-12.5c0-13.8,0.1-27.6,0.3-41.4
						c0.2-17.9,0.7-35.8,1.4-53.8c0.1-2.5,1.4-3.9,3.8-4.1c0.2,0,0.5,0,0.8,0c2,0,3.8,0.4,5.4,1.2c2.2,1.2,4.2,2.9,6,5.1
						c1.8,2.4,2.6,4.8,2.5,7.3c-0.5,14.2-0.9,28.4-1.3,42.5c-0.3,14.1-0.5,28.3-0.5,42.5c8.3-4.2,17-7.6,26.1-10.1
						c9.1-2.5,18.4-4.3,28.1-5.1C1195.5,159.4,1198.7,161.1,1201.8,164.7z"/>
					<path class="st2" d="M1321.1,106c3.2,6.2,4.7,12.6,4.7,19.2c0,0.8,0,1.6,0,2.5c-0.4,7.1-2.4,13.8-5.8,20.1
						c-3.5,6.4-7.2,12.4-11.2,18.1c-3.9,5.5-8.2,10.6-13,15.3c-4.7,4.6-10.3,8.5-16.6,11.6c-4.8,2.3-10,3.9-15.3,4.8
						c-2.4,0.4-4.9,0.6-7.4,0.6c-2.8,0-5.7-0.3-8.7-0.9c-5-1-9.6-2.8-13.9-5.4c-4.3-2.7-8.1-5.9-11.4-9.4
						c-6.6-7.4-11.1-16-13.4-25.6c-1.1-4.7-1.6-9.4-1.6-14.1c0-4.9,0.6-9.7,1.7-14.5c1.4-5.3,3.5-10.3,6.5-15
						c2.8-4.7,6.2-9.2,10-13.4c4.2-4.9,9.1-9.3,14.5-13.2c5.4-3.8,11.3-6.8,17.7-9c4.8-1.5,9.8-2.2,14.9-2.2c3.6,0,7.2,0.4,10.9,1.2
						c8.7,2,16.4,5.7,23.1,11.3C1312.7,93.1,1317.4,99,1321.1,106z M1307.1,111.4c-0.5-2.2-1.5-4.3-2.8-6.3
						c-3.5-5.6-8.5-9.1-15.2-10.4c-6.6-1.5-13.1-1.2-19.3,0.9c-5.2,1.8-9.9,4.2-14.2,7.2c-4.3,3-8.3,6.4-11.9,10.1
						c-7.4,7.8-12.7,16.8-16,27c-3.2,10.2-2.3,20.3,2.7,30.4c0.8,1.6,1.9,3,3.3,4.4c1.3,1.4,2.7,2.4,4.4,3.2
						c4.8,2.4,10.2,3,16.1,1.6c5.9-1.4,11-3.3,15.3-5.9c5-2.9,9.3-6.4,13.1-10.4c3.8-4,7.2-8.3,10.3-12.8c3.1-4.5,6.2-9.6,9.3-15.3
						c3.3-5.6,5-11.3,5.2-17C1307.7,115.9,1307.5,113.7,1307.1,111.4z"/>
					<path class="st2" d="M1448.5,75.1c1.8,1,2.7,2.1,2.7,3.4c0,0.6-0.2,1.3-0.6,2.1c-11.1,18-20.4,36.8-28,56.3
						c-7.5,19.5-14.4,39.1-20.7,58.9c-0.6,1.9-2.2,3.2-4.6,4c-2.4,0.7-4.5,1.1-6.3,1.3c-0.2,0-0.4,0-0.6,0c-1.9,0-3.8-0.3-5.7-0.9
						c-2.1-0.7-3.8-1.9-5.1-3.5c-11.9-16.1-22.1-33.1-30.5-51.1c-8.3-18-14.6-36.6-18.8-55.8c-0.1-0.3-0.2-0.6-0.2-0.9
						c0-2,1.4-3.4,4.1-4.3c3.2-1,5.6-1.6,7.3-1.8c2.3-0.1,4.7,0.3,7.3,1.2c2.5,0.9,4,2.5,4.4,4.8c3.2,14.4,7.6,28.4,13.4,42.2
						c5.7,13.7,12.4,26.9,20.2,39.7c5.5-16,11.5-31.8,18-47.4c6.5-15.6,14.3-30.7,23.4-45.2c1.4-2.3,3.4-3.7,6-4.4
						c2-0.5,4-0.7,6-0.7c0.6,0,1.3,0.1,1.9,0.1C1443.8,73,1445.9,73.8,1448.5,75.1z"/>
					<path class="st2" d="M1550.6,167.1c0.3,1,0.5,1.9,0.5,2.8c0,0.4,0,0.7,0,1c-0.1,1.5-0.6,2.4-1.6,2.9c-1.1,0.5-2.3,0.8-3.6,1
						c-5,0.4-9.9,1.1-14.7,2.2c-4.8,1.1-9.5,2.5-14.1,4.4c-4.6,2-9.1,4.2-13.3,6.8c-4.2,2.5-8.5,5-12.8,7.3c-2,1.2-3.9,2.3-5.7,3.4
						c-1.9,1.2-3.8,2.3-5.8,3.4c-1.8,1.2-3.7,2-5.7,2.5c-0.6,0.1-1.2,0.1-1.7,0.1c-1.5,0.1-3-0.3-4.4-1.2c-3.2-1.8-5.3-4.3-6.3-7.5
						c-1.2-3.2-1.9-6.6-2.2-10c-0.2-2-0.3-3.8-0.3-5.6c0-1.9-0.1-3.6-0.2-5.1c-0.2-6.1-0.3-12.1-0.3-18.2
						c-0.1-6.1-0.3-12.1-0.5-18.2c-0.2-6.9-0.3-13.7-0.3-20.6c0-7,0.4-13.8,1.3-20.6c-1.1-1.7-1.6-3.5-1.6-5.6
						c-0.1-2.1,0.9-3.5,3-4.4c11.6-5,23.5-9.1,35.7-12.3c12.2-3.2,24.7-5.5,37.3-6.9c0.5-0.1,1-0.1,1.4-0.1c2.2,0,4.3,0.6,6.2,1.9
						c2.1,1.4,4,3.1,5.5,5.1c0.5,0.9,1.1,2,1.6,3.2c0.4,1.3,0.6,2.4,0.5,3.5c0,0.8-0.3,1.6-0.9,2.5c-0.5,1-1.3,1.5-2.2,1.6
						c-11.7,1.4-23.2,3.5-34.5,6.3c-11.3,2.8-22.3,6.4-33,10.6c-0.5,3.1-0.9,6.3-1.1,9.4c-0.3,3.1-0.5,6.3-0.5,9.4
						c8-3.2,16.2-6,24.7-8.4c8.4-2.3,17-4.3,25.8-6.2c2.6-0.6,5.2,0,7.6,1.6c2.3,1.6,4.2,3.3,5.5,5.3c0.9,1.4,1.6,3.4,2.1,6
						c0.5,2.6-0.5,4.3-3.2,4.8c-10.7,2.3-21.4,4.8-32.1,7.8c-10.5,3-20.7,7.1-30.3,12c0,1.5,0.1,2.9,0.2,4.3c0,1.5,0.1,2.9,0.2,4.3
						c0,4.2,0.1,8.3,0.3,12.3c0.1,4.1,0.3,8.2,0.5,12.3c4.3-2.4,8.6-4.9,13-7.5c4.3-2.6,8.7-4.9,13.3-6.8c4.4-1.9,9-3.4,13.8-4.6
						c4.7-1.2,9.5-2.1,14.2-2.6c3.8-0.5,7.1-0.3,10,0.6c2.8,0.9,5.3,2.8,7.4,5.9C1549.6,164.6,1550.2,165.8,1550.6,167.1z"/>
				</g>
			</g>
			<g>
				<g>
					<path class="st2" d="M1434.7,1638.2c2.6-0.2,5.1,0.5,7.5,2c2.8,1.5,5.3,3.4,7.5,5.6c3.6,3.7,6.3,7.7,8.1,12
						c0.8,2.2,1.2,4.3,1.2,6.1c0,1.9-0.4,3.4-1.2,4.7c-0.6,1.1-1.6,2.1-3,2.8c-1.4,0.7-3.2,1.2-5.4,1.4c-8.6,0.4-17.1,0.9-25.5,1.7
						c-8.4,0.7-16.8,1.7-25.2,2.8c-3.6,24.6-5.9,49.4-6.9,74.3c-1,25-0.7,49.8,0.9,74.6c2.2-0.6,4.4-1.2,6.6-2c2-0.7,4-1.5,6-2.2
						c2.6-0.9,5.3-0.9,8.1,0c3,0.9,5.8,2.4,8.4,4.5c4,3,7.2,6.7,9.6,11.2c2.6,4.3,3.6,8.2,3,11.7c-0.4,1.3-1.1,2.5-2.1,3.6
						c-1,1.1-2.4,2.1-4.2,2.8c-13,4.5-26,8.7-38.8,12.6c-13,3.9-26.1,7.6-39.4,11.2c-1,0.2-2.1,0.3-3.3,0.3c-1.6,0-3.3-0.3-5.1-0.8
						c-3-1.1-5.8-2.7-8.4-4.7c-4-3.2-7.2-6.9-9.6-11.2c-2.6-4.5-3.5-8.3-2.7-11.5c0.4-1.3,1.1-2.5,2.1-3.6c1-0.9,2.4-1.7,4.2-2.2
						c5.2-1.3,10.4-2.7,15.6-4.2c5.2-1.3,10.3-2.8,15.3-4.5c0.8,0,1.3-0.3,1.5-0.8c0.4-0.6,0.6-1.1,0.6-1.7
						c-0.2-0.2-0.3-0.5-0.3-0.8c0-0.4,0-0.7,0-0.8c-2.6-25-3.8-49.9-3.6-74.9c0.2-25.1,1.7-50.2,4.5-75.2c-4.6,0.9-9.2,1.9-13.8,2.8
						c-4.6,0.7-9.1,1.6-13.5,2.5c-5.4,0.9-10.2-0.1-14.4-3.1c-4.4-3.2-7.9-6.5-10.5-10.1c-2-2.6-3.4-6.4-4.2-11.5c0-0.7,0-1.5,0-2.2
						c0-3.7,2.1-6.1,6.3-7c20.4-4.1,40.9-7.5,61.3-10.3c20.6-3,41.4-4.9,62.2-5.9C1434.3,1638.2,1434.5,1638.2,1434.7,1638.2z"/>
					<path class="st2" d="M1679.9,1790.8c0,6.9-2.2,13.3-6.6,19.3c-7.6,10.4-16.5,19.1-26.8,26c-11.4,7.5-23.4,14.2-36.1,20.4
						c-12.6,6-25.4,11.3-38.2,15.9c-7,2.4-14.1,4.7-21.3,7c-7.2,2-14.6,3.4-22.2,4.2c-1.4,0.2-2.8,0.3-4.2,0.3
						c-6.8,0-13.3-1.3-19.5-3.9c-7.6-3.4-14-8-19.2-14c-2.2-2.8-4.5-6.6-6.9-11.5c-2.2-4.8-1.4-8.8,2.4-12c3.4-3,6.7-3.6,9.9-2
						c3.2,1.7,6.2,3.5,9,5.6c3,1.9,5.9,2.9,8.7,3.1c2.8,0,5.9-0.4,9.3-1.1c8-1.9,15.8-4,23.4-6.4c7.8-2.4,15.4-5.2,22.8-8.4
						c5.8-2.2,11.6-4.7,17.4-7.5c5.6-2.6,11.2-5.5,16.8-8.7c5.6-3.2,11-6.4,16.2-9.8c5.4-3.5,10.4-7.4,15-11.5
						c2.2-2,4.6-4.6,7.2-7.5c2.6-3,4-6,4.2-9.2c-1.2-0.2-2.2-0.4-3-0.6c-0.8-0.2-1.3-0.3-1.5-0.3c-11-1.9-22.3-2.7-34-2.5
						c-11.4,0.2-22.6,0.7-33.7,1.7c-9,0.7-17.9,1.9-26.7,3.4c-9,1.5-17.9,3-26.7,4.5c-8.6,1.5-16.8,1.4-24.6-0.3
						c-7.8-1.5-13.3-6.6-16.5-15.4c-2.4-7.1-3.6-14.2-3.6-21.5c0-2.8,0.2-5.6,0.6-8.4c1.2-9.9,5-19.2,11.4-27.9
						c5.6-7.4,11.9-14.2,18.9-20.4c7.2-6.3,14.8-12,22.8-17c15.8-10.1,32.9-17.8,51.1-23.2c18.2-5.2,37-8,56.2-8.4
						c0.2,0,0.4,0,0.6,0c4.8,0,9.3,2,13.5,5.9c4.4,4.1,7.4,8.2,9,12.3c1.6,3.5,1.9,7.1,0.9,10.6c-1,3.7-4,5.7-9,5.9
						c-15.8,0.2-31.4,2.4-46.6,6.7c-15.4,4.5-29.8,10.6-43,18.4c-7,4.1-13.7,8.7-20.1,13.7c-6.4,5-12.2,10.6-17.4,16.8
						c-2,2.1-4,4.5-6,7.3c-1.8,2.8-3.5,5.7-5.1,8.7c13.6-2.2,27.2-4.1,40.6-5.6c13.6-1.7,27.1-2.4,40.6-2.2c10.2,0.2,21,1,32.5,2.5
						c11.6,1.3,22,4.3,31.3,8.9c5,2.6,9.5,5.9,13.5,9.8c3.8,3.7,6.9,8.3,9.3,13.7C1678.8,1781.2,1679.9,1786.1,1679.9,1790.8z
						 M1503.8,1848.9h0.3H1503.8z"/>
					<path class="st2" d="M1976.9,1812c4.6,5.8,6.9,10.9,6.9,15.4c0,1.1-0.1,2.1-0.3,3.1c-0.6,1.7-1.6,3.2-3,4.5
						c-1.6,1.1-3.8,1.8-6.6,2c-21.8,1.9-43.1,6.6-63.7,14.2c-20.8,7.6-40,17.5-57.4,29.6c-2,1.3-4.2,2-6.6,2c-1.2,0-2.5-0.2-3.9-0.6
						c-3.8-1.3-7-2.9-9.6-4.7c-3.4-2.6-6.2-5.8-8.4-9.5c-2.4-3.7-3.6-7.5-3.6-11.5c0-8,0-15.9,0-23.7c0-26.3,0.2-52.5,0.6-78.8
						c0.4-34.1,1.3-68.2,2.7-102.2c0.2-4.8,2.6-7.4,7.2-7.8c0.4,0,0.9,0,1.5,0c3.8,0,7.2,0.7,10.2,2.2c4.2,2.2,8,5.5,11.4,9.8
						c3.4,4.5,5,9.1,4.8,14c-1,27-1.8,53.9-2.4,80.7s-0.9,53.7-0.9,80.7c15.8-8,32.4-14.4,49.6-19.3c17.2-4.8,35.1-8.1,53.5-9.8
						C1964.9,1801.9,1970.9,1805.1,1976.9,1812z"/>
					<path class="st2" d="M1991,1742.7c-2.2,9.1-3.3,18.4-3.3,27.7c0,8.9,1,17.9,3,26.8c2.1,8.8,5.2,17.2,9.3,25.1v-102.4
						C1996,1727.2,1993.1,1734.8,1991,1742.7z"/>
				</g>
			</g>
			<g>
				<g>
					<path class="st2" d="M131.2,1763c-7-13.2-16.1-24.6-27.3-34.1c-12.6-10.6-27.3-17.8-43.9-21.5c-7-1.5-13.9-2.2-20.7-2.2
						c-9.6,0-19,1.4-28.3,4.2c-3.7,1.3-7.4,2.7-10.9,4.2v48.1c2.1-1.7,4.2-3.2,6.4-4.8c8.2-5.8,17.2-10.3,27.1-13.7
						c11.8-3.9,24.1-4.5,36.7-1.7c12.6,2.6,22.3,9.2,28.9,19.9c2.6,3.9,4.4,7.9,5.4,12c0.8,4.3,1.1,8.6,0.9,12.8
						c-0.4,11-3.7,21.8-9.9,32.4c-6,10.8-11.9,20.5-17.7,29.1c-5.8,8.6-12.3,16.7-19.5,24.3c-7.2,7.6-15.5,14.3-24.9,19.8
						c-8.2,4.9-17.9,8.6-29.2,11.2c-1.4,0.3-2.7,0.6-4,0.8v34.3c2.8,0.3,5.5,0.4,8.3,0.4c4.8,0,9.5-0.4,14.1-1.1
						c10.2-1.9,19.9-4.9,29.2-9.2c12-5.9,22.5-13.3,31.5-22c9-8.9,17.2-18.6,24.7-29.1c7.6-10.8,14.7-22.3,21.3-34.4
						c6.6-12.1,10.3-24.9,11.1-38.3v-4.7C140.2,1787,137.2,1774.8,131.2,1763z"/>
					<path class="st2" d="M373.4,1704.4c3.4,1.9,5.1,4,5.1,6.4c0,1.1-0.4,2.4-1.2,3.9c-21,34.3-38.8,69.9-53.2,107
						c-14.2,37.1-27.3,74.4-39.4,112c-1.2,3.5-4.1,6-8.7,7.5c-4.6,1.3-8.6,2.1-12,2.5c-0.4,0-0.8,0-1.2,0c-3.6,0-7.2-0.6-10.8-1.7
						c-4-1.3-7.2-3.5-9.6-6.7c-22.6-30.5-42-62.9-58-97.2c-15.8-34.3-27.8-69.7-35.8-106.2c-0.2-0.6-0.3-1.1-0.3-1.7
						c0-3.7,2.6-6.4,7.8-8.1c6-1.9,10.6-3,13.8-3.4c4.4-0.2,9,0.6,13.8,2.2c4.8,1.7,7.6,4.7,8.4,9.2c6,27.4,14.5,54.1,25.5,80.2
						c10.8,26.1,23.6,51.2,38.5,75.4c10.4-30.4,21.8-60.4,34.3-90.2c12.4-29.6,27.2-58.3,44.5-86c2.6-4.3,6.4-7.1,11.4-8.4
						c3.8-0.9,7.6-1.4,11.4-1.4c1.2,0,2.4,0.1,3.6,0.3C364.4,1700.4,368.4,1701.8,373.4,1704.4z"/>
					<path class="st2" d="M567.6,1879.3c0.6,1.9,0.9,3.6,0.9,5.3c0,0.7,0,1.4,0,2c-0.2,2.8-1.2,4.7-3,5.6c-2,0.9-4.3,1.6-6.9,2
						c-9.4,0.7-18.7,2.1-28,4.2c-9.2,2.1-18.1,4.8-26.7,8.4c-8.8,3.7-17.2,8-25.2,12.9c-8,4.8-16.1,9.5-24.3,14
						c-3.8,2.2-7.4,4.4-10.8,6.4c-3.6,2.2-7.3,4.4-11.1,6.4c-3.4,2.2-7,3.8-10.8,4.7c-1.2,0.2-2.3,0.3-3.3,0.3
						c-2.8,0.2-5.6-0.6-8.4-2.2c-6-3.4-10-8.1-12-14.2c-2.2-6.1-3.6-12.5-4.2-19c-0.4-3.7-0.6-7.3-0.6-10.6c0-3.5-0.1-6.8-0.3-9.8
						c-0.4-11.5-0.6-23.1-0.6-34.6c-0.2-11.5-0.5-23.1-0.9-34.6c-0.4-13-0.6-26.1-0.6-39.1c0-13.2,0.8-26.3,2.4-39.1
						c-2-3.2-3-6.7-3-10.6c-0.2-3.9,1.7-6.7,5.7-8.4c22-9.5,44.7-17.3,67.9-23.5c23.2-6.1,46.9-10.5,70.9-13.1
						c1-0.2,1.9-0.3,2.7-0.3c4.2,0,8.1,1.2,11.7,3.6c4,2.6,7.5,5.9,10.5,9.8c1,1.7,2,3.7,3,6.1c0.8,2.4,1.1,4.7,0.9,6.7
						c0,1.5-0.6,3.1-1.8,4.7c-1,1.9-2.4,2.9-4.2,3.1c-22.2,2.6-44.1,6.6-65.5,12c-21.4,5.4-42.4,12.1-62.8,20.1
						c-1,6-1.7,11.9-2.1,17.9c-0.6,6-0.9,11.9-0.9,17.9c15.2-6.1,30.9-11.5,46.9-15.9c16-4.3,32.4-8.2,49-11.7
						c5-1.1,9.8-0.1,14.4,3.1c4.4,3,7.9,6.3,10.5,10.1c1.8,2.6,3.1,6.4,3.9,11.5c1,5-1,8.1-6,9.2c-20.4,4.3-40.8,9.2-61,14.8
						c-20,5.8-39.3,13.4-57.7,22.9c0,2.8,0.1,5.5,0.3,8.1c0,2.8,0.1,5.5,0.3,8.1c0,8,0.2,15.8,0.6,23.5c0.2,7.8,0.5,15.6,0.9,23.5
						c8.2-4.7,16.4-9.4,24.6-14.2c8.2-5,16.6-9.3,25.2-12.9c8.4-3.5,17.1-6.4,26.1-8.7c9-2.2,18-3.9,27.1-5
						c7.2-0.9,13.5-0.6,18.9,1.1c5.4,1.7,10.1,5.4,14.1,11.2C565.7,1874.6,566.8,1876.8,567.6,1879.3z"/>
				</g>
			</g>
			<g>
				<g>
					<path class="st2" d="M1268.3,769.9c1.4-0.1,2.7,0.2,4,1c1.5,0.8,2.8,1.8,4,2.9c1.9,2,3.3,4.1,4.3,6.3c0.4,1.2,0.6,2.3,0.6,3.2
						c0,1-0.2,1.8-0.6,2.5c-0.3,0.6-0.8,1.1-1.6,1.5c-0.7,0.4-1.7,0.6-2.8,0.7c-4.5,0.2-9,0.5-13.4,0.9c-4.4,0.4-8.9,0.9-13.3,1.5
						c-1.9,12.9-3.1,26-3.6,39.1c-0.5,13.1-0.4,26.2,0.5,39.2c1.2-0.3,2.3-0.6,3.5-1c1.1-0.4,2.1-0.8,3.2-1.2c1.4-0.5,2.8-0.5,4.3,0
						c1.6,0.5,3.1,1.3,4.4,2.4c2.1,1.6,3.8,3.5,5.1,5.9c1.4,2.3,1.9,4.3,1.6,6.2c-0.2,0.7-0.6,1.3-1.1,1.9c-0.5,0.6-1.3,1.1-2.2,1.5
						c-6.9,2.4-13.6,4.6-20.4,6.6c-6.8,2.1-13.7,4-20.7,5.9c-0.5,0.1-1.1,0.1-1.7,0.1c-0.8,0-1.7-0.1-2.7-0.4
						c-1.6-0.6-3.1-1.4-4.4-2.5c-2.1-1.7-3.8-3.6-5.1-5.9c-1.4-2.4-1.8-4.4-1.4-6c0.2-0.7,0.6-1.3,1.1-1.9c0.5-0.5,1.3-0.9,2.2-1.2
						c2.7-0.7,5.5-1.4,8.2-2.2c2.7-0.7,5.4-1.5,8.1-2.4c0.4,0,0.7-0.1,0.8-0.4c0.2-0.3,0.3-0.6,0.3-0.9c-0.1-0.1-0.2-0.2-0.2-0.4
						c0-0.2,0-0.3,0-0.4c-1.4-13.1-2-26.2-1.9-39.4c0.1-13.2,0.9-26.4,2.4-39.5c-2.4,0.5-4.8,1-7.3,1.5c-2.4,0.4-4.8,0.8-7.1,1.3
						c-2.8,0.5-5.4,0-7.6-1.6c-2.3-1.7-4.2-3.4-5.5-5.3c-1.1-1.4-1.8-3.4-2.2-6c0-0.4,0-0.8,0-1.2c0-2,1.1-3.2,3.3-3.7
						c10.7-2.2,21.5-4,32.2-5.4c10.9-1.6,21.8-2.6,32.7-3.1C1268.1,769.9,1268.2,769.9,1268.3,769.9z"/>
					<path class="st2" d="M1397.2,850.1c0,3.6-1.2,7-3.5,10.1c-4,5.5-8.7,10-14.1,13.7c-6,3.9-12.3,7.5-19,10.7
						c-6.6,3.1-13.3,5.9-20.1,8.4c-3.7,1.3-7.4,2.5-11.2,3.7c-3.8,1.1-7.7,1.8-11.7,2.2c-0.7,0.1-1.5,0.1-2.2,0.1
						c-3.6,0-7-0.7-10.3-2.1c-4-1.8-7.4-4.2-10.1-7.3c-1.2-1.5-2.4-3.5-3.6-6c-1.2-2.5-0.7-4.7,1.3-6.3c1.8-1.6,3.5-1.9,5.2-1
						c1.7,0.9,3.3,1.9,4.7,2.9c1.6,1,3.1,1.5,4.6,1.6c1.5,0,3.1-0.2,4.9-0.6c4.2-1,8.3-2.1,12.3-3.4c4.1-1.3,8.1-2.7,12-4.4
						c3.1-1.2,6.1-2.5,9.2-4c2.9-1.4,5.9-2.9,8.8-4.6c2.9-1.7,5.8-3.4,8.5-5.1c2.8-1.9,5.5-3.9,7.9-6c1.2-1.1,2.4-2.4,3.8-4
						c1.4-1.6,2.1-3.2,2.2-4.8c-0.6-0.1-1.2-0.2-1.6-0.3c-0.4-0.1-0.7-0.1-0.8-0.1c-5.8-1-11.7-1.4-17.9-1.3
						c-6,0.1-11.9,0.4-17.7,0.9c-4.7,0.4-9.4,1-14.1,1.8c-4.7,0.8-9.4,1.6-14.1,2.4c-4.5,0.8-8.8,0.7-13-0.1c-4.1-0.8-7-3.5-8.7-8.1
						c-1.3-3.7-1.9-7.5-1.9-11.3c0-1.5,0.1-2.9,0.3-4.4c0.6-5.2,2.6-10.1,6-14.7c2.9-3.9,6.3-7.5,10-10.7c3.8-3.3,7.8-6.3,12-9
						c8.3-5.3,17.3-9.4,26.9-12.2c9.6-2.7,19.4-4.2,29.6-4.4c0.1,0,0.2,0,0.3,0c2.5,0,4.9,1,7.1,3.1c2.3,2.2,3.9,4.3,4.7,6.5
						c0.8,1.9,1,3.7,0.5,5.6c-0.5,2-2.1,3-4.7,3.1c-8.3,0.1-16.5,1.3-24.5,3.5c-8.1,2.4-15.6,5.6-22.6,9.7
						c-3.7,2.2-7.2,4.6-10.6,7.2c-3.4,2.6-6.4,5.6-9.2,8.8c-1.1,1.1-2.1,2.4-3.2,3.8c-0.9,1.5-1.8,3-2.7,4.6
						c7.2-1.2,14.3-2.2,21.3-2.9c7.2-0.9,14.3-1.3,21.3-1.2c5.4,0.1,11.1,0.5,17.1,1.3c6.1,0.7,11.6,2.3,16.4,4.7
						c2.6,1.4,5,3.1,7.1,5.1c2,2,3.6,4.4,4.9,7.2C1396.7,845.1,1397.2,847.7,1397.2,850.1z M1304.6,880.6h0.2H1304.6z"/>
					<path class="st2" d="M1553.4,861.3c2.4,3,3.6,5.7,3.6,8.1c0,0.6-0.1,1.1-0.2,1.6c-0.3,0.9-0.8,1.7-1.6,2.4
						c-0.8,0.6-2,0.9-3.5,1c-11.5,1-22.7,3.5-33.5,7.5c-11,4-21,9.2-30.2,15.6c-1.1,0.7-2.2,1-3.5,1c-0.6,0-1.3-0.1-2.1-0.3
						c-2-0.7-3.7-1.5-5.1-2.5c-1.8-1.4-3.3-3-4.4-5c-1.3-2-1.9-4-1.9-6c0-4.2,0-8.4,0-12.5c0-13.8,0.1-27.6,0.3-41.4
						c0.2-17.9,0.7-35.8,1.4-53.8c0.1-2.5,1.4-3.9,3.8-4.1c0.2,0,0.5,0,0.8,0c2,0,3.8,0.4,5.4,1.2c2.2,1.2,4.2,2.9,6,5.1
						c1.8,2.4,2.6,4.8,2.5,7.3c-0.5,14.2-0.9,28.4-1.3,42.5s-0.5,28.3-0.5,42.5c8.3-4.2,17-7.6,26.1-10.1c9.1-2.5,18.4-4.3,28.1-5.1
						C1547.1,855.9,1550.2,857.6,1553.4,861.3z"/>
					<path class="st2" d="M1672.7,802.5c3.2,6.2,4.7,12.6,4.7,19.2c0,0.8,0,1.6,0,2.5c-0.4,7.1-2.4,13.8-5.8,20.1
						c-3.5,6.4-7.2,12.4-11.2,18.1c-3.9,5.5-8.2,10.6-13,15.3c-4.7,4.6-10.3,8.5-16.6,11.6c-4.8,2.3-10,3.9-15.3,4.8
						c-2.4,0.4-4.9,0.6-7.4,0.6c-2.8,0-5.7-0.3-8.7-0.9c-5-1-9.6-2.8-13.9-5.4c-4.3-2.7-8.1-5.9-11.4-9.4
						c-6.6-7.4-11.1-16-13.4-25.6c-1.1-4.7-1.6-9.4-1.6-14.1c0-4.9,0.6-9.7,1.7-14.5c1.4-5.3,3.5-10.3,6.5-15
						c2.8-4.7,6.2-9.2,10-13.4c4.2-4.9,9.1-9.3,14.5-13.2c5.4-3.8,11.3-6.8,17.7-9c4.8-1.5,9.8-2.2,14.9-2.2c3.6,0,7.2,0.4,10.9,1.2
						c8.7,2,16.4,5.7,23.1,11.3C1664.2,789.6,1669,795.6,1672.7,802.5z M1658.6,807.9c-0.5-2.2-1.5-4.3-2.8-6.3
						c-3.5-5.6-8.5-9.1-15.2-10.4c-6.6-1.5-13.1-1.2-19.3,0.9c-5.2,1.8-9.9,4.2-14.2,7.2c-4.3,3-8.3,6.4-11.9,10.1
						c-7.4,7.8-12.7,16.8-16,27c-3.2,10.2-2.3,20.3,2.7,30.4c0.8,1.6,1.9,3,3.3,4.4c1.3,1.4,2.7,2.4,4.4,3.2
						c4.8,2.4,10.2,3,16.1,1.6c5.9-1.4,11-3.3,15.3-5.9c5-2.9,9.3-6.4,13.1-10.4c3.8-4,7.2-8.3,10.3-12.8c3.1-4.5,6.2-9.6,9.3-15.3
						c3.3-5.6,5-11.3,5.2-17C1659.2,812.4,1659,810.2,1658.6,807.9z"/>
					<path class="st2" d="M1800.1,771.7c1.8,1,2.7,2.1,2.7,3.4c0,0.6-0.2,1.3-0.6,2.1c-11.1,18-20.4,36.8-28,56.3
						c-7.5,19.5-14.4,39.1-20.7,58.9c-0.6,1.9-2.2,3.2-4.6,4c-2.4,0.7-4.5,1.1-6.3,1.3c-0.2,0-0.4,0-0.6,0c-1.9,0-3.8-0.3-5.7-0.9
						c-2.1-0.7-3.8-1.9-5.1-3.5c-11.9-16.1-22.1-33.1-30.5-51.1c-8.3-18-14.6-36.6-18.8-55.8c-0.1-0.3-0.2-0.6-0.2-0.9
						c0-2,1.4-3.4,4.1-4.3c3.2-1,5.6-1.6,7.3-1.8c2.3-0.1,4.7,0.3,7.3,1.2c2.5,0.9,4,2.5,4.4,4.8c3.2,14.4,7.6,28.4,13.4,42.2
						c5.7,13.7,12.4,26.9,20.2,39.7c5.5-16,11.5-31.8,18-47.4c6.5-15.6,14.3-30.7,23.4-45.2c1.4-2.3,3.4-3.7,6-4.4
						c2-0.5,4-0.7,6-0.7c0.6,0,1.3,0.1,1.9,0.1C1795.3,769.6,1797.4,770.3,1800.1,771.7z"/>
					<path class="st2" d="M1902.2,863.6c0.3,1,0.5,1.9,0.5,2.8c0,0.4,0,0.7,0,1c-0.1,1.5-0.6,2.4-1.6,2.9c-1.1,0.5-2.3,0.8-3.6,1
						c-5,0.4-9.9,1.1-14.7,2.2c-4.8,1.1-9.5,2.5-14.1,4.4c-4.6,2-9.1,4.2-13.3,6.8c-4.2,2.5-8.5,5-12.8,7.3c-2,1.2-3.9,2.3-5.7,3.4
						c-1.9,1.2-3.8,2.3-5.8,3.4c-1.8,1.2-3.7,2-5.7,2.5c-0.6,0.1-1.2,0.1-1.7,0.1c-1.5,0.1-3-0.3-4.4-1.2c-3.2-1.8-5.3-4.3-6.3-7.5
						c-1.2-3.2-1.9-6.6-2.2-10c-0.2-2-0.3-3.8-0.3-5.6c0-1.9-0.1-3.6-0.2-5.1c-0.2-6.1-0.3-12.1-0.3-18.2
						c-0.1-6.1-0.3-12.1-0.5-18.2c-0.2-6.9-0.3-13.7-0.3-20.6c0-7,0.4-13.8,1.3-20.6c-1.1-1.7-1.6-3.5-1.6-5.6
						c-0.1-2.1,0.9-3.5,3-4.4c11.6-5,23.5-9.1,35.7-12.3c12.2-3.2,24.7-5.5,37.3-6.9c0.5-0.1,1-0.1,1.4-0.1c2.2,0,4.3,0.6,6.2,1.9
						c2.1,1.4,4,3.1,5.5,5.1c0.5,0.9,1.1,2,1.6,3.2c0.4,1.3,0.6,2.4,0.5,3.5c0,0.8-0.3,1.6-0.9,2.5c-0.5,1-1.3,1.5-2.2,1.6
						c-11.7,1.4-23.2,3.5-34.5,6.3c-11.3,2.8-22.3,6.4-33,10.6c-0.5,3.1-0.9,6.3-1.1,9.4c-0.3,3.1-0.5,6.3-0.5,9.4
						c8-3.2,16.2-6,24.7-8.4c8.4-2.3,17-4.3,25.8-6.2c2.6-0.6,5.2,0,7.6,1.6c2.3,1.6,4.2,3.3,5.5,5.3c0.9,1.4,1.6,3.4,2.1,6
						c0.5,2.6-0.5,4.3-3.2,4.8c-10.7,2.3-21.4,4.8-32.1,7.8c-10.5,3-20.7,7.1-30.3,12c0,1.5,0.1,2.9,0.2,4.3c0,1.5,0.1,2.9,0.2,4.3
						c0,4.2,0.1,8.3,0.3,12.3c0.1,4.1,0.3,8.2,0.5,12.3c4.3-2.4,8.6-4.9,13-7.5c4.3-2.6,8.7-4.9,13.3-6.8c4.4-1.9,9-3.4,13.8-4.6
						c4.7-1.2,9.5-2.1,14.2-2.6c3.8-0.5,7.1-0.3,10,0.6c2.8,0.9,5.3,2.8,7.4,5.9C1901.2,861.2,1901.7,862.3,1902.2,863.6z"/>
				</g>
			</g>
			<g>
				<g>
					<path class="st2" d="M147.7,1137.8c1-0.1,2.1,0.2,3,0.8c1.1,0.6,2.1,1.3,3,2.2c1.5,1.5,2.5,3.1,3.3,4.8
						c0.3,0.9,0.5,1.7,0.5,2.5c0,0.8-0.2,1.4-0.5,1.9c-0.2,0.4-0.6,0.8-1.2,1.1c-0.6,0.3-1.3,0.5-2.2,0.6c-3.5,0.2-6.9,0.4-10.3,0.7
						c-3.4,0.3-6.8,0.7-10.2,1.1c-1.5,9.9-2.4,19.9-2.8,29.9c-0.4,10-0.3,20.1,0.4,30c0.9-0.2,1.8-0.5,2.7-0.8
						c0.8-0.3,1.6-0.6,2.4-0.9c1-0.4,2.1-0.4,3.3,0c1.2,0.4,2.3,1,3.4,1.8c1.6,1.2,2.9,2.7,3.9,4.5c1,1.7,1.5,3.3,1.2,4.7
						c-0.2,0.5-0.4,1-0.8,1.5c-0.4,0.5-1,0.8-1.7,1.1c-5.2,1.8-10.4,3.5-15.6,5.1c-5.2,1.6-10.5,3.1-15.8,4.5
						c-0.4,0.1-0.8,0.1-1.3,0.1c-0.6,0-1.3-0.1-2.1-0.3c-1.2-0.4-2.3-1.1-3.4-1.9c-1.6-1.3-2.9-2.8-3.9-4.5c-1-1.8-1.4-3.3-1.1-4.6
						c0.2-0.5,0.4-1,0.8-1.5c0.4-0.4,1-0.7,1.7-0.9c2.1-0.5,4.2-1.1,6.3-1.7c2.1-0.5,4.2-1.1,6.2-1.8c0.3,0,0.5-0.1,0.6-0.3
						c0.2-0.2,0.2-0.4,0.2-0.7c-0.1-0.1-0.1-0.2-0.1-0.3c0-0.1,0-0.3,0-0.3c-1.1-10-1.5-20.1-1.5-30.1c0.1-10.1,0.7-20.2,1.8-30.2
						c-1.9,0.4-3.7,0.8-5.6,1.1c-1.9,0.3-3.7,0.6-5.4,1c-2.2,0.4-4.1,0-5.8-1.2c-1.8-1.3-3.2-2.6-4.2-4c-0.8-1-1.4-2.6-1.7-4.6
						c0-0.3,0-0.6,0-0.9c0-1.5,0.8-2.4,2.5-2.8c8.2-1.6,16.5-3,24.7-4.2c8.3-1.2,16.7-2,25-2.4
						C147.5,1137.8,147.6,1137.8,147.7,1137.8z"/>
					<path class="st2" d="M308.3,1199.2c0,2.8-0.9,5.4-2.7,7.8c-3.1,4.2-6.7,7.7-10.8,10.5c-4.6,3-9.4,5.7-14.5,8.2
						c-5.1,2.4-10.2,4.5-15.4,6.4c-2.8,1-5.7,1.9-8.6,2.8c-2.9,0.8-5.9,1.4-9,1.7c-0.6,0.1-1.1,0.1-1.7,0.1c-2.7,0-5.4-0.5-7.9-1.6
						c-3.1-1.3-5.6-3.2-7.7-5.6c-0.9-1.1-1.8-2.7-2.8-4.6c-0.9-1.9-0.6-3.6,1-4.8c1.4-1.2,2.7-1.5,4-0.8c1.3,0.7,2.5,1.4,3.6,2.2
						c1.2,0.8,2.4,1.2,3.5,1.2c1.1,0,2.4-0.1,3.7-0.4c3.2-0.7,6.4-1.6,9.4-2.6c3.1-1,6.2-2.1,9.2-3.4c2.3-0.9,4.7-1.9,7-3
						c2.3-1,4.5-2.2,6.8-3.5c2.3-1.3,4.4-2.6,6.5-3.9c2.2-1.4,4.2-3,6-4.6c0.9-0.8,1.9-1.8,2.9-3c1-1.2,1.6-2.4,1.7-3.7
						c-0.5-0.1-0.9-0.1-1.2-0.2c-0.3-0.1-0.5-0.1-0.6-0.1c-4.4-0.7-9-1.1-13.7-1c-4.6,0.1-9.1,0.3-13.5,0.7
						c-3.6,0.3-7.2,0.8-10.8,1.3c-3.6,0.6-7.2,1.2-10.8,1.8c-3.5,0.6-6.8,0.6-9.9-0.1c-3.1-0.6-5.4-2.7-6.7-6.2
						c-1-2.8-1.5-5.7-1.5-8.7c0-1.1,0.1-2.2,0.2-3.4c0.5-4,2-7.7,4.6-11.2c2.3-3,4.8-5.7,7.6-8.2c2.9-2.5,6-4.8,9.2-6.9
						c6.4-4,13.2-7.2,20.6-9.3c7.3-2.1,14.9-3.2,22.6-3.4c0.1,0,0.2,0,0.2,0c1.9,0,3.8,0.8,5.4,2.4c1.8,1.6,3,3.3,3.6,4.9
						c0.6,1.4,0.8,2.8,0.4,4.3c-0.4,1.5-1.6,2.3-3.6,2.4c-6.4,0.1-12.6,1-18.8,2.7c-6.2,1.8-12,4.3-17.3,7.4
						c-2.8,1.6-5.5,3.5-8.1,5.5c-2.6,2-4.9,4.3-7,6.7c-0.8,0.8-1.6,1.8-2.4,2.9c-0.7,1.1-1.4,2.3-2.1,3.5c5.5-0.9,10.9-1.6,16.3-2.2
						c5.5-0.7,10.9-1,16.3-0.9c4.1,0.1,8.5,0.4,13.1,1c4.7,0.5,8.9,1.7,12.6,3.6c2,1.1,3.8,2.4,5.4,3.9c1.5,1.5,2.8,3.3,3.7,5.5
						C307.9,1195.3,308.3,1197.3,308.3,1199.2z M237.4,1222.6h0.1H237.4z"/>
					<path class="st2" d="M551.7,1207.7c1.9,2.3,2.8,4.4,2.8,6.2c0,0.4,0,0.9-0.1,1.2c-0.2,0.7-0.6,1.3-1.2,1.8
						c-0.6,0.5-1.5,0.7-2.7,0.8c-8.8,0.7-17.3,2.7-25.6,5.7c-8.4,3.1-16.1,7-23.1,11.9c-0.8,0.5-1.7,0.8-2.7,0.8
						c-0.5,0-1-0.1-1.6-0.2c-1.5-0.5-2.8-1.2-3.9-1.9c-1.4-1.1-2.5-2.3-3.4-3.8c-1-1.5-1.5-3-1.5-4.6c0-3.2,0-6.4,0-9.6
						c0-10.6,0.1-21.1,0.2-31.7c0.2-13.7,0.5-27.4,1.1-41.2c0.1-1.9,1-3,2.9-3.1c0.2,0,0.4,0,0.6,0c1.5,0,2.9,0.3,4.1,0.9
						c1.7,0.9,3.2,2.2,4.6,3.9c1.4,1.8,2,3.7,1.9,5.6c-0.4,10.9-0.7,21.7-1,32.5s-0.4,21.6-0.4,32.5c6.4-3.2,13-5.8,20-7.8
						c6.9-1.9,14.1-3.3,21.5-3.9C546.9,1203.7,549.3,1205,551.7,1207.7z"/>
					<path class="st2" d="M705,1162.8c2.4,4.7,3.6,9.6,3.6,14.7c0,0.6,0,1.2,0,1.9c-0.3,5.4-1.8,10.5-4.5,15.4
						c-2.7,4.9-5.5,9.5-8.6,13.8c-3,4.2-6.3,8.1-9.9,11.7c-3.6,3.5-7.9,6.5-12.7,8.9c-3.7,1.7-7.6,3-11.7,3.7
						c-1.9,0.3-3.7,0.4-5.7,0.4c-2.2,0-4.4-0.2-6.7-0.7c-3.8-0.7-7.3-2.1-10.6-4.2c-3.3-2.1-6.2-4.5-8.7-7.2
						c-5.1-5.7-8.5-12.2-10.3-19.6c-0.8-3.6-1.2-7.2-1.2-10.8c0-3.7,0.4-7.5,1.3-11.1c1-4,2.7-7.9,5-11.5c2.2-3.6,4.7-7,7.6-10.2
						c3.2-3.7,6.9-7.1,11.1-10.1c4.1-2.9,8.6-5.2,13.5-6.9c3.7-1.1,7.5-1.7,11.4-1.7c2.7,0,5.5,0.3,8.3,0.9
						c6.7,1.5,12.6,4.4,17.7,8.7C698.5,1152.9,702.2,1157.4,705,1162.8z M694.2,1166.9c-0.4-1.6-1.1-3.3-2.2-4.8
						c-2.7-4.3-6.5-6.9-11.6-8c-5.1-1.1-10-0.9-14.8,0.7c-4,1.3-7.6,3.2-10.9,5.5c-3.3,2.3-6.3,4.9-9.1,7.8
						c-5.6,6-9.7,12.9-12.2,20.7c-2.4,7.8-1.7,15.6,2.1,23.3c0.6,1.2,1.5,2.3,2.5,3.4c1,1.1,2.1,1.9,3.4,2.5
						c3.7,1.9,7.8,2.3,12.3,1.2c4.5-1,8.4-2.5,11.7-4.5c3.8-2.2,7.1-4.9,10-8c2.9-3.1,5.5-6.3,7.9-9.8c2.3-3.4,4.7-7.3,7.1-11.7
						c2.5-4.3,3.8-8.6,4-13C694.7,1170.4,694.6,1168.6,694.2,1166.9z"/>
					<path class="st2" d="M864.5,1139.1c1.4,0.7,2.1,1.6,2.1,2.6c0,0.4-0.2,1-0.5,1.6c-8.5,13.8-15.6,28.2-21.4,43.1
						c-5.7,14.9-11,29.9-15.8,45.1c-0.5,1.4-1.7,2.4-3.5,3c-1.9,0.5-3.5,0.9-4.8,1c-0.2,0-0.3,0-0.5,0c-1.5,0-2.9-0.2-4.4-0.7
						c-1.6-0.5-2.9-1.4-3.9-2.7c-9.1-12.3-16.9-25.3-23.3-39.1c-6.4-13.8-11.2-28-14.4-42.7c-0.1-0.2-0.1-0.4-0.1-0.7
						c0-1.5,1-2.6,3.1-3.3c2.4-0.7,4.3-1.2,5.6-1.3c1.8-0.1,3.6,0.2,5.6,0.9c1.9,0.7,3.1,1.9,3.4,3.7c2.4,11,5.8,21.8,10.3,32.3
						c4.4,10.5,9.5,20.6,15.5,30.4c4.2-12.2,8.8-24.3,13.8-36.3c5-11.9,11-23.5,17.9-34.6c1-1.7,2.6-2.8,4.6-3.4
						c1.5-0.4,3.1-0.6,4.6-0.6c0.5,0,1,0,1.5,0.1C860.8,1137.5,862.5,1138.1,864.5,1139.1z"/>
					<path class="st2" d="M1004.6,1209.5c0.2,0.8,0.4,1.5,0.4,2.1c0,0.3,0,0.6,0,0.8c-0.1,1.1-0.5,1.9-1.2,2.2
						c-0.8,0.4-1.7,0.6-2.8,0.8c-3.8,0.3-7.5,0.9-11.3,1.7c-3.7,0.8-7.3,2-10.8,3.4c-3.6,1.5-6.9,3.2-10.2,5.2
						c-3.2,1.9-6.5,3.8-9.8,5.6c-1.5,0.9-3,1.8-4.4,2.6c-1.5,0.9-2.9,1.8-4.5,2.6c-1.4,0.9-2.8,1.5-4.4,1.9
						c-0.5,0.1-0.9,0.1-1.3,0.1c-1.1,0.1-2.3-0.2-3.4-0.9c-2.4-1.3-4-3.3-4.8-5.7c-0.9-2.5-1.5-5-1.7-7.6c-0.2-1.5-0.2-2.9-0.2-4.3
						c0-1.4,0-2.7-0.1-3.9c-0.2-4.6-0.2-9.3-0.2-13.9c-0.1-4.6-0.2-9.3-0.4-13.9c-0.2-5.2-0.2-10.5-0.2-15.7c0-5.3,0.3-10.6,1-15.7
						c-0.8-1.3-1.2-2.7-1.2-4.3c-0.1-1.6,0.7-2.7,2.3-3.4c8.9-3.8,18-7,27.3-9.4c9.4-2.5,18.9-4.2,28.6-5.3c0.4-0.1,0.8-0.1,1.1-0.1
						c1.7,0,3.3,0.5,4.7,1.5c1.6,1.1,3,2.4,4.2,3.9c0.4,0.7,0.8,1.5,1.2,2.5c0.3,1,0.4,1.9,0.4,2.7c0,0.6-0.2,1.2-0.7,1.9
						c-0.4,0.8-1,1.2-1.7,1.2c-9,1.1-17.7,2.7-26.4,4.8c-8.6,2.2-17.1,4.9-25.3,8.1c-0.4,2.4-0.7,4.8-0.8,7.2
						c-0.2,2.4-0.4,4.8-0.4,7.2c6.1-2.5,12.4-4.6,18.9-6.4c6.5-1.7,13-3.3,19.7-4.7c2-0.4,4,0,5.8,1.2c1.8,1.2,3.2,2.5,4.2,4
						c0.7,1.1,1.2,2.6,1.6,4.6c0.4,2-0.4,3.3-2.4,3.7c-8.2,1.7-16.4,3.7-24.6,6c-8.1,2.3-15.8,5.4-23.2,9.2c0,1.1,0,2.2,0.1,3.3
						c0,1.1,0,2.2,0.1,3.3c0,3.2,0.1,6.4,0.2,9.4c0.1,3.1,0.2,6.3,0.4,9.4c3.3-1.9,6.6-3.8,9.9-5.7c3.3-2,6.7-3.7,10.2-5.2
						c3.4-1.4,6.9-2.6,10.5-3.5c3.6-0.9,7.3-1.6,10.9-2c2.9-0.4,5.4-0.2,7.6,0.5c2.2,0.7,4.1,2.2,5.7,4.5
						C1003.8,1207.7,1004.2,1208.6,1004.6,1209.5z"/>
				</g>
			</g>
		</g>
	</g>
	<path class="st3" d="M1763.8,449.1c-20-14.6-43-22.3-66.6-22.3c-31.3,0-60.2,13-83.9,36.7c-5.5-0.9-11.2-1.3-17.1-1.3
		c-6,0-11.9,0.5-17.8,1.5c16.1-31.7,13.4-58,7.3-75.6c-13.6-39.8-49.7-65.4-91.9-65.4c-0.3,0-0.7,0-1,0c-15.5-9.8-33-14.4-49.7-14.4
		c-7,0-14,0.8-21,2.3c-36.2,8-63.9,36.1-76.2,77.1c-11.7,39-10.9,99.3,29.7,140.9c0.7,0.7,1.4,1.4,2.1,2.1
		c17.7,16.9,41.3,26.1,66.2,26.2c0,0,0,0,0,0c17.1,0,33.1-4.3,47.4-10.7c-6.1,25.4-4.3,54.5,5.7,84.8c12.3,37.1,37.3,76.8,71.9,105
		c-16.3-1.4-32.9-2.2-49.7-2.2c-37.8,0-75,3.6-110.7,10.6c-14.8,2.9-28.2,10-38.8,20c-14.1-14.6-33.7-23.7-55.2-24.2l-65.2-1.4
		c-0.6,0-1.2,0-1.7,0c-23.8,0-45.6,10.6-60.2,27.8c-14.6-16.8-36.1-27.2-59.6-27.2c-1.3,0-2.7,0-4,0.1l-111.4,5.6
		c-21.2,1.1-41,10.6-55.1,26.4c-5,5.6-9.1,11.8-12.3,18.5c-11.2-10.8-23.6-20.5-37-29c-34.2-21.8-74.7-33.4-117.1-33.4
		c-65.8,0-130.3,28-172.7,74.8C572,853,552.3,919.4,561.8,988.6c-8.3-2.8-17-4.3-25.7-4.3c-9.8,0-19.7,1.8-29.2,5.6
		c-1.2-33.7-2.9-67.5-4.6-100.2l-0.5-10.6l-0.2-4.4c-0.4-7.7-1.1-22.5-1.8-35.4c-0.4-6.8-0.7-13.2-1.1-17.8
		c-0.2-3.2-0.4-5.8-0.6-7.6c-4.8-47-41.8-72-76.8-73l-87-2.5c-0.8,0-1.5,0-2.3,0c-37.3,0-69.7,26.2-77.4,62.9
		c-16.9,80.7-32.9,201.3-13,317.7c0.3,1.5,0.5,2.9,0.9,4.4c4.8,20.8,13.3,40.4,24.9,57.9c-31.2,22.4-52.8,63.5-64.4,122.7
		c-9.8,49.9-11.3,106.2-4.1,154.5c20.2,135.6,99.8,157.4,133,160.5c1,0.1,2,0.2,3,0.2c3.5,0.2,7,0.3,10.5,0.3
		c98.4,0,187.8-75.2,229.2-145.1c34-57.4,39.3-113.6,15-158.1c-18.3-33.5-47.8-55.4-83.1-62.8c37.1-12.7,72.9-34.9,105.5-65.6
		c15.4,19.4,34.3,36.3,56.4,50.2c32,20,70,30.5,109.8,30.5c39.3,0,79.1-10,115.2-29c46.7-24.5,82.6-61.8,105.3-108.2
		c13.3,28.6,29.4,54.7,49.2,76.9c32.3,36.6,80.3,58.4,128.4,58.4c24.1,0,47.1-5.3,68.2-15.8c0.2-0.1,0.3-0.2,0.5-0.2
		c45.4-22.9,77.9-65,100.8-115c19.9,40.7,48.4,74.1,84.1,98c0.4,0.2,0.7,0.5,1.1,0.7c37.3,24.1,83.3,37.3,129.5,37.3
		c61.6,0,116.3-22.8,153.8-64.2c29.3-32.3,27-82.1-5.2-111.6l-24.5-22.4c18.2-16.2,28.2-40.3,26.2-65.4l-3.6-45.3
		c-0.1-1.3-0.2-2.5-0.4-3.8c19.5-14.7,31.5-38,31.5-63.3l-0.1-60.6c-0.1-28.3-15.2-54-39-68c30.7-10.8,69.1-39.3,92.6-111.3
		C1797,640.4,1838.8,503.9,1763.8,449.1z"/>
	<path class="st4" d="M1747.3,410.8c-20-14.6-43-22.3-66.6-22.3c-31.3,0-60.2,13-83.9,36.7c-5.5-0.9-11.2-1.3-17.1-1.3
		c-6,0-11.9,0.5-17.8,1.5c16.1-31.7,13.4-58,7.3-75.6c-13.6-39.8-49.7-65.4-91.9-65.4c-0.3,0-0.7,0-1,0c-15.5-9.8-33-14.4-49.7-14.4
		c-7,0-14,0.8-21,2.3c-36.2,8-63.9,36.1-76.2,77.1c-11.7,39-10.9,99.3,29.7,140.9c0.7,0.7,1.4,1.4,2.1,2.1
		c17.7,16.9,41.3,26.1,66.2,26.2c0,0,0,0,0,0c17.1,0,33.1-4.3,47.4-10.7c-6.1,25.4-4.3,54.5,5.7,84.8c12.3,37.1,37.3,76.8,71.9,105
		c-16.3-1.4-32.9-2.2-49.7-2.2c-37.8,0-75,3.6-110.7,10.6c-14.8,2.9-28.2,10-38.8,20c-14.1-14.6-33.7-23.7-55.2-24.2l-65.2-1.4
		c-0.6,0-1.2,0-1.7,0c-23.8,0-45.6,10.6-60.2,27.8c-14.6-16.8-36.1-27.2-59.6-27.2c-1.3,0-2.7,0-4,0.1l-111.4,5.6
		c-21.2,1.1-41,10.6-55.1,26.4c-5,5.6-9.1,11.8-12.3,18.5c-11.2-10.8-23.6-20.5-37-29c-34.2-21.8-74.7-33.4-117.1-33.4
		c-65.8,0-130.3,28-172.7,74.8c-46.3,50.8-66.1,117.2-56.5,186.4c-8.3-2.8-17-4.3-25.7-4.3c-9.8,0-19.7,1.8-29.2,5.6
		c-1.2-33.7-2.9-67.5-4.6-100.2l-0.5-10.6l-0.2-4.4c-0.4-7.7-1.1-22.5-1.8-35.4c-0.4-6.8-0.7-13.2-1.1-17.8
		c-0.2-3.2-0.4-5.8-0.6-7.6c-4.8-47-41.8-72-76.8-73l-87-2.5c-0.8,0-1.5,0-2.3,0c-37.3,0-69.7,26.2-77.4,62.9
		c-16.9,80.7-32.9,201.3-13,317.7c0.3,1.5,0.5,2.9,0.9,4.4c4.8,20.8,13.3,40.4,24.9,57.9c-31.2,22.4-52.8,63.5-64.4,122.7
		c-9.8,49.9-11.3,106.2-4.1,154.5c20.2,135.6,99.8,157.4,133,160.5c1,0.1,2,0.2,3,0.2c3.5,0.2,7,0.3,10.5,0.3
		c98.4,0,187.8-75.2,229.2-145.1c34-57.4,39.3-113.6,15-158.1c-18.3-33.5-47.8-55.4-83.1-62.8c37.1-12.7,72.9-34.9,105.5-65.6
		c15.4,19.4,34.3,36.3,56.4,50.2c32,20,70,30.5,109.8,30.5c39.3,0,79.1-10,115.2-29c46.7-24.5,82.6-61.8,105.3-108.2
		c13.3,28.6,29.4,54.7,49.2,76.9c32.3,36.6,80.3,58.4,128.4,58.4c24.1,0,47.1-5.3,68.2-15.8c0.2-0.1,0.3-0.2,0.5-0.2
		c45.4-22.9,77.9-65,100.8-115c19.9,40.7,48.4,74.1,84.1,98c0.4,0.2,0.7,0.5,1.1,0.7c37.3,24.1,83.3,37.3,129.5,37.3
		c61.6,0,116.3-22.8,153.8-64.2c29.3-32.3,27-82.1-5.2-111.6l-24.5-22.4c18.2-16.2,28.2-40.3,26.2-65.4l-3.6-45.3
		c-0.1-1.3-0.2-2.5-0.4-3.8c19.5-14.7,31.5-38,31.5-63.3l-0.1-60.6c-0.1-28.3-15.2-54-39-68c30.7-10.8,69.1-39.3,92.6-111.3
		C1780.5,602.1,1822.3,465.6,1747.3,410.8z"/>
	<g>
		<path class="st5" d="M486.6,1039.6c14.2-5.5,25.5-10.8,33.1-14.5c0.2,0.2,40.4,47.5,40.4,47.5c-45.1,50.9-114.1,93.7-188.1,68.1
			c-34.7-11.2-61.1-40.1-68.8-73.5c-16.7-97.6-5-204.8,12.4-288.1l87,2.5c0.8,0,3.4,58.1,3.7,63.2c1.9,38.1,3.9,76.2,5.2,114.3
			c0.8,23.2-1.5,47.3,0.5,70.2c1,11.5,4.8,18.5,10.4,22.6C436.3,1061.9,454.6,1051.9,486.6,1039.6z"/>
		<path class="st5" d="M928,1005.1c-8.7,52.7-36.9,99.4-87.7,126c-44.7,23.5-102.2,28.9-146.3,1.4c-59.7-37.2-75.5-103-64.5-166
			c-14.9-51-9.1-105.5,30.9-149.4c44.8-49.7,129.4-65.9,188.8-27.8c56.8,35.8,76.7,100.3,80.9,160C931.5,968,931.1,986.6,928,1005.1
			z M810,915.9c-7.6-34.9-21.8-43-27.1-45.5c-12.9-6-27-3.4-28.2-3.2c-14.4,2.9-22.7,11.7-25,14.4l25.8,16.4
			c-14.4,22-20.3,41.8-23,54.5c0,0-10,46.9,9.9,81.2c2.7,4.7,6.4,9.2,12.2,11.5c9.4,3.7,19.4-0.3,22.7-1.7
			C804.4,1032.6,822.1,971.2,810,915.9z"/>
		<path class="st5" d="M1296.5,780.9c12.2,90.5-7.8,312.5-103.5,360.7c-35.1,17.4-78.4,3-102.3-24.2
			c-68.4-76.7-84.4-234.8-90.8-331.7c37.1-1.9,74.3-3.7,111.4-5.6c3,25,8,62.5,15.7,107.9c13.9,82,21.1,123,33.2,123.6
			c13.7,0.7,27.3-50.1,44.4-114.3c13.2-49.3,21.5-90.3,26.5-117.9L1296.5,780.9z"/>
		<path class="st5" d="M1489.3,918.8c41.4-3.7,85.8,0.6,122.8,12l3.6,45.3c-33.3,16.3-76.7,23.7-117.3,21.3
			c4.6,24,8.4,40.4,23.8,57.6c16.2,16.7,47.7,25.3,70.8,18.5l46.5,42.5c-44.2,48.7-128.1,48.3-181.9,13.6
			c-102.5-68.6-95.5-237.4-53.5-336.4l3.6-9.5c74.2-14.7,164.3-12.7,235.1,13.4l0.1,60.6c-45,17.5-101.5,23.9-154.7,19
			C1488.1,890.6,1488.5,904.7,1489.3,918.8z"/>
	</g>
	<path class="st5" d="M1627.4,524.1c-1,2.9-4.7,3.7-6.9,1.5c-11.1-11.5-40.1-36.5-61.9-12.7c-27.6,30,19.5,130.7,83.6,142.8
		c59.2,8.9,88.5-159.1,58.4-181C1672.1,453.9,1642.8,481.5,1627.4,524.1z"/>
	<path class="st5" d="M395,1306.9c0.5,4.8,5.8,7.5,9.9,4.9c21.3-13.3,74.7-40.5,99,3.9c30.7,56.1-78.8,191.5-181,186
		c-93.5-8.7-74.8-275.4-20.9-297.4C353.4,1183.3,387.6,1236.4,395,1306.9z"/>
	<path class="st4" d="M349.6,1469.5c-1.2,0-2.4,0-3.7-0.1c-20.8-1.9-35-22.1-40.1-56.7c-6.8-46,3.5-109.2,26.6-118.7
		c9.1-3.7,16-1.5,20.2,1c17.5,10.4,23.2,46.3,27.3,83.4c1.6-1.3,3.5-2.8,5.5-4.5c15.1-12.4,35.8-29.5,52-26.3
		c5.8,1.1,10.5,4.7,13.6,10.4c7.1,13,3.8,32.3-9.2,52.8C423.1,1440.4,385.8,1469.5,349.6,1469.5z M341.9,1305.2
		c-1.2,0-2.7,0.3-4.5,1c-13.4,5.5-25.3,59.2-18.5,104.5c2.4,16.2,9.3,43.7,28.1,45.5c32.1,1.7,66.5-25.1,83.8-52.5
		c10.2-16.2,13.5-30.9,8.8-39.5c-1.6-2.9-3.3-3.5-4.6-3.8c-10.2-1.9-30.3,14.7-41.2,23.6c-4.6,3.8-8.3,6.8-11,8.5
		c-3,1.9-6.6,2.1-9.8,0.5c-3.2-1.6-5.3-4.6-5.7-8.1l0,0c-2.4-22.8-7.3-70.2-21.5-78.6C344.8,1305.8,343.6,1305.2,341.9,1305.2z
		 M380.4,1383.6L380.4,1383.6L380.4,1383.6z"/>
	<path class="st5" d="M1448.6,374.6c-1.3,0.9-3.1,0.2-3.4-1.4c-1.3-8.2-6.2-27.4-22.5-23.8c-20.6,4.6-30.5,61.2-6.9,85.4
		c22.5,21.4,84.8-41.3,78.5-59.5C1488.4,358.1,1467.8,361.1,1448.6,374.6z"/>
	<path class="st4" d="M757.9,459.5c-1.8,1.2-4.2,0.2-4.6-1.9c-1.8-11.1-8.4-37.3-30.6-32.4c-28.1,6.2-41.5,83.3-9.4,116.2
		c30.6,29.1,115.3-56.1,106.8-80.9C812,437,783.9,441.1,757.9,459.5z"/>
	<circle class="st4" cx="665.5" cy="1322.3" r="28.2"/>
	<circle class="st4" cx="1331.3" cy="590.6" r="13.2"/>
	<circle class="st4" cx="1250.2" cy="267.9" r="24.3"/>
	<circle class="st4" cx="915.1" cy="384" r="10.2"/>
	<circle class="st4" cx="1377.1" cy="1266.3" r="27.8"/>
</g>
</svg>
