<?xml version="1.0" encoding="utf-8"?>
<!-- Generator: Adobe Illustrator 26.1.0, SVG Export Plug-In . SVG Version: 6.00 Build 0)  -->
<svg version="1.1" id="Слой_1" xmlns="http://www.w3.org/2000/svg" xmlns:xlink="http://www.w3.org/1999/xlink" x="0px" y="0px"
	 viewBox="0 0 2000 2000" style="enable-background:new 0 0 2000 2000;" xml:space="preserve">
<style type="text/css">
	.st0{fill:#FFD2BB;}
	.st1{fill:#F3C0A3;}
	.st2{fill:#DB6758;}
	.st3{fill:#F88D7B;}
	.st4{fill:#F35F43;}
	.st5{fill:#C46969;}
	.st6{fill:#EF918F;}
	.st7{fill:#FCF3F0;}
</style>
<g>
	<rect class="st0" width="2000" height="2000"/>
	<path class="st1" d="M1113.3,0c-65.9,103.1-398.5,52.7-410.3,174.5c-15.3,159.4-160.3,229.9-295.2,229.9S212.7,505.5,209.6,646.4
		c-3,136-123,155.5-209.6,151.8V0H1113.3z"/>
	<path class="st1" d="M385.4,1015.8c0,0-157.3-86.3-67.9-279.7s338.7-92.5,338.7-92.5s135.3-333,434.2-252.3
		s248.6,336.2,248.6,336.2s181.7-64.3,281.9,68.7c100.2,132.9-92,300.9-92,300.9s304.2,181.2,149.9,406.7s-402.7,14.6-402.7,14.6
		s-132.3,223.5-325.8,166.5s-179-233.3-260-217.6s-290.3,109-397.8-51.4S266,1071.2,385.4,1015.8z"/>
	<path class="st1" d="M1239,0c0,0-120,84-57.6,244.2S1545.1,347,1545.1,347s-50.2,260.7,136.3,287
		c186.5,26.3,285.7,55.3,318.6,197.4c0-453.3,0-831.4,0-831.4H1239z"/>
	<g>
		<path class="st2" d="M936.1,615.7c0,32.6-7.2,57.3-21.7,74.4c-14.4,17-36.8,25.5-67,25.5c-6.4,0-12.4-0.3-18-0.9
			c-5.6-0.6-11.8-1.3-18.6-2c-6.8-0.7-14.6-1.4-23.5-2c-8.8-0.6-19.5-0.9-32.1-0.9c-16.8,0-28.7-5.5-35.5-16.4
			c-6.8-10.9-10.2-28.6-10.2-52.9c0-9.9,0.6-19.3,1.8-28.1c1.2-8.8,2.6-18,4.2-27.6c1.6-9.6,3.1-19.8,4.4-30.7
			c1.3-10.9,2-23.5,2-37.6c0.3-24.8,3.9-42.6,10.8-53.3c6.9-10.7,18.2-16,33.7-16c7.2,0,15.2,0.7,23.9,2.2
			c8.7,1.5,18.8,2.2,30.3,2.2c14.2,0,28.2,4.3,42.1,12.9c13.9,8.6,26.3,20.3,37.1,35.2c10.8,14.9,19.6,32.3,26.3,52.2
			C932.8,571.5,936.1,592.9,936.1,615.7z M840.7,579.9c0-8.4-0.7-16.7-2.2-24.8c-1.5-8.1-3.4-15.2-5.9-21.4
			c-2.5-6.2-5.5-11.2-8.9-14.9c-3.4-3.7-7.4-5.6-11.9-5.6c-5.6,0-8,4.8-7.1,14.3c0.8,9.6,1.2,23.2,1.2,40.8
			c0,11.4-0.5,22.1-1.6,32.1c-1.1,9.9-1.7,18.6-1.8,26.1c-0.1,7.5,0.9,13.3,3,17.5c2.1,4.2,6.4,6.3,12.7,6.3c8.2,0,14-5.9,17.4-17.7
			C839,620.9,840.7,603.3,840.7,579.9z"/>
		<path class="st2" d="M1241.7,617.2c0,11.4-1.9,22.9-5.6,34.5c-3.7,11.6-9.8,21.9-18.2,31.1c-8.4,9.2-19.3,16.7-32.7,22.4
			c-13.4,5.7-29.8,8.6-49.3,8.6h-38.5c-17.6,0-33.1-2.9-46.3-8.8c-13.2-5.8-24.1-13.4-32.7-22.5c-8.6-9.2-15-19.6-19.2-31.3
			c-4.3-11.7-6.4-23.2-6.4-34.7c0-20.9,3-41.7,9-62.6c6-20.9,14.5-39.7,25.5-56.5c11-16.8,24.1-30.4,39.3-40.8
			c15.2-10.4,32.1-15.7,50.5-15.7c16.6,0,32.4,5.3,47.5,15.8c15.1,10.6,28.3,24.2,39.7,41c11.4,16.8,20.5,35.7,27.3,56.7
			C1238.3,575.4,1241.7,596.3,1241.7,617.2z M1146.3,609.8c0-6.5-0.3-15-1-25.5c-0.7-10.6-2.1-20.9-4.2-31.1
			c-2.1-10.2-5.2-18.9-9-26.3c-3.9-7.3-8.9-11-15-11c-5.9,0-10.6,3.7-14.2,11c-3.6,7.3-6.4,16.1-8.4,26.3c-2,10.2-3.4,20.6-4.2,31.1
			c-0.8,10.6-1.2,19-1.2,25.2c0,11.9,2,20.3,6,25c4,4.7,11.5,7.1,22.5,7.1c11.5,0,19.2-2.4,23.1-7.1
			C1144.3,629.6,1146.3,621.4,1146.3,609.8z"/>
	</g>
	<g>
		<path class="st3" d="M917.3,593.4c0,32.6-7.2,57.3-21.7,74.4c-14.4,17-36.8,25.5-67,25.5c-6.4,0-12.4-0.3-18-0.9
			c-5.6-0.6-11.8-1.3-18.6-2s-14.6-1.4-23.5-2c-8.8-0.6-19.5-0.9-32.1-0.9c-16.8,0-28.7-5.5-35.5-16.4
			c-6.8-10.9-10.2-28.6-10.2-52.9c0-9.9,0.6-19.3,1.8-28.1c1.2-8.8,2.6-18,4.2-27.6c1.6-9.6,3.1-19.8,4.4-30.7
			c1.3-10.9,2-23.5,2-37.6c0.3-24.8,3.9-42.6,10.8-53.3c6.9-10.7,18.2-16,33.7-16c7.2,0,15.2,0.7,23.9,2.2
			c8.7,1.5,18.8,2.2,30.3,2.2c14.2,0,28.2,4.3,42.1,12.9c13.9,8.6,26.3,20.3,37.1,35.2c10.8,14.9,19.6,32.3,26.3,52.2
			C914,549.2,917.3,570.5,917.3,593.4z M821.9,557.6c0-8.4-0.7-16.7-2.2-24.8c-1.5-8.1-3.4-15.2-5.9-21.4
			c-2.5-6.2-5.5-11.2-8.9-14.9c-3.4-3.7-7.4-5.6-11.9-5.6c-5.6,0-8,4.8-7.1,14.3c0.8,9.6,1.2,23.2,1.2,40.8
			c0,11.4-0.5,22.1-1.6,32.1c-1.1,9.9-1.7,18.6-1.8,26.1c-0.1,7.5,0.9,13.3,3,17.5c2.1,4.2,6.4,6.3,12.7,6.3c8.2,0,14-5.9,17.4-17.7
			C820.1,598.5,821.9,581,821.9,557.6z"/>
		<path class="st3" d="M1222.9,594.9c0,11.4-1.9,22.9-5.6,34.5c-3.7,11.6-9.8,21.9-18.2,31.1c-8.4,9.2-19.3,16.7-32.7,22.4
			c-13.4,5.7-29.8,8.6-49.3,8.6h-38.5c-17.6,0-33.1-2.9-46.3-8.8c-13.2-5.8-24.1-13.4-32.7-22.5c-8.6-9.2-15-19.6-19.2-31.3
			c-4.3-11.7-6.4-23.2-6.4-34.7c0-20.9,3-41.7,9-62.6c6-20.9,14.5-39.7,25.5-56.5c11-16.8,24.1-30.4,39.3-40.8
			c15.2-10.4,32.1-15.7,50.5-15.7c16.6,0,32.4,5.3,47.5,15.8c15.1,10.6,28.3,24.2,39.7,41c11.4,16.8,20.5,35.7,27.3,56.7
			C1219.4,553.1,1222.9,574,1222.9,594.9z M1127.4,587.4c0-6.5-0.3-15-1-25.5c-0.7-10.6-2.1-20.9-4.2-31.1
			c-2.1-10.2-5.2-18.9-9-26.3c-3.9-7.3-8.9-11-15-11c-5.9,0-10.6,3.7-14.2,11c-3.6,7.3-6.4,16.1-8.4,26.3c-2,10.2-3.4,20.6-4.2,31.1
			c-0.8,10.6-1.2,19-1.2,25.2c0,11.9,2,20.3,6,25c4,4.7,11.5,7.1,22.5,7.1c11.5,0,19.2-2.4,23.1-7.1
			C1125.5,607.3,1127.4,599.1,1127.4,587.4z"/>
	</g>
	<g>
		<path class="st4" d="M717.3,832.8c0,34.4-0.1,68.7-0.1,103.1c0,2.5-0.1,5.3-2.1,7.1c-2.8,2.6-7.9,1.3-10.3-1.6
			c-2.4-2.9-2.8-6.7-3.1-10.4c-2.6-30.7-5.3-61.6-2.5-92.3c0.4-4.3,1-8.8,4-12.1c3-3.3,9.2-4.4,12.2-1.2
			C717.2,827.3,717.3,830.2,717.3,832.8z M704.4,885c-0.5,0.2-1.1,0.3-1.6,0.5c0.1,1,2.3,0.5,1.9-0.4L704.4,885z M704.4,842.9
			c-0.8,0.4-0.8,1.6,0,2.1C705.2,844.5,705.2,843.3,704.4,842.9L704.4,842.9z M704.4,869.3c-0.8,0.4-0.8,1.6,0,2.1
			C705.2,870.9,705.2,869.7,704.4,869.3L704.4,869.3z M704.9,901.5c0-0.5-0.9-0.5-1,0C704,901.9,704.9,901.9,704.9,901.5
			L704.9,901.5z M706.2,836c0,0.5,0.9,0.5,1,0C707.1,835.6,706.2,835.6,706.2,836L706.2,836z M706.7,877.8c-0.5,0-0.5,0.9,0,0.9
			C707.2,878.7,707.2,877.8,706.7,877.8L706.7,877.8z M709.6,865.6c0,0.5,0.9,0.5,1,0C710.6,865.1,709.6,865.1,709.6,865.6
			L709.6,865.6z M710.6,880.4c0-0.5-0.9-0.5-1,0C709.7,880.8,710.6,880.8,710.6,880.4L710.6,880.4z M710.1,906.3
			c-0.5,0-0.5,0.9,0,0.9C710.6,907.2,710.6,906.3,710.1,906.3L710.1,906.3z M710.1,923.1c0.5,0,0.5-0.9,0-0.9
			C709.6,922.2,709.6,923,710.1,923.1L710.1,923.1z M711.9,857.1c0,0.5,0.9,0.5,1,0C712.9,856.7,711.9,856.7,711.9,857.1
			L711.9,857.1z M711.9,873c0,0.5,0.9,0.5,1,0C712.9,872.5,711.9,872.5,711.9,873L711.9,873z M712.4,929.6c-0.5,0-0.5,0.9,0,0.9
			C712.9,930.4,712.9,929.6,712.4,929.6L712.4,929.6z"/>
		<path class="st4" d="M814.5,822.7c3.8,0.4,7.8,0.9,11.2,3.2c3.3,2.3,5.8,7,4.8,11.4c-1.5,6.6-8.8,7.9-14.6,7.9
			c-8.3,0-16.7,0.1-25,0.1c0.4,28.3,0.8,56.5,1.1,84.8c0.1,5.7-0.7,12.9-5.3,14.7c-3.2,1.2-6.8-1.2-8.6-4.6
			c-1.8-3.4-2.2-7.5-2.6-11.5c-2.5-24.9-4.9-50-3.9-75c0.1-3.6-0.6-8.6-3.7-8.6c-3.8-0.1-7.7-0.3-11.5-0.7c-3.8-0.4-7.8-1-11-3.5
			c-3.2-2.5-5.5-7.2-4.3-11.5c1.4-5.5,7.1-7.4,11.9-8.2C773.4,818.1,794.1,820.4,814.5,822.7z M763.5,829.5c0.5,0,0.5-1.1,0-1.1
			C763.1,828.4,763.1,829.5,763.5,829.5L763.5,829.5z M778.4,839.4c0.6-1.3-1.5-2.6-2.1-1.2C775.7,839.4,777.8,840.7,778.4,839.4
			L778.4,839.4z M780.1,849.2c0.5-0.1,0.4-1.2-0.2-1.4c-0.5-0.2-1.1,0.3-1.5,0.7C778.8,849.1,779.5,849.4,780.1,849.2L780.1,849.2z
			 M780.1,866.1c-0.7,0.5-0.7,2,0,2.6C780.8,868.2,780.8,866.7,780.1,866.1L780.1,866.1z M780.1,918.4c-0.5,0-0.5,1.1,0,1.1
			C780.6,919.5,780.6,918.4,780.1,918.4L780.1,918.4z M785.6,894.8c0.7-0.5,0.7-2,0-2.6C784.9,892.8,784.9,894.3,785.6,894.8
			L785.6,894.8z M786.1,842c0-0.6-0.9-0.6-0.9,0C785.2,842.6,786.1,842.5,786.1,842L786.1,842z M786.3,926.7
			c-0.2-0.6-0.3-1.2-0.5-1.8c-1.1,0.1-0.6,2.7,0.4,2.2L786.3,926.7z M785.6,854.5c-0.5,0-0.5,1.1,0,1.1
			C786.1,855.6,786.1,854.5,785.6,854.5L785.6,854.5z M785.6,875.2c0.5,0,0.5-1.1,0-1.1C785.1,874.1,785.2,875.1,785.6,875.2
			L785.6,875.2z M790.7,828.9c0,0.6,0.9,0.6,0.9,0C791.6,828.4,790.7,828.4,790.7,828.9L790.7,828.9z M792.8,838.1
			c-0.2,0.7,0,1.5,0.5,2c0.3-0.5,0.7-1.1,0.6-1.8C793.8,837.7,792.9,837.5,792.8,838.1L792.8,838.1z M807.7,828.4
			c-0.5,0-0.5,1.1,0,1.1C808.2,829.5,808.1,828.4,807.7,828.4L807.7,828.4z M809.4,839.4c0,0.6,0.9,0.6,0.9,0
			C810.3,838.8,809.4,838.8,809.4,839.4L809.4,839.4z M823.2,828.4c-0.5,0-0.5,1.1,0,1.1C823.6,829.5,823.6,828.4,823.2,828.4
			L823.2,828.4z"/>
		<path class="st4" d="M944.4,842.4c0.8,11.5,1.6,23,2.4,34.5c11.4,0.4,22.8,0.4,34.2,0.2c3.8-0.1,7.8-0.2,11.3,1.3
			c3.5,1.5,6.3,5.1,5.4,8.7c-1.2,4.8-7.5,6.2-12.7,6.7c-11.6,1-23.2,2.1-34.7,3.1c-2.3,0.2-2.9,3.2-2.8,5.4
			c0.3,9.4,0.5,18.7,0.8,28.1c0.1,4.3-0.2,9.5-4.2,11.7c-3.6,2-8.5,0-10.9-3.3c-2.4-3.3-2.9-7.5-3.3-11.4c-2.8-26-5.7-52-5.1-78.2
			c0.1-4.2,0.1-8.8-2.5-12.2c-2.9-3.7-0.6-9.5,3.6-12c4.1-2.5,9.3-2.6,14.2-2.7c16.2-0.1,32.4,0,48.5,0.4c3.1,0.1,6.2,0.2,9.1,1.3
			c2.9,1.1,5.4,3.5,5.7,6.4c0.4,3.3-2.2,6.5-5.3,8c-3.2,1.5-6.8,1.7-10.3,1.9C973.4,840.9,958.9,841.6,944.4,842.4z M931,858.6
			c0.6-0.1,0.4-1-0.2-1.2c-0.6-0.1-1.1,0.2-1.5,0.6C929.7,858.6,930.4,858.8,931,858.6L931,858.6z M931,875c0.6-0.1,0.4-1-0.2-1.2
			c-0.6-0.1-1.1,0.2-1.5,0.6C929.7,874.9,930.4,875.2,931,875L931,875z M929.9,842.2c0.5,0,0.5-0.9,0-0.9
			C929.4,841.3,929.4,842.2,929.9,842.2L929.9,842.2z M936.7,880.5c0.6-0.1,0.4-1-0.2-1.2c-0.6-0.1-1.1,0.2-1.5,0.6
			C935.4,880.4,936.1,880.6,936.7,880.5L936.7,880.5z M936.1,896.3c0-0.5-0.9-0.5-1,0C935.2,896.7,936.1,896.7,936.1,896.3
			L936.1,896.3z M935.7,835.7c-0.6,0.1-0.4,1,0.2,1.2c0.6,0.1,1.1-0.2,1.5-0.6C937,835.8,936.3,835.5,935.7,835.7L935.7,835.7z
			 M939.6,888.6c0.6-1.1-1.5-2.1-2.1-1.1c0.4,0.8,1.3,1.4,2.2,1.5L939.6,888.6z M938.5,843.9c-0.2,0.6,0,1.3,0.5,1.6
			c0.4-0.4,0.7-0.9,0.6-1.5C939.5,843.5,938.6,843.4,938.5,843.9L938.5,843.9z M938.6,860.3c0,0.5,0.9,0.5,1,0
			C939.5,859.8,938.6,859.8,938.6,860.3L938.6,860.3z M939.5,872.3c0-0.5-0.9-0.5-1,0C938.6,872.7,939.5,872.7,939.5,872.3
			L939.5,872.3z M939.5,903.9c0-0.5-0.9-0.5-1,0C938.6,904.4,939.5,904.4,939.5,903.9L939.5,903.9z M939.1,919.8
			c-0.5,0-0.5,0.9,0,0.9C939.5,920.7,939.5,919.8,939.1,919.8L939.1,919.8z M939,829.1c0.5,0,0.5-0.9,0-0.9
			C938.6,828.2,938.6,829.1,939,829.1L939,829.1z M944.8,881.6c-0.5,0-0.5,0.9,0,0.9C945.3,882.5,945.3,881.6,944.8,881.6
			L944.8,881.6z M947.6,832.4c0.3-0.6-1.1-1.2-1.1-0.5c0.7,0.3,1.3,0.9,1.7,1.6C948.8,833.4,948.3,832.1,947.6,832.4L947.6,832.4z
			 M952.8,836.9c-0.5,0-0.5,0.9,0,0.9C953.3,837.8,953.3,836.9,952.8,836.9L952.8,836.9z M955,829.1c0.5,0,0.5-0.9,0-0.9
			C954.6,828.2,954.6,829.1,955,829.1L955,829.1z M955.1,887c-0.6,0.1-0.4,1,0.2,1.2s1.1-0.2,1.5-0.6
			C956.4,887.1,955.7,886.8,955.1,887L955.1,887z M955.7,833c0,0.5,0.9,0.5,1,0C956.7,832.5,955.7,832.5,955.7,833L955.7,833z
			 M961.9,882.7c0.6-0.1,0.4-1-0.2-1.2c-0.6-0.1-1.1,0.2-1.5,0.6C960.5,882.6,961.3,882.8,961.9,882.7L961.9,882.7z M960.8,833.6
			c-0.5,0-0.5,0.9,0,0.9C961.3,834.5,961.3,833.6,960.8,833.6L960.8,833.6z M967.6,888.1c0.6-0.1,0.4-1-0.2-1.2
			c-0.6-0.1-1.1,0.2-1.5,0.6C966.3,888,967,888.3,967.6,888.1L967.6,888.1z M966.5,828.1c-0.6,0.1-0.4,1,0.2,1.2
			c0.6,0.1,1.1-0.2,1.5-0.6C967.9,828.1,967.1,827.9,966.5,828.1L966.5,828.1z M970.5,836.3c-0.1-0.5-1.1-0.4-1.2,0.2
			c-0.1,0.5,0.2,1,0.6,1.5C970.4,837.6,970.7,836.9,970.5,836.3L970.5,836.3z M975.7,830.3c-0.5,0-0.5,0.9,0,0.9
			C976.1,831.2,976.1,830.4,975.7,830.3L975.7,830.3z M983.6,887c-0.8,0.5-0.8,1.7,0,2.2c0.6-0.5,1.1-1.1,1.7-1.6
			C985,887,984.3,886.8,983.6,887L983.6,887z M984.7,827.9c-0.5,0.2-1.1,0.3-1.6,0.5c0.1,1.1,2.3,0.6,1.9-0.4L984.7,827.9z"/>
		<path class="st4" d="M1098.3,921.6c-5.4,9.9-13.7,17.4-23.1,19.3c-13.1,2.7-26.5-5.9-35.4-18.2c-7.7-10.7-12.8-24.3-14.4-38.5
			c-1.3-11.7-0.3-24,3.6-34.8c3.9-10.8,10.8-20,19.5-24.8c9.9-5.5,21.7-4.9,31.5,0.9c9.8,5.8,17.5,16.5,21.8,28.9
			c1.3,3.8,2.3,7.8,3.1,11.9c1.3,7,1.9,14.3,1.7,21.6C1106.2,899.8,1103.7,911.8,1098.3,921.6z M1029.2,862.6c-0.4,0-0.4,0.9,0,0.9
			C1029.5,863.5,1029.5,862.6,1029.2,862.6L1029.2,862.6z M1029.1,879.6c0.4,0,0.4-0.9,0-0.9
			C1028.8,878.7,1028.8,879.6,1029.1,879.6L1029.1,879.6z M1031.3,870.5c-0.1-0.5-0.9-0.2-0.8,0.3c0.3,0,0.5,0,0.8,0.1L1031.3,870.5
			z M1030.9,854c-0.4,0-0.4,0.9,0,0.9C1031.2,854.8,1031.2,854,1030.9,854L1030.9,854z M1034.7,849.3c0.3,0,0.5-0.1,0.8-0.1
			c0.1-0.5-0.6-0.8-0.8-0.3L1034.7,849.3z M1034.7,892.4c0.3,0,0.5-0.1,0.8-0.1c0.1-0.5-0.6-0.8-0.8-0.3L1034.7,892.4z
			 M1035.5,865.1c-0.1-0.5-0.9-0.2-0.8,0.3c0.3,0,0.5,0,0.8,0.1L1035.5,865.1z M1035.5,875.9c-0.1-0.5-0.9-0.2-0.8,0.3
			c0.3,0,0.5,0,0.8,0.1L1035.5,875.9z M1035.2,907.8c-0.4,0-0.4,0.9,0,0.9C1035.5,908.6,1035.5,907.8,1035.2,907.8L1035.2,907.8z
			 M1037.7,898.9c-0.4,0.2-0.8,0.3-1.2,0.5c0.1,1.1,1.7,0.6,1.4-0.4L1037.7,898.9z M1036.7,840.9c-0.2,0.5,0.1,1.1,0.5,1.3
			c0.4,0.1,0.9-0.3,0.9-0.8c-0.4-0.2-0.8-0.3-1.2-0.5L1036.7,840.9z M1069.1,841.6c-2.9-1.9-6.2-3.4-9.5-3c-3,0.4-5.7,2.3-8,4.6
			c-5.8,5.9-9.5,14.8-10.7,24.1c-1.3,9.3-0.2,18.9,2.1,27.8c2.2,8.3,5.7,16.3,11.1,21.9c5.4,5.6,12.8,8.5,19.6,6.1
			c10-3.6,15.5-17.4,16.4-30.3C1091.5,872.6,1083.5,851.1,1069.1,841.6z M1042,905.5c-0.3-0.4-0.6-0.7-0.9-1.1
			c-0.5,0.6-0.6,1.7,0,2.2c0.6,0.4,1.4-0.7,0.9-1.3L1042,905.5z M1042.5,913.6c0.4,0.7,1.3,0.7,1.7,0
			C1043.8,912.9,1042.8,912.9,1042.5,913.6L1042.5,913.6z M1053.6,836.4c0.3,0,0.5,0,0.8-0.1c0.1-0.5-0.6-0.8-0.8-0.3L1053.6,836.4z
			 M1058.4,927c0.4,0,0.4-0.9,0-0.9C1058,926.1,1058,927,1058.4,927L1058.4,927z M1060.1,833.5c-0.4,0-0.4,0.9,0,0.9
			C1060.4,834.4,1060.4,833.5,1060.1,833.5L1060.1,833.5z M1064.8,827.5c-0.2,0.6,0,1.3,0.4,1.6c0.3-0.4,0.6-0.9,0.5-1.5
			C1065.6,827.2,1064.9,827,1064.8,827.5L1064.8,827.5z M1071.2,825.8c0.4,0,0.4-0.9,0-0.9C1070.9,824.9,1070.9,825.8,1071.2,825.8
			L1071.2,825.8z M1082.4,834.5c0.9-0.5,0-2.6-0.8-2C1080.7,832.9,1081.5,835,1082.4,834.5z M1081.3,848.4c-0.2,0.5,0.1,1.1,0.5,1.3
			c0.4,0.1,0.9-0.3,0.9-0.8c-0.4-0.2-0.8-0.3-1.2-0.5L1081.3,848.4z M1082.4,924.9c0.6-0.5,0.6-1.7,0-2.1
			C1081.8,923.2,1081.8,924.4,1082.4,924.9L1082.4,924.9z M1088.4,846.4c-0.4,0-0.4,0.9,0,0.9
			C1088.8,847.3,1088.8,846.4,1088.4,846.4L1088.4,846.4z M1092.7,899.1c-0.6,0.5-0.6,1.7,0,2.1
			C1093.3,900.8,1093.3,899.5,1092.7,899.1L1092.7,899.1z M1094.4,875.5c-0.4,0-0.4,0.9,0,0.9
			C1094.8,876.4,1094.8,875.5,1094.4,875.5L1094.4,875.5z M1094.4,891.6c-0.4,0-0.4,0.9,0,0.9
			C1094.8,892.5,1094.8,891.6,1094.4,891.6L1094.4,891.6z M1094.4,907.8c-0.4,0-0.4,0.9,0,0.9
			C1094.8,908.6,1094.8,907.8,1094.4,907.8L1094.4,907.8z M1094.2,848.4c-0.2,0.5,0.1,1.1,0.5,1.3c0.4,0.1,0.9-0.3,0.9-0.8
			c-0.4-0.2-0.8-0.3-1.2-0.5L1094.2,848.4z M1098.3,870.9c0.3,0,0.5-0.1,0.8-0.1c0.1-0.5-0.6-0.8-0.8-0.3L1098.3,870.9z
			 M1098.3,913.9c0.3,0,0.5-0.1,0.8-0.1c0.1-0.5-0.6-0.8-0.8-0.3L1098.3,913.9z"/>
		<path class="st4" d="M1205.5,838.9c3.9,4.8,7.3,10.7,8,17.5c0.9,9.2-3.5,18.3-9.4,24.2s-13.4,9-20.6,12.1c-3.7,1.6-7.4,3.2-11,4.7
			c11.5,7,23.1,14,34.6,21.1c3.6,2.2,7.7,5.4,7.6,10.3c-0.1,4.2-3.6,7.4-7.1,7.7c-3.5,0.3-6.8-1.3-10-3
			c-13.8-7.2-27.7-14.4-41.5-21.6c0.4,6.7,0.7,13.5,1.1,20.2c0.2,4,0.2,8.8-2.5,11.1c-2.8,2.5-7,0.6-9-2.7c-2-3.4-2.5-7.8-2.9-11.9
			c-2.5-27.1-4.9-54.3-7.4-81.4c-3.6,3-9.5-0.8-9.3-6.1c0.1-4.2,3.1-7.4,5.8-9.9c2.1-2,4.1-3.9,6.2-5.9c1.4-1.3,2.8-2.7,4.5-2.9
			c13.7-2,27.9-3.9,41.2,0.9C1191.9,826,1199.5,831.5,1205.5,838.9z M1138.7,835.1c0.3,0,0.6-0.1,0.8-0.1c0.1-0.5-0.7-0.8-0.8-0.3
			L1138.7,835.1z M1143.1,888.6c0.3,0,0.6-0.1,0.8-0.1c0.1-0.5-0.7-0.8-0.8-0.3L1143.1,888.6z M1143.5,829c-0.4,0-0.4,0.9,0,0.9
			C1143.9,829.9,1143.9,829.1,1143.5,829L1143.5,829z M1143.5,856.7c0.4,0,0.4-0.9,0-0.9C1143.1,855.8,1143.1,856.7,1143.5,856.7
			L1143.5,856.7z M1143.5,872.7c0.4,0,0.4-0.9,0-0.9C1143.1,871.8,1143.1,872.7,1143.5,872.7L1143.5,872.7z M1144.8,880
			c0.3,0,0.6-0.1,0.8-0.1c0.1-0.5-0.7-0.8-0.8-0.3L1144.8,880z M1144.8,922.8c0.3,0,0.6-0.1,0.8-0.1c0.1-0.5-0.7-0.8-0.8-0.3
			L1144.8,922.8z M1150.8,917.8c0.2-0.5-0.1-1.1-0.5-1.3c-0.4-0.1-0.9,0.3-1,0.8c0.4,0.2,0.8,0.3,1.2,0.5L1150.8,917.8z
			 M1149.6,885.6c0.4,0,0.4-0.9,0-0.9C1149.3,884.7,1149.3,885.5,1149.6,885.6L1149.6,885.6z M1197.9,860.8
			c0.6-5.3-3.2-9.7-6.9-12.5c-11-8.3-24.6-11.6-37.4-9c-0.4,0.1-0.8,0.2-1.1,0.5c-0.4,0.5-0.4,1.3-0.3,2c0.9,13.1,1.9,26.3,2.8,39.4
			c0.1,1,0.1,2,0.5,3c12.1-2.3,23.8-6.9,34.7-13.6C1193.6,868.4,1197.4,865.4,1197.9,860.8z M1164.2,901.1c-0.4-0.7-1.4-0.7-1.7,0
			C1162.8,901.8,1163.8,901.8,1164.2,901.1L1164.2,901.1z M1162.5,827.3c0,0.5,0.7,0.5,0.8,0
			C1163.2,826.9,1162.5,826.9,1162.5,827.3L1162.5,827.3z M1169.9,886.7c-0.6,0.4-0.6,1.7,0,2.1
			C1170.5,888.4,1170.5,887.2,1169.9,886.7L1169.9,886.7z M1169.5,903.3c0,0.5,0.7,0.5,0.8,0
			C1170.3,902.8,1169.5,902.8,1169.5,903.3L1169.5,903.3z M1173.2,908c-0.2,0.5,0.1,1.1,0.5,1.3c0.4,0.1,0.9-0.3,1-0.8
			c-0.4-0.2-0.8-0.3-1.2-0.5L1173.2,908z M1174.3,834.4c-0.4,0-0.4,0.9,0,0.9C1174.7,835.3,1174.7,834.4,1174.3,834.4L1174.3,834.4z
			 M1176.4,917.2c0-0.5-0.7-0.5-0.8,0C1175.7,917.6,1176.4,917.6,1176.4,917.2L1176.4,917.2z M1180.5,879.3c-0.4,0-0.4,0.9,0,0.9
			C1180.8,880.2,1180.8,879.3,1180.5,879.3L1180.5,879.3z M1193.7,879.3c-0.4,0-0.4,0.9,0,0.9C1194.1,880.2,1194,879.3,1193.7,879.3
			L1193.7,879.3z M1193.7,923c0.4,0,0.4-0.9,0-0.9C1193.3,922.1,1193.3,923,1193.7,923L1193.7,923z M1199.8,867.4
			c0.6-0.5,0.6-1.7,0-2.1C1199.2,865.8,1199.3,867,1199.8,867.4L1199.8,867.4z M1199.8,850.4c-0.4,0-0.4,0.9,0,0.9
			C1200.2,851.3,1200.2,850.4,1199.8,850.4L1199.8,850.4z M1202.1,922.5c0,0.5,0.7,0.5,0.8,0
			C1202.8,922.1,1202.1,922.1,1202.1,922.5L1202.1,922.5z M1202.5,865.2c0.4,0,0.4-0.9,0-0.9
			C1202.1,864.4,1202.1,865.2,1202.5,865.2L1202.5,865.2z M1205.1,872.8c0.4-0.1,0.3-1-0.1-1.1c-0.4-0.1-0.8,0.2-1.2,0.6
			C1204.1,872.7,1204.6,873,1205.1,872.8L1205.1,872.8z M1205.6,930c-0.4-0.7-1.4-0.7-1.7,0C1204.2,930.7,1205.2,930.7,1205.6,930
			L1205.6,930z M1204.6,856.2c0-0.5-0.7-0.5-0.8,0C1203.9,856.7,1204.6,856.7,1204.6,856.2L1204.6,856.2z M1208.7,866.4
			c-0.4,0.1-0.3,1,0.1,1.1c0.4,0.1,0.8-0.2,1.2-0.6C1209.7,866.4,1209.1,866.2,1208.7,866.4L1208.7,866.4z M1209.5,925.1
			c0.4,0,0.4-0.9,0-0.9C1209.1,924.2,1209.2,925.1,1209.5,925.1L1209.5,925.1z"/>
	</g>
	<g>
		<g>
			<path class="st5" d="M416.3,1068.9c-13.9,28.5-26.7,58.1-37.5,88.2c-8.5,23.7-14.8,48.4-21.7,72.6c-6.6,22.8-12.2,43.6-17.2,62.2
				c-5,18.7-8.8,37.4-11.2,56c-2.4,18.6-2.8,38.3-0.9,58.6c2,22.7,8.7,47.8,17.3,68.7c4,9.7,6.9,17.3,8.6,22.7
				c1.7,5.4,0.3,7.3-4.1,5.9c-11.8-3.7-17.4-5.9-28.1-11c-4.6-2.5-9.9-7.5-15.6-15c-5.7-7.5-13.1-19.2-20.4-36.2
				c-3-6.9-5.4-14.1-7.3-21.8c-1.8-7.7-3.3-15.5-4.5-23.6c-1.1-8.1-2-16.4-2.6-25c-0.6-8.6-1.4-17.2-2.5-25.8
				c-1.4-11.6-4.3-23.2-8.7-34.2c-4.3-11-8.8-24.8-12.5-41.3c-3.7-16.5-5.2-37.5-4.2-61.6c1.1-27.2,13.6-53.8,28.7-76.3
				c11.2-16.7,22.2-29.6,31-38.8c8.7-9.1,15.3-14.7,19.5-17.6c10-6.9,15.4-10.2,26.8-16.3c3.1-1.7,4-0.9,2.5,2.5
				c-1.5,3.4-7.5,12.2-17.1,27.7c-8.8,14.3-16.3,28.8-22.3,42.5c-6,13.7-9.7,25.4-11.8,34.8c-2.1,9.4-2,14.6-2,21.9
				c0,7.3,1.2,10.8,3.4,10.5c2.7-0.4,5.5-5.1,8.8-14.3c3.3-9.2,5.6-15,9.6-25.6c3.9-10.6,8.9-23.1,15.3-37.1
				c6.4-14,13.2-27.2,20-39.1c9.4-16.5,17.4-26.7,22.7-32.2c5.3-5.4,9.3-8.6,12-9.5c11.3-4,17.1-5.7,29.4-8.8
				c5.6-1.4,7.9,1.2,6.8,8.5C425.3,1048.5,421.8,1057.8,416.3,1068.9z"/>
			<path class="st5" d="M610,1347.7c0.4,21.2,0,41.9-0.9,62.2c-1,20.3-3.1,38-6.8,53.6c-3.7,15.6-9.2,28.2-16.8,38.3
				c-7.6,10.1-18.2,16-32.2,17.6c-11,1.3-16.5,1.8-27.3,2.7c-12.4,1-24.6-2.9-36.9-12c-12.3-9.1-23.7-21.5-34-37.4
				c-10.2-15.9-19.1-34.6-25.9-56.3c-6.8-21.8-11.6-44.5-12.8-66.8c-2.4-43.7,0.3-88,8.7-130.3c7.8-39,20.8-74.5,41.1-109.3
				c16.1-27.7,37.7-54.1,63.1-74.6c21.1-17.1,39.1-23.4,54.1-21.4c13.5,1.8,22.6,11.8,26.5,31.3c4.8,24.2,0.6,51.8-1,76.3
				c-2.3,34.7-0.8,69.7-0.6,104.4C608.6,1266.4,609.3,1307.1,610,1347.7z M535,1334.7c-0.2-12.7-0.4-29.7,0-51.2
				c0.4-21.5,1-43.2,1.7-64.7c0.7-21.6,1.1-41.2,0-53.6c-1.1-12.3-3.5-19.4-8.6-19.7c-4.9-0.3-10.8,6.1-15.9,18.2
				c-5.1,12-10.4,31.7-14.4,53.4c-4,21.8-6.7,43.7-8.1,65.6c-1.4,21.9-1.4,38.9-1,51.4c0.7,23.9,3.7,40,7.7,49
				c4,9,10.3,13.3,18.9,13c9-0.3,14.7-4.8,17.1-13.8C534.7,1373.3,535.3,1357.7,535,1334.7z"/>
			<path class="st5" d="M840.9,1273.5c-1.3,28.8-2.8,57.8-5.8,86.5c-2.6,25.1-6.4,45.7-11.9,62.7c-5.5,17.1-12.7,30.4-22.2,41
				c-9.5,10.6-21.8,17.7-37.1,21.6c-34.5,8.8-57.5-14.4-73.4-38.9c-31.6-48.7-32.4-120.5-28.7-179.1c2.3-36.7,6.3-75.7,16.6-112
				c6.1-21.6,15.7-44.5,27.2-63.9c9.1-15.3,17.4-24.9,24.4-30c7-5,13.3-7,19.3-6.2c11.8,1.7,17.8,2.4,29.6,3.9
				c2.2,0.6,3.9,2.5,4.7,5.5c0.8,3,0,7.3-2.5,13.3c-3.2,7.7-7.7,17.3-13.2,29c-5.4,11.7-11.1,24.9-16.2,39
				c-5.1,14.1-8.5,25.1-12.5,44.5c-4,19.4-6.8,40-8.4,61.3c-0.9,12.7-1.4,26.5-1.4,41.3c0,14.8,1,28.1,2.7,40.1
				c1.7,12,4.3,21.6,7.4,29c3.2,7.4,7,10.7,11.5,10.1c4.9-0.7,8.6-5.1,11.4-13.3c2.8-8.2,4.9-18.3,6.5-30.3
				c1.6-12,2.9-24.8,3.9-38.3c1-13.6,2-26.1,2.7-37.5c1.5-23,3.9-46.5,4.7-69c0.5-14.7,2-30.2,3.9-43.4c1.9-13.2,4.3-25.1,6.5-35.1
				c2.2-10,5-18.9,8.1-26.4c2.5-6.2,5.4-10.2,8.2-12.7c2.8-2.5,6.8-3.4,12.2-2.9c8.1,0.8,12.2,1.1,20.4,1.8
				c6.8,0.6,10.1,6.8,10.1,20.6c0,13.7-1.8,31.7-3.7,52.6c-1.8,21-1.6,39.9-2.7,66.8C842.3,1232.3,841.8,1255,840.9,1273.5z"/>
			<path class="st5" d="M1038.8,1395.7c-1.1,8.1-3.2,14.2-6.4,18.9c-3.2,4.7-11.2,7.4-16.2,7.9c-11,1-16.7,1.7-28.7,3.5
				c-6.8,1-10.1-4.6-9.5-19.2c0.4-8.9,0.1-18.5-1-29c-1.1-10.4-2.5-20.5-4.3-29.9c-1.8-9.4-3.7-17.3-5.9-23.5
				c-2.2-6.2-4.2-9.3-6-9.1c-2,0.2-3.7,2.7-5.2,7.4c-1.5,4.7-2.3,10.6-2.6,17.7c-0.7,19.4,0,35.8,1.7,49.4
				c1.7,13.6,2.7,22.3,2.8,27.3c0.1,4.7-0.5,8.3-1.8,10.8c-1.4,2.5-4.2,4.1-8.5,5c-14,2.7-21.2,4.2-36.1,7.5
				c-3.6,0.8-6.9,0.1-9.9-2.3c-3-2.3-5.7-7.4-8.2-15.8c-2.5-8.4-4.7-20.6-6.4-37.6c-2.3-23.5-2.5-47.5-2.1-70.6
				c0.6-29.3,3-59.1,6.8-88.3c3.5-27.3,6.1-49.8,9.2-65.9c4.5-23.5,10.2-48.4,22-70.2c7.2-13.5,15.7-18.9,25.6-18.8
				c4.2,0.1,7.7,0.3,10.5,0.8c2.7,0.5,5.3,0.8,7.7,1.1s4.9,0.7,7.3,1.1c2.5,0.4,5.4,0.6,8.7,0.6c7.2,0.1,13.8-0.2,19.4-1.2
				c5.6-1.1,11.5-1.6,17.8-1.8c7.8-0.2,15.1,0.4,21.9,1.7c6.9,1.3,12.3,3.9,16.4,8.5s6.6,11.3,7.6,20.7c1,9.4-0.3,22.7-3.3,39.1
				c-3,16.8-6,28.9-11.3,41.4c-5.3,12.5-10.5,22.9-15.4,31.2c-4.9,8.2-9.2,15.2-13.1,20.8c-3.8,5.6-6,11.4-6.6,17.1
				c-0.9,8.8,0.2,17.6,3,26.1c2.9,8.6,5.9,18.5,9,29.6c3.1,11.1,7.2,24,10.2,38.3C1041,1360.4,1041.2,1377.5,1038.8,1395.7z
				 M991.6,1159.4c1.2-8.4,1.3-14.7-0.2-18.7c-1.5-3.9-3.2-5.8-5.3-5.8c-2.8,0.1-5.7,1.8-8.6,5.1c-2.9,3.3-5.6,7.3-8,12.1
				c-2.4,4.7-4.5,10-6.1,15.6c-1.6,5.6-2.4,10.6-3.1,17c-2,19.3-0.6,28.7,3.7,28.4c1.9-0.1,4.3-1.9,7.3-5.2
				c2.9-3.3,5.8-7.9,8.7-13.6c2.8-5.7,5.6-13.1,7.6-18.3C989.3,1170.8,990.7,1165.2,991.6,1159.4z"/>
			<path class="st5" d="M1284.7,1321.5c-3.5,19.5-9.4,36-17.4,49.4c-8,13.4-17.2,23.6-27.3,31.3c-10.1,7.7-20.7,12.7-31.6,15.6
				c-10.9,3-21.4,3.7-31.7,2.8c-13-1.2-24-4.1-33-8.7c-9-4.6-16.2-10.3-21.6-17.4c-5.4-7.2-9-15.3-11-24.8
				c-1.9-9.5-2.1-19.3-0.5-29.3c0.5-3.4,1.5-7,2.8-10.9c1.3-3.9,2.7-7.6,4-11.2c4.9-12.3,7.3-18.7,11.9-31.7
				c2.8-7.8,6.1-11.8,9.9-11.9c2.1,0,4.4,4.1,6.8,12.2c2.4,8.1,5.1,17,8.1,26.4c3,9.4,6.6,17.9,10.7,25.7
				c4.1,7.7,9.3,11.6,15.8,11.8c7.9,0.3,14.8-2.3,20.8-8.1c6-5.8,9.8-13.7,11.3-23.8c1.9-12.9,1.2-22.4-1.9-28
				c-3.1-5.6-7.5-10.3-13.1-14c-5.6-3.7-12-7.5-19.1-11.4c-7.1-3.9-13.9-10.9-20.4-21c-9.9-15.2-16.1-30.5-18.6-45.7
				c-2.5-15.2-4-27.7-3.5-39.4c0.4-8.1,2.2-17.6,5.1-28c2.9-10.4,7.6-20.1,13.5-29c6-8.9,13.7-15.8,22.2-22.3
				c8.5-6.5,19.5-10.5,33.2-12.6c7.5-1.2,16-1.4,25.2-0.5c9.2,0.9,17.9,2.9,25.5,5.6c7.6,2.7,14,6.3,19.1,10.8
				c5.1,4.5,7.8,9.7,8,15.5c0.1,2.6-0.2,5.4-0.9,8.6c-0.7,3.2-1.5,6.3-2.2,9.4c-4.4,15.2-6.9,23.1-11.5,38.2c-0.8,2.1-1.9,4-3.3,5.7
				c-1.4,1.8-2.8,2.7-4.3,2.8c-3,0.2-6.2-1.4-9.4-4.9c-3.2-3.5-6.6-7.4-10.1-11.6c-3.5-4.2-7.3-8-11.3-11.3c-4-3.3-8.6-4.7-12.8-4.2
				c-5.3,0.5-9.7,3.4-13.3,8.6c-3.6,5.2-5.5,11.8-5.5,19.7c0,9.7,3.2,17.3,9.1,23.8c5.9,6.6,16.9,14.1,32.6,23
				C1286.4,1231.6,1291.8,1281.5,1284.7,1321.5z"/>
			<path class="st5" d="M1398.7,1464.6c-8.2-1.5-15.4-3.2-21.6-5.2c-6.2-2-12.2-3.9-17.9-5.7c-5.7-1.8-11.3-3.6-16.9-5.4
				c-5.5-1.8-11.7-3.2-18.6-4.2c-4.4-0.7-6.2-5.5-6-15.1c0.3-9.6,1.7-21.7,3.9-37.1c2.3-15.4,4.8-32.6,7.6-51.8
				c2.7-19.2,5.1-37.6,7.1-54.4c4.5-37.6,8.2-75.5,11.1-113.3c2.2-28.1,3.9-56.5,8-84.4c3.3-23.2,7.5-40.8,12.9-53.4
				c5.5-12.6,12.4-19.5,22.2-21.1c25.7-4.1,51.5-8.2,77.4-11.2c5.4-0.6,9.5-0.3,12.3,1.1c2.7,1.4,4.8,5.2,6.2,12.1
				c0.2,0.8,0.4,1.9,0.6,3.5c0.2,1.5,0.5,3.7,0.9,6.5c0.7,23.9-0.4,48.4-2.5,72.3c-0.6,7.5-1.9,12.7-3.7,15.4
				c-1.9,2.7-4.3,4.2-7.2,4.3c-1.2,0.1-3.1-1.7-5.8-5.3c-2.7-3.6-5.8-7.7-9.3-12.2c-3.5-4.5-7.3-8.5-11.3-11.8
				c-4-3.3-7.9-4.8-11.6-4.5c-4.1,0.4-7.5,2.6-10.3,6.6c-2.7,4-4.9,9-6.6,14.8c-1.7,5.8-2.9,12-3.7,18.3c-0.7,6.4-1,11.9-0.8,16.4
				c0.3,7.1,1.1,11.8,2.8,12.9c1.7,1.1,3.6,1.6,5.6,1.5c4.9-0.2,9.9-2.4,14.9-6.6c5.1-4.2,10.5-6.3,16.5-6.5c2.4-0.1,4.9,0,7.6,0.4
				c2.7,0.3,5.2,1.2,7.5,2.6c2.3,1.4,4.2,3.5,5.9,6.3c1.6,2.8,2.4,6.9,2.4,12.2c0,4.3-0.6,11.1-2,20.3c-3.8,23.2-8.5,46.4-14.1,69.2
				c-3.4,14.8-6.9,21.9-10.1,21.8c-2.2-0.1-4.4-2.8-6.7-8c-2.3-5.3-5.7-7.9-10.2-8.1c-7.8-0.2-14.6,5.3-20.4,16.2
				c-5.9,10.9-9.9,24.7-12.6,41.1c-3.5,21.3-4.5,37.4-2.3,49.1c2.1,11.7,6.9,17.9,14.6,18.7c5.2,0.6,10.2-1.1,14.9-5.2
				c4.7-4,9.2-8.7,13.3-14.1c4.1-5.4,7.9-10.3,11.5-14.8c3.5-4.5,6.8-6.6,9.9-6.3c2.5,0.2,3.8,5,3.5,14
				c-2.7,28.7-6.4,55.9-11.9,84.2c-0.8,3.5-3.1,7-6.7,10.3c-3.7,3.4-8.2,6.3-13.7,8.8c-5.5,2.5-11.4,4.2-17.7,5.1
				C1411.2,1465.9,1404.9,1465.7,1398.7,1464.6z"/>
			<path class="st5" d="M1644.5,1363.3c-4.9,31.7-12.3,63-22.9,93.3c-2.7,8.8-6.3,17.5-10.8,25.9c-2.9,5.4-6.2,9.3-9.9,12
				c-3.7,2.7-6.8,3.8-9.4,3.4c-6-0.8-11.1-2.2-15.2-4.2c-4.1-2-8.2-4.1-12.1-6.3c-4-2.2-8.1-4.4-12.5-6.5c-4.4-2.1-9.9-3.7-16.4-4.7
				c-5.3-0.9-10.8-1.1-16.5-0.9c-5.7,0.3-10.6,0-14.8-0.7c-6.5-1.1-9.1-7-8.5-18.3c0.6-11.4,6.1-29.8,14.5-58.1
				c5.7-19.1,10.5-37.5,14.7-54.6c4.2-17,8-34.4,11.2-51.9s6.1-36.2,8.2-55.9c2.1-19.7,3.4-42.4,3.3-67.7
				c-0.1-20.8-0.4-41.4-0.5-62.4c-0.1-21-0.2-40-0.2-56.6c0-16.6,0.2-29.6,1.1-39.4c0.9-9.8,2.5-14.9,6.3-14.9
				c9.6,0,14.4,0,23.7,0.4c5.2,0.2,9.5,2.2,12.8,5.9c3.4,3.7,6.1,9.2,8.6,17.7c2.3,7.7,3.9,17.2,4.4,28.6
				c0.6,11.4,1.4,27.3,1.7,47.9c0.4,27.5,0.2,55-0.9,82.3c-1.8,43.9-6.4,88.4-13,131.8c-3.6,24.1-6.9,44.5-8.5,61.2
				c-1.6,16.7-0.5,25,4.1,25.6c3.9,0.5,8.4-1.9,13.6-7.5c5.1-5.5,10.2-11.8,15.1-18.7c4.9-6.9,9.4-13.4,13.6-19.3
				c4.2-5.9,7.6-8.7,10.4-8.4c2.8,0.4,4.5,2.9,5,7.4C1645.2,1354.4,1645.2,1358.9,1644.5,1363.3z"/>
			<path class="st5" d="M1776.3,1081.1c12.1,18,16.7,28.9,23.1,52.5c1.4,5.1,1.7,8.2,1,9.3c-0.7,1.1-1.7,1.4-3.1,0.9
				c-1.6-0.6-4-2.7-7.2-6.3c-3.2-3.6-6.7-7.6-10.5-11.8c-3.8-4.2-7.6-8.3-11.4-12.2c-3.8-3.9-7-6.4-9.6-7.3c-2.7-1-4.4,0.4-5.1,4.2
				c-0.7,3.8-0.8,8.8-0.4,15.1c0.4,6.3,1,13,1.8,20.1c0.8,7.1,1.5,13.2,2.3,18.3c0.7,4.6,2.2,9.7,4.3,15.1c2.2,5.5,4.3,8.4,6.5,8.7
				c2.4,0.4,4.9,0.2,7.5-0.4c2.6-0.7,5.3-1.2,8-1.6c2.7-0.4,5.2-0.8,7.5-1.2c2.3-0.4,4.2-0.5,5.8-0.2c4.2,0.8,7.4,4.3,9.5,10.3
				c2.1,6,3.3,12.9,3.2,21c0,28.8-3.1,57.6-8.8,85.9c-1.8,8.9-4.4,13.6-7.4,14c-1.4,0.2-3.1-2-5.3-6.7c-2.2-4.7-4.9-7-8.2-6.8
				c-7.3,0.4-12.8,5.8-16.8,16.6c-4,10.7-7.5,25.3-11.5,43.2c-2.4,11-4.8,22.3-7.1,33.7c-2.4,11.4-4.9,21.9-7.5,31.5
				c-2.6,9.6-5.3,18-8.1,25.5c-2.7,7.5-5.6,13.4-8.3,18c-2.3,3.9-4.9,7.5-8,10.9c-3,3.4-5.9,5.5-8.6,6.4c-18,5.7-27.6,7.4-48.3,7.4
				c-2.8,0-3.8-2.6-3.2-8c0.6-5.4,2.2-12.6,4.7-21.8c2.5-9.2,5.6-19.9,9.2-32.2c3.5-12.3,7.3-25,11.1-37.9
				c13.1-43.8,20.8-89.8,24.8-135.4c2.5-27.9,3.3-56,2.6-84c-0.5-21.3-2.1-37.8-3.5-50.9c-1.4-13-3.8-27.3-7.5-42.5
				c-5.8-24.1-10.9-42.5-14.1-55.9c-3.2-13.4-2.7-19,5.2-15.7c13.4,5.7,26.1,13.4,38.5,22.6c12.5,9.2,24.2,18.2,35,27.6
				c2.1,1.8,5.3,5.2,8.7,9C1770.7,1073.6,1773.8,1077.3,1776.3,1081.1z"/>
		</g>
	</g>
	<g>
		<g>
			<path class="st6" d="M400.3,1040.3c-13.9,28.5-26.7,58.1-37.5,88.2c-8.5,23.7-14.8,48.4-21.7,72.6c-6.6,22.8-12.2,43.6-17.2,62.2
				c-5,18.7-8.8,37.4-11.2,56c-2.4,18.6-2.8,38.3-0.9,58.6c2,22.7,8.7,47.8,17.3,68.7c4,9.7,6.9,17.3,8.6,22.7
				c1.7,5.4,0.3,7.3-4.1,5.9c-11.8-3.7-17.4-5.9-28.1-11c-4.6-2.5-9.9-7.5-15.6-15c-5.7-7.5-13.1-19.2-20.4-36.2
				c-3-6.9-5.4-14.1-7.3-21.8c-1.8-7.7-3.3-15.5-4.5-23.6c-1.1-8.1-2-16.4-2.6-25c-0.6-8.6-1.4-17.2-2.5-25.8
				c-1.4-11.6-4.3-23.2-8.7-34.2c-4.3-11-8.8-24.8-12.5-41.3c-3.7-16.5-5.2-37.5-4.2-61.6c1.1-27.2,13.6-53.8,28.7-76.3
				c11.2-16.7,22.2-29.6,31-38.8c8.7-9.1,15.3-14.7,19.5-17.6c10-6.9,15.4-10.2,26.8-16.3c3.1-1.7,4-0.9,2.5,2.5
				c-1.5,3.4-7.5,12.2-17.1,27.7c-8.8,14.3-16.3,28.8-22.3,42.5c-6,13.7-9.7,25.4-11.8,34.8c-2.1,9.4-2,14.6-2,21.9
				c0,7.3,1.2,10.8,3.4,10.5c2.7-0.4,5.5-5.1,8.8-14.3c3.3-9.2,5.6-14.9,9.6-25.6c3.9-10.6,8.9-23.1,15.3-37.1
				c6.4-14,13.2-27.2,20-39.1c9.4-16.5,17.4-26.7,22.7-32.2c5.3-5.4,9.3-8.6,12-9.5c11.3-4,17.1-5.7,29.4-8.8
				c5.6-1.4,7.9,1.2,6.8,8.5C409.3,1019.8,405.7,1029.2,400.3,1040.3z"/>
			<path class="st6" d="M594,1319.1c0.4,21.2,0,41.9-0.9,62.2c-1,20.3-3.1,38-6.8,53.6c-3.7,15.6-9.2,28.2-16.8,38.3
				c-7.6,10.1-18.2,16-32.2,17.6c-11,1.3-16.5,1.8-27.3,2.7c-12.4,1-24.6-2.9-36.9-12c-12.3-9.1-23.7-21.5-34-37.4
				c-10.2-15.9-19.1-34.6-25.9-56.3c-6.8-21.8-11.6-44.5-12.8-66.8c-2.4-43.7,0.3-88,8.7-130.3c7.8-39,20.8-74.5,41.1-109.3
				c16.1-27.7,37.7-54.1,63.1-74.6c21.1-17.1,39.1-23.4,54.1-21.4c13.5,1.8,22.6,11.8,26.5,31.3c4.8,24.2,0.6,51.8-1,76.3
				c-2.3,34.7-0.8,69.7-0.6,104.4C592.5,1237.7,593.3,1278.5,594,1319.1z M519,1306.1c-0.2-12.7-0.4-29.7,0-51.2
				c0.4-21.5,1-43.2,1.7-64.7c0.7-21.6,1.1-41.2,0-53.6c-1.1-12.3-3.5-19.4-8.6-19.7c-4.9-0.3-10.8,6.1-15.9,18.2
				c-5.1,12-10.4,31.7-14.4,53.4c-4,21.8-6.7,43.7-8.1,65.6c-1.4,21.9-1.4,38.9-1,51.4c0.7,23.9,3.7,40,7.7,49
				c4,9,10.3,13.3,18.9,13c9-0.3,14.7-4.8,17.1-13.8C518.7,1344.7,519.2,1329.1,519,1306.1z"/>
			<path class="st6" d="M824.9,1244.9c-1.3,28.8-2.8,57.8-5.8,86.5c-2.6,25.1-6.4,45.7-11.9,62.7c-5.5,17.1-12.7,30.4-22.2,41
				c-9.5,10.6-21.8,17.7-37.1,21.6c-34.5,8.8-57.5-14.4-73.4-38.9c-31.6-48.7-32.4-120.5-28.7-179.1c2.3-36.7,6.3-75.7,16.6-112
				c6.1-21.6,15.7-44.5,27.2-63.9c9.1-15.3,17.4-24.9,24.4-30c7-5,13.3-7,19.3-6.2c11.8,1.7,17.8,2.4,29.6,3.9
				c2.2,0.6,3.9,2.5,4.7,5.5c0.8,3,0,7.3-2.5,13.3c-3.2,7.7-7.7,17.3-13.2,29c-5.4,11.7-11.1,24.9-16.2,39
				c-5.1,14.1-8.5,25.1-12.5,44.5c-4,19.4-6.8,40-8.4,61.3c-0.9,12.7-1.4,26.5-1.4,41.3c0,14.8,1,28.1,2.7,40.1
				c1.7,12,4.3,21.6,7.4,29c3.2,7.4,7,10.7,11.5,10.1c4.9-0.7,8.6-5.1,11.4-13.3c2.8-8.2,4.9-18.3,6.5-30.3
				c1.6-12,2.9-24.8,3.9-38.3c1-13.6,2-26.1,2.7-37.5c1.5-23,3.9-46.5,4.7-69c0.5-14.7,2-30.2,3.9-43.4c1.9-13.2,4.3-25.1,6.5-35.1
				c2.2-10,5-18.9,8.1-26.4c2.5-6.2,5.4-10.2,8.2-12.7c2.8-2.5,6.8-3.4,12.2-2.9c8.1,0.8,12.2,1.1,20.4,1.8
				c6.8,0.6,10.1,6.8,10.1,20.6c0,13.7-1.8,31.7-3.7,52.6c-1.8,21-1.6,39.9-2.7,66.8C826.2,1203.7,825.7,1226.4,824.9,1244.9z"/>
			<path class="st6" d="M1022.8,1367c-1.1,8.1-3.2,14.2-6.4,18.9c-3.2,4.7-11.2,7.4-16.2,7.9c-11,1-16.7,1.7-28.7,3.5
				c-6.8,1-10.1-4.6-9.5-19.2c0.4-8.9,0.1-18.5-1-29c-1.1-10.4-2.5-20.5-4.3-29.9c-1.8-9.4-3.7-17.3-5.9-23.5
				c-2.2-6.2-4.2-9.3-6-9.1c-2,0.2-3.7,2.7-5.2,7.4c-1.5,4.7-2.3,10.6-2.6,17.7c-0.7,19.4,0,35.8,1.7,49.4
				c1.7,13.6,2.7,22.3,2.8,27.3c0.1,4.7-0.5,8.3-1.8,10.8c-1.4,2.5-4.2,4.1-8.5,5c-14,2.7-21.2,4.2-36.1,7.5
				c-3.6,0.8-6.9,0.1-9.9-2.3c-3-2.3-5.7-7.4-8.2-15.8c-2.5-8.4-4.7-20.6-6.4-37.6c-2.3-23.5-2.5-47.5-2.1-70.6
				c0.6-29.3,3-59.1,6.8-88.3c3.5-27.3,6.1-49.8,9.2-65.9c4.5-23.5,10.2-48.4,22-70.2c7.2-13.5,15.7-18.9,25.6-18.8
				c4.2,0.1,7.7,0.3,10.5,0.8c2.7,0.5,5.3,0.8,7.7,1.1c2.4,0.3,4.9,0.7,7.3,1.1c2.5,0.4,5.4,0.6,8.7,0.6c7.2,0.1,13.8-0.2,19.4-1.2
				c5.6-1.1,11.5-1.6,17.8-1.8c7.8-0.2,15.1,0.4,21.9,1.7c6.9,1.3,12.3,3.9,16.4,8.5c4.1,4.6,6.6,11.3,7.6,20.7
				c1,9.4-0.3,22.7-3.3,39.1c-3,16.8-6,28.9-11.3,41.4c-5.3,12.5-10.5,22.9-15.4,31.2c-4.9,8.2-9.2,15.2-13.1,20.8
				c-3.8,5.6-6,11.4-6.6,17.1c-0.9,8.8,0.2,17.6,3,26.1c2.9,8.6,5.9,18.5,9,29.6c3.1,11.1,7.2,24,10.2,38.3
				C1025,1331.7,1025.2,1348.9,1022.8,1367z M975.5,1130.8c1.2-8.4,1.3-14.7-0.2-18.7c-1.5-3.9-3.2-5.8-5.3-5.8
				c-2.8,0.1-5.7,1.8-8.6,5.1c-2.9,3.3-5.6,7.3-8,12.1c-2.4,4.7-4.5,10-6.1,15.6c-1.6,5.6-2.4,10.6-3.1,17
				c-2,19.3-0.6,28.7,3.7,28.4c1.9-0.1,4.3-1.9,7.3-5.2c2.9-3.3,5.8-7.9,8.7-13.6c2.8-5.7,5.6-13.1,7.6-18.3
				C973.3,1142.2,974.7,1136.6,975.5,1130.8z"/>
			<path class="st6" d="M1268.6,1292.9c-3.5,19.5-9.4,36-17.4,49.4c-8,13.4-17.2,23.6-27.3,31.3c-10.1,7.7-20.7,12.7-31.6,15.6
				c-10.9,3-21.4,3.7-31.7,2.8c-13-1.2-24-4.1-33-8.7c-9-4.6-16.2-10.3-21.6-17.4c-5.4-7.2-9-15.3-11-24.8
				c-1.9-9.5-2.1-19.3-0.5-29.3c0.5-3.4,1.5-7,2.8-10.9c1.3-3.9,2.7-7.6,4-11.2c4.9-12.3,7.3-18.7,11.9-31.7
				c2.8-7.8,6.1-11.8,9.9-11.9c2.1,0,4.4,4.1,6.8,12.2c2.4,8.1,5.1,17,8.1,26.4c3,9.4,6.6,17.9,10.7,25.7
				c4.1,7.7,9.3,11.6,15.8,11.8c7.9,0.3,14.8-2.3,20.8-8.1c6-5.8,9.8-13.7,11.3-23.8c1.9-12.9,1.2-22.4-1.9-28
				c-3.1-5.6-7.5-10.3-13.1-14c-5.6-3.7-12-7.5-19.1-11.4c-7.1-3.9-13.9-10.9-20.4-21c-9.9-15.2-16.1-30.5-18.6-45.7
				c-2.5-15.2-4-27.7-3.5-39.4c0.4-8.1,2.2-17.6,5.1-28c2.9-10.4,7.6-20.1,13.5-29c6-8.9,13.7-15.8,22.2-22.3
				c8.5-6.5,19.5-10.5,33.2-12.6c7.5-1.2,16-1.4,25.2-0.5c9.2,0.9,17.9,2.9,25.5,5.6c7.6,2.7,14,6.3,19.1,10.8
				c5.1,4.5,7.8,9.7,8,15.5c0.1,2.6-0.2,5.4-0.9,8.6c-0.7,3.2-1.5,6.3-2.2,9.4c-4.4,15.2-6.9,23.1-11.5,38.2c-0.8,2.1-1.9,4-3.3,5.7
				c-1.4,1.8-2.8,2.7-4.3,2.8c-3,0.2-6.2-1.4-9.4-4.9c-3.2-3.5-6.6-7.4-10.1-11.6c-3.5-4.2-7.3-8-11.3-11.3c-4-3.3-8.6-4.7-12.8-4.2
				c-5.3,0.5-9.7,3.4-13.3,8.6c-3.6,5.2-5.5,11.8-5.5,19.7c0,9.7,3.2,17.3,9.1,23.8c5.9,6.6,16.9,14.1,32.6,23
				C1270.3,1203,1275.8,1252.9,1268.6,1292.9z"/>
			<path class="st6" d="M1382.7,1436c-8.2-1.5-15.4-3.2-21.6-5.2c-6.2-2-12.2-3.9-17.9-5.7c-5.7-1.8-11.3-3.6-16.9-5.4
				c-5.5-1.8-11.7-3.2-18.6-4.2c-4.4-0.7-6.2-5.5-6-15.1c0.3-9.6,1.7-21.7,3.9-37.1c2.3-15.4,4.8-32.6,7.6-51.8
				c2.7-19.2,5.1-37.6,7.1-54.4c4.5-37.6,8.2-75.5,11.1-113.3c2.2-28.1,3.9-56.5,8-84.4c3.3-23.2,7.5-40.8,12.9-53.4
				c5.5-12.6,12.4-19.5,22.2-21.1c25.7-4.1,51.5-8.2,77.4-11.2c5.4-0.6,9.5-0.3,12.3,1.1c2.7,1.4,4.8,5.2,6.2,12.1
				c0.2,0.8,0.4,1.9,0.6,3.5c0.2,1.5,0.5,3.7,0.9,6.5c0.7,23.9-0.4,48.4-2.5,72.3c-0.6,7.5-1.9,12.7-3.7,15.4
				c-1.9,2.7-4.3,4.2-7.2,4.3c-1.2,0.1-3.1-1.7-5.8-5.3c-2.7-3.6-5.8-7.7-9.3-12.2c-3.5-4.5-7.3-8.5-11.3-11.8
				c-4-3.3-7.9-4.8-11.6-4.5c-4.1,0.4-7.5,2.6-10.3,6.6c-2.7,4-4.9,9-6.6,14.8c-1.7,5.8-2.9,12-3.7,18.3c-0.7,6.4-1,11.9-0.8,16.4
				c0.3,7.1,1.1,11.8,2.8,12.9c1.7,1.1,3.6,1.6,5.6,1.5c4.9-0.2,9.9-2.4,14.9-6.6c5.1-4.2,10.5-6.3,16.5-6.5c2.4-0.1,4.9,0,7.6,0.4
				c2.7,0.3,5.2,1.2,7.5,2.6c2.3,1.4,4.2,3.5,5.9,6.3c1.6,2.8,2.4,6.9,2.4,12.2c0,4.3-0.6,11.1-2,20.3c-3.8,23.2-8.5,46.4-14.1,69.2
				c-3.4,14.8-6.9,21.9-10.1,21.8c-2.2-0.1-4.4-2.8-6.7-8c-2.3-5.3-5.7-7.9-10.2-8.1c-7.8-0.2-14.6,5.3-20.4,16.2
				c-5.9,10.9-9.9,24.7-12.6,41.1c-3.5,21.3-4.5,37.4-2.3,49.1c2.1,11.7,6.9,17.9,14.6,18.7c5.2,0.6,10.2-1.1,14.9-5.2
				c4.7-4,9.2-8.7,13.3-14.1c4.1-5.4,7.9-10.3,11.5-14.8c3.5-4.5,6.8-6.6,9.9-6.3c2.5,0.2,3.8,5,3.5,14
				c-2.7,28.7-6.4,55.9-11.9,84.2c-0.8,3.5-3.1,7-6.7,10.3c-3.7,3.4-8.2,6.3-13.7,8.8c-5.5,2.5-11.4,4.2-17.7,5.1
				C1395.1,1437.2,1388.9,1437.1,1382.7,1436z"/>
			<path class="st6" d="M1628.5,1334.6c-4.9,31.7-12.3,63-22.9,93.3c-2.7,8.8-6.3,17.5-10.8,25.9c-2.9,5.4-6.2,9.3-9.9,12
				c-3.7,2.7-6.8,3.8-9.4,3.4c-6-0.8-11.1-2.2-15.2-4.2c-4.1-2-8.2-4.1-12.1-6.3c-4-2.2-8.1-4.4-12.5-6.5c-4.4-2.1-9.9-3.7-16.4-4.7
				c-5.3-0.9-10.8-1.1-16.5-0.9c-5.7,0.3-10.6,0-14.8-0.7c-6.5-1.1-9.1-7-8.5-18.3c0.6-11.4,6.1-29.8,14.5-58.1
				c5.7-19.1,10.5-37.5,14.7-54.6c4.2-17,8-34.4,11.2-51.9s6.1-36.2,8.2-55.9c2.1-19.7,3.4-42.4,3.3-67.7
				c-0.1-20.8-0.4-41.4-0.5-62.4c-0.1-21-0.2-40-0.2-56.6c0-16.6,0.2-29.6,1.1-39.4c0.9-9.8,2.5-14.9,6.3-14.9
				c9.6,0,14.4,0,23.7,0.4c5.2,0.2,9.5,2.2,12.8,5.9c3.4,3.7,6.1,9.2,8.6,17.7c2.3,7.7,3.9,17.2,4.4,28.6
				c0.6,11.4,1.4,27.3,1.7,47.9c0.4,27.5,0.2,55-0.9,82.3c-1.8,43.9-6.4,88.4-13,131.8c-3.6,24.1-6.9,44.5-8.5,61.2
				c-1.6,16.7-0.5,25,4.1,25.6c3.9,0.5,8.4-1.9,13.6-7.5c5.1-5.5,10.2-11.8,15.1-18.7c4.9-6.9,9.4-13.4,13.6-19.3
				c4.2-5.9,7.6-8.7,10.4-8.4c2.8,0.4,4.5,2.9,5,7.4C1629.2,1325.8,1629.1,1330.3,1628.5,1334.6z"/>
			<path class="st6" d="M1760.3,1052.5c12.1,18,16.7,28.9,23.1,52.5c1.4,5.1,1.7,8.2,1,9.3c-0.7,1.1-1.7,1.4-3.1,0.9
				c-1.6-0.6-4-2.7-7.2-6.3c-3.2-3.6-6.7-7.6-10.5-11.8c-3.8-4.2-7.6-8.3-11.4-12.2c-3.8-3.9-7-6.4-9.6-7.3c-2.7-1-4.4,0.4-5.1,4.2
				c-0.7,3.8-0.8,8.8-0.4,15.1c0.4,6.3,1,13,1.8,20.1c0.8,7.1,1.5,13.2,2.3,18.3c0.7,4.6,2.2,9.7,4.3,15.1c2.2,5.5,4.3,8.4,6.5,8.7
				c2.4,0.4,4.9,0.2,7.5-0.4c2.6-0.7,5.3-1.2,8-1.6c2.7-0.4,5.2-0.8,7.5-1.2c2.3-0.4,4.2-0.5,5.8-0.2c4.2,0.8,7.4,4.3,9.5,10.3
				s3.3,12.9,3.2,21c0,28.8-3.1,57.6-8.8,85.9c-1.8,8.9-4.4,13.6-7.4,14c-1.4,0.2-3.1-2-5.3-6.7c-2.2-4.7-4.9-7-8.2-6.8
				c-7.3,0.4-12.8,5.8-16.8,16.6c-4,10.7-7.5,25.3-11.5,43.2c-2.4,11-4.8,22.3-7.1,33.7c-2.4,11.4-4.9,21.9-7.5,31.5
				c-2.6,9.6-5.3,18-8.1,25.5c-2.7,7.5-5.6,13.4-8.3,18c-2.3,3.9-4.9,7.5-8,10.9c-3,3.4-5.9,5.5-8.6,6.4c-18,5.7-27.6,7.4-48.3,7.4
				c-2.8,0-3.8-2.6-3.2-8c0.6-5.4,2.2-12.6,4.7-21.8c2.5-9.2,5.6-19.9,9.2-32.2c3.5-12.3,7.3-25,11.1-37.9
				c13.1-43.8,20.8-89.8,24.8-135.4c2.5-27.9,3.3-56,2.6-84c-0.5-21.3-2.1-37.8-3.5-50.9c-1.4-13-3.8-27.3-7.5-42.5
				c-5.8-24.1-10.9-42.5-14.1-55.9c-3.2-13.4-2.7-19,5.2-15.7c13.4,5.7,26.1,13.4,38.5,22.6c12.5,9.2,24.2,18.2,35,27.6
				c2.1,1.8,5.3,5.2,8.7,9C1754.7,1045,1757.7,1048.7,1760.3,1052.5z"/>
		</g>
	</g>
	<path class="st1" d="M1024.8,2000H0v-555.7c0,0,205-61.5,251.7,146.5c43.5,208,197.1,195.2,267.5,176
		c70.4-19.2,252.4-76.8,343.8,86.4C904.7,1927.8,968.2,1973,1024.8,2000z"/>
	<path class="st1" d="M1222.9,2000c0,0,15-252.7,223.7-232.8c208.7,19.9,357.8-12.4,402.5-121.7s105.7-203,151-209.6
		c0,212.1,0,564.2,0,564.2H1222.9z"/>
	<path class="st7" d="M801.7,195.7c-13.5,4.3-27.6,18.3-26.9,33.3c0.4,10,7.7,18.4,16.8,20.3c-7,32.3-14.4,64.8-18.6,97.5
		c-46-22.9-89.3-49.6-129.8-81.3c-0.4-0.3-0.9-0.6-1.4-0.8c6.9-8.3,8-21.4,2.6-30.9c-7.1-12.5-23-14.6-34.8-7.7
		c-11.7,6.9-16.6,21.6-9.4,33.5c6.4,10.7,20.1,16,31.5,10.9c0.1,0,0.1,0,0.2,0c0,0.1,0,0.1,0,0.2c4.6,55.1,6.9,110.4,6,165.7
		c-34.1-11.7-68.7-21.1-104.1-28.3c4.5-9.7,0.5-22.6-7.1-29.8c-10.1-9.6-25.3-8.1-34.5,1.9c-9.2,9.9-10.5,25.9-0.3,35.6
		c8,7.6,21.5,9.5,30.7,3.8c25.9,40.7,55.9,79,93.3,109.8c1.6,1.3,3.2,1.5,4.6,1.2c0.9,3.3,4.7,6,8.6,3.6
		c81.6-47.6,161.3-99.4,240.4-151c3.5-2.3,4-5.9,2.8-8.9c2.5-1.3,4.1-3.8,2.7-7.3c-10.1-25.3-25.2-47.7-34.8-73.6
		c-6.7-18.2-14.2-34.7-27.5-48.2c10.7-6,19.3-16.2,18.5-29.2C830.2,200.7,816.5,190.9,801.7,195.7z M522.3,406.1
		c-0.2,0.6-0.3,1.3-0.4,1.9c-6.7,3.4-15.7,4-21.3-1.8c-5-5.2-2.9-13.2,2-17.7c4.9-4.6,11.6-5.2,16.6-0.5
		C524.6,393.1,524.7,399.7,522.3,406.1z M615.5,236.7c5.7-3.9,14.2-4.4,18.7,1.7c5.3,7.3,2.6,17.9-4.6,22.7c-0.4,0.3-0.7,0.6-1,1
		C614.4,263.9,600.9,246.6,615.5,236.7z M832.9,315.3c7.7,19.6,20.2,36,29,54.9c-0.2,0.1-0.3,0.1-0.5,0.3
		c-79.7,49.6-159.8,99.5-237,153c-0.3-0.7-0.7-1.4-1.3-2.1c-27.7-30.5-54.2-61.1-77.3-94.9c33,6.9,65.5,15.7,97.6,26.5
		c4.5,1.5,8.5-3.1,8.5-7.2c0.3-53.7-1.3-107.3-5.4-160.9c38.1,28.6,78.3,53.8,121.2,74.7c2.3,1.1,4.5,0.9,6.2-0.1
		c2.3,1.6,6,1,7.1-2.7c10.2-32.1,16.9-65.4,23.8-98.4C819.1,274.7,824.9,295,832.9,315.3z M819,220.8c-1.5,8.2-9.1,12.9-16.3,16.3
		c-3.2-1-6.7,0-8.5,2.8c-5.5-1.5-8.7-7.6-7.5-13.6c1.7-8.3,9.8-15.6,17.5-18.4C813.4,204.5,820.8,211,819,220.8z"/>
	<path class="st7" d="M1362.8,1362.6c-40.7-23.3-87.8-2.9-122.7,21.9c-0.1-0.3-0.2-0.6-0.3-0.8c-3.5-6.5-9.7-10.5-16.4-10.7
		c-8.6-7.2-20.2-9.6-31.1-7.8c-10.7-85.3-121.6-117.2-171.2-42.3c-21.8,32.9-18,73.6,12.9,98.9c26.4,21.7,61.7,25.4,95.2,19.4
		c-45,24-90.1,44.6-140.5,57.2c-6.2,1.6-5.5,10-0.8,12.7c29.2,16.6,60,24.2,93,23.6c-9.3,27.3-17.3,54.9-24.7,82.9
		c-1.8,6.9,6.3,10.3,11.4,7.6c38.8-20.2,73.5-51.8,98.1-89.6c5.8,40.7,27.7,77.1,57.6,105.4c3.9,3.7,10,1,11.1-3.8
		c3.1-13,5.6-27,10.5-39.5c7-17.8,8-21.6,26.8-18.5c22.7,3.7,45.4,4.3,68.4,2.8c5.6-0.3,8.2-7.9,3.9-11.5
		c-31.6-26.3-59.3-55.7-83.9-88c52.2,30.2,119.5,38.1,139.9-31.1C1409.8,1417.8,1393,1379.8,1362.8,1362.6z M1185.1,1382.4
		c8.3-5.7,18.3-6.3,27.9-4.6c-0.5,2.6,1.4,5.5,4.8,5.6c13.4,0.3,12.7,15.4,8.3,23.9c-3.2,6.3-8.6,11.3-14.8,14.6
		c-4.5,2.5-9.7,3.9-14.8,4.1c-3.2-11.8,1.3-20.8,8.5-30.3c2.9-3.8-1.3-8.6-5.5-6.2c-12.1,7-14.5,23.5-9.9,35.8
		c-5-1.2-9.5-4.1-12.6-9.2C1170.5,1405,1174.8,1389.5,1185.1,1382.4z M1024.4,1378.3c-3.3-14.4-1-30.4,8.9-46
		c41.5-65.9,138.8-37.7,146.7,37.1c-0.3,0.2-0.7,0.4-1,0.6c-19.8-22.8-48.4-37.6-79.1-35.5c-3.3,0.2-3.8,5.6-0.3,5.9
		c28.5,3,53.2,13.2,72,35c-1.7,1.6-3.3,3.3-4.6,5.2c-5.2,7.4-7.5,16.7-6.9,25.7C1119.6,1381,1071.4,1370.5,1024.4,1378.3z
		 M1077.2,1426.3c-24.9-5.4-43.7-21.4-51-41.6c49.4-2.1,92.9,8.5,135.8,33.9c0.2,0.1,0.5,0.2,0.7,0.2c0.1,0.3,0.2,0.6,0.3,0.8
		C1134.3,1424.4,1106.7,1432.6,1077.2,1426.3z M1074.8,1603.3c6.1-24.6,13.5-48.7,21.9-72.7c1.7-4.8-1-10.4-6.7-10
		c-28.6,1.9-54.6-2.7-79.8-13.8c53.5-15.4,107-37.7,151.4-71.1c1.6-1.2,2.2-2.7,2.2-4.2c1.8-0.7,3.7-1.4,5.5-2.2
		c2.4,2.6,5.1,4.8,8.4,6.6c4.5,2.4,9.2,3.7,14.1,4.1C1170.7,1508.6,1134.5,1564.1,1074.8,1603.3z M1227.6,1460.7
		c26.7,40.5,58.6,76.7,94.8,108.7c-24.8,0.2-49-2.7-73.4-8.6c-2.5-0.6-6.4,0.9-7.3,3.6c-6.6,19.2-12.5,38.5-17.6,58.1
		c-26.6-28.4-41.3-61.7-50.6-99.8c14.6-25.8,24.6-53.9,28.1-83.1c2.1-0.3,4.2-0.8,6.3-1.4c5.1,6.9,11.5,13.7,18.8,20.2
		C1226.8,1459.2,1227.1,1460,1227.6,1460.7z M1239.7,1454.4c-0.3-0.4-0.6-0.8-0.9-1.3c-1.2-1.7-2.7-2.6-4.3-2.8
		c-5-4.1-9.8-8.3-14-12.4c53-1.8,100.3,9.8,143.8,40.9C1329.9,1507.6,1277,1483.3,1239.7,1454.4z M1379.4,1460.6
		c-2.1,3.6-4.3,6.7-6.7,9.6c-42.4-31.8-95.6-48.1-148.4-40.8c4.4-3.4,8.3-7.5,11.2-12c1.9-2.8,3.5-6,4.7-9.4c32-5.4,60,0,89.7,12.6
		c6.4,2.7,10.7-6.1,4.8-9.6c-27.6-16.6-61.5-19.4-92.4-12.1c0-0.5,0.2-0.9,0.2-1.4c0.2-0.1,0.5-0.1,0.7-0.3
		c27.3-17.9,60.6-36.5,94.6-28.8C1377.7,1377.6,1400.2,1424.9,1379.4,1460.6z"/>
</g>
</svg>
