<?xml version="1.0" encoding="utf-8"?>
<!-- Generator: Adobe Illustrator 26.1.0, SVG Export Plug-In . SVG Version: 6.00 Build 0)  -->
<svg version="1.1" id="Слой_1" xmlns="http://www.w3.org/2000/svg" xmlns:xlink="http://www.w3.org/1999/xlink" x="0px" y="0px"
	 viewBox="0 0 2000 2000" style="enable-background:new 0 0 2000 2000;" xml:space="preserve">
<style type="text/css">
	.st0{fill:#EAD6D5;}
	.st1{fill:#EB8789;}
	.st2{fill:#FFFFFF;}
	.st3{fill:#F2AB99;}
	.st4{fill:#F6B9B6;}
	.st5{fill:#A1C8B5;}
	.st6{fill:#F6CE6F;}
	.st7{fill:#7FADD1;}
	.st8{fill:#FFF4EE;}
</style>
<g>
	<rect class="st0" width="2000" height="2000"/>
	<g>
		<path class="st1" d="M355,1357.1c-4.4,1.5-8.4,2.8-10.4,2.3c-3.5-0.5-18.7-24.7-14.5-32.3c3.4-5.6,19.3-13.8,38.2-22.1
			c-2.1-3-4.6-7-6.4-11.3c-1.1-2.1-1.8-4.3-2.5-6.5c-18.2,6.9-29.1,13.4-32.1,14.4c-3.8,2.1-19.6-19.5-18.4-29.3
			c1.5-14.4,45.8-37.3,70.1-47.1c12.9-5.1,30.3-9.7,39.6-8.8c8,0.6,20.8,9.8,23.7,17.4c7.4,18.7,7.2,30.6,4.2,31.6
			c-7.7,2.6-24.4,2.9-56.6,11.6c2.3,4.5,5.4,9.6,9.9,15l3-1c18.7-6.6,34.8-10.8,38.4-11.2c13.3-1.6,20.1,10,20.8,11.8
			c2.9,8.8-0.1,40-8.5,42.8C444.9,1337.7,396,1343.4,355,1357.1z"/>
		<path class="st1" d="M424.1,1490.1c-2.7,1.6-17.2-6.8-23.8-17.8c-4.7-8-9.9-16.6,14.5-32.5c3-1.8,5.9-4,8.6-5.6
			c-6.4-5.2-12.3-7.5-13.2-9.7c-0.6-2.4,0.4-5.6,2.3-8.6l-4,2.4c-12.1,8.1-16.7,13.5-18.5,14.6c-2.1,1.3-17.5-9.4-26.6-24.7
			c-2-3.3,3.2-14,22.3-26.3c30.9-20.1,98.4-38.2,126,8.3c8.1,13.6,9.4,33.1-14.9,48.4c-13.5,8.5-29.3,15.2-39.1,21.5
			C421.7,1483.9,426.5,1488.7,424.1,1490.1z M447,1421.2c5.9-2.6,9.7-4.4,12.5-6.1c2.4-1.4,4.3-3.9,2.7-6.6
			c-2.6-4.3-15.5-5.2-30.7-1.1C436.6,1410.7,442.3,1415.4,447,1421.2z"/>
		<path class="st1" d="M592.5,1529.9c-37.1,33.4-110.1,49.1-124.9,32.7c-7.8-8.6-10.2-23-9.7-27.2c0.8-7.5,9.2-60.8,40.7-89.2
			c14.2-12.8,47.6-4.3,56.6,5.8c4.4,4.9,6.9,18.8,3.7,21.6c-1.8,1.7-9.2,4.1-24.4,17.8c-11.8,10.7-28.5,28.2-36.9,42.6
			c14.7-7.5,38.1-24.4,58.6-42.8c6.8-6.2,7.2-12.2,10.6-15.2c3.2-2.8,12,2.2,16.1,6.8C596.7,1498,601.2,1522.1,592.5,1529.9z
			 M494.3,1555.3l-1-2.2C493.5,1553.9,493.8,1554.7,494.3,1555.3z"/>
		<path class="st1" d="M626.8,1662.7c-6.2,8.2-43.5,4.6-62.1-9.3c-20.4-15.3-20.9-38.6-8.4-55.8c8.6-12.1,17.3-23.8,28-26.4
			c3.9-0.6,12.3-1,21.5,1c-15.2-8.7-23.5-4.8-26.9-7.3c-2.2-1.6,0.2-10,8.2-22.6c7-10.7,30.2-28.7,55.2-11.8
			c22.3,15.4,27.1,40.6,44,51.5c3.9,2.5,7.8,4.5,4.9,9c-6.4,9.8-31.8,28.4-44.3,19.9c-8.2-5.2-12.5-9.8-16-14.2
			c-4.8,1.3-9.6,3.8-14.3,6.1c9,2.8,21.4,8.9,26.4,13.1c7.2,5.8,3.9,7.8,2.6,9.5c-1.5,2-14.4,10.9-16.6,9.3
			c-7.8-4.5-18.1-8.7-23.2-10.3c-2.3-0.8-3.4-5.2-3-10.2l-1.7,2.3c-5.1,6.8-11.1,12.9-1.5,20.1c9,6.7,31.4,4.5,33.3,5.9
			C635.9,1644.8,630.5,1657.1,626.8,1662.7z"/>
		<path class="st1" d="M815.1,1763.5c-1.1,3-17.7,5.7-29.7,1.3c-8.7-3.2-18.2-6.6-9.4-34.3c1.2-3.3,2-6.8,3.1-9.8
			c-8.2,0-14.3,2-16.4,0.9c-1.9-1.5-3.3-4.6-3.6-8.1l-1.6,4.3c-4.2,13.9-4.3,21-5.1,23c-0.8,2.3-19.5,3.9-36.2-2.2
			c-3.6-1.3-6.4-12.9,0.6-34.5c11.1-35.2,51.8-92,102.7-73.5c14.9,5.4,28.3,19.6,19.2,46.9c-5.1,15.1-13,30.3-16.6,41.4
			C809.3,1760.2,816.1,1760.8,815.1,1763.5z M789.1,1695.7c2.9-5.7,4.7-9.6,5.8-12.6c1-2.7,0.8-5.7-2.1-6.8
			c-4.7-1.7-15.3,5.8-24.4,18.6C774.4,1694.1,781.8,1694.2,789.1,1695.7z"/>
		<path class="st1" d="M1016.9,1759.3c-1.1,20.9-21.6,41.4-48.2,40c-37.5-2-59.8-32.3-57.6-73.7c1.9-35.7,30.8-68.6,77.1-66.1
			c22.8,1.2,38.4,12.7,38.2,16.2c-1.3,24-10.7,48.4-18.4,48c-3.5-0.2-7.6-3.2-16.5-3.7c-17-0.9-29,13.3-29.5,29.6
			c-0.6,11.3,5.2,18.7,15.3,18.9c4.7-0.1,8.7-3.4,11.7-7.9c-7.4,0.7-15.6,1.3-17.1,1.2c-3.1-0.2-4-11.9-2.9-18.2
			c1-4.2,26.1-10.7,33.9-10.2C1009,1733.7,1017.6,1746.6,1016.9,1759.3z"/>
		<path class="st1" d="M1035.9,1728.4c-5.9-39.9,18.3-70,53.4-75.1c34.8-5.1,66.2,16.8,72,56.7c6.2,42-16.8,77.3-51.6,82.4
			C1074.6,1797.5,1042.1,1770.4,1035.9,1728.4z M1115.1,1730c-1.6-10.9-6-24.5-17.8-22.8c-12.2,1.8-12.5,16.2-10.9,27
			c1.9,13,10.6,24.2,18.2,23.1C1111.9,1756.2,1117,1743,1115.1,1730z"/>
		<path class="st1" d="M1168.8,1708.1c-14-37.9,3.4-72.2,36.8-84.5c33-12.2,68.2,2.8,82.2,40.6c14.7,39.9-0.5,79.1-33.5,91.3
			C1220.9,1767.8,1183.5,1748,1168.8,1708.1z M1246.6,1693.4c-3.8-10.3-10.9-22.8-22.1-18.6c-11.6,4.3-8.9,18.4-5.1,28.7
			c4.5,12.3,15.4,21.5,22.6,18.8C1248.9,1719.7,1251.2,1705.7,1246.6,1693.4z"/>
		<path class="st1" d="M1401.4,1592.9c21.5,34.2,12.3,80.5-29.3,106.7c-22.6,14.2-37.1,10.8-39.4,8.5c-2.2-2.8-9.2-21.8-4.6-24.7
			c2.9-1.9,7.9,0.9,19-6.1l2-1.2c-5.3,1.7-9.9,1.6-13.6-0.6c-5.2-3.9-18.7-21.7-23.9-29.3c-2.9,4.8-4.6,8.7-7.2,10.4
			c-6.2,3.9-29.8-22.7-34-38c-3-9.8,18.1-32.3,36.1-43.6C1344.4,1550.9,1383.3,1564.1,1401.4,1592.9z M1367.9,1630.3
			c-4.5-7.2-11.5-10.3-18.4-11c2.1,12.1,9.9,28.9,17.7,38.3C1372.6,1648.7,1373.3,1639,1367.9,1630.3z"/>
		<path class="st1" d="M1540.6,1445.3c31,25.9,36.5,72.8,5,110.5c-17.1,20.5-32,21.7-34.9,20.2c-3-2-15.4-18-12-22.1
			c2.2-2.7,7.8-1.6,16.2-11.7l1.5-1.8c-4.6,3.2-8.9,4.6-13.2,3.6c-6.1-2.1-24.5-14.9-31.8-20.5c-1.3,5.4-1.7,9.7-3.6,12.1
			c-4.7,5.6-35.3-12.4-44-25.7c-5.9-8.4,7.3-36.3,20.9-52.6C1473.4,1422.9,1514.5,1423.5,1540.6,1445.3z M1520.2,1491.2
			c-6.5-5.5-14.1-6.3-20.9-4.8c5.7,10.8,18.4,24.4,28.6,31C1530.3,1507.3,1528.1,1497.8,1520.2,1491.2z"/>
		<path class="st1" d="M1652.3,1367.8c2.8,1.5,2.9,18.3-3.2,29.5c-4.4,8.2-9.2,17-35.3,4.1c-3.1-1.7-6.4-3-9.2-4.6
			c-1.2,8.1-0.2,14.4-1.6,16.3c-1.7,1.7-5,2.6-8.6,2.4l4,2.2c13.1,6.3,20.1,7.4,22,8.5c2.2,1.2,0.9,19.9-7.6,35.5
			c-1.8,3.4-13.7,4.4-34-5.7c-33.1-16.2-83.1-65-57.3-112.6c7.6-13.9,23.7-25,49.2-12c14.2,7.3,28,17.4,38.5,22.7
			C1648.2,1373.1,1649.8,1366.5,1652.3,1367.8z M1581.3,1383.4c-5.2-3.7-8.8-6.1-11.6-7.6c-2.5-1.4-5.5-1.7-7,1
			c-2.4,4.4,3.4,15.9,14.8,27C1577.6,1397.6,1578.7,1390.3,1581.3,1383.4z"/>
		<path class="st1" d="M1602.2,1214.5c31.5,12,58.1,32.3,61.9,57.8c1.9,1,4.2,2.1,7.2,3.1c8.8,2.8,15.7,0.9,18,1.7
			c4.4,1.4,0.6,24.9-1.4,31.2c-3.5,9.8-13.5,11.9-26.5,7.4c-3.9-1.7-7.1-3.5-8.8-6.1c-14,15.8-40.9,23.5-78.6,13.5
			c-12.9-3.7-18.5-7.1-21.5-14.1c-1.9-5.9-3.9-22.8-1.8-29.4c1.9-5.9,13-16.2,18-14.6c2.7,0.9,15.2,7.3,26.6,10.9
			c8.1,2.6,18.9,4.8,29.8,4.6c-6.4-5.7-15.9-12-30.4-16.6c-20.2-6.4-22.9-2.8-29.3-4.9c-2.4-0.8-6.2-10.9-4.1-17.5
			C1567.1,1223.2,1585.7,1208,1602.2,1214.5z"/>
	</g>
	<g>
		<path class="st2" d="M366.1,1325.8c-4.4,1.5-8.4,2.8-10.4,2.3c-3.5-0.5-18.7-24.7-14.5-32.3c3.4-5.6,19.3-13.8,38.2-22.1
			c-2.1-3-4.6-7-6.4-11.3c-1.1-2.1-1.8-4.3-2.5-6.5c-18.2,6.9-29.1,13.4-32.1,14.4c-3.8,2.1-19.6-19.5-18.4-29.3
			c1.5-14.4,45.8-37.3,70.1-47.1c12.9-5.1,30.3-9.7,39.6-8.8c8,0.6,20.8,9.8,23.7,17.4c7.4,18.7,7.2,30.6,4.2,31.6
			c-7.7,2.6-24.4,2.9-56.6,11.6c2.3,4.5,5.4,9.6,9.9,15l3-1c18.7-6.6,34.8-10.8,38.4-11.2c13.3-1.6,20.1,10,20.8,11.8
			c2.9,8.8-0.1,40-8.5,42.8C456,1306.4,407.1,1312.1,366.1,1325.8z"/>
		<path class="st2" d="M435.2,1458.8c-2.7,1.6-17.2-6.8-23.8-17.8c-4.7-8-9.9-16.6,14.5-32.5c3-1.8,5.9-4,8.6-5.6
			c-6.4-5.2-12.3-7.5-13.2-9.7c-0.6-2.4,0.4-5.6,2.3-8.6l-4,2.4c-12.1,8.1-16.7,13.5-18.5,14.6c-2.1,1.3-17.5-9.4-26.6-24.7
			c-2-3.3,3.2-14,22.3-26.3c30.9-20.1,98.4-38.2,126,8.3c8.1,13.6,9.4,33.1-14.9,48.4c-13.5,8.5-29.3,15.2-39.1,21.5
			C432.8,1452.6,437.7,1457.3,435.2,1458.8z M458.1,1389.9c5.9-2.6,9.7-4.4,12.5-6.1c2.4-1.4,4.3-3.9,2.7-6.6
			c-2.6-4.3-15.5-5.2-30.7-1.1C447.7,1379.4,453.4,1384.1,458.1,1389.9z"/>
		<path class="st2" d="M603.6,1498.6c-37.1,33.4-110.1,49.1-124.9,32.7c-7.8-8.6-10.2-23-9.7-27.2c0.8-7.5,9.2-60.8,40.7-89.2
			c14.2-12.8,47.6-4.3,56.6,5.8c4.4,4.9,6.9,18.8,3.7,21.6c-1.8,1.7-9.2,4.1-24.4,17.8c-11.8,10.7-28.5,28.2-36.9,42.6
			c14.7-7.5,38.1-24.4,58.6-42.8c6.8-6.2,7.2-12.2,10.6-15.2c3.2-2.8,12,2.2,16.1,6.8C607.8,1466.7,612.3,1490.8,603.6,1498.6z
			 M505.4,1523.9l-1-2.2C504.7,1522.6,504.9,1523.4,505.4,1523.9z"/>
		<path class="st2" d="M637.9,1631.4c-6.2,8.2-43.5,4.6-62.1-9.3c-20.4-15.3-20.9-38.6-8.4-55.8c8.6-12.1,17.3-23.8,28-26.4
			c3.9-0.6,12.3-1,21.5,1c-15.2-8.7-23.5-4.8-26.9-7.3c-2.2-1.6,0.2-10,8.2-22.6c7-10.7,30.2-28.7,55.2-11.8
			c22.3,15.4,27.1,40.6,44,51.5c3.9,2.5,7.8,4.5,4.9,9c-6.4,9.8-31.8,28.4-44.3,19.9c-8.2-5.2-12.5-9.8-16-14.2
			c-4.8,1.3-9.6,3.8-14.3,6.1c9,2.8,21.4,8.9,26.4,13.1c7.2,5.8,3.9,7.8,2.6,9.5c-1.5,2-14.4,10.9-16.6,9.3
			c-7.8-4.5-18.1-8.7-23.2-10.3c-2.3-0.8-3.4-5.2-3-10.2l-1.7,2.3c-5.1,6.8-11.1,12.9-1.5,20.1c9,6.7,31.4,4.5,33.3,5.9
			C647,1613.4,641.6,1625.8,637.9,1631.4z"/>
		<path class="st2" d="M826.2,1732.2c-1.1,3-17.7,5.7-29.7,1.3c-8.7-3.2-18.2-6.6-9.4-34.3c1.2-3.3,2-6.8,3.1-9.8
			c-8.2,0-14.3,2-16.4,0.9c-1.9-1.5-3.3-4.6-3.6-8.1l-1.6,4.3c-4.2,13.9-4.3,21-5.1,23c-0.8,2.3-19.5,3.9-36.2-2.2
			c-3.6-1.3-6.4-12.9,0.6-34.5c11.1-35.2,51.8-92,102.7-73.5c14.9,5.4,28.3,19.6,19.2,46.9c-5.1,15.1-13,30.3-16.6,41.4
			C820.4,1728.9,827.2,1729.5,826.2,1732.2z M800.2,1664.4c2.9-5.7,4.7-9.6,5.8-12.6c1-2.7,0.8-5.7-2.1-6.8
			c-4.7-1.7-15.3,5.8-24.4,18.6C785.6,1662.8,792.9,1662.9,800.2,1664.4z"/>
		<path class="st2" d="M1028,1728c-1.1,20.9-21.6,41.4-48.2,40c-37.5-2-59.8-32.3-57.6-73.7c1.9-35.7,30.8-68.6,77.1-66.1
			c22.8,1.2,38.4,12.7,38.2,16.2c-1.3,24-10.7,48.4-18.4,48c-3.5-0.2-7.6-3.2-16.5-3.7c-17-0.9-29,13.3-29.5,29.6
			c-0.6,11.3,5.2,18.7,15.3,18.9c4.7-0.1,8.7-3.4,11.7-7.9c-7.4,0.7-15.6,1.3-17.1,1.2c-3.1-0.2-4-11.9-2.9-18.2
			c1-4.2,26.1-10.7,33.9-10.2C1020.1,1702.4,1028.7,1715.3,1028,1728z"/>
		<path class="st2" d="M1047,1697.1c-5.9-39.9,18.3-70,53.4-75.1c34.8-5.1,66.2,16.8,72,56.7c6.2,42-16.8,77.3-51.6,82.4
			C1085.7,1766.2,1053.2,1739.1,1047,1697.1z M1126.2,1698.7c-1.6-10.9-6-24.5-17.8-22.8c-12.2,1.8-12.5,16.2-10.9,27
			c1.9,13,10.6,24.2,18.2,23.1C1123,1724.9,1128.1,1711.6,1126.2,1698.7z"/>
		<path class="st2" d="M1179.9,1676.8c-14-37.9,3.4-72.2,36.8-84.5c33-12.2,68.2,2.8,82.2,40.6c14.7,39.9-0.5,79.1-33.5,91.3
			C1232,1736.5,1194.6,1716.7,1179.9,1676.8z M1257.7,1662.1c-3.8-10.3-10.9-22.8-22.1-18.6c-11.6,4.3-8.9,18.4-5.1,28.7
			c4.5,12.3,15.4,21.5,22.6,18.8C1260,1688.4,1262.3,1674.3,1257.7,1662.1z"/>
		<path class="st2" d="M1412.5,1561.6c21.5,34.2,12.3,80.5-29.3,106.7c-22.6,14.2-37.1,10.8-39.4,8.5c-2.2-2.8-9.2-21.8-4.6-24.7
			c2.9-1.9,7.9,0.9,19-6.1l2-1.2c-5.3,1.7-9.9,1.6-13.6-0.6c-5.2-3.9-18.7-21.7-23.9-29.3c-2.9,4.8-4.6,8.7-7.2,10.4
			c-6.2,3.9-29.8-22.7-34-38c-3-9.8,18.1-32.3,36.1-43.6C1355.6,1519.6,1394.5,1532.8,1412.5,1561.6z M1379,1599
			c-4.5-7.2-11.5-10.3-18.4-11c2.1,12.1,9.9,28.9,17.7,38.3C1383.7,1617.4,1384.4,1607.7,1379,1599z"/>
		<path class="st2" d="M1551.7,1414c31,25.9,36.5,72.8,5,110.5c-17.1,20.5-32,21.7-34.9,20.2c-3-2-15.4-18-12-22.1
			c2.2-2.7,7.8-1.6,16.2-11.7l1.5-1.8c-4.6,3.2-8.9,4.6-13.2,3.6c-6.1-2.1-24.5-14.9-31.8-20.5c-1.3,5.4-1.7,9.7-3.6,12.1
			c-4.7,5.6-35.3-12.4-44-25.7c-5.9-8.4,7.3-36.3,20.9-52.6C1484.5,1391.6,1525.6,1392.2,1551.7,1414z M1531.3,1459.9
			c-6.5-5.5-14.1-6.3-20.9-4.8c5.7,10.8,18.4,24.4,28.6,31C1541.4,1476,1539.2,1466.5,1531.3,1459.9z"/>
		<path class="st2" d="M1663.4,1336.5c2.8,1.5,2.9,18.3-3.2,29.5c-4.4,8.2-9.2,17-35.3,4.1c-3.1-1.7-6.4-3-9.2-4.6
			c-1.2,8.1-0.2,14.4-1.6,16.3c-1.7,1.7-5,2.6-8.6,2.4l4,2.2c13.1,6.3,20.1,7.4,22,8.5c2.2,1.2,0.9,19.9-7.6,35.5
			c-1.8,3.4-13.7,4.4-34-5.7c-33.1-16.2-83.1-65-57.3-112.6c7.6-13.9,23.7-25,49.2-12c14.2,7.3,28,17.4,38.5,22.7
			C1659.3,1341.8,1660.9,1335.1,1663.4,1336.5z M1592.4,1352c-5.2-3.7-8.8-6.1-11.6-7.6c-2.5-1.4-5.5-1.7-7,1
			c-2.4,4.4,3.4,15.9,14.8,27C1588.7,1366.3,1589.8,1359,1592.4,1352z"/>
		<path class="st2" d="M1613.3,1183.2c31.5,12,58.1,32.3,61.9,57.8c1.9,1,4.2,2.1,7.2,3.1c8.8,2.8,15.7,0.9,18,1.7
			c4.4,1.4,0.6,24.9-1.4,31.2c-3.5,9.8-13.5,11.9-26.5,7.4c-3.9-1.7-7.1-3.5-8.8-6.1c-14,15.8-40.9,23.5-78.6,13.5
			c-12.9-3.7-18.5-7.1-21.5-14.1c-1.8-5.9-3.9-22.8-1.8-29.4c1.9-5.9,12.9-16.2,18-14.6c2.7,0.9,15.2,7.3,26.6,10.9
			c8.1,2.6,18.9,4.8,29.8,4.6c-6.4-5.7-15.9-12-30.4-16.6c-20.2-6.4-22.9-2.8-29.3-4.9c-2.4-0.8-6.2-10.9-4.1-17.5
			C1578.2,1191.9,1596.8,1176.7,1613.3,1183.2z"/>
	</g>
	<g>
		<path class="st1" d="M301.8,720.2c-10.4-6.2-7.1-35.5-0.4-49.4c3.5-7.3,15.5-14.5,19.3-12.6c7.4,3.5,92.1,57.9,99.1,63.8
			c5.1,4.1-1.6,24.9-5,31.9C410,764,328.5,735.1,301.8,720.2z"/>
		<path class="st1" d="M427.7,589.3c-1.5,2.2-3.6,4.6-5.7,6.9c6.7,8.4,15.2,15.3,26.1,23.8c15.9,12.5,21.6,15.5,27.1,17.5
			c4.4,1.7-4.4,26.1-14.8,33c-6.7,4.7-41.3-11.3-65.4-28.1c-3.8-2.6-5.1-6.9-5.5-11.9l-3.8,5.4c-11.3,16.2-7.2,15.3-10.7,20.3
			c-1.3,1.9-9.3-2.2-16.2-6.5c-8.1-5.7-34-29.3-14.1-57.9c12.8-18.4,33.3-23,45.2-40.1c4.9-7,6.8-16,9.7-14
			C409.2,542.9,440.6,570.9,427.7,589.3z"/>
		<path class="st1" d="M539.6,549.2c-4.9-6.1-14.8-22.6-9.7-26.8c3-2.4,25.5-6.6,36.7-15.6c3.3-2.7,5-4.9,3.4-6.9
			c-8-9.9-55.9,26.2-82.2-5c-16.1-19.3-12.1-53.1,17.6-77.2c22.5-18.3,46.5-23.1,50.8-18.4c4,5,20.5,43.1,12.7,49.4
			c-1.8,1.5-16.6,3.4-26.5,11.5c-4.2,3.4-5.4,6.2-4.8,7c3.8,4.7,47.3-23.3,67.4,1.5c16,19.8,9.3,42.2-12.1,59.4
			C571.6,545.6,543,553.3,539.6,549.2z"/>
		<path class="st1" d="M786.3,405.3c1.3,2.9-9,16.2-20.8,21.2c-8.5,3.7-17.8,7.6-30.3-18.6c-1.4-3.3-3.1-6.4-4.4-9.3
			c-6,5.6-9.1,11.2-11.4,11.8c-2.4,0.3-5.5-1.1-8.2-3.4l1.8,4.2c6.4,13,11.2,18.3,12,20.3c1,2.3-11.6,16.1-28,23.1
			c-3.6,1.5-13.5-5-23.1-25.5c-15.9-33.2-25-102.6,24.8-123.9c14.6-6.2,34.1-4.9,46.1,21.1c6.6,14.5,11.2,31,16.1,41.6
			C779.9,406.9,785.2,402.7,786.3,405.3z M721,373.5c-1.8-6.2-3.1-10.2-4.4-13.2c-1.1-2.6-3.3-4.8-6.1-3.5c-4.6,2-7.2,14.6-5.1,30.3
			C709.3,382.4,714.7,377.4,721,373.5z"/>
		<path class="st1" d="M954.4,345.1c2.7,20.7-13.6,44.6-40.1,48.1c-37.2,4.9-64.7-20.8-70.1-61.9c-4.6-35.5,17.7-73,63.7-79.1
			c22.6-3,40.1,5.5,40.6,9c3.1,23.9-1.7,49.5-9.4,50.5c-3.5,0.5-8-1.8-16.9-0.6c-16.9,2.2-26.1,18.4-23.6,34.5
			c1.5,11.2,8.5,17.5,18.5,15.8c4.6-1,7.9-5,10-9.9c-7.1,2-15.1,4.1-16.6,4.3c-3.1,0.4-6.1-11-6.2-17.4c0.2-4.3,23.7-15.3,31.4-16.3
			C942,321.4,952.8,332.5,954.4,345.1z"/>
		<path class="st1" d="M972.2,311.9c2.2-40.3,31.8-65,67.3-63c35.1,1.9,61.5,29.6,59.4,69.9c-2.3,42.4-31.8,72.4-66.9,70.5
			C996.4,387.3,969.9,354.3,972.2,311.9z M1049.5,329.2c0.6-11-1-25.2-12.9-25.9c-12.4-0.7-15.4,13.4-16,24.3
			c-0.7,13.1,5.6,25.8,13.3,26.2C1041.1,354.2,1048.8,342.2,1049.5,329.2z"/>
		<path class="st1" d="M1111.1,320.5c9.8-39.2,43.5-57.8,78-49.1c34.1,8.5,54.8,40.7,45,79.9c-10.3,41.2-44.9,65.1-79.1,56.5
			C1120.6,399.1,1100.8,361.7,1111.1,320.5z M1183.7,352.1c2.7-10.6,3.8-25-7.8-27.9c-12-3-17.7,10.2-20.3,20.8
			c-3.2,12.7,0.6,26.4,8.1,28.3C1170.8,375.1,1180.6,364.8,1183.7,352.1z"/>
		<path class="st1" d="M1360.8,408.4c-17.1,36.6-61.1,53.9-105.6,33c-24.2-11.3-29.1-25.4-28.4-28.6c1.2-3.4,13.4-19.5,18.3-17.2
			c3.2,1.5,3.5,7.1,15.4,12.7l2.1,1c-4.3-3.6-6.8-7.5-6.8-11.8c0.5-6.4,8.2-27.5,11.7-36c-5.6,0.1-9.8,0.9-12.6-0.4
			c-6.7-3.1,3-37.3,13.6-49.1c6.7-7.8,36.9-2.2,56.2,6.8C1365.3,337.7,1375.2,377.6,1360.8,408.4z M1311.2,400.4
			c3.6-7.7,2.5-15.3-0.6-21.4c-9,8.3-18.9,24-22.6,35.5C1298.3,414.2,1306.8,409.7,1311.2,400.4z"/>
		<path class="st1" d="M1525.3,540.2c-27.1,29.9-74.2,33.6-110.6,0.6c-19.8-17.9-20.4-32.8-18.8-35.7c2.1-2.9,18.6-14.7,22.6-11.1
			c2.6,2.3,1.3,7.8,11,16.7l1.7,1.6c-3.1-4.7-4.3-9.1-3.1-13.3c2.3-6,15.9-23.9,21.8-30.9c-5.4-1.5-9.6-2-11.9-4.1
			c-5.4-4.9,13.8-34.8,27.5-43c8.7-5.5,36,8.7,51.7,23C1550.4,474,1548.2,515,1525.3,540.2z M1480.3,518c5.7-6.3,6.8-13.9,5.7-20.7
			c-11,5.3-25.1,17.4-32.1,27.3C1463.8,527.5,1473.4,525.6,1480.3,518z"/>
		<path class="st1" d="M1553.2,677.7c-2.5,1.9-17.9-5-25.5-15.2c-5.6-7.4-11.6-15.5,10.9-33.8c2.8-2.1,5.4-4.6,8-6.5
			c-6.9-4.5-13-6.2-14.1-8.2c-0.8-2.3-0.2-5.6,1.4-8.8l-3.7,2.8c-11.1,9.3-15.1,15.2-16.8,16.5c-2,1.5-18.4-7.4-29.1-21.7
			c-2.3-3.1,1.7-14.3,19.3-28.5c28.5-23.3,93.7-48.6,126.2-5.3c9.5,12.7,12.9,31.9-9.6,49.7c-12.5,9.9-27.5,18.2-36.6,25.5
			C1550.1,671.8,1555.5,676,1553.2,677.7z M1568.6,606.7c5.6-3.2,9.2-5.4,11.7-7.4c2.3-1.7,3.8-4.3,2-6.8c-3-4-15.9-3.5-30.7,2.2
			C1557.2,597.4,1563.3,601.5,1568.6,606.7z"/>
		<path class="st1" d="M1689.4,736.7c-31,13.1-64.3,17-84.7,1.2c-2.1,0.6-4.5,1.3-7.3,2.8c-8.3,4.1-11.9,10.2-14.2,11.3
			c-4.1,2-17.7-17.6-20.6-23.5c-4.3-9.5,1.4-17.9,14-23.7c4-1.5,7.5-2.4,10.6-1.8c-0.9-21.1,13.2-45.3,47.3-64.3
			c11.9-6.3,18.3-7.7,25.3-4.7c5.4,2.9,18.6,13.7,21.7,19.9c2.7,5.5,1.9,20.6-2.9,23c-2.5,1.3-16,5.3-26.8,10.6
			c-7.6,3.8-17,9.7-24.6,17.3c8.5-0.3,19.7-2.4,33.4-9.1c19.1-9.4,18.4-13.8,24.5-16.8c2.2-1.1,12,3.6,15.1,9.8
			C1708.7,706.1,1705.8,729.9,1689.4,736.7z"/>
	</g>
	<g>
		<path class="st2" d="M304.9,687c-10.4-6.2-7.1-35.5-0.4-49.4c3.5-7.3,15.5-14.5,19.3-12.6c7.4,3.5,92.1,57.9,99.1,63.8
			c5.1,4.1-1.6,24.9-5,31.9C413.1,730.7,331.6,701.8,304.9,687z"/>
		<path class="st2" d="M430.8,556c-1.5,2.2-3.6,4.6-5.7,6.9c6.7,8.4,15.2,15.3,26.1,23.8c15.9,12.5,21.6,15.5,27.1,17.5
			c4.4,1.7-4.4,26.1-14.8,33c-6.7,4.7-41.3-11.3-65.4-28.1c-3.8-2.6-5.1-6.9-5.5-11.9l-3.8,5.4c-11.3,16.2-7.2,15.3-10.7,20.3
			c-1.3,1.9-9.3-2.2-16.2-6.5c-8.1-5.7-34-29.3-14.1-57.9c12.8-18.4,33.3-23,45.2-40.1c4.9-7,6.8-16,9.7-14
			C412.2,509.6,443.6,537.6,430.8,556z"/>
		<path class="st2" d="M542.7,516c-4.9-6.1-14.8-22.6-9.7-26.8c3-2.4,25.5-6.6,36.7-15.6c3.3-2.7,5-4.9,3.4-6.9
			c-8-9.9-55.9,26.2-82.2-5c-16.1-19.3-12.1-53.1,17.6-77.2c22.5-18.3,46.5-23.1,50.8-18.4c4,5,20.5,43.1,12.7,49.4
			c-1.8,1.5-16.6,3.4-26.5,11.5c-4.2,3.4-5.4,6.2-4.8,7c3.8,4.7,47.3-23.3,67.4,1.5c16,19.8,9.3,42.2-12.1,59.4S546,520.1,542.7,516
			z"/>
		<path class="st2" d="M789.4,372c1.3,2.9-9,16.2-20.8,21.2c-8.5,3.7-17.8,7.6-30.3-18.6c-1.4-3.3-3.1-6.4-4.4-9.3
			c-6,5.6-9.1,11.2-11.4,11.8c-2.4,0.3-5.5-1.1-8.2-3.4l1.8,4.2c6.4,13,11.2,18.3,12,20.3c1,2.3-11.6,16.1-28,23.1
			c-3.6,1.5-13.5-5-23.1-25.5c-15.9-33.2-25-102.6,24.8-123.9c14.6-6.2,34.1-4.9,46.1,21.1c6.6,14.5,11.2,31,16.1,41.6
			C782.9,373.7,788.3,369.4,789.4,372z M724.1,340.3c-1.8-6.2-3.1-10.2-4.4-13.2c-1.1-2.6-3.3-4.8-6.1-3.5c-4.6,2-7.2,14.6-5.1,30.3
			C712.3,349.2,717.7,344.2,724.1,340.3z"/>
		<path class="st2" d="M957.5,311.9c2.7,20.7-13.6,44.6-40.1,48.1c-37.2,4.9-64.7-20.8-70.1-61.9c-4.6-35.5,17.7-73,63.7-79.1
			c22.6-3,40.1,5.5,40.6,9c3.1,23.9-1.7,49.5-9.4,50.5c-3.5,0.5-8-1.8-16.9-0.6c-16.9,2.2-26.1,18.4-23.6,34.5
			c1.5,11.2,8.5,17.5,18.5,15.8c4.6-1,7.9-5,10-9.9c-7.1,2-15.1,4.1-16.6,4.3c-3.1,0.4-6.1-11-6.2-17.4c0.2-4.3,23.7-15.3,31.4-16.3
			C945,288.1,955.8,299.2,957.5,311.9z"/>
		<path class="st2" d="M975.2,278.6c2.2-40.3,31.8-65,67.3-63c35.1,1.9,61.5,29.6,59.4,69.9c-2.3,42.4-31.8,72.4-66.9,70.5
			C999.4,354.1,972.9,321.1,975.2,278.6z M1052.5,295.9c0.6-11-1-25.2-12.9-25.9c-12.4-0.7-15.4,13.4-16,24.3
			c-0.7,13.1,5.6,25.8,13.3,26.2C1044.2,321,1051.8,309,1052.5,295.9z"/>
		<path class="st2" d="M1114.2,287.2c9.8-39.2,43.5-57.8,78-49.1c34.1,8.5,54.8,40.7,45,79.9c-10.3,41.2-44.9,65.1-79.1,56.5
			C1123.6,365.9,1103.9,328.4,1114.2,287.2z M1186.8,318.9c2.7-10.6,3.8-25-7.8-27.9c-12-3-17.7,10.2-20.3,20.8
			c-3.2,12.7,0.6,26.4,8.1,28.3C1173.9,341.9,1183.6,331.6,1186.8,318.9z"/>
		<path class="st2" d="M1363.8,375.1c-17.1,36.6-61.1,53.9-105.6,33c-24.2-11.3-29.1-25.4-28.4-28.6c1.2-3.4,13.4-19.5,18.3-17.2
			c3.2,1.5,3.5,7.1,15.4,12.7l2.1,1c-4.3-3.6-6.8-7.5-6.8-11.8c0.5-6.4,8.2-27.5,11.7-36c-5.6,0.1-9.8,0.9-12.6-0.4
			c-6.7-3.1,3-37.3,13.6-49.1c6.7-7.8,36.9-2.2,56.2,6.8C1368.3,304.5,1378.3,344.3,1363.8,375.1z M1314.2,367.1
			c3.6-7.7,2.5-15.3-0.6-21.4c-9,8.3-18.9,24-22.6,35.5C1301.3,381,1309.9,376.4,1314.2,367.1z"/>
		<path class="st2" d="M1528.4,507c-27.1,29.9-74.2,33.6-110.6,0.6c-19.8-17.9-20.4-32.8-18.8-35.7c2.1-2.9,18.6-14.7,22.6-11.1
			c2.6,2.3,1.3,7.8,11,16.7l1.7,1.6c-3.1-4.7-4.3-9.1-3.1-13.3c2.3-6,15.9-23.9,21.8-30.9c-5.4-1.5-9.6-2-11.9-4.1
			c-5.4-4.9,13.8-34.8,27.5-43c8.7-5.5,36,8.7,51.7,23C1553.4,440.8,1551.2,481.8,1528.4,507z M1483.3,484.8
			c5.7-6.3,6.8-13.9,5.7-20.7c-11,5.3-25.1,17.4-32.1,27.3C1466.9,494.2,1476.4,492.4,1483.3,484.8z"/>
		<path class="st2" d="M1556.3,644.5c-2.5,1.9-17.9-5-25.5-15.2c-5.6-7.4-11.6-15.5,10.9-33.8c2.8-2.1,5.4-4.6,8-6.5
			c-6.9-4.5-13-6.2-14.1-8.2c-0.8-2.3-0.2-5.6,1.4-8.8l-3.7,2.8c-11.1,9.3-15.1,15.2-16.8,16.5c-2,1.5-18.4-7.4-29.1-21.7
			c-2.3-3.1,1.7-14.3,19.3-28.5c28.5-23.3,93.7-48.6,126.2-5.3c9.5,12.7,12.9,31.9-9.6,49.7c-12.5,9.9-27.5,18.2-36.6,25.5
			C1553.2,638.6,1558.5,642.8,1556.3,644.5z M1571.6,573.5c5.6-3.2,9.2-5.4,11.7-7.4c2.3-1.7,3.8-4.3,2-6.8c-3-4-15.9-3.5-30.7,2.2
			C1560.2,564.2,1566.4,568.2,1571.6,573.5z"/>
		<path class="st2" d="M1692.4,703.5c-31,13.1-64.3,17-84.7,1.2c-2.1,0.6-4.5,1.3-7.3,2.8c-8.3,4.1-11.9,10.2-14.2,11.3
			c-4.1,2-17.7-17.6-20.6-23.5c-4.3-9.5,1.4-17.9,14-23.7c4-1.5,7.5-2.4,10.6-1.8c-0.9-21.1,13.2-45.3,47.3-64.3
			c11.9-6.3,18.3-7.7,25.3-4.7c5.4,2.9,18.6,13.7,21.7,19.9c2.7,5.5,1.9,20.6-2.9,23c-2.5,1.3-16,5.3-26.8,10.6
			c-7.6,3.8-17,9.7-24.6,17.3c8.5-0.3,19.7-2.4,33.4-9.1c19.1-9.4,18.4-13.8,24.5-16.8c2.2-1.1,12,3.6,15.1,9.8
			C1711.7,672.9,1708.8,696.7,1692.4,703.5z"/>
	</g>
	<path class="st3" d="M973,567.6c0,0-36.7-80.8-6.5-106.9c30.2-26.1,79.1,17.9,86.5,92.2c29.4-77.5,64.4-112.2,104.4-99.7
		c40,12.5,1.6,106.3-14.7,127.5c76.7,4.9,133.8,42.4,124.8,71c-9,28.6-132.2,24.5-132.2,24.5s27.7,89.7,11.4,134.6
		s-83.2-17.9-111.8-103.6c-53,79.1-96.3,110.9-119.1,84.8c-22.8-26.1,13.9-124,48.1-150.1c-72.6,10.6-124.8-6.5-127.3-47.3
		S931.4,548,973,567.6z"/>
	<path class="st4" d="M890.1,1240.2c0,0,25-80.8,63-80.3c38.1,0.5,45.1,62.9,3.3,120.5c70-36.7,117-39.2,137.6-5
		s-66.1,76.8-91.2,81.6c51.6,52,68.5,115,44.1,129.6c-24.5,14.7-109.7-66.2-109.7-66.2s-37,81.5-77.1,103.2
		c-40,21.7-48-65.5-14.1-144.6c-87.9,22.8-138.9,18.2-138.6-14.9c0.2-33.1,88.4-79.6,129.4-76.6c-58.5-38.4-84.9-83.7-60.8-114.3
		S872.8,1199.9,890.1,1240.2z"/>
	<path class="st5" d="M549.8,877.9c0,0-47.6-72,0-102c47.6-30,82.6,30,88.9,58.8c42.6-53.2,102.6-56.3,130.2-26.9
		c27.5,29.4-25,85.7-45.7,102c44.4,36.9,42.6,91.4,28.2,112c-14.4,20.7-63.8,28.8-111.4-38.2c-25.7,77-66.3,115.8-94.5,93.3
		s-5-105.8-5-105.8s-84.5,49.4-99.5-25C425.9,871.7,529.1,869.2,549.8,877.9z"/>
	<path class="st6" d="M1275.4,1060.2c0,0-71.2-65.4-27.6-111c43.6-45.6,98,10.3,112.6,39.9c31.9-69.4,96.4-89.1,134.3-64.5
		s-4,100.1-22.1,123.4c58.3,28.1,71.1,87.9,61,114.3s-61.7,48.6-131.5-11.4c-7.1,90.7-40.8,143.9-77.6,127.1s-34.1-113.7-34.1-113.7
		s-78.5,76.7-115-0.3C1138.9,1087,1250.6,1056.3,1275.4,1060.2z"/>
	<path class="st7" d="M962.2,934.6c0,0-12.4-61.9,28.1-69.2c40.5-7.3,47.7,43.1,44,64.4c43.5-24.3,85.1-9.9,95.7,17.6
		s-40.6,51.2-59.1,56.6c20,37.3,3.7,73.7-11.8,83.7c-15.5,10-51.2,1.9-65-56.6c-38.6,45.1-76.9,60.2-89.8,37.2
		c-12.9-23,25.8-73.1,25.8-73.1s-70.9,10.2-60.6-44.4C879.9,896.2,950.6,922.9,962.2,934.6z"/>
	<circle class="st8" cx="1049.6" cy="624.7" r="42.2"/>
	<circle class="st8" cx="613.9" cy="896.1" r="31.4"/>
	<circle class="st8" cx="1337.9" cy="1083.3" r="41"/>
	<circle class="st8" cx="1000" cy="978" r="29.5"/>
	<circle class="st8" cx="902.2" cy="1315.7" r="45.4"/>
	<g>
		<circle class="st2" cx="1320.7" cy="706.9" r="10.5"/>
		<circle class="st2" cx="608" cy="1239" r="41.7"/>
		<circle class="st2" cx="875.5" cy="845.4" r="26.2"/>
		<circle class="st2" cx="1062.8" cy="1159.9" r="13.2"/>
		<circle class="st2" cx="1161.3" cy="1467.8" r="34.8"/>
		<circle class="st2" cx="1251.7" cy="1429.4" r="10.8"/>
		<circle class="st2" cx="645.3" cy="663.7" r="27.4"/>
		<circle class="st2" cx="723.8" cy="579.3" r="10.8"/>
		<circle class="st2" cx="1337.9" cy="825.6" r="17.1"/>
		<circle class="st2" cx="1592.4" cy="978" r="20.6"/>
	</g>
	<g>
		<path class="st1" d="M445.8,483.2l25.9,32.3c2.5,3.1,0.3,7.8-3.8,7.8h-14.1c-1.2,0-2.4-0.4-3.2-1.3l-35.3-32.3
			c-3.2-3-1.1-8.4,3.2-8.4H442C443.5,481.4,444.9,482.1,445.8,483.2z"/>
	</g>
	<g>
		<path class="st2" d="M445.8,467.5l25.9,32.3c2.5,3.1,0.3,7.8-3.8,7.8h-14.1c-1.2,0-2.4-0.4-3.2-1.3l-35.3-32.3
			c-3.2-3-1.1-8.4,3.2-8.4H442C443.5,465.7,444.9,466.4,445.8,467.5z"/>
	</g>
</g>
</svg>
