<?xml version="1.0" encoding="utf-8"?>
<!-- Generator: Adobe Illustrator 26.1.0, SVG Export Plug-In . SVG Version: 6.00 Build 0)  -->
<svg version="1.1" id="Слой_1" xmlns="http://www.w3.org/2000/svg" xmlns:xlink="http://www.w3.org/1999/xlink" x="0px" y="0px"
	 viewBox="0 0 2000 2000" style="enable-background:new 0 0 2000 2000;" xml:space="preserve">
<style type="text/css">
	.st0{fill:#D1C2F9;}
	.st1{opacity:0.42;}
	.st2{fill:#AC9FDD;}
	.st3{fill:#9386C4;}
	.st4{fill:#533750;}
	.st5{fill:#FDBADB;}
	.st6{fill:#88B9FB;}
	.st7{fill:#ECF1F7;}
	.st8{fill:#BBEDEE;}
	.st9{fill:none;stroke:#533750;stroke-width:6.4759;stroke-linecap:round;stroke-linejoin:round;stroke-miterlimit:10;}
	.st10{fill:#F5918F;}
	.st11{fill:#FCB968;}
	.st12{fill:#FFFFFF;}
	.st13{fill:#FCE17A;}
	.st14{fill:#FF8FFF;}
	.st15{fill:#97B6EC;}
	.st16{fill:#F5E87F;}
	.st17{fill:#C2DEAE;}
</style>
<g>
	<rect class="st0" width="2000" height="2000"/>
	<g class="st1">
		<g>
			<rect x="122.4" class="st2" width="10.2" height="2000"/>
			<rect x="231.1" class="st2" width="10.2" height="2000"/>
			<rect x="339.7" class="st2" width="10.2" height="2000"/>
			<rect x="448.4" class="st2" width="10.2" height="2000"/>
			<rect x="557.1" class="st2" width="10.2" height="2000"/>
			<rect x="665.8" class="st2" width="10.2" height="2000"/>
			<rect x="774.5" class="st2" width="10.2" height="2000"/>
			<rect x="883.2" class="st2" width="10.2" height="2000"/>
			<rect x="991.9" class="st2" width="10.2" height="2000"/>
			<rect x="1100.5" class="st2" width="10.2" height="2000"/>
			<rect x="1209.2" class="st2" width="10.2" height="2000"/>
			<rect x="1317.9" class="st2" width="10.2" height="2000"/>
			<rect x="1426.6" class="st2" width="10.2" height="2000"/>
			<rect x="1535.3" class="st2" width="10.2" height="2000"/>
			<rect x="1644" class="st2" width="10.2" height="2000"/>
			<rect x="1752.7" class="st2" width="10.2" height="2000"/>
			<rect x="1861.3" class="st2" width="10.2" height="2000"/>
			<rect x="1970" class="st2" width="10.2" height="2000"/>
		</g>
		<g>
			<rect y="116.1" class="st2" width="2000" height="10.2"/>
			<rect y="239.3" class="st2" width="2000" height="10.2"/>
			<rect y="362.5" class="st2" width="2000" height="10.2"/>
			<rect y="485.7" class="st2" width="2000" height="10.2"/>
			<polygon class="st2" points="2000,619.2 2000,619.2 0,619.2 0,608.9 			"/>
			<rect y="732.1" class="st2" width="2000" height="10.2"/>
			<rect y="855.4" class="st2" width="2000" height="10.2"/>
			<rect y="978.6" class="st2" width="2000" height="10.2"/>
			<rect y="1101.8" class="st2" width="2000" height="10.2"/>
			<rect y="1225" class="st2" width="2000" height="10.2"/>
			<rect y="1348.2" class="st2" width="2000" height="10.2"/>
			<rect y="1471.4" class="st2" width="2000" height="10.2"/>
			<rect y="1594.6" class="st2" width="2000" height="10.2"/>
			<rect y="1717.8" class="st2" width="2000" height="10.2"/>
			<rect y="1841" class="st2" width="2000" height="10.2"/>
			<rect y="1964.2" class="st2" width="2000" height="10.2"/>
		</g>
	</g>
</g>
<g>
	<g>
		<path class="st3" d="M417.4,1443.2c3.5-0.2,6.8-1.1,9.7-2.7c0,3.5-0.1,7.2-0.1,10.8c-2.8-2.4-5.6-4.5-8.4-6.4
			C418.2,1444.3,417.8,1443.8,417.4,1443.2z"/>
	</g>
	<path class="st4" d="M817.3,581.7c-56.2,0-59.1-28.5-59.1-110.7c0-83.9,4.7-111,61.1-111c39.5,0,57.1,18.6,57.1,60.2
		c0,77.8-2.6,112.5-9.8,132.8C857.1,579.5,837.9,581.7,817.3,581.7z"/>
	<path class="st5" d="M766.2,471c0-85.4,5.4-103.1,53.1-103.1c36.1,0,49.1,16.2,49.1,52.2c0,142.2-7.9,153.6-51.1,153.6
		C769.4,573.7,766.2,554.4,766.2,471z"/>
	<path class="st4" d="M979.4,580.3c-24.2,0-64.8,0-64.8-36.9l0.6-79.8c0-7.6,0-9-10.5-9c-9.1,0-30.1-4.3-30.1-44.3
		c0-50.3,39.6-54,104.8-54c52.9,0,107.1,6,107.1,50.3c0,21-3.4,48.9-32.7,48.9c-5,0-7.1,0.5-8,0.7c-0.3,1.3-0.3,4.2-0.3,6.6v0.6
		c0,6.3,0.3,18.8,0.6,32.1c0.4,17.2,0.8,36.7,0.8,49.6C1047,568.4,1024.3,580.3,979.4,580.3z"/>
	<path class="st5" d="M922.7,543.4l0.6-79.8c0-12.5-4-17-18.5-17c-13.1,0-22.1-11.1-22.1-36.3c0-40.9,27.3-46,96.8-46
		c63,0,99.1,9.4,99.1,42.3c0,34.4-11.1,40.9-24.7,40.9c-16.5,0-16.2,4.3-16.2,15.9c0,14.5,1.4,58.8,1.4,81.8
		c0,18.2-19.6,27.3-59.6,27.3C948.5,572.3,922.7,569.5,922.7,543.4z"/>
	<path class="st4" d="M1293.6,582.9c-41.8,0-99.1,0-99.1-47.2c0-26.3,10.5-31.8,19.3-31.8c8.5,0,14.4,1.7,18.7,2.9
		c1.9,0.5,3.7,1,4.5,1c4.5,0,5.5-0.9,5.5-1c0,0,0.1-0.3,0.1-1c0-6.7-1.3-8.3-9.7-12.4c-29.4-13.9-41.4-31.5-41.4-60.8
		c0-47.6,34.4-73.8,96.8-73.8c61.4,0,92.6,19.5,92.6,57.9c0,16.7-7.7,27.8-19,27.8c-3.5,0-6.8-1-10.3-2c-3.8-1.1-7.8-2.3-12.7-2.3
		c-4,0-4.2,2.9-4.2,4.8c1.2,1.8,7.4,5.2,11.6,7.5c15.7,8.5,42,22.7,42,59.3C1388.5,570.8,1350.5,582.9,1293.6,582.9z"/>
	<path class="st5" d="M1202.5,535.7c0-18.5,5.1-23.8,11.4-23.8c12.2,0,18.2,4,23.3,4c4.3,0,13.6-0.6,13.6-9.9
		c0-11.4-4.8-15-14.2-19.6c-25.8-12.2-36.9-26.7-36.9-53.7c0-53.4,46.6-65.9,88.9-65.9c32.6,0,84.6,4.8,84.6,50
		c0,11.1-4,19.9-11.1,19.9c-5.7,0-12.5-4.3-23-4.3c-4.3,0-12.2,2.3-12.2,13.1c0,15.6,53.7,16.7,53.7,66.4c0,47.7-25.5,63-86.9,63
		C1241.7,574.9,1202.5,570.9,1202.5,535.7z"/>
	<path class="st4" d="M731.2,910c-71.6,0-94.6-25.6-94.6-105.3c0-80.5,13.7-114.1,98.5-114.1c89.9,0,98,31.1,98,120.1
		C833.2,884.9,807.4,910,731.2,910z M735.8,794.1c-4.6,0-5.6,0.5-5.8,0.7c0,0-0.9,1.2-0.9,6.1c0,5.1,1.7,6.8,6.8,6.8
		c4.8,0,5.9-0.5,6.1-0.7l0,0c0,0,0.7-1.3,0.7-6.1c0-4.1-0.3-5.6-0.5-6C741.6,794.7,740.1,794.1,735.8,794.1z"/>
	<path class="st5" d="M644.6,804.6c0-79.2,13.3-106.2,90.6-106.2c81.5,0,90,23.3,90,112.1c0,70.7-22.4,91.4-94,91.4
		C663.7,902,644.6,879.3,644.6,804.6z M750.5,800.9c0-10.5-1.7-14.8-14.8-14.8c-9.1,0-14.8,1.4-14.8,14.8c0,9.4,5.1,14.8,14.8,14.8
		C746.6,815.7,750.5,813.4,750.5,800.9z"/>
	<path class="st4" d="M985.3,910c-16.2,0-28.8-13.1-39-23.6c-3.3-3.5-8.3-8.6-10.5-9.6c-3,0.4-3.9,5.5-4.2,8.6
		c-2.1,23.8-23.9,23.8-38.3,23.8c-51,0-56.2-17.5-56.2-92.6c0-86.2,0-125.5,52-125.5c25.8,0,37.3,8,39.7,27.4
		c0.4,2.8,0.8,4.8,1.1,6.2c2-1.9,4.6-5.2,6.5-7.6c8.2-10.4,20.7-26,43.2-26c30,0,50.8,31.4,50.8,59.6c0,19.7-18.2,30.1-31.5,37.7
		c-3.3,1.9-7.8,4.5-10.2,6.4c2.3,1.7,6.4,4,9.6,5.8c14.7,8.3,36.9,20.8,36.9,46C1035.3,875.9,1013.4,910,985.3,910z"/>
	<path class="st5" d="M936.2,868.8c-7.1,0-11.6,5.7-12.5,15.9c-1.4,16.2-15.3,16.5-30.4,16.5c-42.6,0-48.3-8.5-48.3-84.6
		c0-94,2.8-117.5,44-117.5c26.4,0,30.4,8.8,31.8,20.4c0.9,6.2,2.6,14.8,6.8,14.8c13.3,0,21-35.2,52-35.2c24.1,0,42.9,26.7,42.9,51.7
		c0,25.3-42.9,32.6-42.9,44.3c0,11.4,47.7,19,47.7,51.7c0,24.7-18.7,55.4-42,55.4C963.7,902,946.4,868.8,936.2,868.8z"/>
	<path class="st4" d="M1192.2,912.2c-30,0-45.2-4.4-50.4-29.6c-1.9-9-2.3-9-6.4-9c-3.5,0-5,0.9-7.3,10.1
		c-5.8,24.1-23,24.5-46.7,25.1h-5.6c-26.1,0-42.3-6.3-42.3-37.5c0-22.8,20-145.3,30.7-162.9c10.8-17.3,28.6-18.6,56.5-18.6h18.2
		c34.4,0,61.6,0,74.1,45c6.2,22.1,24.4,123.9,24.4,144.6C1237.4,912.2,1215.5,912.2,1192.2,912.2z M1127,800.1
		c0.5,0.2,2,0.5,5.9,0.5c5.4,0,6.5-1.1,6.5-6.5c0-3.9-0.4-5.4-0.5-5.9c-0.5-0.2-2-0.6-6-0.6c-3.8,0-5.3,0.3-5.8,0.5
		c-0.2,0.5-0.7,2.1-0.7,6C1126.4,798.1,1126.8,799.6,1127,800.1z"/>
	<path class="st5" d="M1149.6,881c-1.7-8.2-3.1-15.3-14.2-15.3c-10.5,0-13.1,8.2-15,16.2c-4.3,17.6-14.2,18.5-39.2,19h-5.4
		c-23.8,0-34.4-4.5-34.4-29.5c0-23,20.2-143.4,29.5-158.7c8.5-13.6,23-14.8,49.7-14.8h18.2c34.6,0,55.6,0.3,66.4,39.2
		c6.2,22.1,24.1,123.2,24.1,142.5c0,23.8-11.9,24.7-37.2,24.7C1163,904.3,1153.6,900.3,1149.6,881z M1147.4,794.1
		c0-11.1-2.3-14.5-14.5-14.5c-10.5,0-14.5,1.7-14.5,14.5c0,12.5,3.7,14.5,14.5,14.5C1144,808.6,1147.4,802.6,1147.4,794.1z"/>
	<path class="st4" d="M1348.1,908.6c-37.4,0-79.8,0-79.8-52c0-21-10.2-34.9-21-49.7c-11.6-15.9-23.6-32.3-23.6-57.6
		c0-0.1,0-0.2,0-0.3c1-27.2,27.2-61.6,55.4-61.6c19.4,0,30.7,12.3,39.1,21.3c5,5.5,9.4,10.2,13.2,10.2c2.5,0,6.4-4.8,9.8-9
		c6.9-8.4,16.4-20,33-20c25.2,0,65.3,35.4,65.3,64.8c0,25.8-15.5,46.7-28,63.4c-6.9,9.3-14,18.9-14,24.3
		C1397.5,891.2,1390,908.6,1348.1,908.6z"/>
	<path class="st5" d="M1276.2,856.6c0-46.8-44.6-61.6-44.6-107.3c0.9-24.1,24.7-53.9,47.4-53.9c28.1,0,35.5,31.5,52.2,31.5
		c14.2,0,19.9-29,42.9-29c19.9,0,57.3,30.9,57.3,56.8c0,39.5-42,68.1-42,87.7c0,49.1-7.9,58.2-41.4,58.2
		C1305.8,900.6,1276.2,898.3,1276.2,856.6z"/>
	<path class="st4" d="M933.9,1240.8c-24.2,0-64.8,0-64.8-36.9l0.6-79.8c0-7.6,0-9-10.5-9c-9.1,0-30.1-4.3-30.1-44.3
		c0-50.3,39.6-54,104.8-54c52.9,0,107.1,6,107.1,50.3c0,21-3.4,48.9-32.7,48.9c-5,0-7.1,0.5-8,0.7c-0.3,1.3-0.3,4.2-0.3,6.6v0.6
		c0,6.3,0.3,18.8,0.6,32.1c0.4,17.2,0.8,36.7,0.8,49.6C1001.5,1228.9,978.8,1240.8,933.9,1240.8z"/>
	<path class="st5" d="M877.1,1203.8l0.6-79.8c0-12.5-4-17-18.5-17c-13.1,0-22.1-11.1-22.1-36.3c0-40.9,27.3-46,96.8-46
		c63,0,99.1,9.4,99.1,42.3c0,34.4-11.1,40.9-24.7,40.9c-16.5,0-16.2,4.3-16.2,15.9c0,14.5,1.4,58.8,1.4,81.8
		c0,18.2-19.6,27.3-59.6,27.3C903,1232.8,877.1,1230,877.1,1203.8z"/>
	<path class="st4" d="M1133.7,1240.2c-71.6,0-94.6-25.6-94.6-105.3c0-80.5,13.7-114.1,98.5-114.1c89.9,0,98,31.1,98,120.1
		C1235.7,1215.1,1210,1240.2,1133.7,1240.2z M1138.3,1124.4c-4.6,0-5.6,0.5-5.8,0.7c0,0-0.9,1.2-0.9,6.1c0,5.1,1.7,6.8,6.8,6.8
		c4.8,0,5.9-0.5,6.1-0.7l0,0c0,0,0.7-1.3,0.7-6.1c0-4.1-0.3-5.6-0.5-6C1144.1,1124.9,1142.6,1124.4,1138.3,1124.4z"/>
	<path class="st5" d="M1047.2,1134.9c0-79.2,13.3-106.2,90.6-106.2c81.5,0,90,23.3,90,112.1c0,70.7-22.4,91.4-94,91.4
		C1066.2,1232.2,1047.2,1209.5,1047.2,1134.9z M1153.1,1131.2c0-10.5-1.7-14.8-14.8-14.8c-9.1,0-14.8,1.4-14.8,14.8
		c0,9.4,5.1,14.8,14.8,14.8C1149.1,1145.9,1153.1,1143.7,1153.1,1131.2z"/>
	<path class="st4" d="M347.4,1573.6c-41.8,0-99.1,0-99.1-47.2c0-26.3,10.5-31.8,19.3-31.8c8.5,0,14.4,1.7,18.7,2.9
		c1.9,0.5,3.7,1,4.5,1c4.5,0,5.5-0.9,5.5-1c0,0,0.1-0.3,0.1-1c0-6.7-1.3-8.3-9.7-12.4c-29.4-13.9-41.4-31.5-41.4-60.8
		c0-47.6,34.4-73.8,96.8-73.8c61.4,0,92.6,19.5,92.6,57.9c0,16.7-7.7,27.8-19,27.8c-3.5,0-6.8-1-10.3-2c-3.8-1.1-7.8-2.3-12.7-2.3
		c-4,0-4.2,2.9-4.2,4.8c1.2,1.8,7.4,5.2,11.6,7.5c15.7,8.5,42,22.7,42,59.3C442.3,1561.5,404.4,1573.6,347.4,1573.6z"/>
	<path class="st5" d="M256.3,1526.4c0-18.5,5.1-23.8,11.4-23.8c12.2,0,18.2,4,23.3,4c4.3,0,13.6-0.6,13.6-9.9
		c0-11.4-4.8-15-14.2-19.6c-25.8-12.2-36.9-26.7-36.9-53.7c0-53.4,46.6-65.9,88.9-65.9c32.6,0,84.6,4.8,84.6,50
		c0,11.1-4,19.9-11.1,19.9c-5.7,0-12.5-4.3-23-4.3c-4.3,0-12.2,2.3-12.2,13.1c0,15.6,53.7,16.7,53.7,66.4c0,47.7-25.5,63-86.9,63
		C295.5,1565.6,256.3,1561.6,256.3,1526.4z"/>
	<path class="st4" d="M542.4,1571c-24.2,0-64.8,0-64.8-36.9l0.6-79.8c0-7.6,0-9-10.5-9c-9.1,0-30.1-4.3-30.1-44.3
		c0-50.3,39.6-54,104.8-54c52.9,0,107.1,6,107.1,50.3c0,21-3.4,48.9-32.7,48.9c-5,0-7.1,0.5-8,0.7c-0.3,1.3-0.3,4.2-0.3,6.6v0.6
		c0,6.3,0.3,18.8,0.6,32.1c0.4,17.2,0.8,36.7,0.8,49.6C610,1559.2,587.3,1571,542.4,1571z"/>
	<path class="st5" d="M485.7,1534.1l0.6-79.8c0-12.5-4-17-18.5-17c-13.1,0-22.1-11.1-22.1-36.3c0-40.9,27.3-46,96.8-46
		c63,0,99.1,9.4,99.1,42.3c0,34.4-11.1,40.9-24.7,40.9c-16.5,0-16.2,4.3-16.2,15.9c0,14.5,1.4,58.8,1.4,81.8
		c0,18.2-19.6,27.3-59.6,27.3C511.5,1563,485.7,1560.2,485.7,1534.1z"/>
	<path class="st4" d="M799.9,1571.9c-24.6,0-38.9-18.1-48.4-30c-1.6-2-3.6-4.5-5.1-6.2c-0.9,2.4-1.6,6.3-1.9,8.1
		c-4.4,25.4-25.5,27.5-46.7,27.5c-39.2,0-50-23.7-50-110.2c0-95.7,7.2-111,106.8-111c61.4,0,92.6,20.5,92.6,61.1
		c0,33.5-9.7,45-19.7,54c-2.7,2.5-3.6,3.4-3.8,4.1c1.1,1.8,4.5,5.4,7.1,8.1c9.1,9.5,21.5,22.5,21.5,38.8
		C852.2,1546.4,828.2,1571.9,799.9,1571.9z M739.8,1440.4c0.5,0.2,2,0.5,5.9,0.5c5.4,0,6.5-1.1,6.5-6.5c0-3.9-0.4-5.4-0.5-5.9
		c-0.5-0.2-2-0.6-6-0.6c-3.8,0-5.3,0.3-5.8,0.5c-0.2,0.5-0.7,2.1-0.7,6C739.2,1438.4,739.6,1439.9,739.8,1440.4z"/>
	<path class="st5" d="M746.3,1526.4c-6.5,0-8.2,8.2-9.7,15.9c-2.8,16.5-12.8,21-38.9,21c-29.5,0-42-10.8-42-102.2
		c0-91.4,4-103.1,98.8-103.1c52,0,84.6,14.8,84.6,53.1c0,50-23.6,44.9-23.6,58.8c0,8.2,28.7,25,28.7,46.3
		c0,24.7-19.9,47.7-44.3,47.7C768.1,1563.9,755.4,1526.4,746.3,1526.4z M760.2,1434.4c0-11.1-2.3-14.5-14.5-14.5
		c-10.5,0-14.5,1.7-14.5,14.5c0,12.5,3.7,14.5,14.5,14.5C756.8,1448.9,760.2,1443,760.2,1434.4z"/>
	<path class="st4" d="M947.8,1571.3c-26.6,0-53.7-3.1-71.3-25.9c-16.1-20.8-23.2-55.9-23.2-114.1c0-57.9,5.5-81.5,60.5-81.5
		c16.8,0,34.9,10.4,34.9,33.2c0,7.2,0.7,15.9,4.2,15.9c1.5,0,5.9,0,6.6-0.8c0.5-0.6,2.2-3.5,2.2-15.6c0-28.8,20.7-32.7,40.9-32.7
		c47.3,0,56.2,35,56.2,99.7C1058.8,1546.2,1036,1571.3,947.8,1571.3z"/>
	<path class="st5" d="M861.2,1431.3c0-58.2,5.4-73.5,52.5-73.5c13.1,0,27,7.4,27,25.3c0,18.2,4.5,23.8,12.2,23.8
		c11.4,0,16.7-1.4,16.7-24.4c0-17.9,8.2-24.7,32.9-24.7c37.8,0,48.3,22.7,48.3,91.7c0,90.3-18.2,113.8-103.1,113.8
		C889.9,1563.3,861.2,1546.6,861.2,1431.3z"/>
	<path class="st4" d="M1153.6,1571.6c-60.2,0-89.4-25.6-89.4-78.4c0-119.7,9.3-143.1,115.9-143.1c44.9,0,72.7,9.1,72.7,54.5
		c0,35.8-26.7,35.8-67,35.8c-10.3,0-15.9,3.2-15.9,19.8c0,12.7,2.3,12.7,5.4,12.7c4.3,0,4.5-1.2,4.5-3.9c0-17,9.6-25.3,29.3-25.3
		c34.8,0,47.7,12.5,47.7,46.3c0,31.4-3.8,55-22.5,68.2C1218.2,1569.5,1194.5,1571.6,1153.6,1571.6z"/>
	<path class="st5" d="M1072.1,1493.2c0-114.7,6-135.1,107.9-135.1c49.7,0,64.7,12.8,64.7,46.6c0,27.8-18.7,27.8-59,27.8
		c-17,0-23.8,9.4-23.8,27.8c0,7.7,0,20.7,13.3,20.7c9.1,0,12.5-5.1,12.5-11.9c0-10.2,3.4-17.3,21.3-17.3c29,0,39.7,7.9,39.7,38.3
		c0,66.4-19.3,73.5-95.1,73.5C1099.1,1563.6,1072.1,1542.9,1072.1,1493.2z"/>
	<path class="st4" d="M1351.5,1571.6c-60.2,0-89.4-25.6-89.4-78.4c0-119.7,9.3-143.1,115.9-143.1c44.9,0,72.7,9.1,72.7,54.5
		c0,35.8-26.7,35.8-67,35.8c-10.3,0-15.9,3.2-15.9,19.8c0,12.7,2.3,12.7,5.4,12.7c4.3,0,4.5-1.2,4.5-3.9c0-17,9.6-25.3,29.3-25.3
		c34.8,0,47.7,12.5,47.7,46.3c0,31.4-3.8,55-22.5,68.2C1416.1,1569.5,1392.4,1571.6,1351.5,1571.6z"/>
	<path class="st5" d="M1270,1493.2c0-114.7,6-135.1,107.9-135.1c49.7,0,64.7,12.8,64.7,46.6c0,27.8-18.7,27.8-59,27.8
		c-17,0-23.8,9.4-23.8,27.8c0,7.7,0,20.7,13.3,20.7c9.1,0,12.5-5.1,12.5-11.9c0-10.2,3.4-17.3,21.3-17.3c29,0,39.7,7.9,39.7,38.3
		c0,66.4-19.3,73.5-95.1,73.5C1297,1563.6,1270,1542.9,1270,1493.2z"/>
	<path class="st4" d="M1561.3,1571.6c-43.7,0-70.2-3.7-84.7-23c-14.2-18.9-15.2-50.4-15.2-100.2c0-47.6,3-69.1,11.5-82.2
		c10.3-15.9,27.9-17.2,49.9-17.2c58.9,0,79.2,2.5,79.2,52.5c0,12.4-0.5,45.2-0.8,66.9c-0.2,10.7-0.3,18.7-0.3,20.2
		c0,1.1,0.1,1.8,0.2,2.2c2.1,0.6,8,0.6,10,0.6c17.6,0,29,13,29,33.2C1639.9,1569.3,1610,1571.6,1561.3,1571.6z"/>
	<path class="st5" d="M1469.3,1448.3c0-85.7,9.4-91.4,53.4-91.4c60.5,0,71.3,3.1,71.3,44.6c0,18.5-1.1,82.6-1.1,87.2
		c0,9.9,4.8,10.8,18.2,10.8c16.2,0,21,13.6,21,25.3c0,34.1-16.5,38.9-70.7,38.9C1475,1563.6,1469.3,1549.1,1469.3,1448.3z"/>
	<path class="st4" d="M1750.9,1571c-55.5,0-108,0-109-56.9c-1.4-87.3,4.9-123.5,24.8-143.8c16.6-16.9,41.6-20.2,79.1-20.2
		c43.7,0,77.1,2.7,77.5,36.8c0.3,10.7-2.3,19.1-7.7,24.7c-5.1,5.3-12.3,7.8-21.8,7.8c-6.4,0-7.9,1.1-8.2,1.4
		c-0.3,0.3-0.6,1.3-0.6,3.2c0.1,4.1,0.2,7.3,14.5,7.3c15.3,0,25.1,10.7,25.6,27.9c0.2,10.9-2.4,19.3-7.8,24.8
		c-4.3,4.4-10.1,6.7-16.9,6.7c-13.3,0-13.3,2.7-13.3,6.8c0.2,6.4,7.6,6.5,7.6,6.5c18,0,26.7,15.3,27.3,30.4
		c0.1,8.3-0.7,18.4-7.9,25.6C1804.1,1570,1787.2,1571,1750.9,1571z"/>
	<path class="st5" d="M1649.8,1513.9c-2.3-141.1,14.8-155.9,96-155.9c47.7,0,69.3,4.3,69.6,29c0.6,19.9-9.7,24.4-21.6,24.4
		c-9.7,0-17,2-16.7,12.8c0.3,13.3,10.8,15,22.4,15c12.8,0,17.3,9.4,17.6,20.2c0.3,13.1-4.3,23.3-16.7,23.3
		c-19.6,0-21.3,7.4-21.3,14.8c0.3,10.8,9.9,14.5,15.6,14.5c15.6,0,19,15.3,19.3,22.7c0.3,26.4-12.5,28.4-63,28.4
		C1688.4,1563,1650.7,1559.9,1649.8,1513.9z"/>
	<path class="st4" d="M796.9,562c-56.2,0-59.1-28.5-59.1-110.7c0-83.9,4.7-111,61.1-111c39.5,0,57.1,18.6,57.1,60.2
		c0,77.8-2.6,112.5-9.8,132.8C836.6,559.8,817.4,562,796.9,562z"/>
	<path class="st6" d="M745.8,451.3c0-85.4,5.4-103.1,53.1-103.1c36.1,0,49.1,16.2,49.1,52.2c0,142.2-7.9,153.6-51.1,153.6
		C748.9,554.1,745.8,534.8,745.8,451.3z"/>
	<path class="st4" d="M959,560.6c-24.2,0-64.8,0-64.8-36.9l0.6-79.8c0-7.6,0-9-10.5-9c-9.1,0-30.1-4.3-30.1-44.3
		c0-50.3,39.6-54,104.8-54c52.9,0,107.1,6,107.1,50.3c0,21-3.4,48.9-32.7,48.9c-5,0-7.1,0.5-8,0.7c-0.3,1.3-0.3,4.2-0.3,6.6v0.6
		c0,6.3,0.3,18.8,0.6,32.1c0.4,17.2,0.8,36.7,0.8,49.6C1026.5,548.8,1003.8,560.6,959,560.6z"/>
	<path class="st6" d="M902.2,523.7l0.6-79.8c0-12.5-4-17-18.5-17c-13.1,0-22.1-11.1-22.1-36.3c0-40.9,27.3-46,96.8-46
		c63,0,99.1,9.4,99.1,42.3c0,34.4-11.1,40.9-24.7,40.9c-16.5,0-16.2,4.3-16.2,15.9c0,14.5,1.4,58.8,1.4,81.8
		c0,18.2-19.6,27.3-59.6,27.3C928,552.6,902.2,549.8,902.2,523.7z"/>
	<path class="st4" d="M1273.1,563.2c-41.8,0-99.1,0-99.1-47.2c0-26.3,10.5-31.8,19.3-31.8c8.5,0,14.4,1.7,18.7,2.9
		c1.9,0.5,3.7,1,4.5,1c4.5,0,5.5-0.9,5.5-1c0,0,0.1-0.3,0.1-1c0-6.7-1.3-8.3-9.7-12.4c-29.4-13.9-41.4-31.5-41.4-60.8
		c0-47.6,34.4-73.8,96.8-73.8c61.4,0,92.6,19.5,92.6,57.9c0,16.7-7.7,27.8-19,27.8c-3.5,0-6.8-1-10.3-2c-3.8-1.1-7.8-2.3-12.7-2.3
		c-4,0-4.2,2.9-4.2,4.8c1.2,1.8,7.4,5.2,11.6,7.5c15.7,8.5,42,22.7,42,59.3C1368,551.1,1330.1,563.2,1273.1,563.2z"/>
	<path class="st6" d="M1182,516c0-18.5,5.1-23.8,11.4-23.8c12.2,0,18.2,4,23.3,4c4.3,0,13.6-0.6,13.6-9.9c0-11.4-4.8-15-14.2-19.6
		c-25.8-12.2-36.9-26.7-36.9-53.7c0-53.4,46.6-65.9,88.9-65.9c32.6,0,84.6,4.8,84.6,50c0,11.1-4,19.9-11.1,19.9
		c-5.7,0-12.5-4.3-23-4.3c-4.3,0-12.2,2.3-12.2,13.1c0,15.6,53.7,16.7,53.7,66.4c0,47.7-25.5,63-86.9,63
		C1221.2,555.2,1182,551.2,1182,516z"/>
	<path class="st4" d="M710.7,890.3c-71.6,0-94.6-25.6-94.6-105.3c0-80.5,13.7-114.1,98.5-114.1c89.9,0,98,31.1,98,120.1
		C812.7,865.2,787,890.3,710.7,890.3z M715.3,774.5c-4.6,0-5.6,0.5-5.8,0.7c0,0-0.9,1.2-0.9,6.1c0,5.1,1.7,6.8,6.8,6.8
		c4.8,0,5.9-0.5,6.1-0.7l0,0c0,0,0.7-1.3,0.7-6.1c0-4.1-0.3-5.6-0.5-6C721.1,775,719.6,774.5,715.3,774.5z"/>
	<path class="st6" d="M624.2,784.9c0-79.2,13.3-106.2,90.6-106.2c81.5,0,90,23.3,90,112.1c0,70.7-22.4,91.4-94,91.4
		C643.2,882.3,624.2,859.6,624.2,784.9z M730,781.2c0-10.5-1.7-14.8-14.8-14.8c-9.1,0-14.8,1.4-14.8,14.8c0,9.4,5.1,14.8,14.8,14.8
		C726.1,796,730,793.7,730,781.2z"/>
	<path class="st4" d="M964.8,890.3c-16.2,0-28.8-13.1-39-23.6c-3.3-3.5-8.3-8.6-10.5-9.6c-3,0.4-3.9,5.5-4.2,8.6
		c-2.1,23.8-23.9,23.8-38.3,23.8c-51,0-56.2-17.5-56.2-92.6c0-86.2,0-125.5,52-125.5c25.8,0,37.3,8,39.7,27.4
		c0.4,2.8,0.8,4.8,1.1,6.2c2-1.9,4.6-5.2,6.5-7.6c8.2-10.4,20.7-26,43.2-26c30,0,50.8,31.4,50.8,59.6c0,19.7-18.2,30.1-31.5,37.7
		c-3.3,1.9-7.8,4.5-10.2,6.4c2.3,1.7,6.4,4,9.6,5.8c14.7,8.3,36.9,20.8,36.9,46C1014.8,856.2,993,890.3,964.8,890.3z"/>
	<path class="st6" d="M915.7,849.1c-7.1,0-11.6,5.7-12.5,15.9c-1.4,16.2-15.3,16.5-30.4,16.5c-42.6,0-48.3-8.5-48.3-84.6
		c0-94,2.8-117.5,44-117.5c26.4,0,30.4,8.8,31.8,20.4c0.9,6.2,2.6,14.8,6.8,14.8c13.3,0,21-35.2,52-35.2c24.1,0,42.9,26.7,42.9,51.7
		c0,25.3-42.9,32.6-42.9,44.3c0,11.4,47.7,19,47.7,51.7c0,24.7-18.7,55.4-42,55.4C943.2,882.3,925.9,849.1,915.7,849.1z"/>
	<path class="st4" d="M1171.7,892.6c-30,0-45.2-4.4-50.4-29.6c-1.9-9-2.3-9-6.4-9c-3.5,0-5,0.9-7.3,10.1
		c-5.8,24.1-23,24.5-46.7,25.1h-5.6c-26.1,0-42.3-6.3-42.3-37.5c0-22.8,20-145.3,30.7-162.9c10.8-17.3,28.6-18.6,56.5-18.6h18.2
		c34.4,0,61.6,0,74.1,45c6.2,22.1,24.4,123.9,24.4,144.6C1216.9,892.6,1195,892.6,1171.7,892.6z M1106.5,780.4
		c0.5,0.2,2,0.5,5.9,0.5c5.4,0,6.5-1.1,6.5-6.5c0-3.9-0.4-5.4-0.5-5.9c-0.5-0.2-2-0.6-6-0.6c-3.8,0-5.3,0.3-5.8,0.5
		c-0.2,0.5-0.7,2.1-0.7,6C1105.9,778.4,1106.4,779.9,1106.5,780.4z"/>
	<path class="st6" d="M1129.2,861.3c-1.7-8.2-3.1-15.3-14.2-15.3c-10.5,0-13.1,8.2-15,16.2c-4.3,17.6-14.2,18.5-39.2,19h-5.4
		c-23.8,0-34.4-4.5-34.4-29.5c0-23,20.2-143.4,29.5-158.7c8.5-13.6,23-14.8,49.7-14.8h18.2c34.6,0,55.6,0.3,66.4,39.2
		c6.2,22.1,24.1,123.2,24.1,142.5c0,23.8-11.9,24.7-37.2,24.7C1142.5,884.6,1133.1,880.6,1129.2,861.3z M1126.9,774.4
		c0-11.1-2.3-14.5-14.5-14.5c-10.5,0-14.5,1.7-14.5,14.5c0,12.5,3.7,14.5,14.5,14.5C1123.5,788.9,1126.9,782.9,1126.9,774.4z"/>
	<path class="st4" d="M1327.6,888.9c-37.4,0-79.8,0-79.8-52c0-21-10.2-34.9-21-49.7c-11.6-15.9-23.6-32.3-23.6-57.6
		c0-0.1,0-0.2,0-0.3c1-27.2,27.2-61.6,55.4-61.6c19.4,0,30.7,12.3,39.1,21.3c5,5.5,9.4,10.2,13.2,10.2c2.5,0,6.4-4.8,9.8-9
		c6.9-8.4,16.4-20,33-20c25.2,0,65.3,35.4,65.3,64.8c0,25.8-15.5,46.7-28,63.4c-6.9,9.3-14,18.9-14,24.3
		C1377,871.5,1369.5,888.9,1327.6,888.9z"/>
	<path class="st6" d="M1255.8,836.9c0-46.8-44.6-61.6-44.6-107.3c0.9-24.1,24.7-53.9,47.4-53.9c28.1,0,35.5,31.5,52.2,31.5
		c14.2,0,19.9-29,42.9-29c19.9,0,57.3,30.9,57.3,56.8c0,39.5-42,68.1-42,87.7c0,49.1-7.9,58.2-41.4,58.2
		C1285.3,880.9,1255.8,878.6,1255.8,836.9z"/>
	<path class="st4" d="M913.4,1221.1c-24.2,0-64.8,0-64.8-36.9l0.6-79.8c0-7.6,0-9-10.5-9c-9.1,0-30.1-4.3-30.1-44.3
		c0-50.3,39.6-54,104.8-54c52.9,0,107.1,6,107.1,50.3c0,21-3.4,48.9-32.7,48.9c-5,0-7.1,0.5-8,0.7c-0.3,1.3-0.3,4.2-0.3,6.6v0.6
		c0,6.3,0.3,18.8,0.6,32.1c0.4,17.2,0.8,36.7,0.8,49.6C981,1209.2,958.3,1221.1,913.4,1221.1z"/>
	<path class="st6" d="M856.6,1184.2l0.6-79.8c0-12.5-4-17-18.5-17c-13.1,0-22.1-11.1-22.1-36.3c0-40.9,27.3-46,96.8-46
		c63,0,99.1,9.4,99.1,42.3c0,34.4-11.1,40.9-24.7,40.9c-16.5,0-16.2,4.3-16.2,15.9c0,14.5,1.4,58.8,1.4,81.8
		c0,18.2-19.6,27.3-59.6,27.3C882.5,1213.1,856.6,1210.3,856.6,1184.2z"/>
	<path class="st4" d="M1113.3,1220.5c-71.6,0-94.6-25.6-94.6-105.3c0-80.5,13.7-114.1,98.5-114.1c89.9,0,98,31.1,98,120.1
		C1215.2,1195.4,1189.5,1220.5,1113.3,1220.5z M1117.8,1104.7c-4.6,0-5.6,0.5-5.8,0.7c0,0-0.9,1.2-0.9,6.1c0,5.1,1.7,6.8,6.8,6.8
		c4.8,0,5.9-0.5,6.1-0.7l0,0c0,0,0.7-1.3,0.7-6.1c0-4.1-0.3-5.6-0.5-6C1123.6,1105.2,1122.1,1104.7,1117.8,1104.7z"/>
	<path class="st6" d="M1026.7,1115.2c0-79.2,13.3-106.2,90.6-106.2c81.5,0,90,23.3,90,112.1c0,70.7-22.4,91.4-94,91.4
		C1045.7,1212.5,1026.7,1189.8,1026.7,1115.2z M1132.6,1111.5c0-10.5-1.7-14.8-14.8-14.8c-9.1,0-14.8,1.4-14.8,14.8
		c0,9.4,5.1,14.8,14.8,14.8C1128.6,1126.2,1132.6,1124,1132.6,1111.5z"/>
	<path class="st4" d="M326.9,1553.9c-41.8,0-99.1,0-99.1-47.2c0-26.3,10.5-31.8,19.3-31.8c8.5,0,14.4,1.7,18.7,2.9
		c1.9,0.5,3.7,1,4.5,1c4.5,0,5.5-0.9,5.5-1c0,0,0.1-0.3,0.1-1c0-6.7-1.3-8.3-9.7-12.4c-29.4-13.9-41.4-31.5-41.4-60.8
		c0-47.6,34.4-73.8,96.8-73.8c61.4,0,92.6,19.5,92.6,57.9c0,16.7-7.7,27.8-19,27.8c-3.5,0-6.8-1-10.3-2c-3.8-1.1-7.8-2.3-12.7-2.3
		c-4,0-4.2,2.9-4.2,4.8c1.2,1.8,7.4,5.2,11.6,7.5c15.7,8.5,42,22.7,42,59.3C421.8,1541.8,383.9,1553.9,326.9,1553.9z"/>
	<path class="st6" d="M235.8,1506.7c0-18.5,5.1-23.8,11.4-23.8c12.2,0,18.2,4,23.3,4c4.3,0,13.6-0.6,13.6-9.9
		c0-11.4-4.8-15-14.2-19.6c-25.8-12.2-36.9-26.7-36.9-53.7c0-53.4,46.6-65.9,88.9-65.9c32.6,0,84.6,4.8,84.6,50
		c0,11.1-4,19.9-11.1,19.9c-5.7,0-12.5-4.3-23-4.3c-4.3,0-12.2,2.3-12.2,13.1c0,15.6,53.7,16.7,53.7,66.4c0,47.7-25.5,63-86.9,63
		C275,1545.9,235.8,1541.9,235.8,1506.7z"/>
	<path class="st4" d="M522,1551.3c-24.2,0-64.8,0-64.8-36.9l0.6-79.8c0-7.6,0-9-10.5-9c-9.1,0-30.1-4.3-30.1-44.3
		c0-50.3,39.6-54,104.8-54c52.9,0,107.1,6,107.1,50.3c0,21-3.4,48.9-32.7,48.9c-5,0-7.1,0.5-8,0.7c-0.3,1.3-0.3,4.2-0.3,6.6v0.6
		c0,6.3,0.3,18.8,0.6,32.1c0.4,17.2,0.8,36.7,0.8,49.6C589.6,1539.5,566.8,1551.3,522,1551.3z"/>
	<path class="st6" d="M465.2,1514.4l0.6-79.8c0-12.5-4-17-18.5-17c-13.1,0-22.1-11.1-22.1-36.3c0-40.9,27.3-46,96.8-46
		c63,0,99.1,9.4,99.1,42.3c0,34.4-11.1,40.9-24.7,40.9c-16.5,0-16.2,4.3-16.2,15.9c0,14.5,1.4,58.8,1.4,81.8
		c0,18.2-19.6,27.3-59.6,27.3C491,1543.3,465.2,1540.5,465.2,1514.4z"/>
	<path class="st4" d="M779.4,1552.2c-24.6,0-38.9-18.1-48.4-30c-1.6-2-3.6-4.5-5.1-6.2c-0.9,2.4-1.6,6.3-1.9,8.1
		c-4.4,25.4-25.5,27.5-46.7,27.5c-39.2,0-50-23.7-50-110.2c0-95.7,7.2-111,106.8-111c61.4,0,92.6,20.5,92.6,61.1
		c0,33.5-9.7,45-19.7,54c-2.7,2.5-3.6,3.4-3.8,4.1c1.1,1.8,4.5,5.4,7.1,8.1c9.1,9.5,21.5,22.5,21.5,38.8
		C831.7,1526.7,807.8,1552.2,779.4,1552.2z M719.4,1420.7c0.5,0.2,2,0.5,5.9,0.5c5.4,0,6.5-1.1,6.5-6.5c0-3.9-0.4-5.4-0.5-5.9
		c-0.5-0.2-2-0.6-6-0.6c-3.8,0-5.3,0.3-5.8,0.5c-0.2,0.5-0.7,2.1-0.7,6C718.7,1418.7,719.2,1420.2,719.4,1420.7z"/>
	<path class="st6" d="M725.8,1506.7c-6.5,0-8.2,8.2-9.7,15.9c-2.8,16.5-12.8,21-38.9,21c-29.5,0-42-10.8-42-102.2
		c0-91.4,4-103.1,98.8-103.1c52,0,84.6,14.8,84.6,53.1c0,50-23.6,44.9-23.6,58.8c0,8.2,28.7,25,28.7,46.3
		c0,24.7-19.9,47.7-44.3,47.7C747.6,1544.2,734.9,1506.7,725.8,1506.7z M739.7,1414.7c0-11.1-2.3-14.5-14.5-14.5
		c-10.5,0-14.5,1.7-14.5,14.5c0,12.5,3.7,14.5,14.5,14.5C736.3,1429.2,739.7,1423.3,739.7,1414.7z"/>
	<path class="st4" d="M927.3,1551.6c-26.6,0-53.7-3.1-71.3-25.9c-16.1-20.8-23.2-55.9-23.2-114.1c0-57.9,5.5-81.5,60.5-81.5
		c16.8,0,34.9,10.4,34.9,33.2c0,7.2,0.7,15.9,4.2,15.9c1.5,0,5.9,0,6.6-0.8c0.5-0.6,2.2-3.5,2.2-15.6c0-28.8,20.7-32.7,40.9-32.7
		c47.3,0,56.2,35,56.2,99.7C1038.4,1526.6,1015.5,1551.6,927.3,1551.6z"/>
	<path class="st6" d="M840.7,1411.6c0-58.2,5.4-73.5,52.5-73.5c13.1,0,27,7.4,27,25.3c0,18.2,4.5,23.8,12.2,23.8
		c11.4,0,16.7-1.4,16.7-24.4c0-17.9,8.2-24.7,32.9-24.7c37.8,0,48.3,22.7,48.3,91.7c0,90.3-18.2,113.8-103.1,113.8
		C869.4,1543.6,840.7,1526.9,840.7,1411.6z"/>
	<path class="st4" d="M1133.1,1551.9c-60.2,0-89.4-25.6-89.4-78.4c0-119.7,9.3-143.1,115.9-143.1c44.9,0,72.7,9.1,72.7,54.5
		c0,35.8-26.7,35.8-67,35.8c-10.3,0-15.9,3.2-15.9,19.8c0,12.7,2.3,12.7,5.4,12.7c4.3,0,4.5-1.2,4.5-3.9c0-17,9.6-25.3,29.3-25.3
		c34.8,0,47.7,12.5,47.7,46.3c0,31.4-3.8,55-22.5,68.2C1197.7,1549.8,1174,1551.9,1133.1,1551.9z"/>
	<path class="st6" d="M1051.7,1473.5c0-114.7,6-135.1,107.9-135.1c49.7,0,64.7,12.8,64.7,46.6c0,27.8-18.7,27.8-59,27.8
		c-17,0-23.8,9.4-23.8,27.8c0,7.7,0,20.7,13.3,20.7c9.1,0,12.5-5.1,12.5-11.9c0-10.2,3.4-17.3,21.3-17.3c29,0,39.7,7.9,39.7,38.3
		c0,66.4-19.3,73.5-95.1,73.5C1078.6,1543.9,1051.7,1523.2,1051.7,1473.5z"/>
	<path class="st4" d="M1331,1551.9c-60.2,0-89.4-25.6-89.4-78.4c0-119.7,9.3-143.1,115.9-143.1c44.9,0,72.7,9.1,72.7,54.5
		c0,35.8-26.7,35.8-67,35.8c-10.3,0-15.9,3.2-15.9,19.8c0,12.7,2.3,12.7,5.4,12.7c4.3,0,4.5-1.2,4.5-3.9c0-17,9.6-25.3,29.3-25.3
		c34.8,0,47.7,12.5,47.7,46.3c0,31.4-3.8,55-22.5,68.2C1395.6,1549.8,1371.9,1551.9,1331,1551.9z"/>
	<path class="st6" d="M1249.5,1473.5c0-114.7,6-135.1,107.9-135.1c49.7,0,64.7,12.8,64.7,46.6c0,27.8-18.7,27.8-59,27.8
		c-17,0-23.8,9.4-23.8,27.8c0,7.7,0,20.7,13.3,20.7c9.1,0,12.5-5.1,12.5-11.9c0-10.2,3.4-17.3,21.3-17.3c29,0,39.7,7.9,39.7,38.3
		c0,66.4-19.3,73.5-95.1,73.5C1276.5,1543.9,1249.5,1523.2,1249.5,1473.5z"/>
	<path class="st4" d="M1540.8,1551.9c-43.7,0-70.2-3.7-84.7-23c-14.2-18.9-15.2-50.4-15.2-100.2c0-47.6,3-69.1,11.5-82.2
		c10.3-15.9,27.9-17.2,49.9-17.2c58.9,0,79.2,2.5,79.2,52.5c0,12.4-0.5,45.2-0.8,66.9c-0.2,10.7-0.3,18.7-0.3,20.2
		c0,1.1,0.1,1.8,0.2,2.2c2.1,0.6,8,0.6,10,0.6c17.6,0,29,13,29,33.2C1619.4,1549.6,1589.5,1551.9,1540.8,1551.9z"/>
	<path class="st6" d="M1448.8,1428.7c0-85.7,9.4-91.4,53.4-91.4c60.5,0,71.3,3.1,71.3,44.6c0,18.5-1.1,82.6-1.1,87.2
		c0,9.9,4.8,10.8,18.2,10.8c16.2,0,21,13.6,21,25.3c0,34.1-16.5,38.9-70.7,38.9C1454.5,1543.9,1448.8,1529.4,1448.8,1428.7z"/>
	<path class="st4" d="M1730.4,1551.3c-55.5,0-108,0-109-56.9c-1.4-87.3,4.9-123.5,24.8-143.8c16.6-16.9,41.6-20.2,79.1-20.2
		c43.7,0,77.1,2.7,77.5,36.8c0.3,10.7-2.3,19.1-7.7,24.7c-5.1,5.3-12.3,7.8-21.8,7.8c-6.4,0-7.9,1.1-8.2,1.4
		c-0.3,0.3-0.6,1.3-0.6,3.2c0.1,4.1,0.2,7.3,14.5,7.3c15.3,0,25.1,10.7,25.6,27.9c0.2,10.9-2.4,19.3-7.8,24.8
		c-4.3,4.4-10.1,6.7-16.9,6.7c-13.3,0-13.3,2.7-13.3,6.8c0.2,6.4,7.6,6.5,7.6,6.5c18,0,26.7,15.3,27.3,30.4
		c0.1,8.3-0.7,18.4-7.9,25.6C1783.6,1550.3,1766.7,1551.3,1730.4,1551.3z"/>
	<path class="st6" d="M1629.3,1494.2c-2.3-141.1,14.8-155.9,96-155.9c47.7,0,69.3,4.3,69.6,29c0.6,19.9-9.7,24.4-21.6,24.4
		c-9.7,0-17,2-16.7,12.8c0.3,13.3,10.8,15,22.4,15c12.8,0,17.3,9.4,17.6,20.2c0.3,13.1-4.3,23.3-16.7,23.3
		c-19.6,0-21.3,7.4-21.3,14.8c0.3,10.8,9.9,14.5,15.6,14.5c15.6,0,19,15.3,19.3,22.7c0.3,26.4-12.5,28.4-63,28.4
		C1667.9,1543.3,1630.2,1540.2,1629.3,1494.2z"/>
	<path class="st4" d="M774.4,541.5c-56.2,0-59.1-28.5-59.1-110.7c0-83.9,4.7-111,61.1-111c39.5,0,57.1,18.6,57.1,60.2
		c0,77.8-2.6,112.5-9.8,132.8C814.1,539.3,794.9,541.5,774.4,541.5z"/>
	<path class="st7" d="M723.3,430.8c0-85.4,5.4-103.1,53.1-103.1c36.1,0,49.1,16.2,49.1,52.2c0,142.2-7.9,153.6-51.1,153.6
		C726.4,533.5,723.3,514.2,723.3,430.8z"/>
	<path class="st4" d="M936.5,540.1c-24.2,0-64.8,0-64.8-36.9l0.6-79.8c0-7.6,0-9-10.5-9c-9.1,0-30.1-4.3-30.1-44.3
		c0-50.3,39.6-54,104.8-54c52.9,0,107.1,6,107.1,50.3c0,21-3.4,48.9-32.7,48.9c-5,0-7.1,0.5-8,0.7c-0.3,1.3-0.3,4.2-0.3,6.6v0.6
		c0,6.3,0.3,18.8,0.6,32.1c0.4,17.2,0.8,36.7,0.8,49.6C1004.1,528.2,981.3,540.1,936.5,540.1z"/>
	<path class="st7" d="M879.7,503.2l0.6-79.8c0-12.5-4-17-18.5-17c-13.1,0-22.1-11.1-22.1-36.3c0-40.9,27.3-46,96.8-46
		c63,0,99.1,9.4,99.1,42.3c0,34.4-11.1,40.9-24.7,40.9c-16.5,0-16.2,4.3-16.2,15.9c0,14.5,1.4,58.8,1.4,81.8
		c0,18.2-19.6,27.3-59.6,27.3C905.5,532.1,879.7,529.3,879.7,503.2z"/>
	<path class="st4" d="M1250.7,542.6c-41.8,0-99.1,0-99.1-47.2c0-26.3,10.5-31.8,19.3-31.8c8.5,0,14.4,1.7,18.7,2.9
		c1.9,0.5,3.7,1,4.5,1c4.5,0,5.5-0.9,5.5-1c0,0,0.1-0.3,0.1-1c0-6.7-1.3-8.3-9.7-12.4c-29.4-13.9-41.4-31.5-41.4-60.8
		c0-47.6,34.4-73.8,96.8-73.8c61.4,0,92.6,19.5,92.6,57.9c0,16.7-7.7,27.8-19,27.8c-3.5,0-6.8-1-10.3-2c-3.8-1.1-7.8-2.3-12.7-2.3
		c-4,0-4.2,2.9-4.2,4.8c1.2,1.8,7.4,5.2,11.6,7.5c15.7,8.5,42,22.7,42,59.3C1345.5,530.6,1307.6,542.6,1250.7,542.6z"/>
	<path class="st7" d="M1159.5,495.5c0-18.5,5.1-23.8,11.4-23.8c12.2,0,18.2,4,23.3,4c4.3,0,13.6-0.6,13.6-9.9
		c0-11.4-4.8-15-14.2-19.6c-25.8-12.2-36.9-26.7-36.9-53.7c0-53.4,46.6-65.9,88.9-65.9c32.6,0,84.6,4.8,84.6,50
		c0,11.1-4,19.9-11.1,19.9c-5.7,0-12.5-4.3-23-4.3c-4.3,0-12.2,2.3-12.2,13.1c0,15.6,53.7,16.7,53.7,66.4c0,47.7-25.5,63-86.9,63
		C1198.7,534.7,1159.5,530.7,1159.5,495.5z"/>
	<path class="st4" d="M688.3,869.7c-71.6,0-94.6-25.6-94.6-105.3c0-80.5,13.7-114.1,98.5-114.1c89.9,0,98,31.1,98,120.1
		C790.2,844.7,764.5,869.7,688.3,869.7z M692.8,753.9c-4.6,0-5.6,0.5-5.8,0.7c0,0-0.9,1.2-0.9,6.1c0,5.1,1.7,6.8,6.8,6.8
		c4.8,0,5.9-0.5,6.1-0.7l0,0c0,0,0.7-1.3,0.7-6.1c0-4.1-0.3-5.6-0.5-6C698.6,754.5,697.1,753.9,692.8,753.9z"/>
	<path class="st7" d="M601.7,764.4c0-79.2,13.3-106.2,90.6-106.2c81.5,0,90,23.3,90,112.1c0,70.7-22.4,91.4-94,91.4
		C620.7,861.8,601.7,839.1,601.7,764.4z M707.6,760.7c0-10.5-1.7-14.8-14.8-14.8c-9.1,0-14.8,1.4-14.8,14.8
		c0,9.4,5.1,14.8,14.8,14.8C703.6,775.5,707.6,773.2,707.6,760.7z"/>
	<path class="st4" d="M942.3,869.7c-16.2,0-28.8-13.1-39-23.6c-3.3-3.5-8.3-8.6-10.5-9.6c-3,0.4-3.9,5.5-4.2,8.6
		c-2.1,23.8-23.9,23.8-38.3,23.8c-51,0-56.2-17.5-56.2-92.6c0-86.2,0-125.5,52-125.5c25.8,0,37.3,8,39.7,27.4
		c0.4,2.8,0.8,4.8,1.1,6.2c2-1.9,4.6-5.2,6.5-7.6c8.2-10.4,20.7-26,43.2-26c30,0,50.8,31.4,50.8,59.6c0,19.7-18.2,30.1-31.5,37.7
		c-3.3,1.9-7.8,4.5-10.2,6.4c2.3,1.7,6.4,4,9.6,5.8c14.7,8.3,36.9,20.8,36.9,46C992.3,835.7,970.5,869.7,942.3,869.7z"/>
	<path class="st7" d="M893.2,828.6c-7.1,0-11.6,5.7-12.5,15.9c-1.4,16.2-15.3,16.5-30.4,16.5c-42.6,0-48.3-8.5-48.3-84.6
		c0-94,2.8-117.5,44-117.5c26.4,0,30.4,8.8,31.8,20.4c0.9,6.2,2.6,14.8,6.8,14.8c13.3,0,21-35.2,52-35.2c24.1,0,42.9,26.7,42.9,51.7
		c0,25.3-42.9,32.6-42.9,44.3c0,11.4,47.7,19,47.7,51.7c0,24.7-18.7,55.4-42,55.4C920.7,861.8,903.4,828.6,893.2,828.6z"/>
	<path class="st4" d="M1149.3,872c-30,0-45.2-4.4-50.4-29.6c-1.9-9-2.3-9-6.4-9c-3.5,0-5,0.9-7.3,10.1c-5.8,24.1-23,24.5-46.7,25.1
		h-5.6c-26.1,0-42.3-6.3-42.3-37.5c0-22.8,20-145.3,30.7-162.9c10.8-17.3,28.6-18.6,56.5-18.6h18.2c34.4,0,61.6,0,74.1,45
		c6.2,22.1,24.4,123.9,24.4,144.6C1194.4,872,1172.5,872,1149.3,872z M1084.1,759.9c0.5,0.2,2,0.5,5.9,0.5c5.4,0,6.5-1.1,6.5-6.5
		c0-3.9-0.4-5.4-0.5-5.9c-0.5-0.2-2-0.6-6-0.6c-3.8,0-5.3,0.3-5.8,0.5c-0.2,0.5-0.7,2.1-0.7,6
		C1083.4,757.9,1083.9,759.4,1084.1,759.9z"/>
	<path class="st7" d="M1106.7,840.8c-1.7-8.2-3.1-15.3-14.2-15.3c-10.5,0-13.1,8.2-15,16.2c-4.3,17.6-14.2,18.5-39.2,19h-5.4
		c-23.8,0-34.4-4.5-34.4-29.5c0-23,20.2-143.4,29.5-158.7c8.5-13.6,23-14.8,49.7-14.8h18.2c34.6,0,55.6,0.3,66.4,39.2
		c6.2,22.1,24.1,123.2,24.1,142.5c0,23.8-11.9,24.7-37.2,24.7C1120,864,1110.7,860.1,1106.7,840.8z M1104.4,753.9
		c0-11.1-2.3-14.5-14.5-14.5c-10.5,0-14.5,1.7-14.5,14.5c0,12.5,3.7,14.5,14.5,14.5C1101,768.4,1104.4,762.4,1104.4,753.9z"/>
	<path class="st4" d="M1305.1,868.3c-37.4,0-79.8,0-79.8-52c0-21-10.2-34.9-21-49.7c-11.6-15.9-23.6-32.3-23.6-57.6
		c0-0.1,0-0.2,0-0.3c1-27.2,27.2-61.6,55.4-61.6c19.4,0,30.7,12.3,39.1,21.3c5,5.5,9.4,10.2,13.2,10.2c2.5,0,6.4-4.8,9.8-9
		c6.9-8.4,16.4-20,33-20c25.2,0,65.3,35.4,65.3,64.8c0,25.8-15.5,46.7-28,63.4c-6.9,9.3-14,18.9-14,24.3
		C1354.5,851,1347.1,868.3,1305.1,868.3z"/>
	<path class="st7" d="M1233.3,816.4c0-46.8-44.6-61.6-44.6-107.3c0.9-24.1,24.7-53.9,47.4-53.9c28.1,0,35.5,31.5,52.2,31.5
		c14.2,0,19.9-29,42.9-29c19.9,0,57.3,30.9,57.3,56.8c0,39.5-42,68.1-42,87.7c0,49.1-7.9,58.2-41.4,58.2
		C1262.8,860.4,1233.3,858.1,1233.3,816.4z"/>
	<path class="st4" d="M890.9,1200.6c-24.2,0-64.8,0-64.8-36.9l0.6-79.8c0-7.6,0-9-10.5-9c-9.1,0-30.1-4.3-30.1-44.3
		c0-50.3,39.6-54,104.8-54c52.9,0,107.1,6,107.1,50.3c0,21-3.4,48.9-32.7,48.9c-5,0-7.1,0.5-8,0.7c-0.3,1.3-0.3,4.2-0.3,6.6v0.6
		c0,6.3,0.3,18.8,0.6,32.1c0.4,17.2,0.8,36.7,0.8,49.6C958.5,1188.7,935.8,1200.6,890.9,1200.6z"/>
	<path class="st7" d="M834.2,1163.6l0.6-79.8c0-12.5-4-17-18.5-17c-13.1,0-22.1-11.1-22.1-36.3c0-40.9,27.3-46,96.8-46
		c63,0,99.1,9.4,99.1,42.3c0,34.4-11.1,40.9-24.7,40.9c-16.5,0-16.2,4.3-16.2,15.9c0,14.5,1.4,58.8,1.4,81.8
		c0,18.2-19.6,27.3-59.6,27.3C860,1192.6,834.2,1189.7,834.2,1163.6z"/>
	<path class="st4" d="M1090.8,1200c-71.6,0-94.6-25.6-94.6-105.3c0-80.5,13.7-114.1,98.5-114.1c89.9,0,98,31.1,98,120.1
		C1192.7,1174.9,1167,1200,1090.8,1200z M1095.3,1084.2c-4.6,0-5.6,0.5-5.8,0.7c0,0-0.9,1.2-0.9,6.1c0,5.1,1.7,6.8,6.8,6.8
		c4.8,0,5.9-0.5,6.1-0.7l0,0c0,0,0.7-1.3,0.7-6.1c0-4.1-0.3-5.6-0.5-6C1101.2,1084.7,1099.6,1084.2,1095.3,1084.2z"/>
	<path class="st7" d="M1004.2,1094.6c0-79.2,13.3-106.2,90.6-106.2c81.5,0,90,23.3,90,112.1c0,70.7-22.4,91.4-94,91.4
		C1023.2,1192,1004.2,1169.3,1004.2,1094.6z M1110.1,1090.9c0-10.5-1.7-14.8-14.8-14.8c-9.1,0-14.8,1.4-14.8,14.8
		c0,9.4,5.1,14.8,14.8,14.8C1106.1,1105.7,1110.1,1103.4,1110.1,1090.9z"/>
	<path class="st4" d="M304.5,1533.3c-41.8,0-99.1,0-99.1-47.2c0-26.3,10.5-31.8,19.3-31.8c8.5,0,14.4,1.7,18.7,2.9
		c1.9,0.5,3.7,1,4.5,1c4.5,0,5.5-0.9,5.5-1c0,0,0.1-0.3,0.1-1c0-6.7-1.3-8.3-9.7-12.4c-29.4-13.9-41.4-31.5-41.4-60.8
		c0-47.6,34.4-73.8,96.8-73.8c61.4,0,92.6,19.5,92.6,57.9c0,16.7-7.7,27.8-19,27.8c-3.5,0-6.8-1-10.3-2c-3.8-1.1-7.8-2.3-12.7-2.3
		c-4,0-4.2,2.9-4.2,4.8c1.2,1.8,7.4,5.2,11.6,7.5c15.7,8.5,42,22.7,42,59.3C399.3,1521.3,361.4,1533.3,304.5,1533.3z"/>
	<path class="st7" d="M213.3,1486.2c0-18.5,5.1-23.8,11.4-23.8c12.2,0,18.2,4,23.3,4c4.3,0,13.6-0.6,13.6-9.9
		c0-11.4-4.8-15-14.2-19.6c-25.8-12.2-36.9-26.7-36.9-53.7c0-53.4,46.6-65.9,88.9-65.9c32.6,0,84.6,4.8,84.6,50
		c0,11.1-4,19.9-11.1,19.9c-5.7,0-12.5-4.3-23-4.3c-4.3,0-12.2,2.3-12.2,13.1c0,15.6,53.7,16.7,53.7,66.4c0,47.7-25.5,63-86.9,63
		C252.5,1525.4,213.3,1521.4,213.3,1486.2z"/>
	<path class="st4" d="M499.5,1530.8c-24.2,0-64.8,0-64.8-36.9l0.6-79.8c0-7.6,0-9-10.5-9c-9.1,0-30.1-4.3-30.1-44.3
		c0-50.3,39.6-54,104.8-54c52.9,0,107.1,6,107.1,50.3c0,21-3.4,48.9-32.7,48.9c-5,0-7.1,0.5-8,0.7c-0.3,1.3-0.3,4.2-0.3,6.6v0.6
		c0,6.3,0.3,18.8,0.6,32.1c0.4,17.2,0.8,36.7,0.8,49.6C567.1,1518.9,544.3,1530.8,499.5,1530.8z"/>
	<path class="st7" d="M442.7,1493.9l0.6-79.8c0-12.5-4-17-18.5-17c-13.1,0-22.1-11.1-22.1-36.3c0-40.9,27.3-46,96.8-46
		c63,0,99.1,9.4,99.1,42.3c0,34.4-11.1,40.9-24.7,40.9c-16.5,0-16.2,4.3-16.2,15.9c0,14.5,1.4,58.8,1.4,81.8
		c0,18.2-19.6,27.3-59.6,27.3C468.5,1522.8,442.7,1520,442.7,1493.9z"/>
	<path class="st4" d="M757,1531.6c-24.6,0-38.9-18.1-48.4-30c-1.6-2-3.6-4.5-5.1-6.2c-0.9,2.4-1.6,6.3-1.9,8.1
		c-4.4,25.4-25.5,27.5-46.7,27.5c-39.2,0-50-23.7-50-110.2c0-95.7,7.2-111,106.8-111c61.4,0,92.6,20.5,92.6,61.1
		c0,33.5-9.7,45-19.7,54c-2.7,2.5-3.6,3.4-3.8,4.1c1.1,1.8,4.5,5.4,7.1,8.1c9.1,9.5,21.5,22.5,21.5,38.8
		C809.2,1506.1,785.3,1531.6,757,1531.6z M696.9,1400.2c0.5,0.2,2,0.5,5.9,0.5c5.4,0,6.5-1.1,6.5-6.5c0-3.9-0.4-5.4-0.5-5.9
		c-0.5-0.2-2-0.6-6-0.6c-3.8,0-5.3,0.3-5.8,0.5c-0.2,0.5-0.7,2.1-0.7,6C696.2,1398.2,696.7,1399.7,696.9,1400.2z"/>
	<path class="st7" d="M703.3,1486.2c-6.5,0-8.2,8.2-9.7,15.9c-2.8,16.5-12.8,21-38.9,21c-29.5,0-42-10.8-42-102.2
		c0-91.4,4-103.1,98.8-103.1c52,0,84.6,14.8,84.6,53.1c0,50-23.6,44.9-23.6,58.8c0,8.2,28.7,25,28.7,46.3
		c0,24.7-19.9,47.7-44.3,47.7C725.2,1523.7,712.4,1486.2,703.3,1486.2z M717.2,1394.2c0-11.1-2.3-14.5-14.5-14.5
		c-10.5,0-14.5,1.7-14.5,14.5c0,12.5,3.7,14.5,14.5,14.5C713.8,1408.7,717.2,1402.7,717.2,1394.2z"/>
	<path class="st4" d="M904.8,1531.1c-26.6,0-53.7-3.1-71.3-25.9c-16.1-20.8-23.2-55.9-23.2-114.1c0-57.9,5.5-81.5,60.5-81.5
		c16.8,0,34.9,10.4,34.9,33.2c0,7.2,0.7,15.9,4.2,15.9c1.5,0,5.9,0,6.6-0.8c0.5-0.6,2.2-3.5,2.2-15.6c0-28.8,20.7-32.7,40.9-32.7
		c47.3,0,56.2,35,56.2,99.7C1015.9,1506,993,1531.1,904.8,1531.1z"/>
	<path class="st7" d="M818.3,1391.1c0-58.2,5.4-73.5,52.5-73.5c13.1,0,27,7.4,27,25.3c0,18.2,4.5,23.8,12.2,23.8
		c11.4,0,16.7-1.4,16.7-24.4c0-17.9,8.2-24.7,32.9-24.7c37.8,0,48.3,22.7,48.3,91.7c0,90.3-18.2,113.8-103.1,113.8
		C846.9,1523.1,818.3,1506.3,818.3,1391.1z"/>
	<path class="st4" d="M1110.7,1531.4c-60.2,0-89.4-25.6-89.4-78.4c0-119.7,9.3-143.1,115.9-143.1c44.9,0,72.7,9.1,72.7,54.5
		c0,35.8-26.7,35.8-67,35.8c-10.3,0-15.9,3.2-15.9,19.8c0,12.7,2.3,12.7,5.4,12.7c4.3,0,4.5-1.2,4.5-3.9c0-17,9.6-25.3,29.3-25.3
		c34.8,0,47.7,12.5,47.7,46.3c0,31.4-3.8,55-22.5,68.2C1175.3,1529.3,1151.6,1531.4,1110.7,1531.4z"/>
	<path class="st7" d="M1029.2,1453c0-114.7,6-135.1,107.9-135.1c49.7,0,64.7,12.8,64.7,46.6c0,27.8-18.7,27.8-59,27.8
		c-17,0-23.8,9.4-23.8,27.8c0,7.7,0,20.7,13.3,20.7c9.1,0,12.5-5.1,12.5-11.9c0-10.2,3.4-17.3,21.3-17.3c29,0,39.7,7.9,39.7,38.3
		c0,66.4-19.3,73.5-95.1,73.5C1056.1,1523.4,1029.2,1502.7,1029.2,1453z"/>
	<path class="st4" d="M1308.5,1531.4c-60.2,0-89.4-25.6-89.4-78.4c0-119.7,9.3-143.1,115.9-143.1c44.9,0,72.7,9.1,72.7,54.5
		c0,35.8-26.7,35.8-67,35.8c-10.3,0-15.9,3.2-15.9,19.8c0,12.7,2.3,12.7,5.4,12.7c4.3,0,4.5-1.2,4.5-3.9c0-17,9.6-25.3,29.3-25.3
		c34.8,0,47.7,12.5,47.7,46.3c0,31.4-3.8,55-22.5,68.2C1373.1,1529.3,1349.4,1531.4,1308.5,1531.4z"/>
	<path class="st7" d="M1227,1453c0-114.7,6-135.1,107.9-135.1c49.7,0,64.7,12.8,64.7,46.6c0,27.8-18.7,27.8-59,27.8
		c-17,0-23.8,9.4-23.8,27.8c0,7.7,0,20.7,13.3,20.7c9.1,0,12.5-5.1,12.5-11.9c0-10.2,3.4-17.3,21.3-17.3c29,0,39.7,7.9,39.7,38.3
		c0,66.4-19.3,73.5-95.1,73.5C1254,1523.4,1227,1502.7,1227,1453z"/>
	<path class="st4" d="M1518.3,1531.4c-43.7,0-70.2-3.7-84.7-23c-14.2-18.9-15.2-50.4-15.2-100.2c0-47.6,3-69.1,11.5-82.2
		c10.3-15.9,27.9-17.2,49.9-17.2c58.9,0,79.2,2.5,79.2,52.5c0,12.4-0.5,45.2-0.8,66.9c-0.2,10.7-0.3,18.7-0.3,20.2
		c0,1.1,0.1,1.8,0.2,2.2c2.1,0.6,8,0.6,10,0.6c17.6,0,29,13,29,33.2C1597,1529.1,1567.1,1531.4,1518.3,1531.4z"/>
	<path class="st7" d="M1426.3,1408.1c0-85.7,9.4-91.4,53.4-91.4c60.5,0,71.3,3.1,71.3,44.6c0,18.5-1.1,82.6-1.1,87.2
		c0,9.9,4.8,10.8,18.2,10.8c16.2,0,21,13.6,21,25.3c0,34.1-16.5,38.9-70.7,38.9C1432,1523.4,1426.3,1508.9,1426.3,1408.1z"/>
	<path class="st4" d="M1707.9,1530.8c-55.5,0-108,0-109-56.9c-1.4-87.3,4.9-123.5,24.8-143.8c16.6-16.9,41.6-20.2,79.1-20.2
		c43.7,0,77.1,2.7,77.5,36.8c0.3,10.7-2.3,19.1-7.7,24.7c-5.1,5.3-12.3,7.8-21.8,7.8c-6.4,0-7.9,1.1-8.2,1.4
		c-0.3,0.3-0.6,1.3-0.6,3.2c0.1,4.1,0.2,7.3,14.5,7.3c15.3,0,25.1,10.7,25.6,27.9c0.2,10.9-2.4,19.3-7.8,24.8
		c-4.3,4.4-10.1,6.7-16.9,6.7c-13.3,0-13.3,2.7-13.3,6.8c0.2,6.4,7.6,6.5,7.6,6.5c18,0,26.7,15.3,27.3,30.4
		c0.1,8.3-0.7,18.4-7.9,25.6C1761.2,1529.7,1744.2,1530.8,1707.9,1530.8z"/>
	<path class="st7" d="M1606.9,1473.7c-2.3-141.1,14.8-155.9,96-155.9c47.7,0,69.3,4.3,69.6,29c0.6,19.9-9.7,24.4-21.6,24.4
		c-9.7,0-17,2-16.7,12.8c0.3,13.3,10.8,15,22.4,15c12.8,0,17.3,9.4,17.6,20.2c0.3,13.1-4.3,23.3-16.7,23.3
		c-19.6,0-21.3,7.4-21.3,14.8c0.3,10.8,9.9,14.5,15.6,14.5c15.6,0,19,15.3,19.3,22.7c0.3,26.4-12.5,28.4-63,28.4
		C1645.5,1522.8,1607.7,1519.7,1606.9,1473.7z"/>
	<g>
		<path class="st8" d="M532.8,210.7c-38.5-16.3-79.7-17.1-116.6-5.1c-44.3,14.4-82.4,47.2-102.1,93.5
			c-35.9,84.8,3.7,182.7,88.5,218.6c42.2,17.9,87.7,17.1,127.2,1.2c39.8-16,73.4-47.1,91.5-89.7
			C657.2,344.5,617.6,246.6,532.8,210.7z"/>
		<path class="st9" d="M532.8,210.7c-38.5-16.3-79.7-17.1-116.6-5.1c-44.3,14.4-82.4,47.2-102.1,93.5
			c-35.9,84.8,3.7,182.7,88.5,218.6c42.2,17.9,87.7,17.1,127.2,1.2c39.8-16,73.4-47.1,91.5-89.7
			C657.2,344.5,617.6,246.6,532.8,210.7z"/>
		
			<ellipse transform="matrix(0.3902 -0.9207 0.9207 0.3902 2.2548 560.4625)" class="st4" cx="424.3" cy="278.5" rx="18.2" ry="14.2"/>
		
			<ellipse transform="matrix(0.3902 -0.9207 0.9207 0.3902 30.0443 709.1303)" class="st4" cx="550.4" cy="331.9" rx="18.2" ry="14.2"/>
		<path class="st4" d="M464.1,481.9c-14.3,0-28.7-2.8-42.6-8.6c-28.7-12.2-50.6-35.7-61.6-66.1s-9.8-64.1,3.2-94.9
			c0.7-1.6,2.6-2.4,4.2-1.7c1.6,0.7,2.4,2.6,1.7,4.2c-12.4,29.3-13.5,61.3-3.1,90.2c10.4,28.8,31,50.9,58,62.4
			c55.9,23.7,122.2-6.2,147.8-66.6c0.7-1.6,2.6-2.4,4.2-1.7c1.6,0.7,2.4,2.6,1.7,4.2C557.2,452,511.1,481.9,464.1,481.9z"/>
	</g>
	<g>
		<path class="st10" d="M1319.8,1047.3c25.6,41,65.9,66.9,109.6,75.4c43.5,8.5,90.5-0.3,129.6-28.5c70.7-51,90-149.5,43.8-223.4
			c-27.8-44.5-72.8-71.2-120.7-77.2c-40.3-5.1-82.7,4.5-118.5,30.3C1292.8,874.9,1273.6,973.3,1319.8,1047.3z"/>
		<path class="st9" d="M1319.8,1047.3c25.6,41,65.9,66.9,109.6,75.4c43.5,8.5,90.5-0.3,129.6-28.5c70.7-51,90-149.5,43.8-223.4
			c-27.8-44.5-72.8-71.2-120.7-77.2c-40.3-5.1-82.7,4.5-118.5,30.3C1292.8,874.9,1273.6,973.3,1319.8,1047.3z"/>
		
			<ellipse transform="matrix(0.8311 -0.5562 0.5562 0.8311 -230.583 974.0239)" class="st4" cx="1488.1" cy="866.6" rx="14.2" ry="18.2"/>
		
			<ellipse transform="matrix(0.8311 -0.5562 0.5562 0.8311 -292.1173 923.6512)" class="st4" cx="1374.4" cy="942.7" rx="14.2" ry="18.2"/>
		<path class="st4" d="M1465.7,1075.9c-9.1,0-18.4-1.1-27.6-3.3c-31.4-7.5-59-26.9-77.6-54.7c-1-1.5-0.6-3.5,0.9-4.5
			s3.5-0.6,4.5,0.9c17.7,26.5,43.9,44.9,73.7,52c29.7,7.1,59.6,2,84-14.3s40.5-42,45.3-72.2c4.8-30.3-2.3-61.5-20-88
			c-1-1.5-0.6-3.5,0.9-4.5s3.5-0.6,4.5,0.9c18.6,27.8,26.1,60.7,21,92.6c-5.1,32-22.2,59.2-48.1,76.5
			C1508.8,1069.6,1487.7,1075.9,1465.7,1075.9z"/>
	</g>
	<g>
		<path class="st11" d="M893.1,1563.6c-29.6,35.5-41.9,79.7-37.9,122.4c4,42.3,24,83.2,59.3,112.5c70.8,59,175.9,49.4,234.9-21.3
			c32.2-38.6,44-87.5,36.5-133.5c-6.2-38.3-25.7-74.6-57.8-101.3C1057.2,1483.3,952.1,1492.8,893.1,1563.6z"/>
		<path class="st9" d="M893.1,1563.6c-29.6,35.5-41.9,79.7-37.9,122.4c4,42.3,24,83.2,59.3,112.5c70.8,59,175.9,49.4,234.9-21.3
			c32.2-38.6,44-87.5,36.5-133.5c-6.2-38.3-25.7-74.6-57.8-101.3C1057.2,1483.3,952.1,1492.8,893.1,1563.6z"/>
		
			<ellipse transform="matrix(0.6402 -0.7682 0.7682 0.6402 -880.6549 1459.051)" class="st4" cx="1117.3" cy="1669.7" rx="18.2" ry="14.2"/>
		
			<ellipse transform="matrix(0.6402 -0.7682 0.7682 0.6402 -851.2462 1346.715)" class="st4" cx="1012.1" cy="1582.1" rx="18.2" ry="14.2"/>
		<path class="st4" d="M1016.9,1786.7c-25.7,0-50.9-8.3-71.5-25.5c-49.4-41.2-53.5-117.9-9.2-171c1.1-1.4,3.2-1.6,4.6-0.4
			c1.4,1.1,1.6,3.2,0.4,4.6c-42,50.4-38.3,123.1,8.4,161.9c46.6,38.9,118.8,29.5,160.8-21c1.1-1.4,3.2-1.6,4.6-0.4
			c1.4,1.1,1.6,3.2,0.4,4.6C1089.5,1770.5,1052.8,1786.7,1016.9,1786.7z"/>
	</g>
	<g>
		<path class="st12" d="M1466.8,253.1c0,0-64.2-58.4,4.7-85.2c54.9-21,53.7,53.1,42.6,73.5c28.6-46.1,67.7-58.4,88.1-21.6
			s-34.4,61.9-53.1,61.3c40.9,18.7,67.1,46.7,42.6,81.1s-75.9,22.8-89.9-24.5c3.5,44.4-15.2,73-50.2,62.4
			c-35-10.5-31.5-52.5,0.6-84.6c-32.7,18.7-98.6,22.8-91.9-48.4S1442.3,233.3,1466.8,253.1z"/>
		<circle class="st13" cx="1489" cy="285.6" r="32.4"/>
	</g>
	<g>
		<path class="st12" d="M528.7,1088.1c0,0-10-72.1,48.8-52.4c46.7,15.9,6.1,63.1-12,70.3c43.2-14.4,75-1.3,68.4,33.4
			c-6.6,34.7-55.4,21.4-67.2,11c16.3,34,18.2,66.2-16.1,75.2s-61.1-26.1-44.8-64.1c-21.6,30.5-49,38.9-65.9,13.3s7.9-50.8,45.8-54.2
			c-31.1-5.5-75.8-38.3-33.2-80.6C495.1,997.6,523.6,1062.2,528.7,1088.1z"/>
		<circle class="st13" cx="525.6" cy="1121" r="27.2"/>
	</g>
	<g>
		<path class="st14" d="M1464.2,562.1c0,0,53.1-4.4,56.8-66.4c3.7,26.6,20.7,59.7,57.5,66.4c-22.9,3-51.6,23.6-57.2,63.4
			C1515.1,598.2,1503.3,567.3,1464.2,562.1z"/>
		<path class="st4" d="M1521.4,628.8c-1.5,0-2.8-1-3.2-2.5c-6.3-27.4-17.7-56.1-54.4-60.9c-1.6-0.2-2.9-1.6-2.8-3.3
			c0-1.7,1.3-3,3-3.1c2.1-0.2,50.4-5.1,53.8-63.3c0.1-1.7,1.4-3,3.1-3c1.6,0,3.1,1.1,3.3,2.8c3.5,25.4,20,57.4,54.9,63.6
			c1.6,0.3,2.7,1.7,2.7,3.3s-1.2,2.9-2.8,3.1c-22.5,2.9-49.2,23.1-54.4,60.7c-0.2,1.5-1.5,2.7-3.1,2.8
			C1521.5,628.8,1521.4,628.8,1521.4,628.8z M1478.2,562c25,8.3,36.4,29,42.8,49.7c7.8-26.4,26.2-43,44.7-49.7
			c-23.3-8.8-37.3-28.9-44-49C1514.3,544,1492.6,556.8,1478.2,562z"/>
	</g>
	<g>
		<path class="st15" d="M410.6,660.3c0,0,53.1-4.4,56.8-66.4c3.7,26.6,20.7,59.7,57.5,66.4c-22.9,3-51.6,23.6-57.2,63.4
			C461.5,696.4,449.7,665.4,410.6,660.3z"/>
		<path class="st4" d="M467.7,726.9c-1.5,0-2.8-1-3.2-2.5c-6.3-27.4-17.7-56.1-54.4-60.9c-1.6-0.2-2.9-1.6-2.8-3.3
			c0-1.7,1.3-3,3-3.1c2.1-0.2,50.4-5.1,53.8-63.3c0.1-1.7,1.4-3,3.1-3c1.6,0,3.1,1.1,3.3,2.8c3.5,25.4,20,57.4,54.9,63.6
			c1.6,0.3,2.7,1.7,2.7,3.3s-1.2,2.9-2.8,3.1c-22.5,2.9-49.2,23.1-54.4,60.7c-0.2,1.5-1.5,2.7-3.1,2.8
			C467.8,726.9,467.8,726.9,467.7,726.9z M424.6,660.1c25,8.3,36.4,29,42.8,49.7c7.8-26.4,26.2-43,44.7-49.7
			c-23.3-8.8-37.3-28.9-44-49C460.6,642.2,439,655,424.6,660.1z"/>
	</g>
	<g>
		<path class="st16" d="M1291.2,1213.7c0,0,43.3-3.6,46.3-54.1c3,21.7,16.8,48.7,46.9,54.1c-18.6,2.4-42.1,19.2-46.6,51.7
			C1332.7,1243.2,1323.1,1218,1291.2,1213.7z"/>
		<path class="st4" d="M1337.8,1268.7c-1.5,0-2.8-1-3.2-2.5c-5.1-22.2-14.3-45.3-43.9-49.2c-1.6-0.2-2.9-1.6-2.8-3.3
			c0-1.7,1.3-3,3-3.1l0,0c1.7-0.1,40.6-4.1,43.4-51.1c0.1-1.7,1.4-3,3.1-3s3.1,1.1,3.3,2.8c2.9,20.5,16.2,46.3,44.3,51.4
			c1.6,0.3,2.7,1.7,2.7,3.3c0,1.6-1.2,2.9-2.8,3.1c-18.2,2.3-39.6,18.7-43.8,49c-0.2,1.5-1.5,2.7-3.1,2.8
			C1337.9,1268.7,1337.9,1268.7,1337.8,1268.7z M1304.4,1213.6c18.8,6.9,27.9,22.6,33.2,38.6c6.5-20,20.5-32.9,34.8-38.6
			c-17.6-7.2-28.6-22.4-34.1-37.8C1331.9,1198.9,1315.9,1209.1,1304.4,1213.6z"/>
	</g>
	<g>
		<path class="st17" d="M472.2,1715.3c0,0,58-4.8,62-72.5c4,29,22.6,65.2,62.8,72.5c-25,3.2-56.4,25.8-62.4,69.3
			C527.8,1754.7,514.9,1720.9,472.2,1715.3z"/>
		<path class="st4" d="M534.6,1787.8c-1.5,0-2.8-1-3.2-2.5c-6.9-30-19.4-61.5-59.7-66.8c-1.6-0.2-2.8-1.6-2.8-3.3c0-1.7,1.3-3,3-3.2
			c2.3-0.2,55.3-5.5,59.1-69.5c0.1-1.7,1.4-3,3.1-3c1.7-0.1,3.1,1.1,3.3,2.8c3.9,27.9,22,62.9,60.2,69.7c1.6,0.3,2.7,1.7,2.7,3.3
			c0,1.6-1.2,2.9-2.8,3.1c-24.7,3.2-53.9,25.4-59.6,66.5c-0.2,1.5-1.5,2.7-3.1,2.8C534.7,1787.8,534.7,1787.8,534.6,1787.8z
			 M486.5,1715.1c28.1,9,40.7,32.2,47.7,55.3c8.4-29.7,29.1-48.1,49.7-55.3c-26.2-9.5-41.8-32.2-49-54.6
			C526.9,1695.7,502.4,1709.7,486.5,1715.1z"/>
	</g>
	<g>
		<path class="st4" d="M1118.7,453.4c-4.3,0-9.1-1.2-14.5-3.6c-22-9.8-39.1-26-51-48.2c-7.3-14.1-9.3-23.7-6.3-30.4
			c3.5-7.8,11.2-11.9,22.9-12.3c0.6,0,1.2,0,1.8,0c9.6,0,20.3,2.6,31.7,7.7c9.6,4.3,16.6,8.7,21.6,13.5c8.1,7.8,7.7,14,6,17.9
			c-0.9,2.1-2.7,4-5.3,5.7c-0.5,0.3-0.7,0.5-0.9,0.7c0,0.2,0,0.5,0.1,0.9c0.4,1.4,1.3,3.1,2.5,5.1c1.6,2.5,2.6,4.1,3.1,5
			c2.7,4.7,4.7,8.7,6.1,12.3c1.7,4.7,1.5,9.7-0.6,14.5C1132.6,449.4,1126.5,453.4,1118.7,453.4z"/>
		<path class="st5" d="M1123.8,417.8c2.5,4.2,4.3,7.8,5.4,11c1.1,3.1,1,6.3-0.4,9.4c-3.6,8.1-11.2,9.6-22.6,4.5
			c-20-8.9-35.4-23.5-46.2-43.8c-5.9-11.5-7.9-19.5-5.8-24c2.4-5.3,7.9-8,16.8-8.3c8.8-0.3,18.7,2,29.5,6.8
			c8.5,3.8,14.9,7.7,19.1,11.8c4.3,4.1,5.7,7.6,4.4,10.5c-0.4,0.9-1.4,1.9-2.9,2.9s-2.5,2-2.9,2.9c-0.8,1.7-0.9,3.5-0.3,5.4
			s1.6,4,3.1,6.3C1122.5,415.6,1123.4,417.1,1123.8,417.8z"/>
	</g>
	<g>
		<path class="st4" d="M1113.6,430.5c-4.3,0-9.1-1.2-14.5-3.6c-22-9.8-39.1-26-51-48.2c-7.3-14.1-9.3-23.7-6.3-30.4
			c3.5-7.8,11.2-11.9,22.9-12.3c0.6,0,1.2,0,1.8,0c9.6,0,20.3,2.6,31.7,7.7c9.6,4.3,16.6,8.7,21.6,13.5c8.1,7.8,7.7,14,6,17.9
			c-0.9,2.1-2.7,4-5.3,5.7c-0.5,0.3-0.7,0.5-0.9,0.7c0,0.2,0,0.5,0.1,0.9c0.4,1.4,1.3,3.1,2.5,5.1c1.6,2.5,2.6,4.1,3.1,5
			c2.7,4.7,4.7,8.7,6.1,12.3c1.7,4.7,1.5,9.7-0.6,14.5C1127.5,426.5,1121.4,430.5,1113.6,430.5z"/>
		<path class="st6" d="M1118.7,394.9c2.5,4.2,4.3,7.8,5.4,11c1.1,3.1,1,6.3-0.4,9.4c-3.6,8.1-11.2,9.6-22.6,4.5
			c-20-8.9-35.4-23.5-46.2-43.8c-5.9-11.5-7.9-19.5-5.8-24c2.4-5.3,7.9-8,16.8-8.3c8.8-0.3,18.7,2,29.5,6.8
			c8.5,3.8,14.9,7.7,19.1,11.8c4.3,4.1,5.7,7.6,4.4,10.5c-0.4,0.9-1.4,1.9-2.9,2.9s-2.5,2-2.9,2.9c-0.8,1.7-0.9,3.5-0.3,5.4
			s1.6,4,3.1,6.3C1117.3,392.7,1118.2,394.2,1118.7,394.9z"/>
	</g>
	<g>
		<path class="st4" d="M1105.7,411.6c-4.3,0-9.1-1.2-14.5-3.6c-22-9.8-39.1-26-51-48.2c-7.3-14.1-9.3-23.7-6.3-30.4
			c3.5-7.8,11.2-11.9,22.9-12.3c0.6,0,1.2,0,1.8,0c9.6,0,20.3,2.6,31.7,7.7c9.6,4.3,16.6,8.7,21.6,13.5c8.1,7.8,7.7,14,6,17.9
			c-0.9,2.1-2.7,4-5.3,5.7c-0.5,0.3-0.7,0.5-0.9,0.7c0,0.2,0,0.5,0.1,0.9c0.4,1.4,1.3,3.1,2.5,5.1c1.6,2.5,2.6,4.1,3.1,5
			c2.7,4.7,4.7,8.7,6.1,12.3c1.7,4.7,1.5,9.7-0.6,14.5C1119.6,407.5,1113.5,411.6,1105.7,411.6z"/>
		<path class="st7" d="M1110.8,376c2.5,4.2,4.3,7.8,5.4,11c1.1,3.1,1,6.3-0.4,9.4c-3.6,8.1-11.2,9.6-22.6,4.5
			c-20-8.9-35.4-23.5-46.2-43.8c-5.9-11.5-7.9-19.5-5.8-24c2.4-5.3,7.9-8,16.8-8.3c8.8-0.3,18.7,2,29.5,6.8
			c8.5,3.8,14.9,7.7,19.1,11.8c4.3,4.1,5.7,7.6,4.4,10.5c-0.4,0.9-1.4,1.9-2.9,2.9s-2.5,2-2.9,2.9c-0.8,1.7-0.9,3.5-0.3,5.4
			s1.6,4,3.1,6.3C1109.4,373.8,1110.3,375.3,1110.8,376z"/>
	</g>
</g>
</svg>
