<?xml version="1.0" encoding="utf-8"?>
<!-- Generator: Adobe Illustrator 26.1.0, SVG Export Plug-In . SVG Version: 6.00 Build 0)  -->
<svg version="1.1" id="Слой_1" xmlns="http://www.w3.org/2000/svg" xmlns:xlink="http://www.w3.org/1999/xlink" x="0px" y="0px"
	 viewBox="0 0 2000 2000" style="enable-background:new 0 0 2000 2000;" xml:space="preserve">
<style type="text/css">
	.st0{fill:#F3EBE9;}
	.st1{fill:#F9C0C7;}
	.st2{fill:#F7CAA9;}
	.st3{fill:#F7F2B0;}
	.st4{fill:#D8EADC;}
	.st5{fill:#D4E6F4;}
	.st6{fill:#CABCD6;}
	.st7{fill:#C7B8E3;}
	.st8{fill:#FFFFFF;}
</style>
<rect class="st0" width="2000" height="2000"/>
<g>
	<g>
		<path class="st0" d="M2000,0v1551.9C1381.7,458,0,217.2,0,217.2V0H2000z"/>
		<path class="st1" d="M2000,1551.9V2000C1206.3,683.2,0,496,0,496V217.2C0,217.2,1381.7,458,2000,1551.9z"/>
		<path class="st2" d="M2000,2000h-458.6C895.7,915.1,0,768.4,0,768.4V496C0,496,1206.3,683.2,2000,2000z"/>
		<path class="st3" d="M1541.4,2000h-383.3C550.1,1145.8,0,1072.6,0,1072.6V768.4C0,768.4,895.7,915.1,1541.4,2000z"/>
		<path class="st4" d="M1158.1,2000h-337C439.2,1493.2,0,1338.4,0,1338.4v-265.8C0,1072.6,550.1,1145.8,1158.1,2000z"/>
		<path class="st5" d="M821.1,2000H345.5C215.8,1801.7,70.5,1691.5,0,1645.8v-307.4C0,1338.4,439.2,1493.2,821.1,2000z"/>
		<path class="st6" d="M345.5,2000H0v-354.2C70.5,1691.5,215.8,1801.7,345.5,2000z"/>
	</g>
	<g>
		<g>
			<path class="st7" d="M580.2,728.4c-0.1,67.5-3.2,122.2-19.6,187.7c-5.1,20.2-35.4,13.3-41-3.6c-8.8-26.4-3.7-57-7.2-84.6
				c-20.1,1.4-43.5,4.4-63.6,5.8c-2.9,26.8-5.8,53.5-8.7,80.3c0.2,5.7-9.5,10.7-21.6,11.1c-12.1,0.4-22.1-4-22.3-9.7
				c-3.8-25.8-7.6-51.7-11.5-77.5c-20.2-1.8-24.2-36.4-6.8-45.7c-3.9-26.2-7.7-52.4-11.6-78.6c-2.9-13.2,18.9-25.4,47.1-26.3
				c28.6-0.9,51.2,10.2,48.6,23.7c-3,28.1-6.1,56.2-9.1,84.3c17.4,1.4,41.5,2.9,58.9,4.3c-3.7-29.2,2.2-106,29.7-112.8
				C575.7,678.1,580.2,701.5,580.2,728.4z"/>
			<path class="st7" d="M820.8,894.2c2.6,13.5,2.8,33-13.7,37.5c-12.2,3.3-23.5-2.4-27.3-14.5c-4.1-12.9-8.3-25.7-12.6-38.5
				c-27.6,3-54.5,3.1-82.1,6.2c-16.5,89.1-101.4,53.3-80-13c-14.4-4.4-19.3-37.7,14-39.7c0,0,29.7-74.6,55-113.1
				c12.9-19.7,33.9-41.7,59.9-37.3c30.1,5,45.1,35.3,53.7,61.5c5.7,17.1,10.2,34.6,14.2,52.2C809.1,828.2,814.4,861.5,820.8,894.2z
				 M752.7,837.9c-4.6-13.8-21.6-94-38.6-40.7c-2.4,7.6-11.3,31.6-13.8,39.3C717.2,838.2,735.7,836.3,752.7,837.9z"/>
			<path class="st7" d="M1029.1,706.5c-6.4,35.2-14.7,70.3-22,105.7c-18.9,92.5-93.2,180.5-144.9,53
				c-13.2-33.6-32.9-85.8-44.9-119.4c-20.8-60.4,78.5-87.6,92.1-26.2c5,23.5,25.4,138.2,35.5,119.3c14.7-27.6,24.8-103,41.4-142.9
				c2.6-10.6,14.2-17,26-14.2C1024.2,684.6,1031.8,695.7,1029.1,706.5z"/>
			<path class="st7" d="M1223.1,874.6c13.7,35.8-40.3,43.9-65,50.6c-51.2,13.8-74-8.1-80.1-12.7c-37.4-28.4-35.1-85.2-33.3-130.9
				c1.3-32.6,7.6-59.9,13.8-80c2.9-9.5,11.5-16.1,21.4-16.7c5.6-0.3,13-2.8,80.2,0.4c44.9,2.1,54.5,4.2,61.1,12.1
				c1.6,1.9,7.7,9.1,7.9,19.2c0,0,0.1,7.6-4.5,15.4c-7.9,13.2-41.5,18.6-91.6,13.4c-1.5,10.4-2.7,21-3.9,32
				c-0.5,4.8-0.9,9.5-1.3,14.2c10.3-0.4,17.8,0,31.6,2.2c19.5,3.1,34.3,5.5,38.4,15.6c2.6,6.4,0.3,14.5-4.1,19.4
				c-5.8,6.5-14.7,6.4-28.2,6.9c-10.9,0.4-21.6,1.2-41.3,3.2c-14.1,46,48.5,30.4,74.6,25.2C1206,861.6,1218.6,863.3,1223.1,874.6z"
				/>
			<path class="st7" d="M1546.6,894.2c2.6,13.5,2.8,33-13.7,37.5c-12.2,3.3-23.5-2.4-27.3-14.5c-4.1-12.9-8.3-25.7-12.6-38.5
				c-27.6,3-54.5,3.1-82.1,6.2c-16.5,89.1-101.4,53.3-80-13c-14.4-4.4-19.3-37.7,14-39.7c0,0,29.7-74.6,55-113.1
				c12.9-19.7,33.9-41.7,59.9-37.3c30.1,5,45.1,35.3,53.7,61.5c5.7,17.1,10.2,34.6,14.2,52.2
				C1534.9,828.2,1540.1,861.5,1546.6,894.2z M1478.4,837.9c-4.6-13.8-21.6-94-38.6-40.7c-2.4,7.6-11.3,31.6-13.8,39.3
				C1443,838.2,1461.4,836.3,1478.4,837.9z"/>
			<path class="st7" d="M445.8,1315.6c-24.9,61-76,22.2-94.2-21.7c-1.9-4.8-16.6-56.2-19.8-20.7c-0.8,8.8-0.7,19.8-0.3,31.6
				c1.9,59.3-77.1,74.3-89,7.6c-9.6-54.2-9.6-184.2,54.1-200.1c74.8-8.4,105.6,166.5,105.5,129.6c0-18.1,1-70.2-1.6-96.7
				c-1.4-13.6,2.6-26.9,14.1-30.9C468.3,1105.4,459.5,1282.2,445.8,1315.6z"/>
			<path class="st7" d="M583.7,1154.5c-1.7,0.6-9.9-0.7-11.4-1.3c-8.6,54.6-7.4,110.9-15.9,165.5c5.9,1.2,8.5,1.7,14.5,2.9
				c5-0.3,4.7,22.4-0.3,22c-25.3,3.6-50.6,7.1-75.9,10.7c-12.2,2.4-11.1-38.8,1.1-35.6c3.8,0.8-1-108-7.9-163.3
				c-5.6-0.7-11.9-3.1-15.3-8.5c-2.5-3.9-2.6-7.9-2.7-9.5c0,0-0.2-7.9,5.7-15.7c13.2-17.7,105.7-20.8,114.7,7.8
				C592.6,1137.2,590.3,1152.2,583.7,1154.5z"/>
			<path class="st7" d="M698.3,1293.2c30.8,13.9,45.2-8,69.7-17.1c18.2-2.2,37.5,17.8,22.2,33.5c-143.2,147-284.3-108.3-127.8-190.8
				c59.5-31.4,138.8,4,138.8,43.5c0,21.4-56.5,50.8-74.1,37.6c-0.2-0.2-0.6-0.5-1.1-0.9c-9.7-8.3-25-4.3-35.2,2.2
				C660.7,1221.9,662,1278.6,698.3,1293.2z"/>
			<path class="st7" d="M996.1,1299.9c13.7,35.8-40.3,43.9-65,50.6c-51.2,13.8-74-8.1-80.1-12.7c-37.4-28.4-35.1-85.2-33.3-130.9
				c1.3-32.6,7.6-59.9,13.8-80c2.9-9.5,11.5-16.1,21.4-16.7c5.6-0.3,13-2.8,80.2,0.4c44.9,2.1,54.5,4.2,61.1,12.1
				c1.6,1.9,7.7,9.1,7.9,19.2c0,0,0.1,7.6-4.5,15.4c-7.9,13.2-41.5,18.6-91.6,13.4c-1.5,10.4-2.7,21-3.9,32
				c-0.5,4.8-0.9,9.5-1.3,14.2c10.3-0.4,17.8,0,31.6,2.2c19.5,3.1,34.3,5.5,38.4,15.6c2.6,6.4,0.3,14.5-4.1,19.4
				c-5.8,6.5-14.7,6.4-28.2,6.9c-10.9,0.4-21.6,1.2-41.3,3.2c-14.1,46,48.5,30.4,74.6,25.2C979,1286.9,991.6,1288.6,996.1,1299.9z"
				/>
			<path class="st7" d="M1128,1347c-9.8-3-39.1-191.9-20.6-220.9c6.9-10.9,16.3-14.1,16.3-14.1c12.3-4.3,19.8,1.8,25.2,4.9
				c47.9-24.4,116-15.7,147.1,29.8C1370.2,1255.4,1234.4,1379.9,1128,1347z M1184.2,1155c0.5,45.5,1,91,1.5,136.5
				c10-4.2,29.5-14.3,44-35.4c4.6-6.7,32-46.8,12.3-77.1C1225,1152.9,1186.7,1154.8,1184.2,1155z"/>
			<path class="st7" d="M1549.5,1319.5c2.6,13.5,2.8,33-13.7,37.5c-12.2,3.3-23.5-2.4-27.3-14.5c-4.1-12.9-8.3-25.7-12.6-38.5
				c-27.6,3-54.5,3.1-82.1,6.2c-16.5,89.1-101.4,53.3-80-13c-14.4-4.4-19.3-37.7,14-39.7c0,0,29.7-74.6,55-113.1
				c12.9-19.7,33.9-41.7,59.9-37.3c30.1,5,45.1,35.3,53.7,61.5c5.7,17.1,10.2,34.6,14.2,52.2
				C1537.8,1253.5,1543.1,1286.8,1549.5,1319.5z M1481.4,1263.2c-4.6-13.8-21.6-94-38.6-40.7c-2.4,7.6-11.3,31.6-13.8,39.3
				C1445.9,1263.5,1464.4,1261.6,1481.4,1263.2z"/>
			<path class="st7" d="M1706.4,1246.7c-14.9,30.4-25.2,63.8-29.5,98.9c0.1,5.9-9.5,11.2-21.7,11.8c-38,6.4-21.6-65.6-22.3-89.1
				c-32-35.9-63.9-71.8-95.8-107.7c-16-16.9,73.4-73.2,81.1-50.8c10.4,27.1,20.8,54.2,31.2,81.2c18.2-41.2,30.7-126.5,91.4-76.3
				C1802.5,1165.2,1734.6,1175.1,1706.4,1246.7z"/>
		</g>
	</g>
	<g>
		<g>
			<path class="st8" d="M557.9,703.5c-0.1,67.5-3.2,122.2-19.6,187.7c-5.1,20.2-35.4,13.3-41-3.6c-8.8-26.4-3.7-57-7.2-84.6
				c-20.1,1.4-43.5,4.4-63.6,5.8c-2.9,26.8-5.8,53.5-8.7,80.3c0.2,5.7-9.5,10.7-21.6,11.1c-12.1,0.4-22.1-4-22.3-9.7
				c-3.8-25.8-7.6-51.7-11.5-77.5c-20.2-1.8-24.2-36.4-6.8-45.7c-3.9-26.2-7.7-52.4-11.6-78.6c-2.9-13.2,18.9-25.4,47.1-26.3
				c28.6-0.9,51.2,10.2,48.6,23.7c-3,28.1-6.1,56.2-9.1,84.3c17.4,1.4,41.5,2.9,58.9,4.3c-3.7-29.2,2.2-106,29.7-112.8
				C553.4,653.2,557.9,676.6,557.9,703.5z"/>
			<path class="st8" d="M798.6,869.3c2.6,13.5,2.8,33-13.7,37.5c-12.2,3.3-23.5-2.4-27.3-14.5c-4.1-12.9-8.3-25.7-12.6-38.5
				c-27.6,3-54.5,3.1-82.1,6.2c-16.5,89.1-101.4,53.3-80-13c-14.4-4.4-19.3-37.7,14-39.7c0,0,29.7-74.6,55-113.1
				c12.9-19.7,33.9-41.7,59.9-37.3c30.1,5,45.1,35.3,53.7,61.5c5.7,17.1,10.2,34.6,14.2,52.2C786.9,803.2,792.1,836.6,798.6,869.3z
				 M730.4,813c-4.6-13.8-21.6-94-38.6-40.7c-2.4,7.6-11.3,31.6-13.8,39.3C694.9,813.2,713.4,811.4,730.4,813z"/>
			<path class="st8" d="M1006.8,681.6c-6.4,35.2-14.7,70.3-22,105.7c-18.9,92.5-93.2,180.5-144.9,53
				c-13.2-33.6-32.9-85.8-44.9-119.4c-20.8-60.4,78.5-87.6,92.1-26.2c5,23.5,25.4,138.2,35.5,119.3c14.7-27.6,24.8-103,41.4-142.9
				c2.6-10.6,14.2-17,26-14.2C1001.9,659.7,1009.5,670.7,1006.8,681.6z"/>
			<path class="st8" d="M1200.8,849.6c13.7,35.8-40.3,43.9-65,50.6c-51.2,13.8-74-8.1-80.1-12.7c-37.4-28.4-35.1-85.2-33.3-130.9
				c1.3-32.6,7.6-59.9,13.8-80c2.9-9.5,11.5-16.1,21.4-16.7c5.6-0.3,13-2.8,80.2,0.4c44.9,2.1,54.5,4.2,61.1,12.1
				c1.6,1.9,7.7,9.1,7.9,19.2c0,0,0.1,7.6-4.5,15.4c-7.9,13.2-41.5,18.6-91.6,13.4c-1.5,10.4-2.7,21-3.9,32
				c-0.5,4.8-0.9,9.5-1.3,14.2c10.3-0.4,17.8,0,31.6,2.2c19.5,3.1,34.3,5.5,38.4,15.6c2.6,6.4,0.3,14.5-4.1,19.4
				c-5.8,6.5-14.7,6.4-28.2,6.9c-10.9,0.4-21.6,1.2-41.3,3.2c-14.1,46,48.5,30.4,74.6,25.2C1183.7,836.7,1196.3,838.4,1200.8,849.6z
				"/>
			<path class="st8" d="M1524.3,869.3c2.6,13.5,2.8,33-13.7,37.5c-12.2,3.3-23.5-2.4-27.3-14.5c-4.1-12.9-8.3-25.7-12.6-38.5
				c-27.6,3-54.5,3.1-82.1,6.2c-16.5,89.1-101.4,53.3-80-13c-14.4-4.4-19.3-37.7,14-39.7c0,0,29.7-74.6,55-113.1
				c12.9-19.7,33.9-41.7,59.9-37.3c30.1,5,45.1,35.3,53.7,61.5c5.7,17.1,10.2,34.6,14.2,52.2
				C1512.6,803.2,1517.9,836.6,1524.3,869.3z M1456.1,813c-4.6-13.8-21.6-94-38.6-40.7c-2.4,7.6-11.3,31.6-13.8,39.3
				C1420.7,813.2,1439.2,811.4,1456.1,813z"/>
			<path class="st8" d="M423.5,1290.7c-24.9,61-76,22.2-94.2-21.7c-1.9-4.8-16.6-56.2-19.8-20.7c-0.8,8.8-0.7,19.8-0.3,31.6
				c1.9,59.3-77.1,74.3-89,7.6c-9.6-54.2-9.6-184.2,54.1-200.1c74.8-8.4,105.6,166.5,105.5,129.6c0-18.1,1-70.2-1.6-96.7
				c-1.4-13.6,2.6-26.9,14.1-30.9C446,1080.5,437.2,1257.3,423.5,1290.7z"/>
			<path class="st8" d="M561.5,1129.6c-1.7,0.6-9.9-0.7-11.4-1.3c-8.6,54.6-7.4,110.9-15.9,165.5c5.9,1.2,8.5,1.7,14.5,2.9
				c5-0.3,4.7,22.4-0.3,22c-25.3,3.6-50.6,7.1-75.9,10.7c-12.2,2.4-11.1-38.8,1.1-35.6c3.8,0.8-1-108-7.9-163.3
				c-5.6-0.7-11.9-3.1-15.3-8.5c-2.5-3.9-2.6-7.9-2.7-9.5c0,0-0.2-7.9,5.7-15.7c13.2-17.7,105.7-20.8,114.7,7.8
				C570.3,1112.3,568,1127.2,561.5,1129.6z"/>
			<path class="st8" d="M676,1268.3c30.8,13.9,45.2-8,69.7-17.1c18.2-2.2,37.5,17.8,22.2,33.5c-143.2,147-284.3-108.3-127.8-190.8
				c59.5-31.4,138.8,4,138.8,43.5c0,21.4-56.5,50.8-74.1,37.6c-0.2-0.2-0.6-0.5-1.1-0.9c-9.7-8.3-25-4.3-35.2,2.2
				C638.4,1197,639.7,1253.7,676,1268.3z"/>
			<path class="st8" d="M973.8,1275c13.7,35.8-40.3,43.9-65,50.6c-51.2,13.8-74-8.1-80.1-12.7c-37.4-28.4-35.1-85.2-33.3-130.9
				c1.3-32.6,7.6-59.9,13.8-80c2.9-9.5,11.5-16.1,21.4-16.7c5.6-0.3,13-2.8,80.2,0.4c44.9,2.1,54.5,4.2,61.1,12.1
				c1.6,1.9,7.7,9.1,7.9,19.2c0,0,0.1,7.6-4.5,15.4c-7.9,13.2-41.5,18.6-91.6,13.4c-1.5,10.4-2.7,21-3.9,32
				c-0.5,4.8-0.9,9.5-1.3,14.2c10.3-0.4,17.8,0,31.6,2.2c19.5,3.1,34.3,5.5,38.4,15.6c2.6,6.4,0.3,14.5-4.1,19.4
				c-5.8,6.5-14.7,6.4-28.2,6.9c-10.9,0.4-21.6,1.2-41.3,3.2c-14.1,46,48.5,30.4,74.6,25.2C956.7,1262,969.3,1263.7,973.8,1275z"/>
			<path class="st8" d="M1105.7,1322.1c-9.8-3-39.1-191.9-20.6-220.9c6.9-10.9,16.3-14.1,16.3-14.1c12.3-4.3,19.8,1.8,25.2,4.9
				c47.9-24.4,116-15.7,147.1,29.8C1347.9,1230.5,1212.1,1355,1105.7,1322.1z M1161.9,1130.1c0.5,45.5,1,91,1.5,136.5
				c10-4.2,29.5-14.3,44-35.4c4.6-6.7,32-46.8,12.3-77.1C1202.7,1128,1164.4,1129.9,1161.9,1130.1z"/>
			<path class="st8" d="M1527.2,1294.6c2.6,13.5,2.8,33-13.7,37.5c-12.2,3.3-23.5-2.4-27.3-14.5c-4.1-12.9-8.3-25.7-12.6-38.5
				c-27.6,3-54.5,3.1-82.1,6.2c-16.5,89.1-101.4,53.3-80-13c-14.4-4.4-19.3-37.7,14-39.7c0,0,29.7-74.6,55-113.1
				c12.9-19.7,33.9-41.7,59.9-37.3c30.1,5,45.1,35.3,53.7,61.5c5.7,17.1,10.2,34.6,14.2,52.2
				C1515.5,1228.6,1520.8,1261.9,1527.2,1294.6z M1459.1,1238.3c-4.6-13.8-21.6-94-38.6-40.7c-2.4,7.6-11.3,31.6-13.8,39.3
				C1423.6,1238.5,1442.1,1236.7,1459.1,1238.3z"/>
			<path class="st8" d="M1684.1,1221.7c-14.9,30.4-25.2,63.8-29.5,98.9c0.1,5.9-9.5,11.2-21.7,11.8c-38,6.4-21.6-65.6-22.3-89.1
				c-32-35.9-63.9-71.8-95.8-107.7c-16-16.9,73.4-73.2,81.1-50.8c10.4,27.1,20.8,54.2,31.2,81.2c18.2-41.2,30.7-126.5,91.4-76.3
				C1780.2,1140.3,1712.3,1150.2,1684.1,1221.7z"/>
		</g>
	</g>
	<path class="st2" d="M1403.7,560.9c0,0-86.1-155-81-179.2c5.1-24.3,65.5-72.8,81-37.3s33.2,227.8,26.2,237.1
		S1420.7,592.3,1403.7,560.9z"/>
	<path class="st1" d="M1512.9,587.3c0,0,16.1-210.1,37.9-214.9c21.9-4.8,92.2,36.7,92.2,54.3S1542.4,600.8,1535.2,604
		S1512.3,594.6,1512.9,587.3z"/>
	<path class="st5" d="M1578,656.2c0,0,152.4-73.4,165.7-68.9c13.3,4.5,0.1,104.4,0,114.4s-146.4-6.7-165.7-8.3
		S1560,664.8,1578,656.2z"/>
</g>
</svg>
