<?xml version="1.0" encoding="utf-8"?>
<!-- Generator: Adobe Illustrator 26.1.0, SVG Export Plug-In . SVG Version: 6.00 Build 0)  -->
<svg version="1.1" id="Слой_1" xmlns="http://www.w3.org/2000/svg" xmlns:xlink="http://www.w3.org/1999/xlink" x="0px" y="0px"
	 viewBox="0 0 2000 2000" style="enable-background:new 0 0 2000 2000;" xml:space="preserve">
<style type="text/css">
	.st0{fill:#CF89A1;}
	.st1{fill:#A12B4E;}
	.st2{fill:#FBEFD9;}
	.st3{fill:#FCFFFF;}
	.st4{fill:#F0BE41;}
	.st5{fill:#5B4C43;}
	.st6{fill:#FBFFFE;}
</style>
<g>
	<rect class="st0" width="2000" height="2000"/>
	<g>
		<path class="st1" d="M544.2,688.1c-41,41.9-141.3,18.6-126.3-14.4c-15,33,4.3,51.1,6.7,67.1c1.9,12.8,1.6,34-37.8,39
			c-28,3.5-42.1-17.3-43.2-27.3c-9.2-34.6-12.4-67.7-11.8-103.5c0.7-37.5,13.2-76.4,41.5-100.9c30.5-26.5,117.3-30.7,161.6-7.3
			c17.7,9.3,34.2,24.9,41.6,53.6C583.8,622.7,566.7,665,544.2,688.1z M478.6,590.5c-2-2.6-5.3-2.3-8.2-1.7
			c-15.1,3.1-29.8,9.4-43.3,18.5l8.6-4.8c-7.4,4.1-13.8,11-18,19.6c19.7,4.5,40.8-1.9,56.6-17C478.2,601.4,481.8,594.7,478.6,590.5z
			"/>
		<path class="st1" d="M805.6,738.6c5.6,18-7.5,39.4-26.4,40c-56,1.6-115.6-48-114.2-80.7c-1.6,24.7,8.4,26.9,10.9,42.9
			c1.9,12.8,1.6,34-37.8,39c-28,3.5-42.1-17.3-43.2-27.3c-9.2-34.6-12.4-67.7-11.8-103.5c0.7-37.5,13.2-76.4,41.5-100.9
			c30.5-26.5,117.3-30.7,161.6-7.3c17.7,9.3,34.2,24.9,41.6,53.6c7.3,28.3-8.1,72.4-32.3,93.8c-18.5,16.3-50.8,24.7-62.8,4.1
			c7.9,12.2,4.6,17.1,32.1,23.6C777.6,718.8,797.1,711.2,805.6,738.6z M730.1,590.5c-2-2.6-5.3-2.3-8.2-1.7
			c-15.1,3.1-29.8,9.4-43.3,18.5l8.6-4.8c-7.4,4.1-13.8,11-18,19.6c19.7,4.5,40.8-1.9,56.6-17C729.6,601.4,733.2,594.7,730.1,590.5z
			"/>
		<path class="st1" d="M1014.7,745.3c-26.5,29.9-42.2,31.8-81.8,37.4c-72.2,10.2-93.3-70.6-95-84.2c-3.5-27.4-5.2-55.8,2.9-82.3
			c14.8-48.9,33.5-84.8,84.6-85c51.1-0.2,95.9,23.5,115,70.8C1059.5,649.5,1048.6,707.1,1014.7,745.3z M935.6,659.5
			c-1-7.6-2.6-15.4-7.1-21.6c-12.2-16.7-26.4-6.4-28.1,8.7c-0.2,1.4-0.2,2.8-0.4,4.3c-5.8,10.8-9,22.9-9.1,35.2
			c0.9-7.7,4-15.1,8.7-21.2c0.2,13.4,1.8,27.7,4,39.2c0.9,5.1,2.6,10.7,7.2,13c6.4,3.2,13.9-2.2,17.8-8.2
			C937.7,694.7,937.8,676.4,935.6,659.5z"/>
		<path class="st1" d="M1285.6,602.8c-9.3,58.1-27.2,117.5-71.5,156.2c-12.8,13-26.3,20.1-47.6,19.5c-28.8-0.8-53.5-20.8-71.4-43.4
			c-16.7-21.2-30.2-45.2-36.5-71.5c-6.3-26.2-5-46.5,0.6-72.9c6-28.3,23.9-53.6,50.3-59.5c11.4-2.5,28.9-4.5,36,4.7
			c5.1,6.6,5.4,15.9,3.4,24c-2,8.1-6.8,26.6-7.7,34.9c-4.2,39.9,5.4,99.7,34.9,120.9c-19.6-22.9-9.9-84.8-2.7-114
			c7.2-29.2,16.8-54.6,44.2-67.1c16.2-7.4,36.4-10.2,51.2-0.3c10.3,6.9,16.3,19,18.3,31.3C1289,577.9,1287.5,590.5,1285.6,602.8z"/>
		<path class="st1" d="M1465.1,626.2c-35.7-0.8-81.3-9.4-115.5-19.5c5.7,2.6,14.7,9.8,27.4,11c-0.2,7.1-1,20.6-1.2,27.7
			c17,0.8,70.3-3.7,86.5,10.7c11.2,9.9,0.9,25.8-10.5,34.2c-11.4,8.4-26.4,9.9-40.6,9.9c-8.3,0-17.2-0.6-24.1-5.2
			c-6.9-4.7-6.8-11.2-5.9-21.7c-2.9,7.6-5.7,15-5.4,25.5c0.6,16.1,15.3,29.8,41.7,21.3c67.9-22,82.1-17.1,92.1,7
			c6.6,15.9-6,36.1-47.5,42.5c-44.6,6.9-72.3,3.4-96.8-0.5c-13.2-2.1-33.7-7.9-44.6-15.6c-9-6.4-14.6-16.8-17.5-27.5
			c-2.9-10.7-3.2-21.9-3.5-33c-0.9-30.4-0.7-60.8-2.7-91.1c-1.6-23.2-0.3-57,13.2-63.8c38.7-15,100.4-9.5,146.5-4.5
			c16.3,1.8,33.2,5,46.1,15.1c12.9,10.1,19.7,44,12,58.5c-4.4,8.3-12.9,13.8-21.8,16.4C1484,626.2,1474.5,626.4,1465.1,626.2z"/>
		<path class="st2" d="M531.5,668.7c-41,41.9-141.3,18.6-126.3-14.4c-15,33,4.3,51.1,6.7,67.1c1.9,12.8,1.6,34-37.8,39
			c-28,3.5-42.1-17.3-43.2-27.3c-9.2-34.6-12.4-67.7-11.8-103.5c0.7-37.5,13.2-76.4,41.5-100.9c30.5-26.5,117.3-30.7,161.6-7.3
			c17.7,9.3,34.2,24.9,41.6,53.6C571.1,603.3,554.1,645.6,531.5,668.7z M465.9,571.1c-2-2.6-5.3-2.3-8.2-1.7
			c-15.1,3.1-29.8,9.4-43.3,18.5l8.6-4.8c-7.4,4.1-13.8,11-18,19.6c19.7,4.5,40.8-1.9,56.6-17C465.5,582.1,469.1,575.4,465.9,571.1z
			"/>
		<path class="st3" d="M793,719.3c5.6,18-7.5,39.4-26.4,40c-56,1.6-115.6-48-114.2-80.7c-1.6,24.7,8.4,26.9,10.9,42.9
			c1.9,12.8,1.6,34-37.8,39c-28,3.5-42.1-17.3-43.2-27.3c-9.2-34.6-12.4-67.7-11.8-103.5c0.7-37.5,13.2-76.4,41.5-100.9
			c30.5-26.5,117.3-30.7,161.6-7.3c17.7,9.3,34.2,24.9,41.6,53.6c7.3,28.3-8.1,72.4-32.3,93.8c-18.5,16.3-50.8,24.7-62.8,4.1
			c7.9,12.2,4.6,17.1,32.1,23.6C764.9,699.5,784.5,691.8,793,719.3z M717.4,571.1c-2-2.6-5.3-2.3-8.2-1.7
			c-15.1,3.1-29.8,9.4-43.3,18.5l8.6-4.8c-7.4,4.1-13.8,11-18,19.6c19.7,4.5,40.8-1.9,56.6-17C716.9,582.1,720.5,575.4,717.4,571.1z
			"/>
		<path class="st2" d="M1002,726c-26.5,29.9-42.2,31.8-81.8,37.4c-72.2,10.2-93.3-70.6-95-84.2c-3.5-27.4-5.2-55.8,2.9-82.3
			c14.8-48.9,33.5-84.8,84.6-85c51.1-0.2,95.9,23.5,115,70.8C1046.8,630.1,1035.9,687.7,1002,726z M922.9,640.2
			c-1-7.6-2.6-15.4-7.1-21.6c-12.2-16.7-26.4-6.4-28.1,8.7c-0.2,1.4-0.2,2.8-0.4,4.3c-5.8,10.8-9,22.9-9.1,35.2
			c0.9-7.7,4-15.1,8.7-21.2c0.2,13.4,1.8,27.7,4,39.2c0.9,5.1,2.6,10.7,7.2,13c6.4,3.2,13.9-2.2,17.8-8.2
			C925.1,675.3,925.1,657,922.9,640.2z"/>
		<path class="st3" d="M1272.9,583.4c-9.3,58.1-27.2,117.5-71.5,156.2c-12.8,13-26.3,20.1-47.6,19.5c-28.8-0.8-53.5-20.8-71.4-43.4
			c-16.7-21.2-30.2-45.2-36.5-71.5c-6.3-26.2-5-46.5,0.6-72.9c6-28.3,23.9-53.6,50.3-59.5c11.4-2.5,28.9-4.5,36,4.7
			c5.1,6.6,5.4,15.9,3.4,24c-2,8.1-6.8,26.6-7.7,34.9c-4.2,39.9,5.4,99.7,34.9,120.9c-19.6-22.9-9.9-84.8-2.7-114
			c7.2-29.2,16.8-54.6,44.2-67.1c16.2-7.4,36.4-10.2,51.2-0.3c10.3,6.9,16.3,19,18.3,31.3C1276.3,558.6,1274.8,571.1,1272.9,583.4z"
			/>
		<path class="st2" d="M1452.4,606.8c-35.7-0.8-81.3-9.4-115.5-19.5c5.7,2.6,14.7,9.8,27.4,11c-0.2,7.1-1,20.6-1.2,27.7
			c17,0.8,70.3-3.7,86.5,10.7c11.2,9.9,0.9,25.8-10.5,34.2c-11.4,8.4-26.4,9.9-40.6,9.9c-8.3,0-17.2-0.6-24.1-5.2
			c-6.9-4.7-6.8-11.2-5.9-21.7c-2.9,7.6-5.7,15-5.4,25.5c0.6,16.1,15.3,29.8,41.7,21.3c67.9-22,82.1-17.1,92.1,7
			c6.6,15.9-6,36.1-47.5,42.5c-44.6,6.9-72.3,3.4-96.8-0.5c-13.2-2.1-33.7-7.9-44.6-15.6c-9-6.4-14.6-16.8-17.5-27.5
			c-2.9-10.7-3.2-21.9-3.5-33c-0.9-30.4-0.7-60.8-2.7-91.1c-1.6-23.2-0.3-57,13.2-63.8c38.7-15,100.4-9.5,146.5-4.5
			c16.3,1.8,33.2,5,46.1,15.1c12.9,10.1,19.7,44,12,58.5c-4.4,8.3-12.9,13.8-21.8,16.4C1471.3,606.9,1461.8,607,1452.4,606.8z"/>
	</g>
	<g>
		<path class="st1" d="M587.5,981.5c-3,12.7-15.2,19.5-16.6,20.4c-9.2,5.4-18.2,5.3-23.8,5.1c-11.5-0.4-24.1-2.8-32.3-6.3
			c-7.7-3.3-26.2-17.4-42.5,8.2c-1.8,3.6-2.6,8.7-2.6,8.7s3.5-7.1,6.5-9.9c3.9-3.8,8.1-6.7,12.9-8c1.5-0.4,2.8,0.9,2.5,2.4
			c-6.2,31.6-12.6,72.8-9,105c1.2,10.9,1.9,19.7-2.5,30.1c-2.9,6.9-6.8,15-17.9,15.8c-11.1,0.9-28.2-7.2-35.6-15.5
			c-17.4-19.6-22.2-37-24.5-51.4c-3.9-25-3.7-33.4-4.1-50.1c-0.6-24.6-1.2-27.3,13-32.6c0,0-6.5-3.1-20.7,9.4
			c-7.3,6.5-16.7,14.5-31.3,13.2c-10.8-0.9-20-5.9-26.1-12.8c-9.9-11.2-16.6-25.1-12.2-46.5c6.1-29.8,33.1-50.2,43.8-54.8
			c21.4-9.3,38.6-12.2,63.6-15c34.2-3.9,47.5-1.5,80.9,5.6c33.8,7.2,50.1,21.6,54.4,25.8C569,933.5,594,953.8,587.5,981.5z"/>
		<path class="st1" d="M825.4,1100.4c-1.8,10-10.6,48.6-36.7,52.9c-30.4,5-36.7-20.6-40.3-32.7c-4.9-16.3-13.4-42.4-8.7-47.4
			c0.6-0.6,14.3-2.1,20.9-0.2c-29-7.7-41.4-6.7-59.4-3.7c-11.7,2-20.8,1.5-24.4,8.8c5.8-5,8.9-3.5,16.6-3.6
			c1.8,17.9-10.7,41.6-17.3,55.6c-6.7,14.1-10.7,21.8-31.9,21.8c-16.6,0-25.6-14.9-31.2-25.9c-13.4-26.7-14.7-59-18.9-88.6
			c-4.2-29.6-4.5-67.6,7.5-95c5.3-12.1,12.7-23.7,23.6-31.1c10.9-7.4,50.3-10.2,61.9-3.9c15.6,8.4,32.3,41.6,23.3,102.5
			c-20.7,3.3-33.7,10.1-41.8,14.8c57-21.6,89.2-8,102.9-5.2c-9-5.8-23.9-11.3-41.3-12.4c-0.5-5.2-2.6-31.6,0.5-46.9
			c10.6-51,41.1-58.8,52.5-59.1c13.4-0.3,36.5,9.7,44.7,25.8C853.5,977.2,829.5,1077.9,825.4,1100.4z"/>
		<path class="st1" d="M1020.1,1001c-35.7-0.8-81.3-9.4-115.5-19.5c5.7,2.6,14.7,9.8,27.4,11c-0.2,7.1-1,20.6-1.2,27.7
			c17,0.8,70.3-3.7,86.5,10.7c11.2,9.9,0.9,25.8-10.5,34.2c-11.4,8.4-26.4,9.9-40.6,9.9c-8.3,0-17.2-0.6-24.1-5.2
			c-6.9-4.7-6.8-11.2-5.9-21.7c-2.9,7.6-5.7,15-5.4,25.5c0.6,16.1,15.3,29.8,41.7,21.3c67.9-22,82.1-17.1,92.1,7
			c6.6,15.9-6,36.1-47.5,42.5c-44.6,6.9-72.3,3.4-96.8-0.5c-13.2-2.1-33.7-7.9-44.6-15.6c-9-6.4-14.6-16.8-17.5-27.5
			c-2.9-10.7-3.2-21.9-3.5-33c-0.9-30.4-0.7-60.8-2.7-91.1c-1.6-23.2-0.3-57,13.2-63.8c38.7-15,100.4-9.5,146.5-4.5
			c16.3,1.8,33.2,5,46.1,15.1c12.9,10.1,19.7,44,12,58.5c-4.4,8.3-12.9,13.8-21.8,16.4C1039,1001,1029.5,1001.2,1020.1,1001z"/>
		<path class="st1" d="M1346,986.2c-4.2,25.7-14.4,50.1-19.7,75.6c-3.7,17.8-5,36.3-11.5,53.3c-6.5,17-16.2,33.5-34.2,36.4
			c-19.1,3.2-32-4.3-34.7-23.2c-2.7-19.2-8.1-39-3.3-57.8c4.9-18.8,17.1-20.9,24.3-53.6c-8.4,31-26.5,32.3-31.9,52.5
			c-2.9,10.7,4.5,21.9-2.8,30.3c-9,10.2-31.1,5.4-40.2-4.8c-9.1-10.1-14-18.7-16.3-32.1c-1.7-10.1-3.1-31.9-3.1-31.9
			c-5.2,20.3-5.5,32.4,1,61.6c1.9,8.6,9.9,30,7.7,38.5c-4.4,17.5-20.4,24.1-38.3,22c-17.9-2.1-21-11.7-31-30.8
			c-14.2-27.3-29-65.2-32.7-95.8c-2.9-23.9,0.1-47.9,5.5-71.3c18.2-79.1,124.2-58.1,116.8,1.5c-1.8,14.6-2.3,26.6,5.4,39.1
			c7.3,12,22.5,23.6,26.4,23.6c-10.5-6.5-19.9-17.2-22.6-32.6c-5.3-30,14.3-55.7,40.7-70.9c18.5-10.7,56-22.3,76.9-0.1
			C1346.6,934.6,1350.1,960.5,1346,986.2z"/>
		<path class="st3" d="M574.8,962.1c-3,12.7-15.2,19.5-16.6,20.4c-9.2,5.4-18.2,5.3-23.8,5.1c-11.5-0.4-24.1-2.8-32.3-6.3
			c-7.7-3.3-26.2-17.4-42.5,8.2c-1.8,3.6-2.6,8.7-2.6,8.7s3.5-7.1,6.5-9.9c3.9-3.8,8.1-6.7,12.9-8c1.5-0.4,2.8,0.9,2.5,2.4
			c-6.2,31.6-12.6,72.8-9,105c1.2,10.9,1.9,19.7-2.5,30.1c-2.9,6.9-6.8,15-17.9,15.8c-11.1,0.9-28.2-7.2-35.6-15.5
			c-17.4-19.6-22.2-37-24.5-51.4c-3.9-25-3.7-33.4-4.1-50.1c-0.6-24.6-1.2-27.3,13-32.6c0,0-6.5-3.1-20.7,9.4
			c-7.3,6.5-16.7,14.5-31.3,13.2c-10.8-0.9-20-5.9-26.1-12.8c-9.9-11.2-16.6-25.1-12.2-46.5c6.1-29.8,33.1-50.2,43.8-54.8
			c21.4-9.3,38.6-12.2,63.6-15c34.2-3.9,47.5-1.5,80.9,5.6c33.8,7.2,50.1,21.6,54.4,25.8C556.3,914.1,581.3,934.4,574.8,962.1z"/>
		<path class="st2" d="M812.7,1081.1c-1.8,10-10.6,48.6-36.7,52.9c-30.4,5-36.7-20.6-40.3-32.7c-4.9-16.3-13.4-42.4-8.7-47.4
			c0.6-0.6,14.3-2.1,20.9-0.2c-29-7.7-41.4-6.7-59.4-3.7c-11.7,2-20.8,1.5-24.4,8.8c5.8-5,8.9-3.5,16.6-3.6
			c1.8,17.9-10.7,41.6-17.3,55.6c-6.7,14.1-10.7,21.8-31.9,21.8c-16.6,0-25.6-14.9-31.2-25.9c-13.4-26.7-14.7-59-18.9-88.6
			c-4.2-29.6-4.5-67.6,7.5-95c5.3-12.1,12.7-23.7,23.6-31.1c10.9-7.4,50.3-10.2,61.9-3.9c15.6,8.4,32.3,41.6,23.3,102.5
			c-20.7,3.3-33.7,10.1-41.8,14.8c57-21.6,89.2-8,102.9-5.2c-9-5.8-23.9-11.3-41.3-12.4c-0.5-5.2-2.6-31.6,0.5-46.9
			c10.6-51,41.1-58.8,52.5-59.1c13.4-0.3,36.5,9.7,44.7,25.8C840.8,957.8,816.8,1058.6,812.7,1081.1z"/>
		<path class="st3" d="M1007.5,981.6c-35.7-0.8-81.3-9.4-115.5-19.5c5.7,2.6,14.7,9.8,27.4,11c-0.2,7.1-1,20.6-1.2,27.7
			c17,0.8,70.3-3.7,86.5,10.7c11.2,9.9,0.9,25.8-10.5,34.2c-11.4,8.4-26.4,9.9-40.6,9.9c-8.3,0-17.2-0.6-24.1-5.2
			c-6.9-4.7-6.8-11.2-5.9-21.7c-2.9,7.6-5.7,15-5.4,25.5c0.6,16.1,15.3,29.8,41.7,21.3c67.9-22,82.1-17.1,92.1,7
			c6.6,15.9-6,36.1-47.5,42.5c-44.6,6.9-72.3,3.4-96.8-0.5c-13.2-2.1-33.7-7.9-44.6-15.6c-9-6.4-14.6-16.8-17.5-27.5
			c-2.9-10.7-3.2-21.9-3.5-33c-0.9-30.4-0.7-60.8-2.7-91.1c-1.6-23.2-0.3-57,13.2-63.8c38.7-15,100.4-9.5,146.5-4.5
			c16.3,1.8,33.2,5,46.1,15.1c12.9,10.1,19.7,44,12,58.5c-4.4,8.3-12.9,13.8-21.8,16.4C1026.3,981.7,1016.8,981.8,1007.5,981.6z"/>
		<path class="st2" d="M1333.3,966.8c-4.2,25.7-14.4,50.1-19.7,75.6c-3.7,17.8-5,36.3-11.5,53.3c-6.5,17-16.2,33.5-34.2,36.4
			c-19.1,3.2-32-4.3-34.7-23.2c-2.7-19.2-8.1-39-3.3-57.8c4.9-18.8,17.1-20.9,24.3-53.6c-8.4,31-26.5,32.3-31.9,52.5
			c-2.9,10.7,4.5,21.9-2.8,30.3c-9,10.2-31.1,5.4-40.2-4.8c-9.1-10.1-14-18.7-16.3-32.1c-1.7-10.1-3.1-31.9-3.1-31.9
			c-5.2,20.3-5.5,32.4,1,61.6c1.9,8.6,9.9,30,7.7,38.5c-4.4,17.5-20.4,24.1-38.3,22c-17.9-2.1-21-11.7-31-30.8
			c-14.2-27.3-29-65.2-32.7-95.8c-2.9-23.9,0.1-47.9,5.5-71.3c18.2-79.1,124.2-58.1,116.8,1.5c-1.8,14.6-2.3,26.6,5.4,39.1
			c7.3,12,22.5,23.6,26.4,23.6c-10.5-6.5-19.9-17.2-22.6-32.6c-5.3-30,14.3-55.7,40.7-70.9c18.5-10.7,56-22.3,76.9-0.1
			C1333.9,915.3,1337.5,941.1,1333.3,966.8z"/>
	</g>
	<g>
		<path class="st1" d="M656.2,1359.8c-5.8,33.9-15.2,71.3-25,93.4c-6.5,14.8-19.6,36.9-35.5,48.9c-15.9,11.9-44.5,18.9-63.4,12.5
			c-17.1-5.8-29.2-22.1-30.3-40.1c-1.3-19.9,0-26.3-11.9-43.7c8.1,15.8,14.3,29.4-4.6,58.4c-17.6,26.9-30.8,28.7-57.1,26.9
			c-16.9-1.1-39-6.6-59.5-49.2c-18.7-38.8-25.1-94.8-21.2-137.7c2.1-23.5,9.1-47.2,25.7-57.8c20.5-13,52-1.5,66,18.3
			c19.6,27.6,28.3,79.6,11.2,101.9c-4.9,6.4-11.3,9.6-16.1,10.6c-3.5,0.7-7.3,3.5-21.6-7.7c6.3,6.7,14.7,13.3,28.2,9.3
			c13.5-3.9,23.7-15.4,30-27.9c6.3-12.6,9.4-26.4,13.7-39.8c3.2-10.1,8-21,17.7-25.2c11.6-5,29.9,2.8,39.3,11.3
			c12,10.9,18.9,31,20.7,43.5c4.1,29.1-7.1,59.8-32.9,56.3c40.2,4.6,38.2-31.1,40.9-55.4c2.1-18.7,11.5-46.7,19.9-67.5
			c7-17.5,23.7-34.9,42.1-30.9c14.7,3.2,21.1,17.4,24.4,32.1C660,1315,658.7,1345,656.2,1359.8z"/>
		<path class="st1" d="M888.9,1475.6c5.6,18-7.5,39.4-26.4,40c-56,1.6-115.6-48-114.2-80.7c-1.6,24.7,8.4,26.9,10.9,42.9
			c1.9,12.8,1.6,34-37.8,39c-28,3.5-42.1-17.3-43.2-27.3c-9.2-34.6-12.4-67.7-11.8-103.5c0.7-37.5,13.2-76.4,41.5-100.9
			c30.5-26.5,117.3-30.7,161.6-7.3c17.7,9.3,34.2,24.9,41.6,53.6c7.3,28.3-8.1,72.4-32.3,93.8c-18.5,16.3-50.8,24.7-62.8,4.1
			c7.9,12.2,4.6,17.1,32.1,23.6C860.8,1455.8,880.4,1448.2,888.9,1475.6z M813.3,1327.4c-2-2.6-5.3-2.3-8.2-1.7
			c-15.1,3.1-29.8,9.4-43.3,18.5l8.6-4.8c-7.4,4.1-13.8,11-18,19.6c19.7,4.5,40.8-1.9,56.6-17
			C812.8,1338.4,816.4,1331.7,813.3,1327.4z"/>
		<path class="st1" d="M1097.9,1482.3c-26.5,29.9-42.2,31.8-81.8,37.4c-72.2,10.2-93.3-70.6-95-84.2c-3.5-27.4-5.2-55.8,2.9-82.3
			c14.8-48.9,33.5-84.8,84.6-85c51.1-0.2,95.9,23.5,115,70.8C1142.7,1386.4,1131.8,1444,1097.9,1482.3z M1018.8,1396.5
			c-1-7.6-2.6-15.4-7.1-21.6c-12.2-16.7-26.4-6.4-28.1,8.7c-0.2,1.4-0.2,2.8-0.4,4.3c-5.8,10.8-9,22.9-9.1,35.2
			c0.9-7.7,4-15.1,8.7-21.2c0.2,13.4,1.8,27.7,4,39.2c0.9,5.1,2.6,10.7,7.2,13c6.4,3.2,13.9-2.2,17.8-8.2
			C1021,1431.6,1021,1413.3,1018.8,1396.5z"/>
		<path class="st1" d="M1397.7,1453.6c-8.6,23-34.8,54.1-56.8,62.5c-22.9,8.8-43.6-6.8-53-23.6c-12-21.4-15.6-51.5-25.3-74
			c-9.7-22.5-15.2-31-34.8-34.3c17.5,7.7,27.3,4.9,20.5,76.7c-1.7,17.7-6.3,28.3-17.5,42.1c-11.2,13.8-34.9,20.6-50.2,11.7
			c-1.6-0.9-3.3-2.1-4.9-3.5l0.3,1c-35.9-22-47.3-116.8-24-185.1c8-23.6,21.2-52.4,45.7-57c29.8-5.6,57.4,3.2,85.6,33.4
			c25.2,26.9,37.2,53.5,43.8,66.4c13.9,27.4,26.4,48.3-3.7,61.4c43.4-10.9,12.3-64.9,8.8-105.8c-4.9-58.4,30.4-58.8,40.7-58
			c15.5,1.2,30.2,24.8,33.4,40.1C1417.1,1358.3,1418.2,1398.6,1397.7,1453.6z"/>
		<path class="st1" d="M1649.7,1450.3c-1.8,14.3-12.8,39.1-34.8,54.6c-18.6,13.1-28.3,15.9-62.5,15.9c-44.4,0-76.7-8.9-103.6-37.7
			c-27-28.8-32.3-67-26.1-102.3c6.2-35,24.2-70.2,59.3-92.7c35.1-22.5,88.8-27.1,126.6-8.1c14.5,7.3,27.8,11.9,40.9,37.2
			c13.5,26.2-3.4,49.7-21.2,57.1c-37.4,15.5-72.2-5-100.3-3.2c-38.3,2.4-44.2,23.2-42.4,45c1.6,19.2,18.3,45.4,41.3,50.5
			c23,5.1,60.7-3.2,63.9-33.7c-12.6,33.4-46.5,31.3-66.9,21.4c-14.4-6.9-18.1-27.4-5.9-36.7c17.3-13.2,24.6-15,53.2-23l-2.5,0.7
			c27.5-6.2,40.8-1.8,58.1,5.7C1642.4,1407.4,1653.4,1420.9,1649.7,1450.3z"/>
		<path class="st2" d="M643.5,1340.4c-5.8,33.9-15.2,71.3-25,93.4c-6.5,14.8-19.6,36.9-35.5,48.9c-15.9,11.9-44.5,18.9-63.4,12.5
			c-17.1-5.8-29.2-22.1-30.3-40.1c-1.3-19.9,0-26.3-11.9-43.7c8.1,15.8,14.3,29.4-4.6,58.4c-17.6,26.9-30.8,28.7-57.1,26.9
			c-16.9-1.1-39-6.6-59.5-49.2c-18.7-38.8-25.1-94.8-21.2-137.7c2.1-23.5,9.1-47.2,25.7-57.8c20.5-13,52-1.5,66,18.3
			c19.6,27.6,28.3,79.6,11.2,101.9c-4.9,6.4-11.3,9.6-16.1,10.6c-3.5,0.7-7.3,3.5-21.6-7.7c6.3,6.7,14.7,13.3,28.2,9.3
			c13.5-3.9,23.7-15.4,30-27.9c6.3-12.6,9.4-26.4,13.7-39.8c3.2-10.1,8-21,17.7-25.2c11.6-5,29.9,2.8,39.3,11.3
			c12,10.9,18.9,31,20.7,43.5c4.1,29.1-7.1,59.8-32.9,56.3c40.2,4.6,38.2-31.1,40.9-55.4c2.1-18.7,11.5-46.7,19.9-67.5
			c7-17.5,23.7-34.9,42.1-30.9c14.7,3.2,21.1,17.4,24.4,32.1C647.4,1295.6,646,1325.6,643.5,1340.4z"/>
		<path class="st3" d="M876.2,1456.2c5.6,18-7.5,39.4-26.4,40c-56,1.6-115.6-48-114.2-80.7c-1.6,24.7,8.4,26.9,10.9,42.9
			c1.9,12.8,1.6,34-37.8,39c-28,3.5-42.1-17.3-43.2-27.3c-9.2-34.6-12.4-67.7-11.8-103.5c0.7-37.5,13.2-76.4,41.5-100.9
			c30.5-26.5,117.3-30.7,161.6-7.3c17.7,9.3,34.2,24.9,41.6,53.6c7.3,28.3-8.1,72.4-32.3,93.8c-18.5,16.3-50.8,24.7-62.8,4.1
			c7.9,12.2,4.6,17.1,32.1,23.6C848.1,1436.4,867.7,1428.8,876.2,1456.2z M800.6,1308.1c-2-2.6-5.3-2.3-8.2-1.7
			c-15.1,3.1-29.8,9.4-43.3,18.5l8.6-4.8c-7.4,4.1-13.8,11-18,19.6c19.7,4.5,40.8-1.9,56.6-17C800.2,1319,803.8,1312.3,800.6,1308.1
			z"/>
		<path class="st2" d="M1085.2,1462.9c-26.5,29.9-42.2,31.8-81.8,37.4c-72.2,10.2-93.3-70.6-95-84.2c-3.5-27.4-5.2-55.8,2.9-82.3
			c14.8-48.9,33.5-84.8,84.6-85c51.1-0.2,95.9,23.5,115,70.8C1130,1367,1119.1,1424.7,1085.2,1462.9z M1006.1,1377.1
			c-1-7.6-2.6-15.4-7.1-21.6c-12.2-16.7-26.4-6.4-28.1,8.7c-0.2,1.4-0.2,2.8-0.4,4.3c-5.8,10.8-9,22.9-9.1,35.2
			c0.9-7.7,4-15.1,8.7-21.2c0.2,13.4,1.8,27.7,4,39.2c0.9,5.1,2.6,10.7,7.2,13c6.4,3.2,13.9-2.2,17.8-8.2
			C1008.3,1412.2,1008.4,1393.9,1006.1,1377.1z"/>
		<path class="st3" d="M1385,1434.2c-8.6,23-34.8,54.1-56.8,62.5c-22.9,8.8-43.6-6.8-53-23.6c-12-21.4-15.6-51.5-25.3-74
			c-9.7-22.5-15.2-31-34.8-34.3c17.5,7.7,27.3,4.9,20.5,76.7c-1.7,17.7-6.3,28.3-17.5,42.1c-11.2,13.8-34.9,20.6-50.2,11.7
			c-1.6-0.9-3.3-2.1-4.9-3.5l0.3,1c-35.9-22-47.3-116.8-24-185.1c8-23.6,21.2-52.4,45.7-57c29.8-5.6,57.4,3.2,85.6,33.4
			c25.2,26.9,37.2,53.5,43.8,66.4c13.9,27.4,26.4,48.3-3.7,61.4c43.4-10.9,12.3-64.9,8.8-105.8c-4.9-58.4,30.4-58.8,40.7-58
			c15.5,1.2,30.2,24.8,33.4,40.1C1404.4,1339,1405.5,1379.2,1385,1434.2z"/>
		<path class="st2" d="M1637.1,1430.9c-1.8,14.3-12.8,39.1-34.8,54.6c-18.6,13.1-28.3,15.9-62.5,15.9c-44.4,0-76.7-8.9-103.6-37.7
			c-27-28.8-32.3-67-26.1-102.3c6.2-35,24.2-70.2,59.3-92.7c35.1-22.5,88.8-27.1,126.6-8.1c14.5,7.3,27.8,11.9,40.9,37.2
			c13.5,26.2-3.4,49.7-21.2,57.1c-37.4,15.5-72.2-5-100.3-3.2c-38.3,2.4-44.2,23.2-42.4,45c1.6,19.2,18.3,45.4,41.3,50.5
			c23,5.1,60.7-3.2,63.9-33.7c-12.6,33.4-46.5,31.3-66.9,21.4c-14.4-6.9-18.1-27.4-5.9-36.7c17.3-13.2,24.6-15,53.2-23l-2.5,0.7
			c27.5-6.2,40.8-1.8,58.1,5.7C1629.7,1388.1,1640.7,1401.6,1637.1,1430.9z"/>
	</g>
	<g>
		<path class="st2" d="M1562.9,1209.5c-6.1,0-12.3-1.2-18.2-3.4c-24.2-9.2-29.1-31-32.6-46.9c-3.2-14.3-5.2-20.8-11.7-23.2
			c-7.2-2.7-15.2-3.6-23.6-4.5c-19.3-2.1-43.3-4.8-54.8-35.1c-9-23.5,3.6-40.3,13.7-53.8c9.3-12.5,14.4-20,10.6-30.2
			c-5-13.3-13.6-23.9-21.9-34.2c-10.8-13.3-21.9-27.1-23.1-45.5c-1.4-21.6,5.8-58.7,70.4-63.5c13.1-1,29.9-7.6,43.7-50.8
			c8.3-25.7,35.7-45,63.7-45c23.2,0,41.6,13.3,49.1,35.6c8.2,24.3,20.9,35.1,41,35.1c8.3,0,18-1.9,29-5.5c9.7-3.3,19.3-4.9,28.6-4.9
			c19.3,0,36.6,7.2,48.5,20.2c11.5,12.5,16.9,29.2,15.3,47c-3.1,35.4-1.7,48,28,61.9c18.4,8.6,29,22.9,29.7,40.1
			c0.9,23.6-16.6,48.1-47,65.4c-15.8,9-17.9,22.7-20.1,44.4c-2,20-4.3,42.7-26.6,57c-10.2,6.5-21.4,9.6-34.4,9.6
			c-13.9,0-27.1-3.6-39.9-7.1c-10.4-2.8-20.2-5.5-28.3-5.5c-3.5,0-6.4,0.5-8.9,1.5c-8.2,3.2-16.8,9.7-26,16.5
			C1601.5,1196.3,1583.8,1209.5,1562.9,1209.5z"/>
		<path class="st4" d="M1472.6,879.7c21.2-1.6,39.4-15.8,53.1-58.1c12.7-39.6,76.8-55.9,92.6-9.3c13.1,38.7,39.2,51.1,83.4,36.2
			c46.8-15.7,81.8,13.4,78.4,51.3c-3.4,37.9-1.4,55.9,34.1,72.5c38.6,18.1,27.8,60.5-18.1,86.7c-41.4,23.6-10.1,78-47.2,101.6
			s-80.6-13.7-109.7-2.4c-28.4,11.1-55.3,51.4-90.7,37.9c-35.4-13.5-17.4-60-44.3-70.2c-26.9-10.1-58.7,1.9-72.2-33.5
			c-13.5-35.4,36.7-51.1,24.4-83.9s-42.5-49.1-44.4-76.6C1409.5,894.8,1438.9,882.2,1472.6,879.7z"/>
		
			<ellipse transform="matrix(0.3278 -0.9447 0.9447 0.3278 174.4616 2120.6792)" class="st5" cx="1577.6" cy="937.7" rx="40.7" ry="18.5"/>
		
			<ellipse transform="matrix(0.3278 -0.9447 0.9447 0.3278 211.2477 2246.5378)" class="st5" cx="1684.4" cy="974.8" rx="40.7" ry="18.5"/>
		<path class="st5" d="M1618.6,1108.7c-14.7,0-29.5-2.7-43.7-8.1c-63-24.1-94.7-94.9-70.6-157.9l2.5,1
			c-23.5,61.6,7.4,130.9,69.1,154.5c29.9,11.4,62.4,10.5,91.6-2.5c29.2-13,51.5-36.7,62.9-66.5l2.5,1c-11.7,30.5-34.5,54.7-64.3,68
			C1652.5,1105.1,1635.6,1108.7,1618.6,1108.7z"/>
	</g>
	<circle class="st6" cx="377.6" cy="332.1" r="27.8"/>
	<circle class="st6" cx="1770.5" cy="1323.4" r="27.8"/>
	<circle class="st6" cx="490" cy="1637.6" r="27.8"/>
	<circle class="st6" cx="362.2" cy="1604.1" r="10.2"/>
	<circle class="st6" cx="572.3" cy="407.5" r="12.3"/>
	<circle class="st6" cx="1666.6" cy="730.3" r="12.3"/>
	<circle class="st6" cx="250.9" cy="818.1" r="12.3"/>
</g>
</svg>
