<?xml version="1.0" encoding="utf-8"?>
<!-- Generator: Adobe Illustrator 26.1.0, SVG Export Plug-In . SVG Version: 6.00 Build 0)  -->
<svg version="1.1" id="Слой_1" xmlns="http://www.w3.org/2000/svg" xmlns:xlink="http://www.w3.org/1999/xlink" x="0px" y="0px"
	 viewBox="0 0 2000 2000" style="enable-background:new 0 0 2000 2000;" xml:space="preserve">
<style type="text/css">
	.st0{fill:#F9F6EF;}
	.st1{fill:#FFFFFF;}
	.st2{fill:#5B4C43;}
	.st3{fill:#BDDEA7;}
	.st4{fill:#E8888A;}
	.st5{fill:#BEA6CA;}
	.st6{fill:#FCF8B1;}
	.st7{fill:#A7C5E9;}
	.st8{fill:#6CC3BD;}
	.st9{fill:#F4C1AC;}
	.st10{fill:#EA8889;}
</style>
<g>
	<rect class="st0" width="2000" height="2000"/>
	<path class="st1" d="M1690.1,244.7c-1.1-18.4-9.5-34.9-22.2-46.7c-10.7-22-32.6-37.6-58.3-39.2c-9.1-0.6-19.9-1.1-30.8-1.7l-1-0.1
		c-10.7-0.5-21.4-1.1-30.2-1.6c-1.5-0.1-2.9-0.1-4.4-0.1c-12.8,0-24.9,3.6-35.3,9.8c-10.4-6.2-22.5-9.8-35.4-9.8
		c-0.7,0-0.7,0-88.6,2c-12.6,0.3-24.3,3.9-34.4,10.1c-14-7.5-28-11.8-40.9-14c-9-1.5-18.1-2.3-27-2.3c-45.9,0-87.8,20.9-118.4,56.5
		c-2.8-3-5.7-5.8-8.7-8.6c-38.4-35.6-89.4-55.2-143.5-55.2c-40.3,0-79.9,10.8-114.6,31.3c-3.5,2-6.7,4.4-9.7,7
		c-3.2-2.5-6.4-4.8-9.6-7c-28.1-19.3-61.4-29.5-96.5-29.5c-36.9,0-73.1,11.4-103.3,31.6c-46.5-18.8-95.5-28.7-145.8-29.5
		c-2.2,0-4.4-0.1-6.5-0.1c-49.7,0-98.5,9-145,26.7c-31.6,12-49.9,44.8-43.6,78l12,63.2c2.9,15.1,10.5,28.3,21.2,38.1
		c8.1,16.7,22.6,29.4,40,35.4c0.7,56.3,8.7,112.1,23.4,159c3.8,12,10.5,22.4,19.3,30.4c11.5,23.7,35.5,39.1,62.5,39.1
		c0.8,0,0.8,0,51.6-1.2c3.3-0.1,6.6-0.4,9.8-1c-0.3,1.1-0.7,2.1-0.9,3.2c-24.3,99.8-22.8,233.6,3.8,332.8c2.1,8,5.6,15.3,10.2,21.7
		c-83.7,28-134.7,114.4-142.2,197c-8.7,71.2,10.2,141.5,50.8,189.1c5.2,8.1,11,15.8,17.2,22.9c26.6,30.2,61.5,50.1,100.7,57.8
		c-0.9,2.4-1.7,4.8-2.3,7.3c-12.6,50.2-18.2,103.9-16.9,164c1.2,54.6,9.4,108.9,24.4,161.4c3.6,12.5,10.5,23.4,19.7,31.9
		c10.8,22.2,32.9,37.5,58.1,39.1c5.6,0.4,11.2,0.5,16.8,0.5c5.1,0,10.3-0.2,15.3-0.4c44.6-2.6,92.3-16.9,132.6-39.4
		c11.1,19.9,31.5,33.9,55.8,35.6l66.8,4.8c1.6,0.1,3.2,0.2,4.7,0.2c18.3,0,35.3-7.2,47.9-19.1c12.3,10.8,28.4,17.2,45.8,17.2h61.2
		c16.3,0,31.3-5.7,43.2-15.1c12.4,10.7,28.5,17.1,45.5,17.1c1.1,0,1.1,0,60.5-2c32.4-1.1,60.2-25,66.1-56.8
		c3.7-20,6.7-40.2,8.8-60.5c50.4-53.1,76.1-144.4,69.4-251.6c-1.1-18.4-9.5-34.9-22.2-46.7c-2.3-4.8-5.2-9.3-8.6-13.4
		c23.3-7.6,45.8-17.9,66.1-30.3c57.6-35.3,94.7-85.9,107.5-146.1c14-66.2-3.9-136.9-45.9-186.5c-8.9-13.8-19.5-26.5-31.5-37.6
		c-36.6-33.9-84.7-53.3-136-55c0.1-1.5,0.2-3,0.2-4.5c0-5.7,0.1-12.6,0.2-20.4c0.6-47.2,1.6-118.6-10.7-183.7
		c-10.8-57-29.8-95.2-51.9-120.5c-7-11-14.5-20.3-22.3-28.1c1.9-1.5,3.8-3,5.6-4.7c12.3,10.8,28.4,17.2,45.8,17.2h61.2
		c16.3,0,31.3-5.7,43.2-15.1c12.4,10.7,28.5,17.1,45.5,17.1c1.1,0,1.1,0,60.5-2c32.4-1.1,60.2-25,66.1-56.8
		c3.7-20,6.7-40.3,8.8-60.5C1671.1,443.2,1696.8,351.9,1690.1,244.7z"/>
	<g>
		<g>
			<g>
				<path class="st2" d="M515,557.1c-4,0-7.5-2.6-8.7-6.4c-19.8-63.3-25.8-146.9-16.2-220.8c-19.6,0.4-38.8,1.2-57.2,2.4
					c-0.2,0-0.4,0-0.6,0c-4.3,0-8.1-3.1-8.9-7.4l-12-63.2c-0.8-4.3,1.6-8.6,5.7-10.2c39.6-15.1,81.2-22.7,123.5-22.7
					c1.8,0,3.7,0,5.5,0c46.2,0.7,91.2,10.5,133.6,29.1c4.2,1.8,6.4,6.5,5.1,10.9l-17.4,59.6c-1.1,3.9-4.7,6.5-8.7,6.5
					c-0.3,0-0.5,0-0.8,0c-21.6-1.8-44.3-3.2-67.6-4.2c5.5,72.3-0.6,153.1-16.6,218.2c-1,4-4.5,6.8-8.6,6.9
					C565.1,555.9,515.1,557.1,515,557.1z"/>
			</g>
			<path class="st2" d="M658.7,326c-25.2-2.1-51.6-3.7-78.3-4.5c6.8,73.7,1,158-15.6,225.4l-49.9,1.2
				c-20.5-65.7-25.6-154.1-14.4-227.4c-23.2,0.4-46.1,1.2-68.3,2.6c-4-21.1-8-42.1-12-63.2c26.2-10,70.2-23,125.7-22.1
				c58.5,0.9,104,16.9,130.1,28.3C670.3,286.2,664.5,306.1,658.7,326z"/>
			<g>
				<g>
					<path class="st2" d="M786.5,560.3c-20.9,0-40.7-5.8-57.1-16.8c-43.7-29.3-63.1-81.7-53.6-143.8c-12.7-48.8-3.5-94.7,26-129.4
						c22.8-27.2,58-43.5,94.3-43.5c22.8,0,44.4,6.6,62.4,18.9c38.9,26.3,61.7,74.3,65.9,138.7c1.1,17.2,0.6,32.9-1.7,47.9
						c-7.6,49.3-33,88.5-71.6,110.4C830.7,554.3,808.4,560.3,786.5,560.3z M786.7,335.3c4,2.7,5.1,8.1,2.6,12.2
						c-8,13.2-13.6,27.3-16.5,41.9c-0.1,0.3-6.8,35.8,6.7,60.8c1.6,3,3.2,4.7,4.9,5.5c0.9,0.4,1.8,0.5,2.9,0.5c3,0,6-1.3,7.3-1.9
						c14.1-6.1,29-49.7,19.8-95c-3.4-16.7-9-27.8-15.9-31.2c-3.8-1.9-7.9-2.3-10.6-2.3c-2.9,0-4.9,0.4-5,0.4
						c-2.3,0.5-4.3,1.3-6.1,2.2L786.7,335.3z"/>
				</g>
			</g>
			<path class="st2" d="M913.7,431c-6.6,43.4-28.3,81.9-67.1,103.8c-34.2,19.3-78.3,23.8-112.1,1.1c-45.7-30.7-57.8-84.9-49.4-136.8
				c-11.4-42-7-86.9,23.7-123.1c34.3-41,99.1-54.3,144.6-22.9c43.5,29.5,58.8,82.6,62,131.9C916.4,400.4,916.1,415.8,913.7,431z
				 M823.4,357.6c-5.8-28.7-16.7-35.5-20.7-37.5c-9.9-5-20.7-2.8-21.6-2.6c-11,2.4-17.4,9.6-19.2,11.8l19.7,13.6
				c-11,18.1-15.5,34.4-17.6,44.9c0,0-7.7,38.6,7.6,66.9c2.1,3.9,4.9,7.6,9.3,9.5c7.2,3.1,14.9-0.3,17.4-1.4
				C819.1,453.7,832.6,403.1,823.4,357.6z"/>
			<g>
				<g>
					<path class="st2" d="M966.6,554.3c-4.3,0-8.7-0.1-12.9-0.4c-3.8-0.2-7.1-2.9-8.1-6.6c-13.6-47.5-21-96.6-22.1-146
						c-1.2-54.6,3.8-103,15.1-147.9c0.6-2.3,2.1-4.4,4.2-5.6c25.4-15,54.4-22.9,83.8-22.9c38.8,0,75.2,13.9,102.3,39.1
						c38.1,35.3,55.3,92.8,44,146.5C1152,508.7,1045.2,550.1,978.4,554C974.5,554.2,970.5,554.3,966.6,554.3z M1028.9,325.6
						c3,40.9,2.7,77.9-0.9,117.8c26.9-17.7,43.3-35.3,47.8-62.6c3.1-30.5-20-52.4-47.3-60.9C1028.7,321.7,1028.8,323.7,1028.9,325.6
						z"/>
				</g>
			</g>
			<path class="st2" d="M1163.9,408.6c-18.9,89.3-117.3,132.3-186,136.3c-9.7,0.6-17.9,0.3-23.7-0.1c-10.3-35.9-20.5-85-21.7-143.7
				c-1.3-61.4,5.4-108.3,14.8-145.5c55.4-32.8,128.1-28.8,175.4,15C1161.6,306.7,1173.5,363.4,1163.9,408.6z M1018.5,308.1
				c0.5,5.9,0.9,11.9,1.3,18.1c3.3,45.7,2.7,87.1-2.8,134.6c34-20.1,61.5-40.5,67.7-78.9C1089,342.2,1055.2,314.3,1018.5,308.1z"/>
			<g>
				<g>
					<path class="st2" d="M1241.2,555l-66.5-4.8c-4.8-0.3-8.5-4.4-8.4-9.3c1.1-48.8,6.7-142.8,31.4-223.6
						c12.9-41.2,45.8-85.2,99.4-85.2c5.5,0,11.2,0.5,16.9,1.5c95.8,16.4,93.3,200.6,92.1,289.2c-0.1,8.1-0.2,15.2-0.2,21.2
						c0,5-4.1,9.1-9.1,9.1h-61.2c-4.4,0-8.1-3.1-8.9-7.4c-2.4-12.8-3.6-36.7-4.1-50.6c-14.9,2.4-27.1,3.4-38.7,3.4
						c-8.1,0-15.7-0.5-23-1.6c-3.6,18.1-7.1,36-10,50.7c-0.8,4.3-4.6,7.3-8.9,7.3C1241.6,555.1,1241.4,555.1,1241.2,555z
						 M1277.9,415.3c10.9,0.1,21.9,0.8,32.8,2.2c-1.6-9.9-3.4-19.7-5.4-29.5c-3.5-17.3-6.7-33-9.3-42.6
						C1292.3,355,1286.4,374.7,1277.9,415.3z"/>
				</g>
			</g>
			<path class="st2" d="M1396.7,544.1h-61.2c-3.4-17.8-4.2-59.6-4.2-59.6c-25.9,4.8-52.4,7.6-77.6,1.9c-4.1,20.3-8,40.3-11.8,59.6
				l-66.5-4.8c1.6-68.8,10-152.3,31-221.2c14.6-46.5,52-86.7,106-77.4C1409,259.2,1396.7,475.9,1396.7,544.1z M1321.6,428.3
				c-1.5-10.1-3.9-24.6-7.4-42.1c-7.7-38-11.5-57-17-57.4c-5.4-0.5-14.5,16.1-30.5,95.7C1284.8,423.9,1303.5,425.2,1321.6,428.3z"/>
			<g>
				<path class="st2" d="M1485.3,555.1c-3.8,0-7.2-2.3-8.5-5.9c-9.6-25.6-13.9-52.3-12.8-79.2c-43.1-33.5-70.6-117.8-72.2-222.3
					c-0.1-5,3.9-9.1,8.9-9.2c0,0,87.1-1.9,87.2-1.9c4.8,0,8.7,3.7,9.1,8.4c2.1,29.8,4.7,59.6,7.8,88.6c1.4,12.7,5,46.5,11.3,48.2
					c0,0,0,0,0.1,0c1,0,2-0.5,2.7-0.8l0.4-0.2c10.4-4.4,23.9-29.9,29.7-126.2c0.3-4.2,0.5-7.6,0.6-9.8c0.4-4.7,4.4-8.3,9-8.3
					c0.2,0,0.4,0,0.6,0c9.1,0.6,20,1.1,30.9,1.7c11,0.6,22,1.1,31.1,1.7c4.6,0.3,8.2,3.9,8.5,8.5c6.2,100.5-19.4,183.7-67.2,218.9
					c-0.2,3-0.5,6.1-0.7,9.2c-2,23.1-5.2,46.4-9.4,69.3c-0.8,4.2-4.4,7.3-8.6,7.4C1543.8,553.1,1485.4,555.1,1485.3,555.1z"/>
			</g>
			<path class="st2" d="M1620.7,249c6.1,98.7-18.8,181.2-66.8,213.4c-0.3,4.4-0.6,8.8-1,13.3c-2.1,24.6-5.4,47.5-9.3,68.4
				c-19.4,0.6-38.8,1.3-58.2,1.9c-6.2-16.4-13.7-43.1-12.2-76.3c0.1-1.4,0.1-2.7,0.2-4.1c-42.3-29-70.8-110.8-72.4-218
				c29-0.6,58-1.3,87-1.9c2.5,35.8,5.4,65.9,7.9,88.9c3,28.2,6.2,52.9,18,56c4,1,7.6-0.8,9-1.4c31.4-13.5,34.2-124.4,35.8-143.5
				C1576.9,246.8,1602.4,247.9,1620.7,249z"/>
			<g>
				<path class="st2" d="M661.8,963.3c-4.1,0-7.7-2.8-8.8-6.7c-23.8-88.9-25.2-213.5-3.4-302.9c1-4,4.6-6.9,8.7-6.9
					c0,0,66.8-0.8,66.8-0.8c4.5,0,8.4,3.3,9,7.8c12.9,91.8,7.6,210.3-13.5,301.9c-0.9,4.1-4.6,7-8.7,7
					C711.8,962.7,661.8,963.3,661.8,963.3z"/>
			</g>
			<path class="st2" d="M725.1,655c12.9,91.6,7.4,208.6-13.4,298.6l-49.9,0.6c-23.4-87.5-24.7-210.6-3.4-298.4L725.1,655z"/>
			<g>
				<path class="st2" d="M863.1,971.3c-28,0-55.9-9-78.5-25.3c-30-22.1-45.3-62.7-39-103.5c0.7-4.4,4.5-7.7,9-7.7
					c0.1,0,50.3,2.2,50.3,2.2c4.4,0.2,8.1,3.6,8.6,8c1.9,16,7,26.1,15.2,30.2c6.7,2.8,14.4,4.4,21.7,4.4c6.7,0,12.5-1.3,16.9-3.8
					c2.6-1.4,5-4.4,5.6-6.8c0.2-0.8,0.1-1.3,0-1.6c-8.1-8.4-21.2-13.9-33.9-19.2c-5.6-2.3-11.4-4.8-16.8-7.4
					c-24.6-9.8-67-32.6-77.3-75.2c-7.1-26.4-2.5-53.5,13.1-76.1c17.4-25.3,46.9-42.5,78.8-45.8c5.6-0.6,11.3-0.9,16.9-0.9
					c36.4,0,74.8,12,108,33.7c4,2.6,5.3,7.8,3,11.9l-31.8,58.6c-1.4,2.5-3.8,4.2-6.6,4.6c-0.5,0.1-0.9,0.1-1.4,0.1
					c-2.3,0-4.6-0.9-6.3-2.5c-3.1-3-6.5-5.6-10.2-7.9c-10.3-6.5-22.7-9.9-35.7-9.9c-3.5,0-7,0.3-10.5,0.8l-1.7,0.2
					c-3.4,0.5-11,1.5-13.1,3.6c3.5,5.2,10.8,7.8,18.4,10.6c1.1,0.4,2.2,0.8,3.2,1.2c9.7,3.6,20,8.1,31.5,13.9
					c19,9.6,42.9,23.4,58.6,45.8c13.3,19,17.9,48.8,11.8,77.7c-6.4,30.4-23.1,55.1-47.1,69.7C906.1,965.7,885.1,971.3,863.1,971.3z"
					/>
			</g>
			<path class="st2" d="M865.9,756.4c10.4,3.8,20.6,8.5,30.5,13.5c20.7,10.4,41.7,23.6,55.2,42.9c23,32.8,16.7,104.4-32.6,134.4
				c-39.7,24.1-92.6,18-129.1-8.5c-29.2-21.5-40.7-60.3-35.3-94.8l49.9,2.2c1.7,14.5,6.6,30.7,20.4,37.4c14.3,6.1,33.8,7.6,46.8,0.2
				c7.3-3.9,13.5-14.3,8.4-21.8c-13.2-14.4-36.5-20.4-54.3-29.4c-30.9-12.3-63.9-34.5-72.2-69.1c-15.2-56.4,29.4-105,84-110.7
				c42.1-4.3,84.6,8.9,119,31.5l-31.8,58.6c-2.1-2-6.1-5.6-11.6-9c-15.4-9.7-34.4-13.1-52.3-10.4c-6.9,1-18,2-21.8,9
				c-1.6,2.9-1.3,5.5,0.1,7.8C844.7,749.6,856.2,752.8,865.9,756.4z"/>
			<g>
				<g>
					<path class="st2" d="M1143.8,964.8l-66.5-4.8c-4.8-0.3-8.5-4.4-8.4-9.3c1.1-48.8,6.7-142.8,31.4-223.6
						c12.9-41.2,45.8-85.2,99.4-85.2c5.5,0,11.2,0.5,16.9,1.5c95.8,16.4,93.3,200.6,92.1,289.2c-0.1,8.1-0.2,15.2-0.2,21.2
						c0,5-4.1,9.1-9.1,9.1h-61.2c-4.4,0-8.1-3.1-8.9-7.4c-2.4-12.8-3.6-36.7-4.1-50.6c-14.9,2.4-27.1,3.4-38.7,3.4
						c-8.1,0-15.7-0.5-23-1.6c-3.6,17.7-6.9,35.1-10,50.7c-0.8,4.3-4.6,7.3-8.9,7.3C1144.3,964.9,1144,964.9,1143.8,964.8z
						 M1180.5,825.1c10.9,0.1,21.9,0.8,32.8,2.2c-1.6-9.9-3.4-19.7-5.4-29.5c-3.5-17.3-6.7-33-9.3-42.6
						C1194.9,764.8,1189,784.5,1180.5,825.1z"/>
				</g>
			</g>
			<path class="st2" d="M1299.3,953.9h-61.2c-3.4-17.8-4.2-59.6-4.2-59.6c-25.9,4.8-52.4,7.6-77.6,1.9c-4.1,20.3-8,40.3-11.8,59.6
				l-66.5-4.8c1.6-68.8,10-152.3,31-221.2c14.6-46.5,52-86.7,106-77.4C1311.6,669,1299.3,885.7,1299.3,953.9z M1224.2,838.1
				c-1.5-10.1-3.9-24.6-7.4-42.1c-7.7-38-11.5-57-17-57.4c-5.4-0.4-14.5,16.1-30.5,95.7C1187.5,833.7,1206.2,835,1224.2,838.1z"/>
			<g>
				<path class="st2" d="M653.9,1383.3c-37.4,0-69.6-14.2-93.2-41c-30.8-35-45-89.2-37.9-144.9c6.4-73.9,57.6-152.3,140.3-152.3
					l1.8,0c48.3,2,84.5,17.5,104.9,44.8c2.9,3.9,2.3,9.3-1.4,12.4l-51.1,42.6c-1.7,1.4-3.7,2.1-5.8,2.1c-1.2,0-2.4-0.2-3.5-0.7
					c-7.3-2-18-4.5-28.2-4.5c-10.2,0-17.9,2.4-23.6,7.4c-27.6,24.7-31.8,89.2-15.8,124.8c6,10.4,15.7,16.6,26.2,16.6
					c10.1,0,21.7-6.5,24.8-24.1c-2,0-4,0.1-6.1,0.1c-3.3,0.1-6.6,0.2-9.8,0.2c-9,0-19.5-0.6-29.1-5c-3.4-1.5-5.5-5-5.3-8.7l2.1-42.2
					c0.2-4,2.9-7.3,6.8-8.3c21.3-5.5,41.9-8.3,61.3-8.3c22.7,0,43.2,3.9,60.8,11.6c3.3,1.4,5.4,4.6,5.4,8.2l0.6,37.4
					c0.1,3.5-1.9,6.7-5,8.3c-2.4,1.2-6.5,2.6-10.3,3.7c-2.4,69.8-40.9,116.4-99.7,119.6C659.8,1383.2,656.8,1383.3,653.9,1383.3z"/>
			</g>
			<path class="st2" d="M753.4,1256.3c0.1,64-31.3,114.4-91.2,117.6c-99.1,5.7-141.5-89.5-130.5-175.7
				c6.1-71.2,54.9-145.2,132.9-144.1c35.6,1.5,75.3,11.1,97.8,41.1l-51.1,42.6c-0.2-0.1-0.4-0.2-0.6-0.3c-18.2-4.9-44-9.8-60.7,4.7
				c-31.6,28.3-35.3,97.6-18,135.8c19.1,33.9,68.5,28.2,68.9-20.6c-17.3-0.9-36.5,2.7-51.1-4l2.1-42.2c37.2-9.7,80.7-12.7,116.1,2.8
				l0.6,37.4C763.9,1254,753.4,1256.3,753.4,1256.3z"/>
			<g>
				<g>
					<path class="st2" d="M886.7,1379.9c-20.9,0-40.7-5.8-57.1-16.8c-43.7-29.3-63.1-81.7-53.6-143.8c-12.7-48.8-3.5-94.7,26-129.4
						c22.8-27.2,58-43.5,94.3-43.5c22.8,0,44.4,6.6,62.4,18.9c38.9,26.3,61.7,74.3,65.9,138.7c1.1,17.2,0.6,32.9-1.7,47.9
						c-7.6,49.4-33,88.5-71.6,110.4C930.9,1373.9,908.6,1379.9,886.7,1379.9z M886.9,1154.9c4,2.7,5.1,8.1,2.6,12.2
						c-8,13.2-13.6,27.3-16.5,41.9c-0.1,0.3-6.8,35.8,6.7,60.8c1.6,3,3.2,4.7,4.9,5.5c0.8,0.4,1.8,0.5,2.9,0.5c3,0,6-1.3,7.3-1.9
						c14.1-6.1,29-49.7,19.8-95c-3.4-16.7-9-27.8-15.9-31.2c-3.8-1.9-7.9-2.3-10.6-2.3c-2.9,0-4.9,0.4-5,0.4
						c-2.3,0.5-4.3,1.3-6.1,2.2L886.9,1154.9z"/>
				</g>
			</g>
			<path class="st2" d="M1013.9,1250.6c-6.6,43.4-28.3,81.9-67.1,103.8c-34.2,19.3-78.3,23.8-112.1,1.1
				c-45.7-30.7-57.8-84.9-49.4-136.8c-11.4-42-7-86.9,23.7-123.1c34.3-41,99.1-54.3,144.6-22.9c43.5,29.5,58.8,82.6,62,131.9
				C1016.6,1220,1016.2,1235.4,1013.9,1250.6z M923.5,1177.2c-5.8-28.7-16.7-35.5-20.7-37.5c-9.9-5-20.7-2.8-21.6-2.6
				c-11,2.4-17.4,9.6-19.2,11.8l19.7,13.6c-11,18.1-15.5,34.4-17.6,44.9c0,0-7.7,38.6,7.6,66.9c2.1,3.9,4.9,7.6,9.3,9.5
				c7.2,3.1,14.9-0.3,17.4-1.4C919.3,1273.3,932.8,1222.7,923.5,1177.2z"/>
			<g>
				<g>
					<path class="st2" d="M1136.6,1379.9c-20.9,0-40.7-5.8-57.1-16.8c-43.7-29.3-63.1-81.7-53.6-143.8c-12.7-48.8-3.5-94.7,26-129.4
						c22.8-27.2,58-43.5,94.3-43.5c22.8,0,44.4,6.6,62.4,18.9c38.9,26.3,61.7,74.3,65.9,138.7c1.1,17.2,0.6,32.9-1.7,47.9
						c-7.6,49.3-33,88.5-71.6,110.4C1180.8,1373.9,1158.5,1379.9,1136.6,1379.9z M1136.9,1154.9c4,2.7,5.1,8.1,2.6,12.2
						c-8,13.2-13.6,27.3-16.5,41.9c-0.1,0.3-6.8,35.8,6.7,60.8c1.6,3,3.2,4.7,4.9,5.5c0.8,0.4,1.8,0.5,2.9,0.5c3,0,6-1.3,7.3-1.9
						c14.1-6.1,29-49.7,19.8-95c-3.4-16.7-9-27.8-15.9-31.2c-3.8-1.9-7.9-2.3-10.6-2.3c-2.9,0-4.9,0.4-5,0.4
						c-2.3,0.5-4.3,1.3-6.1,2.2L1136.9,1154.9z"/>
				</g>
			</g>
			<path class="st2" d="M1263.8,1250.6c-6.6,43.4-28.3,81.9-67.1,103.8c-34.2,19.3-78.3,23.8-112.1,1.1
				c-45.7-30.7-57.8-84.9-49.4-136.8c-11.4-42-7-86.9,23.7-123.1c34.3-41,99.1-54.3,144.6-22.9c43.5,29.5,58.8,82.6,62,131.9
				C1266.5,1220,1266.2,1235.4,1263.8,1250.6z M1173.5,1177.2c-5.8-28.7-16.7-35.5-20.7-37.5c-9.9-5-20.7-2.8-21.6-2.6
				c-11,2.4-17.4,9.6-19.2,11.8l19.7,13.6c-11,18.1-15.5,34.4-17.6,44.9c0,0-7.7,38.6,7.6,66.9c2.1,3.9,4.9,7.6,9.3,9.5
				c7.2,3.1,14.9-0.3,17.4-1.4C1169.2,1273.3,1182.7,1222.7,1173.5,1177.2z"/>
			<g>
				<g>
					<path class="st2" d="M1316.7,1368.8c-4.3,0-8.7-0.1-13-0.4c-3.8-0.2-7.1-2.9-8.1-6.6c-13.6-47.5-21-96.6-22.1-146
						c-1.2-54.6,3.8-103,15.1-147.9c0.6-2.3,2.1-4.4,4.2-5.6c25.4-15,54.4-22.9,83.8-22.9c38.8,0,75.2,13.9,102.3,39
						c38.1,35.3,55.3,92.8,44,146.5c-20.8,98.2-127.6,139.6-194.4,143.5C1324.7,1368.7,1320.7,1368.8,1316.7,1368.8z M1379,1140.1
						c3,40.9,2.7,77.9-0.9,117.8c26.9-17.7,43.3-35.3,47.8-62.6c3.1-30.5-20-52.4-47.3-60.9
						C1378.8,1136.2,1378.9,1138.1,1379,1140.1z"/>
				</g>
			</g>
			<path class="st2" d="M1514,1223.1c-18.9,89.3-117.3,132.3-186,136.3c-9.7,0.6-17.9,0.3-23.7-0.1c-10.3-35.9-20.5-85-21.7-143.7
				c-1.3-61.4,5.4-108.3,14.8-145.5c55.4-32.8,128.1-28.8,175.4,15C1511.7,1121.1,1523.6,1177.8,1514,1223.1z M1368.7,1122.6
				c0.4,5.9,0.9,11.9,1.3,18.1c3.3,45.7,2.7,87.1-2.8,134.6c34-20.1,61.5-40.5,67.7-78.9C1439.1,1156.6,1405.3,1128.7,1368.7,1122.6
				z"/>
			<g>
				<g>
					<path class="st2" d="M715.8,1783.8c-4.3,0-8.7-0.1-13-0.4c-3.8-0.2-7.1-2.9-8.1-6.6c-13.6-47.5-21-96.6-22.1-146
						c-1.2-54.6,3.8-103,15.1-147.9c0.6-2.3,2.1-4.4,4.2-5.6c25.4-15,54.4-22.9,83.8-22.9c38.8,0,75.2,13.9,102.3,39
						c38.1,35.3,55.3,92.8,44,146.5c-20.8,98.2-127.6,139.6-194.4,143.5C723.7,1783.6,719.8,1783.8,715.8,1783.8z M778.1,1555
						c3,40.9,2.7,77.9-0.9,117.8c26.9-17.7,43.3-35.3,47.8-62.6c3.1-30.5-20-52.4-47.3-60.9C777.8,1551.1,778,1553.1,778.1,1555z"/>
				</g>
			</g>
			<path class="st2" d="M913.1,1638c-18.9,89.3-117.3,132.3-186,136.3c-9.7,0.6-17.9,0.3-23.7-0.1c-10.3-35.9-20.5-85-21.7-143.7
				c-1.3-61.4,5.4-108.3,14.8-145.5c55.4-32.8,128.1-28.8,175.4,15C910.8,1536.1,922.7,1592.8,913.1,1638z M767.7,1537.5
				c0.5,5.9,0.9,11.9,1.3,18.1c3.3,45.7,2.7,87.1-2.8,134.6c34-20.1,61.5-40.5,67.7-78.9C838.1,1571.6,804.3,1543.7,767.7,1537.5z"
				/>
			<g>
				<g>
					<path class="st2" d="M990.4,1784.4l-66.5-4.8c-4.8-0.3-8.5-4.4-8.4-9.3c1.1-48.8,6.7-142.8,31.4-223.6
						c12.9-41.2,45.8-85.2,99.4-85.2c5.5,0,11.2,0.5,16.9,1.5c95.8,16.4,93.3,200.6,92.1,289.2c-0.1,8.1-0.2,15.2-0.2,21.2
						c0,5-4.1,9.1-9.1,9.1h-61.2c-4.4,0-8.1-3.1-8.9-7.4c-2.4-12.8-3.6-36.7-4.1-50.6c-14.9,2.4-27.1,3.4-38.7,3.4
						c-8.1,0-15.7-0.5-23-1.6c-3.6,17.7-6.9,35.1-10,50.7c-0.8,4.3-4.6,7.3-8.9,7.3C990.8,1784.5,990.6,1784.5,990.4,1784.4z
						 M1027.1,1644.7c10.9,0.1,21.9,0.8,32.8,2.2c-1.6-9.8-3.4-19.7-5.4-29.5c-3.5-17.3-6.7-33-9.3-42.6
						C1041.5,1584.4,1035.6,1604.1,1027.1,1644.7z"/>
				</g>
			</g>
			<path class="st2" d="M1145.9,1773.5h-61.2c-3.4-17.8-4.2-59.6-4.2-59.6c-25.9,4.8-52.4,7.6-77.6,2c-4.1,20.3-8,40.3-11.8,59.6
				l-66.5-4.8c1.6-68.8,10-152.3,31-221.2c14.6-46.5,52-86.7,106-77.4C1158.2,1488.6,1145.9,1705.3,1145.9,1773.5z M1070.8,1657.7
				c-1.5-10.1-3.9-24.6-7.4-42.1c-7.7-38-11.5-57-17-57.4c-5.4-0.4-14.5,16.1-30.5,95.7C1034,1653.3,1052.7,1654.6,1070.8,1657.7z"
				/>
			<g>
				<path class="st2" d="M1234.5,1784.5c-3.8,0-7.2-2.3-8.5-5.9c-9.6-25.6-14-52.3-12.8-79.2c-43.1-33.5-70.6-117.8-72.2-222.3
					c-0.1-5,3.9-9.1,8.9-9.2c0,0,87.1-1.9,87.2-1.9c4.8,0,8.7,3.7,9.1,8.4c2.1,29.8,4.7,59.6,7.8,88.6c1.4,12.7,5,46.5,11.3,48.2
					c0,0,0,0,0.1,0c1,0,2-0.5,2.7-0.8l0.4-0.2c10.4-4.4,24-29.9,29.7-126.2c0.3-4.2,0.5-7.6,0.6-9.8c0.4-4.7,4.4-8.3,9-8.3
					c0.2,0,0.4,0,0.6,0c9.1,0.6,20,1.1,30.9,1.7c11,0.6,22,1.1,31.1,1.7c4.6,0.3,8.2,3.9,8.5,8.5c6.2,100.5-19.4,183.7-67.2,218.9
					c-0.2,3-0.5,6.1-0.7,9.2c-2,23.1-5.2,46.4-9.4,69.3c-0.8,4.2-4.4,7.3-8.6,7.4C1293,1782.5,1234.6,1784.5,1234.5,1784.5z"/>
			</g>
			<path class="st2" d="M1369.9,1478.4c6.1,98.7-18.8,181.2-66.8,213.4c-0.3,4.4-0.6,8.8-1,13.3c-2.1,24.6-5.4,47.5-9.3,68.4
				c-19.4,0.6-38.8,1.3-58.2,2c-6.2-16.4-13.7-43.1-12.2-76.3c0.1-1.4,0.1-2.7,0.2-4.1c-42.3-29-70.8-110.8-72.4-218
				c29-0.6,58-1.3,87-1.9c2.5,35.8,5.4,65.9,7.9,88.9c3,28.2,6.2,52.9,18,56c4,1,7.6-0.8,9-1.4c31.4-13.5,34.2-124.4,35.8-143.5
				C1326.1,1476.2,1351.6,1477.3,1369.9,1478.4z"/>
		</g>
	</g>
	<g>
		<path class="st2" d="M499.6,536.4c-4,0-7.5-2.6-8.7-6.4c-19.8-63.3-25.8-146.9-16.2-220.8c-19.6,0.4-38.8,1.2-57.2,2.4
			c-0.2,0-0.4,0-0.6,0c-4.3,0-8.1-3.1-8.9-7.4l-12-63.2c-0.8-4.3,1.6-8.6,5.7-10.2c39.6-15.1,81.2-22.7,123.5-22.7
			c1.8,0,3.7,0,5.5,0c46.2,0.7,91.2,10.5,133.6,29.1c4.2,1.8,6.4,6.5,5.1,10.9l-17.4,59.6c-1.1,3.9-4.7,6.5-8.7,6.5
			c-0.3,0-0.5,0-0.8,0c-21.6-1.8-44.3-3.2-67.6-4.2c5.5,72.3-0.6,153.1-16.6,218.2c-1,4-4.5,6.8-8.6,6.9
			C549.7,535.2,499.7,536.4,499.6,536.4z"/>
		<path class="st3" d="M643.3,305.3c-25.2-2.1-51.6-3.7-78.3-4.5c6.8,73.7,1,158-15.6,225.4l-49.9,1.2
			C479.1,461.7,474,373.3,485.2,300c-23.2,0.4-46.1,1.2-68.3,2.6c-4-21.1-8-42.1-12-63.2c26.2-10,70.2-23,125.7-22.1
			c58.5,0.9,104,16.9,130.1,28.3C654.9,265.5,649.1,285.4,643.3,305.3z"/>
		<path class="st2" d="M771.1,539.6c-20.9,0-40.7-5.8-57.1-16.8c-43.7-29.3-63.1-81.7-53.6-143.8c-12.7-48.8-3.5-94.7,26-129.4
			c22.8-27.2,58-43.5,94.3-43.5c22.8,0,44.4,6.6,62.4,18.9c38.9,26.3,61.7,74.3,65.9,138.7c1.1,17.2,0.6,32.9-1.7,47.9
			c-7.6,49.3-33,88.5-71.6,110.4C815.3,533.6,793,539.6,771.1,539.6z M771.4,314.6c4,2.7,5.1,8.1,2.6,12.2
			c-8,13.2-13.6,27.3-16.5,41.9c-0.1,0.3-6.8,35.8,6.7,60.8c1.6,3,3.2,4.7,4.9,5.5c0.9,0.4,1.8,0.5,2.9,0.5c3,0,6-1.3,7.3-1.9
			c14.1-6.1,29-49.7,19.8-95c-3.4-16.7-9-27.8-15.9-31.2c-3.8-1.9-7.9-2.3-10.6-2.3c-2.9,0-4.9,0.4-5,0.4c-2.3,0.5-4.3,1.3-6.1,2.2
			L771.4,314.6z"/>
		<path class="st4" d="M898.3,410.3c-6.6,43.4-28.3,81.9-67.1,103.8c-34.2,19.3-78.3,23.8-112.1,1.1
			c-45.7-30.7-57.8-84.9-49.4-136.8c-11.4-42-7-86.9,23.7-123.1c34.3-41,99.1-54.3,144.6-22.9c43.5,29.5,58.8,82.6,62,131.9
			C901,379.7,900.7,395.1,898.3,410.3z M808,336.9c-5.8-28.7-16.7-35.5-20.7-37.5c-9.9-5-20.7-2.8-21.6-2.6
			c-11,2.4-17.4,9.6-19.2,11.8l19.7,13.6c-11,18.1-15.5,34.4-17.6,44.9c0,0-7.7,38.6,7.6,66.9c2.1,3.9,4.9,7.6,9.3,9.5
			c7.2,3.1,14.9-0.3,17.4-1.4C803.7,433,817.2,382.4,808,336.9z"/>
		<path class="st2" d="M951.2,533.6c-4.3,0-8.7-0.1-12.9-0.4c-3.8-0.2-7.1-2.9-8.1-6.6c-13.6-47.5-21-96.6-22.1-146
			c-1.2-54.6,3.8-103,15.1-147.9c0.6-2.3,2.1-4.4,4.2-5.6c25.4-15,54.4-22.9,83.8-22.9c38.8,0,75.2,13.9,102.3,39.1
			c38.1,35.3,55.3,92.8,44,146.5c-20.8,98.2-127.6,139.6-194.4,143.5C959.1,533.5,955.2,533.6,951.2,533.6z M1013.5,304.9
			c3,40.9,2.7,77.9-0.9,117.8c26.9-17.7,43.3-35.3,47.8-62.6c3.1-30.5-20-52.4-47.3-60.9C1013.3,301,1013.4,303,1013.5,304.9z"/>
		<path class="st5" d="M1148.5,387.9c-18.9,89.3-117.3,132.3-186,136.3c-9.7,0.6-17.9,0.3-23.7-0.1c-10.3-35.9-20.5-85-21.7-143.7
			c-1.3-61.4,5.4-108.3,14.8-145.5c55.4-32.8,128.1-28.8,175.4,15C1146.2,286,1158.1,342.7,1148.5,387.9z M1003.2,287.4
			c0.5,5.9,0.9,11.9,1.3,18.1c3.3,45.7,2.7,87.1-2.8,134.6c34-20.1,61.5-40.5,67.7-78.9C1073.6,321.5,1039.8,293.6,1003.2,287.4z"/>
		<path class="st2" d="M1225.8,534.3l-66.5-4.8c-4.8-0.3-8.5-4.4-8.4-9.3c1.1-48.8,6.7-142.8,31.4-223.6
			c12.9-41.2,45.8-85.2,99.4-85.2c5.5,0,11.2,0.5,16.9,1.5c95.8,16.4,93.3,200.6,92.1,289.2c-0.1,8.1-0.2,15.2-0.2,21.2
			c0,5-4.1,9.1-9.1,9.1h-61.2c-4.4,0-8.1-3.1-8.9-7.4c-2.4-12.8-3.6-36.7-4.1-50.6c-14.9,2.4-27.1,3.4-38.7,3.4
			c-8.1,0-15.7-0.5-23-1.6c-3.6,18.1-7.1,36-10,50.7c-0.8,4.3-4.6,7.3-8.9,7.3C1226.2,534.4,1226,534.3,1225.8,534.3z M1262.5,394.6
			c10.9,0.1,21.9,0.8,32.8,2.2c-1.6-9.9-3.4-19.7-5.4-29.5c-3.5-17.3-6.7-33-9.3-42.6C1276.9,334.3,1271,354,1262.5,394.6z"/>
		<path class="st6" d="M1381.3,523.4h-61.2c-3.4-17.8-4.2-59.6-4.2-59.6c-25.9,4.8-52.4,7.6-77.6,1.9c-4.1,20.3-8,40.3-11.8,59.6
			l-66.5-4.8c1.6-68.8,10-152.3,31-221.2c14.6-46.5,52-86.7,106-77.4C1393.6,238.5,1381.3,455.2,1381.3,523.4z M1306.2,407.6
			c-1.5-10.1-3.9-24.6-7.4-42.1c-7.7-38-11.5-57-17-57.4c-5.4-0.4-14.5,16.1-30.5,95.7C1269.5,403.2,1288.2,404.5,1306.2,407.6z"/>
		<path class="st2" d="M1470,534.4c-3.8,0-7.2-2.3-8.5-5.9c-9.6-25.6-13.9-52.3-12.8-79.2c-43.1-33.5-70.6-117.8-72.2-222.3
			c-0.1-5,3.9-9.1,8.9-9.2c0,0,87.1-1.9,87.2-1.9c4.8,0,8.7,3.7,9.1,8.4c2.1,29.8,4.7,59.6,7.8,88.6c1.4,12.7,5,46.5,11.3,48.2
			c0,0,0,0,0.1,0c1,0,2-0.5,2.7-0.8l0.4-0.2c10.4-4.4,23.9-29.9,29.7-126.2c0.3-4.2,0.5-7.6,0.6-9.8c0.4-4.7,4.4-8.3,9-8.3
			c0.2,0,0.4,0,0.6,0c9.1,0.6,20,1.1,30.9,1.7c11,0.6,22,1.1,31.1,1.7c4.6,0.3,8.2,3.9,8.5,8.5c6.2,100.5-19.4,183.7-67.2,218.9
			c-0.2,3-0.5,6.1-0.7,9.2c-2,23.1-5.2,46.4-9.4,69.3c-0.8,4.2-4.4,7.3-8.6,7.4C1528.5,532.4,1470.1,534.4,1470,534.4z"/>
		<path class="st7" d="M1605.3,228.3c6.1,98.7-18.8,181.2-66.8,213.4c-0.3,4.4-0.6,8.8-1,13.3c-2.1,24.6-5.4,47.5-9.3,68.4
			c-19.4,0.6-38.8,1.3-58.2,2c-6.2-16.4-13.7-43.1-12.2-76.3c0.1-1.4,0.1-2.7,0.2-4.1c-42.3-29-70.8-110.8-72.4-218
			c29-0.6,58-1.3,87-1.9c2.5,35.8,5.4,65.9,7.9,88.9c3,28.2,6.2,52.9,18,56c4,1,7.6-0.8,9-1.4c31.4-13.5,34.2-124.4,35.8-143.5
			C1561.5,226.1,1587,227.2,1605.3,228.3z"/>
		<path class="st2" d="M646.4,942.6c-4.1,0-7.7-2.8-8.8-6.7c-23.8-88.9-25.2-213.5-3.4-302.9c1-4,4.6-6.9,8.7-6.9
			c0,0,66.8-0.8,66.8-0.8c4.5,0,8.4,3.3,9,7.8c12.9,91.8,7.6,210.3-13.5,301.9c-0.9,4.1-4.6,7-8.7,7
			C696.4,942,646.5,942.6,646.4,942.6z"/>
		<path class="st8" d="M709.7,634.3c12.9,91.6,7.4,208.6-13.4,298.6l-49.9,0.6c-23.4-87.5-24.7-210.6-3.4-298.4L709.7,634.3z"/>
		<path class="st2" d="M847.7,950.6c-28,0-55.9-9-78.5-25.3c-30-22.1-45.3-62.7-39-103.5c0.7-4.4,4.5-7.7,9-7.7
			c0.1,0,50.3,2.2,50.3,2.2c4.4,0.2,8.1,3.6,8.6,8c1.9,16,7,26.1,15.2,30.2c6.7,2.8,14.4,4.4,21.7,4.4c6.7,0,12.5-1.3,16.9-3.8
			c2.6-1.4,5-4.4,5.6-6.8c0.2-0.8,0.1-1.3,0-1.6c-8.1-8.4-21.2-13.9-33.9-19.2c-5.6-2.3-11.4-4.8-16.8-7.4
			c-24.6-9.8-67-32.6-77.3-75.2c-7.1-26.4-2.5-53.5,13.1-76.1c17.4-25.3,46.9-42.5,78.8-45.8c5.6-0.6,11.3-0.9,16.9-0.9
			c36.4,0,74.8,12,108,33.7c4,2.6,5.3,7.8,3,11.9l-31.8,58.6c-1.4,2.5-3.8,4.2-6.6,4.6c-0.5,0.1-0.9,0.1-1.4,0.1
			c-2.3,0-4.6-0.9-6.3-2.5c-3.1-3-6.5-5.6-10.2-7.9c-10.3-6.5-22.7-9.9-35.7-9.9c-3.5,0-7,0.3-10.5,0.8l-1.7,0.2
			c-3.4,0.5-11,1.5-13.1,3.6c3.5,5.2,10.8,7.8,18.4,10.6c1.1,0.4,2.2,0.8,3.2,1.2c9.7,3.6,20,8.1,31.5,13.9
			c19,9.6,42.9,23.4,58.6,45.8c13.3,19,17.9,48.8,11.8,77.7c-6.4,30.4-23.1,55.1-47.1,69.7C890.7,945,869.7,950.6,847.7,950.6z"/>
		<path class="st9" d="M850.5,735.7c10.4,3.8,20.6,8.5,30.5,13.5c20.7,10.4,41.7,23.6,55.2,42.9c23,32.8,16.7,104.4-32.6,134.4
			c-39.7,24.1-92.6,18-129.1-8.5c-29.2-21.5-40.7-60.3-35.3-94.8l49.9,2.2c1.7,14.5,6.6,30.7,20.4,37.4c14.3,6.1,33.8,7.6,46.8,0.2
			c7.3-3.9,13.5-14.3,8.4-21.8c-13.2-14.4-36.5-20.4-54.3-29.4c-30.9-12.3-63.9-34.5-72.2-69.1c-15.2-56.4,29.4-105,84-110.7
			c42.1-4.3,84.6,8.9,119,31.5L909.4,722c-2.1-2-6.1-5.6-11.6-9c-15.4-9.7-34.4-13.1-52.3-10.4c-6.9,1-18,2-21.8,9
			c-1.6,2.9-1.3,5.5,0.1,7.8C829.4,728.9,840.9,732.1,850.5,735.7z"/>
		<path class="st2" d="M1128.4,944.1l-66.5-4.8c-4.8-0.3-8.5-4.4-8.4-9.3c1.1-48.8,6.7-142.8,31.4-223.6
			c12.9-41.2,45.8-85.2,99.4-85.2c5.5,0,11.2,0.5,16.9,1.5c95.8,16.4,93.3,200.6,92.1,289.2c-0.1,8.1-0.2,15.2-0.2,21.2
			c0,5-4.1,9.1-9.1,9.1h-61.2c-4.4,0-8.1-3.1-8.9-7.4c-2.4-12.8-3.6-36.7-4.1-50.6c-14.9,2.4-27.1,3.4-38.7,3.4
			c-8.1,0-15.7-0.5-23-1.6c-3.6,17.7-6.9,35.1-10,50.7c-0.8,4.3-4.6,7.3-8.9,7.3C1128.9,944.2,1128.7,944.2,1128.4,944.1z
			 M1165.2,804.4c10.9,0.1,21.9,0.8,32.8,2.2c-1.6-9.9-3.4-19.7-5.4-29.5c-3.5-17.3-6.7-33-9.3-42.6
			C1179.6,744.1,1173.6,763.8,1165.2,804.4z"/>
		<path class="st3" d="M1283.9,933.2h-61.2c-3.4-17.8-4.2-59.6-4.2-59.6c-25.9,4.8-52.4,7.6-77.6,2c-4.1,20.3-8,40.3-11.8,59.6
			l-66.5-4.8c1.6-68.8,10-152.3,31-221.2c14.6-46.5,52-86.7,106-77.4C1296.2,648.3,1283.9,865,1283.9,933.2z M1208.8,817.4
			c-1.5-10.1-3.9-24.6-7.4-42.1c-7.7-38-11.5-57-17-57.4c-5.4-0.4-14.5,16.1-30.5,95.7C1172.1,813,1190.8,814.3,1208.8,817.4z"/>
		<path class="st2" d="M638.5,1362.6c-37.4,0-69.6-14.2-93.2-41c-30.8-35-45-89.2-37.9-144.9c6.4-73.9,57.6-152.3,140.3-152.3l1.8,0
			c48.3,2,84.5,17.5,104.9,44.8c2.9,3.9,2.3,9.3-1.4,12.4l-51.1,42.6c-1.7,1.4-3.7,2.1-5.8,2.1c-1.2,0-2.4-0.2-3.5-0.7
			c-7.3-2-18-4.5-28.2-4.5c-10.2,0-17.9,2.4-23.6,7.4c-27.6,24.7-31.8,89.2-15.8,124.8c6,10.4,15.7,16.6,26.2,16.6
			c10.1,0,21.7-6.5,24.8-24.1c-2,0-4,0.1-6.1,0.1c-3.3,0.1-6.6,0.2-9.8,0.2c-9,0-19.5-0.6-29.1-5c-3.4-1.5-5.5-5-5.3-8.7l2.1-42.2
			c0.2-4,2.9-7.3,6.8-8.3c21.3-5.5,41.9-8.3,61.3-8.3c22.7,0,43.2,3.9,60.8,11.6c3.3,1.4,5.4,4.6,5.4,8.2l0.6,37.4
			c0.1,3.5-1.9,6.7-5,8.3c-2.4,1.2-6.5,2.6-10.3,3.7c-2.4,69.8-40.9,116.4-99.7,119.6C644.4,1362.5,641.4,1362.6,638.5,1362.6z"/>
		<path class="st10" d="M738,1235.6c0.1,64-31.3,114.4-91.2,117.6c-99.1,5.7-141.5-89.5-130.5-175.7
			c6.1-71.2,54.9-145.2,132.9-144.1c35.6,1.5,75.3,11.1,97.8,41.1l-51.1,42.6c-0.2-0.1-0.4-0.2-0.6-0.3c-18.2-4.9-44-9.8-60.7,4.7
			c-31.6,28.3-35.3,97.6-18,135.8c19.1,33.9,68.5,28.2,68.9-20.6c-17.3-0.9-36.5,2.7-51.1-4l2.1-42.2c37.2-9.7,80.7-12.7,116.1,2.8
			l0.6,37.4C748.5,1233.3,738,1235.6,738,1235.6z"/>
		<path class="st2" d="M871.3,1359.2c-20.9,0-40.7-5.8-57.1-16.8c-43.7-29.3-63.1-81.7-53.6-143.8c-12.7-48.8-3.5-94.7,26-129.4
			c22.8-27.2,58-43.5,94.3-43.5c22.8,0,44.4,6.6,62.4,18.9c38.9,26.3,61.7,74.3,65.9,138.7c1.1,17.2,0.6,32.9-1.7,47.9
			c-7.6,49.4-33,88.5-71.6,110.4C915.5,1353.2,893.2,1359.2,871.3,1359.2z M871.6,1134.2c4,2.7,5.1,8.1,2.6,12.2
			c-8,13.2-13.6,27.3-16.5,41.9c-0.1,0.3-6.8,35.8,6.7,60.8c1.6,3,3.2,4.7,4.9,5.5c0.8,0.4,1.8,0.5,2.9,0.5c3,0,6-1.3,7.3-1.9
			c14.1-6.1,29-49.7,19.8-95c-3.4-16.7-9-27.8-15.9-31.2c-3.8-1.9-7.9-2.3-10.6-2.3c-2.9,0-4.9,0.4-5,0.4c-2.3,0.5-4.3,1.3-6.1,2.2
			L871.6,1134.2z"/>
		<path class="st5" d="M998.5,1229.9c-6.6,43.4-28.3,81.9-67.1,103.8c-34.2,19.3-78.3,23.8-112.1,1.1
			c-45.7-30.7-57.8-84.9-49.4-136.8c-11.4-42-7-86.9,23.7-123.1c34.3-41,99.1-54.3,144.6-22.9c43.5,29.5,58.8,82.6,62,131.9
			C1001.2,1199.3,1000.9,1214.7,998.5,1229.9z M908.2,1156.5c-5.8-28.7-16.7-35.5-20.7-37.5c-9.9-5-20.7-2.8-21.6-2.6
			c-11,2.4-17.4,9.6-19.2,11.8l19.7,13.6c-11,18.1-15.5,34.4-17.6,44.9c0,0-7.7,38.6,7.6,66.9c2.1,3.9,4.9,7.6,9.3,9.5
			c7.2,3.1,14.9-0.3,17.4-1.4C903.9,1252.6,917.4,1202,908.2,1156.5z"/>
		<path class="st2" d="M1121.3,1359.2c-20.9,0-40.7-5.8-57.1-16.8c-43.7-29.3-63.1-81.7-53.6-143.8c-12.7-48.8-3.5-94.7,26-129.4
			c22.8-27.2,58-43.5,94.3-43.5c22.8,0,44.4,6.6,62.4,18.9c38.9,26.3,61.7,74.3,65.9,138.7c1.1,17.2,0.6,32.9-1.7,47.9
			c-7.6,49.3-33,88.5-71.6,110.4C1165.4,1353.2,1143.1,1359.2,1121.3,1359.2z M1121.5,1134.2c4,2.7,5.1,8.1,2.6,12.2
			c-8,13.2-13.6,27.3-16.5,41.9c-0.1,0.3-6.8,35.8,6.7,60.8c1.6,3,3.2,4.7,4.9,5.5c0.8,0.4,1.8,0.5,2.9,0.5c3,0,6-1.3,7.3-1.9
			c14.1-6.1,29-49.7,19.8-95c-3.4-16.7-9-27.8-15.9-31.2c-3.8-1.9-7.9-2.3-10.6-2.3c-2.9,0-4.9,0.4-5,0.4c-2.3,0.5-4.3,1.3-6.1,2.2
			L1121.5,1134.2z"/>
		<path class="st6" d="M1248.5,1229.9c-6.6,43.4-28.3,81.9-67.1,103.8c-34.2,19.3-78.3,23.8-112.1,1.1
			c-45.7-30.7-57.8-84.9-49.4-136.8c-11.4-42-7-86.9,23.7-123.1c34.3-41,99.1-54.3,144.6-22.9c43.5,29.5,58.8,82.6,62,131.9
			C1251.1,1199.3,1250.8,1214.7,1248.5,1229.9z M1158.1,1156.5c-5.8-28.7-16.7-35.5-20.7-37.5c-9.9-5-20.7-2.8-21.6-2.6
			c-11,2.4-17.4,9.6-19.2,11.8l19.7,13.6c-11,18.1-15.5,34.4-17.6,44.9c0,0-7.7,38.6,7.6,66.9c2.1,3.9,4.9,7.6,9.3,9.5
			c7.2,3.1,14.9-0.3,17.4-1.4C1153.8,1252.6,1167.4,1202,1158.1,1156.5z"/>
		<path class="st2" d="M1301.4,1348.1c-4.3,0-8.7-0.1-13-0.4c-3.8-0.2-7.1-2.9-8.1-6.6c-13.6-47.5-21-96.6-22.1-146
			c-1.2-54.6,3.8-103,15.1-147.9c0.6-2.3,2.1-4.4,4.2-5.6c25.4-15,54.4-22.9,83.8-22.9c38.8,0,75.2,13.9,102.3,39
			c38.1,35.3,55.3,92.8,44,146.5c-20.8,98.2-127.6,139.6-194.4,143.5C1309.3,1348,1305.3,1348.1,1301.4,1348.1z M1363.7,1119.4
			c3,40.9,2.7,77.9-0.9,117.8c26.9-17.7,43.3-35.3,47.8-62.6c3.1-30.5-20-52.4-47.3-60.9C1363.4,1115.5,1363.5,1117.4,1363.7,1119.4
			z"/>
		<path class="st3" d="M1498.7,1202.4c-18.9,89.3-117.3,132.3-186,136.3c-9.7,0.6-17.9,0.3-23.7-0.1c-10.3-35.9-20.5-85-21.7-143.7
			c-1.3-61.4,5.4-108.3,14.8-145.5c55.4-32.8,128.1-28.8,175.4,15C1496.4,1100.4,1508.3,1157.1,1498.7,1202.4z M1353.3,1101.9
			c0.5,5.9,0.9,11.9,1.3,18.1c3.3,45.7,2.7,87.1-2.8,134.6c34-20.1,61.5-40.5,67.7-78.9C1423.7,1135.9,1389.9,1108,1353.3,1101.9z"
			/>
		<path class="st2" d="M700.4,1763.1c-4.3,0-8.7-0.1-13-0.4c-3.8-0.2-7.1-2.9-8.1-6.6c-13.6-47.5-21-96.6-22.1-146
			c-1.2-54.6,3.8-103,15.1-147.9c0.6-2.3,2.1-4.4,4.2-5.6c25.4-15,54.4-22.9,83.8-22.9c38.8,0,75.2,13.9,102.3,39
			c38.1,35.3,55.3,92.8,44,146.5c-20.8,98.2-127.6,139.6-194.4,143.5C708.3,1762.9,704.4,1763.1,700.4,1763.1z M762.7,1534.3
			c3,40.9,2.7,77.9-0.9,117.8c26.9-17.7,43.3-35.3,47.8-62.6c3.1-30.5-20-52.4-47.3-60.9C762.5,1530.4,762.6,1532.4,762.7,1534.3z"
			/>
		<path class="st7" d="M897.7,1617.3c-18.9,89.3-117.3,132.3-186,136.3c-9.7,0.6-17.9,0.3-23.7-0.1c-10.3-35.9-20.5-85-21.7-143.7
			c-1.3-61.4,5.4-108.3,14.8-145.5c55.4-32.8,128.1-28.8,175.4,15C895.4,1515.4,907.3,1572.1,897.7,1617.3z M752.3,1516.8
			c0.4,5.9,0.9,11.9,1.3,18.1c3.3,45.7,2.7,87.1-2.8,134.6c34-20.1,61.5-40.5,67.7-78.9C822.8,1550.9,789,1523,752.3,1516.8z"/>
		<path class="st2" d="M975,1763.7l-66.5-4.8c-4.8-0.3-8.5-4.4-8.4-9.3c1.1-48.8,6.7-142.8,31.4-223.6
			c12.9-41.2,45.8-85.2,99.4-85.2c5.5,0,11.2,0.5,16.9,1.5c95.8,16.4,93.3,200.6,92.1,289.2c-0.1,8.1-0.2,15.2-0.2,21.2
			c0,5-4.1,9.1-9.1,9.1h-61.2c-4.4,0-8.1-3.1-8.9-7.4c-2.4-12.8-3.6-36.7-4.1-50.6c-14.9,2.4-27.1,3.4-38.7,3.4
			c-8.1,0-15.7-0.5-23-1.6c-3.6,17.7-6.9,35.1-10,50.7c-0.8,4.3-4.6,7.3-8.9,7.3C975.4,1763.8,975.2,1763.8,975,1763.7z
			 M1011.7,1624c10.9,0.1,21.9,0.8,32.8,2.2c-1.6-9.8-3.4-19.7-5.4-29.5c-3.5-17.3-6.7-33-9.3-42.6
			C1026.1,1563.7,1020.2,1583.4,1011.7,1624z"/>
		<path class="st8" d="M1130.5,1752.8h-61.2c-3.4-17.8-4.2-59.6-4.2-59.6c-25.9,4.8-52.4,7.6-77.6,2c-4.1,20.3-8,40.3-11.8,59.6
			l-66.5-4.8c1.6-68.8,10-152.3,31-221.2c14.6-46.5,52-86.7,106-77.4C1142.8,1467.9,1130.5,1684.6,1130.5,1752.8z M1055.4,1637
			c-1.5-10.1-3.9-24.6-7.4-42.1c-7.7-38-11.5-57-17-57.4c-5.4-0.4-14.5,16.1-30.5,95.7C1018.7,1632.6,1037.4,1633.9,1055.4,1637z"/>
		<path class="st2" d="M1219.1,1763.8c-3.8,0-7.2-2.3-8.5-5.9c-9.6-25.6-14-52.3-12.8-79.2c-43.1-33.5-70.6-117.8-72.2-222.3
			c-0.1-5,3.9-9.1,8.9-9.2c0,0,87.1-1.9,87.2-1.9c4.8,0,8.7,3.7,9.1,8.4c2.1,29.8,4.7,59.6,7.8,88.6c1.4,12.7,5,46.5,11.3,48.2
			c0,0,0,0,0.1,0c1,0,2-0.5,2.7-0.8l0.4-0.2c10.4-4.4,24-29.9,29.7-126.2c0.3-4.2,0.5-7.6,0.6-9.8c0.4-4.7,4.4-8.3,9-8.3
			c0.2,0,0.4,0,0.6,0c9.1,0.6,20,1.1,30.9,1.7c11,0.6,22,1.1,31.1,1.7c4.6,0.3,8.2,3.9,8.5,8.5c6.2,100.5-19.4,183.7-67.2,218.9
			c-0.2,3-0.5,6.1-0.7,9.2c-2,23.1-5.2,46.4-9.4,69.3c-0.8,4.2-4.4,7.3-8.6,7.4C1277.6,1761.8,1219.2,1763.8,1219.1,1763.8z"/>
		<path class="st4" d="M1354.5,1457.7c6.1,98.7-18.8,181.2-66.8,213.4c-0.3,4.4-0.6,8.8-1,13.3c-2.1,24.6-5.4,47.5-9.3,68.4
			c-19.4,0.6-38.8,1.3-58.2,2c-6.2-16.4-13.7-43.1-12.2-76.3c0.1-1.4,0.1-2.7,0.2-4.1c-42.3-29-70.8-110.8-72.4-218
			c29-0.6,58-1.3,87-1.9c2.5,35.8,5.4,65.9,7.9,88.9c3,28.2,6.2,52.9,18,56c4,1,7.6-0.8,9-1.4c31.4-13.5,34.2-124.4,35.8-143.5
			C1310.7,1455.5,1336.2,1456.6,1354.5,1457.7z"/>
	</g>
</g>
</svg>
