<?xml version="1.0" encoding="utf-8"?>
<!-- Generator: Adobe Illustrator 26.1.0, SVG Export Plug-In . SVG Version: 6.00 Build 0)  -->
<svg version="1.1" id="Слой_1" xmlns="http://www.w3.org/2000/svg" xmlns:xlink="http://www.w3.org/1999/xlink" x="0px" y="0px"
	 viewBox="0 0 2000 2000" style="enable-background:new 0 0 2000 2000;" xml:space="preserve">
<style type="text/css">
	.st0{fill:#B8E2EF;}
	.st1{fill:#A1D1E9;}
	.st2{fill:#AED3E9;}
	.st3{fill:#FFFFFF;}
</style>
<g>
	<path class="st0" d="M2000,0v222.2c-85.4,24.3-197.3,23-289.7-34c-120.7-74.5-205.5-97.6-359.6-51.8
		c-154.1,45.8-453.3,183.2-737.1,36.4C342.6,32.5,86.7,118.9,0.1,156.3V0H2000z"/>
	<path class="st1" d="M2000,222.2v84.7c-72.7,16.7-172,12.3-300-44.6c-202.9-90.3-408.3-68.9-591.3,13.3
		c-183,82.2-438.6,118.1-674.8-36.7C273.9,134,97.4,188,0.1,233.8v-77.5c86.6-37.5,342.5-123.9,613.6,16.5
		c283.8,146.9,583,9.5,737.1-36.4c154.1-45.8,238.9-22.7,359.6,51.8C1802.7,245.2,1914.6,246.6,2000,222.2z"/>
	<path class="st0" d="M2000,306.9v341.5c-109,48.6-252.7,67.5-369.3-37.7c-143.8-129.6-280-116.9-408.2-57.8
		c-128.2,59.1-380.3,192.6-680.8-18C345.8,397.6,127.9,529,0.1,637V233.8c97.3-45.8,273.8-99.8,433.8,5.1
		c236.3,154.8,491.9,118.9,674.8,36.7c183-82.2,388.4-103.6,591.3-13.3C1828,319.2,1927.3,323.6,2000,306.9z"/>
	<path class="st1" d="M2000,648.4v83.9c-106.1,39.1-245.1,73.8-359-27.1c-141.3-125.1-269.7-129.2-423.5-52.1
		c-153.9,77.1-400.8,184.9-685.9-2.6c-201-132.2-419.8,3.7-531.4,95.3V637c127.8-108,345.7-239.5,541.7-102.1
		c300.5,210.6,552.5,77.1,680.8,18c128.2-59.1,264.3-71.8,408.2,57.8C1747.3,715.9,1891,697,2000,648.4z"/>
	<path class="st0" d="M2000,732.3v139.8C1794.2,804,1654,934,1363.6,1000c-328.7,74.6-449.4-154.3-834.7-36.2
		c-245.5,75.3-428.5,41.1-528.8,6.3V745.9c111.6-91.7,330.5-227.5,531.4-95.3c285.1,187.5,532,79.6,685.9,2.6
		c153.9-77,282.3-73,423.5,52.1C1754.9,806.1,1893.9,771.4,2000,732.3z"/>
	<path class="st1" d="M2000,872.1v114.2c-279.2-89.9-597.2,232.7-782.8,152.1c-213.2-92.4-418.6-107.9-711.4-33.4
		c-201.9,51.4-401.4-10.8-505.7-54.4v-80.6c100.4,34.8,283.3,69,528.8-6.3c385.2-118.1,505.9,110.8,834.7,36.2
		C1654,934,1794.2,804,2000,872.1z"/>
	<path class="st0" d="M2000,986.3v337.3c-208.7,88.5-501.6-168.3-841.8-46.5c-172.9,61.9-444.3,115.6-716.5,10.3
		c-166.1-64.2-335-19.5-441.5,25.1v-261.8c104.4,43.5,303.8,105.7,505.7,54.4c292.8-74.5,498.2-59.1,711.4,33.4
		C1402.8,1219,1720.8,896.4,2000,986.3z"/>
	<path class="st1" d="M2000,1323.7v67c-204.1,109.2-427-76.6-633.8-59.6c-218.3,18-526.5,195.2-886,38.5
		c-211.3-92.1-378.3-41.3-480,16.2v-73.2c106.5-44.7,275.5-89.4,441.5-25.1c272.2,105.3,543.6,51.6,716.5-10.3
		C1498.4,1155.3,1791.3,1412.1,2000,1323.7z"/>
	<path class="st0" d="M2000,1390.7v210.1c-120.9-38.2-338.9-74.1-587.6,38.5c-380.1,172.1-567.6-136.1-901.4,0
		C293,1728.1,104.6,1701,0.1,1671.4v-285.6c101.8-57.5,268.7-108.2,480-16.2c359.6,156.7,667.7-20.5,886-38.5
		C1573,1314.1,1795.9,1499.8,2000,1390.7z"/>
	<path class="st1" d="M2000,1600.8V1701c-152.8-107.9-288-60.2-433.5-1.2c-161.8,65.6-526.5,263.1-919.4,103.9
		c-261-105.8-509.5-50.6-647-1.7v-130.6c104.5,29.6,292.9,56.7,510.9-32.1c333.9-136.1,521.4,172.1,901.4,0
		C1661.1,1526.7,1879.1,1562.6,2000,1600.8z"/>
	<path class="st0" d="M2000,1701v299H0.1V1802c137.5-49,386-104.1,647,1.7c392.9,159.2,757.6-38.2,919.4-103.9
		C1712,1640.7,1847.2,1593,2000,1701z"/>
	<g>
		<path class="st2" d="M1298,479.4c-2.4,10.2-12.2,15.6-13.3,16.3c-7.4,4.4-14.6,4.2-19.1,4.1c-9.2-0.3-19.4-2.3-25.9-5.1
			c-6.2-2.6-21-13.9-34.1,6.6c-1.4,2.9-2.1,6.9-2.1,6.9s2.8-5.7,5.2-8c3.2-3,6.5-5.3,10.3-6.4c1.2-0.3,2.3,0.7,2,1.9
			c-5,25.3-10.1,58.4-7.2,84.1c1,8.7,1.5,15.7-2,24.1c-2.3,5.5-5.4,12-14.3,12.7c-8.9,0.7-22.6-5.7-28.6-12.4
			c-13.9-15.7-17.8-29.7-19.6-41.2c-3.1-20-2.9-26.8-3.3-40.2c-0.5-19.7-1-21.9,10.5-26.1c0,0-5.2-2.5-16.6,7.5
			c-5.9,5.2-13.4,11.6-25,10.6c-8.7-0.7-16-4.7-20.9-10.3c-8-9-13.3-20.1-9.8-37.2c4.9-23.9,26.5-40.2,35.1-43.9
			c17.1-7.4,31-9.8,51-12c27.4-3.1,38.1-1.2,64.9,4.5c27.1,5.8,40.1,17.3,43.6,20.7C1283.2,441,1303.2,457.2,1298,479.4z"/>
		<path class="st2" d="M1488.6,574.8c-1.5,8-8.5,38.9-29.4,42.4c-24.4,4-29.4-16.5-32.3-26.2c-3.9-13.1-10.8-34-7-38
			c0.5-0.5,11.4-1.7,16.7-0.2c-23.3-6.2-33.2-5.4-47.6-3c-9.4,1.6-16.6,1.2-19.6,7c4.7-4,7.2-2.8,13.3-2.9
			c1.4,14.4-8.5,33.3-13.9,44.6c-5.4,11.3-8.6,17.5-25.6,17.5c-13.3,0-20.5-11.9-25-20.8c-10.8-21.4-11.8-47.3-15.2-71
			c-3.4-23.7-3.6-54.2,6-76.1c4.2-9.7,10.2-19,18.9-24.9c8.7-5.9,40.3-8.1,49.6-3.1c12.5,6.8,25.9,33.3,18.7,82.1
			c-16.6,2.6-27,8.1-33.5,11.9c45.7-17.3,71.5-6.4,82.5-4.2c-7.2-4.7-19.2-9-33.1-9.9c-0.4-4.1-2.1-25.3,0.4-37.6
			c8.5-40.8,32.9-47.1,42-47.4c10.7-0.3,29.3,7.8,35.8,20.7C1511.1,476,1491.9,556.7,1488.6,574.8z"/>
		<path class="st2" d="M1617.4,495.2c-1.2,29.3-7.2,61.2-17.9,87.8c-10.5,26.1-23.6,34.6-41.4,34.6c-20.7,0-32.4-21.7-36.6-37.7
			c-8-30.8-15-56.9-12.7-89.1c0,0-1.1-18.1,20.5-42.6c5.5-6.2-14.5,6.9-21.2,20.3c-0.8-14.7,5.9-27.4,15-37.2
			c18.7-20,67.9-17.7,78.8-6.5C1617,440.2,1618.4,471.7,1617.4,495.2z"/>
		<path class="st2" d="M1785.8,576.3c-4.5,8.6-15.1,19.9-23.4,25.4c-29.5,19.6-93.1,23.3-117.9-1.6c-12.6-12.7-10.6-24-6.1-28.5
			c5.8-5.8,18.1-0.9,22.1,1.6c17.9,11,39.7,5.6,52.9-0.1c5.2-2.2,16.7-8.8,17.7-10.3c3.2-5.1-7.4-2.4-21.8,1
			c-57.8,13.6-72.7-14.8-77.4-24.2c-8-15.6-10.5-42-5.7-58.7c4.8-16.7,19.7-37.3,33.8-48.2c17.1-13.1,41.6-18.7,63.5-17.9
			c21.9,0.8,43.8,11.9,54.3,30.3c10.5,18.4,6.6,50.3-9.9,64.1c-11,9.2-25.8,12.3-41.1,12.2c-15.7-0.1-38.1-3.9-43-20.4
			c-2.1,5,0.4,13.1,3.4,17.2c9.9,13.7,22.6,17.1,40.3,13.3c25.3-5.4,44.6-10.1,56.7,3.7C1790.5,542.5,1794.6,559.2,1785.8,576.3z"/>
		<path class="st2" d="M431.8,878.6c-4.7,27.1-12.2,57.2-20,74.9c-5.2,11.8-15.7,29.6-28.4,39.2c-12.8,9.6-35.7,15.2-50.8,10
			c-13.7-4.7-23.4-17.7-24.3-32.2c-1-15.9,0-21.1-9.5-35c6.5,12.6,11.5,23.6-3.7,46.8c-14.1,21.6-24.7,23-45.8,21.6
			c-13.5-0.9-31.2-5.3-47.7-39.4c-15-31.1-20.1-76-17-110.3c1.7-18.8,7.3-37.8,20.6-46.3c16.4-10.4,41.7-1.2,52.9,14.7
			c15.7,22.2,22.7,63.8,9,81.7c-3.9,5.1-9.1,7.7-12.9,8.5c-2.8,0.6-5.9,2.8-17.3-6.2c5.1,5.4,11.8,10.6,22.6,7.5
			c10.8-3.2,19-12.3,24-22.4c5.1-10.1,7.6-21.2,11-31.9c2.6-8.1,6.4-16.8,14.2-20.2c9.3-4,24,2.2,31.5,9
			c9.6,8.7,15.1,24.8,16.6,34.8c3.3,23.3-5.7,47.9-26.4,45.1c32.2,3.7,30.6-24.9,32.7-44.4c1.7-15,9.2-37.5,15.9-54.1
			c5.6-14,19-28,33.7-24.8c11.8,2.6,16.9,14,19.5,25.7C434.9,842.7,433.9,866.8,431.8,878.6z"/>
		<path class="st2" d="M576.9,881.3c-28.6-0.6-65.2-7.5-92.6-15.6c4.6,2.1,11.8,7.8,21.9,8.8c-0.2,5.7-0.8,16.5-1,22.2
			c13.6,0.6,56.4-2.9,69.3,8.5c8.9,7.9,0.7,20.7-8.4,27.4c-9.1,6.7-21.2,7.9-32.5,7.9c-6.7,0-13.8-0.4-19.3-4.2
			c-5.5-3.8-5.4-9-4.7-17.4c-2.3,6.1-4.6,12-4.3,20.4c0.5,12.9,12.2,23.9,33.4,17.1c54.5-17.6,65.8-13.7,73.8,5.6
			c5.3,12.7-4.8,28.9-38.1,34c-35.7,5.5-57.9,2.7-77.5-0.4c-10.6-1.7-27-6.3-35.7-12.5c-7.2-5.2-11.7-13.4-14-22
			c-2.3-8.6-2.6-17.5-2.8-26.4c-0.7-24.3-0.6-48.7-2.2-73c-1.2-18.6-0.3-45.6,10.5-51.1c31-12,80.5-7.6,117.4-3.6
			c13.1,1.4,26.6,4,37,12.1c10.3,8.1,15.8,35.3,9.6,46.9c-3.5,6.6-10.3,11-17.5,13.2C592,881.3,584.4,881.5,576.9,881.3z"/>
		<path class="st2" d="M761.7,881.3c-28.6-0.6-65.2-7.5-92.6-15.6c4.6,2.1,11.8,7.8,21.9,8.8c-0.2,5.7-0.8,16.5-1,22.2
			c13.6,0.6,56.4-2.9,69.3,8.5c8.9,7.9,0.7,20.7-8.4,27.4c-9.1,6.7-21.2,7.9-32.5,7.9c-6.7,0-13.8-0.4-19.3-4.2
			c-5.5-3.8-5.4-9-4.7-17.4c-2.3,6.1-4.6,12-4.3,20.4c0.5,12.9,12.2,23.9,33.4,17.1c54.5-17.6,65.8-13.7,73.8,5.6
			c5.3,12.7-4.8,28.9-38.1,34c-35.7,5.5-57.9,2.7-77.5-0.4c-10.6-1.7-27-6.3-35.7-12.5c-7.2-5.2-11.7-13.4-14-22
			c-2.3-8.6-2.6-17.5-2.8-26.4c-0.7-24.3-0.6-48.7-2.2-73c-1.2-18.6-0.3-45.6,10.5-51.1c31-12,80.5-7.6,117.4-3.6
			c13.1,1.4,26.6,4,37,12.1c10.3,8.1,15.8,35.3,9.6,46.9c-3.5,6.6-10.3,11-17.5,13.2C776.8,881.3,769.2,881.5,761.7,881.3z"/>
		<path class="st2" d="M895.1,936.7c32.9,14.1,51.6,19.8,64,38.6c4,6,7.6,24.5-12.5,28.9c-19,4.2-39.5,3.5-57.6-9.9
			c-10.2-7.5-16.5-19-22.6-30.2c-0.4-0.8-0.9-1.6-1.3-2.5c2.1,7.4,3.9,15.8,3.7,21.2c-0.4,8.4,1.8,21-16.9,23.6
			c-11.4,1.6-22.5-9.8-27.2-20.3c-13.3-29.6-22-107.3-6.1-151.4c6.5-18.1,23.2-30.1,42.4-29.5c16.4,0.5,23.6,12.9,26.2,25
			c4.6,21.3,6.8,52.9-10.9,67.4c-3.9,3.2-7,4.9-9.3,5.9c12.9-1.9,24.5-11,32.7-21.5c9.5-12.3,17.5-38.2,26.5-50.8
			c9-12.7,21.9-24,37.4-25.2c19.1-1.5,37.9,9.9,41.7,32.7c3.2,18.9,0.6,45.1-20.1,64.7C959.2,927.7,929.4,946,895.1,936.7z"/>
		<path class="st2" d="M1259.1,859.8c-2.2,29.7-1.6,51.6-14.2,68.2c-10.7,14.1-32,21.1-35.3,25c-10,11.8-9.1,27-10.8,35
			c-1,5-4.7,9.8-7.7,13c-6.5,6.9-21.2,6.6-23.6,6.2c-2-0.4-8.6-1.6-13.6-7.1c-4.1-4.6-10.1-17.6-12.9-27.4
			c-3.2-11.2-4.9-15.8-13.6-17.7c-10.7-2.2-20.5-7.6-33.4-16.1c-23.9-15.7-29.2-61.1-30.2-75.2c-1.8-26.1-6.1-46.3,7.9-58.3
			c10.8-9.2,32.7-10.5,46.3-4.7c10,4.3,15.1,11.9,20,19.2c12.7,18.8,16.3,38.2,15.6,49.9c-0.7,10.6-0.3,14.9-6.5,20.1
			c-6.6,5.5-12.4,5.9-13.4,5.9c15.3,0.5,24.1-8.1,38.2-7.8c9.5,0.2,28.5,7.6,28.5,7.6c-4.4-4.7-12.9-5.4-18.9-10.5
			c-5.2-4.4-2.6-18.3,0.7-30.9c4.4-17.3,4.6-45.3,22.1-53.9c3.4-1.7,21.7-7.5,34.8-1.3c1.1,0.5,4.9,2.4,8.4,6.3
			C1254.2,812.6,1261.2,831.4,1259.1,859.8z"/>
		<path class="st2" d="M1408.4,976.8c-21.3,24-33.8,25.5-65.5,30c-57.9,8.2-74.8-56.6-76.2-67.5c-2.8-22-4.1-44.7,2.3-66
			c11.9-39.2,26.9-67.9,67.8-68.1c40.9-0.2,76.9,18.8,92.2,56.8C1444.3,900,1435.5,946.2,1408.4,976.8z M1345,908
			c-0.8-6.1-2.1-12.4-5.7-17.3c-9.8-13.4-21.1-5.1-22.5,7c-0.1,1.1-0.2,2.3-0.3,3.4c-4.7,8.6-7.2,18.4-7.3,28.2
			c0.7-6.2,3.2-12.1,7-17c0.2,10.7,1.5,22.2,3.2,31.4c0.7,4,2.1,8.6,5.7,10.4c5.1,2.6,11.1-1.7,14.2-6.6
			C1346.7,936.2,1346.8,921.5,1345,908z"/>
		<path class="st2" d="M1641.3,885.4c-4.9,43.1-8.8,85.3-47.4,105.1c-38.3,19.7-96.8,20.5-123.6-13.3c-26.7-33.8-36-93.2-23.7-134.4
			c5-16.7,15.9-35.1,33.3-35.7c12.8-0.4,23.9,9.4,30.6,20.4c14.8,23.9,24.9,96.9,11.3,102c-13.7,5.1-19.9,9.2-21.4,9.8
			c30.3-12.6,65.8-11.8,95.5,2.1c0,0-13.1-8.9-28.1-13.4c-14.6-4.5-13-56-8.5-79c4.5-23,24.9-47.8,47.7-42.5
			c14.6,3.4,27.5,15.7,32.1,34.5C1642.7,855.5,1643,870.6,1641.3,885.4z"/>
		<path class="st2" d="M1827.5,971.4c4.5,14.4-6,31.6-21.1,32c-44.9,1.2-92.7-38.4-91.5-64.7c-1.3,19.8,6.8,21.6,8.7,34.4
			c1.6,10.3,1.3,27.3-30.3,31.2c-22.4,2.8-33.8-13.9-34.6-21.8c-7.4-27.8-10-54.2-9.4-82.9c0.6-30,10.6-61.2,33.3-80.9
			c24.4-21.2,94-24.6,129.5-5.9c14.2,7.5,27.4,19.9,33.3,42.9c5.9,22.7-6.5,58-25.9,75.1c-14.8,13.1-40.7,19.8-50.3,3.3
			c6.3,9.8,3.7,13.7,25.7,18.9C1805,955.5,1820.7,949.5,1827.5,971.4z M1766.9,852.7c-1.6-2.1-4.3-1.9-6.5-1.4
			c-12.1,2.5-23.9,7.5-34.7,14.8l6.9-3.8c-5.9,3.3-11,8.8-14.4,15.7c15.8,3.6,32.7-1.5,45.4-13.7
			C1766.6,861.5,1769.4,856.1,1766.9,852.7z"/>
		<path class="st2" d="M373.7,1284.5c-16.6,17.8-53.5,34.4-73.4,17.1c9.6,7.8,11.1,13.4,41.2,5.9c12.2-3,21.3,5.3,26.7,16.2
			c5.2,10.7,4.3,27.1-2,34.9c-6.3,7.8-16.6,14.9-25.9,19.1c-20.5,9.1-39.7,10.3-62.2,12c-18.3,1.4-37.8-0.1-53.2-9.8
			c-15.5-9.8-24.9-26.8-28.9-44.3c-5.3-23-5-50.8-4.9-74.2c0.1-20.9,4.1-64.7,83.4-69.9c54.5-3.6,93.8,1.5,109.6,24.8
			C397.5,1236.4,390.3,1266.7,373.7,1284.5z M319.7,1238.3c-1.3-5.6-9.3-6.4-15.2-5.4c-15.9,2.9-30.9,9.9-43.1,20.1l-0.6-4.8
			c-5.7,2.9-4,12,1.5,15.1c5.5,3.1,12.5,2,18.6,0.3c11.3-3.2,22-8.1,31.7-14.5C316.5,1246.6,320.7,1242.8,319.7,1238.3z
			 M289.2,1321.7c-8.1-0.8-16,2.8-23.3,6.4l-1.4-5.5c-4.4,6.9-8.9,15.7-4.3,22.5c5,7.3,16.3,6.1,25.1,4c7.2-1.7,15.7-4.5,17.7-11.5
			C305.3,1330.1,297.4,1322.6,289.2,1321.7z"/>
		<path class="st2" d="M532.5,1267.6c-28.6-0.6-65.2-7.5-92.6-15.6c4.6,2.1,11.8,7.8,21.9,8.8c-0.2,5.7-0.8,16.5-1,22.2
			c13.6,0.6,56.4-2.9,69.3,8.5c8.9,7.9,0.7,20.7-8.4,27.4c-9.1,6.7-21.2,7.9-32.5,7.9c-6.7,0-13.8-0.4-19.3-4.2
			c-5.5-3.8-5.4-9-4.7-17.4c-2.3,6.1-4.6,12-4.3,20.4c0.5,12.9,12.2,23.9,33.4,17.1c54.5-17.6,65.8-13.7,73.8,5.6
			c5.3,12.7-4.8,28.9-38.1,34c-35.7,5.5-57.9,2.7-77.5-0.4c-10.6-1.7-27-6.3-35.7-12.5c-7.2-5.2-11.7-13.4-14-22
			c-2.3-8.6-2.6-17.5-2.8-26.4c-0.7-24.3-0.6-48.7-2.2-73c-1.2-18.6-0.3-45.6,10.5-51.1c31-12,80.5-7.6,117.4-3.6
			c13.1,1.4,26.6,4,37,12.1c10.3,8.1,15.8,35.3,9.6,46.9c-3.5,6.6-10.3,11-17.5,13.2C547.6,1267.6,540,1267.7,532.5,1267.6z"/>
		<path class="st2" d="M740.8,1348.8c-4.5,8.6-15.1,19.9-23.4,25.4c-29.5,19.6-93.1,23.3-117.9-1.6c-12.6-12.7-10.6-24-6.1-28.5
			c5.8-5.8,18.1-0.9,22.1,1.6c17.9,11,39.7,5.6,52.9-0.1c5.2-2.2,16.7-8.8,17.7-10.3c3.1-5.1-7.4-2.4-21.8,1
			c-57.8,13.6-72.7-14.8-77.4-24.2c-8-15.6-10.5-42-5.7-58.7c4.8-16.7,19.7-37.3,33.8-48.2c17.1-13.1,41.6-18.7,63.5-17.9
			c21.9,0.8,43.8,11.9,54.3,30.3c10.5,18.4,6.6,50.3-9.9,64.1c-11,9.2-25.8,12.3-41.1,12.2c-15.7-0.1-38.1-3.9-43-20.4
			c-2.1,5,0.4,13.1,3.4,17.2c9.9,13.7,22.6,17.1,40.3,13.3c25.3-5.4,44.6-10.1,56.7,3.7C745.5,1315.1,749.6,1331.7,740.8,1348.8z"/>
		<path class="st2" d="M961.7,1251.9c-2.4,10.2-12.2,15.6-13.3,16.3c-7.4,4.4-14.6,4.2-19.1,4.1c-9.2-0.3-19.4-2.3-25.9-5.1
			c-6.2-2.6-21-13.9-34.1,6.6c-1.4,2.9-2.1,6.9-2.1,6.9s2.8-5.7,5.2-8c3.2-3,6.5-5.3,10.3-6.4c1.2-0.3,2.3,0.7,2,1.9
			c-5,25.3-10.1,58.4-7.2,84.1c1,8.7,1.5,15.8-2,24.1c-2.3,5.5-5.4,12-14.3,12.7c-8.9,0.7-22.6-5.7-28.6-12.4
			c-13.9-15.7-17.8-29.7-19.6-41.2c-3.1-20-2.9-26.8-3.3-40.2c-0.5-19.7-1-21.9,10.5-26.1c0,0-5.2-2.5-16.6,7.5
			c-5.9,5.2-13.4,11.6-25,10.6c-8.7-0.7-16-4.7-20.9-10.3c-8-9-13.3-20.1-9.8-37.2c4.9-23.9,26.5-40.2,35.1-43.9
			c17.1-7.4,31-9.8,51-12c27.4-3.1,38.1-1.2,64.9,4.5c27.1,5.8,40.1,17.3,43.6,20.7C946.9,1213.5,967,1229.7,961.7,1251.9z"/>
		<path class="st2" d="M1267.2,1264.9c-4.7,27.1-12.2,57.2-20,74.9c-5.2,11.8-15.7,29.6-28.4,39.2c-12.8,9.6-35.7,15.2-50.8,10
			c-13.7-4.7-23.4-17.7-24.3-32.2c-1-15.9,0-21.1-9.5-35c6.5,12.6,11.5,23.6-3.7,46.8c-14.1,21.6-24.7,23-45.8,21.6
			c-13.5-0.9-31.2-5.3-47.7-39.4c-15-31.1-20.1-76-17-110.3c1.7-18.8,7.3-37.8,20.6-46.3c16.4-10.4,41.7-1.2,52.9,14.7
			c15.7,22.2,22.7,63.8,9,81.7c-3.9,5.1-9.1,7.7-12.9,8.5c-2.8,0.6-5.9,2.8-17.3-6.2c5.1,5.4,11.8,10.6,22.6,7.5
			c10.8-3.2,19-12.3,24-22.4c5.1-10.1,7.6-21.2,11-31.9c2.6-8.1,6.4-16.8,14.2-20.2c9.3-4,24,2.2,31.5,9
			c9.6,8.7,15.1,24.8,16.6,34.8c3.3,23.3-5.7,47.9-26.4,45.1c32.2,3.7,30.6-24.9,32.7-44.4c1.7-15,9.2-37.5,15.9-54.1
			c5.6-14,19-28,33.7-24.8c11.8,2.6,16.9,14,19.5,25.7C1270.3,1229,1269.2,1253,1267.2,1264.9z"/>
		<path class="st2" d="M1412.2,1267.6c-28.6-0.6-65.2-7.5-92.6-15.6c4.6,2.1,11.8,7.8,21.9,8.8c-0.2,5.7-0.8,16.5-1,22.2
			c13.6,0.6,56.4-2.9,69.3,8.5c8.9,7.9,0.7,20.7-8.4,27.4c-9.1,6.7-21.2,7.9-32.5,7.9c-6.7,0-13.8-0.4-19.3-4.2
			c-5.5-3.8-5.4-9-4.7-17.4c-2.3,6.1-4.6,12-4.3,20.4c0.5,12.9,12.2,23.9,33.4,17.1c54.5-17.6,65.8-13.7,73.8,5.6
			c5.3,12.7-4.8,28.9-38.1,34c-35.7,5.5-57.9,2.7-77.5-0.4c-10.6-1.7-27-6.3-35.7-12.5c-7.2-5.2-11.7-13.4-14-22
			c-2.3-8.6-2.6-17.5-2.8-26.4c-0.7-24.3-0.6-48.7-2.2-73c-1.2-18.6-0.3-45.6,10.5-51.1c31-12,80.5-7.6,117.4-3.6
			c13.1,1.4,26.6,4,37,12.1c10.3,8.1,15.8,35.3,9.6,46.9c-3.5,6.6-10.3,11-17.5,13.2C1427.3,1267.6,1419.7,1267.7,1412.2,1267.6z"/>
		<path class="st2" d="M1597,1267.6c-28.6-0.6-65.2-7.5-92.6-15.6c4.6,2.1,11.8,7.8,21.9,8.8c-0.2,5.7-0.8,16.5-1,22.2
			c13.6,0.6,56.4-2.9,69.3,8.5c8.9,7.9,0.7,20.7-8.4,27.4c-9.1,6.7-21.2,7.9-32.5,7.9c-6.7,0-13.8-0.4-19.3-4.2
			c-5.5-3.8-5.4-9-4.7-17.4c-2.3,6.1-4.6,12-4.3,20.4c0.5,12.9,12.2,23.9,33.4,17.1c54.5-17.6,65.8-13.7,73.8,5.6
			c5.3,12.7-4.8,28.9-38.1,34c-35.7,5.5-57.9,2.7-77.5-0.4c-10.6-1.7-27-6.3-35.7-12.5c-7.2-5.2-11.7-13.4-14-22
			c-2.3-8.6-2.6-17.5-2.8-26.4c-0.7-24.3-0.6-48.7-2.2-73c-1.2-18.6-0.3-45.6,10.5-51.1c31-12,80.5-7.6,117.4-3.6
			c13.1,1.4,26.6,4,37,12.1c10.3,8.1,15.8,35.3,9.6,46.9c-3.5,6.6-10.3,11-17.5,13.2C1612.1,1267.6,1604.5,1267.7,1597,1267.6z"/>
		<path class="st2" d="M1730.5,1322.9c32.9,14.1,51.6,19.8,64,38.6c4,6,7.6,24.5-12.5,28.9c-19,4.2-39.5,3.5-57.6-9.9
			c-10.2-7.5-16.5-19-22.6-30.2c-0.4-0.8-0.9-1.6-1.3-2.5c2.1,7.4,3.9,15.8,3.7,21.2c-0.4,8.4,1.8,21-16.9,23.6
			c-11.4,1.6-22.5-9.8-27.2-20.3c-13.3-29.6-22-107.3-6.1-151.4c6.5-18.1,23.2-30.1,42.4-29.5c16.4,0.5,23.6,12.9,26.2,25
			c4.6,21.3,6.8,52.9-10.9,67.4c-3.9,3.2-7,4.9-9.3,5.9c12.9-1.9,24.5-11,32.7-21.5c9.5-12.3,17.5-38.2,26.5-50.8
			c9-12.7,21.9-24,37.4-25.2c19.1-1.5,37.9,9.9,41.7,32.7c3.2,18.9,0.6,45.1-20.1,64.7C1794.5,1314,1764.8,1332.3,1730.5,1322.9z"/>
		<path class="st2" d="M912,1632.3c-2.2,29.7-1.6,51.6-14.2,68.2c-10.7,14.1-32,21.1-35.3,25c-10,11.8-9.1,27-10.8,35
			c-1,5-4.7,9.8-7.7,13c-6.5,6.9-21.2,6.6-23.6,6.2c-2-0.4-8.6-1.6-13.6-7.1c-4.1-4.6-10.1-17.6-12.9-27.4
			c-3.2-11.2-4.9-15.8-13.6-17.7c-10.7-2.2-20.5-7.6-33.4-16.1c-23.9-15.7-29.2-61.1-30.2-75.2c-1.8-26.1-6.1-46.3,7.9-58.3
			c10.8-9.2,32.7-10.5,46.3-4.7c10,4.3,15.1,11.9,20,19.2c12.7,18.8,16.3,38.2,15.6,49.9c-0.7,10.6-0.3,14.9-6.5,20.1
			c-6.6,5.5-12.4,5.9-13.4,5.9c15.3,0.5,24.1-8.1,38.2-7.8c9.5,0.2,28.5,7.6,28.5,7.6c-4.4-4.7-12.9-5.4-19-10.5
			c-5.2-4.4-2.6-18.3,0.7-30.9c4.4-17.3,4.6-45.3,22.1-53.9c3.4-1.7,21.7-7.5,34.8-1.3c1.1,0.5,4.9,2.4,8.4,6.3
			C907.2,1585.1,914.1,1604,912,1632.3z"/>
		<path class="st2" d="M1055.1,1653.8c-28.6-0.6-65.2-7.5-92.6-15.6c4.6,2.1,11.8,7.8,21.9,8.8c-0.2,5.7-0.8,16.5-1,22.2
			c13.6,0.6,56.4-2.9,69.3,8.5c8.9,7.9,0.7,20.7-8.4,27.4c-9.1,6.7-21.2,7.9-32.5,7.9c-6.7,0-13.8-0.4-19.3-4.2
			c-5.5-3.8-5.4-9-4.7-17.4c-2.3,6.1-4.6,12-4.3,20.4c0.5,12.9,12.2,23.9,33.4,17.1c54.5-17.6,65.8-13.7,73.8,5.6
			c5.3,12.7-4.8,28.9-38.1,34c-35.7,5.5-57.9,2.7-77.5-0.4c-10.6-1.7-27-6.3-35.7-12.5c-7.2-5.2-11.7-13.4-14-22
			c-2.3-8.6-2.6-17.5-2.8-26.4c-0.7-24.3-0.6-48.7-2.2-73c-1.2-18.6-0.3-45.6,10.5-51.1c31-12,80.5-7.6,117.4-3.6
			c13.1,1.4,26.6,4,37,12.1c10.3,8.1,15.8,35.3,9.6,46.9c-3.5,6.6-10.3,11-17.5,13.2C1070.2,1653.9,1062.6,1654,1055.1,1653.8z"/>
		<path class="st2" d="M1315.4,1638.2c-2.4,10.2-12.2,15.6-13.3,16.3c-7.4,4.4-14.6,4.2-19.1,4.1c-9.2-0.3-19.4-2.3-25.9-5.1
			c-6.2-2.6-21-13.9-34.1,6.6c-1.4,2.9-2.1,6.9-2.1,6.9s2.8-5.7,5.2-8c3.2-3,6.5-5.3,10.3-6.4c1.2-0.3,2.3,0.7,2,1.9
			c-5,25.3-10.1,58.4-7.2,84.1c1,8.7,1.5,15.8-2,24.1c-2.3,5.5-5.4,12-14.3,12.7c-8.9,0.7-22.6-5.7-28.6-12.4
			c-13.9-15.7-17.8-29.7-19.6-41.2c-3.1-20-2.9-26.8-3.3-40.2c-0.5-19.7-1-21.9,10.5-26.1c0,0-5.2-2.5-16.6,7.5
			c-5.9,5.2-13.4,11.6-25,10.6c-8.7-0.7-16-4.7-20.9-10.3c-8-9-13.3-20.1-9.8-37.2c4.9-23.9,26.5-40.2,35.1-43.9
			c17.1-7.4,31-9.8,51-12c27.4-3.1,38.1-1.2,64.9,4.5c27.1,5.8,40.1,17.3,43.6,20.7C1300.6,1599.7,1320.7,1616,1315.4,1638.2z"/>
	</g>
	<path class="st3" d="M1282,456.5c-2.4,10.2-12.2,15.6-13.3,16.3c-7.4,4.4-14.6,4.2-19.1,4.1c-9.2-0.3-19.4-2.3-25.9-5.1
		c-6.2-2.6-21-13.9-34.1,6.6c-1.4,2.9-2.1,6.9-2.1,6.9s2.8-5.7,5.2-8c3.2-3,6.5-5.3,10.3-6.4c1.2-0.3,2.3,0.7,2,1.9
		c-5,25.3-10.1,58.4-7.2,84.1c1,8.7,1.5,15.7-2,24.1c-2.3,5.5-5.4,12-14.3,12.7c-8.9,0.7-22.6-5.7-28.6-12.4
		c-13.9-15.7-17.8-29.7-19.6-41.2c-3.1-20-2.9-26.8-3.3-40.2c-0.5-19.7-1-21.9,10.5-26.1c0,0-5.2-2.5-16.6,7.5
		c-5.9,5.2-13.4,11.6-25,10.6c-8.7-0.7-16-4.7-20.9-10.3c-8-9-13.3-20.1-9.8-37.2c4.9-23.9,26.5-40.2,35.1-43.9
		c17.1-7.4,31-9.8,51-12c27.4-3.1,38.1-1.2,64.9,4.5c27.1,5.8,40.1,17.3,43.6,20.7C1267.2,418.1,1287.3,434.3,1282,456.5z"/>
	<path class="st3" d="M1472.7,551.9c-1.5,8-8.5,38.9-29.4,42.4c-24.4,4-29.4-16.5-32.3-26.2c-3.9-13.1-10.8-34-7-38
		c0.5-0.5,11.4-1.7,16.7-0.2c-23.3-6.2-33.2-5.4-47.6-3c-9.4,1.6-16.6,1.2-19.6,7c4.7-4,7.2-2.8,13.3-2.9
		c1.4,14.4-8.5,33.3-13.9,44.6c-5.4,11.3-8.6,17.5-25.6,17.5c-13.3,0-20.5-11.9-25-20.8c-10.8-21.4-11.8-47.3-15.2-71
		c-3.4-23.7-3.6-54.2,6-76.1c4.2-9.7,10.2-19,18.9-24.9c8.7-5.9,40.3-8.1,49.6-3.1c12.5,6.8,25.9,33.3,18.7,82.1
		c-16.6,2.6-27,8.1-33.5,11.9c45.7-17.3,71.5-6.4,82.5-4.2c-7.2-4.7-19.2-9-33.1-9.9c-0.4-4.1-2.1-25.3,0.4-37.6
		c8.5-40.8,32.9-47.1,42-47.4c10.7-0.3,29.3,7.8,35.8,20.7C1495.2,453.1,1476,533.8,1472.7,551.9z"/>
	<path class="st3" d="M1601.4,472.3c-1.2,29.3-7.2,61.2-17.9,87.8c-10.5,26.1-23.6,34.6-41.4,34.6c-20.7,0-32.4-21.7-36.6-37.7
		c-8-30.8-15-56.9-12.7-89.1c0,0-1.1-18.1,20.5-42.6c5.5-6.2-14.5,6.9-21.2,20.3c-0.8-14.7,5.9-27.4,15-37.2
		c18.7-20,67.9-17.7,78.8-6.5C1601,417.4,1602.4,448.8,1601.4,472.3z"/>
	<path class="st3" d="M1769.8,553.5c-4.5,8.6-15.1,19.9-23.4,25.4c-29.5,19.6-93.1,23.3-117.9-1.6c-12.6-12.7-10.6-24-6.1-28.5
		c5.8-5.8,18.1-0.9,22.1,1.6c17.9,11,39.7,5.6,52.9-0.1c5.2-2.2,16.7-8.8,17.7-10.3c3.2-5.1-7.4-2.4-21.8,1
		c-57.8,13.6-72.7-14.8-77.4-24.2c-8-15.6-10.5-42-5.7-58.7c4.8-16.7,19.7-37.3,33.8-48.2c17.1-13.1,41.6-18.7,63.5-17.9
		c21.9,0.8,43.8,11.9,54.3,30.3c10.5,18.4,6.6,50.3-9.9,64.1c-11,9.2-25.8,12.3-41.1,12.2c-15.7-0.1-38.1-3.9-43-20.4
		c-2.1,5,0.4,13.1,3.4,17.2c9.9,13.7,22.6,17.1,40.3,13.3c25.3-5.4,44.6-10.1,56.7,3.7C1774.5,519.7,1778.7,536.3,1769.8,553.5z"/>
	<path class="st3" d="M415.9,855.8c-4.7,27.1-12.2,57.2-20,74.9c-5.2,11.8-15.7,29.6-28.4,39.2c-12.8,9.6-35.7,15.2-50.8,10
		c-13.7-4.7-23.4-17.7-24.3-32.2c-1-15.9,0-21.1-9.5-35c6.5,12.6,11.5,23.6-3.7,46.8c-14.1,21.6-24.7,23-45.8,21.6
		c-13.5-0.9-31.2-5.3-47.7-39.4c-15-31.1-20.1-76-17-110.3c1.7-18.8,7.3-37.8,20.6-46.3c16.4-10.4,41.7-1.2,52.9,14.7
		c15.7,22.2,22.7,63.8,9,81.7c-3.9,5.1-9.1,7.7-12.9,8.5c-2.8,0.6-5.9,2.8-17.3-6.2c5.1,5.4,11.8,10.6,22.6,7.5
		c10.8-3.2,19-12.3,24-22.4c5.1-10.1,7.6-21.2,11-31.9c2.6-8.1,6.4-16.8,14.2-20.2c9.3-4,24,2.2,31.5,9c9.6,8.7,15.1,24.8,16.6,34.8
		c3.3,23.3-5.7,47.9-26.4,45.1c32.2,3.7,30.6-24.9,32.7-44.4c1.7-15,9.2-37.5,15.9-54.1c5.6-14,19-28,33.7-24.8
		c11.8,2.6,16.9,14,19.5,25.7C419,819.8,417.9,843.9,415.9,855.8z"/>
	<path class="st3" d="M560.9,858.4c-28.6-0.6-65.2-7.5-92.6-15.6c4.6,2.1,11.8,7.8,21.9,8.8c-0.2,5.7-0.8,16.5-1,22.2
		c13.6,0.6,56.4-2.9,69.3,8.5c8.9,7.9,0.7,20.7-8.4,27.4c-9.1,6.7-21.2,7.9-32.5,7.9c-6.7,0-13.8-0.4-19.3-4.2
		c-5.5-3.8-5.4-9-4.7-17.4c-2.3,6.1-4.6,12-4.3,20.4c0.5,12.9,12.2,23.9,33.4,17.1c54.5-17.6,65.8-13.7,73.8,5.6
		c5.3,12.7-4.8,28.9-38.1,34c-35.7,5.5-57.9,2.7-77.5-0.4c-10.6-1.7-27-6.3-35.7-12.5c-7.2-5.2-11.7-13.4-14-22
		c-2.3-8.6-2.6-17.5-2.8-26.4c-0.7-24.3-0.6-48.7-2.2-73c-1.2-18.6-0.3-45.6,10.5-51.1c31-12,80.5-7.6,117.4-3.6
		c13.1,1.4,26.6,4,37,12.1c10.3,8.1,15.8,35.3,9.6,46.9c-3.5,6.6-10.3,11-17.5,13.2C576,858.5,568.4,858.6,560.9,858.4z"/>
	<path class="st3" d="M745.7,858.4c-28.6-0.6-65.2-7.5-92.6-15.6c4.6,2.1,11.8,7.8,21.9,8.8c-0.2,5.7-0.8,16.5-1,22.2
		c13.6,0.6,56.4-2.9,69.3,8.5c8.9,7.9,0.7,20.7-8.4,27.4c-9.1,6.7-21.2,7.9-32.5,7.9c-6.7,0-13.8-0.4-19.3-4.2
		c-5.5-3.8-5.4-9-4.7-17.4c-2.3,6.1-4.6,12-4.3,20.4c0.5,12.9,12.2,23.9,33.4,17.1c54.5-17.6,65.8-13.7,73.8,5.6
		c5.3,12.7-4.8,28.9-38.1,34c-35.7,5.5-57.9,2.7-77.5-0.4c-10.6-1.7-27-6.3-35.7-12.5c-7.2-5.2-11.7-13.4-14-22
		c-2.3-8.6-2.6-17.5-2.8-26.4c-0.7-24.3-0.6-48.7-2.2-73c-1.2-18.6-0.3-45.6,10.5-51.1c31-12,80.5-7.6,117.4-3.6
		c13.1,1.4,26.6,4,37,12.1c10.3,8.1,15.8,35.3,9.6,46.9c-3.5,6.6-10.3,11-17.5,13.2C760.8,858.5,753.2,858.6,745.7,858.4z"/>
	<path class="st3" d="M879.2,913.8c32.9,14.1,51.6,19.8,64,38.6c4,6,7.6,24.5-12.5,28.9c-19,4.2-39.5,3.5-57.6-9.9
		c-10.2-7.5-16.5-19-22.6-30.2c-0.4-0.8-0.9-1.6-1.3-2.5c2.1,7.4,3.9,15.8,3.7,21.2c-0.4,8.4,1.8,21-16.9,23.6
		c-11.4,1.6-22.5-9.8-27.2-20.3c-13.3-29.6-22-107.3-6.1-151.4c6.5-18.1,23.2-30.1,42.4-29.5c16.4,0.5,23.6,12.9,26.2,25
		c4.6,21.3,6.8,52.9-10.9,67.4c-3.9,3.2-7,4.9-9.3,5.9c12.9-1.9,24.5-11,32.7-21.5c9.5-12.3,17.5-38.2,26.5-50.8
		c9-12.7,21.9-24,37.4-25.2c19.1-1.5,37.9,9.9,41.7,32.7c3.2,18.9,0.6,45.1-20.1,64.7C943.2,904.9,913.5,923.2,879.2,913.8z"/>
	<path class="st3" d="M1243.1,836.9c-2.2,29.7-1.6,51.6-14.2,68.2c-10.7,14.1-32,21.1-35.3,25c-10,11.8-9.1,27-10.8,35
		c-1,5-4.7,9.8-7.7,13c-6.5,6.9-21.2,6.6-23.6,6.2c-2-0.4-8.6-1.6-13.6-7.1c-4.1-4.6-10.1-17.6-12.9-27.4
		c-3.2-11.2-4.9-15.8-13.6-17.7c-10.7-2.2-20.5-7.6-33.4-16.1c-23.9-15.7-29.2-61.1-30.2-75.2c-1.8-26.1-6.1-46.3,7.9-58.3
		c10.8-9.2,32.7-10.5,46.3-4.7c10,4.3,15.1,11.9,20,19.2c12.7,18.8,16.3,38.2,15.6,49.9c-0.7,10.6-0.3,14.9-6.5,20.1
		c-6.6,5.5-12.4,5.9-13.4,5.9c15.3,0.5,24.1-8.1,38.2-7.8c9.5,0.2,28.5,7.6,28.5,7.6c-4.4-4.7-12.9-5.4-18.9-10.5
		c-5.2-4.4-2.6-18.3,0.7-30.9c4.4-17.3,4.6-45.3,22.1-53.9c3.4-1.7,21.7-7.5,34.8-1.3c1.1,0.5,4.9,2.4,8.4,6.3
		C1238.3,789.7,1245.2,808.6,1243.1,836.9z"/>
	<path class="st3" d="M1392.4,953.9c-21.3,24-33.8,25.5-65.5,30c-57.9,8.2-74.8-56.6-76.2-67.5c-2.8-22-4.1-44.7,2.3-66
		c11.9-39.2,26.9-67.9,67.8-68.1c40.9-0.2,76.9,18.8,92.2,56.8C1428.4,877.1,1419.6,923.3,1392.4,953.9z M1329,885.2
		c-0.8-6.1-2.1-12.4-5.7-17.3c-9.8-13.4-21.1-5.1-22.5,7c-0.1,1.1-0.2,2.3-0.3,3.4c-4.7,8.6-7.2,18.4-7.3,28.2
		c0.7-6.2,3.2-12.1,7-17c0.2,10.7,1.5,22.2,3.2,31.4c0.7,4,2.1,8.6,5.7,10.4c5.1,2.6,11.1-1.7,14.2-6.6
		C1330.8,913.3,1330.9,898.7,1329,885.2z"/>
	<path class="st3" d="M1625.4,862.6c-4.9,43.1-8.8,85.3-47.4,105.1c-38.3,19.7-96.8,20.5-123.6-13.3c-26.7-33.8-36-93.2-23.7-134.4
		c5-16.7,15.9-35.1,33.3-35.7c12.8-0.4,23.9,9.4,30.6,20.4c14.8,23.9,24.9,96.9,11.3,102c-13.7,5.1-19.9,9.2-21.4,9.8
		c30.3-12.6,65.8-11.8,95.5,2.1c0,0-13.1-8.9-28.1-13.4c-14.6-4.5-13-56-8.5-79c4.5-23,24.9-47.8,47.7-42.5
		c14.6,3.4,27.5,15.7,32.1,34.5C1626.8,832.7,1627.1,847.7,1625.4,862.6z"/>
	<path class="st3" d="M1811.5,948.5c4.5,14.4-6,31.6-21.1,32c-44.9,1.2-92.7-38.4-91.5-64.7c-1.3,19.8,6.8,21.6,8.7,34.4
		c1.6,10.3,1.3,27.3-30.3,31.2c-22.4,2.8-33.8-13.9-34.6-21.8c-7.4-27.8-10-54.2-9.4-82.9c0.6-30,10.6-61.2,33.3-80.9
		c24.4-21.2,94-24.6,129.5-5.9c14.2,7.5,27.4,19.9,33.3,42.9c5.9,22.7-6.5,58-25.9,75.1c-14.8,13.1-40.7,19.8-50.3,3.3
		c6.3,9.8,3.7,13.7,25.7,18.9C1789,932.7,1804.7,926.6,1811.5,948.5z M1750.9,829.8c-1.6-2.1-4.3-1.9-6.5-1.4
		c-12.1,2.5-23.9,7.5-34.7,14.8l6.9-3.8c-5.9,3.3-11,8.8-14.4,15.7c15.8,3.6,32.7-1.5,45.4-13.7
		C1750.6,838.6,1753.5,833.2,1750.9,829.8z"/>
	<path class="st3" d="M357.8,1261.6c-16.6,17.8-53.5,34.4-73.4,17.1c9.6,7.8,11.1,13.4,41.2,5.9c12.2-3,21.3,5.3,26.7,16.2
		c5.2,10.7,4.3,27.1-2,34.9c-6.3,7.8-16.6,14.9-25.9,19.1c-20.5,9.1-39.7,10.3-62.2,12c-18.3,1.4-37.8-0.1-53.2-9.8
		c-15.5-9.8-24.9-26.8-28.9-44.3c-5.3-23-5-50.8-4.9-74.2c0.1-20.9,4.1-64.7,83.4-69.9c54.5-3.6,93.8,1.5,109.6,24.8
		C381.5,1213.5,374.4,1243.8,357.8,1261.6z M303.7,1215.5c-1.3-5.6-9.3-6.4-15.2-5.4c-15.9,2.9-30.9,9.9-43.1,20.1l-0.6-4.8
		c-5.7,2.9-4,12,1.5,15.1c5.5,3.1,12.5,2,18.6,0.3c11.3-3.2,22-8.1,31.7-14.5C300.6,1223.7,304.7,1219.9,303.7,1215.5z
		 M273.3,1298.8c-8.1-0.8-16,2.8-23.3,6.4l-1.4-5.5c-4.4,6.9-8.9,15.7-4.3,22.5c5,7.3,16.3,6.1,25.1,4c7.2-1.7,15.7-4.5,17.7-11.5
		C289.3,1307.2,281.4,1299.7,273.3,1298.8z"/>
	<path class="st3" d="M516.5,1244.7c-28.6-0.6-65.2-7.5-92.6-15.6c4.6,2.1,11.8,7.8,21.9,8.8c-0.2,5.7-0.8,16.5-1,22.2
		c13.6,0.6,56.4-2.9,69.3,8.5c8.9,7.9,0.7,20.7-8.4,27.4c-9.1,6.7-21.2,7.9-32.5,7.9c-6.7,0-13.8-0.4-19.3-4.2
		c-5.5-3.8-5.4-9-4.7-17.4c-2.3,6.1-4.6,12-4.3,20.4c0.5,12.9,12.2,23.9,33.4,17.1c54.5-17.6,65.8-13.7,73.8,5.6
		c5.3,12.7-4.8,28.9-38.1,34c-35.7,5.5-57.9,2.7-77.5-0.4c-10.6-1.7-27-6.3-35.7-12.5c-7.2-5.2-11.7-13.4-14-22
		c-2.3-8.6-2.6-17.5-2.8-26.4c-0.7-24.3-0.6-48.7-2.2-73c-1.2-18.6-0.3-45.6,10.5-51.1c31-12,80.5-7.6,117.4-3.6
		c13.1,1.4,26.6,4,37,12.1c10.3,8.1,15.8,35.3,9.6,46.9c-3.5,6.6-10.3,11-17.5,13.2C531.7,1244.7,524,1244.9,516.5,1244.7z"/>
	<path class="st3" d="M724.8,1326c-4.5,8.6-15.1,19.9-23.4,25.4c-29.5,19.6-93.1,23.3-117.9-1.6c-12.6-12.7-10.6-24-6.1-28.5
		c5.8-5.8,18.1-0.9,22.1,1.6c17.9,11,39.7,5.6,52.9-0.1c5.2-2.2,16.7-8.8,17.7-10.3c3.1-5.1-7.4-2.4-21.8,1
		c-57.8,13.6-72.7-14.8-77.4-24.2c-8-15.6-10.5-42-5.7-58.7c4.8-16.7,19.7-37.3,33.8-48.2c17.1-13.1,41.6-18.7,63.5-17.9
		c21.9,0.8,43.8,11.9,54.3,30.3c10.5,18.4,6.6,50.3-9.9,64.1c-11,9.2-25.8,12.3-41.1,12.2c-15.7-0.1-38.1-3.9-43-20.4
		c-2.1,5,0.4,13.1,3.4,17.2c9.9,13.7,22.6,17.1,40.3,13.3c25.3-5.4,44.6-10.1,56.7,3.7C729.5,1292.2,733.6,1308.8,724.8,1326z"/>
	<path class="st3" d="M945.8,1229.1c-2.4,10.2-12.2,15.6-13.3,16.3c-7.4,4.4-14.6,4.2-19.1,4.1c-9.2-0.3-19.4-2.3-25.9-5.1
		c-6.2-2.6-21-13.9-34.1,6.6c-1.4,2.9-2.1,6.9-2.1,6.9s2.8-5.7,5.2-8c3.2-3,6.5-5.3,10.3-6.4c1.2-0.3,2.3,0.7,2,1.9
		c-5,25.3-10.1,58.4-7.2,84.1c1,8.7,1.5,15.8-2,24.1c-2.3,5.5-5.4,12-14.3,12.7c-8.9,0.7-22.6-5.7-28.6-12.4
		c-13.9-15.7-17.8-29.7-19.6-41.2c-3.1-20-2.9-26.8-3.3-40.2c-0.5-19.7-1-21.9,10.5-26.1c0,0-5.2-2.5-16.6,7.5
		c-5.9,5.2-13.4,11.6-25,10.6c-8.7-0.7-16-4.7-20.9-10.3c-8-9-13.3-20.1-9.8-37.2c4.9-23.9,26.5-40.2,35.1-43.9
		c17.1-7.4,31-9.8,51-12c27.4-3.1,38.1-1.2,64.9,4.5c27.1,5.8,40.1,17.3,43.6,20.7C931,1190.6,951,1206.8,945.8,1229.1z"/>
	<path class="st3" d="M1251.2,1242c-4.7,27.1-12.2,57.2-20,74.9c-5.2,11.8-15.7,29.6-28.4,39.2c-12.8,9.6-35.7,15.2-50.8,10
		c-13.7-4.7-23.4-17.7-24.3-32.2c-1-15.9,0-21.1-9.5-35c6.5,12.6,11.5,23.6-3.7,46.8c-14.1,21.6-24.7,23-45.8,21.6
		c-13.5-0.9-31.2-5.3-47.7-39.4c-15-31.1-20.1-76-17-110.3c1.7-18.8,7.3-37.8,20.6-46.3c16.4-10.4,41.7-1.2,52.9,14.7
		c15.7,22.2,22.7,63.8,9,81.7c-3.9,5.1-9.1,7.7-12.9,8.5c-2.8,0.6-5.9,2.8-17.3-6.2c5.1,5.4,11.8,10.6,22.6,7.5
		c10.8-3.2,19-12.3,24-22.4c5.1-10.1,7.6-21.2,11-31.9c2.6-8.1,6.4-16.8,14.2-20.2c9.3-4,24,2.2,31.5,9c9.6,8.7,15.1,24.8,16.6,34.8
		c3.3,23.3-5.7,47.9-26.4,45.1c32.2,3.7,30.6-24.9,32.7-44.4c1.7-15,9.2-37.5,15.9-54.1c5.6-14,19-28,33.7-24.8
		c11.8,2.6,16.9,14,19.5,25.7C1254.3,1206.1,1253.2,1230.1,1251.2,1242z"/>
	<path class="st3" d="M1396.3,1244.7c-28.6-0.6-65.2-7.5-92.6-15.6c4.6,2.1,11.8,7.8,21.9,8.8c-0.2,5.7-0.8,16.5-1,22.2
		c13.6,0.6,56.4-2.9,69.3,8.5c8.9,7.9,0.7,20.7-8.4,27.4c-9.1,6.7-21.2,7.9-32.5,7.9c-6.7,0-13.8-0.4-19.3-4.2
		c-5.5-3.8-5.4-9-4.7-17.4c-2.3,6.1-4.6,12-4.3,20.4c0.5,12.9,12.2,23.9,33.4,17.1c54.5-17.6,65.8-13.7,73.8,5.6
		c5.3,12.7-4.8,28.9-38.1,34c-35.7,5.5-57.9,2.7-77.5-0.4c-10.6-1.7-27-6.3-35.7-12.5c-7.2-5.2-11.7-13.4-14-22
		c-2.3-8.6-2.6-17.5-2.8-26.4c-0.7-24.3-0.6-48.7-2.2-73c-1.2-18.6-0.3-45.6,10.5-51.1c31-12,80.5-7.6,117.4-3.6
		c13.1,1.4,26.6,4,37,12.1c10.3,8.1,15.8,35.3,9.6,46.9c-3.5,6.6-10.3,11-17.5,13.2C1411.4,1244.7,1403.8,1244.9,1396.3,1244.7z"/>
	<path class="st3" d="M1581,1244.7c-28.6-0.6-65.2-7.5-92.6-15.6c4.6,2.1,11.8,7.8,21.9,8.8c-0.2,5.7-0.8,16.5-1,22.2
		c13.6,0.6,56.4-2.9,69.3,8.5c8.9,7.9,0.7,20.7-8.4,27.4c-9.1,6.7-21.2,7.9-32.5,7.9c-6.7,0-13.8-0.4-19.3-4.2
		c-5.5-3.8-5.4-9-4.7-17.4c-2.3,6.1-4.6,12-4.3,20.4c0.5,12.9,12.2,23.9,33.4,17.1c54.5-17.6,65.8-13.7,73.8,5.6
		c5.3,12.7-4.8,28.9-38.1,34c-35.7,5.5-57.9,2.7-77.5-0.4c-10.6-1.7-27-6.3-35.7-12.5c-7.2-5.2-11.7-13.4-14-22
		c-2.3-8.6-2.6-17.5-2.8-26.4c-0.7-24.3-0.6-48.7-2.2-73c-1.2-18.6-0.3-45.6,10.5-51.1c31-12,80.5-7.6,117.4-3.6
		c13.1,1.4,26.6,4,37,12.1c10.3,8.1,15.8,35.3,9.6,46.9c-3.5,6.6-10.3,11-17.5,13.2C1596.1,1244.7,1588.5,1244.9,1581,1244.7z"/>
	<path class="st3" d="M1714.5,1300c32.9,14.1,51.6,19.8,64,38.6c4,6,7.6,24.5-12.5,28.9c-19,4.2-39.5,3.5-57.6-9.9
		c-10.2-7.5-16.5-19-22.6-30.2c-0.4-0.8-0.9-1.6-1.3-2.5c2.1,7.4,3.9,15.8,3.7,21.2c-0.4,8.4,1.8,21-16.9,23.6
		c-11.4,1.6-22.5-9.8-27.2-20.3c-13.3-29.6-22-107.3-6.1-151.4c6.5-18.1,23.2-30.1,42.4-29.5c16.4,0.5,23.6,12.9,26.2,25
		c4.6,21.3,6.8,52.9-10.9,67.4c-3.9,3.2-7,4.9-9.3,5.9c12.9-1.9,24.5-11,32.7-21.5c9.5-12.3,17.5-38.2,26.5-50.8
		c9-12.7,21.9-24,37.4-25.2c19.1-1.5,37.9,9.9,41.7,32.7c3.2,18.9,0.6,45.1-20.1,64.7C1778.5,1291.1,1748.8,1309.4,1714.5,1300z"/>
	<path class="st3" d="M896.1,1609.4c-2.2,29.7-1.6,51.6-14.2,68.2c-10.7,14.1-32,21.1-35.3,25c-10,11.8-9.1,27-10.8,35
		c-1,5-4.7,9.8-7.7,13c-6.5,6.9-21.2,6.6-23.6,6.2c-2-0.4-8.6-1.6-13.6-7.1c-4.1-4.6-10.1-17.6-12.9-27.4
		c-3.2-11.2-4.9-15.8-13.6-17.7c-10.7-2.2-20.5-7.6-33.4-16.1c-23.9-15.7-29.2-61.1-30.2-75.2c-1.8-26.1-6.1-46.3,7.9-58.3
		c10.8-9.2,32.7-10.5,46.3-4.7c10,4.3,15.1,11.9,20,19.2c12.7,18.8,16.3,38.2,15.6,49.9c-0.7,10.6-0.3,14.9-6.5,20.1
		c-6.6,5.5-12.4,5.9-13.4,5.9c15.3,0.5,24.1-8.1,38.2-7.8c9.5,0.2,28.5,7.6,28.5,7.6c-4.4-4.7-12.9-5.4-19-10.5
		c-5.2-4.4-2.6-18.3,0.7-30.9c4.4-17.3,4.6-45.3,22.1-53.9c3.4-1.7,21.7-7.5,34.8-1.3c1.1,0.5,4.9,2.4,8.4,6.3
		C891.2,1562.2,898.2,1581.1,896.1,1609.4z"/>
	<path class="st3" d="M1039.1,1631c-28.6-0.6-65.2-7.5-92.6-15.6c4.6,2.1,11.8,7.8,21.9,8.8c-0.2,5.7-0.8,16.5-1,22.2
		c13.6,0.6,56.4-2.9,69.3,8.5c8.9,7.9,0.7,20.7-8.4,27.4c-9.1,6.7-21.2,7.9-32.5,7.9c-6.7,0-13.8-0.4-19.3-4.2
		c-5.5-3.8-5.4-9-4.7-17.4c-2.3,6.1-4.6,12-4.3,20.4c0.5,12.9,12.2,23.9,33.4,17.1c54.5-17.6,65.8-13.7,73.8,5.6
		c5.3,12.7-4.8,28.9-38.1,34c-35.7,5.5-57.9,2.7-77.5-0.4c-10.6-1.7-27-6.3-35.7-12.5c-7.2-5.2-11.7-13.4-14-22
		c-2.3-8.6-2.6-17.5-2.8-26.4c-0.7-24.3-0.6-48.7-2.2-73c-1.2-18.6-0.3-45.6,10.5-51.1c31-12,80.5-7.6,117.4-3.6
		c13.1,1.4,26.6,4,37,12.1c10.3,8.1,15.8,35.3,9.6,46.9c-3.5,6.6-10.3,11-17.5,13.2C1054.2,1631,1046.6,1631.1,1039.1,1631z"/>
	<path class="st3" d="M1299.5,1615.3c-2.4,10.2-12.2,15.6-13.3,16.3c-7.4,4.4-14.6,4.2-19.1,4.1c-9.2-0.3-19.4-2.3-25.9-5.1
		c-6.2-2.6-21-13.9-34.1,6.6c-1.4,2.9-2.1,6.9-2.1,6.9s2.8-5.7,5.2-8c3.2-3,6.5-5.3,10.3-6.4c1.2-0.3,2.3,0.7,2,1.9
		c-5,25.3-10.1,58.4-7.2,84.1c1,8.7,1.5,15.8-2,24.1c-2.3,5.5-5.4,12-14.3,12.7c-8.9,0.7-22.6-5.7-28.6-12.4
		c-13.9-15.7-17.8-29.7-19.6-41.2c-3.1-20-2.9-26.8-3.3-40.2c-0.5-19.7-1-21.9,10.5-26.1c0,0-5.2-2.5-16.6,7.5
		c-5.9,5.2-13.4,11.6-25,10.6c-8.7-0.7-16-4.7-20.9-10.3c-8-9-13.3-20.1-9.8-37.2c4.9-23.9,26.5-40.2,35.1-43.9
		c17.1-7.4,31-9.8,51-12c27.4-3.1,38.1-1.2,64.9,4.5c27.1,5.8,40.1,17.3,43.6,20.7C1284.6,1576.9,1304.7,1593.1,1299.5,1615.3z"/>
	<circle class="st3" cx="1568.1" cy="180.5" r="33.5"/>
	<circle class="st3" cx="1707" cy="162.7" r="15.7"/>
	<circle class="st3" cx="1898.3" cy="645.5" r="28.7"/>
	<circle class="st3" cx="911.1" cy="295.3" r="19.8"/>
	<circle class="st3" cx="212.3" cy="215.7" r="37.3"/>
	<circle class="st3" cx="185.4" cy="656.6" r="17.7"/>
	<circle class="st3" cx="1516.7" cy="707" r="32.7"/>
	<circle class="st3" cx="1485.5" cy="1586.1" r="40.4"/>
	<circle class="st3" cx="1584.9" cy="1510.5" r="16.8"/>
	<circle class="st3" cx="342.1" cy="1581.9" r="54.6"/>
	<circle class="st3" cx="490.7" cy="1679.7" r="23.8"/>
	<circle class="st3" cx="1022.9" cy="1083.9" r="22.9"/>
	<circle class="st3" cx="983.9" cy="184" r="21.3"/>
	<circle class="st3" cx="1745.9" cy="1774.6" r="43.6"/>
	<g>
		<path class="st2" d="M457.6,490.2c-3.2,20-11.2,38.9-15.3,58.8c-2.9,13.9-3.9,28.2-9,41.4c-5.1,13.2-12.6,26-26.6,28.3
			c-14.9,2.5-24.9-3.3-27-18.1c-2.1-14.9-6.3-30.3-2.5-44.9c3.8-14.6,13.3-16.3,18.9-41.7c-6.5,24.1-20.6,25.2-24.8,40.8
			c-2.3,8.3,3.5,17.1-2.2,23.6c-7,8-24.2,4.2-31.2-3.7c-7.1-7.9-10.9-14.5-12.7-24.9c-1.3-7.9-2.4-24.8-2.4-24.8
			c-4.1,15.8-4.3,25.2,0.8,47.9c1.5,6.7,7.7,23.3,6,30c-3.5,13.6-15.9,18.8-29.8,17.1c-13.9-1.6-16.3-9.1-24.1-24
			c-11.1-21.2-22.5-50.8-25.4-74.5c-2.2-18.6,0.1-37.3,4.3-55.5c14.1-61.6,96.6-45.2,90.9,1.1c-1.4,11.3-1.8,20.7,4.2,30.4
			c5.6,9.3,17.5,18.4,20.6,18.4c-8.1-5.1-15.5-13.4-17.6-25.4c-4.1-23.3,11.1-43.4,31.6-55.2c14.4-8.3,43.6-17.3,59.9-0.1
			C458.1,450.1,460.9,470.2,457.6,490.2z"/>
		<path class="st2" d="M636.4,599.3c-6.5,12.8-10.5,20.9-24.4,23c-22,3.2-37.4-19.1-38.9-33.4c-3.4-31.2,3.4-27.9,10.2-42.3
			c-15.1,16.9-47.7,17.8-69.4-2.6c5.1,11.5,24.5,11.5,21.7,34.3c-6.8,54.7-49.2,53.3-65.9,36.6c-8.2-8.2-14-26.6-12.9-46.3
			c4.5-52.2,12.6-66.5,38.5-110.8c9.4-16.1,23.5-31.1,45.7-32.6c14.3-1,37.1,2.1,49.6,16.3c9.6,10.9,22.6,34.6,27.9,48.2
			c8.4,21.4,13.1,37.6,18.5,60C640.7,564.9,643.5,585.3,636.4,599.3z M558.7,498c-0.4-4-0.9-8-1.3-12c-0.3-2.6-0.6-5.3-1.8-7.6
			c-1.2-2.3-3.6-4.2-6.1-4c-3.7,0.3-5.9,4.5-7.1,8.1c-3.5,10.3-13.2,34.2-1.1,42.1C557.5,535.1,559.8,507.7,558.7,498z"/>
		<path class="st2" d="M728.6,555.4c32,13.7,50.1,19.2,62.2,37.5c3.8,5.8,7.4,23.7-12.2,28.1c-18.4,4.1-38.4,3.4-55.9-9.6
			c-9.9-7.3-16.1-18.5-21.9-29.3c-0.4-0.8-0.9-1.6-1.3-2.4c2.1,7.2,3.8,15.3,3.6,20.6c-0.4,8.2,1.8,20.3-16.4,22.9
			c-11.1,1.5-21.9-9.5-26.4-19.7c-12.9-28.7-21.3-104.2-5.9-147c6.3-17.6,22.5-29.2,41.2-28.7c15.9,0.5,22.9,12.5,25.4,24.3
			c4.4,20.7,6.6,51.4-10.6,65.5c-3.8,3.1-6.8,4.8-9.1,5.7c12.6-1.8,23.8-10.6,31.7-20.9c9.2-11.9,17-37,25.7-49.4
			c8.7-12.3,21.3-23.3,36.3-24.5c18.6-1.4,36.8,9.7,40.5,31.8c3.1,18.4,0.5,43.8-19.6,62.8C790.7,546.8,761.9,564.5,728.6,555.4z"/>
		<path class="st2" d="M972.8,501.7c-27.7-0.6-63.3-7.3-89.9-15.2c4.5,2.1,11.4,7.6,21.3,8.6c-0.2,5.5-0.8,16.1-0.9,21.6
			c13.2,0.6,54.7-2.9,67.3,8.3c8.7,7.7,0.7,20.1-8.2,26.6c-8.9,6.5-20.5,7.7-31.6,7.7c-6.5,0-13.4-0.4-18.7-4.1
			c-5.4-3.6-5.3-8.7-4.6-16.9c-2.3,5.9-4.5,11.6-4.2,19.8c0.5,12.6,11.9,23.2,32.4,16.6c52.9-17.1,63.9-13.3,71.7,5.4
			c5.2,12.4-4.7,28.1-37,33c-34.7,5.3-56.2,2.7-75.3-0.4c-10.3-1.6-26.2-6.1-34.7-12.2c-7-5-11.4-13-13.6-21.4
			c-2.2-8.3-2.5-17-2.8-25.6c-0.7-23.6-0.5-47.3-2.1-70.9c-1.2-18-0.3-44.3,10.2-49.6c30.1-11.7,78.1-7.4,114-3.5
			c12.7,1.4,25.9,3.9,35.9,11.8c10,7.9,15.3,34.3,9.3,45.5c-3.4,6.4-10,10.7-17,12.8C987.5,501.7,980.1,501.9,972.8,501.7z"/>
	</g>
	<g>
		<path class="st3" d="M436.4,455.8c-3.2,20-11.2,38.9-15.3,58.8c-2.9,13.9-3.9,28.2-9,41.4c-5.1,13.2-12.6,26-26.6,28.3
			c-14.9,2.5-24.9-3.3-27-18.1c-2.1-14.9-6.3-30.3-2.5-44.9c3.8-14.6,13.3-16.3,18.9-41.7c-6.5,24.1-20.6,25.2-24.8,40.8
			c-2.3,8.3,3.5,17.1-2.2,23.6c-7,8-24.2,4.2-31.2-3.7c-7.1-7.9-10.9-14.5-12.7-24.9c-1.3-7.9-2.4-24.8-2.4-24.8
			c-4.1,15.8-4.3,25.2,0.8,47.9c1.5,6.7,7.7,23.3,6,30c-3.5,13.6-15.9,18.8-29.8,17.1c-13.9-1.6-16.3-9.1-24.1-24
			c-11.1-21.2-22.5-50.8-25.4-74.5c-2.2-18.6,0.1-37.3,4.3-55.5c14.1-61.6,96.6-45.2,90.9,1.1c-1.4,11.3-1.8,20.7,4.2,30.4
			c5.6,9.3,17.5,18.4,20.6,18.4c-8.1-5.1-15.5-13.4-17.6-25.4c-4.1-23.3,11.1-43.4,31.6-55.2c14.4-8.3,43.6-17.3,59.9-0.1
			C436.9,415.7,439.6,435.8,436.4,455.8z"/>
		<path class="st3" d="M615.1,564.8c-6.5,12.8-10.5,20.9-24.4,23c-22,3.2-37.4-19.1-38.9-33.4c-3.4-31.2,3.4-27.9,10.2-42.3
			c-15.1,16.9-47.7,17.8-69.4-2.6c5.1,11.5,24.5,11.5,21.7,34.3c-6.8,54.7-49.2,53.3-65.9,36.6c-8.2-8.2-14-26.6-12.9-46.3
			c4.5-52.2,12.6-66.5,38.5-110.8c9.4-16.1,23.5-31.1,45.7-32.6c14.3-1,37.1,2.1,49.6,16.3c9.6,10.9,22.6,34.6,27.9,48.2
			c8.4,21.4,13.1,37.6,18.5,60C619.4,530.4,622.3,550.8,615.1,564.8z M537.5,463.6c-0.4-4-0.9-8-1.3-12c-0.3-2.6-0.6-5.3-1.8-7.6
			c-1.2-2.3-3.6-4.2-6.1-4c-3.7,0.3-5.9,4.5-7.1,8.1c-3.5,10.3-13.2,34.2-1.1,42.1C536.2,500.7,538.6,473.2,537.5,463.6z"/>
		<path class="st3" d="M707.3,521c32,13.7,50.1,19.2,62.2,37.5c3.8,5.8,7.4,23.7-12.2,28.1c-18.4,4.1-38.4,3.4-55.9-9.6
			c-9.9-7.3-16.1-18.5-21.9-29.3c-0.4-0.8-0.9-1.6-1.3-2.4c2.1,7.2,3.8,15.3,3.6,20.6c-0.4,8.2,1.8,20.3-16.4,22.9
			c-11.1,1.5-21.9-9.5-26.4-19.7c-12.9-28.7-21.3-104.2-5.9-147c6.3-17.6,22.5-29.2,41.2-28.7c15.9,0.5,22.9,12.5,25.4,24.3
			c4.4,20.7,6.6,51.4-10.6,65.5c-3.8,3.1-6.8,4.8-9.1,5.7c12.6-1.8,23.8-10.6,31.7-20.9c9.2-11.9,17-37,25.7-49.4
			c8.7-12.3,21.3-23.3,36.3-24.5c18.6-1.4,36.8,9.7,40.5,31.8c3.1,18.4,0.5,43.8-19.6,62.8C769.5,512.4,740.7,530.1,707.3,521z"/>
		<path class="st3" d="M951.6,467.3c-27.7-0.6-63.3-7.3-89.9-15.2c4.5,2.1,11.4,7.6,21.3,8.6c-0.2,5.5-0.8,16.1-0.9,21.6
			c13.2,0.6,54.7-2.9,67.3,8.3c8.7,7.7,0.7,20.1-8.2,26.6c-8.9,6.5-20.5,7.7-31.6,7.7c-6.5,0-13.4-0.4-18.7-4.1
			c-5.4-3.6-5.3-8.7-4.6-16.9c-2.3,5.9-4.5,11.6-4.2,19.8c0.5,12.6,11.9,23.2,32.4,16.6c52.9-17.1,63.9-13.3,71.7,5.4
			c5.2,12.4-4.7,28.1-37,33c-34.7,5.3-56.2,2.7-75.3-0.4c-10.3-1.6-26.2-6.1-34.7-12.2c-7-5-11.4-13-13.6-21.4
			c-2.2-8.3-2.5-17-2.8-25.6c-0.7-23.6-0.5-47.3-2.1-70.9c-1.2-18-0.3-44.3,10.2-49.6c30.1-11.7,78.1-7.4,114-3.5
			c12.7,1.4,25.9,3.9,35.9,11.8c10,7.9,15.3,34.3,9.3,45.5c-3.4,6.4-10,10.7-17,12.8C966.3,467.3,958.9,467.4,951.6,467.3z"/>
	</g>
</g>
</svg>
