<?xml version="1.0" encoding="utf-8"?>
<!-- Generator: Adobe Illustrator 26.1.0, SVG Export Plug-In . SVG Version: 6.00 Build 0)  -->
<svg version="1.1" id="Слой_1" xmlns="http://www.w3.org/2000/svg" xmlns:xlink="http://www.w3.org/1999/xlink" x="0px" y="0px"
	 viewBox="0 0 2000 2000" style="enable-background:new 0 0 2000 2000;" xml:space="preserve">
<style type="text/css">
	.st0{fill:#DDF3FF;}
	.st1{fill:#D1F3C1;}
	.st2{fill:#D7C1F2;}
	.st3{fill:#FBD2CA;}
	.st4{fill:#FAC8D9;}
	.st5{fill:#FFC65F;}
	.st6{fill:#533750;}
	.st7{fill:#E593E3;}
	.st8{fill:#918FD8;}
	.st9{fill:#7CD8D8;}
</style>
<g>
	<g>
		<rect class="st0" width="2000" height="2000"/>
		<path class="st1" d="M2000,0v882.3c-71.7,83.4-173,104.4-284.4,55.4c-177.7-78-130-437.8-315.8-437.8c-185.8,0-629,286.1-811.1,26
			C469.8,356.2,537.6,133.9,598.9,0H2000z"/>
		<path class="st2" d="M2000,1119.9V2000H802.6c-10.2-45.3-9-94.4,6.5-144.6c54.4-176.8,377.3-82.2,306.7-343.9
			c-62.9-233.5,145-322.3,241.1-322.3c135.3,0,261.7,94.7,420.4-56.9C1868.6,1045,1948.5,1077,2000,1119.9z"/>
		<path class="st3" d="M278.6,1191.6c-64.5,64.5-192.3,102-278.6,121V146.3c64-33.4,171.3-69.1,285.5-19.6
			C466.9,205.5,391.6,458.8,330,541c-61.6,82.2-140.4,219.1-54.8,297.9C360.8,917.7,381.3,1088.9,278.6,1191.6z"/>
		<path class="st4" d="M706.6,2000H0v-573.9c52.4-26.1,106.4-41.1,182.4-39.4c150.1,3.2,177.2,173.9,147.8,265.2
			c-29.3,91.3,62.5,163.5,140.8,162.2C583,1812.1,705.1,1874.3,706.6,2000z"/>
	</g>
	<g>
		<g>
			<polygon class="st5" points="633.2,544.2 633.2,488.7 517,488.7 517,748.1 636.5,738.8 632.3,674.8 583.5,679 583.5,625.1 
				626.4,623.4 627.3,584.7 581.8,581.3 585.2,539.2 			"/>
			<polygon class="st5" points="674.4,492 667.7,736.3 726.7,736.3 726.7,618.4 767.1,736.3 824.4,736.3 859.7,498.8 798.2,500.4 
				781.4,642.8 745.2,492 			"/>
			<path class="st5" d="M919.5,492c0,0,42.1,117.1,37.1,170.1c-6.7,49.7-53.9-18.5-53.9-18.5l-43,14.3c0,0,15.2,86.7,41.3,104.4
				c26.1,17.7,78.3,14.3,97.7-47.2c19.4-61.5-5.9-226.6-5.9-226.6L919.5,492z"/>
			<path class="st5" d="M1086.3,506.3c-16.2,11.1-96,96-44.6,191.2s142.3,59.8,176.9-44.6C1253,548.5,1201.7,427.2,1086.3,506.3z"/>
			<polygon class="st5" points="1237,503.8 1275.8,618.4 1208.4,736.3 1279.1,760.7 1439.2,520.7 1365.9,488.7 1323.8,556.9 
				1306.1,488.7 			"/>
		</g>
		<g>
			<g>
				<path class="st6" d="M531.8,765.7c-1,0-2-0.4-2.7-1.1c-0.8-0.8-1.3-1.8-1.3-2.9V502.3c0-2.2,1.8-4,4-4h116.2c2.2,0,4,1.8,4,4
					v55.6c0,1.1-0.5,2.2-1.3,3c-0.8,0.8-1.9,1.1-3.1,1l-43.9-4.6l-2.7,34l41.5,3.1c2.1,0.2,3.7,1.9,3.7,4.1l-0.8,38.7
					c0,2.1-1.7,3.8-3.8,3.9l-39.1,1.5v45.7l44.5-3.8c1.1-0.1,2.1,0.3,2.9,0.9c0.8,0.7,1.3,1.7,1.4,2.8l4.2,64
					c0.1,2.2-1.5,4.1-3.7,4.2l-119.6,9.3C532,765.7,531.9,765.7,531.8,765.7z M535.8,506.3v251.1l111.4-8.6l-3.7-56l-44.8,3.9
					c-1.1,0.1-2.2-0.3-3-1c-0.8-0.8-1.3-1.8-1.3-2.9v-53.9c0-2.1,1.7-3.9,3.8-4l39.2-1.5l0.7-31.2l-41.7-3.1c-1.1-0.1-2-0.6-2.7-1.4
					c-0.7-0.8-1-1.9-0.9-2.9l3.4-42.1c0.1-1.1,0.6-2.1,1.4-2.7c0.8-0.7,1.9-1,3-0.9l43.6,4.6v-47.2H535.8z"/>
				<path class="st6" d="M839.2,753.9H782c-1.7,0-3.2-1.1-3.8-2.7l-32.7-95.3v94c0,2.2-1.8,4-4,4h-59c-1.1,0-2.1-0.4-2.9-1.2
					c-0.8-0.8-1.2-1.8-1.1-2.9l6.7-244.2c0.1-2.2,1.8-3.9,4-3.9h70.7c1.8,0,3.4,1.3,3.9,3.1l31,129.1l14.2-120.2
					c0.2-2,1.9-3.5,3.9-3.5l61.5-1.7c1.2,0,2.3,0.5,3.1,1.3c0.8,0.9,1.1,2.1,1,3.2l-35.4,237.5C842.9,752.4,841.2,753.9,839.2,753.9
					z M784.8,745.9h51L870,516.5l-53.3,1.5l-16.4,138.9c-0.2,1.9-1.8,3.4-3.7,3.5c-1.9,0.1-3.7-1.2-4.1-3l-35.5-147.7h-63.7
					l-6.5,236.3h50.9V632c0-1.9,1.4-3.6,3.3-3.9c1.9-0.3,3.8,0.8,4.4,2.6L784.8,745.9z"/>
				<path class="st6" d="M947.6,789.3c-12.2,0-24.3-3.4-34-10c-27.2-18.4-42.3-103.4-43-107c-0.3-1.9,0.8-3.8,2.7-4.5l43-14.3
					c1.7-0.6,3.5,0.1,4.5,1.5c10.9,15.8,30.4,37,39.6,34.8c4.6-1.1,6.4-9.6,7.1-14.5c4.9-51.4-36.4-167.1-36.9-168.2
					c-0.4-1.2-0.3-2.5,0.4-3.6c0.7-1.1,1.9-1.7,3.1-1.8l73.3-3.4c2.1-0.1,3.8,1.4,4.1,3.4c1,6.8,25.2,166.7,5.8,228.4
					c-11.4,36.1-32.5,50.2-48.2,55.6C962.2,788.1,954.8,789.3,947.6,789.3z M879.1,674.3c4.9,25.9,19.6,85.3,39,98.4
					c13.4,9.1,32,11.2,48.4,5.4c14-4.9,32.9-17.6,43.3-50.5c17.3-55-2-196.9-5.5-221.2l-64.3,3c8.1,23.4,40,119.1,35.5,166.8
					c-1.7,12.5-6.1,19.7-13.2,21.4c-16.2,3.9-38.7-25.1-46.2-35.6L879.1,674.3z"/>
				<path class="st6" d="M1131.5,770.6c-30.6,0-58.3-20.2-78.5-57.6c-53-98.1,28.7-184.5,45.9-196.4l0,0
					c43.1-29.5,82.3-34.1,110.5-12.9c37.4,28.1,49.4,98.6,27.7,164c-19.7,59.6-57.8,98.9-99.5,102.6
					C1135.6,770.5,1133.5,770.6,1131.5,770.6z M1169,498.4c-19.4,0-41.5,8.3-65.6,24.9l0,0c-8.2,5.6-31.3,29.2-46.3,62.4
					c-13.3,29.4-23.5,74.7,2.9,123.6c19.9,36.9,47.3,55.8,77,53.1c37.8-3.3,74.2-41.5,92.6-97.1c20.6-62.3,9.9-129-25-155.1
					C1194.2,502.3,1182.3,498.4,1169,498.4z M1101.2,520L1101.2,520L1101.2,520z"/>
				<path class="st6" d="M1294,778.3c-0.4,0-0.9-0.1-1.3-0.2l-70.7-24.4c-1.1-0.4-2-1.3-2.4-2.4c-0.4-1.1-0.3-2.4,0.3-3.4
					l66.5-116.4l-38.2-112.8c-0.4-1.1-0.3-2.3,0.3-3.2c0.6-1,1.5-1.7,2.6-1.9l69.1-15.2c2.1-0.5,4.2,0.8,4.7,2.9l15.3,59.2
					l37.2-60.3c1-1.7,3.2-2.4,5-1.6l73.3,32c1.1,0.5,1.9,1.4,2.2,2.5s0.1,2.4-0.5,3.3l-160,240
					C1296.6,777.7,1295.3,778.3,1294,778.3z M1229.1,747.7l63.3,21.8L1448.1,536l-65.7-28.7l-40.3,65.3c-0.8,1.4-2.4,2.1-4,1.8
					c-1.6-0.2-2.9-1.4-3.3-2.9l-16.7-64.5l-61,13.4l37.3,110.3c0.4,1.1,0.3,2.3-0.3,3.3L1229.1,747.7z"/>
			</g>
		</g>
		<g>
			<polygon class="st7" points="697.6,902.2 697.6,846.6 581.4,846.6 581.4,1106 701,1096.7 696.8,1032.7 648,1036.9 648,983 
				690.9,981.3 691.7,942.6 646.3,939.2 649.6,897.1 			"/>
			<polygon class="st7" points="382.5,848.7 388.3,1108.9 449,1108.9 454,1055 497.8,1055 502,1108.9 555.9,1108.9 550.1,844.5 
				497,848.7 494.5,1002 457.4,1001.1 459.1,836.9 			"/>
			<polygon class="st7" points="187,852.9 187,906.8 232.4,900.9 235.8,1103.9 300.7,1103.9 309.1,906 371.4,901.8 362.1,848.7 			
				"/>
		</g>
		<g>
			<polygon class="st8" points="1731.9,902.2 1731.9,846.6 1615.7,846.6 1615.7,1106 1735.3,1096.7 1731.1,1032.7 1682.2,1036.9 
				1682.2,983 1725.2,981.3 1726,942.6 1680.6,939.2 1683.9,897.1 			"/>
			<polygon class="st8" points="809.4,845.3 813.7,1108.9 945,1103.9 945,1034.8 877.2,1043.2 890.3,845.3 			"/>
			<polygon class="st8" points="1460.7,845.3 1464.9,1108.9 1596.3,1103.9 1596.3,1034.8 1528.5,1043.2 1541.5,845.3 			"/>
			<polygon class="st8" points="972.8,848.7 972.8,1108.9 1032.6,1108.9 1041.1,855.4 			"/>
			<polygon class="st8" points="1063,852.9 1063,906.8 1108.4,900.9 1111.8,1103.9 1176.6,1103.9 1185.1,906 1247.4,901.8 
				1238.1,848.7 			"/>
			<polygon class="st8" points="1262,852.9 1262,906.8 1307.5,900.9 1310.9,1103.9 1375.7,1103.9 1384.2,906 1446.5,901.8 
				1437.2,848.7 			"/>
		</g>
		<g>
			<path class="st6" d="M594.1,1119.7c-1,0-2-0.4-2.7-1.1c-0.8-0.8-1.3-1.8-1.3-2.9V856.3c0-2.2,1.8-4,4-4h116.2c2.2,0,4,1.8,4,4
				v55.6c0,1.1-0.5,2.2-1.3,3c-0.8,0.8-2,1.1-3.1,1l-43.9-4.6l-2.7,34l41.5,3.1c2.1,0.2,3.7,1.9,3.7,4.1l-0.8,38.7
				c0,2.1-1.7,3.8-3.8,3.9l-39.1,1.5v45.7l44.5-3.8c1.1-0.1,2.1,0.2,2.9,0.9c0.8,0.7,1.3,1.7,1.4,2.8l4.2,64
				c0.1,2.2-1.5,4.1-3.7,4.2l-119.6,9.3C594.3,1119.7,594.2,1119.7,594.1,1119.7z M598.1,860.3v251.1l111.4-8.6l-3.7-56l-44.8,3.9
				c-1.1,0.1-2.2-0.3-3-1c-0.8-0.8-1.3-1.8-1.3-2.9v-53.9c0-2.1,1.7-3.9,3.8-4l39.2-1.5l0.7-31.2l-41.7-3.1c-1.1-0.1-2-0.6-2.7-1.4
				c-0.7-0.8-1-1.9-0.9-2.9l3.4-42.1c0.1-1.1,0.6-2.1,1.4-2.7c0.8-0.7,1.9-1,3-0.9l43.6,4.6v-47.2H598.1z"/>
			<path class="st6" d="M568.6,1122.6h-53.9c-2.1,0-3.8-1.6-4-3.7l-3.9-50.2h-36.5l-4.7,50.3c-0.2,2-1.9,3.6-4,3.6H401
				c-2.2,0-3.9-1.7-4-3.9l-5.9-260.2c0-2,1.4-3.7,3.4-4l76.6-11.8c1.2-0.2,2.3,0.2,3.2,0.9c0.9,0.8,1.4,1.9,1.4,3.1l-1.6,160.3
				l29.1,0.7l2.5-149.3c0-2.1,1.6-3.7,3.7-3.9l53.1-4.2c1.1-0.1,2.2,0.3,3,1c0.8,0.7,1.3,1.8,1.3,2.9l5.9,264.4
				c0,1.1-0.4,2.1-1.1,2.9C570.7,1122.2,569.7,1122.6,568.6,1122.6z M518.4,1114.6h46.1l-5.7-256.2l-45.2,3.6l-2.5,149.7
				c0,1.1-0.5,2.1-1.2,2.8c-0.8,0.7-1.8,1.1-2.9,1.1l-37.1-0.8c-2.2,0-3.9-1.8-3.9-4l1.6-159.5l-68.5,10.5l5.7,252.8H458l4.7-50.3
				c0.2-2,1.9-3.6,4-3.6h43.8c2.1,0,3.8,1.6,4,3.7L518.4,1114.6z"/>
			<path class="st6" d="M313.3,1117.6h-64.9c-2.2,0-4-1.7-4-3.9l-3.3-198.5l-41.1,5.3c-1.1,0.1-2.3-0.2-3.1-1
				c-0.9-0.8-1.4-1.8-1.4-3v-53.9c0-2.2,1.7-3.9,3.9-4l175.2-4.2c2,0,3.7,1.4,4,3.3l9.3,53.1c0.2,1.1-0.1,2.3-0.8,3.1
				c-0.7,0.9-1.7,1.4-2.9,1.5l-58.8,4l-8.3,194.3C317.2,1115.9,315.5,1117.6,313.3,1117.6z M252.4,1109.6h57.1l8.3-194.1
				c0.1-2,1.7-3.7,3.7-3.8l57.9-3.9l-7.9-45.3l-167.9,4V912l41-5.3c1.1-0.2,2.3,0.2,3.1,0.9c0.9,0.7,1.4,1.8,1.4,3L252.4,1109.6z"/>
		</g>
		<g>
			<path class="st6" d="M1628.4,1119.7c-1,0-2-0.4-2.7-1.1c-0.8-0.8-1.3-1.8-1.3-2.9V856.3c0-2.2,1.8-4,4-4h116.2c2.2,0,4,1.8,4,4
				v55.6c0,1.1-0.5,2.2-1.3,3c-0.8,0.8-1.9,1.1-3.1,1l-43.9-4.6l-2.7,34l41.5,3.1c2.1,0.2,3.7,1.9,3.7,4.1l-0.8,38.7
				c0,2.1-1.7,3.8-3.8,3.9l-39.1,1.5v45.7l44.5-3.8c1.1-0.1,2.1,0.2,2.9,0.9c0.8,0.7,1.3,1.7,1.4,2.8l4.2,64
				c0.1,2.2-1.5,4.1-3.7,4.2l-119.6,9.3C1628.6,1119.7,1628.5,1119.7,1628.4,1119.7z M1632.4,860.3v251.1l111.4-8.6l-3.7-56
				l-44.8,3.9c-1.1,0.1-2.2-0.3-3-1c-0.8-0.8-1.3-1.8-1.3-2.9v-53.9c0-2.1,1.7-3.9,3.8-4l39.2-1.5l0.7-31.2l-41.7-3.1
				c-1.1-0.1-2-0.6-2.7-1.4c-0.7-0.8-1-1.9-0.9-2.9l3.4-42.1c0.1-1.1,0.6-2.1,1.4-2.7c0.8-0.7,1.9-1,3-0.9l43.6,4.6v-47.2H1632.4z"
				/>
			<path class="st6" d="M826.3,1122.6c-1,0-2-0.4-2.7-1.1c-0.8-0.7-1.2-1.8-1.2-2.8l-4.2-263.6c0-1.1,0.4-2.1,1.1-2.9
				c0.7-0.8,1.8-1.2,2.8-1.2H903c1.1,0,2.2,0.5,2.9,1.3c0.8,0.8,1.1,1.9,1.1,3l-12.7,193.1l63-7.8c1.1-0.1,2.3,0.2,3.1,1
				c0.9,0.8,1.3,1.8,1.3,3v69.1c0,2.1-1.7,3.9-3.8,4l-131.4,5.1C826.4,1122.6,826.4,1122.6,826.3,1122.6z M826.2,859l4.1,255.5
				l123.5-4.7V1049l-63.3,7.9c-1.2,0.1-2.4-0.2-3.2-1.1c-0.9-0.8-1.3-2-1.2-3.2L898.7,859H826.2z"/>
			<path class="st6" d="M1477.5,1122.6c-1,0-2-0.4-2.7-1.1c-0.8-0.7-1.2-1.8-1.2-2.8l-4.2-263.6c0-1.1,0.4-2.1,1.1-2.9
				c0.7-0.8,1.8-1.2,2.8-1.2h80.9c1.1,0,2.2,0.5,2.9,1.3c0.8,0.8,1.1,1.9,1.1,3l-12.7,193.1l63-7.8c1.1-0.1,2.3,0.2,3.1,1
				c0.9,0.8,1.3,1.8,1.3,3v69.1c0,2.1-1.7,3.9-3.8,4l-131.4,5.1C1477.6,1122.6,1477.6,1122.6,1477.5,1122.6z M1477.4,859l4.1,255.5
				l123.5-4.7V1049l-63.3,7.9c-1.2,0.1-2.4-0.2-3.2-1.1c-0.9-0.8-1.3-2-1.2-3.2l12.8-193.7H1477.4z"/>
			<path class="st6" d="M1045.3,1122.6h-59.8c-2.2,0-4-1.8-4-4V858.4c0-1.1,0.5-2.2,1.3-3c0.8-0.8,1.9-1.1,3.1-1l68.2,6.7
				c2.1,0.2,3.7,2,3.6,4.1l-8.4,253.5C1049.2,1120.9,1047.4,1122.6,1045.3,1122.6z M989.5,1114.6h52l8.2-245.9l-60.1-5.9V1114.6z"/>
			<path class="st6" d="M1189.3,1117.6h-64.8c-2.2,0-4-1.7-4-3.9l-3.3-198.5l-41.1,5.3c-1.1,0.1-2.3-0.2-3.1-1
				c-0.9-0.8-1.4-1.8-1.4-3v-53.9c0-2.2,1.7-3.9,3.9-4l175.2-4.2c2,0,3.7,1.4,4,3.3l9.3,53.1c0.2,1.1-0.1,2.3-0.8,3.1
				c-0.7,0.9-1.7,1.4-2.9,1.5l-58.8,4l-8.3,194.3C1193.2,1115.9,1191.4,1117.6,1189.3,1117.6z M1128.4,1109.6h57.1l8.3-194.1
				c0.1-2,1.7-3.7,3.7-3.8l57.9-3.9l-7.9-45.3l-167.9,4V912l41-5.3c1.1-0.2,2.3,0.2,3.1,0.9c0.9,0.7,1.4,1.8,1.4,3L1128.4,1109.6z"
				/>
			<path class="st6" d="M1388.4,1117.6h-64.8c-2.2,0-4-1.7-4-3.9l-3.3-198.5l-41.1,5.3c-1.1,0.1-2.3-0.2-3.1-1
				c-0.9-0.8-1.4-1.8-1.4-3v-53.9c0-2.2,1.7-3.9,3.9-4l175.2-4.2c2,0,3.7,1.4,4,3.3l9.3,53.1c0.2,1.1-0.1,2.3-0.8,3.1
				c-0.7,0.9-1.7,1.4-2.9,1.5l-58.8,4l-8.3,194.3C1392.3,1115.9,1390.5,1117.6,1388.4,1117.6z M1327.5,1109.6h57.1l8.3-194.1
				c0.1-2,1.7-3.7,3.7-3.8l57.9-3.9l-7.9-45.3l-167.9,4V912l41-5.3c1.1-0.2,2.3,0.2,3.1,0.9c0.9,0.7,1.4,1.8,1.4,3L1327.5,1109.6z"
				/>
		</g>
		<g>
			<polygon class="st9" points="934.8,1214.2 928.1,1458.4 987,1458.4 987,1340.5 1027.4,1458.4 1084.7,1458.4 1120.1,1220.9 
				1058.6,1222.6 1041.8,1364.9 1005.5,1214.2 			"/>
			<polygon class="st9" points="631.7,1218 637.6,1478.2 698.3,1478.2 703.3,1424.3 747.1,1424.3 751.3,1478.2 805.2,1478.2 
				799.3,1213.8 746.3,1218 743.8,1371.2 706.7,1370.4 708.4,1206.2 			"/>
			<polygon class="st9" points="835.1,1206.2 835.1,1466.4 894.9,1466.4 903.3,1212.9 			"/>
			<polygon class="st9" points="432.5,1218.8 432.5,1272.7 477.9,1266.8 481.3,1469.8 546.2,1469.8 554.6,1271.9 616.9,1267.7 
				607.6,1214.6 			"/>
			<path class="st9" d="M1286.9,1206.2l-9.2,66.4c0,0-67.7,1-80,56.4c-12.3,55.4,48.8,90.3,64.4,86.2s13.6-39,13.6-39l-42.1,5.1
				l-3.1-39.2l82.1-5.9c0,0,22.6,106.8-12.3,122.1c-34.9,15.3-134.3,8.7-164.2-67.8C1106.2,1314.1,1146.3,1196.2,1286.9,1206.2z"/>
			<path class="st9" d="M1452.1,1311.6l49.3-18.5c0,0-40-127.7-117-87c-77,40.8-74.9,119.8-8.2,151.6c66.7,31.8,77,78,0,28.7
				c-48.2,52.3-48.2,52.3-48.2,52.3s86.2,84.9,145.7,27.6s4.5-104.3-39.3-131.1C1390.6,1308.5,1397.7,1256.2,1452.1,1311.6z"/>
		</g>
		<g>
			<g>
				<path class="st6" d="M1097.1,1474h-57.3c-1.7,0-3.2-1.1-3.8-2.7l-32.7-95.3v94c0,2.2-1.8,4-4,4h-59c-1.1,0-2.1-0.4-2.9-1.2
					c-0.8-0.8-1.2-1.8-1.1-2.9l6.7-244.2c0.1-2.2,1.8-3.9,4-3.9h70.7c1.8,0,3.4,1.3,3.9,3.1l31,129.1l14.2-120.2
					c0.2-2,1.9-3.5,3.9-3.5l61.5-1.7c1.2,0,2.3,0.5,3.1,1.3c0.8,0.9,1.1,2.1,1,3.2l-35.4,237.5
					C1100.8,1472.6,1099.1,1474,1097.1,1474z M1042.7,1466h51l34.2-229.4l-53.3,1.5l-16.4,138.9c-0.2,1.9-1.8,3.4-3.7,3.5
					c-1.9,0.1-3.7-1.2-4.1-3l-35.5-147.7h-63.7l-6.5,236.3h50.9v-113.9c0-1.9,1.4-3.6,3.3-3.9c1.9-0.3,3.8,0.8,4.4,2.6L1042.7,1466z
					"/>
				<path class="st6" d="M817.6,1493.8h-53.9c-2.1,0-3.8-1.6-4-3.7l-3.9-50.2h-36.5l-4.7,50.3c-0.2,2-1.9,3.6-4,3.6H650
					c-2.2,0-3.9-1.7-4-3.9l-5.9-260.2c0-2,1.4-3.7,3.4-4l76.6-11.8c1.2-0.2,2.3,0.2,3.2,0.9c0.9,0.8,1.4,1.9,1.4,3.1l-1.6,160.3
					l29.1,0.7l2.5-149.3c0-2.1,1.6-3.7,3.7-3.9l53.1-4.2c1.1-0.1,2.2,0.3,3,1c0.8,0.7,1.3,1.8,1.3,2.9l5.9,264.4
					c0,1.1-0.4,2.1-1.1,2.9C819.7,1493.4,818.7,1493.8,817.6,1493.8z M767.4,1485.8h46.1l-5.7-256.2l-45.2,3.6l-2.5,149.7
					c0,1.1-0.5,2.1-1.2,2.8c-0.8,0.7-1.8,1.1-2.9,1.1L719,1386c-2.2,0-3.9-1.8-3.9-4l1.6-159.5l-68.5,10.5l5.7,252.8H707l4.7-50.3
					c0.2-2,1.9-3.6,4-3.6h43.8c2.1,0,3.8,1.6,4,3.7L767.4,1485.8z"/>
				<path class="st6" d="M907.3,1482h-59.8c-2.2,0-4-1.8-4-4v-260.2c0-1.1,0.5-2.2,1.3-3c0.8-0.8,1.9-1.1,3.1-1l68.2,6.7
					c2.1,0.2,3.7,2,3.6,4.1l-8.4,253.5C911.2,1480.3,909.4,1482,907.3,1482z M851.5,1474h52l8.2-245.9l-60.1-5.9V1474z"/>
				<path class="st6" d="M558.5,1485.4h-64.9c-2.2,0-4-1.7-4-3.9l-3.3-198.5l-41.1,5.3c-1.1,0.1-2.3-0.2-3.1-1
					c-0.9-0.8-1.4-1.8-1.4-3v-53.9c0-2.2,1.7-3.9,3.9-4l175.2-4.2c2,0,3.7,1.4,4,3.3l9.3,53.1c0.2,1.1-0.1,2.3-0.8,3.1
					c-0.7,0.9-1.7,1.4-2.9,1.5l-58.8,4l-8.3,194.3C562.4,1483.7,560.7,1485.4,558.5,1485.4z M497.6,1477.4h57.1l8.3-194.1
					c0.1-2,1.7-3.7,3.7-3.8l57.9-3.9l-7.9-45.3l-167.9,4v45.5l41-5.3c1.1-0.1,2.3,0.2,3.1,0.9c0.9,0.7,1.4,1.8,1.4,3L497.6,1477.4z"
					/>
				<path class="st6" d="M1272.9,1480.7c-19.4,0-41.6-3.6-62.4-12.2c-31.6-13.1-54.4-35.5-65.8-64.8c-17.5-44.8-10.8-98.1,17-135.8
					c20.4-27.7,60.8-59.5,137.8-54c1.1,0.1,2.1,0.6,2.8,1.5c0.7,0.9,1,2,0.9,3.1l-9.2,66.4c-0.3,1.9-1.9,3.4-3.9,3.4
					c-2.6,0-64.7,1.7-76.2,53.3c-6.7,30,10.1,51.6,20.7,61.8c15.1,14.6,32.8,21.3,38.8,19.7c8.7-2.3,10.6-20.4,10.7-30.6l-37.7,4.6
					c-1.1,0.1-2.2-0.2-3-0.9c-0.8-0.7-1.4-1.7-1.5-2.8l-3.1-39.2c-0.1-1.1,0.3-2.1,1-2.9c0.7-0.8,1.7-1.3,2.7-1.4l82.1-5.9
					c2-0.1,3.8,1.2,4.2,3.2c2.4,11.3,22.2,110.4-14.6,126.6C1304.3,1478,1289.7,1480.7,1272.9,1480.7z M1282.6,1221.2
					c-62.7,0-96.7,27.4-114.4,51.4c-26.2,35.6-32.5,85.9-16,128.2c13.4,34.4,40.8,51.8,61.4,60.4c35.2,14.6,77.2,14.1,97.4,5.2
					c25.2-11.1,16.8-83.2,10.7-114.2l-74.6,5.4l2.4,31l37.9-4.6c1.1-0.1,2.2,0.2,3,0.9c0.8,0.7,1.4,1.7,1.4,2.8
					c0.2,3.9,1.7,38.3-16.6,43.1c-10.3,2.7-31.1-7-46.4-21.7c-11.8-11.3-30.4-35.4-22.9-69.2c11.2-50.4,66.1-58.2,80.4-59.4
					l8.2-58.9C1290.6,1221.3,1286.5,1221.2,1282.6,1221.2z"/>
				<path class="st6" d="M1438.1,1501.7c-50.6,0-99.9-47.8-100.5-48.5c-1.5-1.5-1.6-4-0.1-5.5l48.2-52.3c1.3-1.4,3.5-1.7,5.1-0.7
					c34.1,21.8,46.4,21.8,47.9,20.6c1.3-3.8-14.2-24.4-51.7-42.3c-32-15.2-51.4-42.4-52-72.6c-0.7-33.6,21.8-65.8,60.1-86.1
					c18.4-9.7,36.3-11.1,53.3-4.1c45.5,18.7,68.4,90.4,69.3,93.4c0.6,2-0.4,4.2-2.4,4.9l-49.3,18.5c-1.5,0.6-3.1,0.2-4.2-0.9
					c-19.3-19.7-31.9-24.7-36.8-23c-0.5,0.2-2.2,0.8-2.6,4.1c-0.8,7.9,6.8,24.4,26.6,36.4c41.6,25.4,64.1,51.7,67,78
					c2.2,20-6.9,40-27,59.3C1473.1,1496.1,1455.5,1501.7,1438.1,1501.7z M1346,1450.2c15.1,13.6,87.1,73.3,137.3,24.9
					c18.2-17.5,26.5-35.3,24.6-52.7c-2.6-23.7-23.9-48-63.2-72.1c-21.6-13.2-31.6-32.2-30.3-44.1c0.6-5.3,3.4-9.2,7.9-10.7
					c9.6-3.3,25,4.8,43.3,23.1l43.2-16.2c-5.2-14.6-27-69.9-63.5-84.8c-14.7-6-30.4-4.8-46.6,3.8c-35.6,18.9-56.5,48.4-55.9,78.9
					c0.6,27.2,18.3,51.7,47.5,65.6c31.6,15.1,55.7,36.1,56.2,48.9c0.1,3.3-1.3,6-4,7.5c-9.8,5.6-33.8-6.8-53.2-19L1346,1450.2z"/>
			</g>
		</g>
		
			<ellipse transform="matrix(0.163 -0.9866 0.9866 0.163 355.3313 1597.197)" class="st6" cx="1119" cy="589.2" rx="27.8" ry="18.3"/>
		
			<ellipse transform="matrix(0.163 -0.9866 0.9866 0.163 399.6557 1671.1718)" class="st6" cx="1184.8" cy="600" rx="27.8" ry="18.3"/>
		<path class="st6" d="M1133.5,720.2c-3.8,0-7.8-0.5-12-1.6c-51.1-13.7-39.4-88.8-38.9-92c0.4-2.2,2.4-3.6,4.6-3.3
			c2.2,0.4,3.6,2.4,3.3,4.6c-0.1,0.7-11.1,71.2,33.1,83c43.9,11.8,66.2-60.7,66.4-61.4c0.6-2.1,2.9-3.3,5-2.7c2.1,0.6,3.3,2.9,2.7,5
			C1196.7,654.8,1176.6,720.2,1133.5,720.2z"/>
		<path class="st0" d="M1528,1515.3c0,0-23.8-69.5,34.9-99.6c58.7-30.1,121,46.9,43.1,108.5c68.8,2.3,107.2,31.4,87.3,84.6
			c-19.9,53.2-72.6,27.3-95.6-2.9c13.9,63.8,12.8,109.3-32.8,111.9s-49.7-90.3-49.7-90.3s-60.2,86.9-104.8,34.3s23.8-91,62.5-90.2
			c-49.1-17.6-74.8-71.9-51.2-107.9C1445.3,1427.7,1507.6,1440,1528,1515.3z"/>
		<circle class="st5" cx="1541.6" cy="1563.4" r="38.7"/>
		<path class="st6" d="M1573.3,1730.1c-8.3,0-15.8-3-22.3-8.9c-20.3-18.3-26.1-60-27.6-76.8c-10.4,13.4-38.2,45-67.9,46.5
			c-13.8,0.7-26.2-5.3-36.8-17.8c-19.3-22.7-16.8-41.5-11.2-53.2c10.4-22,39.4-37.3,64.4-40.7c-22.5-11.1-39.9-30.3-47.5-53
			c-6.6-19.6-4.7-39,5.5-54.4c10.1-15.5,27.4-23,46.2-20c18.2,2.9,40.3,16.7,55,46.4c-1.1-23.7,4.8-56.8,40.9-75.3
			c31.1-15.9,61.1-2.9,74.8,18.3c13.5,21,15,56.8-23.4,90.3c39.5,2.4,67.2,13.9,80.2,33.3c9.8,14.7,10.7,33.1,2.7,54.6
			c-8.8,23.6-23.4,30.4-34.1,32c-20.4,3-43.7-10-59.3-26.3c9,45.7,7.5,73.5-4.7,89.6c-7.1,9.4-18.1,14.6-32.7,15.4
			C1574.6,1730,1573.9,1730.1,1573.3,1730.1z M1525.4,1634.4c0.2,0,0.5,0,0.7,0.1c1.1,0.3,1.9,1.3,1.9,2.4c0,0.6,2.9,59.1,26.4,80.3
			c6,5.4,12.9,7.9,20.5,7.5c13.1-0.8,22.5-5.1,28.8-13.3c11.9-15.7,12.4-46,1.6-95.3c-0.3-1.2,0.4-2.5,1.5-3
			c1.1-0.5,2.5-0.2,3.2,0.8c14,18.4,39.5,35.4,61.1,32.2c13.5-2,23.6-11.6,29.9-28.6c7.4-19.8,6.7-36.6-2.1-49.8
			c-12.6-18.8-42-29.9-82.8-31.2c-1.1,0-2.1-0.8-2.4-1.8c-0.3-1.1,0-2.2,0.9-2.9c41.1-32.5,40.5-67.5,27.6-87.6
			c-12.3-19.1-39.6-30.9-67.9-16.4c-47.5,24.4-39.3,74.9-35.1,91.2c0.5,1.7,1.1,3.5,1.5,5.3c0.4,1.4-0.4,2.8-1.8,3.2
			c-1.4,0.4-2.8-0.3-3.3-1.7c0-0.1-0.5-1.6-1.2-4.1c-12.7-42.5-38.8-61.2-59.3-64.5c-16.7-2.7-32,3.9-40.9,17.6
			c-9.2,14.1-10.9,31.8-4.9,49.8c8.1,24.2,29.1,44.9,54.7,54.1c1.2,0.4,2,1.7,1.7,3c-0.2,1.3-1.4,2.1-2.7,2.2
			c-24.8-0.6-59.9,15.1-70.9,38.4c-7.1,15-3.6,31,10.4,47.5c9.5,11.1,20.4,16.5,32.5,15.9c34.3-1.7,67.8-49.5,68.1-50
			C1523.8,1634.8,1524.6,1634.4,1525.4,1634.4z"/>
		<path class="st6" d="M1549.7,1614.3c-22.8,0-41.4-18.6-41.4-41.4c0-22.8,18.6-41.4,41.4-41.4s41.4,18.6,41.4,41.4
			C1591,1595.8,1572.5,1614.3,1549.7,1614.3z M1549.7,1536.9c-19.9,0-36.1,16.2-36.1,36.1s16.2,36.1,36.1,36.1s36.1-16.2,36.1-36.1
			S1569.5,1536.9,1549.7,1536.9z"/>
	</g>
</g>
</svg>
