<?xml version="1.0" encoding="utf-8"?>
<!-- Generator: Adobe Illustrator 26.1.0, SVG Export Plug-In . SVG Version: 6.00 Build 0)  -->
<svg version="1.1" id="Слой_1" xmlns="http://www.w3.org/2000/svg" xmlns:xlink="http://www.w3.org/1999/xlink" x="0px" y="0px"
	 viewBox="0 0 2000 2000" style="enable-background:new 0 0 2000 2000;" xml:space="preserve">
<style type="text/css">
	.st0{fill:#F9CDCA;}
	.st1{fill:#796973;}
	.st2{fill:#C05CE5;}
	.st3{fill:#9887EF;}
	.st4{fill:#66C1C6;}
	.st5{fill:#533750;}
	.st6{fill:#FFFFFF;}
	.st7{fill:#FFB0A1;}
	.st8{fill:#F49194;}
	.st9{fill:#DDEE86;}
	.st10{fill:#84C8BD;}
	.st11{fill:#F677A2;}
	.st12{fill:#AED666;}
	.st13{fill:#E05188;}
	.st14{fill:#FCFFFD;}
	.st15{fill:#F5918F;}
	.st16{fill:#BBEDEE;}
	.st17{fill:none;stroke:#533750;stroke-width:7.5663;stroke-linecap:round;stroke-linejoin:round;stroke-miterlimit:10;}
</style>
<g>
	<rect class="st0" width="2000" height="2000"/>
	<g>
		<g>
			<g>
				<path class="st1" d="M959.8,316c0,32.8-11.1,58.5-33.3,77.3c-22.9,19.5-55.1,29.3-96.8,29.3c-26.8,0-47.4-1.2-62-3.7l-4-101.1
					c-1.3-26-3.6-61.7-7-107.4c21.5-2.8,43.9-4.2,67.3-4.2c41.7,0,74.4,8.9,97.9,26.7C947.2,251.9,959.8,279.6,959.8,316z
					 M898.9,332.7c0-13.3-4.7-23.2-14.1-29.5c-5.9-3.9,17.6-9-30-7.2l-2.1,85.3c12.7-0.7,23-4.5,31.1-11.3
					C893.8,361.6,898.9,349.1,898.9,332.7z"/>
				<path class="st1" d="M1200.9,309.9c0,32-9,59.1-27.1,81.3c-18.9,23.1-43.2,34.7-72.7,34.7c-30.4,0-55-11.7-73.9-35
					c-17.7-22-26.6-49-26.6-81c0-34.2,9.7-61.1,29-80.6c18.2-18.3,42.1-27.5,71.5-27.5c28.9,0,52.5,9.2,70.8,27.6
					C1191.2,249,1200.9,275.8,1200.9,309.9z M1129.4,333.8c0-25.2-9.3-37.8-27.9-37.8c-18.1,0-27.2,12.7-27.2,38.1
					c0,10.2,2.4,19.6,7.1,28.4c5.4,9.9,11.9,14.8,19.8,14.8c7.6,0,14.4-5,20.2-15.1C1126.7,353.1,1129.4,343.6,1129.4,333.8z"/>
				<path class="st1" d="M781,545.2c-8.7,22.4-22.3,59.2-40.7,110.4c-8,23.8-18.7,56.7-32,98.7h-53.4c-5-19.1-13.9-51.6-26.8-97.6
					c-8.1,23.7-19.1,56.2-32.8,97.6h-52.6c-6.3-20.8-17.2-54.7-32.6-101.8c-9-25.9-22.3-61.6-40-107.3h101.4
					c2.1,8.9,5.7,23.3,11,43.1l15.8,54.4c2.9-7.5,7.1-20.6,12.8-39.3c-4.7-15.9-10.6-35.3-17.8-58.3h92.2c1.6,8.7,4.2,22.8,7.9,42.3
					c2.7,13,6.3,31.4,11,55.3l15.3-55.5c2.8-10.5,6-24.5,9.7-42.1H781z"/>
				<path class="st1" d="M1043.6,545.2c-1.7,22.3-3.9,58.7-6.7,109c-0.8,24-2.2,57.3-4.2,100h-75.8l-1.6-45.7
					c-1.8,0.5-5.4,1.9-10.9,3.9c-6.4,2.5-11,4.6-13.7,6.1l-7.7-16.7c-1.6-3.6-4.2-8.8-7.9-15.4l-1.5,67.8H830l-4.3-100
					c-0.9-26-3.1-62.4-6.7-109h104.3l-7,128.8c7.2,0.6,14.2,0.8,20.8,0.5c4.3-0.1,10-0.5,17.2-1.1l-7.6-128.2H1043.6z"/>
				<path class="st1" d="M1268,754.2h-81.3l-5.5-18.1c-2.3,0.8-8,3.6-17.1,8.3c-5.8,3.4-12.3,8-19.5,13.7l-8.5-16.5
					c-1.7-3.3-4.1-7.8-7.3-13.7l-8,26.3h-43.1c6.3-22.4,16.1-59.4,29.4-110.9c8.1-34.5,14.9-67.2,20.4-98.1h89.3
					c2.8,14.2,10.4,47.4,22.7,99.5C1246.4,671.9,1255.9,708.4,1268,754.2z M1174.2,709.6c-1.7-4.8-4.7-12.6-8.9-23.4
					c-2.6-6-6.5-14.2-11.7-24.8c-2.3,5.3-5.8,13.9-10.7,25.9c-2.7,6.9-5.8,16.3-9.5,28.2c3,0,9.7-0.5,20.2-1.6
					C1159.9,713,1166.8,711.6,1174.2,709.6z"/>
				<path class="st1" d="M1485.4,545.2l-4.3,85.6c-3.9-0.5-10.1-1.2-18.6-2c-5.3-0.3-13.8-0.5-25.6-0.8c-0.6,5.4-1.6,18.3-3.1,38.8
					c-1.1,19.9-2.9,49-5.4,87.5h-71.9c-0.8-18.3-2.3-47.1-4.5-86.4c-1-13.6-2-26.9-3.1-39.9l-23.5,0.8l-21.3,2l-3.7-85.6H1485.4z"/>
				<path class="st1" d="M671.8,880.5c-1.4,19.1-3.4,53.8-6.1,104.3c-1.4,31-2.4,66-3.1,104.8h-53.8l-1.5-64.1l-52.5,69.1
					l-56.6-68.6l-1.5,63.6h-53.5c-0.7-20.8-2-55.9-4-105.4c-1.4-28.5-3.9-63.1-7.6-103.7h85.2c3,6.6,8.1,17.3,15.3,32.1
					c5.5,10.5,13.1,23,22.7,37.3c4.3-6.2,12.1-18.9,23.5-38.2c4.1-7.2,9.3-17.6,15.6-31.2H671.8z"/>
				<path class="st1" d="M896.2,1089.6h-81.3l-5.5-18.1c-2.3,0.8-8,3.6-17.1,8.3c-5.8,3.4-12.3,8-19.5,13.7l-8.5-16.5
					c-1.7-3.3-4.1-7.8-7.3-13.7l-8,26.3H706c6.3-22.4,16.1-59.4,29.4-110.9c8.1-34.5,14.9-67.2,20.4-98.1h89.3
					c2.8,14.2,10.4,47.4,22.7,99.5C874.7,1007.3,884.1,1043.8,896.2,1089.6z M802.4,1045c-1.7-4.8-4.7-12.6-8.9-23.4
					c-2.6-6-6.5-14.2-11.7-24.8c-2.3,5.3-5.8,13.9-10.7,25.9c-2.7,6.9-5.8,16.3-9.5,28.2c3,0,9.7-0.5,20.2-1.6
					C788.1,1048.4,795,1046.9,802.4,1045z"/>
				<path class="st1" d="M1148.3,891.4c-5.5,9.3-16.6,28.8-33.4,58.5c-9.2,16.4-21.9,38.3-38,65.7c1.4,2,9.4,10.4,24.1,25.2
					c8.6,8.4,20.9,19.2,36.7,32.3c-6.6,2.6-17.5,6.9-32.6,12.8c-8.4,3.4-20.3,8.5-35.5,15.1c-3.8-4.2-11.5-13.9-23.2-29.3
					c-6.5-9.1-12.8-18.7-18.9-29h-0.6l-1.5,46.8h-82.2l-4-108.8c-1.1-23.8-3.4-57.2-7-100.3h103.4l-5.8,91.7h1
					c4.2-10.7,10.9-28.4,20.1-52.9c3.8-10.7,8.6-25.4,14.6-44.1l42.1,8.4C1121.2,886.4,1134.8,889,1148.3,891.4z"/>
				<path class="st1" d="M1341,880.5l-6.4,86.2c-3.7-0.5-11.6-1.5-23.8-2.9c-8.3-0.7-17.4-1.2-27.3-1.4l-2.2,26
					c10.9,0.3,28.7,0,53.4-0.7c-1.1,3.4-2.8,9.6-5.2,18.8c-1.4,5.5-2.6,11.9-3.7,19.2c-2.9-0.6-10.1-1.4-21.6-2.4
					c-5.4-0.3-13.3-0.4-23.8-0.3l-1.5,30.4c7.4-0.1,21.1-0.7,41-1.8c3.8-0.3,10-1.4,18.6-3.3c-0.8,2.8-2.6,9.6-5.5,20.3
					c-1.4,5.5-3.1,12.5-5.1,21h-133l-4.3-106.7c-0.8-24.4-2.7-58.5-5.8-102.4H1341z"/>
				<path class="st1" d="M1525.8,966.1c-7.3-1.5-12.9-2.3-16.6-2.3c-4.7,0-8.9,1.5-12.8,4.4c-4.7,3.5-7,8.1-7,13.7
					c0,4.4,4.3,12.7,12.8,25.2c8.5,12.4,12.8,23.9,12.8,34.3c0,15.2-6.3,27.6-18.9,37.3c-12,9.3-26.8,14-44.4,14
					c-16.3,0-28.2-1-36-3.1c-0.9-4.2-2.4-11-4.6-20.4c-1.4-5.1-3.3-11.8-5.8-20.3c10.9,2.5,18.2,3.7,22,3.7
					c14.8,0,22.1-5.1,22.1-15.4c0-7.4-3-14.1-8.9-20c-9.7-7.8-19.4-15.7-29.1-23.5c-18.8-15.2-28.2-33.3-28.2-54.3
					c0-21.9,8.9-38.4,26.8-49.7c15.6-9.8,36.3-14.7,62.1-14.7c14.7,0,31.1,2,49.3,5.9L1525.8,966.1z"/>
				<path class="st1" d="M840.9,1215.9l-27.9,47.4c-7.5,13-17.7,31.1-30.5,54.4c-1.2,12.7-2.7,30.7-4.6,54
					c-0.6,12.4-1.6,30.2-3,53.2h-76.1c-0.4-11.3-1.3-29.3-2.7-54c-0.8-9.3-2.6-27.1-5.5-53.2c-5.2-9.7-13.8-25.5-25.9-47.2
					c-7.8-13.2-19.2-31.4-34.2-54.6h109.7c1.8,5.9,4.9,15.2,9.4,27.9l14.3,36.7c3.8-8.3,8.9-20.7,15.3-37c2.2-6.4,5-15.7,8.5-27.6
					H840.9z"/>
				<path class="st1" d="M1078.6,1315.9c0,32-9,59.1-27.1,81.3c-18.9,23.1-43.2,34.7-72.7,34.7c-30.4,0-55-11.7-73.9-35
					c-17.7-22-26.6-49-26.6-81c0-34.2,9.7-61.1,29-80.6c18.2-18.3,42.1-27.5,71.5-27.5c28.9,0,52.5,9.2,70.8,27.6
					C1069,1255.1,1078.6,1281.9,1078.6,1315.9z M1007.2,1339.9c0-25.2-9.3-37.8-27.9-37.8c-18.1,0-27.2,12.7-27.2,38.1
					c0,10.2,2.4,19.6,7.1,28.4c5.4,9.9,11.9,14.8,19.8,14.8c7.6,0,14.4-5,20.2-15.1C1004.5,1359.2,1007.2,1349.7,1007.2,1339.9z"/>
				<path class="st1" d="M1321.6,1215.9l-3.4,88.1c-1,25.1-1.5,63.2-1.5,114.1c-25.4,8.3-51.2,12.5-77.6,12.5
					c-32.5,0-57.2-5.9-74.2-17.8c-14.4-10.1-24.5-25.8-30.5-47.1c-3.5-12.3-6.7-34.7-9.8-67.2c-3-30.1-4.8-57.6-5.5-82.5h95.9
					c-0.5,12-1.1,31.5-1.8,58.5c-0.3,15.1-0.2,36.4,0.3,64.1c0.1,21.1,2.1,35.3,5.9,42.6c4.1,7.8,12.2,11.7,24.4,11.7
					c3.5,0,7.3-0.9,11.6-2.7c0-18.7-0.6-48.4-1.8-89.2c-1-20.4-2.8-48.8-5.5-85.1H1321.6z"/>
				<path class="st1" d="M672.5,1551.3c-1.7,22.3-3.9,58.7-6.7,109c-0.8,24-2.2,57.3-4.2,100h-75.8l-1.6-45.7
					c-1.8,0.5-5.4,1.9-10.9,3.9c-6.4,2.5-11,4.6-13.7,6.1l-7.7-16.7c-1.6-3.6-4.2-8.8-7.9-15.4l-1.5,67.8H459l-4.3-100
					c-0.9-26-3.1-62.4-6.7-109h104.3l-7,128.8c7.2,0.6,14.2,0.8,20.8,0.5c4.3-0.1,10-0.5,17.2-1.1l-7.6-128.2H672.5z"/>
				<path class="st1" d="M897,1760.3h-81.3l-5.5-18.1c-2.3,0.8-8,3.6-17.1,8.3c-5.8,3.4-12.3,8-19.5,13.7l-8.5-16.5
					c-1.7-3.3-4.1-7.8-7.3-13.7l-8,26.3h-43.1c6.3-22.4,16.1-59.4,29.4-110.9c8.1-34.5,14.9-67.2,20.4-98.1h89.3
					c2.8,14.2,10.4,47.4,22.7,99.5C875.4,1678,884.9,1714.5,897,1760.3z M782.5,1719.9c6.3-0.8,13.2-2.2,20.7-4.2
					c-1.7-4.8-4.7-12.6-8.9-23.4c-2.6-6-6.5-14.2-11.7-24.8c-2.3,5.3-5.8,13.9-10.7,25.9"/>
				<path class="st1" d="M1125.5,1633.7c0,25.8-9,46.4-27,61.9c-18,15.5-41.8,23.2-71.6,23.2l-1.8,41.5h-81.9l-4.3-101.4
					c-1.3-26.1-3.3-62-6.1-107.7c15.5-2.8,38.1-4.2,67.9-4.2c36.4,0,65.5,6.7,87.4,20C1113.1,1582.2,1125.5,1604.4,1125.5,1633.7z
					 M1063.8,1656.6c0-14.2-9.2-21.2-27.5-21.2c-2.2,0-4.4,0.1-6.7,0.4l-1.5,47.6C1051.9,1682.7,1063.8,1673.8,1063.8,1656.6z"/>
				<path class="st1" d="M1358.4,1633.7c0,25.8-9,46.4-27,61.9c-18,15.5-41.8,23.2-71.6,23.2l-1.8,41.5h-81.9l-4.3-101.4
					c-1.3-26.1-3.3-62-6.1-107.7c15.5-2.8,38.1-4.2,67.9-4.2c36.4,0,65.5,6.7,87.4,20C1346,1582.2,1358.4,1604.4,1358.4,1633.7z
					 M1296.7,1656.6c0-14.2-9.2-21.2-27.5-21.2c-2.2,0-4.4,0.1-6.7,0.4l-1.5,47.6C1284.8,1682.7,1296.7,1673.8,1296.7,1656.6z"/>
				<path class="st1" d="M1604.4,1551.3l-27.9,47.4c-7.5,13-17.7,31.1-30.5,54.4c-1.2,12.7-2.7,30.7-4.6,54
					c-0.6,12.4-1.6,30.2-3,53.2h-76.1c-0.4-11.3-1.3-29.3-2.7-54c-0.8-9.3-2.6-27.1-5.5-53.2c-5.2-9.7-13.8-25.5-25.9-47.2
					c-7.8-13.2-19.2-31.4-34.2-54.6h109.7c1.8,5.9,4.9,15.2,9.4,27.9l14.3,36.7c3.8-8.3,8.9-20.7,15.3-37c2.2-6.4,5-15.7,8.5-27.6
					H1604.4z"/>
			</g>
		</g>
		<g>
			<g>
				<path class="st2" d="M975,302.5c0,32.8-11.1,58.5-33.3,77.3c-22.9,19.5-55.1,29.3-96.8,29.3c-26.8,0-47.4-1.2-62-3.7l-4-101.1
					c-1.3-26-3.6-61.7-7-107.4c21.5-2.8,43.9-4.2,67.3-4.2c41.7,0,74.4,8.9,97.9,26.7C962.4,238.4,975,266.1,975,302.5z
					 M914.1,319.2c0-13.3-4.7-23.2-14.1-29.5c-5.9-3.9,17.6-9-30-7.2l-2.1,85.3c12.7-0.7,23-4.5,31.1-11.3
					C909,348.1,914.1,335.7,914.1,319.2z"/>
				<path class="st2" d="M1216.1,296.4c0,32-9,59.1-27.1,81.3c-18.9,23.1-43.2,34.7-72.7,34.7c-30.4,0-55-11.7-73.9-35
					c-17.7-22-26.6-49-26.6-81c0-34.2,9.7-61.1,29-80.6c18.2-18.3,42.1-27.5,71.5-27.5c28.9,0,52.5,9.2,70.8,27.6
					C1206.4,235.5,1216.1,262.3,1216.1,296.4z M1144.6,320.3c0-25.2-9.3-37.8-27.9-37.8c-18.1,0-27.2,12.7-27.2,38.1
					c0,10.2,2.4,19.6,7.1,28.4c5.4,9.9,11.9,14.8,19.8,14.8c7.6,0,14.4-5,20.2-15.1C1141.9,339.6,1144.6,330.1,1144.6,320.3z"/>
				<path class="st2" d="M796.2,531.7c-8.7,22.4-22.3,59.2-40.7,110.4c-8,23.8-18.7,56.7-32,98.7h-53.4c-5-19.1-13.9-51.6-26.8-97.6
					c-8.1,23.7-19.1,56.2-32.8,97.6h-52.6c-6.3-20.8-17.2-54.7-32.6-101.8c-9-25.9-22.3-61.6-40-107.3h101.4
					c2.1,8.9,5.7,23.3,11,43.1l15.8,54.4c2.9-7.5,7.1-20.6,12.8-39.3c-4.7-15.9-10.6-35.3-17.8-58.3h92.2c1.6,8.7,4.2,22.8,7.9,42.3
					c2.7,13,6.3,31.4,11,55.3l15.3-55.5c2.8-10.5,6-24.5,9.7-42.1H796.2z"/>
				<path class="st2" d="M1058.8,531.7c-1.7,22.3-3.9,58.7-6.7,109c-0.8,24-2.2,57.3-4.2,100h-75.8l-1.6-45.7
					c-1.8,0.5-5.4,1.9-10.9,3.9c-6.4,2.5-11,4.6-13.7,6.1l-7.7-16.7c-1.6-3.6-4.2-8.8-7.9-15.4l-1.5,67.8h-83.7l-4.3-100
					c-0.9-26-3.1-62.4-6.7-109h104.3l-7,128.8c7.2,0.6,14.2,0.8,20.8,0.5c4.3-0.1,10-0.5,17.2-1.1L962,531.7H1058.8z"/>
				<path class="st2" d="M1283.2,740.8h-81.3l-5.5-18.1c-2.3,0.8-8,3.6-17.1,8.3c-5.8,3.4-12.3,8-19.5,13.7l-8.5-16.5
					c-1.7-3.3-4.1-7.8-7.3-13.7l-8,26.3h-43.1c6.3-22.4,16.1-59.4,29.4-110.9c8.1-34.5,14.9-67.2,20.4-98.1h89.3
					c2.8,14.2,10.4,47.4,22.7,99.5C1261.6,658.4,1271.1,694.9,1283.2,740.8z M1189.4,696.1c-1.7-4.8-4.7-12.6-8.9-23.4
					c-2.6-6-6.5-14.2-11.7-24.8c-2.3,5.3-5.8,13.9-10.7,25.9c-2.7,6.9-5.8,16.3-9.5,28.2c3,0,9.7-0.5,20.2-1.6
					C1175.1,699.5,1182,698.1,1189.4,696.1z"/>
				<path class="st2" d="M1500.6,531.7l-4.3,85.6c-3.9-0.5-10.1-1.2-18.6-2c-5.3-0.3-13.8-0.5-25.6-0.8c-0.6,5.4-1.6,18.3-3.1,38.8
					c-1.1,19.9-2.9,49-5.4,87.5h-71.9c-0.8-18.3-2.3-47.1-4.5-86.4c-1-13.6-2-26.9-3.1-39.9l-23.5,0.8l-21.3,2l-3.7-85.6H1500.6z"/>
				<g>
					<g>
						<path class="st3" d="M687,867c-1.4,19.1-3.4,53.8-6.1,104.3c-1.4,31-2.4,66-3.1,104.8H624l-1.5-64.1l-52.5,69.1l-56.6-68.6
							l-1.5,63.6h-53.5c-0.7-20.8-2-55.9-4-105.4c-1.4-28.5-3.9-63.1-7.6-103.7H532c3,6.6,8.1,17.3,15.3,32.1
							c5.5,10.5,13.1,23,22.7,37.3c4.3-6.2,12.1-18.9,23.5-38.2c4.1-7.2,9.3-17.6,15.6-31.2H687z"/>
					</g>
				</g>
				<g>
					<g>
						<path class="st3" d="M911.4,1076.1h-81.3l-5.5-18.1c-2.3,0.8-8,3.6-17.1,8.3c-5.8,3.4-12.3,8-19.5,13.7l-8.5-16.5
							c-1.7-3.3-4.1-7.8-7.3-13.7l-8,26.3h-43.1c6.3-22.4,16.1-59.4,29.4-110.9c8.1-34.5,14.9-67.2,20.4-98.1h89.3
							c2.8,14.2,10.4,47.4,22.7,99.5C889.9,993.8,899.3,1030.3,911.4,1076.1z M817.6,1031.5c-1.7-4.8-4.7-12.6-8.9-23.4
							c-2.6-6-6.5-14.2-11.7-24.8c-2.3,5.3-5.8,13.9-10.7,25.9c-2.7,6.9-5.8,16.3-9.5,28.2c3,0,9.7-0.5,20.2-1.6
							C803.3,1034.9,810.2,1033.5,817.6,1031.5z"/>
					</g>
				</g>
				<g>
					<g>
						<path class="st3" d="M1163.5,877.9c-5.5,9.3-16.6,28.8-33.4,58.5c-9.2,16.4-21.9,38.3-38,65.7c1.4,2,9.4,10.4,24.1,25.2
							c8.6,8.4,20.9,19.2,36.7,32.3c-6.6,2.6-17.5,6.9-32.6,12.8c-8.4,3.4-20.3,8.5-35.5,15.1c-3.8-4.2-11.5-13.9-23.2-29.3
							c-6.5-9.1-12.8-18.7-18.9-29h-0.6l-1.5,46.8h-82.2l-4-108.8c-1.1-23.8-3.4-57.2-7-100.3h103.4l-5.8,91.7h1
							c4.2-10.7,10.9-28.4,20.1-52.9c3.8-10.7,8.6-25.4,14.6-44.1l42.1,8.4C1136.4,872.9,1150,875.5,1163.5,877.9z"/>
					</g>
				</g>
				<g>
					<g>
						<path class="st3" d="M1356.2,867l-6.4,86.2c-3.7-0.5-11.6-1.5-23.8-2.9c-8.3-0.7-17.4-1.2-27.3-1.4l-2.2,26
							c10.9,0.3,28.7,0,53.4-0.7c-1.1,3.4-2.8,9.6-5.2,18.8c-1.4,5.5-2.6,11.9-3.7,19.2c-2.9-0.6-10.1-1.4-21.6-2.4
							c-5.4-0.3-13.3-0.4-23.8-0.3l-1.5,30.4c7.4-0.1,21.1-0.7,41-1.8c3.8-0.3,10-1.4,18.6-3.3c-0.8,2.8-2.6,9.6-5.5,20.3
							c-1.4,5.5-3.1,12.5-5.1,21h-133l-4.3-106.7c-0.8-24.4-2.7-58.5-5.8-102.4H1356.2z"/>
					</g>
				</g>
				<g>
					<g>
						<path class="st3" d="M1541,952.7c-7.3-1.5-12.9-2.3-16.6-2.3c-4.7,0-8.9,1.5-12.8,4.4c-4.7,3.5-7,8.1-7,13.7
							c0,4.4,4.3,12.7,12.8,25.2c8.5,12.4,12.8,23.9,12.8,34.3c0,15.2-6.3,27.6-18.9,37.3c-12,9.3-26.8,14-44.4,14
							c-16.3,0-28.2-1-36-3.1c-0.9-4.2-2.4-11-4.6-20.4c-1.4-5.1-3.3-11.8-5.8-20.3c10.9,2.5,18.2,3.7,22,3.7
							c14.8,0,22.1-5.1,22.1-15.4c0-7.4-3-14.1-8.9-20c-9.7-7.8-19.4-15.7-29.1-23.5c-18.8-15.2-28.2-33.3-28.2-54.3
							c0-21.9,8.9-38.4,26.8-49.7c15.6-9.8,36.3-14.7,62.1-14.7c14.7,0,31.1,2,49.3,5.9L1541,952.7z"/>
					</g>
				</g>
				<g>
					<g>
						<path class="st3" d="M856.1,1202.4l-27.9,47.4c-7.5,13-17.7,31.1-30.5,54.4c-1.2,12.7-2.7,30.7-4.6,54
							c-0.6,12.4-1.6,30.2-3,53.2H714c-0.4-11.3-1.3-29.3-2.7-54c-0.8-9.3-2.6-27.1-5.5-53.2c-5.2-9.7-13.8-25.5-25.9-47.2
							c-7.8-13.2-19.2-31.4-34.2-54.6h109.7c1.8,5.9,4.9,15.2,9.4,27.9l14.3,36.7c3.8-8.3,8.9-20.7,15.3-37c2.2-6.4,5-15.7,8.5-27.6
							H856.1z"/>
					</g>
				</g>
				<g>
					<g>
						<path class="st3" d="M1093.8,1302.4c0,32-9,59.1-27.1,81.3c-18.9,23.1-43.2,34.7-72.7,34.7c-30.4,0-55-11.7-73.9-35
							c-17.7-22-26.6-49-26.6-81c0-34.2,9.7-61.1,29-80.6c18.2-18.3,42.1-27.5,71.5-27.5c28.9,0,52.5,9.2,70.8,27.6
							C1084.2,1241.6,1093.8,1268.4,1093.8,1302.4z M1022.4,1326.4c0-25.2-9.3-37.8-27.9-37.8c-18.1,0-27.2,12.7-27.2,38.1
							c0,10.2,2.4,19.6,7.1,28.4c5.4,9.9,11.9,14.8,19.8,14.8c7.6,0,14.4-5,20.2-15.1C1019.7,1345.7,1022.4,1336.2,1022.4,1326.4z"
							/>
					</g>
				</g>
				<g>
					<g>
						<path class="st3" d="M1336.8,1202.4l-3.4,88.1c-1,25.1-1.5,63.2-1.5,114.1c-25.4,8.3-51.2,12.5-77.6,12.5
							c-32.5,0-57.2-5.9-74.2-17.8c-14.4-10.1-24.5-25.8-30.5-47.1c-3.5-12.3-6.7-34.7-9.8-67.2c-3-30.1-4.8-57.6-5.5-82.5h95.9
							c-0.5,12-1.1,31.5-1.8,58.5c-0.3,15.1-0.2,36.4,0.3,64.1c0.1,21.1,2.1,35.3,5.9,42.6c4.1,7.8,12.2,11.7,24.4,11.7
							c3.5,0,7.3-0.9,11.6-2.7c0-18.7-0.6-48.4-1.8-89.2c-1-20.4-2.8-48.8-5.5-85.1H1336.8z"/>
					</g>
				</g>
				<g>
					<g>
						<path class="st4" d="M687.7,1537.8c-1.7,22.3-3.9,58.7-6.7,109c-0.8,24-2.2,57.3-4.2,100h-75.8l-1.6-45.7
							c-1.8,0.5-5.4,1.9-10.9,3.9c-6.4,2.5-11,4.6-13.7,6.1l-7.7-16.7c-1.6-3.6-4.2-8.8-7.9-15.4l-1.5,67.8h-83.7l-4.3-100
							c-0.9-26-3.1-62.4-6.7-109h104.3l-7,128.8c7.2,0.6,14.2,0.8,20.8,0.5c4.3-0.1,10-0.5,17.2-1.1l-7.6-128.2H687.7z"/>
					</g>
				</g>
				<g>
					<g>
						<path class="st4" d="M912.2,1746.8h-81.3l-5.5-18.1c-2.3,0.8-8,3.6-17.1,8.3c-5.8,3.4-12.3,8-19.5,13.7l-8.5-16.5
							c-1.7-3.3-4.1-7.8-7.3-13.7l-8,26.3h-43.1c6.3-22.4,16.1-59.4,29.4-110.9c8.1-34.5,14.9-67.2,20.4-98.1H861
							c2.8,14.2,10.4,47.4,22.7,99.5C890.6,1664.5,900.1,1701,912.2,1746.8z M797.7,1706.4c6.3-0.8,13.2-2.2,20.7-4.2
							c-1.7-4.8-4.7-12.6-8.9-23.4c-2.6-6-6.5-14.2-11.7-24.8c-2.3,5.3-5.8,13.9-10.7,25.9"/>
					</g>
				</g>
				<g>
					<g>
						<path class="st4" d="M1140.7,1620.3c0,25.8-9,46.4-27,61.9c-18,15.5-41.8,23.2-71.6,23.2l-1.8,41.5h-81.9l-4.3-101.4
							c-1.3-26.1-3.3-62-6.1-107.7c15.5-2.8,38.1-4.2,67.9-4.2c36.4,0,65.5,6.7,87.4,20C1128.3,1568.7,1140.7,1590.9,1140.7,1620.3z
							 M1079,1643.1c0-14.2-9.2-21.2-27.5-21.2c-2.2,0-4.4,0.1-6.7,0.4l-1.5,47.6C1067.2,1669.2,1079,1660.3,1079,1643.1z"/>
					</g>
				</g>
				<g>
					<g>
						<path class="st4" d="M1373.6,1620.3c0,25.8-9,46.4-27,61.9c-18,15.5-41.8,23.2-71.6,23.2l-1.8,41.5h-81.9l-4.3-101.4
							c-1.3-26.1-3.3-62-6.1-107.7c15.5-2.8,38.1-4.2,67.9-4.2c36.4,0,65.5,6.7,87.4,20C1361.2,1568.7,1373.6,1590.9,1373.6,1620.3z
							 M1311.9,1643.1c0-14.2-9.2-21.2-27.5-21.2c-2.2,0-4.4,0.1-6.7,0.4l-1.5,47.6C1300,1669.2,1311.9,1660.3,1311.9,1643.1z"/>
					</g>
				</g>
				<g>
					<g>
						<path class="st4" d="M1619.6,1537.8l-27.9,47.4c-7.5,13-17.7,31.1-30.5,54.4c-1.2,12.7-2.7,30.7-4.6,54
							c-0.6,12.4-1.6,30.2-3,53.2h-76.1c-0.4-11.3-1.3-29.3-2.7-54c-0.8-9.3-2.6-27.1-5.5-53.2c-5.2-9.7-13.8-25.5-25.9-47.2
							c-7.8-13.2-19.2-31.4-34.2-54.6h109.7c1.8,5.9,4.9,15.2,9.4,27.9l14.3,36.7c3.8-8.3,8.9-20.7,15.3-37c2.2-6.4,5-15.7,8.5-27.6
							H1619.6z"/>
					</g>
				</g>
			</g>
		</g>
		<g>
			<g>
				<path class="st5" d="M845,413.1c-26.9,0-47.9-1.3-62.6-3.7c-1.9-0.3-3.2-1.9-3.3-3.8l-4-101.1c-1.3-25.8-3.6-61.9-7-107.3
					c-0.2-2.1,1.4-4,3.5-4.2c21.6-2.8,44.4-4.3,67.8-4.3c42.4,0,76.2,9.2,100.4,27.5c26.1,19.8,39.3,48.8,39.3,86.3
					c0,33.8-11.7,60.9-34.7,80.4C920.8,402.9,887.4,413.1,845,413.1z M786.8,402c14.1,2.1,33.6,3.1,58.1,3.1
					c40.4,0,72.1-9.5,94.2-28.3c21.2-17.9,31.9-42.9,31.9-74.3c0-34.9-12.2-61.8-36.2-80c-22.8-17.2-54.9-25.9-95.5-25.9
					c-21.7,0-42.9,1.2-63.1,3.7c3.2,43.7,5.5,78.6,6.7,103.7L786.8,402z M867.9,371.8c-1,0-2-0.4-2.8-1.1c-0.8-0.8-1.2-1.8-1.2-3
					l2.1-85.3c0.1-2.1,1.7-3.8,3.8-3.9c28.8-1.1,32.5,0.2,34.3,3.5c1.2,2.2,0.4,4.2-0.4,5.5c9.5,7.1,14.3,17.8,14.3,31.8
					c0,17.6-5.6,31.2-16.6,40.4c-8.6,7.3-19.9,11.4-33.4,12.2C868,371.8,867.9,371.8,867.9,371.8z M873.8,286.3l-1.9,77.1
					c9.8-1.2,18-4.5,24.4-10c9.3-7.7,13.8-18.9,13.8-34.3c0-12-4-20.6-12.4-26.2c-1.9-1.2-2.5-2.8-2.7-3.8c-0.2-1-0.1-2,0.2-2.8
					C892.1,286.1,885.9,286,873.8,286.3z"/>
				<path class="st5" d="M1116.4,416.3c-31.5,0-57.4-12.3-77-36.5c-18.2-22.6-27.5-50.7-27.5-83.5c0-35.1,10.1-63.2,30.1-83.4
					c18.9-19,43.9-28.7,74.3-28.7c29.9,0,54.7,9.7,73.6,28.8c20,20.3,30.1,48.3,30.1,83.2c0,32.8-9.4,61-27.9,83.8
					C1172.5,404.2,1147,416.3,1116.4,416.3z M1116.4,192.3c-28.2,0-51.3,8.9-68.7,26.3c-18.5,18.6-27.8,44.8-27.8,77.8
					c0,30.9,8.7,57.4,25.7,78.5c17.9,22.2,41.8,33.5,70.8,33.5c28.1,0,51.6-11.2,69.6-33.2c17.4-21.3,26.2-47.8,26.2-78.7
					c0-32.8-9.4-58.9-27.8-77.6C1166.9,201.2,1144,192.3,1116.4,192.3z M1116.4,367.9c-9.4,0-17.2-5.7-23.3-16.9
					c-5.1-9.3-7.6-19.6-7.6-30.3c0-34.8,17-42.1,31.2-42.1c14.6,0,31.9,7.3,31.9,41.8c0,10.5-2.9,20.7-8.6,30.5
					C1133.4,362.1,1125.5,367.9,1116.4,367.9z M1116.6,286.5c-10,0-23.2,3.5-23.2,34.1c0,9.4,2.2,18.4,6.7,26.6
					c4.6,8.6,10,12.7,16.3,12.7c6.2,0,11.6-4.3,16.8-13.1c5-8.5,7.5-17.4,7.5-26.4C1140.6,290,1126.9,286.5,1116.6,286.5z"/>
				<path class="st5" d="M723.5,744.7h-53.4c-1.8,0-3.4-1.2-3.9-3c-4.5-17.2-12.3-45.8-23.3-85.1c-7.6,22.2-17.2,50.9-28.7,85.4
					c-0.5,1.6-2.1,2.7-3.8,2.7h-52.6c-1.8,0-3.3-1.1-3.8-2.8c-6.3-20.7-17.3-55-32.5-101.7c-8.9-25.6-22.4-61.6-39.9-107.1
					c-0.5-1.2-0.3-2.6,0.4-3.7c0.7-1.1,2-1.7,3.3-1.7h101.4c1.9,0,3.5,1.3,3.9,3.1c2.1,8.9,5.8,23.3,11,43l12.3,42.4
					c2.3-6.9,5.1-15.7,8.3-26.3c-4.6-15.6-10.5-34.7-17.5-57c-0.4-1.2-0.2-2.5,0.6-3.6c0.8-1,1.9-1.6,3.2-1.6h92.2
					c1.9,0,3.6,1.4,3.9,3.3c1.6,8.7,4.2,22.8,7.9,42.3c2,9.7,4.6,22.6,7.7,38.6l10.8-39.2c2.7-10.4,6-24.5,9.6-41.8
					c0.4-1.8,2-3.2,3.9-3.2h51.7c1.3,0,2.5,0.7,3.3,1.7c0.7,1.1,0.9,2.5,0.4,3.7c-8.7,22.2-22.3,59.4-40.7,110.3
					c-7.9,23.5-18.7,56.7-31.9,98.5C726.8,743.6,725.2,744.7,723.5,744.7z M673.2,736.8h47.4c12.8-40.5,23.3-72.8,31.1-96
					c17-47.1,30-82.4,38.7-105.1h-42.7c-3.4,16-6.4,29.2-9,39.1l-15.3,55.6c-0.5,1.8-2.2,3-4,2.9c-1.8-0.1-3.4-1.4-3.8-3.2
					c-4.6-23.8-8.3-42.4-11-55.2c-3.3-17.3-5.7-30.3-7.3-39.1h-83.4c6.5,20.7,11.9,38.5,16.2,53.1c0.2,0.7,0.2,1.5,0,2.3
					c-5.6,18.7-10,32-12.9,39.6c-0.6,1.6-2.2,2.6-3.9,2.6c-1.7-0.1-3.2-1.2-3.7-2.9l-15.8-54.4c-4.7-17.7-8.1-31.2-10.3-40.3h-92.4
					c16.6,43,29.3,77.2,37.9,102c14.6,44.8,25.3,78.1,31.7,99.1h46.8c13.3-39.9,24-71.9,32-94.9c0.6-1.7,2.2-2.7,3.9-2.7
					c1.7,0.1,3.3,1.2,3.7,2.9C659.4,685.6,668.1,717.4,673.2,736.8z"/>
				<path class="st5" d="M1047.9,744.7h-75.8c-2.1,0-3.9-1.7-4-3.8l-1.4-40.3c-1.6,0.6-3.5,1.3-5.6,2.1c-6.2,2.4-10.6,4.4-13.1,5.9
					c-1,0.6-2.1,0.7-3.2,0.3c-1.1-0.3-1.9-1.1-2.4-2.1l-7.7-16.7c-0.2-0.4-0.4-0.9-0.6-1.4l-1.1,52.2c0,2.2-1.8,3.9-4,3.9h-83.7
					c-2.1,0-3.9-1.7-4-3.8l-4.3-100c-0.9-25.9-3.1-62.5-6.7-108.9c-0.1-1.1,0.3-2.2,1.1-3c0.8-0.8,1.8-1.3,2.9-1.3h104.3
					c1.1,0,2.1,0.5,2.9,1.2c0.8,0.8,1.1,1.9,1.1,3l-6.8,124.9c5.7,0.4,11.2,0.5,16.5,0.2c3.4-0.1,7.8-0.3,13.2-0.8L958,531.9
					c-0.1-1.1,0.3-2.2,1.1-3c0.8-0.8,1.8-1.3,2.9-1.3h96.8c1.1,0,2.2,0.5,2.9,1.3c0.8,0.8,1.1,1.9,1.1,3
					c-1.7,22.2-3.9,58.9-6.7,108.9c-0.8,23.8-2.2,57.5-4.2,100C1051.8,743.1,1050.1,744.7,1047.9,744.7z M976,736.8h68.1
					c1.9-40.7,3.2-73,4-96.2c2.6-47.1,4.7-82.3,6.4-104.9h-88.2l7.3,124c0.1,2.2-1.5,4-3.6,4.2c-7.3,0.6-13.2,1-17.5,1.1
					c-6.7,0.3-13.9,0.1-21.2-0.6c-2.1-0.2-3.7-2-3.6-4.2l6.8-124.6h-95.8c3.4,44.5,5.5,79.7,6.4,104.9l4.1,96.2h76l1.4-63.9
					c0-1.8,1.3-3.4,3-3.8c1.8-0.4,3.6,0.4,4.4,1.9c3.8,6.8,6.4,11.9,8,15.7l6,12.9c2.7-1.3,6.1-2.7,10.3-4.4c5.6-2.2,9.3-3.5,11.1-4
					c1.2-0.4,2.5-0.2,3.5,0.6c1,0.7,1.6,1.9,1.7,3.1L976,736.8z"/>
				<path class="st5" d="M1159.8,748.7c-0.3,0-0.6,0-0.8-0.1c-1.2-0.2-2.2-1-2.7-2.1l-8.5-16.5c-0.8-1.5-1.7-3.2-2.7-5.2l-5.2,17.1
					c-0.5,1.7-2.1,2.8-3.8,2.8h-43.1c-1.2,0-2.4-0.6-3.2-1.6c-0.8-1-1-2.3-0.7-3.5c6.3-22.1,16.2-59.4,29.4-110.8
					c8-34.2,14.9-67.1,20.3-97.8c0.3-1.9,2-3.3,3.9-3.3h89.3c1.9,0,3.5,1.4,3.9,3.2c2.8,14.1,10.4,47.6,22.7,99.3
					c6.9,27.3,16.4,64.2,28.4,109.5c0.3,1.2,0.1,2.5-0.7,3.5c-0.8,1-1.9,1.6-3.2,1.6h-81.3c-1.8,0-3.3-1.1-3.8-2.8l-4.2-13.8
					c-2.6,1.2-6.6,3.2-12.7,6.4c-5.5,3.2-11.9,7.8-18.8,13.3C1161.6,748.4,1160.7,748.7,1159.8,748.7z M1144.1,710.5
					c1.5,0,2.8,0.8,3.5,2.1c3.2,5.9,5.6,10.5,7.3,13.8l6.3,12.2c5.8-4.4,11.2-8.2,16.1-11.1c12.7-6.6,16.2-8.1,17.8-8.6
					c1-0.4,2.2-0.3,3.1,0.2c1,0.5,1.7,1.4,2,2.4l4.6,15.3h73.2c-11.3-43-20.4-78.2-27.1-104.6c-11.5-48.3-18.9-80.7-22.1-96.5h-82.7
					c-5.3,29.9-12,61.9-19.8,95.1c-12.3,47.8-21.7,83.4-28,106h34.9l7.2-23.4c0.5-1.5,1.8-2.6,3.4-2.8
					C1143.8,710.5,1143.9,710.5,1144.1,710.5z M1148.5,705.9c-1.3,0-2.5-0.6-3.2-1.6c-0.8-1-1-2.3-0.6-3.5
					c3.7-11.9,6.9-21.5,9.6-28.4c4.8-11.9,8.4-20.6,10.8-26c0.6-1.4,2-2.4,3.6-2.4c1.5-0.1,3,0.8,3.7,2.2c5.3,10.5,9.2,18.9,11.8,25
					c4.3,10.9,7.3,18.8,9,23.7c0.4,1,0.3,2.2-0.2,3.2c-0.5,1-1.4,1.7-2.5,2c-7.5,2-14.7,3.5-21.2,4.3
					C1158.4,705.4,1151.7,705.9,1148.5,705.9z M1169,657.5c-2,4.8-4.4,10.7-7.3,17.8c-2.2,5.7-4.8,13.2-7.7,22.4
					c3.5-0.3,8.3-0.7,14.3-1.3c4.9-0.6,10.2-1.6,15.8-3c-1.7-4.7-4.2-11.1-7.4-19.2C1174.9,669.9,1172.3,664.3,1169,657.5z"/>
				<path class="st5" d="M1443.7,744.7h-71.9c-2.1,0-3.9-1.7-4-3.8c-0.8-18.4-2.3-47.4-4.5-86.4c-0.9-12.3-1.8-24.4-2.8-36
					l-19.7,0.7l-21,2c-1.1,0.1-2.2-0.2-3-1c-0.8-0.7-1.3-1.7-1.4-2.8l-3.7-85.6c0-1.1,0.4-2.1,1.1-2.9c0.8-0.8,1.8-1.2,2.9-1.2
					h184.9c1.1,0,2.1,0.4,2.9,1.2s1.1,1.9,1.1,2.9l-4.3,85.6c-0.1,1.1-0.6,2.2-1.4,2.9c-0.9,0.7-2,1-3.1,0.9c-3.8-0.5-10-1.2-18.4-2
					c-4.5-0.2-11.8-0.5-21.6-0.7c-0.6,6.6-1.5,18.4-2.7,35c-1.1,19.8-2.9,49.3-5.4,87.5C1447.5,743.1,1445.8,744.7,1443.7,744.7z
					 M1375.6,736.8h64.4c2.3-36.4,4.1-64.5,5.1-83.7c1.5-20.5,2.5-33.6,3.1-39c0.2-2,1.9-3.5,4-3.5c0,0,0.1,0,0.1,0
					c11.8,0.3,20.4,0.5,25.7,0.8c6,0.6,10.9,1.1,14.6,1.5l3.9-77.1h-176.5l3.4,77.3l17.1-1.6l23.7-0.8c2.1-0.1,3.9,1.5,4.1,3.7
					c1.1,12.8,2.1,26.2,3.1,39.9C1373.3,690.5,1374.7,718.3,1375.6,736.8z"/>
				<path class="st5" d="M570,1085.1c-1.2,0-2.3-0.5-3.1-1.4l-49.8-60.4l-1.2,52.9c-0.1,2.2-1.8,3.9-4,3.9h-53.5
					c-2.2,0-3.9-1.7-4-3.9c-0.7-20.6-2-56-4-105.3c-1.4-28.3-3.9-63.1-7.6-103.5c-0.1-1.1,0.3-2.2,1-3c0.8-0.8,1.8-1.3,2.9-1.3H532
					c1.6,0,3,0.9,3.6,2.4c3,6.6,8.1,17.4,15.3,32c4.8,9,11.2,19.7,19.2,31.8c4.5-7,11.2-18.1,20.1-33.1c4-7,9.2-17.4,15.4-30.8
					c0.7-1.4,2.1-2.3,3.6-2.3H687c1.1,0,2.2,0.5,2.9,1.3c0.8,0.8,1.1,1.9,1.1,3c-1.4,18.9-3.4,53.9-6.1,104.2
					c-1.4,30.8-2.4,66.1-3.1,104.7c0,2.2-1.8,3.9-4,3.9H624c-2.2,0-3.9-1.7-4-3.9l-1.2-52.7l-45.6,60.1
					C572.5,1084.5,571.3,1085.1,570,1085.1C570.1,1085.1,570.1,1085.1,570,1085.1z M513.4,1008.6c1.2,0,2.3,0.5,3.1,1.4l53.4,64.7
					l49.4-65.1c1-1.3,2.8-1.9,4.4-1.4c1.6,0.5,2.7,2,2.8,3.7l1.4,60.2h46c0.7-37.1,1.7-71.1,3.1-101c2.5-46.8,4.4-80.4,5.8-100.1
					h-71.1c-5.9,12.5-10.8,22.3-14.7,29.1c-11.4,19.4-19.4,32.3-23.7,38.5c-0.7,1.1-2,1.7-3.3,1.7c-1.3,0-2.5-0.7-3.3-1.8
					c-9.6-14.4-17.4-27.1-23-37.7c-6.5-13.2-11.3-23.2-14.4-30h-78.2c3.4,38.7,5.9,72.1,7.2,99.5c1.9,46.4,3.2,80.5,3.9,101.6H508
					l1.4-59.7c0-1.7,1.1-3.1,2.7-3.7C512.5,1008.6,513,1008.6,513.4,1008.6z"/>
				<path class="st5" d="M788.1,1084c-0.3,0-0.6,0-0.8-0.1c-1.2-0.2-2.2-1-2.7-2.1l-8.5-16.5c-0.8-1.5-1.7-3.2-2.7-5.2l-5.2,17.1
					c-0.5,1.7-2.1,2.8-3.8,2.8h-43.1c-1.2,0-2.4-0.6-3.2-1.6c-0.8-1-1-2.3-0.7-3.5c6.3-22.2,16.2-59.5,29.4-110.8
					c8.1-34.2,14.9-67.1,20.3-97.8c0.3-1.9,2-3.3,3.9-3.3h89.3c1.9,0,3.5,1.4,3.9,3.2c2.8,14.1,10.4,47.6,22.7,99.3
					c6.8,27.2,16.4,64.1,28.4,109.5c0.3,1.2,0.1,2.5-0.7,3.4c-0.8,1-1.9,1.6-3.2,1.6h-81.3c-1.8,0-3.3-1.1-3.8-2.8l-4.2-13.8
					c-2.6,1.2-6.6,3.2-12.7,6.4c-5.5,3.2-11.9,7.7-18.8,13.3C789.8,1083.7,789,1084,788.1,1084z M772.3,1045.9
					c1.5,0,2.8,0.8,3.5,2.1c3.2,5.9,5.6,10.5,7.3,13.8l6.3,12.2c5.8-4.5,11.2-8.2,16.1-11.1c12.7-6.6,16.2-8.1,17.8-8.6
					c1-0.4,2.2-0.3,3.1,0.2c1,0.5,1.7,1.4,2,2.4l4.6,15.3h73.2c-11.4-43.1-20.5-78.3-27.1-104.6c-11.5-48.3-18.9-80.7-22.1-96.5
					h-82.7c-5.3,29.9-12,61.9-19.8,95.1c-12.3,47.7-21.7,83.3-28,106h34.9l7.2-23.4c0.5-1.5,1.8-2.6,3.4-2.8
					C772,1045.9,772.2,1045.9,772.3,1045.9z M776.8,1041.3c-1.3,0-2.5-0.6-3.2-1.6c-0.8-1-1-2.3-0.6-3.5c3.7-11.9,6.9-21.5,9.6-28.4
					c4.8-11.9,8.5-20.7,10.8-26c0.6-1.4,2-2.4,3.6-2.4c1.6-0.1,3,0.8,3.7,2.2c5.3,10.6,9.2,19,11.8,25c4.3,10.9,7.3,18.8,9,23.7
					c0.4,1,0.3,2.2-0.2,3.2c-0.5,1-1.4,1.7-2.5,2c-7.5,2-14.7,3.5-21.2,4.3C786.6,1040.8,779.9,1041.3,776.8,1041.3z M797.3,992.9
					c-2,4.8-4.4,10.7-7.3,17.8c-2.2,5.7-4.8,13.2-7.7,22.4c3.5-0.3,8.3-0.7,14.3-1.3c4.9-0.6,10.2-1.6,15.8-3
					c-1.7-4.7-4.2-11.1-7.4-19.2C803.2,1005.3,800.6,999.7,797.3,992.9z"/>
				<path class="st5" d="M1084.7,1091.5c-1.1,0-2.2-0.5-3-1.3c-3.9-4.3-11.5-14-23.4-29.5c-4.4-6-8.6-12.3-12.7-18.8l-1.1,34.4
					c-0.1,2.2-1.8,3.9-4,3.9h-82.2c-2.1,0-3.9-1.7-4-3.8l-4-108.8c-1.1-23.6-3.4-57.4-7-100.1c-0.1-1.1,0.3-2.2,1-3s1.8-1.3,2.9-1.3
					h103.4c1.1,0,2.2,0.5,2.9,1.3c0.8,0.8,1.1,1.9,1.1,3l-4.4,68.9c3.4-8.9,7.4-19.5,12-31.7c3.7-10.6,8.6-25.4,14.5-43.9
					c0.6-1.9,2.6-3.1,4.6-2.7l42.1,8.4c13.5,2.7,27.2,5.3,40.7,7.7c1.3,0.2,2.4,1.1,2.9,2.3c0.5,1.2,0.5,2.6-0.2,3.7
					c-5.4,9.2-16.4,28.4-33.4,58.5c-8.9,15.8-21.2,37.1-36.7,63.4c2.5,2.8,8.4,9,22,22.8c8.5,8.3,20.7,19.1,36.4,32
					c1.1,0.9,1.6,2.3,1.4,3.7c-0.2,1.4-1.2,2.6-2.5,3.1c-6.6,2.6-17.5,6.9-32.6,12.8c-8.3,3.4-20.3,8.5-35.4,15.1
					C1085.8,1091.4,1085.2,1091.5,1084.7,1091.5z M1042,1025.3h0.6c1.4,0,2.7,0.7,3.4,2c5.9,10.1,12.2,19.7,18.7,28.7
					c9.8,12.9,16.9,21.9,21,26.8c13.9-6,25-10.7,32.9-14c11.1-4.3,19.8-7.8,26.3-10.3c-13.4-11.2-24.1-20.7-31.8-28.2
					c-19.8-19.9-23.5-24.2-24.6-25.8c-0.9-1.3-1-3-0.2-4.3c16.1-27.3,28.9-49.4,38-65.7c14.5-25.6,24.5-43.2,30.6-53.7
					c-11.7-2.2-23.5-4.4-35.2-6.7l-38.6-7.7c-5.4,17-10,30.7-13.5,40.8c-9.2,24.5-15.9,42.4-20.1,53.1c-0.6,1.5-2.1,2.5-3.7,2.5h-1
					c-1.1,0-2.2-0.5-2.9-1.3c-0.8-0.8-1.1-1.9-1.1-3l5.5-87.5h-94.9c3.3,40.8,5.6,73.2,6.6,96.1l3.9,104.9h74.5l1.4-43
					C1038.1,1027,1039.9,1025.3,1042,1025.3z"/>
				<path class="st5" d="M1343.2,1080.1h-133c-2.1,0-3.9-1.7-4-3.8l-4.3-106.7c-0.8-24.2-2.7-58.6-5.8-102.2c-0.1-1.1,0.3-2.2,1.1-3
					c0.8-0.8,1.8-1.3,2.9-1.3h156.2c1.1,0,2.2,0.5,2.9,1.3c0.8,0.8,1.1,1.9,1.1,3l-6.4,86.2c-0.1,1.1-0.6,2.1-1.5,2.8
					c-0.9,0.7-2,1-3.1,0.8c-3.6-0.5-11.6-1.5-23.6-2.8c-7-0.6-14.9-1-23.3-1.3l-1.5,18c11,0.1,27.4-0.1,48.9-0.8
					c1.3-0.1,2.5,0.6,3.3,1.6c0.8,1,1,2.4,0.6,3.6c-1.1,3.2-2.8,9.5-5.1,18.5c-1.3,5.3-2.6,11.7-3.6,18.8c-0.2,1.1-0.8,2.1-1.7,2.7
					c-0.9,0.6-2,0.8-3.1,0.6c-1.8-0.4-7-1.1-21-2.4c-4.5-0.2-11.1-0.3-19.6-0.3l-1.1,22.3c7.9-0.2,20.1-0.8,36.6-1.7
					c3.5-0.3,9.5-1.3,17.9-3.2c1.4-0.3,2.8,0.1,3.8,1.2c1,1,1.3,2.5,0.9,3.8c-0.8,2.8-2.6,9.6-5.5,20.2c-1.4,5.5-3.1,12.4-5,20.8
					C1346.6,1078.8,1345,1080.1,1343.2,1080.1z M1214,1072.1h126c1.7-7.1,3.1-13.1,4.3-17.9c1.6-5.9,2.8-10.5,3.8-14.1
					c-5.6,1.1-9.8,1.8-12.7,2c-20.3,1.1-33.8,1.7-41.3,1.8c-1.1,0-2.2-0.4-2.9-1.2c-0.8-0.8-1.2-1.9-1.1-3l1.5-30.4
					c0.1-2.1,1.8-3.8,3.9-3.8c10.5-0.1,18.6,0,24,0.3c8.2,0.7,14.1,1.3,18,1.8c1-5.8,2-11,3.2-15.6c1.5-5.7,2.7-10.2,3.7-13.7
					c-21.8,0.6-38,0.8-48.1,0.5c-1.1,0-2.1-0.5-2.9-1.3c-0.7-0.8-1.1-1.9-1-3l2.2-26c0.2-2.1,1.9-3.6,4-3.6c0,0,0,0,0.1,0
					c10,0.2,19.3,0.6,27.6,1.4c8.8,1,15.4,1.7,19.8,2.3l5.8-77.7h-147.6c2.9,41.7,4.7,74.7,5.5,98.2L1214,1072.1z"/>
				<path class="st5" d="M1466.8,1083.2c-16.8,0-28.9-1.1-37-3.3c-1.4-0.4-2.5-1.6-2.9-3c-0.9-4.2-2.4-10.9-4.6-20.4
					c-1.3-4.9-3.3-11.7-5.7-20.1c-0.4-1.4,0-2.8,0.9-3.8c1-1,2.4-1.5,3.8-1.2c13.2,3,18.7,3.6,21.1,3.6c18.2,0,18.2-8,18.2-11.4
					c0-6.3-2.5-11.9-7.6-17c-9.7-7.8-19.3-15.6-29-23.4c-19.7-16-29.7-35.3-29.7-57.4c0-23.2,9.6-41.1,28.6-53.1
					c16.1-10.2,37.8-15.3,64.3-15.3c14.9,0,31.8,2,50.2,5.9c1.8,0.4,3.1,1.9,3.1,3.7l4.5,85.3c0.1,1.2-0.4,2.4-1.4,3.2
					c-0.9,0.8-2.2,1.1-3.4,0.9c-7-1.5-12.4-2.2-15.8-2.2c-3.8,0-7.2,1.2-10.4,3.6c-3.6,2.8-5.4,6.2-5.4,10.6c0,1.6,1.2,7,12.1,22.9
					c8.9,13.1,13.5,25.4,13.5,36.6c0,16.4-6.9,30-20.4,40.5C1501,1078.2,1485.3,1083.2,1466.8,1083.2z M1434.2,1072.8
					c7.4,1.6,18.4,2.4,32.6,2.4c16.6,0,30.8-4.4,42-13.2c11.7-9,17.3-20.2,17.3-34.1c0-9.6-4.1-20.3-12.1-32
					c-12.1-17.6-13.5-24.1-13.5-27.4c0-6.9,2.9-12.6,8.6-16.9c4.6-3.4,9.7-5.2,15.2-5.2c3.1,0,7.2,0.5,12.4,1.4l-4-77.2
					c-16.7-3.4-32-5.1-45.5-5.1c-25,0-45.2,4.7-60,14.1c-16.7,10.6-24.9,25.7-24.9,46.3c0,19.9,8.8,36.6,26.8,51.2
					c9.7,7.9,19.4,15.7,29.1,23.5c0.1,0.1,0.2,0.2,0.3,0.3c6.7,6.6,10.1,14.3,10.1,22.8c0,8.8-4.5,19.4-26.1,19.4
					c-3.2,0-8.6-0.8-16.3-2.4c1.6,5.5,2.9,10.2,3.9,13.9C1431.9,1062.6,1433.3,1068.6,1434.2,1072.8z"/>
				<path class="st5" d="M790.1,1415.5H714c-2.1,0-3.9-1.7-4-3.8c-0.4-11.2-1.3-29.3-2.7-54c-0.8-9.1-2.6-26.7-5.4-52.2
					c-5.2-9.7-13.7-25.4-25.5-46.5c-7.7-13-19.2-31.4-34-54.3c-0.8-1.2-0.9-2.8-0.2-4.1c0.7-1.3,2-2.1,3.5-2.1h109.7
					c1.8,0,3.3,1.1,3.8,2.8c1.7,5.8,4.9,15.1,9.3,27.7l10.7,27.6c3.2-7.4,7-16.8,11.4-28c2.1-6.2,4.9-15.4,8.4-27.3
					c0.5-1.7,2.1-2.9,3.8-2.9h53.2c1.4,0,2.8,0.8,3.5,2c0.7,1.2,0.7,2.8,0,4l-27.9,47.4c-7.4,12.8-17.5,30.8-30,53.6
					c-1.2,12.8-2.7,30.6-4.5,53.2c-0.6,12.2-1.6,30.1-3,53.1C793.9,1413.8,792.2,1415.5,790.1,1415.5z M717.8,1407.5h68.5
					c1.3-21.2,2.2-37.8,2.7-49.4c1.9-23.2,3.4-41.4,4.6-54.2c0.1-0.5,0.2-1.1,0.5-1.5c12.7-23.2,23-41.5,30.5-54.5l24.4-41.4h-43.2
					c-3.1,10.6-5.7,19-7.7,24.9c-6.5,16.5-11.7,29-15.5,37.4c-0.7,1.5-2.1,2.5-3.7,2.3c-1.6,0-3-1-3.6-2.5l-14.3-36.7
					c-3.8-11-6.7-19.4-8.6-25.4h-99.4c13,20.2,23.2,36.5,30.3,48.6c12.1,21.8,20.8,37.7,26,47.4c0.2,0.4,0.4,0.9,0.4,1.4
					c2.9,26,4.7,44,5.5,53.3C716.5,1379.2,717.4,1396.1,717.8,1407.5z"/>
				<path class="st5" d="M994.1,1422.4c-31.5,0-57.4-12.3-77-36.5c-18.2-22.6-27.5-50.7-27.5-83.5c0-35.1,10.1-63.2,30.1-83.4
					c18.9-19,43.9-28.7,74.3-28.7c29.9,0,54.7,9.7,73.6,28.8c20,20.3,30.1,48.3,30.1,83.2c0,32.8-9.4,61-27.9,83.8
					C1050.3,1410.2,1024.8,1422.4,994.1,1422.4z M994.1,1198.4c-28.2,0-51.3,8.9-68.7,26.3c-18.5,18.6-27.8,44.8-27.8,77.8
					c0,30.9,8.7,57.4,25.7,78.5c17.9,22.2,41.8,33.5,70.8,33.5c28.1,0,51.6-11.2,69.6-33.2c17.4-21.3,26.2-47.8,26.2-78.7
					c0-32.8-9.4-58.9-27.8-77.6C1044.7,1207.3,1021.8,1198.4,994.1,1198.4z M994.1,1373.9c-9.4,0-17.2-5.7-23.3-16.9
					c-5.1-9.3-7.6-19.6-7.6-30.3c0-34.8,17-42.1,31.2-42.1c14.6,0,31.9,7.3,31.9,41.8c0,10.5-2.9,20.7-8.6,30.5
					C1011.2,1368.2,1003.2,1373.9,994.1,1373.9z M994.4,1292.6c-10,0-23.2,3.5-23.2,34.1c0,9.4,2.2,18.4,6.7,26.5
					c4.6,8.6,10,12.7,16.3,12.7c6.2,0,11.6-4.3,16.8-13.1c5-8.5,7.5-17.4,7.5-26.4C1018.4,1296.1,1004.7,1292.6,994.4,1292.6z"/>
				<path class="st5" d="M1254.3,1421c-33.2,0-58.9-6.2-76.5-18.6c-15.1-10.6-25.9-27.2-32-49.3c-3.6-12.6-6.8-34.8-9.9-67.9
					c-3-30.1-4.8-57.9-5.5-82.7c0-1.1,0.4-2.1,1.1-2.9c0.8-0.8,1.8-1.2,2.9-1.2h95.9c1.1,0,2.1,0.4,2.9,1.2c0.8,0.8,1.2,1.8,1.1,2.9
					c-0.5,11.9-1.1,31.6-1.8,58.5c-0.3,15-0.2,36.5,0.3,63.9c0.1,20.4,1.9,34.1,5.5,40.8c3.4,6.4,10.2,9.6,20.8,9.6
					c2.3,0,4.8-0.5,7.6-1.5c-0.1-18.7-0.7-47.7-1.8-86.3c-1-20.2-2.8-48.8-5.5-84.9c-0.1-1.1,0.3-2.2,1.1-3c0.8-0.8,1.8-1.3,2.9-1.3
					h73.4c1.1,0,2.1,0.4,2.9,1.2s1.2,1.8,1.1,2.9l-3.4,88.1c-1,25-1.5,63.3-1.5,113.9c0,1.7-1.1,3.3-2.7,3.8
					C1307.5,1416.8,1281,1421,1254.3,1421z M1138.5,1206.4c0.8,23.6,2.6,49.8,5.4,78.1c3,32.2,6.3,54.6,9.7,66.5
					c5.7,20.3,15.4,35.4,28.9,44.9c16.2,11.4,40.4,17.1,71.9,17.1c24.9,0,49.6-3.8,73.6-11.4c0-49.3,0.5-86.7,1.5-111.3l3.3-83.9
					h-65c2.5,34.1,4.2,61.3,5.2,80.9c1.2,40.7,1.8,70.7,1.8,89.3c0,1.6-1,3-2.4,3.7c-4.7,2-9.2,3-13.2,3c-13.7,0-23.1-4.7-27.9-13.9
					c-4.2-8-6.3-22.5-6.4-44.4c-0.5-27.4-0.6-49.1-0.3-64.2c0.6-24,1.2-42.3,1.6-54.5H1138.5z"/>
				<path class="st5" d="M676.9,1750.8h-75.8c-2.1,0-3.9-1.7-4-3.8l-1.4-40.3c-1.6,0.6-3.5,1.3-5.6,2.1c-6.2,2.4-10.6,4.4-13.1,5.9
					c-1,0.6-2.1,0.7-3.2,0.3c-1.1-0.3-1.9-1.1-2.4-2.1l-7.7-16.7c-0.2-0.4-0.4-0.9-0.6-1.4l-1.1,52.2c0,2.2-1.8,3.9-4,3.9h-83.7
					c-2.1,0-3.9-1.7-4-3.8l-4.3-100c-0.9-25.9-3.1-62.5-6.7-108.9c-0.1-1.1,0.3-2.2,1.1-3c0.8-0.8,1.8-1.3,2.9-1.3h104.3
					c1.1,0,2.1,0.4,2.9,1.2c0.8,0.8,1.1,1.9,1.1,3l-6.8,124.9c5.7,0.4,11.2,0.5,16.5,0.2c3.4-0.1,7.8-0.3,13.2-0.8L587,1538
					c-0.1-1.1,0.3-2.2,1.1-3c0.8-0.8,1.8-1.3,2.9-1.3h96.8c1.1,0,2.2,0.5,2.9,1.3c0.8,0.8,1.1,1.9,1.1,3
					c-1.7,22.2-3.9,58.9-6.7,108.9c-0.8,23.8-2.2,57.5-4.2,100C680.8,1749.1,679,1750.8,676.9,1750.8z M604.9,1742.8h68.1
					c1.9-40.7,3.2-73,4-96.2c2.6-47.1,4.7-82.3,6.4-104.9h-88.2l7.3,124c0.1,2.2-1.5,4-3.6,4.2c-7.3,0.6-13.2,1-17.5,1.1
					c-6.7,0.3-13.9,0.1-21.2-0.6c-2.1-0.2-3.7-2-3.6-4.2l6.8-124.6h-95.8c3.4,44.5,5.5,79.7,6.4,104.9l4.1,96.2h76l1.4-63.9
					c0-1.8,1.3-3.4,3-3.8c1.8-0.4,3.6,0.4,4.4,1.9c3.7,6.7,6.4,12,8,15.7l6,12.9c2.7-1.3,6.1-2.7,10.3-4.4c5.6-2.2,9.3-3.5,11.1-4
					c1.2-0.4,2.5-0.2,3.5,0.6c1,0.7,1.6,1.9,1.7,3.1L604.9,1742.8z"/>
				<path class="st5" d="M788.8,1754.8c-0.3,0-0.6,0-0.8-0.1c-1.2-0.2-2.2-1-2.7-2.1l-8.5-16.5c-0.8-1.5-1.7-3.2-2.7-5.2l-5.2,17.1
					c-0.5,1.7-2.1,2.8-3.8,2.8h-43.1c-1.2,0-2.4-0.6-3.2-1.6c-0.8-1-1-2.3-0.7-3.5c6.3-22.2,16.2-59.5,29.4-110.8
					c8.1-34.2,14.9-67.1,20.3-97.8c0.3-1.9,2-3.3,3.9-3.3H861c1.9,0,3.5,1.4,3.9,3.2c2.8,14.1,10.4,47.6,22.7,99.3
					c6.8,27.2,16.4,64.1,28.4,109.5c0.3,1.2,0.1,2.5-0.7,3.5c-0.8,1-1.9,1.6-3.2,1.6h-81.3c-1.8,0-3.3-1.1-3.8-2.8l-4.2-13.8
					c-2.6,1.2-6.6,3.2-12.7,6.4c-5.5,3.2-11.9,7.7-18.8,13.3C790.6,1754.5,789.7,1754.8,788.8,1754.8z M773,1716.6
					c1.5,0,2.8,0.8,3.5,2.1c3.2,5.9,5.6,10.5,7.3,13.8l6.3,12.2c5.8-4.5,11.2-8.2,16.1-11.1c12.7-6.6,16.2-8.1,17.8-8.6
					c1-0.4,2.2-0.3,3.1,0.2c1,0.5,1.7,1.4,2,2.4l4.6,15.3H907c-11.4-43.1-20.5-78.3-27.1-104.6c-11.5-48.3-18.9-80.7-22.1-96.5H775
					c-5.3,29.9-12,61.9-19.8,95.1c-12.3,47.7-21.7,83.3-28,106h34.9l7.2-23.4c0.5-1.5,1.8-2.6,3.4-2.8
					C772.8,1716.6,772.9,1716.6,773,1716.6z M797.7,1710.4c-2,0-3.7-1.5-3.9-3.5c-0.3-2.2,1.3-4.2,3.4-4.5c4.9-0.6,10.3-1.7,15.9-3
					c-1.7-4.7-4.2-11.1-7.4-19.2c-1.8-4.2-4.4-9.8-7.8-16.7c-2,4.8-4.4,10.7-7.3,17.8c-0.8,2-3.2,3-5.2,2.2c-2-0.8-3-3.2-2.2-5.2
					c4.8-11.9,8.4-20.6,10.7-25.9c0.6-1.4,2-2.4,3.6-2.4c1.6-0.1,3,0.8,3.7,2.2c5.3,10.6,9.2,19,11.8,25c4.3,10.9,7.3,18.8,9,23.7
					c0.4,1,0.3,2.2-0.2,3.2c-0.5,1-1.4,1.7-2.5,2c-7.5,2-14.7,3.5-21.2,4.3C798,1710.4,797.9,1710.4,797.7,1710.4z"/>
				<path class="st5" d="M1040.4,1750.8h-81.9c-2.1,0-3.9-1.7-4-3.8l-4.3-101.4c-1.3-25.9-3.3-62.1-6.1-107.6
					c-0.1-2,1.3-3.8,3.3-4.2c15.6-2.8,38.7-4.3,68.6-4.3c36.9,0,67,6.9,89.5,20.6c26,15.9,39.2,39.4,39.2,70.1
					c0,26.9-9.5,48.7-28.4,64.9c-17.9,15.4-41.5,23.5-70.3,24.1l-1.6,37.7C1044.3,1749.1,1042.5,1750.8,1040.4,1750.8z
					 M962.3,1742.8h74.3l1.6-37.7c0.1-2.1,1.8-3.8,4-3.8c28.6,0,51.8-7.5,69-22.2c17.2-14.8,25.6-34.1,25.6-58.8
					c0-28.1-11.6-48.8-35.4-63.3c-21.2-12.9-49.9-19.4-85.3-19.4c-27.3,0-48.7,1.2-63.7,3.6c2.7,43.9,4.6,78.9,5.9,104.1
					L962.3,1742.8z M1043.4,1673.9c-1.1,0-2.1-0.4-2.8-1.2c-0.8-0.8-1.2-1.8-1.2-2.9l1.5-47.6c0.1-2,1.6-3.6,3.5-3.8
					c2.4-0.3,4.8-0.4,7.2-0.4c26,0,31.5,13.7,31.5,25.2c0,13.5-6.9,29.8-39.5,30.8C1043.5,1673.9,1043.4,1673.9,1043.4,1673.9z
					 M1048.7,1626l-1.2,39.8c24.6-1.9,27.6-13.7,27.6-22.6c0-7.4-2.4-17.2-23.5-17.2C1050.6,1625.9,1049.7,1625.9,1048.7,1626z"/>
				<path class="st5" d="M1273.3,1750.8h-81.9c-2.1,0-3.9-1.7-4-3.8l-4.3-101.4c-1.3-25.9-3.3-62.1-6.1-107.6
					c-0.1-2,1.3-3.8,3.3-4.2c15.6-2.8,38.7-4.3,68.6-4.3c36.9,0,67,6.9,89.5,20.6c26,15.9,39.2,39.4,39.2,70.1
					c0,26.9-9.5,48.7-28.4,64.9c-17.9,15.4-41.5,23.5-70.3,24.1l-1.6,37.7C1277.2,1749.1,1275.4,1750.8,1273.3,1750.8z
					 M1195.2,1742.8h74.3l1.6-37.7c0.1-2.1,1.8-3.8,4-3.8c28.6,0,51.8-7.5,69-22.2c17.2-14.8,25.6-34.1,25.6-58.8
					c0-28.1-11.6-48.8-35.4-63.3c-21.2-12.9-49.9-19.4-85.3-19.4c-27.3,0-48.7,1.2-63.7,3.6c2.7,43.9,4.6,78.9,5.9,104.1
					L1195.2,1742.8z M1276.3,1673.9c-1.1,0-2.1-0.4-2.8-1.2c-0.8-0.8-1.2-1.8-1.2-2.9l1.5-47.6c0.1-2,1.6-3.6,3.5-3.8
					c2.4-0.3,4.8-0.4,7.2-0.4c26,0,31.5,13.7,31.5,25.2c0,13.5-6.9,29.8-39.5,30.8C1276.3,1673.9,1276.3,1673.9,1276.3,1673.9z
					 M1281.6,1626l-1.2,39.8c24.6-1.9,27.6-13.7,27.6-22.6c0-7.4-2.4-17.2-23.5-17.2C1283.5,1625.9,1282.6,1625.9,1281.6,1626z"/>
				<path class="st5" d="M1553.6,1750.8h-76.1c-2.1,0-3.9-1.7-4-3.8c-0.4-11.1-1.3-29.3-2.7-54c-0.8-9.1-2.6-26.7-5.4-52.2
					c-5.2-9.7-13.7-25.4-25.5-46.5c-7.7-13-19.2-31.4-34-54.3c-0.8-1.2-0.9-2.8-0.2-4.1c0.7-1.3,2-2.1,3.5-2.1h109.7
					c1.8,0,3.3,1.2,3.8,2.8c1.7,5.8,4.9,15.1,9.3,27.7l10.7,27.6c3.2-7.4,7-16.8,11.4-28c2.1-6.2,4.9-15.4,8.4-27.3
					c0.5-1.7,2.1-2.9,3.8-2.9h53.2c1.4,0,2.8,0.8,3.5,2c0.7,1.2,0.7,2.8,0,4l-27.9,47.4c-7.4,12.8-17.5,30.8-30,53.6
					c-1.2,12.7-2.7,30.5-4.5,53.2c-0.6,12.2-1.6,30.1-3,53.1C1557.4,1749.2,1555.7,1750.8,1553.6,1750.8z M1481.3,1742.8h68.5
					c1.3-21.2,2.2-37.8,2.7-49.4c1.9-23.3,3.4-41.5,4.6-54.2c0-0.5,0.2-1.1,0.5-1.5c12.7-23.2,23-41.5,30.5-54.5l24.4-41.4h-43.2
					c-3.1,10.6-5.7,19-7.7,24.9c-6.5,16.5-11.7,29-15.5,37.4c-0.7,1.5-2,2.4-3.7,2.3c-1.6,0-3-1-3.6-2.5l-14.3-36.7
					c-3.9-11.1-6.7-19.5-8.6-25.4h-99.4c13,20.2,23.2,36.5,30.3,48.6c12.1,21.8,20.8,37.7,26,47.4c0.2,0.4,0.4,0.9,0.4,1.4
					c2.9,26,4.7,44,5.5,53.3C1480,1714.6,1480.9,1731.5,1481.3,1742.8z"/>
			</g>
		</g>
		<g>
			<path class="st6" d="M1064.2,285.1c0,0-27.5-38.3-1.6-55.9s51,13.1,51,13.1s18.6-33.9,49.1-20.3c30.5,13.5,10.2,47.1,10.2,47.1
				s34.3,14.6,30.1,45.3s-51,17.4-51,17.4s7.5,53.2-36.5,51.1c-35.3-2.2-29.2-39.7-29.2-39.7s-46.1,22.8-54.9-21.2
				C1024.9,289,1064.2,285.1,1064.2,285.1z"/>
			<path class="st5" d="M1118,384.3c-0.8,0-1.7,0-2.6-0.1c-10.4-0.6-18.3-4.3-23.6-10.9c-7.7-9.6-7.6-22.6-7.2-28
				c-6.1,2.6-23.8,8.9-37.9,1.9c-8.6-4.2-14.2-12.7-16.7-25c-1.8-9.2-0.4-17.1,4.3-23.5c7.8-10.5,22-13.8,27.4-14.7
				c-3.7-5.6-14.1-23.3-11.3-39c1.3-7,5-12.7,11.2-16.9c23.3-15.8,46.1,6.1,51.6,12c4.3-6.7,22.5-31.5,49.9-19.3
				c8.5,3.8,14,9.5,16.4,16.9c4,12.7-2.6,26.6-4.8,30.9c6.4,3.2,33.3,18.3,29.5,46.1c-1,7.2-4.3,12.7-9.8,16.3
				c-13,8.5-34.4,4.2-40.9,2.7c0.6,6.6,1.5,27.8-10.3,40.8C1137.2,380.9,1128.7,384.3,1118,384.3z M1086.4,341.9
				c0.3,0,0.6,0.1,0.8,0.3c0.4,0.3,0.6,0.8,0.5,1.3c0,0.2-2.6,17.1,6.3,28.3c4.8,6,12.1,9.3,21.6,9.9c11,0.5,19.7-2.5,25.6-9.1
				c12.9-14.2,9.5-40.3,9.4-40.6c-0.1-0.4,0.1-0.9,0.4-1.2c0.3-0.3,0.8-0.4,1.2-0.3c0.3,0.1,26.5,7.4,40.6-1.8
				c4.9-3.2,7.8-8,8.7-14.4c4-29.4-28.9-43.8-29.3-43.9c-0.4-0.2-0.6-0.4-0.7-0.8c-0.1-0.4-0.1-0.8,0.1-1.1c0.1-0.2,9.6-16.2,5.3-30
				c-2.1-6.6-7.1-11.8-14.9-15.2c-29.1-12.9-46.7,18.4-47.4,19.8c-0.2,0.4-0.6,0.6-1,0.7c-0.4,0-0.9-0.1-1.2-0.5
				c-1-1.2-24.7-29.5-49.2-12.8c-5.6,3.8-9,8.9-10.1,15.2c-3.1,17.4,11.9,38.6,12,38.8c0.3,0.4,0.3,0.9,0.1,1.3
				c-0.2,0.4-0.6,0.7-1.1,0.8c-0.2,0-18.9,2-27.7,14c-4.2,5.7-5.5,12.9-3.9,21.4c2.3,11.5,7.4,19.3,15.3,23.1
				c15.8,7.8,37.5-2.8,37.7-2.9C1086,341.9,1086.2,341.9,1086.4,341.9z"/>
			<circle class="st7" cx="1117" cy="296.5" r="27.8"/>
			<path class="st5" d="M1117,325.6c-16.1,0-29.1-13.1-29.1-29.1c0-16.1,13.1-29.1,29.1-29.1s29.1,13.1,29.1,29.1
				C1146.2,312.6,1133.1,325.6,1117,325.6z M1117,270c-14.6,0-26.5,11.9-26.5,26.5c0,14.6,11.9,26.5,26.5,26.5s26.5-11.9,26.5-26.5
				C1143.5,281.9,1131.6,270,1117,270z"/>
		</g>
		<g>
			<path class="st6" d="M1677.1,755c0,0-39.9-55.6-2.3-81.1c37.6-25.5,74.1,19,74.1,19s27-49.2,71.3-29.6
				c44.4,19.7,14.8,68.4,14.8,68.4s49.8,21.2,43.7,65.8c-6.1,44.6-74,25.2-74,25.2s10.9,77.3-52.9,74.3
				c-51.2-3.2-42.4-57.7-42.4-57.7s-67,33.1-79.7-30.8C1620,760.7,1677.1,755,1677.1,755z"/>
			<path class="st5" d="M1755.4,899c-1.2,0-2.5,0-3.7-0.1c-15-0.9-26.5-6.3-34.2-15.9c-11.2-14-11-32.9-10.4-40.6
				c-8.9,3.7-34.6,12.9-55.1,2.8c-12.5-6.2-20.7-18.4-24.3-36.3c-2.7-13.4-0.6-24.8,6.3-34.1c11.3-15.2,31.9-20,39.8-21.4
				c-5.3-8.2-20.4-33.9-16.4-56.7c1.8-10.2,7.3-18.5,16.3-24.6c33.8-23,66.9,8.8,74.9,17.4c6.2-9.7,32.7-45.7,72.4-28.1
				c12.4,5.5,20.4,13.7,23.8,24.5c5.8,18.5-3.7,38.7-7,44.8c9.3,4.6,48.4,26.5,42.9,66.9c-1.4,10.4-6.2,18.4-14.3,23.7
				c-18.9,12.3-50,6.2-59.4,3.9c0.9,9.5,2.2,40.4-15,59.2C1783.1,894.2,1770.8,899,1755.4,899z M1709.3,837.4c0.4,0,0.8,0.1,1.1,0.4
				c0.6,0.4,0.9,1.1,0.8,1.9c0,0.2-3.8,24.8,9.2,41c7,8.7,17.5,13.5,31.4,14.4c16,0.8,28.5-3.7,37.2-13.2
				c18.8-20.6,13.7-58.5,13.7-58.9c-0.1-0.6,0.2-1.3,0.6-1.7c0.5-0.4,1.2-0.6,1.8-0.4c0.4,0.1,38.5,10.7,59-2.7
				c7.1-4.6,11.3-11.7,12.6-21c5.8-42.7-42-63.5-42.5-63.8c-0.5-0.2-0.9-0.7-1.1-1.2c-0.2-0.5-0.1-1.1,0.2-1.6
				c0.1-0.2,14-23.5,7.7-43.6c-3-9.6-10.3-17.1-21.7-22.1c-42.2-18.7-67.8,26.8-68.8,28.7c-0.3,0.6-0.9,0.9-1.5,1
				c-0.6,0.1-1.3-0.2-1.7-0.7c-1.4-1.8-35.9-42.8-71.5-18.6c-8.1,5.5-13,12.9-14.7,22.1c-4.5,25.3,17.2,56,17.5,56.3
				c0.4,0.6,0.5,1.3,0.2,1.9c-0.3,0.6-0.9,1.1-1.6,1.1c-0.3,0-27.4,3-40.2,20.3c-6.2,8.3-8,18.8-5.6,31c3.3,16.7,10.8,28,22.2,33.6
				c22.9,11.3,54.5-4.1,54.8-4.2C1708.7,837.5,1709,837.4,1709.3,837.4z"/>
			<circle class="st7" cx="1753.9" cy="771.5" r="40.4"/>
			<circle class="st8" cx="1753.9" cy="771.5" r="40.4"/>
			<circle class="st9" cx="1753.9" cy="771.5" r="40.4"/>
			<path class="st5" d="M1753.9,813.8c-23.3,0-42.3-19-42.3-42.3c0-23.3,19-42.3,42.3-42.3c23.3,0,42.3,19,42.3,42.3
				C1796.2,794.9,1777.2,813.8,1753.9,813.8z M1753.9,733.1c-21.2,0-38.4,17.2-38.4,38.4c0,21.2,17.2,38.4,38.4,38.4
				c21.2,0,38.4-17.2,38.4-38.4C1792.3,750.3,1775.1,733.1,1753.9,733.1z"/>
		</g>
		<g>
			<path class="st6" d="M165.8,756.6c0,0-37.1-51.8-2.2-75.5c35-23.7,68.9,17.7,68.9,17.7s25.1-45.8,66.4-27.5s13.8,63.7,13.8,63.7
				s46.3,19.7,40.6,61.2c-5.7,41.5-68.9,23.5-68.9,23.5s10.1,72-49.3,69.1c-47.6-2.9-39.5-53.7-39.5-53.7s-62.3,30.8-74.2-28.6
				C112.7,761.9,165.8,756.6,165.8,756.6z"/>
			<path class="st5" d="M238.6,890.6c-1.1,0-2.3,0-3.5-0.1c-14-0.9-24.7-5.8-31.8-14.8c-10.4-13-10.3-30.6-9.7-37.8
				c-8.3,3.5-32.2,12-51.3,2.6c-11.6-5.7-19.2-17.1-22.6-33.8c-2.5-12.4-0.5-23.1,5.9-31.7c10.5-14.2,29.7-18.6,37-19.9
				c-5-7.6-19-31.5-15.2-52.7c1.7-9.5,6.8-17.2,15.2-22.9c31.5-21.4,62.3,8.2,69.7,16.2c5.8-9,30.4-42.5,67.4-26.1
				c11.5,5.1,19,12.8,22.1,22.8c5.4,17.2-3.5,36-6.5,41.7c8.6,4.3,45.1,24.7,39.9,62.3c-1.3,9.7-5.8,17.1-13.3,22
				c-17.6,11.5-46.5,5.7-55.3,3.6c0.8,8.9,2,37.6-13.9,55.1C264.5,886.1,253,890.6,238.6,890.6z M195.8,833.3c0.4,0,0.8,0.1,1.1,0.4
				c0.5,0.4,0.8,1.1,0.7,1.7c0,0.2-3.5,23.1,8.6,38.2c6.5,8.1,16.3,12.6,29.2,13.4c14.9,0.7,26.6-3.4,34.6-12.3
				c17.5-19.2,12.8-54.5,12.7-54.8c-0.1-0.6,0.1-1.2,0.6-1.6c0.5-0.4,1.1-0.5,1.7-0.4c0.4,0.1,35.8,10,54.9-2.5
				c6.6-4.3,10.5-10.9,11.7-19.5c5.4-39.7-39.1-59.1-39.6-59.3c-0.5-0.2-0.8-0.6-1-1.1c-0.2-0.5-0.1-1,0.2-1.5
				c0.1-0.2,13-21.9,7.2-40.5c-2.8-9-9.6-15.9-20.2-20.6c-39.3-17.4-63.1,24.9-64.1,26.7c-0.3,0.5-0.8,0.9-1.4,0.9
				c-0.6,0.1-1.2-0.2-1.6-0.6c-1.3-1.6-33.4-39.9-66.6-17.3c-7.5,5.1-12.1,12-13.6,20.5c-4.2,23.6,16.1,52.1,16.3,52.4
				c0.4,0.5,0.4,1.2,0.2,1.8c-0.3,0.6-0.8,1-1.5,1c-0.3,0-25.5,2.8-37.4,18.9c-5.7,7.8-7.5,17.5-5.2,28.9
				c3.1,15.5,10,26.1,20.6,31.3c21.3,10.5,50.7-3.8,51-3.9C195.2,833.3,195.5,833.3,195.8,833.3z"/>
			<circle class="st7" cx="237.2" cy="772" r="37.6"/>
			<path class="st5" d="M237.2,811.4c-21.7,0-39.4-17.7-39.4-39.4c0-21.7,17.7-39.4,39.4-39.4c21.7,0,39.4,17.7,39.4,39.4
				C276.6,793.7,258.9,811.4,237.2,811.4z M237.2,736.2c-19.7,0-35.8,16.1-35.8,35.8c0,19.7,16.1,35.8,35.8,35.8S273,791.7,273,772
				C273,752.3,256.9,736.2,237.2,736.2z"/>
		</g>
		<g>
			<path class="st6" d="M1702,1757.3c0,0-30.6-42.7-1.8-62.2c28.8-19.6,56.8,14.6,56.8,14.6s20.7-37.8,54.7-22.7
				s11.4,52.5,11.4,52.5s38.2,16.2,33.5,50.5s-56.8,19.3-56.8,19.3s8.3,59.3-40.6,57c-39.3-2.4-32.5-44.2-32.5-44.2
				s-51.4,25.4-61.2-23.6C1658.2,1761.7,1702,1757.3,1702,1757.3z"/>
			<path class="st5" d="M1762.1,1867.8c-0.9,0-1.9,0-2.8-0.1c-11.5-0.7-20.4-4.8-26.3-12.2c-8.6-10.7-8.4-25.2-8-31.1
				c-6.8,2.9-26.6,9.9-42.3,2.1c-9.6-4.7-15.9-14.1-18.6-27.9c-2.1-10.3-0.4-19.1,4.8-26.2c8.6-11.7,24.5-15.4,30.5-16.4
				c-4.1-6.3-15.7-26-12.6-43.5c1.4-7.8,5.6-14.2,12.5-18.9c25.9-17.6,51.4,6.8,57.4,13.3c4.8-7.4,25-35.1,55.5-21.6
				c9.5,4.2,15.6,10.5,18.2,18.8c4.5,14.2-2.9,29.7-5.4,34.4c7.1,3.5,37.1,20.3,32.9,51.3c-1.1,8-4.8,14.1-11,18.2
				c-14.5,9.5-38.3,4.7-45.6,3c0.7,7.3,1.7,31-11.5,45.4C1783.4,1864.1,1773.9,1867.8,1762.1,1867.8z M1726.8,1820.6
				c0.3,0,0.6,0.1,0.9,0.3c0.4,0.3,0.7,0.9,0.6,1.4c0,0.2-2.9,19,7.1,31.5c5.3,6.7,13.4,10.4,24.1,11c12.3,0.6,21.9-2.8,28.6-10.1
				c14.4-15.8,10.5-44.9,10.5-45.2c-0.1-0.5,0.1-1,0.5-1.3c0.4-0.3,0.9-0.4,1.4-0.3c0.3,0.1,29.5,8.2,45.3-2c5.4-3.5,8.7-9,9.6-16.1
				c4.5-32.7-32.2-48.8-32.6-48.9c-0.4-0.2-0.7-0.5-0.8-0.9c-0.1-0.4-0.1-0.9,0.1-1.2c0.1-0.2,10.7-18.1,5.9-33.4
				c-2.3-7.4-7.9-13.1-16.6-17c-32.4-14.4-52,20.5-52.8,22c-0.2,0.4-0.7,0.7-1.2,0.8c-0.5,0-1-0.2-1.3-0.5
				c-1.1-1.3-27.5-32.9-54.9-14.3c-6.2,4.2-10,9.9-11.2,16.9c-3.5,19.4,13.2,43,13.4,43.2c0.3,0.4,0.4,1,0.1,1.5
				c-0.2,0.5-0.7,0.8-1.2,0.9c-0.2,0-21,2.3-30.8,15.5c-4.7,6.4-6.2,14.4-4.3,23.8c2.6,12.8,8.3,21.5,17,25.8
				c17.6,8.6,41.8-3.1,42.1-3.2C1726.3,1820.6,1726.5,1820.6,1726.8,1820.6z"/>
			<circle class="st7" cx="1760.9" cy="1770" r="31"/>
			<path class="st5" d="M1760.9,1802.5c-17.9,0-32.5-14.6-32.5-32.5c0-17.9,14.6-32.5,32.5-32.5c17.9,0,32.5,14.6,32.5,32.5
				C1793.4,1787.9,1778.8,1802.5,1760.9,1802.5z M1760.9,1740.5c-16.3,0-29.5,13.2-29.5,29.5c0,16.3,13.2,29.5,29.5,29.5
				c16.3,0,29.5-13.2,29.5-29.5C1790.4,1753.8,1777.2,1740.5,1760.9,1740.5z"/>
		</g>
		<g>
			<path class="st6" d="M192.1,1770.7c0,0-35.3-49.2-2.1-71.8c33.2-22.6,65.6,16.8,65.6,16.8s23.9-43.5,63.1-26.1
				c39.2,17.4,13.1,60.6,13.1,60.6s44,18.7,38.6,58.2c-5.4,39.5-65.5,22.3-65.5,22.3s9.6,68.4-46.8,65.7c-45.3-2.8-37.5-51-37.5-51
				s-59.3,29.3-70.5-27.2C141.6,1775.8,192.1,1770.7,192.1,1770.7z"/>
			<path class="st5" d="M261.4,1898.2c-1.1,0-2.2,0-3.3-0.1c-13.3-0.8-23.5-5.5-30.3-14c-9.9-12.4-9.7-29.1-9.2-35.9
				c-7.9,3.3-30.6,11.4-48.7,2.5c-11.1-5.4-18.3-16.3-21.5-32.1c-2.4-11.8-0.5-22,5.6-30.2c10-13.5,28.2-17.7,35.2-18.9
				c-4.7-7.2-18.1-30-14.5-50.1c1.6-9,6.5-16.4,14.4-21.8c29.9-20.3,59.2,7.8,66.3,15.4c5.5-8.6,28.9-40.4,64.1-24.9
				c11,4.9,18,12.2,21,21.7c5.1,16.4-3.3,34.2-6.2,39.7c8.2,4.1,42.8,23.5,37.9,59.2c-1.3,9.2-5.5,16.3-12.6,20.9
				c-16.7,10.9-44.2,5.4-52.6,3.4c0.8,8.4,1.9,35.8-13.2,52.4C285.9,1893.9,275.1,1898.2,261.4,1898.2z M220.6,1843.6
				c0.4,0,0.7,0.1,1,0.3c0.5,0.4,0.8,1,0.7,1.6c0,0.2-3.4,22,8.2,36.3c6.2,7.7,15.5,12,27.8,12.7c14.2,0.7,25.3-3.2,32.9-11.6
				c16.6-18.2,12.2-51.8,12.1-52.1c-0.1-0.6,0.1-1.1,0.6-1.5c0.4-0.4,1-0.5,1.6-0.4c0.3,0.1,34,9.5,52.2-2.4
				c6.3-4.1,10-10.3,11.1-18.5c5.2-37.8-37.2-56.2-37.6-56.4c-0.5-0.2-0.8-0.6-1-1c-0.2-0.5-0.1-1,0.2-1.4
				c0.1-0.2,12.4-20.8,6.8-38.5c-2.7-8.5-9.1-15.1-19.2-19.6c-37.3-16.5-60,23.7-60.9,25.4c-0.3,0.5-0.8,0.8-1.3,0.9
				c-0.6,0.1-1.1-0.2-1.5-0.6c-1.3-1.6-31.7-37.9-63.3-16.5c-7.2,4.9-11.5,11.4-13,19.5c-4,22.4,15.3,49.6,15.5,49.8
				c0.4,0.5,0.4,1.1,0.2,1.7s-0.8,0.9-1.4,1c-0.2,0-24.3,2.6-35.6,17.9c-5.5,7.4-7.1,16.6-5,27.5c3,14.8,9.6,24.8,19.6,29.7
				c20.3,10,48.2-3.6,48.5-3.7C220.1,1843.7,220.4,1843.6,220.6,1843.6z"/>
			<circle class="st7" cx="260" cy="1785.4" r="35.7"/>
			<circle class="st10" cx="260" cy="1785.4" r="35.7"/>
			<path class="st5" d="M260,1822.8c-20.6,0-37.4-16.8-37.4-37.4s16.8-37.4,37.4-37.4s37.4,16.8,37.4,37.4S280.7,1822.8,260,1822.8z
				 M260,1751.3c-18.8,0-34,15.3-34,34s15.3,34,34,34s34-15.3,34-34S278.8,1751.3,260,1751.3z"/>
		</g>
		<g>
			<path class="st6" d="M1311.1,133.5c0,0-19.2-26.7-1.1-39c18-12.2,35.6,9.1,35.6,9.1s12.9-23.6,34.2-14.2s7.1,32.9,7.1,32.9
				s23.9,10.2,21,31.6s-35.5,12.1-35.5,12.1s5.2,37.1-25.4,35.7c-24.6-1.5-20.4-27.7-20.4-27.7s-32.2,15.9-38.3-14.8
				C1283.7,136.3,1311.1,133.5,1311.1,133.5z"/>
			<path class="st5" d="M1348.7,202.7c-0.6,0-1.2,0-1.8,0c-7.2-0.4-12.7-3-16.4-7.6c-5.4-6.7-5.3-15.8-5-19.5
				c-4.3,1.8-16.6,6.2-26.4,1.3c-6-3-9.9-8.8-11.6-17.4c-1.3-6.4-0.3-11.9,3-16.4c5.4-7.3,15.3-9.6,19.1-10.3
				c-2.6-3.9-9.8-16.3-7.9-27.2c0.9-4.9,3.5-8.9,7.8-11.8c16.2-11,32.1,4.2,36,8.3c3-4.6,15.7-21.9,34.8-13.5
				c5.9,2.6,9.8,6.6,11.4,11.8c2.8,8.9-1.8,18.6-3.4,21.5c4.5,2.2,23.2,12.7,20.6,32.1c-0.7,5-3,8.8-6.9,11.4
				c-9.1,5.9-24,3-28.5,1.9c0.4,4.6,1,19.4-7.2,28.4C1362,200.4,1356.1,202.7,1348.7,202.7z M1326.6,173.1c0.2,0,0.4,0.1,0.6,0.2
				c0.3,0.2,0.4,0.6,0.4,0.9c0,0.1-1.8,11.9,4.4,19.7c3.3,4.2,8.4,6.5,15.1,6.9c7.7,0.4,13.7-1.8,17.9-6.3c9-9.9,6.6-28.1,6.6-28.3
				c0-0.3,0.1-0.6,0.3-0.8c0.2-0.2,0.6-0.3,0.9-0.2c0.2,0.1,18.5,5.2,28.3-1.3c3.4-2.2,5.4-5.6,6-10.1c2.8-20.5-20.2-30.5-20.4-30.6
				c-0.2-0.1-0.4-0.3-0.5-0.6c-0.1-0.3,0-0.5,0.1-0.8c0.1-0.1,6.7-11.3,3.7-20.9c-1.5-4.6-5-8.2-10.4-10.6
				c-20.2-9-32.5,12.9-33.1,13.8c-0.1,0.3-0.4,0.4-0.7,0.5c-0.3,0-0.6-0.1-0.8-0.3c-0.7-0.8-17.2-20.6-34.3-8.9
				c-3.9,2.6-6.3,6.2-7,10.6c-2.2,12.2,8.3,26.9,8.4,27.1c0.2,0.3,0.2,0.6,0.1,0.9c-0.1,0.3-0.4,0.5-0.8,0.5
				c-0.1,0-13.2,1.4-19.3,9.7c-3,4-3.9,9-2.7,14.9c1.6,8,5.2,13.5,10.6,16.1c11,5.4,26.2-1.9,26.3-2
				C1326.3,173.2,1326.5,173.1,1326.6,173.1z"/>
			<circle class="st7" cx="1348" cy="141.5" r="19.4"/>
			<path class="st5" d="M1348,161.8c-11.2,0-20.3-9.1-20.3-20.3s9.1-20.3,20.3-20.3s20.3,9.1,20.3,20.3S1359.2,161.8,1348,161.8z
				 M1348,123c-10.2,0-18.5,8.3-18.5,18.5c0,10.2,8.3,18.5,18.5,18.5c10.2,0,18.5-8.3,18.5-18.5C1366.4,131.3,1358.2,123,1348,123z"
				/>
		</g>
		<g>
			<path class="st6" d="M585.1,1875.4c0,0-15-20.9-0.9-30.4c14.1-9.6,27.8,7.1,27.8,7.1s10.1-18.5,26.8-11.1
				c16.6,7.4,5.6,25.7,5.6,25.7s18.7,7.9,16.4,24.7s-27.8,9.5-27.8,9.5s4.1,29-19.9,27.9c-19.2-1.2-15.9-21.6-15.9-21.6
				s-25.1,12.4-29.9-11.5C563.7,1877.5,585.1,1875.4,585.1,1875.4z"/>
			<path class="st5" d="M614.4,1929.4c-0.5,0-0.9,0-1.4,0c-5.6-0.4-10-2.3-12.8-5.9c-4.2-5.2-4.1-12.3-3.9-15.2
				c-3.3,1.4-13,4.8-20.7,1c-4.7-2.3-7.8-6.9-9.1-13.6c-1-5-0.2-9.3,2.4-12.8c4.2-5.7,12-7.5,14.9-8c-2-3.1-7.7-12.7-6.1-21.2
				c0.7-3.8,2.7-6.9,6.1-9.2c12.7-8.6,25.1,3.3,28.1,6.5c2.3-3.6,12.3-17.1,27.2-10.5c4.6,2.1,7.7,5.2,8.9,9.2
				c2.2,6.9-1.4,14.5-2.6,16.8c3.5,1.7,18.2,10,16.1,25.1c-0.5,3.9-2.3,6.9-5.4,8.9c-7.1,4.6-18.7,2.3-22.3,1.5
				c0.3,3.6,0.8,15.2-5.6,22.2C624.9,1927.5,620.2,1929.4,614.4,1929.4z M597.2,1906.3c0.2,0,0.3,0,0.4,0.1c0.2,0.2,0.3,0.4,0.3,0.7
				c0,0.1-1.4,9.3,3.5,15.4c2.6,3.3,6.6,5.1,11.8,5.4c6,0.3,10.7-1.4,14-4.9c7-7.7,5.2-22,5.1-22.1c0-0.2,0.1-0.5,0.2-0.6
				c0.2-0.2,0.4-0.2,0.7-0.2c0.1,0,14.4,4,22.1-1c2.7-1.7,4.2-4.4,4.7-7.9c2.2-16-15.8-23.8-15.9-23.9c-0.2-0.1-0.3-0.2-0.4-0.4
				c-0.1-0.2,0-0.4,0.1-0.6c0.1-0.1,5.3-8.8,2.9-16.3c-1.1-3.6-3.9-6.4-8.1-8.3c-15.8-7-25.4,10-25.8,10.8c-0.1,0.2-0.3,0.4-0.6,0.4
				c-0.3,0-0.5-0.1-0.6-0.3c-0.5-0.7-13.4-16.1-26.8-7c-3,2.1-4.9,4.8-5.5,8.3c-1.7,9.5,6.5,21,6.6,21.1c0.2,0.2,0.2,0.5,0.1,0.7
				c-0.1,0.2-0.3,0.4-0.6,0.4c-0.1,0-10.3,1.1-15.1,7.6c-2.3,3.1-3,7-2.1,11.6c1.3,6.3,4,10.5,8.3,12.6c8.6,4.2,20.4-1.5,20.6-1.6
				C597,1906.3,597.1,1906.3,597.2,1906.3z"/>
			<circle class="st7" cx="613.9" cy="1881.6" r="15.1"/>
			<path class="st5" d="M613.9,1897.4c-8.7,0-15.9-7.1-15.9-15.9s7.1-15.9,15.9-15.9c8.7,0,15.9,7.1,15.9,15.9
				S622.6,1897.4,613.9,1897.4z M613.9,1867.1c-8,0-14.4,6.5-14.4,14.4s6.5,14.4,14.4,14.4c8,0,14.4-6.5,14.4-14.4
				S621.8,1867.1,613.9,1867.1z"/>
		</g>
		<g>
			<path class="st6" d="M941.9,1294c0,0-27.5-38.3-1.6-55.9c25.9-17.6,51,13.1,51,13.1s18.6-33.9,49.1-20.3
				c30.5,13.5,10.2,47.1,10.2,47.1s34.3,14.6,30.1,45.3c-4.2,30.7-51,17.4-51,17.4s7.5,53.2-36.5,51.1
				c-35.3-2.2-29.2-39.7-29.2-39.7s-46.1,22.8-54.9-21.2C902.6,1297.9,941.9,1294,941.9,1294z"/>
			<path class="st5" d="M995.8,1393.2c-0.8,0-1.7,0-2.5-0.1c-10.4-0.6-18.3-4.3-23.6-10.9c-7.7-9.6-7.6-22.6-7.2-28
				c-6.1,2.6-23.8,8.9-37.9,1.9c-8.6-4.2-14.2-12.7-16.7-25c-1.8-9.2-0.4-17.1,4.3-23.5c7.8-10.5,22-13.8,27.4-14.7
				c-3.7-5.6-14.1-23.3-11.3-39c1.3-7,5-12.7,11.2-16.9c23.3-15.8,46.1,6.1,51.6,12c4.3-6.7,22.5-31.5,49.9-19.3
				c8.5,3.8,14,9.5,16.4,16.9c4,12.7-2.6,26.6-4.8,30.9c6.4,3.2,33.3,18.3,29.5,46.1c-1,7.2-4.3,12.7-9.8,16.3
				c-13,8.5-34.4,4.2-40.9,2.7c0.6,6.6,1.5,27.8-10.3,40.8C1014.9,1389.8,1006.5,1393.2,995.8,1393.2z M964.1,1350.7
				c0.3,0,0.6,0.1,0.8,0.3c0.4,0.3,0.6,0.8,0.5,1.3c0,0.2-2.6,17.1,6.3,28.3c4.8,6,12.1,9.3,21.6,9.9c11,0.5,19.7-2.5,25.6-9.1
				c12.9-14.2,9.5-40.3,9.4-40.6c-0.1-0.4,0.1-0.9,0.4-1.2c0.3-0.3,0.8-0.4,1.2-0.3c0.3,0.1,26.5,7.4,40.6-1.8
				c4.9-3.2,7.8-8,8.7-14.4c4-29.3-28.9-43.8-29.3-43.9c-0.4-0.2-0.6-0.4-0.7-0.8c-0.1-0.4-0.1-0.8,0.1-1.1c0.1-0.2,9.6-16.2,5.3-30
				c-2.1-6.6-7.1-11.8-14.9-15.2c-29.1-12.9-46.7,18.4-47.4,19.8c-0.2,0.4-0.6,0.6-1,0.7c-0.4,0-0.9-0.1-1.2-0.5
				c-1-1.2-24.7-29.5-49.2-12.8c-5.6,3.8-9,8.9-10.1,15.2c-3.1,17.4,11.9,38.6,12,38.8c0.3,0.4,0.3,0.9,0.1,1.3
				c-0.2,0.4-0.6,0.7-1.1,0.8c-0.2,0-18.9,2-27.7,14c-4.2,5.7-5.5,12.9-3.9,21.4c2.3,11.5,7.4,19.3,15.3,23.1
				c15.8,7.8,37.5-2.8,37.7-2.9C963.7,1350.8,963.9,1350.7,964.1,1350.7z"/>
			<circle class="st7" cx="994.8" cy="1305.4" r="27.8"/>
			<path class="st5" d="M994.8,1334.5c-16.1,0-29.1-13.1-29.1-29.1s13.1-29.1,29.1-29.1s29.1,13.1,29.1,29.1
				S1010.8,1334.5,994.8,1334.5z M994.8,1278.9c-14.6,0-26.5,11.9-26.5,26.5s11.9,26.5,26.5,26.5s26.5-11.9,26.5-26.5
				S1009.4,1278.9,994.8,1278.9z"/>
		</g>
		<g>
			<path class="st6" d="M1874.7,1200.5c-6.9-14-17.4-27-30.7-38c1.4,0.2,2.6,0.4,3.6,0.5c0.6,0.1,1.3,0.1,1.9,0.1
				c4.1,0,8.1-1.9,10.6-5.3c5.9-7.9,8.2-28.7,4.6-42.7c-3.4-13.4-11-19.3-16.7-22c-0.6-0.3-1.3-0.5-2-0.7
				c-6.2-1.7-12.7-2.6-19.3-2.6c-24.3,0-45.8,11.9-60.2,22.5c-16.6-16.2-43.9-35.6-78.7-35.6c-19.1,0-38.3,5.8-57,17.4
				c-3.1,1.9-5.1,4.9-5.9,8.2c-0.9,0.3-1.8,0.5-2.7,0.8c-44.3,14-77.5,57.7-91.1,120c-13.7,62.5-5.7,145.2,42.7,189.1
				c24.2,21.9,57.3,33.6,95.5,33.6c0,0,0,0,0,0c80.8,0,166.7-51.3,199.8-119.2c13-26.6,15.2-50.1,10.7-70.9
				C1885.7,1238.3,1883.9,1219.3,1874.7,1200.5z"/>
			<path class="st11" d="M1776.5,1160.8c0,0-53.8-75.5-150.2-45.2c-96.4,30.4-117.2,219.7-43.4,286.6
				c73.8,66.9,227.5,14.8,274.4-81.6C1898.9,1235.5,1815.6,1185.1,1776.5,1160.8z"/>
			<path class="st5" d="M1669,1436.4c-35.4,0-66.2-10.7-88.9-31.2c-39-35.3-55.4-109.4-39.9-180.2c12.9-58.9,43.8-100.2,84.8-113.1
				c93.1-29.3,148.3,38.4,154.2,46l0.9,0.6c40.1,24.9,123.4,76.7,80.7,164c-26.3,54-86.7,97.3-154,110.3
				C1693.8,1435.1,1681.1,1436.4,1669,1436.4z M1671.4,1112.3c-13.4,0-28.1,2.1-44,7.1c-37.6,11.9-67.3,51.9-79.4,107.2
				c-14.9,68.1,0.5,139.1,37.5,172.6c28.6,25.9,71.1,34.9,119.8,25.5c64.9-12.5,123.1-54.1,148.3-105.9
				c39.6-80.8-36.7-128.2-77.7-153.7l-1.5-1c-0.4-0.3-0.8-0.6-1.1-1.1C1771.5,1160.6,1736,1112.3,1671.4,1112.3z"/>
			<path class="st12" d="M1787.8,1146.5c16.6-2.9,47.3,1.3,61.7,3.3c3.8-5.1,8.3-37.6-7-44.6c-33-9.2-64.1,13.6-77.1,25.1
				c-19.4-22.2-66.4-62.6-127.6-25c15.3,35.4,59.9,47.6,59.9,47.6s-29,30.7-32.1,67.9c39.1,18.1,76.2-13.5,76.2-13.5
				s8.9,50.7,32.9,75.5c35.9-26.3,33.4-66.7,33.4-66.7s23.8,29.1,59,36.2C1880.6,1214,1845,1165.3,1787.8,1146.5z"/>
			<path class="st5" d="M1774.6,1286.8c-1,0-2.1-0.4-2.9-1.2c-19.7-20.4-29.4-56.7-32.7-71.3c-12,8.3-42.6,25.2-75.2,10.2
				c-1.5-0.7-2.4-2.3-2.3-4c2.5-30,20.9-55.5,29.2-65.6c-13-4.7-44-18.7-56.6-48c-0.8-1.8-0.1-3.9,1.6-5c61.7-37.9,109.8,1,130,22.8
				c14.3-11.9,45.1-32.5,77.8-23.4c0.2,0.1,0.4,0.1,0.6,0.2c5.6,2.6,9.6,8,11.6,15.8c3.3,13.1,0.5,30.2-3,34.8
				c-0.9,1.2-2.3,1.8-3.8,1.6c-7.6-1.1-26.3-3.8-42.5-4.2c27.1,12.7,48.9,32.4,59.9,55c8.3,16.9,9.8,33.9,4.4,49.1
				c-0.7,1.9-2.6,3-4.5,2.6c-25.5-5.1-44.9-21-54.6-30.4c-1.5,14.2-8,40.7-34.6,60.2C1776.3,1286.5,1775.5,1286.8,1774.6,1286.8z
				 M1741.7,1203.3c0.5,0,0.9,0.1,1.4,0.2c1.3,0.5,2.3,1.7,2.6,3.1c0.1,0.5,8.3,46.3,29.4,70.8c30.7-24.7,28.9-60.7,28.9-61
				c-0.1-1.7,0.9-3.3,2.5-4c1.6-0.6,3.4-0.2,4.5,1.2c0.2,0.3,21.8,26.2,53.2,34c3.3-12.3,1.6-25.8-5.1-39.5
				c-12.4-25.4-39.6-47-72.6-57.8c-1.7-0.6-2.9-2.3-2.7-4.1c0.1-1.8,1.5-3.3,3.3-3.6c15.4-2.6,41,0.3,60,2.9
				c1.6-4.9,3.3-16.7,0.8-26.3c-1.4-5.2-3.7-8.7-6.9-10.3c-31.3-8.5-61.5,14.2-73.1,24.4c-0.8,0.7-1.8,1-2.9,1
				c-1.1-0.1-2-0.6-2.7-1.4c-20.8-23.7-63.6-58.2-119.4-26c15.5,30.8,55.4,42.1,55.8,42.2c1.3,0.4,2.4,1.4,2.8,2.8
				c0.4,1.3,0,2.8-0.9,3.8c-0.3,0.3-26.6,28.6-30.8,62.7c35.3,14.3,69-13.8,69.3-14.1C1739.9,1203.6,1740.8,1203.3,1741.7,1203.3z"
				/>
			<g>
				<path class="st5" d="M1653.1,1279.3c-0.2,0-0.4,0-0.5,0c-2.2-0.3-3.7-2.3-3.4-4.5c0.7-5.4,1.1-20.3-6.1-25.1
					c-5.2-3.4-14.5-1.3-26.8,6.1c-1.9,1.1-4.3,0.5-5.5-1.4c-1.1-1.9-0.5-4.3,1.4-5.5c15.4-9.2,27.3-11.2,35.3-5.9
					c12.8,8.5,9.8,31.8,9.6,32.8C1656.7,1277.9,1655,1279.3,1653.1,1279.3z"/>
				<path class="st5" d="M1620.7,1252.8c-1.2,0-2.5-0.6-3.3-1.7l-11.4-15.9c-1.3-1.8-0.9-4.3,0.9-5.6c1.8-1.3,4.3-0.9,5.6,0.9
					l11.4,15.9c1.3,1.8,0.9,4.3-0.9,5.6C1622.3,1252.5,1621.5,1252.8,1620.7,1252.8z"/>
				<path class="st5" d="M1633.8,1248.4c-1.8,0-3.5-1.3-3.9-3.1l-4.4-19.9c-0.5-2.1,0.9-4.3,3-4.8c2.1-0.5,4.3,0.9,4.8,3l4.4,19.9
					c0.5,2.1-0.9,4.3-3,4.8C1634.3,1248.3,1634.1,1248.4,1633.8,1248.4z"/>
			</g>
			<g>
				<path class="st5" d="M1727.6,1333.1c-0.2,0-0.5,0-0.7-0.1c-2.2-0.4-3.6-2.5-3.2-4.6c2.6-14.2,1.2-23.6-3.8-27.2
					c-7-5-20.9,0.6-25.6,3.1c-1.9,1.1-4.4,0.3-5.4-1.6c-1.1-1.9-0.3-4.4,1.6-5.4c0.9-0.5,21.6-11.6,34.1-2.6
					c7.9,5.7,10.2,17.5,7,35.1C1731.2,1331.8,1729.5,1333.1,1727.6,1333.1z"/>
				<path class="st5" d="M1747.5,1330.7c-0.3,0-0.7,0-1-0.1l-18.9-5c-2.1-0.6-3.4-2.7-2.8-4.9c0.6-2.1,2.7-3.4,4.9-2.8l18.9,5
					c2.1,0.6,3.4,2.7,2.8,4.9C1750.9,1329.5,1749.3,1330.7,1747.5,1330.7z"/>
				<path class="st5" d="M1728.1,1311.9c-1.9,0-3.7-1.4-3.9-3.4c-0.3-2.2,1.2-4.2,3.4-4.5l20.1-2.9c2.2-0.3,4.2,1.2,4.5,3.4
					c0.3,2.2-1.2,4.2-3.4,4.5l-20.1,2.9C1728.5,1311.9,1728.3,1311.9,1728.1,1311.9z"/>
			</g>
			<path class="st5" d="M1646.4,1336.1c-3.7,0-7-1.4-9.5-4c-11.4-11.6,5.4-32.2,7.3-34.5c1.4-1.7,3.9-1.9,5.6-0.5
				c1.7,1.4,1.9,3.9,0.5,5.6c-4.7,5.6-12.7,18.7-7.7,23.8c1.1,1.2,2.3,1.7,4,1.6c6-0.2,14.7-7.7,20.4-14.2c1.4-1.7,4-1.8,5.6-0.4
				c1.7,1.5,1.8,4,0.4,5.6c-4.4,5-15.7,16.6-26.1,16.9C1646.6,1336.1,1646.5,1336.1,1646.4,1336.1z"/>
			<circle class="st13" cx="1609.3" cy="1165.6" r="9.6"/>
			<circle class="st13" cx="1575.3" cy="1231.2" r="9.6"/>
			<circle class="st13" cx="1590.1" cy="1305" r="9.6"/>
			<circle class="st13" cx="1597.5" cy="1363.9" r="9.6"/>
			<circle class="st13" cx="1669.9" cy="1377" r="9.6"/>
			<circle class="st13" cx="1735.3" cy="1379.6" r="9.6"/>
			<circle class="st13" cx="1796.6" cy="1338.8" r="9.6"/>
			<circle class="st13" cx="1821.5" cy="1285.7" r="9.6"/>
			<circle class="st13" cx="1682.7" cy="1262.8" r="9.6"/>
			<circle class="st13" cx="1727.9" cy="1261.6" r="9.6"/>
		</g>
		<g>
			<path class="st14" d="M1747.6,495.6c-1.5,0-3-0.2-4.4-0.7l-283.7-99.2c-5.3-1.8-8.8-6.8-8.9-12.4l-1.4-134.3
				c-0.1-4.8,2.5-9.3,6.7-11.7L1700,97.3c2-1.2,4.3-1.8,6.6-1.8c2.3,0,4.6,0.6,6.6,1.8l125.9,72.6c5.3,3,7.8,9.3,6.1,15.1
				l-84.9,300.8c-1,3.5-3.4,6.5-6.7,8.2C1751.8,495.1,1749.7,495.6,1747.6,495.6z"/>
			<polygon class="st4" points="1463.9,383.1 1462.5,248.8 1706.6,108.9 1832.5,181.5 1747.6,482.3 			"/>
			<path class="st5" d="M1747.6,486.3c-0.4,0-0.9-0.1-1.3-0.2l-283.7-99.2c-1.6-0.6-2.7-2-2.7-3.7l-1.4-134.3c0-1.4,0.8-2.8,2-3.5
				l244.1-139.9c1.2-0.7,2.7-0.7,4,0l125.9,72.6c1.6,0.9,2.3,2.8,1.8,4.5l-84.9,300.8c-0.3,1.1-1,1.9-2,2.5
				C1748.9,486.2,1748.2,486.3,1747.6,486.3z M1467.9,380.2l277.1,96.9l82.9-293.8l-121.2-69.9l-240.1,137.6L1467.9,380.2z"/>
			<path class="st5" d="M1463.9,387.1c-1.4,0-2.8-0.8-3.5-2.1c-1.1-1.9-0.3-4.4,1.6-5.4L1830.5,178c1.9-1.1,4.4-0.3,5.4,1.6
				c1.1,1.9,0.3,4.4-1.6,5.4l-368.6,201.6C1465.2,386.9,1464.5,387.1,1463.9,387.1z"/>
			<path class="st5" d="M1583.9,321.5c-0.7,0-1.4-0.2-2-0.5l-121.3-68.7c-1.9-1.1-2.6-3.5-1.5-5.4c1.1-1.9,3.5-2.6,5.4-1.5l116,65.6
				l12.9-139.8c0.1-1.3,0.9-2.5,2.1-3.2c1.2-0.6,2.6-0.6,3.8,0l119,66l-15.6-124.6c-0.3-2.2,1.3-4.2,3.5-4.5
				c2.2-0.3,4.2,1.3,4.4,3.5l16.5,132.4c0.2,1.5-0.5,3-1.7,3.8c-1.2,0.8-2.9,0.9-4.2,0.2L1600.7,178l-12.9,139.8
				c-0.1,1.3-0.9,2.5-2.1,3.2C1585.1,321.3,1584.5,321.5,1583.9,321.5z"/>
			<path class="st5" d="M1747.6,486.3c-1,0-2.1-0.4-2.8-1.2L1581,320.3c-1.6-1.6-1.5-4.1,0-5.6c1.6-1.6,4.1-1.5,5.6,0l155.8,156.9
				l-23.3-229.8c-0.2-2.2,1.4-4.1,3.6-4.4c2.2-0.2,4.1,1.4,4.4,3.6l24.5,241c0.2,1.7-0.7,3.3-2.3,4
				C1748.8,486.2,1748.2,486.3,1747.6,486.3z"/>
		</g>
		<g>
			<path class="st6" d="M558.8,227.9c-23.1-37.7-58.3-59.5-101.8-63.2c-34.9-2.9-67.8,6.4-86.2,13.1
				c-15.9-28.4-55.7-84.8-121.9-90.3c-17.5-1.5-35.6,0.8-53.9,6.8c-40.4,13.3-66.9,44.9-76.7,91.6c-20,95.2,36,233.9,127.4,315.9
				c2.6,2.3,5.8,3.7,9.2,4c0.6,0,1.2,0.1,1.7,0.1c122.7-3.4,255.2-73,301.5-158.5C580.7,305.5,581,264.2,558.8,227.9z"/>
			<path class="st15" d="M545.4,236.1c-57-93.1-169.9-43.9-182-38.3c-5.6-12.1-59.8-122.6-163.5-88.5
				c-120.3,39.5-75.1,263.2,56.2,380.9C432.4,485.4,611.6,344.1,545.4,236.1z"/>
			<path class="st5" d="M256.1,494.2c-1,0-1.9-0.4-2.7-1c-88.6-79.4-142.9-213.3-123.7-304.8c8.9-42.3,32.7-71,68.9-82.9
				c100-32.8,155.2,64.2,166.7,87.1c23.6-10.1,128.5-48.3,183.5,41.4c19.9,32.5,19.6,69.8-1.1,107.8
				C503.2,424,375.1,490.9,256.2,494.2C256.1,494.2,256.1,494.2,256.1,494.2z M238.3,106.8c-11.6,0-24,1.9-37.2,6.2
				c-33.4,10.9-55.4,37.6-63.6,76.9c-18.6,88.5,34.1,218.3,120.1,296.1c115.9-3.7,240.1-68.6,283.2-148.1
				c19.2-35.4,19.6-69.9,1.3-99.8c0,0,0,0,0,0c-55.1-89.8-164.6-42.5-176.9-36.8c-2,0.9-4.4,0.1-5.3-1.9
				C354.8,188.8,314.3,106.8,238.3,106.8z"/>
			
				<ellipse transform="matrix(0.3446 -0.9388 0.9388 0.3446 -41.6429 422.6251)" class="st5" cx="281.8" cy="241.1" rx="36" ry="22.7"/>
			
				<ellipse transform="matrix(0.3446 -0.9388 0.9388 0.3446 -6.1085 557.4545)" class="st5" cx="396.2" cy="283.1" rx="36" ry="22.7"/>
			<g>
				<path class="st5" d="M308.4,415.1c-8.6,0-17.6-1.4-26.7-4.6c-59-20.7-55.8-101.7-55.6-105.2c0.1-2.2,2-3.9,4.2-3.8
					c2.2,0.1,3.9,2,3.8,4.2c0,0.8-3.1,78.5,50.3,97.2c8.1,2.8,16,4,23.7,4c43.3,0,77.6-38.4,78-38.9c1.5-1.7,4-1.8,5.6-0.4
					c1.7,1.5,1.8,4,0.4,5.6C390.2,375.4,354.7,415.1,308.4,415.1z"/>
				<path class="st5" d="M216.9,318.8c-0.9,0-1.9-0.3-2.7-0.9c-2.1-1.5-2.6-4.4-1.1-6.5c0.4-0.6,10.8-15.1,29.5-16.9
					c2.6-0.3,4.9,1.6,5.1,4.2c0.2,2.6-1.6,4.9-4.2,5.1c-14.3,1.4-22.6,12.8-22.7,12.9C219.8,318.1,218.4,318.8,216.9,318.8z"/>
				<path class="st5" d="M388.1,391.7c-0.5,0-1.1-0.1-1.6-0.3c-2.4-0.9-3.7-3.6-2.8-6.1c4.6-12.4-3.7-23.4-3.8-23.5
					c-1.6-2.1-1.2-5,0.8-6.6c2.1-1.6,5-1.2,6.6,0.8c0.5,0.6,11.6,15.3,5.2,32.5C391.8,390.5,390,391.7,388.1,391.7z"/>
			</g>
		</g>
		<g>
			<path class="st6" d="M207,1496c-105.3-44.6-154.7-166.6-110.1-272c23.5-55.4,69.7-97.8,127-116.4c47.5-15.4,99-13.2,145,6.3
				c105.3,44.6,154.7,166.6,110.1,272c-21.7,51.2-62.1,90.9-113.8,111.6C314,1518.1,257.8,1517.5,207,1496z"/>
			<path class="st16" d="M364,1125.6c-45-19.1-93.1-19.9-136.2-5.9c-51.8,16.8-96.3,55.2-119.2,109.3
				c-42,99.1,4.3,213.5,103.4,255.4c49.3,20.9,102.5,19.9,148.6,1.4c46.5-18.7,85.8-55.1,106.9-104.8
				C509.3,1281.9,463.1,1167.5,364,1125.6z"/>
			<path class="st17" d="M364,1125.6c-45-19.1-93.1-19.9-136.2-5.9c-51.8,16.8-96.3,55.2-119.2,109.3
				c-42,99.1,4.3,213.5,103.4,255.4c49.3,20.9,102.5,19.9,148.6,1.4c46.5-18.7,85.8-55.1,106.9-104.8
				C509.3,1281.9,463.1,1167.5,364,1125.6z"/>
			
				<ellipse transform="matrix(0.3902 -0.9207 0.9207 0.3902 -964.6019 953.059)" class="st5" cx="237.2" cy="1204.8" rx="21.3" ry="16.6"/>
			
				<ellipse transform="matrix(0.3902 -0.9207 0.9207 0.3902 -932.2587 1126.738)" class="st5" cx="384.5" cy="1267.2" rx="21.3" ry="16.6"/>
			<path class="st5" d="M283.9,1442.5c-17,0-33.9-3.4-49.9-10.2c-33.5-14.2-59.1-41.7-72-77.3c-12.8-35.5-11.5-74.9,3.8-110.9
				c0.8-1.9,3-2.8,5-2c1.9,0.8,2.8,3,2,5c-14.5,34.3-15.8,71.7-3.6,105.4c12.1,33.6,36.2,59.5,67.8,72.9c31.6,13.4,66.9,12.7,99.5-2
				c32.7-14.7,58.7-41.6,73.2-75.9c0.8-1.9,3-2.8,5-2c1.9,0.8,2.8,3,2,5c-15.3,36-42.6,64.4-77.1,79.9
				C321.5,1438.4,302.6,1442.5,283.9,1442.5z"/>
		</g>
		<g>
			<g>
				<g>
					<circle class="st6" cx="1794.8" cy="583.7" r="11.7"/>
				</g>
			</g>
			<g>
				<g>
					<circle class="st6" cx="1869.4" cy="423.7" r="11.7"/>
				</g>
			</g>
			<g>
				<g>
					<circle class="st6" cx="186.7" cy="602.2" r="11.7"/>
				</g>
			</g>
			<g>
				<g>
					<circle class="st6" cx="82.4" cy="413.2" r="11.7"/>
				</g>
			</g>
			<g>
				<g>
					<circle class="st6" cx="533.8" cy="107.6" r="11.7"/>
				</g>
			</g>
			<g>
				<g>
					<circle class="st6" cx="530.4" cy="1222.2" r="11.7"/>
				</g>
			</g>
			<g>
				<g>
					<circle class="st6" cx="569.9" cy="1345.9" r="11.7"/>
				</g>
			</g>
			<g>
				<g>
					<circle class="st6" cx="126.3" cy="1664.2" r="11.7"/>
				</g>
			</g>
			<g>
				<g>
					<circle class="st6" cx="120.3" cy="1547.9" r="11.7"/>
				</g>
			</g>
			<g>
				<g>
					<circle class="st6" cx="1439.3" cy="1883.2" r="11.7"/>
				</g>
			</g>
			<g>
				<g>
					<circle class="st6" cx="1677.1" cy="1919" r="11.7"/>
				</g>
			</g>
			<g>
				<g>
					<circle class="st6" cx="1877.9" cy="1657.2" r="11.7"/>
				</g>
			</g>
		</g>
	</g>
</g>
</svg>
