<?xml version="1.0" encoding="utf-8"?>
<!-- Generator: Adobe Illustrator 26.1.0, SVG Export Plug-In . SVG Version: 6.00 Build 0)  -->
<svg version="1.1" id="Слой_1" xmlns="http://www.w3.org/2000/svg" xmlns:xlink="http://www.w3.org/1999/xlink" x="0px" y="0px"
	 viewBox="0 0 2000 2000" style="enable-background:new 0 0 2000 2000;" xml:space="preserve">
<style type="text/css">
	.st0{fill:#EA76B3;}
	.st1{fill:#47333E;}
	.st2{fill:#9587E6;}
	.st3{fill:#AC98C9;}
	.st4{fill:#FCE096;}
	.st5{fill:#F7C2DE;}
	.st6{fill:#FFFFFF;}
</style>
<g>
	<rect class="st0" width="2000" height="2000"/>
	<g>
		<path class="st1" d="M412.3,1375.2c-20.3,0-34.6-9.8-42.5-29.2c-8.1-19.8-9.9-43.1-12-70.1c-4.6-60.5-11-143.3-97.5-245.3
			c-13.5-15.9-17.6-35.8-11.9-57.4c8.7-32.6,39.3-64.2,74.5-76.9c9.5-3.4,19-5.2,28.1-5.2c18.6,0,35.3,7.2,48.3,20.9
			c23,24.3,33.6,67.8,30.6,126c-5.3,102,2.8,162.8,24.7,185.8c6.7,7,14.6,10.5,24.3,10.5c1.7,0,3.6-0.1,5.4-0.3
			c28.2-3.3,44.4-32.1,61.5-62.5c15.9-28.2,32.3-57.3,60.2-67.8c5.8-2.2,11.5-3.3,17.1-3.3c12.9,0,24.7,6.1,34.1,17.5
			c26.4,31.9,30.9,97.1,21.7,144.9c-12,62.7-62.9,63.2-103.7,63.5c-12.9,0.1-25.1,0.2-35.5,2.1c-12.4,2.3-29.6,10.7-47.9,19.6
			C464.7,1361.4,436.4,1375.2,412.3,1375.2z"/>
		<path class="st2" d="M266.3,1025.5c-34.5-40.7,8.2-103.2,59.3-121.6c51.1-18.4,102.6,15.3,96.4,133.8s3.1,211.4,63.3,204.3
			s69.5-110.3,123.6-130.7c54.1-20.4,76.6,75.6,62.3,150.1c-14.3,74.6-87.8,51.1-132.8,59.2c-44.9,8.2-135.8,84.8-161.4,22.5
			C351.6,1280.8,392.1,1173.7,266.3,1025.5z"/>
		<path class="st1" d="M707.8,1254.3c-0.9,0-1.7-0.1-2.5-0.4c-3.1-1.1-5.3-4-5.4-7.3c-3.9-113.2-51.6-146.5-97.6-178.6
			c-22.3-15.6-43.4-30.3-57.8-53.3c-20.9-33.3-25.5-68.8-12.9-100c11.4-28.4,36.5-49.9,66.9-57.5c5.8-1.4,11.6-2.2,17.3-2.2
			c32.1,0,55.4,22.5,68.6,39.9c12.6-78.6,59.8-107.3,102.3-107.3c52.3,0,100.5,40,109.7,91c22.5,123.6-54.6,217.4-161.2,347.1
			c-6.9,8.4-14,17-21.2,25.8C712.4,1253.2,710.2,1254.3,707.8,1254.3z"/>
		<path class="st2" d="M689.7,918.1c0,0-33.1-67.3-89.3-53.2c-56.2,14.1-91.3,78.3-49.2,145.6s150.6,63.2,156.6,235.9
			c117.4-143.5,203.9-238.6,180.7-366.4C870.4,780.5,701.8,741.4,689.7,918.1z"/>
		<path class="st1" d="M929.7,1385.3c-32.5,0-61-38.5-92.5-124.8c-3-8.1-9.2-17.7-15.9-27.9c-16.1-24.6-36.1-55.2-18.9-84.3
			c9.6-16.3,34.4-54.3,56.8-54.3c4.9,0,14,1.9,19.8,14.7c5.6,12.5,9,32.7,12.6,54.1c3.8,22.6,8.5,50.8,15.3,57.5
			c1.2,1.2,2.1,1.6,2.2,1.6c5.7-0.8,17.1-30.8,13.2-66.1c-2.4-22.4-17.4-186.7-8.7-215.8c5.8-19.7,43.5-26.9,67.4-26.9
			c12.4,0,34.8,1.8,45,13.6c4.1,4.7,5.8,10.5,4.9,16.7c-1.5,10.2-4.2,23-7.6,39.2c-8.4,40-21.2,100.4-28.7,185.9
			c-2.1,23.6-2,50.6-2,76.6c0.1,55.9,0.2,104.2-19.6,119.8C959.4,1375.7,945.9,1385.3,929.7,1385.3z"/>
		<path class="st2" d="M844.7,1257.8c-10.8-29.6-56.5-69.7-35.4-105.5s50.5-67,62.4-40.4c11.9,26.6,14.4,98.8,29.5,114
			c17.9,17.9,33.6-28.8,29.1-71s-16.4-187.9-9-212.7c7.3-24.8,106.4-31.5,101.8,0c-5.1,35-25.7,105.4-36.4,225.5
			c-6.3,71.4,6.7,171-18.6,190.9C937,1383.2,899.7,1408.6,844.7,1257.8z"/>
		<path class="st1" d="M1102.1,1342c-26.7,0-50.1-11.5-64.1-31.6c-35.8-51.2-34.5-122.5-30.2-191c0.4-6.4,10.9-156.8,93.4-189.2
			c10.4-4.1,20.6-6.1,30.5-6.1c18.8,0,35.5,7.4,48.3,21.3c18.2,19.9,26.5,50.8,23.4,87.2c-3.7,43-13.7,86.9-59.3,86.9
			c-7.5,0-16-1.1-25.9-3.4c-3-0.7-5.9-1.1-8.6-1.1c-14.4,0-20.7,9.8-21.8,18.9c-1.3,11,4.4,23.9,20.1,27.7c4.2,1,8.2,1.5,11.8,1.5
			c12.6,0,20.6-6,29.8-13c9.1-6.9,19.4-14.8,34.7-15.6c0.6,0,1.2-0.1,1.7-0.1c10.8,0,20.5,6,27.2,16.9c13.9,22.5,16.8,70.9-9.8,124
			C1183.2,1315.8,1143.4,1342,1102.1,1342C1102.1,1342,1102.1,1342,1102.1,1342z M1119.5,1014.8c-7.4,0-14.4,4.9-19.3,13.5
			c-3.2,5.7-6.4,13.6-3.4,18.8c2.7,4.6,10.7,7.5,20.8,7.5c0.8,0,1.7,0,2.5-0.1c7.7-0.3,13.6-3.6,16.6-9.1c3.2-5.9,2.7-13.3-1.5-20.5
			C1131.5,1018.5,1125.8,1014.8,1119.5,1014.8z"/>
		<path class="st2" d="M1184.7,1142.3c-30.5,1.8-37.7,36.8-78.6,27c-40.9-9.9-32.8-71.9,14-61.1c46.7,10.8,69.2-3.6,75.5-76.4
			c6.3-72.8-36.3-115.8-91.3-94.2c-66.8,26.2-85.7,141.1-88.3,182.3c-4.5,71-4.5,138.4,28.7,186c33.2,47.6,117.7,34.1,151.8-34.1
			C1230.4,1203.4,1215.2,1140.5,1184.7,1142.3z M1093.3,1024.4c12.8-22.6,37.5-22.9,48.9-3.5c11.3,19.4,1,40.5-21.6,41.6
			C1098,1063.5,1077.4,1052.7,1093.3,1024.4z"/>
		<path class="st1" d="M522.8,833.7c-15.3,0-28.6-6.6-36.7-18.2c-19.4-27.8-18.8-65.9-16.5-102.4c0.2-3.4,5.9-84.5,51.3-102.4
			c5.9-2.3,11.7-3.5,17.4-3.5c10.9,0,20.6,4.3,28.1,12.4c10.3,11.2,15,28.4,13.2,48.5c-2.1,24.2-7.9,49-34.8,49
			c-4.2,0-8.9-0.6-14.4-1.9c-1.3-0.3-2.5-0.5-3.7-0.5c-6.2,0-7.4,4.6-7.6,6.6c-0.5,3.8,1.3,8.8,7.7,10.3c1.9,0.5,3.7,0.7,5.3,0.7
			c5.1,0,8.2-2.2,13.3-6.1c4.9-3.8,11.1-8.4,20.2-9c0.4,0,0.8,0,1.1,0c7,0,13.2,3.8,17.5,10.7c8.1,13,9.7,39.3-4.9,68.6
			C568,819.2,545.8,833.7,522.8,833.7C522.8,833.7,522.8,833.7,522.8,833.7z M531.9,662.4c-2.4,0-5,1.9-6.8,5.1
			c-2.1,3.8-2,5.7-1.8,6c0.4,0.6,2.8,2,7.6,2c0.4,0,0.8,0,1.2,0c2.6-0.1,4.6-1.1,5.5-2.8c1-1.9,0.8-4.4-0.7-7
			C535.6,663.6,533.8,662.4,531.9,662.4z"/>
		<path class="st2" d="M566,725.4c-16,0.9-19.8,19.3-41.2,14.1c-21.4-5.2-17.2-37.6,7.3-32c24.5,5.6,36.2-1.9,39.5-40
			c3.3-38.1-19-60.7-47.8-49.3c-35,13.7-44.9,73.9-46.3,95.5c-2.4,37.2-2.4,72.4,15.1,97.4c17.4,24.9,61.6,17.9,79.5-17.9
			C589.9,757.4,582,724.4,566,725.4z M518.2,663.7c6.7-11.9,19.7-12,25.6-1.8c5.9,10.2,0.5,21.2-11.3,21.8
			C520.6,684.1,509.8,678.5,518.2,663.7z"/>
		<path class="st1" d="M1298.1,1353.5c-8.5,0-16.1-3.4-22.6-10.1c-27.5-28.2-38.6-124.5-33.9-294.2c1.5-56.4-13.7-217.1-20.9-259.1
			c-2-11.4,1.7-23.1,10.6-33.6c15.4-18.3,43.8-30.5,70.7-30.5c26.3,0,46.4,11.6,56.7,32.5c16.6,33.9,8,100-2,176.6
			c-7.4,56.7-15.7,121-13.5,176.1c1.4,34.6,3.8,64.8,6,91.4c5.9,72.5,9.5,116.3-19.7,137.9C1321.9,1346,1310.4,1353.5,1298.1,1353.5
			z"/>
		<path class="st2" d="M1249.5,1049.4c1.5-55.3-13.5-216.7-21-260.7c-7.5-44,95.3-83.4,123-26.8c27.7,56.6-21.4,222.6-16.3,349.6
			c5,127,24.9,196.5-10.5,222.6C1290.5,1359.3,1240.7,1371.3,1249.5,1049.4z"/>
		<path class="st1" d="M1486,1367.4c-7.7,0-15.7-1.1-23.9-3.2c-49.4-12.7-88.8-51.8-105.3-104.8c-12.9-41.4-8.5-82.9,11.3-105.6
			c10.2-11.8,21.2-17.7,32.5-17.7c32,0,54.9,48.5,61.8,79.1c3.8,16.7,15.1,29.3,26.4,29.3c0,0,0,0,0,0c9.1,0,17.8-8.6,24.3-24.2
			c18.7-44.7,3.7-94.2-36.6-120.3c-1.1-0.7-111.4-75.2-102.7-136.3c5.9-41,46.9-72.8,78.3-72.8c11.2,0,20.4,4.4,25.8,12.3
			c7.2,10.5,16,32.1,26.1,57.1c10.8,26.6,30.8,76,40,79.3l0,0c3.3,0,13.9-9.1,26.3-37.1c10.6-23.8,18.1-51.7,19.1-71
			c2.5-45.7,24.6-71.9,60.7-71.9c12,0,25.5,3,40.3,8.8c11.1,4.4,19,12.3,23.6,23.5c18.8,45.8-23.3,140.7-57.1,217
			c-6.9,15.7-13.5,30.5-18.9,43.4c-5.9,14.2-11.7,30-17.8,46.8C1591.4,1277.9,1558.8,1367.4,1486,1367.4
			C1486,1367.4,1486,1367.4,1486,1367.4z"/>
		<path class="st2" d="M1480.7,1093.2c-19.9-12.9-106.3-78.5-99.1-128.5c7.1-50,72.2-82.5,89.6-57.1c17.4,25.4,50,134,70.6,139.6
			c20.6,5.6,53.1-71.2,55.5-115.3c2.4-44.1,25.9-81.5,90.1-56.2c64.2,25.4-21.1,187.5-56.8,273.5s-67.4,232.6-166.5,207.3
			c-99.1-25.4-129.3-152.3-90-197.5s72.6,23,80.5,57.9c7.9,34.9,45.2,55.5,65.8,6.3C1540.9,1174.1,1523.5,1120.9,1480.7,1093.2z"/>
		<path class="st1" d="M370.1,854.3c-13.8,0-28.7-1.8-44.2-5.4c-0.8-0.2-1.5-0.5-2.2-0.8c-23.8-13.5-28.2-54.6-32.1-90.9
			c-0.6-5.7-1.2-11.4-1.9-16.7c-0.5-4.4-1.2-9.1-1.8-14.2c-6.4-48.4-10.6-89.7,3.8-105.7c9.1-10.1,31.2-17.1,53.7-17.1
			c29.9,0,53.2,12,64.1,33c14.1,27.2,3.5,53.3-9.7,70.6c18.3,1.6,44.9,10.1,58.9,43.5c9.3,22.2,7.1,47-5.8,66.4
			C436.9,841.1,407.5,854.3,370.1,854.3C370.1,854.3,370.1,854.3,370.1,854.3z M378.7,746.4c-1.3,2.2-3.3,8.4-2.3,16
			c0.7,5.8,3.4,13.7,12,18.7c3,1.7,6.1,2.6,9.3,2.6c8.6,0,15.8-6.3,18.8-12.1c1-1.9,3-6.7,0.6-10.2c-9.7-13.7-27-15.2-33.9-15.2
			C381.7,746.2,380.2,746.3,378.7,746.4z M356.6,681.2c0.1,0,0.3,0,0.7,0c4.3,0,11.9-4.3,16.3-10.8c1.9-2.8,3.9-7,2.3-11
			c-3.8-9.6-15.3-12.1-21.5-12.1c-1.7,0-2.9,0.2-3.7,0.3c-1.1,2.7-1.8,10.6,0.2,20.3C352.7,676.5,355.5,680.6,356.6,681.2
			C356.5,681.2,356.5,681.2,356.6,681.2z"/>
		<path class="st2" d="M451.4,753.7c-20.5-48.9-70.9-37.8-70.9-37.8s43.4-34.7,22.1-75.7c-21.3-41-89.9-30.7-104.8-14.2
			c-15,16.6-4.4,78.1,0,113.5c4.6,37.6,6.3,88.3,30,101.7C430.9,864.8,471.9,802.6,451.4,753.7z M354.1,688.8
			c-12.1-3.5-17.1-44.8-7.1-48.4c8.1-2.8,29.7-0.5,36.3,16.1S366.1,692.3,354.1,688.8z M384.4,788c-24.3-14.1-16.2-48.4-8.2-49.4
			c15.9-1.8,36.3,2.5,47.4,18.1C434.7,772.4,408.7,802.1,384.4,788z"/>
	</g>
	<g>
		<path class="st1" d="M434.2,1342.2c-20.3,0-34.6-9.8-42.5-29.2c-8.1-19.8-9.9-43.1-12-70.1c-4.6-60.5-11-143.3-97.5-245.3
			c-13.5-15.9-17.6-35.8-11.9-57.4c8.7-32.6,39.3-64.2,74.5-76.9c9.5-3.4,19-5.2,28.1-5.2c18.6,0,35.3,7.2,48.3,20.9
			c23,24.3,33.6,67.8,30.6,126c-5.3,102,2.8,162.8,24.7,185.8c6.7,7,14.6,10.5,24.3,10.5c1.7,0,3.6-0.1,5.4-0.3
			c28.2-3.3,44.4-32.1,61.5-62.5c15.9-28.2,32.3-57.3,60.2-67.8c5.8-2.2,11.5-3.3,17.1-3.3c12.9,0,24.7,6.1,34.1,17.5
			c26.4,31.9,30.9,97.1,21.7,144.9c-12,62.7-62.9,63.2-103.7,63.5c-12.9,0.1-25.1,0.2-35.5,2.1c-12.4,2.3-29.6,10.7-47.9,19.6
			C486.6,1328.4,458.3,1342.2,434.2,1342.2z"/>
		<path class="st3" d="M288.3,992.5c-34.5-40.7,8.2-103.2,59.3-121.6c51.1-18.4,102.6,15.3,96.4,133.8s3.1,211.4,63.3,204.3
			s69.5-110.3,123.6-130.7c54.1-20.4,76.6,75.6,62.3,150.1c-14.3,74.6-87.8,51.1-132.8,59.2c-44.9,8.2-135.8,84.8-161.4,22.5
			S414,1140.7,288.3,992.5z"/>
		<path class="st1" d="M729.7,1221.3c-0.9,0-1.7-0.1-2.5-0.4c-3.1-1.1-5.3-4-5.4-7.3c-3.9-113.2-51.6-146.5-97.6-178.6
			c-22.3-15.6-43.4-30.3-57.8-53.3c-20.9-33.3-25.5-68.8-12.9-100c11.4-28.4,36.5-49.9,66.9-57.5c5.8-1.4,11.6-2.2,17.3-2.2
			c32.1,0,55.4,22.5,68.6,39.9c12.6-78.6,59.8-107.3,102.3-107.3c52.3,0,100.5,40,109.7,91c22.5,123.6-54.6,217.4-161.2,347.1
			c-6.9,8.4-14,17-21.2,25.8C734.4,1220.2,732.1,1221.3,729.7,1221.3z"/>
		<path class="st3" d="M711.7,885.1c0,0-33.1-67.3-89.3-53.2c-56.2,14.1-91.3,78.3-49.2,145.6s150.6,63.2,156.6,235.9
			c117.4-143.5,203.9-238.6,180.7-366.4C892.3,747.5,723.7,708.4,711.7,885.1z"/>
		<path class="st1" d="M951.6,1352.3c-32.5,0-61-38.5-92.5-124.8c-3-8.1-9.2-17.7-15.9-27.9c-16.1-24.6-36.1-55.2-18.9-84.3
			c9.6-16.3,34.4-54.3,56.8-54.3c4.9,0,14,1.9,19.8,14.7c5.6,12.5,9,32.7,12.6,54.1c3.8,22.6,8.5,50.8,15.3,57.5
			c1.2,1.2,2.1,1.6,2.2,1.6c5.7-0.8,17.1-30.8,13.2-66.1c-2.4-22.4-17.4-186.7-8.7-215.8c5.8-19.7,43.5-26.9,67.4-26.9
			c12.4,0,34.8,1.8,45,13.6c4.1,4.7,5.8,10.5,4.9,16.7c-1.5,10.2-4.2,23-7.6,39.2c-8.4,40-21.2,100.4-28.7,185.9
			c-2.1,23.6-2,50.6-2,76.6c0.1,55.9,0.2,104.2-19.6,119.8C981.3,1342.7,967.8,1352.3,951.6,1352.3z"/>
		<path class="st3" d="M866.6,1224.8c-10.8-29.6-56.5-69.7-35.4-105.5s50.5-67,62.4-40.4c11.9,26.6,14.4,98.8,29.5,114
			c17.9,17.9,33.6-28.8,29.1-71s-16.4-187.9-9-212.7s106.4-31.5,101.8,0c-5.1,35-25.7,105.4-36.4,225.5
			c-6.3,71.4,6.7,171-18.6,190.9C959,1350.2,921.6,1375.6,866.6,1224.8z"/>
		<path class="st1" d="M1124,1309c-26.7,0-50.1-11.5-64.1-31.6c-35.8-51.2-34.5-122.5-30.2-191c0.4-6.4,10.9-156.8,93.4-189.2
			c10.4-4.1,20.6-6.1,30.5-6.1c18.8,0,35.5,7.4,48.3,21.3c18.2,19.9,26.5,50.8,23.4,87.2c-3.7,43-13.7,86.9-59.3,86.9
			c-7.5,0-16-1.1-25.9-3.4c-3-0.7-5.9-1.1-8.6-1.1c-14.4,0-20.7,9.8-21.8,18.9c-1.3,11,4.4,23.9,20.1,27.7c4.2,1,8.2,1.5,11.8,1.5
			c12.6,0,20.6-6,29.8-13c9.1-6.9,19.4-14.8,34.7-15.6c0.6,0,1.2-0.1,1.7-0.1c10.8,0,20.5,6,27.2,16.9c13.9,22.5,16.8,70.9-9.8,124
			C1205.1,1282.8,1165.3,1309,1124,1309C1124,1309,1124,1309,1124,1309z M1141.5,981.8c-7.4,0-14.4,4.9-19.3,13.5
			c-3.2,5.7-6.4,13.6-3.4,18.8c2.7,4.6,10.7,7.5,20.8,7.5c0.8,0,1.7,0,2.5-0.1c7.7-0.3,13.6-3.6,16.6-9.1c3.2-5.9,2.7-13.3-1.5-20.5
			C1153.5,985.5,1147.7,981.8,1141.5,981.8z"/>
		<path class="st3" d="M1206.6,1109.3c-30.5,1.8-37.7,36.8-78.6,27c-40.9-9.9-32.8-71.9,14-61.1c46.7,10.8,69.2-3.6,75.5-76.4
			c6.3-72.8-36.3-115.8-91.3-94.2c-66.8,26.2-85.7,141.1-88.3,182.3c-4.5,71-4.5,138.4,28.7,186c33.2,47.6,117.7,34.1,151.8-34.1
			C1252.3,1170.4,1237.2,1107.5,1206.6,1109.3z M1115.2,991.4c12.8-22.6,37.5-22.9,48.9-3.5c11.3,19.4,1,40.5-21.6,41.6
			C1119.9,1030.5,1099.3,1019.7,1115.2,991.4z"/>
		<path class="st1" d="M544.7,800.7c-15.3,0-28.6-6.6-36.7-18.2c-19.4-27.8-18.8-65.9-16.5-102.4c0.2-3.4,5.9-84.5,51.3-102.4
			c5.9-2.3,11.7-3.5,17.4-3.5c10.9,0,20.6,4.3,28.1,12.4c10.3,11.2,15,28.4,13.2,48.5c-2.1,24.2-7.9,49-34.8,49
			c-4.2,0-8.9-0.6-14.4-1.9c-1.3-0.3-2.5-0.5-3.7-0.5c-6.2,0-7.4,4.6-7.6,6.6c-0.5,3.8,1.3,8.8,7.7,10.3c1.9,0.5,3.7,0.7,5.3,0.7
			c5.1,0,8.2-2.2,13.3-6.1c4.9-3.8,11.1-8.4,20.2-9c0.4,0,0.8,0,1.1,0c7,0,13.2,3.8,17.5,10.7c8.1,13,9.7,39.3-4.9,68.6
			C589.9,786.2,567.8,800.7,544.7,800.7C544.7,800.7,544.7,800.7,544.7,800.7z M553.8,629.4c-2.4,0-5,1.9-6.8,5.1
			c-2.1,3.8-2,5.7-1.8,6c0.4,0.6,2.8,2,7.6,2c0.4,0,0.8,0,1.2,0c2.6-0.1,4.6-1.1,5.5-2.8c1-1.9,0.8-4.4-0.7-7
			C557.5,630.6,555.7,629.4,553.8,629.4z"/>
		<path class="st3" d="M587.9,692.4c-16,0.9-19.8,19.3-41.2,14.1c-21.4-5.2-17.2-37.6,7.3-32c24.5,5.6,36.2-1.9,39.5-40
			c3.3-38.1-19-60.7-47.8-49.3c-35,13.7-44.9,73.9-46.3,95.5c-2.4,37.2-2.4,72.4,15.1,97.4c17.4,24.9,61.6,17.9,79.5-17.9
			C611.8,724.4,603.9,691.4,587.9,692.4z M540.1,630.6c6.7-11.9,19.7-12,25.6-1.8c5.9,10.2,0.5,21.2-11.3,21.8
			C542.5,651.1,531.7,645.5,540.1,630.6z"/>
		<path class="st1" d="M1320.1,1320.4c-8.5,0-16.1-3.4-22.6-10.1c-27.5-28.2-38.6-124.5-33.9-294.2c1.5-56.4-13.7-217.1-20.9-259.1
			c-2-11.4,1.7-23.1,10.6-33.6c15.4-18.3,43.8-30.5,70.7-30.5c26.3,0,46.4,11.6,56.7,32.5c16.6,33.9,8,100-2,176.6
			c-7.4,56.7-15.7,121-13.5,176.1c1.4,34.6,3.8,64.8,6,91.4c5.9,72.5,9.5,116.3-19.7,137.9C1343.8,1313,1332.3,1320.4,1320.1,1320.4
			z"/>
		<path class="st3" d="M1271.5,1016.4c1.5-55.3-13.5-216.7-21-260.7c-7.5-44,95.3-83.4,123-26.8s-21.4,222.6-16.3,349.6
			c5,127,24.9,196.5-10.5,222.6C1312.4,1326.3,1262.6,1338.3,1271.5,1016.4z"/>
		<path class="st1" d="M1507.9,1334.3c-7.7,0-15.7-1.1-23.9-3.2c-49.4-12.7-88.8-51.8-105.3-104.8c-12.9-41.4-8.5-82.9,11.3-105.6
			c10.2-11.8,21.2-17.7,32.5-17.7c32,0,54.9,48.5,61.8,79.1c3.8,16.7,15.1,29.3,26.4,29.3c0,0,0,0,0,0c9.1,0,17.8-8.6,24.3-24.2
			c18.7-44.7,3.7-94.2-36.6-120.3c-1.1-0.7-111.4-75.2-102.7-136.3c5.9-41,46.9-72.8,78.3-72.8c11.2,0,20.4,4.4,25.8,12.3
			c7.2,10.5,16,32.1,26.1,57.1c10.8,26.6,30.8,76,40,79.3l0,0c3.3,0,13.9-9.1,26.3-37.1c10.6-23.8,18.1-51.7,19.1-71
			c2.5-45.7,24.6-71.9,60.7-71.9c12,0,25.5,3,40.3,8.8c11.1,4.4,19,12.3,23.6,23.5c18.8,45.8-23.3,140.7-57.1,217
			c-6.9,15.7-13.5,30.5-18.9,43.4c-5.9,14.2-11.7,30-17.8,46.8C1613.3,1244.9,1580.7,1334.3,1507.9,1334.3
			C1507.9,1334.3,1507.9,1334.3,1507.9,1334.3z"/>
		<path class="st3" d="M1502.6,1060.2c-19.9-12.9-106.3-78.5-99.1-128.5c7.1-50,72.2-82.5,89.6-57.1c17.4,25.4,50,134,70.6,139.6
			s53.1-71.2,55.5-115.3c2.4-44.1,25.9-81.5,90.1-56.2s-21.1,187.5-56.8,273.5c-35.7,85.9-67.4,232.6-166.5,207.3
			c-99.1-25.4-129.3-152.3-90-197.5s72.6,23,80.5,57.9c7.9,34.9,45.2,55.5,65.8,6.3C1562.9,1141.1,1545.4,1087.9,1502.6,1060.2z"/>
		<path class="st1" d="M392,821.3c-13.8,0-28.7-1.8-44.2-5.4c-0.8-0.2-1.5-0.5-2.2-0.8c-23.8-13.5-28.2-54.6-32.1-90.9
			c-0.6-5.7-1.2-11.4-1.9-16.7c-0.5-4.4-1.2-9.1-1.8-14.2c-6.4-48.4-10.6-89.7,3.8-105.7c9.1-10.1,31.2-17.1,53.7-17.1
			c29.9,0,53.2,12,64.1,33c14.1,27.2,3.5,53.3-9.7,70.6c18.3,1.6,44.9,10.1,58.9,43.5c9.3,22.2,7.1,47-5.8,66.4
			C458.9,808.1,429.5,821.3,392,821.3C392,821.3,392,821.3,392,821.3z M400.7,713.4c-1.3,2.2-3.3,8.4-2.3,16
			c0.7,5.8,3.4,13.7,12,18.7c3,1.7,6.1,2.6,9.3,2.6c8.6,0,15.8-6.3,18.8-12.1c1-1.9,3-6.7,0.6-10.2c-9.7-13.7-27-15.2-33.9-15.2
			C403.6,713.2,402.1,713.3,400.7,713.4z M378.5,648.2c0.1,0,0.3,0,0.7,0c4.3,0,11.9-4.3,16.3-10.8c1.9-2.8,3.9-7,2.3-11
			c-3.8-9.6-15.3-12.1-21.5-12.1c-1.7,0-2.9,0.2-3.7,0.3c-1.1,2.7-1.8,10.6,0.2,20.3C374.6,643.5,377.4,647.6,378.5,648.2
			C378.4,648.2,378.4,648.2,378.5,648.2z"/>
		<path class="st3" d="M473.3,720.7c-20.5-48.9-70.9-37.8-70.9-37.8s43.4-34.7,22.1-75.7c-21.3-41-89.9-30.7-104.8-14.2
			c-15,16.6-4.4,78.1,0,113.5c4.6,37.6,6.3,88.3,30,101.7C452.8,831.8,493.8,769.6,473.3,720.7z M376,655.8
			c-12.1-3.5-17.1-44.8-7.1-48.4c8.1-2.8,29.7-0.5,36.3,16.1S388.1,659.3,376,655.8z M406.3,755c-24.3-14.1-16.2-48.4-8.2-49.4
			c15.9-1.8,36.3,2.5,47.4,18.1C456.6,739.4,430.6,769.1,406.3,755z"/>
	</g>
	<g>
		<path class="st1" d="M454.5,1313.2c-20.3,0-34.6-9.8-42.5-29.2c-8.1-19.8-9.9-43.1-12-70.1c-4.6-60.5-11-143.3-97.5-245.3
			c-13.5-15.9-17.6-35.8-11.9-57.4c8.7-32.6,39.3-64.2,74.5-76.9c9.5-3.4,19-5.2,28.1-5.2c18.6,0,35.3,7.2,48.3,20.9
			c23,24.3,33.6,67.8,30.6,126c-5.3,102,2.8,162.8,24.7,185.8c6.7,7,14.6,10.5,24.3,10.5c1.7,0,3.6-0.1,5.4-0.3
			c28.2-3.3,44.4-32.1,61.5-62.5c15.9-28.2,32.3-57.3,60.2-67.8c5.8-2.2,11.5-3.3,17.1-3.3c12.9,0,24.7,6.1,34.1,17.5
			c26.4,31.9,30.9,97.1,21.7,144.9c-12,62.7-62.9,63.2-103.7,63.5c-12.9,0.1-25.1,0.2-35.5,2.1c-12.4,2.3-29.6,10.7-47.9,19.6
			C506.9,1299.3,478.6,1313.2,454.5,1313.2z"/>
		<path class="st4" d="M308.6,963.4c-34.5-40.7,8.2-103.2,59.3-121.6s102.6,15.3,96.4,133.8s3.1,211.4,63.3,204.3
			c60.3-7.1,69.5-110.3,123.6-130.7c54.1-20.4,76.6,75.6,62.3,150.1c-14.3,74.6-87.8,51.1-132.8,59.2
			c-44.9,8.2-135.8,84.8-161.4,22.5C393.8,1218.7,434.3,1111.6,308.6,963.4z"/>
		<path class="st1" d="M750,1192.2c-0.9,0-1.7-0.1-2.5-0.4c-3.1-1.1-5.3-4-5.4-7.3c-3.9-113.2-51.6-146.5-97.6-178.6
			c-22.3-15.6-43.4-30.3-57.8-53.3c-20.9-33.3-25.5-68.8-12.9-100c11.4-28.4,36.5-49.9,66.9-57.5c5.8-1.4,11.6-2.2,17.3-2.2
			c32.1,0,55.4,22.5,68.6,39.9c12.6-78.6,59.8-107.3,102.3-107.3c52.3,0,100.5,40,109.7,91C961,940,884,1033.8,777.4,1163.5
			c-6.9,8.4-14,17-21.2,25.8C754.7,1191.2,752.4,1192.2,750,1192.2z"/>
		<path class="st4" d="M732,856c0,0-33.1-67.3-89.3-53.2c-56.2,14.1-91.3,78.3-49.2,145.6S744,1011.6,750,1184.2
			c117.4-143.5,203.9-238.6,180.7-366.4C912.6,718.5,744,679.3,732,856z"/>
		<path class="st1" d="M971.9,1323.2c-32.5,0-61-38.5-92.5-124.8c-3-8.1-9.2-17.7-15.9-27.9c-16.1-24.6-36.1-55.2-18.9-84.3
			c9.6-16.3,34.4-54.3,56.8-54.3c4.9,0,14,1.9,19.8,14.7c5.6,12.5,9,32.7,12.6,54.1c3.8,22.6,8.5,50.8,15.3,57.5
			c1.2,1.2,2.1,1.6,2.2,1.6c5.7-0.8,17.1-30.8,13.2-66.1c-2.4-22.4-17.4-186.7-8.7-215.8c5.8-19.7,43.5-26.9,67.4-26.9
			c12.4,0,34.8,1.8,45,13.6c4.1,4.7,5.8,10.5,4.9,16.7c-1.5,10.2-4.2,23-7.6,39.2c-8.4,40-21.2,100.4-28.7,185.9
			c-2.1,23.6-2,50.6-2,76.6c0.1,55.9,0.2,104.2-19.6,119.8C1001.6,1313.6,988.1,1323.2,971.9,1323.2z"/>
		<path class="st4" d="M886.9,1195.7c-10.8-29.6-56.5-69.7-35.4-105.5s50.5-67,62.4-40.4c11.9,26.6,14.4,98.8,29.5,114
			c17.9,17.9,33.6-28.8,29.1-71s-16.4-187.9-9-212.7c7.3-24.8,106.4-31.5,101.8,0c-5.1,35-25.7,105.4-36.4,225.5
			c-6.3,71.4,6.7,171-18.6,190.9C979.2,1321.1,941.9,1346.6,886.9,1195.7z"/>
		<path class="st1" d="M1144.3,1279.9c-26.7,0-50.1-11.5-64.1-31.6c-35.8-51.2-34.5-122.5-30.2-191c0.4-6.4,10.9-156.8,93.4-189.2
			c10.4-4.1,20.6-6.1,30.5-6.1c18.8,0,35.5,7.4,48.3,21.3c18.2,19.9,26.5,50.8,23.4,87.2c-3.7,43-13.7,86.9-59.3,86.9
			c-7.5,0-16-1.1-25.9-3.4c-3-0.7-5.9-1.1-8.6-1.1c-14.4,0-20.7,9.8-21.8,18.9c-1.3,11,4.4,23.9,20.1,27.7c4.2,1,8.2,1.5,11.8,1.5
			c12.6,0,20.6-6,29.8-13c9.1-6.9,19.4-14.8,34.7-15.6c0.6,0,1.2-0.1,1.7-0.1c10.8,0,20.5,6,27.2,16.9c13.9,22.5,16.8,70.9-9.8,124
			C1225.4,1253.7,1185.6,1279.9,1144.3,1279.9C1144.3,1279.9,1144.3,1279.9,1144.3,1279.9z M1161.8,952.7c-7.4,0-14.4,4.9-19.3,13.5
			c-3.2,5.7-6.4,13.6-3.4,18.8c2.7,4.6,10.7,7.5,20.8,7.5c0.8,0,1.7,0,2.5-0.1c7.7-0.3,13.6-3.6,16.6-9.1c3.2-5.9,2.7-13.3-1.5-20.5
			C1173.8,956.4,1168,952.7,1161.8,952.7z"/>
		<path class="st4" d="M1226.9,1080.2c-30.5,1.8-37.7,36.8-78.6,27c-40.9-9.9-32.8-71.9,14-61.1c46.7,10.8,69.2-3.6,75.5-76.4
			c6.3-72.8-36.3-115.8-91.3-94.2c-66.8,26.2-85.7,141.1-88.3,182.3c-4.5,71-4.5,138.4,28.7,186c33.2,47.6,117.7,34.1,151.8-34.1
			C1272.6,1141.3,1257.4,1078.4,1226.9,1080.2z M1135.5,962.3c12.8-22.6,37.5-22.9,48.9-3.5c11.3,19.4,1,40.5-21.6,41.6
			C1140.2,1001.4,1119.6,990.6,1135.5,962.3z"/>
		<path class="st1" d="M565,771.7c-15.3,0-28.6-6.6-36.7-18.2c-19.4-27.8-18.8-65.9-16.5-102.4c0.2-3.4,5.9-84.5,51.3-102.4
			c5.9-2.3,11.7-3.5,17.4-3.5c10.9,0,20.6,4.3,28.1,12.4c10.3,11.2,15,28.4,13.2,48.5c-2.1,24.2-7.9,49-34.8,49
			c-4.2,0-8.9-0.6-14.4-1.9c-1.3-0.3-2.5-0.5-3.7-0.5c-6.2,0-7.4,4.6-7.6,6.6c-0.5,3.8,1.3,8.8,7.7,10.3c1.9,0.5,3.7,0.7,5.3,0.7
			c5.1,0,8.2-2.2,13.3-6.1c4.9-3.8,11.1-8.4,20.2-9c0.4,0,0.8,0,1.1,0c7,0,13.2,3.8,17.5,10.7c8.1,13,9.7,39.3-4.9,68.6
			C610.2,757.1,588.1,771.7,565,771.7C565,771.7,565,771.7,565,771.7z M574.1,600.4c-2.4,0-5,1.9-6.8,5.1c-2.1,3.8-2,5.7-1.8,6
			c0.4,0.6,2.8,2,7.6,2c0.4,0,0.8,0,1.2,0c2.6-0.1,4.6-1.1,5.5-2.8c1-1.9,0.8-4.4-0.7-7C577.8,601.6,576,600.4,574.1,600.4z"/>
		<path class="st4" d="M608.2,663.3c-16,0.9-19.8,19.3-41.2,14.1c-21.4-5.2-17.2-37.6,7.3-32c24.5,5.6,36.2-1.9,39.5-40
			c3.3-38.1-19-60.7-47.8-49.3c-35,13.7-44.9,73.9-46.3,95.5c-2.4,37.2-2.4,72.4,15.1,97.4c17.4,24.9,61.6,17.9,79.5-17.9
			C632.1,695.3,624.2,662.4,608.2,663.3z M560.4,601.6c6.7-11.9,19.7-12,25.6-1.8c5.9,10.2,0.5,21.2-11.3,21.8
			C562.8,622,552,616.4,560.4,601.6z"/>
		<path class="st1" d="M1340.4,1291.4c-8.5,0-16.1-3.4-22.6-10.1c-27.5-28.2-38.6-124.5-33.9-294.2c1.5-56.4-13.7-217.1-20.9-259.1
			c-2-11.4,1.7-23.1,10.6-33.6c15.4-18.3,43.8-30.5,70.7-30.5c26.3,0,46.4,11.6,56.7,32.5c16.6,33.9,8,100-2,176.6
			c-7.4,56.7-15.7,121-13.5,176.1c1.4,34.6,3.8,64.8,6,91.4c5.9,72.5,9.5,116.3-19.7,137.9
			C1364.1,1283.9,1352.6,1291.4,1340.4,1291.4z"/>
		<path class="st4" d="M1291.7,987.3c1.5-55.3-13.5-216.7-21-260.7c-7.5-44,95.3-83.4,123-26.8s-21.4,222.6-16.3,349.6
			c5,127,24.9,196.5-10.5,222.6C1332.7,1297.2,1282.9,1309.2,1291.7,987.3z"/>
		<path class="st1" d="M1528.2,1305.3c-7.7,0-15.7-1.1-23.9-3.2c-49.4-12.7-88.8-51.8-105.3-104.8c-12.9-41.4-8.5-82.9,11.3-105.6
			c10.2-11.8,21.2-17.7,32.5-17.7c32,0,54.9,48.5,61.8,79.1c3.8,16.7,15.1,29.3,26.4,29.3c0,0,0,0,0,0c9.1,0,17.8-8.6,24.3-24.2
			c18.7-44.7,3.7-94.2-36.6-120.3c-1.1-0.7-111.4-75.2-102.7-136.3c5.9-41,46.9-72.8,78.3-72.8c11.2,0,20.4,4.4,25.8,12.3
			c7.2,10.5,16,32.1,26.1,57.1c10.8,26.6,30.8,76,40,79.3l0,0c3.3,0,13.9-9.1,26.3-37.1c10.6-23.8,18.1-51.7,19.1-71
			c2.5-45.7,24.6-71.9,60.7-71.9c12,0,25.5,3,40.3,8.8c11.1,4.4,19,12.3,23.6,23.5c18.8,45.8-23.3,140.7-57.1,217
			c-6.9,15.7-13.5,30.5-18.9,43.4c-5.9,14.2-11.7,30-17.8,46.8C1633.6,1215.8,1601,1305.3,1528.2,1305.3
			C1528.2,1305.3,1528.2,1305.3,1528.2,1305.3z"/>
		<path class="st4" d="M1522.9,1031.1c-19.9-12.9-106.3-78.5-99.1-128.5c7.1-50,72.2-82.5,89.6-57.1c17.4,25.4,50,134,70.6,139.6
			s53.1-71.2,55.5-115.3c2.4-44.1,25.9-81.5,90.1-56.2s-21.1,187.5-56.8,273.5s-67.4,232.6-166.5,207.3
			c-99.1-25.4-129.3-152.3-90-197.5c39.3-45.2,72.6,23,80.5,57.9c7.9,34.9,45.2,55.5,65.8,6.3
			C1583.2,1112,1565.7,1058.9,1522.9,1031.1z"/>
		<path class="st1" d="M412.3,792.3c-13.8,0-28.7-1.8-44.2-5.4c-0.8-0.2-1.5-0.5-2.2-0.8c-23.8-13.5-28.2-54.6-32.1-90.9
			c-0.6-5.7-1.2-11.4-1.9-16.7c-0.5-4.4-1.2-9.1-1.8-14.2c-6.4-48.4-10.6-89.7,3.8-105.7c9.1-10.1,31.2-17.1,53.7-17.1
			c29.9,0,53.2,12,64.1,33c14.1,27.2,3.5,53.3-9.7,70.6c18.3,1.6,44.9,10.1,58.9,43.5c9.3,22.2,7.1,47-5.8,66.4
			C479.2,779,449.7,792.3,412.3,792.3C412.3,792.3,412.3,792.3,412.3,792.3z M421,684.3c-1.3,2.2-3.3,8.4-2.3,16
			c0.7,5.8,3.4,13.7,12,18.7c3,1.7,6.1,2.6,9.3,2.6c8.6,0,15.8-6.3,18.8-12.1c1-1.9,3-6.7,0.6-10.2c-9.7-13.7-27-15.2-33.9-15.2
			C423.9,684.1,422.4,684.2,421,684.3z M398.8,619.1c0.1,0,0.3,0,0.7,0c4.3,0,11.9-4.3,16.3-10.8c1.9-2.8,3.9-7,2.3-11
			c-3.8-9.6-15.3-12.1-21.5-12.1c-1.7,0-2.9,0.2-3.7,0.3c-1.1,2.7-1.8,10.6,0.2,20.3C394.9,614.4,397.7,618.5,398.8,619.1
			C398.7,619.1,398.7,619.1,398.8,619.1z"/>
		<path class="st4" d="M493.6,691.6c-20.5-48.9-70.9-37.8-70.9-37.8s43.4-34.7,22.1-75.7c-21.3-41-89.9-30.7-104.8-14.2
			c-15,16.6-4.4,78.1,0,113.5c4.6,37.6,6.3,88.3,30,101.7C473.1,802.8,514.1,740.5,493.6,691.6z M396.3,626.7
			c-12.1-3.5-17.1-44.8-7.1-48.4c8.1-2.8,29.7-0.5,36.3,16.1S408.4,630.2,396.3,626.7z M426.6,725.9c-24.3-14.1-16.2-48.4-8.2-49.4
			c15.9-1.8,36.3,2.5,47.4,18.1C476.9,710.3,450.9,740,426.6,725.9z"/>
	</g>
	<g>
		<path class="st5" d="M1583.5,614.4c0,0-50.2-50.8-66.8-36.6c-16.5,14.2,53.3,87.4,104.1,120.1c31.8-62,13.2-148.6-5.4-152.4
			C1596.9,541.7,1586.2,566.3,1583.5,614.4z"/>
		<path class="st1" d="M1621.9,701.7l-2.5-1.6c-45.6-29.3-106.1-90.4-107.8-115.1c-0.3-5,1.6-7.8,3.4-9.3
			c15.5-13.4,53.1,20,66.2,32.6c2.4-33.1,8.9-54,19.4-62.1c4.5-3.5,9.7-4.6,15.4-3.5c4.8,1,9.2,5.7,13.2,13.9
			c13.6,28.3,19.1,93.5-5.9,142.3L1621.9,701.7z M1524.2,578c-2.3,0-4.2,0.6-5.7,1.9c-1.2,1-1.7,2.6-1.5,4.9
			c1.5,20.8,55.7,78.3,102.9,109.4c22.7-47,17.4-108.1,4.5-134.9c-3.1-6.4-6.5-10.4-9.4-11c-4.2-0.9-7.8,0-11.1,2.5
			c-6.7,5.2-15.2,20.5-17.7,64l-0.3,6l-4.2-4.3C1565.5,600,1538.3,578,1524.2,578z"/>
	</g>
	<g>
		<path class="st5" d="M640.5,1513.2c0,0-57.7-42.1-71.8-25.4s66.6,77.8,122,101.9c21.5-66.3-10.8-148.8-29.7-149.6
			C642,1439.3,635.5,1465.2,640.5,1513.2z"/>
		<path class="st1" d="M692.3,1593.2l-2.7-1.2c-49.7-21.6-119.1-72.3-124.8-96.4c-1.1-4.8,0.4-7.9,1.8-9.7
			c13.2-15.7,55.6,11.3,70.6,21.6c-2.9-33.1,0.2-54.7,9.2-64.4c3.9-4.1,8.8-6.1,14.6-5.9c4.9,0.2,10,4.1,15.2,11.6
			c17.9,25.8,33.8,89.2,16.9,141.4L692.3,1593.2z M578.8,1486.5c-3.5,0-6.3,0.9-8,3c-1,1.2-1.2,2.8-0.7,5
			c4.8,20.3,67.5,68.4,119,91.5c14.9-50-0.1-109.5-17.1-133.9c-4.1-5.8-8.1-9.3-11.1-9.4c-4.3-0.1-7.7,1.2-10.5,4.2
			c-5.8,6.2-11.8,22.7-7.2,66l0.6,6l-4.8-3.5C621.5,1502.6,593.6,1486.5,578.8,1486.5z"/>
	</g>
	<g>
		<path class="st5" d="M1242.1,408.5c0,0,7.4-71.1-14.1-74.8c-21.5-3.7-33.7,96.7-26.6,156.7c68.1-14.8,123.2-84.2,114.3-101
			S1281,380.1,1242.1,408.5z"/>
		<path class="st1" d="M1199,493.6l-0.3-2.9c-6.3-53.8,2.5-139.3,20.4-156.3c3.6-3.4,7-3.7,9.3-3.3c20.2,3.5,18.2,53.7,16.8,71.9
			c27.1-19.2,47.4-27.4,60.2-24.5c5.5,1.3,9.7,4.5,12.5,9.7c2.3,4.3,1.5,10.7-2.4,19c-13.2,28.5-60.1,74.1-113.7,85.8L1199,493.6z
			 M1226.8,336.3c-1.3,0-2.6,0.6-4,2c-15.2,14.3-25.1,92.7-19.2,148.9c50.7-12.3,94.6-55.2,107.1-82.2c3-6.5,3.9-11.7,2.5-14.3
			c-2-3.8-4.9-6.1-8.9-7c-8.3-1.9-25.5,1.2-60.6,27l-4.8,3.5l0.6-6c2.7-26.5,1.9-69.5-12-71.9C1227.3,336.3,1227,336.3,1226.8,336.3
			z"/>
	</g>
	<path class="st1" d="M775.9,661.1c-1.3,0-2.4-1-2.6-2.3L752,505.7c-0.2-1.5,0.8-2.8,2.3-3c1.5-0.2,2.8,0.8,3,2.3L778.5,658
		c0.2,1.5-0.8,2.8-2.3,3C776.2,661.1,776,661.1,775.9,661.1z"/>
	<path class="st1" d="M859.3,661.1c-0.3,0-0.5,0-0.8-0.1c-1.4-0.4-2.2-1.9-1.7-3.3l30.4-94.4c0.5-1.4,1.9-2.2,3.3-1.7
		c1.4,0.4,2.2,1.9,1.7,3.3l-30.4,94.4C861.5,660.4,860.5,661.1,859.3,661.1z"/>
	<path class="st1" d="M949.2,707.3c-0.8,0-1.5-0.3-2-1c-0.9-1.1-0.8-2.8,0.3-3.7l116.1-96.4c1.1-0.9,2.8-0.8,3.7,0.3
		c0.9,1.1,0.8,2.8-0.3,3.7l-116.1,96.4C950.4,707.1,949.8,707.3,949.2,707.3z"/>
	<path class="st6" d="M439.7,1011.2c-0.1,0-0.1,0-0.2,0c-1.5-0.1-2.6-1.4-2.4-2.9c4.5-56.3-1.4-125.6-32.6-135.8
		c-33-10.7-54.3,19.6-55.2,20.9c-0.8,1.2-2.5,1.5-3.7,0.7c-1.2-0.8-1.5-2.5-0.7-3.7c0.2-0.4,24.4-34.9,61.2-23
		c44.1,14.3,38,120.2,36.3,141.2C442.2,1010.1,441.1,1011.2,439.7,1011.2z"/>
	<path class="st6" d="M605,1135.9c-0.3,0-0.7-0.1-1-0.2c-1.4-0.6-2-2.1-1.4-3.5c0.9-2.2,22.7-53.2,48.5-63.5
		c9.4-3.8,17.9-3.5,25.1,0.8c12.7,7.6,21,27.6,24.7,59.4c0.2,1.5-0.9,2.8-2.3,2.9c-1.4,0.2-2.8-0.9-2.9-2.3
		c-3.4-29.7-11-48.8-22.1-55.4c-5.7-3.4-12.6-3.6-20.4-0.4c-23.8,9.5-45.3,60.1-45.6,60.6C607.1,1135.2,606.1,1135.9,605,1135.9z"/>
	<path class="st6" d="M905.4,850.8c-1.3,0-2.5-1-2.6-2.3c-7.6-57-37.9-87.8-81.1-82.2c-40,5.2-53.7,67.5-53.8,68.2
		c-0.3,1.4-1.7,2.4-3.2,2c-1.4-0.3-2.4-1.7-2.1-3.1c0.6-2.7,14.6-66.7,58.4-72.3c46.4-6,79,26.4,87,86.8c0.2,1.5-0.8,2.8-2.3,3
		C905.7,850.8,905.6,850.8,905.4,850.8z"/>
	<path class="st6" d="M1023.3,1014.2c-0.1,0-0.2,0-0.4,0c-1.5-0.2-2.5-1.5-2.3-3l17.5-127.6c0.2-1.5,1.5-2.5,3-2.3
		c1.5,0.2,2.5,1.5,2.3,3l-17.5,127.6C1025.8,1013.2,1024.6,1014.2,1023.3,1014.2z"/>
	<path class="st6" d="M859.3,1106.4c-0.5,0-1-0.1-1.4-0.4c-1.2-0.8-1.6-2.4-0.8-3.7c0.9-1.5,22.8-35.9,39.3-45.4
		c1.3-0.7,2.9-0.3,3.6,1c0.7,1.3,0.3,2.9-1,3.6c-15.4,8.9-37.3,43.3-37.5,43.7C861,1106,860.1,1106.4,859.3,1106.4z"/>
	<path class="st6" d="M1221,939.3c-1.1,0-2.2-0.7-2.5-1.9c-7.4-23.5-18.6-37.5-33.2-41.8c-23.4-6.8-48.4,14.1-48.7,14.3
		c-1.1,0.9-2.8,0.8-3.7-0.3c-0.9-1.1-0.8-2.8,0.3-3.7c1.1-0.9,27.4-22.9,53.6-15.4c16.4,4.7,28.8,20,36.8,45.3
		c0.4,1.4-0.3,2.9-1.7,3.3C1221.6,939.2,1221.3,939.3,1221,939.3z"/>
	<path class="st6" d="M1212.2,1218.2c-0.5,0-1-0.1-1.4-0.4c-1.2-0.8-1.6-2.4-0.8-3.7c27.4-42.1,31.4-79.7,23.1-98.3
		c-2.4-5.5-5.8-8.8-9.6-9.4c-16.5-2.6-40.2,22.8-40.5,23.1c-1,1.1-2.7,1.1-3.8,0.1c-1.1-1-1.1-2.7-0.1-3.8
		c1-1.1,25.9-27.8,45.2-24.7c5.6,0.9,10.5,5.3,13.6,12.5c8.8,19.9,5,59.6-23.5,103.4C1213.9,1217.8,1213,1218.2,1212.2,1218.2z"/>
	<path class="st6" d="M1367,905.4c-0.1,0-0.3,0-0.4,0c-1.4-0.2-2.4-1.6-2.2-3c8-50.1,23.6-183.5-0.4-199.2
		c-28.7-18.9-70.5,11.4-70.9,11.7c-1.2,0.9-2.8,0.6-3.7-0.6c-0.9-1.2-0.6-2.8,0.6-3.7c1.8-1.3,45.1-32.7,77-11.9
		c31.2,20.4,5.7,185.7,2.7,204.5C1369.4,904.5,1368.3,905.4,1367,905.4z"/>
	<path class="st6" d="M1675.4,1047c-0.3,0-0.7-0.1-1-0.2c-1.4-0.5-2-2.1-1.5-3.5c45.1-113.2,52.7-196.4,52.7-197.2
		c0.1-1.5,1.4-2.6,2.9-2.4c1.5,0.1,2.5,1.4,2.4,2.9c-0.1,0.8-7.7,84.8-53.1,198.7C1677.4,1046.4,1676.4,1047,1675.4,1047z"/>
	<path class="st6" d="M1537.8,950.4c-1,0-2-0.6-2.4-1.6l-39.1-88.7c-0.6-1.3,0-2.9,1.4-3.5c1.3-0.6,2.9,0,3.5,1.4l39.1,88.7
		c0.6,1.3,0,2.9-1.4,3.5C1538.5,950.3,1538.1,950.4,1537.8,950.4z"/>
	<path class="st6" d="M432.5,581.1c-0.7,0-1.5-0.3-2-0.9c-24.2-26.9-70.9-11.9-71.4-11.7c-1.4,0.5-2.9-0.3-3.4-1.7
		c-0.5-1.4,0.3-2.9,1.7-3.4c2-0.7,50.5-16.3,77,13.2c1,1.1,0.9,2.8-0.2,3.8C433.8,580.9,433.2,581.1,432.5,581.1z"/>
	<path class="st6" d="M487.8,719.3c-1.4,0-2.6-1.1-2.7-2.6c-1.1-46-43.6-53.1-45.4-53.3c-1.4-0.2-2.4-1.6-2.2-3
		c0.2-1.4,1.6-2.5,3-2.2c0.5,0.1,48.7,7.9,49.9,58.5C490.5,718.1,489.3,719.3,487.8,719.3C487.8,719.3,487.8,719.3,487.8,719.3z"/>
	<path class="st6" d="M604.2,609c-0.1,0-0.1,0-0.2,0c-1.5-0.1-2.6-1.4-2.5-2.8c1.1-16.9-2.3-28.3-10-33.9c-10.9-8-27.5-1.6-27.6-1.6
		c-1.4,0.5-2.9-0.1-3.4-1.5c-0.5-1.4,0.1-2.9,1.5-3.4c0.8-0.3,19.4-7.5,32.7,2.2c9.3,6.7,13.4,19.7,12.2,38.6
		C606.7,607.9,605.6,609,604.2,609z"/>
	<path class="st6" d="M608.5,717.4c-0.3,0-0.5,0-0.8-0.1c-1.4-0.4-2.2-1.9-1.8-3.3c8.6-28.5-2.8-35.9-2.9-36c-1.3-0.7-1.7-2.3-1-3.6
		c0.7-1.3,2.3-1.7,3.6-1c0.6,0.4,15.4,9.2,5.4,42.1C610.7,716.6,609.7,717.4,608.5,717.4z"/>
	<path class="st1" d="M734.4,939c-1,0-1.9-0.5-2.4-1.4l-22.7-44.5c-0.7-1.3-0.1-2.9,1.2-3.6c1.3-0.7,2.9-0.1,3.6,1.2l22.7,44.5
		c0.7,1.3,0.1,2.9-1.2,3.6C735.2,938.9,734.8,939,734.4,939z"/>
	<path class="st1" d="M792.2,916.8c-1.3,0-2.4-0.9-2.6-2.2l-10.1-55.1c-0.3-1.4,0.7-2.8,2.1-3.1c1.5-0.3,2.8,0.7,3.1,2.1l10.1,55.1
		c0.3,1.4-0.7,2.8-2.1,3.1C792.5,916.8,792.3,916.8,792.2,916.8z"/>
	<path class="st1" d="M776.3,1008c-9.7,0-16.8-1.7-17.5-1.9c-1.4-0.4-2.3-1.8-1.9-3.2c0.4-1.4,1.8-2.3,3.2-1.9
		c0.3,0.1,31.4,7.4,51.6-9.7c13.7-11.7,19.5-32,17.3-60.5c-0.1-1.5,1-2.7,2.4-2.9c1.5-0.1,2.7,1,2.9,2.4c2.4,30.3-4,52.1-19.1,65
		C803,1005.6,787.8,1008,776.3,1008z"/>
</g>
</svg>
