<?xml version="1.0" encoding="utf-8"?>
<!-- Generator: Adobe Illustrator 26.1.0, SVG Export Plug-In . SVG Version: 6.00 Build 0)  -->
<svg version="1.1" id="Слой_1" xmlns="http://www.w3.org/2000/svg" xmlns:xlink="http://www.w3.org/1999/xlink" x="0px" y="0px"
	 viewBox="0 0 2000 2000" style="enable-background:new 0 0 2000 2000;" xml:space="preserve">
<style type="text/css">
	.st0{fill:#D1C2F9;}
	.st1{fill:#FEFFFF;}
	.st2{fill:#D6F2FE;}
	.st3{fill:#FF94B2;}
	.st4{fill:#FFE7A7;}
</style>
<g>
	<rect class="st0" width="2000" height="2000"/>
	<g>
		<g>
			<g>
				<g>
					<g>
						<path class="st1" d="M778.8,814.8l8.9,40.5c1.4,4.1,2.1,8.4,2.1,12.7c0,2.8-1.2,4.9-3.5,6.5c-2.4,1.6-5.1,2.4-8.3,2.4
							c-7.3,0-13.8-0.3-19.6-1s-11.5-1.4-17.1-2.2s-11.4-1.5-17.3-2.2c-5.9-0.7-12.6-1-20.1-1c-6.1,0-12.1,0.3-17.9,0.9
							c-5.8,0.6-11.1,0.9-15.8,0.9c-7.3,0-13.2-2.8-17.7-8.3s-6.8-14.7-6.8-27.5c0-8.7,0.3-16.6,1-23.8s1.5-14.3,2.4-21.4
							s1.7-14.5,2.4-22.3s1-16.7,1-26.7c0-8.3,0.9-16.9,2.8-26c1.9-9.1,4.4-17.4,7.5-25s6.8-13.8,10.9-18.8c4.1-4.9,8.5-7.4,13-7.4
							H715c6.3,0,10.6,0.8,13,2.5s3.5,4.6,3.5,8.7c0,3.7-1.1,8.2-3.4,13.4c-2.3,5.2-4.7,12.3-7.4,21.1c-2.7,8.9-5.1,20.1-7.4,33.8
							c-2.3,13.7-3.4,30.9-3.4,51.5c0,9.7,1.4,17.9,4.1,24.8c2.8,6.9,6.7,10.3,11.8,10.3c4.3,0,8.4-1.3,12.3-3.8
							c3.8-2.6,7.5-5.4,10.9-8.4c3.4-3.1,6.7-5.9,9.9-8.4c3.1-2.6,6.3-3.8,9.5-3.8c3.1,0,5.6,0.9,7.2,2.7
							C777.4,811.3,778.4,813.1,778.8,814.8z"/>
					</g>
				</g>
				<g>
					<g>
						<path class="st1" d="M975.9,798.9c0,9.1-1.4,18.2-4.1,27.3c-2.8,9.2-7.2,17.4-13.4,24.7s-14.2,13.2-24.1,17.7
							c-9.8,4.5-22,6.8-36.3,6.8h-28.4c-13,0-24.4-2.3-34.1-6.9c-9.7-4.6-17.8-10.6-24.1-17.9c-6.3-7.3-11-15.6-14.2-24.8
							c-3.2-9.3-4.7-18.4-4.7-27.5c0-16.5,2.2-33.1,6.6-49.6s10.7-31.5,18.8-44.8s17.7-24.1,28.9-32.3c11.2-8.3,23.6-12.4,37.2-12.4
							c12.2,0,23.9,4.2,35,12.6c11.1,8.4,20.9,19.2,29.2,32.5c8.4,13.3,15.1,28.3,20.1,44.9C973.3,765.8,975.9,782.4,975.9,798.9z
							 M905.6,793c0-5.1-0.2-11.9-0.7-20.2c-0.5-8.4-1.5-16.6-3.1-24.7c-1.6-8.1-3.8-15-6.6-20.8c-2.9-5.8-6.5-8.7-11.1-8.7
							c-4.3,0-7.8,2.9-10.5,8.7s-4.7,12.8-6.2,20.8c-1.5,8.1-2.5,16.3-3.1,24.7s-0.9,15-0.9,19.9c0,9.5,1.5,16.1,4.4,19.8
							c3,3.7,8.5,5.6,16.5,5.6c8.5,0,14.1-1.9,17-5.6C904.1,808.7,905.6,802.2,905.6,793z"/>
					</g>
				</g>
				<g>
					<g>
						<path class="st1" d="M1160.8,734.8c0,13.6-2.1,28.7-6.3,45.2c-4.2,16.5-10.1,32-17.6,46.4s-16.5,26.4-27,36.2
							c-10.5,9.7-22.2,14.6-35,14.6c-12.4,0-23.8-4.9-34.3-14.6c-10.4-9.7-19.4-21.8-27-36.2s-13.4-29.8-17.6-46.4
							s-6.2-31.6-6.2-45.2c0-6.3,0.4-13.4,1.2-21.4s2.1-15.5,4-22.6s4.3-13,7.2-17.9c3-4.8,6.7-7.2,11.2-7.2h44.6
							c5.1,0,8.2,1.2,9.3,3.7c1.1,2.5,1.6,5.1,1.6,7.8c0,3-0.7,6.4-2.2,10.3c-1.5,3.9-3.1,8.6-4.7,13.9c-1.7,5.3-3.3,11.6-4.7,18.8
							c-1.5,7.2-2.2,15.6-2.2,25.3c0,6.9,0.5,13.7,1.5,20.5s2.4,12.8,4.1,18.2c1.8,5.3,3.9,9.7,6.3,13c2.5,3.4,5.3,5,8.4,5
							c2.6,0,5.1-1.7,7.7-5s4.8-7.7,6.6-13c1.9-5.3,3.4-11.3,4.6-18s1.8-13.4,1.8-20.1c0-9.6-0.5-18.1-1.5-25.4
							c-1-7.3-2.1-13.7-3.4-19.2s-2.4-10.2-3.4-14s-1.5-7.2-1.5-10.2c0-3.1,1.3-5.9,3.8-8.1c2.6-2.3,6.1-3.4,10.6-3.4h34.3
							c5.7,0,10.3,2.5,13.7,7.4c3.4,4.9,6.1,10.9,7.8,18c1.8,7.1,2.9,14.6,3.4,22.6C1160.5,721.7,1160.8,728.7,1160.8,734.8z"/>
					</g>
				</g>
				<g>
					<g>
						<path class="st1" d="M1281.6,876.6c-8.9,0-16.8-0.2-23.8-0.7s-13.7-1-20.1-1.5s-12.7-1-18.8-1.5c-6.1-0.5-12.7-0.7-19.8-0.7
							c-4.5,0-8.3-2.7-11.4-8.1c-3.1-5.4-5.5-12.2-7.2-20.2c-1.8-8.1-3.1-16.7-3.8-26c-0.8-9.3-1.2-17.7-1.2-25.4
							c0-18.1,1-34.9,3-50.2c2-15.4,5.1-28.7,9.3-40c4.2-11.3,9.8-20.2,16.8-26.6c7-6.4,15.5-9.6,25.6-9.6h81.5
							c5.9,0,10.1,0.4,12.6,1.2s3.6,3,3.4,6.5c0,0.4-0.1,1-0.1,1.8c-0.1,0.8-0.2,1.9-0.4,3.2l-12.1,33.4c-1.2,3.4-2.8,5.6-4.9,6.8
							s-4.6,1.8-7.5,1.8c-1.2,0-3-0.8-5.5-2.5s-5.3-3.6-8.6-5.8c-3.2-2.2-6.7-4.1-10.5-5.8c-3.7-1.7-7.5-2.5-11.2-2.5
							c-4.1,0-7.7,0.9-10.6,2.7c-3,1.8-5.4,4-7.4,6.6c-2,2.7-3.4,5.5-4.4,8.4c-1,3-1.5,5.5-1.5,7.7c0,3.4,0.8,5.3,2.5,5.8
							s3.5,0.7,5.5,0.7c4.7,0,9.6-0.8,14.6-2.5s10.5-2.5,16.4-2.5c2.4,0,4.9,0.1,7.5,0.3c2.7,0.2,5.1,0.6,7.4,1.2
							c2.3,0.6,4.2,1.5,5.8,2.7c1.6,1.2,2.4,2.9,2.4,5c0,1.8-0.6,4.5-1.8,8.3l-10,28.4c-2,6.1-4.5,9.2-7.7,9.2
							c-2.2,0-4.7-1.1-7.5-3.2c-2.9-2.2-6.5-3.3-10.8-3.3c-7.7,0-13.7,2.4-18.2,7.1s-6.6,10.7-6.6,18c0,9.5,2.4,16.8,7.1,22.2
							c4.7,5.3,11,8,18.9,8c5.3,0,9.8-1,13.4-3.1s6.9-4.4,9.7-6.9c2.9-2.6,5.6-4.9,8.1-6.9c2.6-2.1,5.4-3.1,8.6-3.1
							c2.6,0,4.7,2,6.5,5.9l13.6,39c0.6,1.8-0.2,3.6-2.5,5.6s-5.6,3.8-9.9,5.6s-9.5,3.2-15.4,4.3
							C1294.6,876,1288.3,876.6,1281.6,876.6z"/>
					</g>
				</g>
			</g>
		</g>
		<g>
			<path class="st2" d="M1238.7,1098.1c0,10.8-2.1,20.5-6.3,28.9c-4.2,8.5-9.9,15.7-17.1,21.6s-15.5,10.4-24.8,13.6
				c-9.4,3.1-19.2,4.7-29.4,4.7c-13,0-24.6-1.6-34.7-4.9c-10.1-3.2-18.7-7.5-25.6-12.8s-12.2-11.3-15.8-17.9
				c-3.6-6.6-5.5-13.1-5.5-19.6c0-2.2,0.3-4.5,1-6.9c0.7-2.5,1.4-4.8,2.2-6.9l7.4-18.9c1.8-4.5,4.4-6.8,8-6.8c2,0,4.5,2.4,7.5,7.1
				c3.1,4.7,6.6,9.9,10.6,15.5s8.6,10.8,13.7,15.5s10.7,7.1,16.8,7.1c7.5,0,13.5-1.8,18.2-5.5c4.6-3.6,6.9-8.4,6.9-14.3
				c0-7.5-1.8-12.8-5.3-16c-3.5-3.1-8.1-5.8-13.7-7.8c-5.6-2.1-11.9-4.2-18.9-6.5s-13.9-6.2-20.8-12c-10.4-8.7-17.3-17.3-20.5-25.8
				c-3.3-8.6-4.9-16.7-4.9-24.4c0-5.3,1.1-11.3,3.2-18c2.2-6.7,6.1-13,11.7-18.9s13.1-10.8,22.6-14.8c9.5-3.9,21.4-5.9,35.7-5.9
				c7.9,0,15.9,0.8,24.2,2.5c8.3,1.7,15.8,3.9,22.7,6.6c6.9,2.8,12.6,5.9,17,9.3c4.4,3.4,6.6,6.9,6.6,10.5c0,1.6-0.4,3.3-1.2,5.2
				c-0.8,1.9-1.6,3.7-2.4,5.5l-11.2,21.9c-0.8,1.2-1.8,2.3-3.1,3.2c-1.3,1-2.6,1.5-4,1.5c-2.8,0-5.6-1.1-8.4-3.4
				c-2.9-2.3-5.9-4.8-9-7.5c-3.2-2.8-6.5-5.3-10.2-7.5c-3.6-2.3-7.5-3.4-11.7-3.4c-5.1,0-9.4,1.5-12.8,4.6s-5.2,7-5.2,12
				c0,6.1,2.9,11,8.7,14.8c5.8,3.7,16,8.2,30.6,13.3C1223,1048.2,1238.7,1068.8,1238.7,1098.1z"/>
			<path class="st2" d="M1358.6,1163.7c-8.9,0-16.8-0.2-23.8-0.7s-13.7-1-20.1-1.5s-12.7-1-18.8-1.5c-6.1-0.5-12.7-0.7-19.8-0.7
				c-4.5,0-8.3-2.7-11.4-8.1s-5.5-12.2-7.2-20.2c-1.8-8.1-3.1-16.7-3.8-26c-0.8-9.3-1.2-17.7-1.2-25.4c0-18.1,1-34.9,3-50.2
				c2-15.4,5.1-28.7,9.3-40c4.2-11.3,9.8-20.2,16.8-26.6c7-6.4,15.5-9.6,25.6-9.6h81.5c5.9,0,10.1,0.4,12.6,1.2s3.6,3,3.4,6.5
				c0,0.4-0.1,1-0.1,1.8c-0.1,0.8-0.2,1.9-0.4,3.2l-12.1,33.4c-1.2,3.4-2.8,5.6-4.9,6.8s-4.6,1.8-7.5,1.8c-1.2,0-3-0.8-5.5-2.5
				s-5.3-3.6-8.6-5.8c-3.2-2.2-6.7-4.1-10.5-5.8c-3.7-1.7-7.5-2.5-11.2-2.5c-4.1,0-7.7,0.9-10.6,2.7c-3,1.8-5.4,4-7.4,6.6
				c-2,2.7-3.4,5.5-4.4,8.4c-1,3-1.5,5.5-1.5,7.7c0,3.4,0.8,5.3,2.5,5.8s3.5,0.7,5.5,0.7c4.7,0,9.6-0.8,14.6-2.5s10.5-2.5,16.4-2.5
				c2.4,0,4.9,0.1,7.5,0.3c2.7,0.2,5.1,0.6,7.4,1.2c2.3,0.6,4.2,1.5,5.8,2.7c1.6,1.2,2.4,2.9,2.4,5c0,1.8-0.6,4.5-1.8,8.3l-10,28.4
				c-2,6.1-4.5,9.2-7.7,9.2c-2.2,0-4.7-1.1-7.5-3.2c-2.9-2.2-6.5-3.3-10.8-3.3c-7.7,0-13.7,2.4-18.2,7.1c-4.4,4.7-6.6,10.7-6.6,18
				c0,9.5,2.4,16.8,7.1,22.2c4.7,5.3,11,8,18.9,8c5.3,0,9.8-1,13.4-3.1s6.9-4.4,9.7-6.9c2.9-2.6,5.6-4.9,8.1-6.9
				c2.6-2.1,5.4-3.1,8.6-3.1c2.6,0,4.7,2,6.5,5.9l13.6,39c0.6,1.8-0.2,3.6-2.5,5.6s-5.6,3.8-9.9,5.6c-4.3,1.8-9.5,3.2-15.4,4.3
				C1371.6,1163.1,1365.3,1163.7,1358.6,1163.7z"/>
			<path class="st2" d="M1549.4,1101.9l8.9,40.5c1.4,4.1,2.1,8.4,2.1,12.7c0,2.8-1.2,4.9-3.5,6.5c-2.4,1.6-5.1,2.4-8.3,2.4
				c-7.3,0-13.8-0.3-19.6-1c-5.8-0.7-11.5-1.4-17.1-2.2c-5.6-0.8-11.4-1.5-17.3-2.2s-12.6-1-20.1-1c-6.1,0-12.1,0.3-17.9,0.9
				s-11.1,0.9-15.8,0.9c-7.3,0-13.2-2.8-17.7-8.3s-6.8-14.7-6.8-27.5c0-8.7,0.3-16.6,1-23.8c0.7-7.2,1.5-14.3,2.4-21.4
				s1.7-14.5,2.4-22.3c0.7-7.8,1-16.7,1-26.7c0-8.3,0.9-16.9,2.8-26s4.4-17.4,7.5-25s6.8-13.8,10.9-18.8c4.1-4.9,8.5-7.4,13-7.4
				h28.4c6.3,0,10.6,0.8,13,2.5s3.5,4.6,3.5,8.7c0,3.7-1.1,8.2-3.4,13.4s-4.7,12.3-7.4,21.1c-2.7,8.9-5.1,20.1-7.4,33.8
				c-2.3,13.7-3.4,30.9-3.4,51.5c0,9.7,1.4,17.9,4.1,24.8c2.8,6.9,6.7,10.3,11.8,10.3c4.3,0,8.4-1.3,12.3-3.8
				c3.8-2.6,7.5-5.4,10.9-8.4c3.4-3.1,6.7-5.9,9.9-8.4c3.1-2.6,6.3-3.8,9.5-3.8c3.1,0,5.6,0.9,7.2,2.7
				C1548,1098.4,1549,1100.2,1549.4,1101.9z"/>
			<path class="st2" d="M1716.3,962.8L1706,995c-0.8,2.8-2.1,4.5-3.8,5.3c-1.8,0.8-3.6,1.2-5.6,1.2c-2.4,0-5.2-0.7-8.6-2.1
				c-3.3-1.4-6.9-2.9-10.8-4.4c-3.8-1.6-7.7-3.1-11.7-4.4c-3.9-1.4-7.7-2.1-11.2-2.1c-3.7,0-7,1-9.7,3.1c-2.8,2.1-4.9,4.6-6.5,7.5
				c-1.6,3-2.8,6-3.5,9.2c-0.8,3.2-1.2,5.8-1.2,8c0,2,0.9,4,2.8,6.2c1.9,2.2,4.2,3.2,6.9,3.2c3,0,6.2-0.2,9.7-0.7s7.1-0.9,10.8-1.3
				c3.6-0.4,7.1-0.8,10.3-1.2c3.3-0.4,6-0.6,8.1-0.6c5.7,0,9.5,1.3,11.2,4c1.8,2.7,2.1,5.9,0.9,9.6l-10.9,38.4
				c-1.2,3.9-3.6,5.9-7.4,5.9c-1.8,0-4.4-1.1-7.8-3.2c-3.4-2.2-7.1-3.3-11.1-3.3c-8.9,0-14.8,2.2-17.7,6.6c-3,4.4-4.4,10.5-4.4,18.2
				c0,4.7,0.6,9.7,1.9,14.9c1.3,5.2,2.7,10.2,4.1,14.9c1.5,4.7,2.9,9.1,4.1,13.1c1.3,4,1.9,7.3,1.9,9.9c0,2.2-0.7,4.1-2.1,5.8
				c-1.4,1.7-3.6,2.5-6.8,2.5h-51.7c-2.8,0-5.3-1.4-7.7-4.1c-2.4-2.8-4.4-6.4-6.2-10.8c-1.8-4.4-3.2-9.4-4.3-14.9
				c-1.1-5.5-1.6-11-1.6-16.5c0-22.8,0.3-41,1-54.5s1.5-24.5,2.4-32.9c0.9-8.5,1.7-15.5,2.4-21c0.7-5.5,1-11.6,1-18.3
				c0-10.6,1.9-19.5,5.8-26.7c3.8-7.2,11.5-10.8,22.9-10.8c19.3,0,37.3,0.6,54.1,1.9c16.7,1.3,34.2,1.9,52.3,1.9c3.5,0,6,1,7.4,3.1
				C1717.1,957.6,1717.3,960.1,1716.3,962.8z"/>
		</g>
		<g>
			<g>
				<path class="st2" d="M479.9,971.4c0,14.8-1.6,27.5-4.9,38.3c-3.3,10.7-7.3,20.3-12.3,28.8c-4.9,8.5-10.2,16.3-15.8,23.6
					c-5.6,7.3-10.9,14.8-15.8,22.6c-4.9,7.8-9,16.3-12.1,25.6c-3.2,9.3-4.7,20.2-4.7,32.8c0,4.9-0.6,8.9-1.9,11.8
					c-1.3,3-5,4.4-11.1,4.4h-40.2c-6.7-0.2-11.7-2.2-14.9-5.9c-3.2-3.7-4.9-10.2-4.9-19.5c0-3.7,0.7-7.7,2.1-11.8
					c1.4-4.1,2.9-8.3,4.4-12.4c1.6-4.1,3.1-8.3,4.6-12.4s2.2-8.2,2.2-12.1c0-5.3-2.7-10.4-8.1-15.2c-5.4-4.8-11.4-10.9-18-18.3
					s-12.7-16.6-18.2-27.6s-8.3-25.4-8.3-43.1c0-9.1,1.3-16,3.8-21c2.6-4.9,7.5-7.4,14.8-7.4h43.1c4.7,0,8.4,1.2,11.1,3.5
					c2.7,2.4,4,7.3,4,14.8c0,6.9,0.2,13.6,0.6,20.1s1.1,12.2,2.2,17.1c1.1,4.9,2.5,8.9,4.3,11.8c1.8,3,4,4.4,6.8,4.4
					c3.3,0,6.1-1.7,8.1-5.2c2.1-3.4,3.6-7.7,4.6-12.8s1.6-10.8,1.9-17.1s0.4-12.2,0.4-17.7c0-7.7,1.3-12.7,3.8-15.2
					c2.6-2.5,5.6-3.7,9.2-3.7H457c6.7,0,12.2,1.9,16.4,5.8C477.8,962.1,479.9,966.5,479.9,971.4z"/>
				<path class="st2" d="M668.7,1086c0,9.1-1.4,18.2-4.1,27.3c-2.8,9.2-7.2,17.4-13.4,24.7c-6.2,7.3-14.2,13.2-24.1,17.7
					c-9.8,4.5-22,6.8-36.3,6.8h-28.4c-13,0-24.4-2.3-34.1-6.9s-17.8-10.6-24.1-17.9c-6.3-7.3-11-15.6-14.2-24.8
					c-3.2-9.3-4.7-18.4-4.7-27.5c0-16.5,2.2-33.1,6.6-49.6s10.7-31.5,18.8-44.8c8.1-13.3,17.7-24.1,28.9-32.3
					c11.2-8.3,23.6-12.4,37.2-12.4c12.2,0,23.9,4.2,35,12.6c11.1,8.4,20.9,19.2,29.2,32.5c8.4,13.3,15.1,28.3,20.1,44.9
					C666.2,1052.9,668.7,1069.4,668.7,1086z M598.3,1080.1c0-5.1-0.2-11.9-0.7-20.2c-0.5-8.4-1.5-16.6-3.1-24.7s-3.8-15-6.6-20.8
					c-2.9-5.8-6.5-8.7-11.1-8.7c-4.3,0-7.8,2.9-10.5,8.7c-2.7,5.8-4.7,12.8-6.2,20.8c-1.5,8.1-2.5,16.3-3.1,24.7
					c-0.6,8.4-0.9,15-0.9,19.9c0,9.5,1.5,16.1,4.4,19.8c3,3.7,8.5,5.6,16.5,5.6c8.5,0,14.1-1.9,17-5.6
					C596.9,1095.8,598.3,1089.3,598.3,1080.1z"/>
				<path class="st2" d="M856.5,1060.6c0,15.6-1.7,29.8-5,42.7c-3.4,12.9-8.6,24-15.8,33.2c-7.2,9.3-16.4,16.5-27.6,21.7
					c-11.2,5.2-24.7,7.8-40.5,7.8c-27.8,0-48.9-10.1-63.4-30.3c-14.5-20.2-21.7-47.8-21.7-82.9c0-19.7,0.7-36,2.1-48.9
					c1.4-12.9,3.5-23.2,6.4-30.9s6.5-13.1,11.1-16.2c4.5-3.1,10-4.7,16.5-4.7h31.9c2.6,0.2,5,1.1,7.2,2.8c2.3,1.7,3.4,4.2,3.4,7.5
					c0,4.3-0.7,9.5-2.1,15.5c-1.4,6-2.9,12.6-4.4,19.8c-1.6,7.2-3.1,14.9-4.4,23.2c-1.4,8.3-2.1,17-2.1,26.3
					c0,5.5,0.2,11.6,0.7,18.2s1.5,12.7,3.1,18.3c1.6,5.6,3.7,10.3,6.5,14c2.8,3.7,6.3,5.6,10.6,5.6c4.7,0,8.6-1.9,11.5-5.8
					c3-3.8,5.2-8.6,6.8-14.2s2.7-11.5,3.3-17.7s0.9-11.9,0.9-17c0-11.6-0.6-21.9-1.9-30.7c-1.3-8.9-2.7-16.7-4.1-23.5
					c-1.5-6.8-2.9-12.8-4.1-18c-1.3-5.2-1.9-10-1.9-14.3c0-3.5,0.9-6.1,2.8-7.7c1.9-1.6,5.7-2.4,11.4-2.4h21.7c7.3,0,13.5,4,18.8,12
					c5.2,8,9.5,17.6,12.7,28.9c3.3,11.3,5.7,23.2,7.2,35.6C855.8,1041.1,856.5,1051.7,856.5,1060.6z"/>
				<path class="st2" d="M1046.1,1140.9c0,5.5-1.2,9.9-3.5,13.3c-2.4,3.4-7.2,5-14.5,5h-39.9c-9.1,0-13.6-5-13.6-15.1
					c0-6.1-0.9-12.5-2.8-19.1c-1.9-6.6-4.1-12.6-6.6-18.2c-2.6-5.5-5.2-10-8-13.6c-2.8-3.5-5.1-5.3-7.1-5.3c-2.2,0-3.9,1.2-5.3,3.7
					s-2.1,5.7-2.1,9.6c0,10.8,1.1,20.6,3.4,29.4s3.5,14.9,3.7,18.5c0.2,3.3-0.5,5.9-2.2,7.5c-1.7,1.7-5.2,2.5-10.5,2.5h-42.5
					c-4.1,0-7.7-1-10.8-3.1s-5.6-6-7.7-11.7c-2.1-5.7-3.6-13.5-4.7-23.5c-1.1-9.9-1.6-22.7-1.6-38.3c0-15.8,0.8-30.2,2.5-43.3
					c1.7-13.1,2.5-24.5,2.5-34.1c0-18.5,1.5-32,4.6-40.5s9.9-12.7,20.5-12.7c4.5,0,8.3,0.1,11.4,0.4c3.1,0.3,5.9,0.5,8.6,0.7
					s5.4,0.4,8.1,0.7c2.8,0.3,5.9,0.4,9.5,0.4c7.9,0.2,14.7,0,20.4-0.7c5.7-0.7,11.9-1,18.6-1c8.3,0,16.2,0.5,23.9,1.6
					c7.7,1.1,14.4,3.3,20.2,6.6c5.8,3.4,10.4,8,13.9,14c3.4,6,5.2,13.9,5.2,23.8c0,10-1.8,18.2-5.3,24.4s-7.5,11.3-11.8,15.4
					c-4.3,4-8.3,7.4-11.8,10.2c-3.5,2.8-5.3,5.6-5.3,8.6c0,4.5,2.1,9.1,6.4,13.7c4.2,4.6,8.9,10,14,16.2s9.8,13.6,14,22.2
					C1044,1118,1046.1,1128.5,1046.1,1140.9z M968.8,1007.4c0-5.1-1.2-8.9-3.5-11.2c-2.4-2.4-4.6-3.5-6.8-3.5c-3,0-5.6,0.9-8,2.8
					c-2.4,1.9-4.4,4.2-6.1,6.9c-1.7,2.8-3,5.9-4,9.3c-1,3.4-1.5,6.7-1.5,9.9c0,9.5,2.3,14.2,6.8,14.2c2,0,4.3-0.8,7.1-2.4
					c2.8-1.6,5.3-3.7,7.7-6.5s4.3-5.8,5.9-9.2C968,1014.4,968.8,1011,968.8,1007.4z"/>
			</g>
		</g>
		<g>
			<path class="st3" d="M998.4,1197.2c0,0-20.7-66.5,27-86.4c47.7-19.9,71.3,15.1,68.9,79.7c32.6-42.9,75.5-45.3,93-17.5
				s-14.5,74.3-48.3,87c29,39.3,29,66.5,6,85.2s-79.1-26-79.1-26s-23.9,65.2-67.5,49.5s0-80.3,0-80.3s-88.9,12-84.1-50.2
				C919.1,1176,998.4,1197.2,998.4,1197.2z"/>
			<circle class="st4" cx="1053.2" cy="1238.2" r="47.1"/>
		</g>
		<g>
			<path class="st3" d="M1473,713c0,0-18.3-58.9,24-76.6s63.2,13.4,61.1,70.7c28.9-38,67-40.2,82.5-15.5
				c15.5,24.6-12.9,65.9-42.9,77.1c25.7,34.8,25.7,58.9,5.4,75.5c-20.4,16.6-70.2-23-70.2-23s-21.2,57.9-59.9,43.9
				c-38.7-13.9,0-71.3,0-71.3s-78.9,10.6-74.6-44.5C1402.6,694.2,1473,713,1473,713z"/>
			<circle class="st4" cx="1521.5" cy="749.3" r="41.8"/>
		</g>
		<g>
			<path class="st3" d="M327,646.5c0,0-26.2-84.3,34.3-109.6s90.4,19.2,87.4,101.2c41.4-54.4,95.8-57.5,118-22.2
				s-18.4,94.3-61.3,110.4c36.8,49.8,36.8,84.3,7.7,108.1c-29.1,23.8-100.4-33-100.4-33s-30.3,82.8-85.7,62.8s0-101.9,0-101.9
				s-112.8,15.2-106.7-63.7S327,646.5,327,646.5z"/>
			<circle class="st4" cx="396.5" cy="698.6" r="59.7"/>
		</g>
	</g>
</g>
</svg>
