<?xml version="1.0" encoding="utf-8"?>
<!-- Generator: Adobe Illustrator 26.1.0, SVG Export Plug-In . SVG Version: 6.00 Build 0)  -->
<svg version="1.1" id="Слой_1" xmlns="http://www.w3.org/2000/svg" xmlns:xlink="http://www.w3.org/1999/xlink" x="0px" y="0px"
	 viewBox="0 0 2000 2000" style="enable-background:new 0 0 2000 2000;" xml:space="preserve">
<style type="text/css">
	.st0{fill:#EBF3DC;}
	.st1{fill:#D8A1E2;}
	.st2{fill:#E57BA3;}
	.st3{fill:#F2B4A7;}
	.st4{fill:#533750;}
	.st5{fill:#BBEDEE;}
	.st6{fill:none;stroke:#533750;stroke-width:6.4759;stroke-linecap:round;stroke-linejoin:round;stroke-miterlimit:10;}
	.st7{fill:#F5918F;}
	.st8{fill:#FCB968;}
</style>
<g>
	<rect class="st0" width="2000" height="2000"/>
	<g>
		<path class="st1" d="M755.5,612.2c0,0,8.9,101.5-40.6,95.8c-49.5-5.7-39.8-119.3-34.1-183.4c5.7-64.1,37.8-81.1,74.7-60.3
			c34.5,19.4,52.7,72.5,52.7,72.5s24.4-83,83.6-80.9c59.3,2.1,51.1,127.1,46.3,170.9c-4.9,43.8-9.7,86.5-43.8,81.4s-26-98.4-26-98.4
			s-17.4,85.8-59.5,83.9C772.7,692.1,758.7,636.5,755.5,612.2z"/>
		<path class="st2" d="M1170.4,637.3c-19.5-64.2-45.9-177.1-100.1-179.3c-54.1-2.2-79.6,88.3-88.1,116.8
			c-14.5,48.8-33.5,137.9,0,139c33.5,1.1,46.3-45.8,46.3-45.8l74.8-1.7c0,0,13.4,28.5,36.3,41.2
			C1162.6,720.3,1189.9,701.5,1170.4,637.3z M1041,597.8c29.4-110,50.8,0,50.8,0H1041z"/>
		<path class="st3" d="M1266.4,509.5c0,0,55.5-64.6,90.4-65.2c34.9-0.6,56.8,52.8-48.4,127.1c63.3,68.5,91.6,118.2,70.4,144.1
			c-26,31.7-69.7-17.4-99.4-63.9c-5.8,53.6-26.5,81.3-54.9,75.8c-26.7-5.2-29.7-66.8-28.4-151.4c1.3-84.6,1.9-125.3,32.3-131.7
			C1258.7,437.8,1268.4,487.5,1266.4,509.5z"/>
		<path class="st1" d="M1413,597.6c-1.9-41.4-4.6-94.3,3.3-118.2c7.9-23.8,37-29.1,93.3-30.4c56.2-1.3,79.3,10.3,80.7,37
			c1.5,28.2-33.9,34.5-106.5,33.1c0.7,22.5,0.7,22.5,0.7,22.5s84-13.2,88.7,37.7c4.6,45.6-69.5,41.7-86,39.7
			c1.3,34.4,1.3,34.4,1.3,34.4s93.6-21.2,110.5,19.8c14.1,34.4-31.1,50.3-84,49.6c-52.9-0.7-92-10.6-96.6-43.7
			S1413.9,617.8,1413,597.6z"/>
	</g>
	<g>
		<path class="st4" d="M899.6,711.2c-1.8,0-3.7-0.1-5.7-0.4c-25.1-3.7-29.1-49.1-29.1-77.9c-8.5,26-26.2,64.8-56.1,63.4
			c-28.4-1.2-43-32.8-50-57c-0.8,21.2-4.8,49.2-18.9,63c-6.8,6.6-15.2,9.4-25.1,8.2c-52.4-6-42-123.3-36.4-186.3
			c3.1-34.5,13.9-57.6,31.4-66.8c13.3-7,29.7-5.5,47.3,4.4c27.8,15.6,45,51.7,51.3,67c7.5-20.5,33-77.5,83.9-75.7
			c11.5,0.4,21.3,5.2,29.1,14.2c30,34.7,23.8,123.2,19.8,159.7c-3.6,32.3-7.3,65.7-24,78.6C911.9,709.4,906.1,711.2,899.6,711.2z
			 M868.3,607.1c0.1,0,0.3,0,0.4,0c1.4,0.2,2.4,1.5,2.3,2.9c-2.2,25.3-2.2,91.7,23.7,95.6c7.6,1.1,13.8-0.2,18.8-4.1
			c14.9-11.5,18.5-43.7,21.9-74.9c3.1-27.9,10.9-121.5-18.5-155.6c-6.9-8-15.1-12-25.2-12.4c-56.4-2-80.7,78.1-81,78.9
			c-0.3,1.1-1.3,1.9-2.5,1.9c-1.1,0-2.2-0.7-2.6-1.8c-0.2-0.5-18.3-52.4-51.5-71.1c-15.9-9-30.5-10.4-42.2-4.3
			c-15.8,8.3-25.7,30-28.6,62.6c-5.4,61.2-15.5,175.1,31.7,180.6c8.3,1,15.1-1.2,20.8-6.7c22.3-21.7,16.9-85.5,16.9-86.2
			c-0.1-1.4,0.9-2.7,2.4-2.9c1.4-0.1,2.7,0.9,2.9,2.3c3.8,28.7,18.8,77.8,50.8,79.2c0.4,0,0.8,0,1.2,0c38.6,0,55.4-81,55.6-81.8
			C865.9,607.9,867,607.1,868.3,607.1z"/>
		<path class="st4" d="M983.5,716.5c-0.4,0-0.9,0-1.3,0c-5.9-0.2-10.7-2.8-14.2-7.6c-19.1-26.5,6.4-116.9,11.7-134.8l0.7-2.2
			c9.6-32.5,35.1-118.8,90.1-116.5c50.1,2.1,76.5,92.6,95.8,158.6c2.3,8,4.5,15.6,6.7,22.6c10.6,34.8,8.7,61.1-5.2,72.3
			c-7.9,6.4-18.9,6.8-29.3,1c-20.5-11.4-33.4-34.6-36.6-40.8l-71.2,1.6C1027.7,679.7,1014.2,716.5,983.5,716.5z M1068.4,460.6
			c-49.5,0-73.7,81.7-82.9,112.7l-0.7,2.2c-14.3,48.2-26.2,111.1-12.5,130.2c2.5,3.5,5.8,5.3,10,5.4c30.9,1,43.6-43.4,43.7-43.8
			c0.3-1.1,1.3-1.9,2.5-2l74.8-1.7c1.1-0.1,2,0.6,2.5,1.5c0.1,0.3,13.3,27.9,35.2,40c8.4,4.7,17.2,4.5,23.4-0.5
			c12-9.7,13.3-34.6,3.5-66.7c-2.1-7-4.4-14.6-6.7-22.6c-18.8-64.5-44.6-152.9-90.9-154.8C1069.6,460.6,1069,460.6,1068.4,460.6z
			 M1091.8,600.5H1041c-0.8,0-1.6-0.4-2.1-1c-0.5-0.7-0.7-1.5-0.5-2.3c9.4-35.1,18.6-51.2,29.1-50.9c16.2,0.6,25.2,42.6,26.8,51
			c0.2,0.8-0.1,1.6-0.6,2.2C1093.3,600.1,1092.6,600.5,1091.8,600.5z M1044.5,595.1h44c-4.1-18.9-12.8-43.3-21.1-43.6
			c0,0-0.1,0-0.1,0C1063.9,551.6,1055.3,556.1,1044.5,595.1z"/>
		<path class="st4" d="M1231.5,730.7c-2.5,0-5-0.2-7.5-0.7c-27.4-5.3-32-60.5-30.6-154c1.3-84.8,1.9-127.4,34.4-134.3
			c8.4-1.8,16,0.2,22.4,5.9c13.4,11.8,18.9,37.1,19.1,54.7c14.5-15.9,57.6-60.1,87.5-60.6c14.1-0.3,25.6,7.5,29.8,20.3
			c3.6,10.9,8.6,50.6-74.2,109.9c67.6,73.7,89.4,119.9,68.4,145.3c-6.4,7.8-14.3,11.5-23.3,11c-27.2-1.6-58.2-41.5-76.4-69
			c-4.4,31.7-14.3,53.9-28.8,64.6C1246,728.4,1239,730.7,1231.5,730.7z M1233.7,446.4c-1.5,0-3.1,0.2-4.8,0.5
			c-28.3,6-28.9,47.2-30.2,129.2c-1.1,72.4,0,143.6,26.3,148.7c8.9,1.7,17,0,24.1-5.3c14.2-10.4,24-34.7,27.6-68.2
			c0.1-1.1,0.9-2,2-2.3c1.1-0.3,2.2,0.2,2.8,1.2c28.8,45,56.6,71.6,76.3,72.7c7.3,0.5,13.5-2.5,18.9-9.1
			c18.9-23-4.1-68.9-70.3-140.6c-0.5-0.6-0.8-1.3-0.7-2.1c0.1-0.8,0.5-1.5,1.1-1.9c65.4-46.2,81.5-84.9,74.6-105.6
			c-3.4-10.5-12.8-16.8-24.6-16.7c-33.3,0.6-87.9,63.7-88.4,64.3c-0.8,0.9-2,1.2-3,0.7c-1.1-0.4-1.7-1.5-1.6-2.7
			c1.5-16.6-3.7-45.8-17.1-57.7C1242.8,448.1,1238.5,446.4,1233.7,446.4z"/>
		<path class="st4" d="M1518.1,725.5c-1.1,0-2.2,0-3.3,0c-39.9-0.5-93.6-5.8-99.2-46c-3.6-25.5-4.2-48.2-4.8-66.4
			c-0.2-5.6-0.3-10.7-0.5-15.4l-0.1-3.2c-1.9-41.1-4.3-92.2,3.6-115.9c8.5-25.6,38.9-30.9,95.7-32.2c56.9-1.3,81.9,10.5,83.4,39.6
			c0.4,7.9-1.9,14.4-6.8,19.5c-12.3,12.7-40.3,17.4-99.6,16.4l0.5,16.8c11.3-1.4,51.4-4.8,73.8,12.6c8.9,6.9,13.9,16.3,14.9,27.9
			c1.1,10.9-2,20.1-9.2,27.1c-19.7,19.3-64.4,16.9-76.7,15.8l1.1,28.2c16.9-3.4,94.5-16.7,110.4,22.1c4.3,10.5,3.7,19.9-1.8,28
			C1588.7,716.2,1558.4,725.5,1518.1,725.5z M1518,451.5c-2.7,0-5.5,0-8.3,0.1c-54.3,1.3-83.3,6.1-90.8,28.6
			c-7.6,22.7-5.2,73.3-3.3,114l0.2,3.2l0,0c0.2,4.7,0.4,9.9,0.5,15.5c0.5,18.1,1.2,40.7,4.7,65.9c3.8,27.5,33.7,40.6,94,41.4
			c39.5,0.5,70.3-8.3,80.3-23c4.4-6.5,4.8-14.2,1.3-23c-15.8-38.5-106.5-18.5-107.4-18.3c-0.8,0.2-1.6,0-2.2-0.5c-0.6-0.5-1-1.2-1-2
			l-1.3-34.4c0-0.8,0.3-1.5,0.9-2.1c0.6-0.5,1.4-0.8,2.1-0.7c18.9,2.3,58.9,2.3,75.5-14c6.1-5.9,8.5-13.4,7.6-22.8
			c-0.9-10.1-5.3-18.2-12.9-24.2c-23.9-18.6-72.2-11.3-72.7-11.2c-0.8,0.1-1.5-0.1-2.1-0.6c-0.6-0.5-0.9-1.2-1-2l-0.7-22.5
			c0-0.7,0.3-1.4,0.8-1.9c0.5-0.5,1.2-0.8,1.9-0.8c58.7,1.1,87.3-3.1,98.5-14.7c3.9-4.1,5.7-9.2,5.3-15.6
			C1586.4,462.1,1565.4,451.5,1518,451.5z"/>
	</g>
	<g>
		<path class="st2" d="M1214.8,1027c-19.5-64.2-45.9-177.1-100.1-179.3c-54.1-2.2-79.6,88.3-88.1,116.8c-14.5,48.8-33.5,137.9,0,139
			c33.5,1.1,46.3-45.8,46.3-45.8l74.8-1.7c0,0,13.4,28.5,36.3,41.2C1206.9,1110,1234.3,1091.2,1214.8,1027z M1085.4,987.5
			c29.4-110,50.8,0,50.8,0H1085.4z"/>
		<path class="st2" d="M350.7,916.3c0,0-72,5.6-72.8-34.4s76-39.2,132.1-39.2c57.9,0,84.1,16,84.1,44c0,28-47.2,31-68.8,29.9
			c4,90.2,8.8,194.3-35.2,191.9S352.3,1002.7,350.7,916.3z"/>
		<path class="st3" d="M612.8,851.5c-65.6,0-118.8,53.2-118.8,118.8c0,65.6,53.2,118.8,118.8,118.8c65.6,0,118.8-53.2,118.8-118.8
			C731.7,904.7,678.5,851.5,612.8,851.5z M603.9,1006.8c-15.2,0-27.5-16.3-27.5-36.4s12.3-36.4,27.5-36.4s27.5,16.3,27.5,36.4
			S619.1,1006.8,603.9,1006.8z"/>
		<path class="st1" d="M973.9,907.8c-44-67.8-142.8-74.3-172.4-66.4c-28.1,7.5-28.2,55.5-28.1,80.1c0,1.3,0,2.5,0,3.6
			c0.1,28.2-0.7,121.9,0,145.7c0.7,23.8,36.1,44,119.1,20.9C975.3,1068.6,1017.9,975.6,973.9,907.8z M853.5,987.5v-53.6
			C929.1,959.9,853.5,987.5,853.5,987.5z"/>
		<path class="st3" d="M1281.9,985.2c0,0-110.4-99.1-60.4-148.7c40.3-41.4,96.5,62.1,96.5,62.1s31.3-90.3,78.5-86.8
			c47.2,3.5,54.9,76.4-36.1,165.3c2.1,115.3-10.4,132.6-44.4,132.6S1275.6,1036.4,1281.9,985.2z"/>
	</g>
	<g>
		<g>
			<path class="st4" d="M1027.8,1106.1c-0.4,0-0.9,0-1.3,0c-5.9-0.2-10.7-2.8-14.2-7.6c-19.1-26.5,6.4-116.9,11.7-134.8l0.7-2.2
				c9.6-32.5,35.2-118.8,90.1-116.5c50.1,2.1,76.5,92.6,95.8,158.6c2.3,8,4.5,15.6,6.7,22.6l0,0c10.6,34.8,8.7,61.1-5.2,72.3
				c-7.9,6.4-18.9,6.8-29.3,1c-20.5-11.4-33.4-34.6-36.6-40.8l-71.2,1.6C1072.1,1069.3,1058.5,1106.1,1027.8,1106.1z M1112.7,850.3
				c-49.5,0-73.7,81.7-82.9,112.7l-0.7,2.2c-14.3,48.2-26.2,111.1-12.5,130.2c2.5,3.5,5.8,5.3,10,5.4c31,1,43.6-43.4,43.7-43.8
				c0.3-1.1,1.3-1.9,2.5-2l74.8-1.7c1.1-0.1,2,0.6,2.5,1.5c0.1,0.3,13.3,27.9,35.2,40c8.4,4.7,17.2,4.5,23.4-0.5
				c12-9.7,13.3-34.6,3.5-66.7l0,0c-2.1-7-4.4-14.6-6.7-22.6c-18.8-64.5-44.6-152.9-90.9-154.8
				C1114,850.3,1113.3,850.3,1112.7,850.3z M1136.1,990.1h-50.8c-0.8,0-1.6-0.4-2.1-1c-0.5-0.7-0.7-1.5-0.5-2.3
				c9.4-35.1,18.7-51.1,29.1-50.9c16.2,0.6,25.2,42.6,26.8,51c0.2,0.8-0.1,1.6-0.6,2.2C1137.7,989.8,1136.9,990.1,1136.1,990.1z
				 M1088.8,984.8h44c-4.1-18.9-12.8-43.3-21.1-43.6C1108.4,941.1,1099.8,945.2,1088.8,984.8z"/>
			<path class="st4" d="M391.4,1111.1c-0.5,0-1.1,0-1.6,0c-40.5-2.2-40.9-78.2-41.4-158.6c-0.1-11-0.1-22.4-0.3-33.4
				c-10.3,0.5-45.4,0.7-62.9-15.1c-6.5-5.9-9.8-13.3-10-22c-0.2-8.1,2.6-15,8.2-20.7C304.1,840,360.8,840,406.4,840l3.5,0
				c0,0,0.1,0,0.1,0c28.6,0,50.5,4,64.9,11.8c14.4,7.8,21.7,19.6,21.7,34.9c0,6.9-2.6,12.9-7.8,17.8c-15.4,14.7-49.1,15.1-61,14.8
				c3.3,75,6.9,159.3-18.3,184.2C404.5,1108.6,398.4,1111.1,391.4,1111.1z M350.7,913.6c0.7,0,1.3,0.2,1.8,0.7
				c0.5,0.5,0.9,1.2,0.9,1.9c0.2,11.9,0.3,24.3,0.4,36.2c0.4,74.4,0.9,151.3,36.4,153.3c6.2,0.3,11.4-1.6,15.8-6
				c23.7-23.4,19.9-107.6,16.6-181.9l-0.1-1.1c0-0.7,0.3-1.5,0.8-2c0.5-0.5,1.3-0.8,2-0.8c20.2,1,48-1.9,59.9-13.2
				c4.1-3.9,6.1-8.5,6.1-14c0-13.4-6.2-23.3-18.9-30.2c-13.6-7.4-34.6-11.2-62.3-11.2c0,0-0.1,0-0.1,0l-3.5,0
				c-44.6,0-100.1,0-119.3,19.6c-4.6,4.7-6.8,10.2-6.7,16.9c0.1,7.4,2.8,13.3,8.2,18.2c18.5,16.8,61.3,13.7,61.7,13.6
				C350.5,913.6,350.6,913.6,350.7,913.6z"/>
			<path class="st4" d="M612.8,1091.8c-67,0-121.5-54.5-121.5-121.5s54.5-121.5,121.5-121.5c67,0,121.5,54.5,121.5,121.5
				S679.8,1091.8,612.8,1091.8z M612.8,854.2c-64,0-116.2,52.1-116.2,116.2s52.1,116.2,116.2,116.2S729,1034.4,729,970.3
				S676.9,854.2,612.8,854.2z M603.9,1009.4c-16.6,0-30.1-17.5-30.1-39.1c0-21.6,13.5-39.1,30.1-39.1c16.6,0,30.1,17.5,30.1,39.1
				C634,991.9,620.5,1009.4,603.9,1009.4z M603.9,936.5c-13.7,0-24.8,15.2-24.8,33.8c0,18.6,11.1,33.8,24.8,33.8
				c13.7,0,24.8-15.2,24.8-33.8C628.7,951.7,617.6,936.5,603.9,936.5z"/>
			<path class="st4" d="M828.4,1104.6c-24.7,0-38.3-6.3-45.3-11.4c-7.9-5.8-12.3-13.5-12.5-22.3c-0.5-16.1-0.3-64-0.1-102.4
				c0.1-18.3,0.1-34.3,0.1-43.4l0-3.6c-0.1-24.2-0.2-74.5,30.1-82.7c31.9-8.6,130.9-1,175.3,67.5c19.8,30.6,23.5,68.5,10,104.2
				c-15.3,40.5-50.1,71.9-93,83.8C865.8,1101.9,844.7,1104.6,828.4,1104.6z M827,841.4c-10.3,0-19,1-24.9,2.6
				c-26.3,7.1-26.2,54.6-26.2,77.5l0,3.6c0,9.1,0,25.1-0.1,43.4c-0.2,38.4-0.4,86.2,0.1,102.3c0.2,7,3.8,13.3,10.3,18.1
				c18.5,13.7,56.9,13.8,105.3,0.3c41.3-11.5,74.7-41.6,89.5-80.6c12.9-34,9.4-70.2-9.5-99.4l0,0C937.7,856.9,868.6,841.4,827,841.4
				z M853.5,990.1c-0.5,0-1.1-0.2-1.5-0.5c-0.7-0.5-1.1-1.3-1.1-2.2v-53.6c0-0.9,0.4-1.7,1.1-2.2c0.7-0.5,1.6-0.6,2.4-0.3
				c23.7,8.2,35.3,17.3,35.4,27.9c0.2,17.3-31.7,29.4-35.3,30.7C854.2,990.1,853.9,990.1,853.5,990.1z M856.2,937.6v45.9
				c10.3-4.4,28.3-14.1,28.2-24.3C884.4,951.9,874.6,944.5,856.2,937.6z"/>
			<path class="st4" d="M1315.9,1112.3c-7.5,0-14.1-3.2-19.7-9.4c-18.8-21.2-22-75-17.2-116.7c-9.2-8.5-72-67.8-73.2-116.7
				c-0.4-13.8,4.3-25.6,13.8-35c8-8.2,17.2-11.6,27.3-10.2c30.7,4.2,61.2,52.1,70.6,68c7.7-19.8,36.9-86.2,79.2-83.2
				c16.3,1.2,28.2,10.1,33.6,24.9c10.2,27.8-2.2,80.2-67.3,144.1c1.3,76-3.6,109.8-18,124.5
				C1338.4,1109.4,1329.7,1112.3,1315.9,1112.3z M1242.5,829.3c-7,0-13.3,3-19.2,9c-8.4,8.4-12.5,18.8-12.2,31.1
				c1.3,49.3,71.8,113.2,72.5,113.8c0.6,0.6,1,1.4,0.9,2.3c-5.1,42-1.4,94.6,15.7,113.9c4.6,5.1,9.7,7.6,15.7,7.6
				c12.2,0,19.8-2.4,25.4-8.1c13.2-13.4,17.8-47.6,16.4-121.8c0-0.7,0.3-1.4,0.8-1.9c64-62.6,76-114.1,66.8-139.3
				c-4.7-12.8-15-20.4-29-21.5c-44.7-3.3-75.5,84.1-75.8,85c-0.3,1-1.2,1.7-2.3,1.8c-1,0.1-2.1-0.5-2.6-1.4
				c-0.4-0.7-36.1-65.6-69.5-70.2C1244.9,829.4,1243.7,829.3,1242.5,829.3z"/>
		</g>
	</g>
	<g>
		<path class="st1" d="M1493.5,1389.5c-19.5-64.2-45.9-177.1-100.1-179.3c-54.1-2.2-79.6,88.3-88.1,116.8
			c-14.5,48.8-33.5,137.9,0,139c33.5,1.1,46.3-45.8,46.3-45.8l74.8-1.7c0,0,13.4,28.5,36.3,41.2
			C1485.7,1472.5,1513,1453.7,1493.5,1389.5z M1364.1,1350c29.4-110,50.8,0,50.8,0H1364.1z"/>
		<path class="st3" d="M1069.1,1349.8c-1.9-41.4-4.6-94.3,3.3-118.2c7.9-23.8,37-29.1,93.3-30.4c56.2-1.3,79.3,10.3,80.7,37
			c1.5,28.2-33.9,34.5-106.5,33.1c0.7,22.5,0.7,22.5,0.7,22.5s84-13.2,88.7,37.7c4.6,45.6-69.5,41.7-86,39.7
			c1.3,34.4,1.3,34.4,1.3,34.4s93.6-21.2,110.5,19.8c14.1,34.4-31.1,50.3-84,49.6s-92-10.6-96.6-43.7
			C1069.8,1398.3,1070.1,1370,1069.1,1349.8z"/>
		<path class="st2" d="M1555.7,1281.4c0,0-72,5.6-72.8-34.4c-0.8-40,76-39.2,132.1-39.2c57.9,0,84.1,16,84.1,44s-47.2,31-68.8,29.9
			c4,90.2,8.8,194.3-35.2,191.9S1557.3,1367.9,1555.7,1281.4z"/>
		<path class="st1" d="M674.2,1333.8c0.3-23.3,20.8-60.6,51.2-60c31,0.6,49.7,30.7,77.5,6.6c27.8-24.1-8.8-92.9-93.6-82.7
			s-120,87.1-111.9,160.9c8,73.9,62.2,130.2,128.7,128.7c66.6-1.5,114.8-58.5,111.2-121.4c0.2-36.6-7.3-51.9-63.6-52.7
			c-56.3-0.7-76.1,4.8-76.1,28.8c0,23.9,34.9,21.1,61.8,24.8c19.6,6.1,2.8,56.4-37.8,44.8C675.1,1398.3,673.9,1356,674.2,1333.8z"/>
		<path class="st2" d="M1001.2,1345.5c0,0,56.5-60.3,28.9-100.5c-27.6-40.2-110.5-58.4-142.6-46.2c-32,12.2-24.9,60-23.9,98.9
			c1.9,74.1,2.5,163.9,30.8,166c28.3,2.1,37.1-15.9,38.3-70.5c32.7,44.6,81,76,101.1,40.8
			C1053.9,1398.9,1001.2,1345.5,1001.2,1345.5z M927.9,1303.3v-43.8C992.4,1282.1,927.9,1303.3,927.9,1303.3z"/>
	</g>
	<g>
		<g>
			<path class="st4" d="M1306.6,1468.7c-0.4,0-0.9,0-1.3,0c-5.9-0.2-10.7-2.8-14.2-7.6c-19.1-26.5,6.4-116.9,11.7-134.8l0.7-2.2
				c9.6-32.5,35.1-118.8,90.1-116.5c50.1,2.1,76.5,92.6,95.8,158.6c2.3,8,4.5,15.6,6.7,22.6c10.6,34.8,8.7,61.1-5.2,72.3
				c-7.9,6.4-18.9,6.8-29.3,1c-20.5-11.4-33.4-34.6-36.6-40.8l-71.2,1.6C1350.8,1431.9,1337.3,1468.7,1306.6,1468.7z M1391.5,1212.8
				c-49.5,0-73.7,81.7-82.9,112.7l-0.7,2.2c-14.3,48.2-26.2,111.1-12.5,130.2c2.5,3.5,5.8,5.3,10,5.4c31,0.9,43.6-43.4,43.7-43.8
				c0.3-1.1,1.3-1.9,2.5-2l74.8-1.7c1.1-0.1,2,0.6,2.5,1.5c0.1,0.3,13.3,27.9,35.2,40c8.4,4.7,17.2,4.5,23.4-0.5
				c12-9.7,13.3-34.6,3.5-66.7c-2.1-7-4.4-14.6-6.7-22.6c-18.8-64.5-44.6-152.9-90.9-154.8
				C1392.7,1212.8,1392.1,1212.8,1391.5,1212.8z M1414.9,1352.7h-50.8c-0.8,0-1.6-0.4-2.1-1c-0.5-0.7-0.7-1.5-0.5-2.3
				c9.4-35.1,18.5-51.2,29.1-50.9c16.2,0.6,25.2,42.6,26.8,51c0.2,0.8-0.1,1.6-0.6,2.2C1416.4,1352.3,1415.7,1352.7,1414.9,1352.7z
				 M1367.6,1347.4h44c-4.1-18.9-12.8-43.3-21.1-43.6C1387.3,1303.7,1378.5,1307.8,1367.6,1347.4z"/>
			<path class="st4" d="M1174.3,1477.8c-1.1,0-2.2,0-3.3,0c-39.9-0.5-93.6-5.8-99.2-46c-3.6-25.5-4.2-48.2-4.8-66.4
				c-0.2-5.6-0.3-10.7-0.5-15.4l-0.1-3.2c-1.9-41.1-4.3-92.2,3.6-115.9c8.5-25.6,38.9-30.9,95.7-32.2c56.9-1.4,81.9,10.5,83.4,39.6
				c0.4,7.9-1.9,14.4-6.8,19.5c-12.3,12.7-40.3,17.4-99.6,16.4l0.5,16.8c11.3-1.4,51.4-4.8,73.8,12.6c8.9,6.9,13.9,16.3,14.9,27.9
				c1.1,10.9-2,20.1-9.2,27.1c-19.7,19.3-64.4,16.9-76.7,15.8l1.1,28.2c16.9-3.4,94.5-16.7,110.4,22.1c4.3,10.5,3.7,19.9-1.8,28
				C1244.9,1468.4,1214.6,1477.8,1174.3,1477.8z M1174.1,1203.8c-2.7,0-5.5,0-8.3,0.1c-54.3,1.3-83.3,6.1-90.8,28.6
				c-7.6,22.7-5.2,73.3-3.3,114l0.2,3.2l0,0c0.2,4.7,0.4,9.9,0.5,15.5c0.5,18.1,1.2,40.7,4.7,65.9c3.8,27.5,33.7,40.6,94,41.4
				c39.5,0.5,70.3-8.3,80.3-23c4.4-6.5,4.8-14.2,1.3-23c-15.8-38.5-106.5-18.5-107.4-18.3c-0.8,0.2-1.6,0-2.2-0.5
				c-0.6-0.5-1-1.2-1-2l-1.3-34.4c0-0.8,0.3-1.5,0.9-2.1c0.6-0.5,1.3-0.8,2.1-0.7c18.9,2.3,58.9,2.3,75.5-14
				c6.1-5.9,8.5-13.4,7.6-22.8c-0.9-10.1-5.3-18.2-12.9-24.2c-23.9-18.6-72.2-11.3-72.7-11.2c-0.8,0.1-1.5-0.1-2.1-0.6
				c-0.6-0.5-0.9-1.2-1-2l-0.7-22.5c0-0.7,0.3-1.4,0.8-1.9c0.5-0.5,1.2-0.8,1.9-0.8c58.7,1.1,87.3-3.1,98.5-14.7
				c3.9-4.1,5.7-9.2,5.3-15.6C1242.5,1214.3,1221.5,1203.8,1174.1,1203.8z"/>
			<path class="st4" d="M1596.4,1476.2c-0.5,0-1.1,0-1.6,0c-40.5-2.2-40.9-78.2-41.4-158.6c-0.1-11-0.1-22.4-0.3-33.4
				c-10.3,0.4-45.4,0.7-62.9-15.1c-6.5-5.9-9.8-13.3-10-22c-0.2-8.1,2.6-15,8.2-20.7c20.8-21.2,77.5-21.2,123.1-21.2l3.5,0
				c0,0,0.1,0,0.1,0c28.6,0,50.5,4,64.9,11.8c14.4,7.8,21.7,19.6,21.7,34.9c0,6.9-2.6,12.9-7.8,17.8c-15.4,14.7-49.1,15.1-61,14.8
				c3.3,75,6.9,159.3-18.3,184.2C1609.5,1473.7,1603.4,1476.2,1596.4,1476.2z M1555.7,1278.8c0.7,0,1.3,0.2,1.8,0.7
				c0.5,0.5,0.9,1.2,0.9,1.9c0.2,11.9,0.3,24.3,0.4,36.2c0.4,74.4,0.9,151.3,36.4,153.3c6.2,0.3,11.4-1.6,15.8-6
				c23.7-23.4,19.9-107.6,16.6-181.9l-0.1-1.1c0-0.7,0.3-1.5,0.8-2c0.5-0.5,1.3-0.8,2-0.8c20.2,1,48-1.9,59.9-13.2
				c4.1-3.9,6.1-8.5,6.1-14c0-13.4-6.2-23.3-18.9-30.2c-13.6-7.4-34.6-11.2-62.3-11.2c0,0-0.1,0-0.1,0l-3.5,0
				c-44.6,0-100.1,0-119.3,19.6c-4.6,4.7-6.8,10.2-6.7,16.9c0.1,7.4,2.8,13.3,8.2,18.2c18.5,16.8,61.3,13.7,61.7,13.6
				C1555.6,1278.8,1555.6,1278.8,1555.7,1278.8z"/>
			<path class="st4" d="M723.7,1490.1c-65.5,0-120.7-55.9-128.9-131.1c-7.8-71.3,24.7-153.1,114.2-163.9
				c53.4-6.4,89.5,18,101.5,45.1c7.3,16.5,5.1,32.7-5.8,42.2c-18.7,16.2-33.7,9.6-49.6,2.6c-9.2-4.1-18.7-8.3-29.8-8.5
				c-9.9-0.2-19.5,4-27.8,12.1c-13.3,12.9-20.5,32.5-20.6,45.3l0,0c-0.4,28.8,4.4,63.4,45.5,75.2c23.6,6.8,37.7-9.1,41.4-21.4
				c2.2-7.3,1.5-16-5-18.2c-5.1-0.7-10.5-1.1-15.8-1.6c-23.6-2-48-4.1-48-25.8c0-8.3,2.3-14.6,7-19.2c9.6-9.5,29-12.7,71.8-12.2
				c57.3,0.7,66.5,16.9,66.3,55.3c1.8,31.7-9.5,63.4-31.2,86.9c-21.5,23.3-50.8,36.4-82.6,37.1
				C725.3,1490.1,724.5,1490.1,723.7,1490.1z M726,1199.4c-5.2,0-10.7,0.3-16.3,1c-86,10.4-117.1,89.2-109.6,158
				c8,73.5,62.1,127.8,126,126.4c30.3-0.7,58.3-13.3,78.8-35.4c20.7-22.4,31.6-52.8,29.8-83.2c0.2-34.4-5.5-49.4-61-50.2
				c-33.9-0.4-58.4,1.2-68,10.7c-3.7,3.6-5.4,8.5-5.4,15.4c0,15.7,17.1,18.3,43.2,20.5c5.4,0.5,11,0.9,16.3,1.7
				c0.1,0,0.3,0.1,0.4,0.1c8.7,2.7,12.2,12.9,8.7,24.8c-5.3,17.7-23.5,32-48,25c-50.2-14.4-49.6-62.4-49.3-80.4
				c0.2-16.4,9.4-36.6,22.3-49c9.4-9.1,20.4-13.8,31.6-13.6c12.2,0.3,22.6,4.9,31.8,8.9c15.5,6.9,27.8,12.3,43.9-1.7
				c9.1-7.9,10.8-21.7,4.4-36C795.7,1219.9,767.7,1199.4,726,1199.4z M674.2,1333.8L674.2,1333.8L674.2,1333.8z"/>
			<path class="st4" d="M898.6,1466.6c-1.4,0-2.9-0.1-4.4-0.2c-29.2-2.2-31.1-80.8-32.9-156.9l-0.3-11.7c-0.1-5.2-0.4-10.5-0.6-15.9
				c-1.6-34.8-3.4-74.3,26.2-85.6c33-12.6,117.4,6,145.7,47.1c26.1,37.9-17.9,91.2-27.5,101.9c9.3,9.9,50.3,56.7,31.3,89.9
				c-5.9,10.3-14.3,15.8-24.9,16.4c-21.4,1.2-50.7-18.6-76.1-50.9c-1.3,32.7-5.9,49.9-15.6,58.7
				C914.3,1464.4,907.6,1466.6,898.6,1466.6z M912.5,1197.8c-9.5,0-17.9,1.1-24.1,3.5c-26,9.9-24.3,45.7-22.8,80.4
				c0.2,5.4,0.5,10.8,0.6,16l0.3,11.7c1.6,66.8,3.6,149.9,28,151.7c9.7,0.7,16.5-1,21.4-5.5c9.1-8.3,13.2-26.4,14-62.4
				c0-1.1,0.8-2.1,1.9-2.5c1.1-0.3,2.3,0,2.9,1c24.9,33.9,55.4,56,76,54.8c8.8-0.5,15.7-5.1,20.6-13.7c18.9-33-31.7-84.8-32.2-85.4
				c-1-1-1-2.6,0-3.7c0.6-0.6,54.7-59.2,28.6-97.2C1006.7,1215.7,950.1,1197.8,912.5,1197.8z M927.9,1306c-0.6,0-1.1-0.2-1.6-0.5
				c-0.7-0.5-1.1-1.3-1.1-2.2v-43.8c0-0.9,0.4-1.7,1.1-2.2c0.7-0.5,1.6-0.6,2.4-0.3c20.6,7.2,30.5,15.1,30.5,24
				c-0.1,14.4-27.4,23.8-30.5,24.9C928.5,1305.9,928.2,1306,927.9,1306z M930.6,1263.3v36.2c8.5-3.4,23.3-10.8,23.4-18.6
				C954,1275.2,945.7,1269,930.6,1263.3z"/>
		</g>
	</g>
	<g>
		<path class="st5" d="M494.5,419.8c-38.5-16.3-79.7-17.1-116.6-5.1c-44.3,14.4-82.4,47.2-102.1,93.5
			c-35.9,84.8,3.7,182.7,88.5,218.6c42.2,17.9,87.7,17.1,127.2,1.2c39.8-16,73.4-47.1,91.5-89.7
			C618.9,553.6,579.3,455.7,494.5,419.8z"/>
		<path class="st6" d="M494.5,419.8c-38.5-16.3-79.7-17.1-116.6-5.1c-44.3,14.4-82.4,47.2-102.1,93.5
			c-35.9,84.8,3.7,182.7,88.5,218.6c42.2,17.9,87.7,17.1,127.2,1.2c39.8-16,73.4-47.1,91.5-89.7
			C618.9,553.6,579.3,455.7,494.5,419.8z"/>
		
			<ellipse transform="matrix(0.3902 -0.9207 0.9207 0.3902 -213.5318 652.7531)" class="st4" cx="386" cy="487.6" rx="18.2" ry="14.2"/>
		
			<ellipse transform="matrix(0.3902 -0.9207 0.9207 0.3902 -185.8496 801.4033)" class="st4" cx="512.1" cy="541" rx="18.2" ry="14.2"/>
		<path class="st4" d="M426,691c-14.6,0-29-2.9-42.7-8.7c-28.7-12.2-50.6-35.7-61.6-66.1c-11-30.4-9.8-64.1,3.2-94.9
			c0.7-1.6,2.6-2.4,4.2-1.7c1.6,0.7,2.4,2.6,1.7,4.2c-12.4,29.3-13.5,61.3-3.1,90.2c10.4,28.8,31,50.9,58,62.4
			c27,11.5,57.3,10.9,85.2-1.7c28-12.6,50.2-35.6,62.6-65c0.7-1.6,2.6-2.4,4.2-1.7c1.6,0.7,2.4,2.6,1.7,4.2
			c-13.1,30.8-36.5,55.1-66,68.3C458.2,687.6,442,691,426,691z"/>
	</g>
	<g>
		<path class="st7" d="M1832.8,978.5c4.9-46-9.3-89.6-36.3-122.9c-26.8-33-66.1-55.9-111.7-60.7c-91.6-9.8-173.8,56.5-183.6,148
			c-5.4,50,12,97.2,43.7,131.4c26.4,28.4,62.8,47.8,104.3,52.2C1740.8,1136.3,1823,1070,1832.8,978.5z"/>
		<path class="st6" d="M1832.8,978.5c4.9-46-9.3-89.6-36.3-122.9c-26.8-33-66.1-55.9-111.7-60.7c-91.6-9.8-173.8,56.5-183.6,148
			c-5.4,50,12,97.2,43.7,131.4c26.4,28.4,62.8,47.8,104.3,52.2C1740.8,1136.3,1823,1070,1832.8,978.5z"/>
		
			<ellipse transform="matrix(0.1067 -0.9943 0.9943 0.1067 409.3008 2484.5769)" class="st4" cx="1587.3" cy="1014.5" rx="18.2" ry="14.2"/>
		
			<ellipse transform="matrix(0.1067 -0.9943 0.9943 0.1067 516.3999 2632.9832)" class="st4" cx="1723.5" cy="1029.1" rx="18.2" ry="14.2"/>
		<path class="st4" d="M1778.9,983.1c-0.1,0-0.2,0-0.3,0c-1.8-0.2-3.1-1.8-2.9-3.6c3.4-31.7-4.8-62.6-23.2-87.2
			c-18.3-24.5-44.4-39.7-73.6-42.9c-60.4-6.5-115.2,41.4-122.2,106.6c-0.2,1.8-1.8,3.1-3.6,2.9c-1.8-0.2-3.1-1.8-2.9-3.6
			c7.4-68.8,65.4-119.2,129.3-112.4c31,3.3,58.7,19.5,78.1,45.4c19.3,25.9,28,58.5,24.4,91.8
			C1781.9,981.9,1780.5,983.1,1778.9,983.1z"/>
	</g>
	<g>
		<path class="st8" d="M265.9,1475.2c38,26.3,83.1,34.7,125.3,27c41.8-7.7,80.7-31.3,106.8-69c52.5-75.7,33.7-179.6-42-232.1
			c-41.3-28.7-91.1-36.1-136.3-24.5c-37.6,9.6-72,32.2-95.8,66.6C171.4,1318.8,190.2,1422.7,265.9,1475.2z"/>
		<path class="st6" d="M265.9,1475.2c38,26.3,83.1,34.7,125.3,27c41.8-7.7,80.7-31.3,106.8-69c52.5-75.7,33.7-179.6-42-232.1
			c-41.3-28.7-91.1-36.1-136.3-24.5c-37.6,9.6-72,32.2-95.8,66.6C171.4,1318.8,190.2,1422.7,265.9,1475.2z"/>
		
			<ellipse transform="matrix(0.5698 -0.8218 0.8218 0.5698 -869.6628 823.5677)" class="st4" cx="351.8" cy="1242.4" rx="14.2" ry="18.2"/>
		
			<ellipse transform="matrix(0.5698 -0.8218 0.8218 0.5698 -995.6913 807.8616)" class="st4" cx="273.7" cy="1354.9" rx="14.2" ry="18.2"/>
		<path class="st4" d="M363.3,1453.5c-25.5,0-51.7-7.7-74.7-23.7c-1.5-1-1.8-3-0.8-4.5c1-1.5,3-1.8,4.5-0.8
			c53.9,37.4,126,27.2,160.6-22.6c34.6-49.9,18.8-120.9-35.1-158.3c-1.5-1-1.8-3-0.8-4.5c1-1.5,3-1.8,4.5-0.8
			c56.9,39.4,73.3,114.5,36.7,167.3C436.4,1437,400.7,1453.5,363.3,1453.5z"/>
	</g>
</g>
</svg>
