<?xml version="1.0" encoding="utf-8"?>
<!-- Generator: Adobe Illustrator 26.1.0, SVG Export Plug-In . SVG Version: 6.00 Build 0)  -->
<svg version="1.1" id="Слой_1" xmlns="http://www.w3.org/2000/svg" xmlns:xlink="http://www.w3.org/1999/xlink" x="0px" y="0px"
	 viewBox="0 0 2000 2000" style="enable-background:new 0 0 2000 2000;" xml:space="preserve">
<style type="text/css">
	.st0{fill:#D8B1F2;}
	.st1{fill:#F1F2F4;}
	.st2{fill:#533750;}
	.st3{fill:#FFC65F;}
	.st4{fill:#66C1C6;}
	.st5{fill:#2C9393;}
	.st6{fill:#BBEDEE;}
</style>
<g>
	<rect class="st0" width="2000" height="2000"/>
	<g>
		<path class="st1" d="M1621.7,1445.1c-30,0-55.7-9.4-70.4-25.9c-27.6-30.9-33.1-64.7-38.9-100.4c-7.5-46.4-16-98.9-79.5-161.5
			c-92.9-91.7-77.8-178.7-48.8-235.5c32.6-63.9,109.2-105.2,195.2-105.2c62.7,0,120.4,21.5,162.3,60.5
			c63.6,59.2,77.2,169.6,79.7,230.2c3.6,88.6-11.6,180.3-38.6,233.8C1743.8,1417.9,1671.7,1445.1,1621.7,1445.1z"/>
		<path class="st2" d="M1621.7,1437.1c-27.7,0-51.2-8.5-64.4-23.2c-26.1-29.2-31.4-61.8-37-96.3c-7.7-47.6-16.5-101.5-81.8-165.9
			c-89.5-88.3-75.1-171.7-47.3-226.2c31.3-61.2,105.1-100.8,188.1-100.8c60.7,0,116.4,20.7,156.9,58.4
			c61.5,57.2,74.7,165.3,77.1,224.6c3.5,87.3-11.3,177.5-37.7,229.8C1738.4,1411,1669.4,1437.1,1621.7,1437.1z"/>
		<path class="st3" d="M1446.7,1143.3c-30.6-30.2-98.8-107.4-45.1-212.5c53.7-105.1,230.4-128.6,326.5-39.1
			c96.2,89.5,87.2,341.1,36.9,440.6c-50.3,99.5-166.2,110.6-199.1,73.8C1508.1,1341.3,1562.3,1257.3,1446.7,1143.3z"/>
		<path class="st2" d="M1561.5,1045.1c-0.1-1.1-0.3-2.3-0.5-3.5c-3-25.1,1.2-63.6-6.9-87.2c-8.5-24.6-50.7-21.6-65.7,16.2
			c-23.4,59.1,43.9,131.9,73.3,167.5c29.4,35.6,37.7,14,30-7.3S1565.1,1073.7,1561.5,1045.1z"/>
		<path class="st2" d="M1635.5,1007.8c-12-17.5-33.2-53.2-5.1-71.1c38.3-24.4,54.7,37,53.1,89.2c-2.2,70.3-6.8,79.7-16.4,71.8
			C1657.6,1089.8,1657.6,1040,1635.5,1007.8z"/>
		<path class="st2" d="M1615.9,1365.5c-1.5,0-3-0.2-4.5-0.7c-20.7-6-23.8-46.2-26.8-84.9c-0.7-8.8-1.3-17.1-2.2-24.3
			c-3.8-33-27.7-43.8-28.8-44.2c-2.3-1-3.3-3.6-2.3-5.9c1-2.3,3.6-3.4,5.9-2.4c1.2,0.5,29.7,13.1,34.2,51.5
			c0.9,7.4,1.5,15.8,2.2,24.6c2.4,30.7,5.6,72.7,20.3,77c2.1,0.6,3.7,0.3,5.4-1c10.9-8.4,14-48.1,13.4-71.2
			c-0.4-13.5,7.6-25,18.8-27.4c4.7-1,21.1-2.1,32.4,25.8c2.2,5.4,7,14.2,14.3,12.3c11.6-3.1,25.4-29.6,20.8-64.2
			c-6.7-50.1,2.9-77.1,30.2-85.1c8.2-2.4,18.4-7.2,20.6-16.6c2.5-10.4-5.5-25-22.5-41.1c-1.8-1.7-1.9-4.6-0.2-6.4
			c1.7-1.8,4.6-1.9,6.4-0.2c20,18.9,28.4,35.7,25.1,49.8c-2.6,10.7-11.9,18.7-26.9,23.1c-15.1,4.4-31.5,17-23.7,75.3
			c5.1,38-10.4,69.6-27.4,74.1c-4.8,1.3-16.9,2.1-25-17.6c-5.9-14.4-14.2-22-22.2-20.4c-6.9,1.4-11.9,9.3-11.6,18.3
			c0.2,6.6,1.2,64.7-16.9,78.6C1622.1,1364.5,1619.1,1365.5,1615.9,1365.5z"/>
		<path class="st2" d="M1731.4,1101.5c-0.8,0-1.6-0.2-2.3-0.6c-2.1-1.3-2.8-4.1-1.5-6.2c0.7-1.1,16.3-26.6,43.6-27
			c2.4,0,4.5,2,4.6,4.5c0,2.5-2,4.5-4.5,4.6c-22.2,0.3-35.8,22.4-36,22.6C1734.4,1100.8,1732.9,1101.5,1731.4,1101.5z"/>
		<path class="st2" d="M1538.1,1221.6c-1,0-1.9-0.3-2.8-0.9c-2-1.5-2.3-4.4-0.8-6.3c0.6-0.8,14.8-18.7,42.7-20.6
			c2.5-0.2,4.6,1.7,4.8,4.2c0.2,2.5-1.7,4.6-4.2,4.8c-23.9,1.6-36,17-36.2,17.1C1540.8,1221,1539.4,1221.6,1538.1,1221.6z"/>
	</g>
	<g>
		<path class="st1" d="M362.5,1271.7c-36.7,0-73.6-10.7-101.2-29.5c-39.4-26.7-71.8-70.3-91.2-122.7
			c-25.2-68.2-29.6-150.7-13.3-245.4c3.5-20.4,14.9-72.8,44.6-119.2c35.7-55.8,87-85.7,148.3-86.6c1.6,0,3.2,0,4.7,0
			c114.9,0,149.5,63.9,177.3,115.3c5.6,10.3,11.3,21,17.5,30.7c4.6,7.3,9.8,14.7,15.2,22.5c40.3,57.7,90.5,129.5,8.1,285.5
			C503.9,1252.3,411.5,1271.7,362.5,1271.7z"/>
		<path class="st2" d="M362.5,1263.7c-35.1,0-70.4-10.2-96.8-28.1c-38.1-25.8-69.4-68-88.2-118.9c-24.7-66.8-29-148-12.9-241.3
			c3.4-19.9,14.6-71.1,43.5-116.3c34.2-53.4,83.2-82.1,141.7-82.9c1.6,0,3.1,0,4.6,0c110.2,0,142.1,59.1,170.3,111.2
			c5.6,10.4,11.5,21.2,17.7,31.2c4.7,7.5,9.9,14.9,15.4,22.9c39.1,55.9,87.7,125.5,7.6,277.2
			C498.8,1244.8,409.7,1263.7,362.5,1263.7z"/>
		<path class="st3" d="M176.2,877.4c8.3-47.8,45.3-187.6,173.8-189.5s144.2,75.8,182.6,136.8c38.3,61,110.4,122,22.6,288.4
			s-222.7,153.4-282.8,112.8C212.2,1185.2,141,1080.8,176.2,877.4z"/>
		<path class="st2" d="M272.5,926.6c6.1-35.9,14-80.9-11.8-83.8c-25.8-3-64.4,76.5-19.6,127.2c23.5,26.7,39.7,53.3,45.6,34.4
			C290.5,992.1,265.1,970.1,272.5,926.6z"/>
		<path class="st2" d="M324.9,835.3c-9.7-26.5-26.4-63.1,5.2-93c38.9-36.9,64.2,58.5,51.8,151.6c-11.9,89.2-22,98.5-31.4,80.1
			C341.1,955.6,353.7,914.3,324.9,835.3z"/>
		<path class="st2" d="M294.3,1177.8c-12.7,0-23.2-7.2-30-20.4c-17.8-34.8-22.1-83.3-22.3-85.3c-0.2-2.5,1.6-4.7,4.1-4.9
			c2.5-0.2,4.7,1.6,4.9,4.1c0,0.5,4.4,48.7,21.3,82c5.4,10.6,13.5,15.9,23.3,15.4c14.9-0.8,31.3-14.8,38-32.5
			c7.2-19,21.9-32.4,39.2-35.9c17.2-3.4,34.9,3.4,49.8,19.2c12.1,12.8,29.8,15.8,46.3,7.8c16.5-8,31.5-28.1,27.5-54.9
			c-1.3-8.5-2.7-16.7-4.1-24.6c-7.2-40.7-13.4-75.8,17.5-94.5c12.8-7.7,19.3-18.2,18.4-29.6c-1.2-14.9-15-29-36.7-37.6
			c-2.3-0.9-3.5-3.5-2.5-5.9c0.9-2.3,3.5-3.5,5.9-2.5c25,9.9,40.8,26.8,42.4,45.2c1.2,14.7-7.1,28.6-22.7,38
			c-25.6,15.4-20.4,44.7-13.3,85.2c1.4,8,2.9,16.3,4.1,24.9c4.7,31.3-12.9,54.9-32.5,64.4c-20.1,9.8-41.9,6.1-56.8-9.7
			c-12.7-13.5-27.5-19.3-41.5-16.5c-14.3,2.8-26.4,14.1-32.5,30.2c-8.1,21.2-27.4,37.3-46,38.3
			C295.5,1177.8,294.9,1177.8,294.3,1177.8z"/>
		<path class="st2" d="M483.3,908.8c-0.1,0-0.2,0-0.3,0c-2.5-0.2-4.4-2.3-4.2-4.8c2.3-32.1,30.2-45.3,31.4-45.9c2.3-1,4.9-0.1,6,2.2
			c1,2.3,0.1,4.9-2.2,6c-1,0.5-24.2,11.6-26.2,38.3C487.6,907,485.7,908.8,483.3,908.8z"/>
		<path class="st2" d="M225.9,1088.3c-0.8,0-1.6-0.2-2.4-0.7c-2.1-1.3-2.8-4.1-1.5-6.2c0.2-0.3,18-28.6,56.8-13.6
			c2.3,0.9,3.5,3.5,2.6,5.8c-0.9,2.3-3.5,3.5-5.8,2.6c-31.5-12.2-45.2,9-45.8,9.9C228.9,1087.6,227.4,1088.3,225.9,1088.3z"/>
	</g>
	<path class="st2" d="M1481.2,1599.9c0,0,48-13.1,49.1-69.6c3.6,37.9,21.9,52.3,56.2,69.6c-33.3-0.5-51.8,33.9-52.7,62.5
		C1531.2,1631.1,1517.2,1606.3,1481.2,1599.9z"/>
	<path class="st2" d="M1297.9,859.3c0,0,24-6.6,24.5-34.8c1.8,19,11,26.2,28.1,34.8c-16.6-0.2-25.9,17-26.3,31.2
		C1322.9,875,1315.9,862.5,1297.9,859.3z"/>
	<path class="st2" d="M647.8,1162.2c0,0,24-6.6,24.5-34.8c1.8,19,11,26.2,28.1,34.8c-16.6-0.2-25.9,17-26.3,31.2
		C672.8,1177.8,665.8,1165.4,647.8,1162.2z"/>
	<path class="st2" d="M354.9,552.5c0,0,48-13.1,49.1-69.6c3.6,37.9,21.9,52.3,56.2,69.6c-33.3-0.5-51.8,33.9-52.7,62.5
		C404.9,583.7,390.9,558.9,354.9,552.5z"/>
	<g>
		<g>
			<path class="st2" d="M610.7,675c-18.9-23.1-24.5-63.3-24.5-101.6c0-38.8,5.5-75.3,8.3-91.5c-43-0.9-80.4-9.7-80.4-55
				c0-21.2,10.6-36.5,31.9-46.7c19.9-9.2,49.4-13.9,90.5-13.9c98.9,0,131.7,9.7,131.7,65.6c0,12.5-4.2,23.1-12.9,31
				c-17.1,16.2-45.7,18.5-60.1,18.9c1.8,14.3,5.1,45.3,6,79v14.3c0,54.5-7.4,90.5-22.2,107.6c-6.9,8.3-15.2,12.5-25.4,12.5
				C636.1,695.3,621.8,688.4,610.7,675z"/>
			<path class="st4" d="M753.9,432c0,8.3-2.8,15.3-8.3,20.8C735.9,462,711.4,469,692,469c-8.8,0-16.6-1.4-21.7-4.6
				c0,0,0.9,10.2,10.2,14.8c1,8.1,2.1,18.3,3.2,29.8c1.8,19.9,3.3,43.7,3.3,67.2c0,41.1-4.6,80.9-18.5,97.5
				c-4.2,4.6-9.2,6.9-14.8,6.9c-13.4,0-23.6-4.6-31.9-14.8c-13.9-17.1-21.3-49-21.3-93.3l0.5-18.5c0.8-15.4,2.3-30.8,4.1-46.2
				c0.3-2.6,0.6-5.3,1-7.9l3.7-22.2c1.4-5.5,8.3-8.8,12-13.4c-4.6,2.3-15.3,2.8-22.6,3.3c-58.7-0.9-70.2-15.7-70.2-40.7
				c0-19.9,11.1-45.7,107.6-45.7c53.1,0,81.3,2.8,97.5,10.6C748.4,398.7,753.9,409.4,753.9,432z"/>
		</g>
		<g>
			<path class="st2" d="M948.4,694.8c-5.5-0.5-11.5-1.4-17.6-3.2c-2.8-0.9-5.5-1.8-8.3-3.2c-2.8-1.4-5.5-2.8-8.3-4.6
				c-5.1-3.7-9.7-7.9-13.4-12.5c-3.7-4.6-6.9-9.7-9.2-15.2c-1.8-3.7-3.2-7.4-4.2-11.1l-4.2,11.1c-2.3,5.1-5.5,10.6-9.2,15.2
				c-1.8,2.3-3.7,4.6-6,6.9c-2.3,2.3-4.6,4.2-7.4,6l-7.9,4.6c-2.8,1.4-6,2.3-8.8,3.2c-2.8,0.9-6,1.4-8.8,1.8c-3.2,0.9-6,0.9-9.2,0.9
				c-0.5,0.5-1.4,0.5-1.8,0.5h-2.3l-5.1-0.5c-3.2-0.5-6.5-1.4-9.7-2.8c-6-2.8-11.5-6.9-15.2-12c-4.2-4.6-7.4-9.7-9.7-15.2
				c-2.3-5.1-4.6-10.6-6-16.2c-3.2-11.1-4.6-22.2-6-33.3c-0.9-11.1-0.9-22.2-0.9-33.3c0.9-22.2,3.7-43.9,8.3-65.6
				c4.6-21.7,11.1-43,19.9-63.3c4.2-10.2,9.2-19.9,15.2-29.6c6-9.7,12.5-18.9,20.3-27.3c7.9-7.9,17.1-15.7,27.7-20.8
				c5.1-2.8,10.6-5.1,16.6-6.5c2.8-0.9,5.5-1.4,8.8-1.8l8.8-0.9c6,0,12,0.5,17.6,1.8c6,1.4,12,3.2,17.1,6
				c10.6,5.1,19.9,12.5,27.7,21.2c7.9,8.3,14.3,18,19.4,27.7c5.5,10.2,10.2,20.3,13.9,31c7.4,20.8,12.5,42.5,15.7,64.2
				c2.8,17.1,4.2,34.6,4.2,52.7l-0.5,13.4c0,11.1-0.9,21.7-2.8,32.8c-1.4,11.1-3.7,22.2-7.4,32.8c-1.4,5.5-3.7,11.1-6.5,16.2
				c-2.3,5.1-5.5,10.6-9.7,15.2c-1.8,2.3-4.2,4.6-6.9,6.5c-2.8,1.8-5.5,3.7-8.8,5.1c-3.2,0.9-6.5,1.8-10.2,1.8l-2.3,0.5
				C952.6,695.3,952.1,694.8,948.4,694.8z"/>
			<path class="st4" d="M995.5,573.8V584c-0.2,3.9-0.4,7.7-0.6,11.6c-0.4,6.6-1,13.1-2.2,19.9c-1.4,10.2-3.7,20.8-6.5,30.5
				c-1.8,4.6-3.7,9.7-6,13.8c-1.8,4.6-4.6,8.8-7.4,12c-3.2,3.7-6.5,6.5-10.2,7.8c-1.8,0.5-3.7,0.9-6,0.9h-6.9
				c-5.1-0.5-9.7-1.4-14.3-3.2c-1.8-0.5-4.2-1.4-6.5-2.8c-1.8-0.9-3.7-2.3-5.5-3.7c-7.4-5.5-13.4-12.9-18-21.7
				c-4.6-8.8-7.8-18.5-10.6-28.6c-1.8-5.5-3.2-12-4.6-18c0-1.8-0.5-3.3-0.9-5.1c-0.3-1.8-0.6-3.5-1-5.3c-0.2-1-0.5-2-0.8-3
				c-0.3,0.9-0.6,1.7-0.8,2.5c-0.6,1.9-1.2,3.9-1.5,5.8l-0.9,4.6c-1.4,6.5-2.8,12.5-4.6,18.5c-1.4,5.1-2.8,10.2-4.6,14.8
				c-1.8,5.1-3.7,9.7-6,13.8c-2.3,4.6-4.6,8.8-7.4,12.5l-4.6,5.1c-1.8,1.8-3.7,3.3-5.5,4.6c-6.9,5.5-16.2,8.8-25.9,9.2h-6.9l-6-1.8
				c-3.7-1.4-6.9-4.2-9.7-7.9c-3.3-3.2-5.5-7.4-7.9-12c-1.8-4.6-3.7-9.2-5.1-14.3c-2.8-9.7-4.2-19.9-5.1-30.5
				c-0.5-7.4-0.9-15.2-0.9-23.1v-8.3c0.2-9.6,0.9-19.2,2-28.6c1.3-11.6,3.1-23,5.4-34.2c4.6-20.8,10.6-41.1,19-60.5
				c4.1-9.7,9.2-19.4,14.8-28.2c5.1-8.8,11.5-17.1,18.5-24.5c7-7.4,14.8-13.8,23.6-18c8.8-4.6,18.5-7.4,28.2-7.4h2.3
				c9.2,0,18,2.3,25.4,6c8.8,4.1,16.6,10.6,23.6,18c6.9,7.4,12.5,16.2,17.5,24.9c5.1,9.2,9.2,19,12.9,28.6
				c6.9,19.9,11.6,40.7,14.8,61.5C994.6,538.2,995.5,555.8,995.5,573.8z"/>
			<path class="st2" d="M912.4,518.8l-18.9-24.9l-18.9,24.9c-1.4,2.3-3.7,3.2-5.5,3.2s-3.2-0.5-4.6-1.8c-1.8-1.4-2.8-3.7-2.8-5.5
				c0-1.4,0.5-3.2,1.4-4.2l21.7-28.2l-21.7-28.2c-0.9-1.4-1.4-2.8-1.4-4.6c0-1.8,0.9-4.2,2.8-5.5c1.4-0.9,2.8-1.4,4.6-1.4
				s4.2,0.9,5.5,2.8l18.9,24.9l18.9-24.9c1.8-1.8,3.7-2.8,6-2.8c1.4,0,2.8,0.5,4.2,1.4c1.8,1.4,3.2,3.7,3.2,6c0,1.4-0.9,2.8-1.8,4.2
				l-21.2,28.2l21.2,28.2c0.9,0.9,1.8,2.8,1.8,4.2c0,1.8-1.4,4.2-3.2,5.5c-0.9,1.4-2.8,1.8-4.2,1.8
				C916.1,522.1,914.2,521.2,912.4,518.8z"/>
		</g>
		<g>
			<path class="st2" d="M1081.9,695.8c-1.4,0-2.8,0-4.2-0.5c-1.8,0-3.2-0.5-4.6-0.9c-6-1.4-11.5-4.2-16.2-7.9
				c-4.6-3.2-8.3-7.4-11.5-12c-1.8-1.8-3.2-4.2-5.1-6.5c-1.4-2.3-2.8-4.6-3.7-6.9c-1.4-2.3-2.8-4.6-3.7-6.9l-1.8-3.7l-1.4-3.2
				c-3.7-9.7-6.9-19.4-9.2-29.6c-2.3-9.7-4.6-19.9-5.5-29.6c-2.3-17.6-3.7-35.1-3.7-52.7v-7.4c0.5-20.3,1.8-40.2,5.5-60.1
				c1.8-10.2,4.2-19.9,7.4-29.6c2.8-9.7,6.9-19.4,11.5-28.6c5.1-9.2,11.1-18.5,19.9-25.9c4.2-3.7,9.2-6.9,14.8-8.8
				c5.5-2.3,11.5-3.2,17.1-3.2c3.2,0,6.5,0,9.7,0.9l4.6,1.4l2.3,1.4c0.9,0,1.4,0.5,2.3,0.9c1.8,1.4,1.8,1.8,4.2,2.8l1.8,1.8
				c3.7,2.8,5.5,4.6,7.4,8.8c1.8,2.3,2.8,5.1,4.2,7.9l1.8,3.7c0.5,1.4,0.9,2.8,0.9,4.2c1.8,5.1,2.8,10.6,3.7,15.7
				c0.5,6.5,0.9,12.5,0.9,18.9v6.5l2.8-8.8l9.2-21.2c3.7-6.9,7.9-13.4,12.5-19.9c4.6-6.5,9.7-12.9,16.2-18.5
				c3.2-2.3,6.9-5.1,10.6-6.9c4.2-2.3,8.3-3.7,12.5-4.6c3.2-0.5,6.9-0.9,10.2-0.9h3.7c4.2,0,8.8,1.4,12.9,2.3l6,2.8
				c0.9,0,1.8,0.9,2.8,1.4l2.8,1.4c3.7,1.8,3.2,2.8,6,4.2l5.1,5.5c1.4,2.3,2.8,4.2,3.7,6.5c0.5,0.9,0.9,2.3,0.9,3.2l0.9,1.8
				c1.4,5.5,1.8,9.7,1.8,14.8c-0.5,8.8-1.8,17.1-4.2,24.5c-2.3,7.9-5.1,15.2-8.3,22.2c-3.2,7.4-6.5,14.3-10.2,21.3
				c-7.9,13.4-16.2,26.3-25.4,38.3c-4.6,6.5-9.7,12.5-14.8,18c-2.3,3.2-5.1,6-7.9,8.8c2.8,1.8,5.5,3.7,8.3,6
				c5.5,4.2,11.5,8.3,17.1,12.9c11.1,9.2,21.2,19.4,30.5,31.4c4.6,5.5,8.8,12,12.5,18.9c3.2,6.5,6,14.3,7.4,22.2l0.5,8.8v3.7
				c-0.5,4.2-0.9,8.3-2.3,12.5c-1.4,3.7-3.2,7.9-5.5,11.1c-2.3,3.7-4.6,6.5-7.4,9.7c-2.8,2.8-6,5.5-9.7,7.9c-3.7,2.3-7.9,4.2-12,5.1
				c-4.2,0.9-8.8,1.4-12.9,1.4c-4.2-0.5-7.9-1.4-12-2.3c-7.4-2.3-14.3-5.5-20.8-9.7c-6.5-4.2-12.5-8.3-17.6-13.4
				c-5.5-5.1-10.6-10.2-15.7-15.7l-6.9-8.3l-6.5-8.8l-5.5-10.6v6.9c0,7.4-0.5,14.8-1.8,21.7c-0.9,5.5-2.3,10.6-4.2,15.7
				c-2.3,5.1-5.1,10.2-8.8,14.8c-1.8,2.3-4.6,4.2-6.9,6c-2.8,1.8-6,3.2-9.2,4.2l-4.6,0.9H1081.9z"/>
			<path class="st4" d="M1240.4,645.4c-0.5,2.8-0.9,5.5-1.8,8.3c-0.5,2.8-1.8,5.5-3.2,7.8c-1.4,2.3-3.2,5.1-5.5,6.9
				c-3.7,4.6-8.3,7.4-13.4,8.8c-2.3,0.4-5.1,0.9-7.9,0.9l-8.3-1.4c-6-1.8-12-4.6-17.5-7.9c-5.1-3.2-10.6-6.9-15.7-11.5
				c-5.1-4.2-9.7-8.8-14.3-13.9l-6.5-7.4c-2.3-2.8-4.2-5.5-6.5-7.9l-12-16.2l-5.5-8.8c-1.8-2.8-3.2-5.5-4.6-9.2
				c-0.4,1.8-0.9,3.7-0.9,5.5l-3.7,23.6c-1.8,9.7-3.7,19-6,28.2c-0.9,4.2-2.3,8.8-4.2,12.5c-1.8,4.2-3.7,7.9-6.5,10.6
				c-2.3,2.8-5.1,4.6-8.3,5.1l-3.7,0.5l-7-0.9c-3.7-1.4-6.9-3.3-10.2-5.5c-3.2-2.3-6-5.5-8.8-9.2c-1.4-1.4-2.3-3.7-3.7-5.5l-3.2-5.5
				l-4.6-9.2c-0.5-1.4-0.9-2.3-0.9-3.2c-3.7-8.8-6.5-18-8.8-27.3c-1.8-9.2-3.7-18.5-5.1-27.7c-0.2-1.3-0.4-2.5-0.5-3.8
				c-1.1-8.4-1.9-16.9-2.3-24.9c-0.5-9.7-0.9-19.4-0.9-29.1c0.5-18.9,1.8-38.3,5.1-57.3c1.8-9.2,3.7-18.5,6.5-27.7
				c2.8-8.8,6-17.5,10.2-25.9c4.6-7.8,9.7-15.2,16.2-20.8c2.8-2.8,6.5-5.1,10.2-6.5c3.7-1.4,7.4-1.8,11.1-2.3l5.5,0.9
				c0.9,0,1.8,0.5,2.8,0.9l0.9,0.5c1.4,0,1.4,0.5,2.3,1.4l6,6l5.1,10.2l1.4,3.2c1.4,4.1,2.8,8.8,3.7,13.4c2.3,9.7,4.1,19.4,6,29.1
				l5.5,30.5c4.2-6.9,7.4-13.4,10.6-20.3l19-39.7c3.7-6.5,7.4-12.5,11.6-18c4.1-5.5,8.8-10.6,13.8-14.8c5.5-4.2,11.1-7.4,17.1-8.3
				c1.8-0.5,3.7-0.5,5.5-0.5c5.5,0,8.8,0.5,14.3,2.8l2.3,0.9l1.8,1.4c0.9,0,1.8,0.4,2.3,0.9c2.3,1.4,4.2,3.2,5.5,5.1
				c2.3,3.7,3.7,8.8,3.7,14.3v2.3c0,6.5-1.4,12.9-3.2,19.9c-2.3,6.5-4.6,13.4-7.9,19.9c-2.8,6.5-6.5,12.9-9.7,19.4
				c-7.4,12.5-15.7,24.5-24.5,36.5c-4.2,5.5-8.8,11.1-13.4,16.6c-1.3,1.4-2.5,2.8-3.7,4.1c-3.7,4-7.2,7.7-11,11.1l-1.8,1.4l-2.8,1.4
				l-1.8,0.5l-1.4,0.9l-3.2,0.9l-3.7,0.4c-1.4,0.5-2.3,0.5-3.7,0.5h-4.2l2.8,2.8l3.7,2.8c1.4,1.4,2.3,0.9,4.2,1.8l1.8,0.9
				c0.9,0.4,1.4,0.4,2.3,0.4l2.3,0.9c3.2,0.5,6.9,0,10.2,1.4c4.6,2.3,8.8,6,13.4,9.2c5.1,3.7,10.6,7.9,15.7,12.5
				c10.6,8.3,20.3,17.5,28.6,28.2c4.2,5.1,7.4,10.2,10.6,15.7c2.8,5.5,5.1,11.6,6,17.1C1240.4,639.9,1240.4,642.7,1240.4,645.4z"/>
		</g>
		<g>
			<path class="st2" d="M1349.8,696.7c-1.8,0-3.7,0-5.5-0.5c-7.4-0.5-14.8-2.8-21.3-6c-6.9-3.2-12.9-7.4-18.5-12.5
				c-5.1-4.6-9.7-10.2-13.9-16.2c-3.7-5.5-7.4-11.5-10.2-17.6c-3.2-6.5-5.5-12.5-7.9-18.9c-2.3-6.5-4.2-12.9-6-19.4l-4.2-19.9
				l-1.4-9.7c-0.5-5.5-0.9-5.1-0.9-10.2c-0.9-10.2-1.4-10.6-1.4-19.9c-0.5-6.5-0.5-13.4-0.5-19.9c0.5-13.4,1.4-26.8,3.7-39.7
				c0.9-6.5,1.8-13.4,3.2-19.9c1.8-4.2,1.4-4.6,2.8-9.7c0.9-3.2,1.4-6.5,2.8-9.7c0.9-3.2,1.8-6.5,3.2-9.7l3.7-9.2l4.2-9.2
				c2.3-4.6,2.3-3.7,5.1-9.2c3.7-5.5,7.4-11.5,12-16.6c4.6-5.5,10.2-10.2,16.2-14.3c5.5-4.2,12.5-7.9,19.4-10.2
				c6.9-1.8,14.3-3.2,21.7-3.2c9.7,0,19.4,0.5,29.6,1.8l7.4,0.9c2.3,0.5,5.1,0.9,7.4,1.8c5.1,0.9,9.7,2.3,14.8,4.2
				c5.1,1.8,9.7,4.2,14.3,6.9c4.6,2.8,9.2,6,12.9,10.2c3.7,3.7,7.4,8.3,9.7,13.4c2.8,5.1,4.2,10.6,5.1,16.2c0.5,2.8,0.9,5.1,0.9,7.9
				l0.5,4.2l-0.5,4.2c0,5.5-1.4,11.1-3.7,16.6c-2.3,5.1-5.5,10.2-9.7,13.9c-4.2,4.2-8.8,7.4-13.4,9.7l-6.9,2.8l1.8,0.5
				c4.6,1.8,9.2,3.7,13.4,6.5c4.6,3.2,8.3,6.9,11.1,11.5c3.2,4.2,5.5,9.2,6.9,14.3l0.5,1.8c0,3.2,0.9,3.7,0.9,5.5V535l-0.5,1.8
				l-0.5,2.3c0,1.8-0.5,0.5-0.5,3.7c-0.9,4.6-2.8,9.7-5.5,14.3c-2.3,4.6-5.5,8.8-9.7,12c-3.7,3.7-8.3,6.5-12.5,8.8l-7.4,2.8
				c4.6,1.4,8.8,3.7,12.9,6l2.3,1.8c3.2,3.2,0.9,0.5,7.4,6.9l2.8,3.2c1.4,2.3,2.3,1.8,2.3,3.7c2.8,8.3,6,14.3,6,23.6v4.2l-0.5,1.4
				l-0.5,5.5c0,1.8-0.5,3.2-0.9,5.1l-0.5,2.8c-0.5,1.4-0.9,1.8-0.9,2.8c-1.4,4.2-0.9,3.2-3.2,7.9l-1.4,2.3c-1.8,3.7-4.2,6.5-6.5,9.2
				c-2.8,3.2-5.1,5.5-8.3,7.9c-2.8,2.3-5.5,4.6-8.8,6c-6.5,3.7-12.9,6.5-19.9,8.8c-6.5,1.8-13.4,3.2-19.9,4.6
				c-6.9,0.9-13.4,1.4-20.3,1.8l-5.1,0.5H1349.8z"/>
			<path class="st4" d="M1378.9,480.5c-2.3,0.5-4.2,0.9-6.5,1.8c5.1,0.9,9.7,1.8,14.8,2.3c3.2,0.5,6.9,0.5,10.2,0.5h0.9
				c8.3,1.4,16.6,3.7,23.6,7.4c3.2,1.8,6.5,3.7,9.2,6.5c3.2,2.8,5.1,5.1,6.9,8.8c0,1.8,0,1.8,1.4,3.2l1.4,5.5v2.8l0.5,2.8v5.5
				l-0.5,5.5c-0.4,0.4-0.4,0.9-0.4,1.4l-0.5,4.2l-0.9,2.8l-0.4,2.3l-1.4,3.7c-0.4,0.5-0.4,0.9-0.4,1.4c-0.7,1.2-1.4,2.3-2.1,3.4
				c-1.2,1.8-2.4,3.6-3.9,5.3c-2.3,2.8-4.6,5.1-7.9,6.9c-6.5,4.6-13.8,7.9-21.7,10.2l-10.2,2.8l-5.5,0.5c-3.3,0.9-6.5,1.4-9.7,2.8
				l19,5.1c6,1.8,12,3.2,17.5,5.5c10.2,4.1,14.8,6.5,21.2,12.9c0,1.4,0.5,0.9,1.4,1.8c0,1.4,0.9,1.4,1.8,2.8
				c0.9,0.9,0.4,0.9,0.9,1.8c2.3,4.6,3.2,9.7,3.2,15.3v3.2l-0.4,0.9v2.3l-0.5,1.8c0,1.4-0.5,2.8-0.9,4.2c0,0.9,0,1.4-0.4,2.3
				l-0.5,1.8l-1.8,3.7l-0.5,1.8l-6,8.3l-6,5.5l-7,4.6l-7.8,3.7l-8.3,2.8c-6,1.8-12,3.2-18,3.7c-6,0.9-12,1.8-18.5,1.8l-4.6,0.5h-9.2
				c-1.4,0-2.8,0-4.2-0.5c-5.5-0.5-10.6-1.8-15.7-4.2c-4.6-2.3-9.2-6-13.4-9.7c-4.2-3.7-7.9-8.3-11.6-13.4
				c-3.2-4.6-6.5-9.7-8.8-15.3c-2.8-5.5-5.1-11.6-7.4-17.1c-1.8-6-3.7-12-5.1-18c-1.8-6-3.2-12-4.2-18c-0.9-7.4-1.4-7.8-1.8-14.3
				c-1.4-3.7-0.9-4.6-1.4-9.2v-4.6l-0.9-9.2v-19c0-5.1,0.1-10.2,0.4-15.2c0.4-7.7,1.2-15.2,2.3-22.7c1.4-9.7,2.8-13.4,4.6-23.1
				l0.9-4.2l5.5-18l3.7-8.8c1.8-5.5,2.8-7,5.5-12c0.9-1.4,1.8-2.8,2.3-4.2c3.2-5.1,6.5-10.2,10.6-14.8c3.7-4.2,7.9-8.3,12.5-11.6
				c4.6-3.2,9.7-6,15.3-7.4c5.1-1.8,10.6-2.8,16.6-2.8c4.6,0,9.2,0,13.8,0.5l6.5,0.5c2.3,0,4.6,0.5,7,0.9c2.3,0,4.6,0.5,6.9,0.9
				l6.5,1.4c4.2,0.9,8.3,2.3,12.5,3.7c7.9,3.2,15.3,7.4,20.8,13.4c5.5,5.5,9.2,12.5,10.6,20.8c0.5,1.8,0.9,3.7,0.9,6v6
				c0,4.2-0.5,7.9-1.8,11.1c-1.4,3.7-3.2,6.9-6,9.7c-2.3,2.8-5.5,5.5-9.2,7.9c-7.4,4.2-15.7,7.4-24.5,10.2
				c-4.2,1.4-8.8,2.8-13.4,3.7c-0.5,0-0.9,0-1.4,0.5C1383.6,479.1,1381.3,479.6,1378.9,480.5z"/>
		</g>
		<path class="st1" d="M613.4,397.8c0,0-57.3-3-64.7,20.3C541.2,441.3,613.4,397.8,613.4,397.8z"/>
		<path class="st1" d="M877,398.4c0,0,48.3-11.6,60.8,14.1C950.4,438.1,890,397.9,877,398.4z"/>
		<path class="st1" d="M1075.8,403c0,0-34.1,39.7-29.9,72C1050.1,507.3,1075.8,403,1075.8,403z"/>
		<path class="st1" d="M1342.7,395.6c0,0,66.9-6.5,72.5,11.2C1420.8,424.5,1342.7,395.6,1342.7,395.6z"/>
		<path class="st1" d="M1346.5,494.7c0,0,61.8-3.7,69,8.9C1422.7,516.2,1346.5,494.7,1346.5,494.7z"/>
		<path class="st5" d="M683.6,508.9c1.8,19.9,3.3,43.7,3.3,67.2c0,41.1-4.6,80.9-18.5,97.5c-4.2,4.6-9.2,6.9-14.8,6.9
			c-13.4,0-23.6-4.6-31.9-14.8c-13.9-17.1-21.3-49-21.3-93.3l0.5-18.5c0.8-15.4,2.3-30.8,4.1-46.2
			C625.1,499.4,650.8,497.6,683.6,508.9z"/>
		<path class="st5" d="M785.9,554c34.9,15.5,68.3,29.1,100.7,37.6c-0.6,1.9-1.2,3.9-1.5,5.8l-0.9,4.6c-1.4,6.5-2.8,12.5-4.6,18.5
			c-1.4,5.1-2.8,10.2-4.6,14.8c-1.8,5.1-3.7,9.7-6,13.8c-2.3,4.6-4.6,8.8-7.4,12.5l-4.6,5.1c-1.8,1.8-3.7,3.3-5.5,4.6
			c-6.9,5.5-16.2,8.8-25.9,9.2h-6.9l-6-1.8c-3.7-1.4-6.9-4.2-9.7-7.9c-3.3-3.2-5.5-7.4-7.9-12c-1.8-4.6-3.7-9.2-5.1-14.3
			c-2.8-9.7-4.2-19.9-5.1-30.5c-0.5-7.4-0.9-15.2-0.9-23.1v-8.3C784.1,573,784.8,563.4,785.9,554z"/>
		<path class="st5" d="M994.9,595.5c-0.4,6.6-1,13.1-2.2,19.9c-1.4,10.2-3.7,20.8-6.5,30.5c-1.8,4.6-3.7,9.7-6,13.8
			c-1.8,4.6-4.6,8.8-7.4,12c-3.2,3.7-6.5,6.5-10.2,7.8c-1.8,0.5-3.7,0.9-6,0.9h-6.9c-5.1-0.5-9.7-1.4-14.3-3.2
			c-1.8-0.5-4.2-1.4-6.5-2.8c-1.8-0.9-3.7-2.3-5.5-3.7c-7.4-5.5-13.4-12.9-18-21.7c-4.6-8.8-7.8-18.5-10.6-28.6
			c-1.8-5.5-3.2-12-4.6-18c0-1.8-0.5-3.3-0.9-5.1c-0.3-1.8-0.6-3.5-1-5.3C924.8,601.4,960.1,604.2,994.9,595.5z"/>
		<path class="st5" d="M1239.9,637.1c0.5,2.8,0.5,5.5,0.5,8.3c-0.5,2.8-0.9,5.5-1.8,8.3c-0.5,2.8-1.8,5.5-3.2,7.8
			c-1.4,2.3-3.2,5.1-5.5,6.9c-3.7,4.6-8.3,7.4-13.4,8.8c-2.3,0.4-5.1,0.9-7.9,0.9l-8.3-1.4c-6-1.8-12-4.6-17.5-7.9
			c-5.1-3.2-10.6-6.9-15.7-11.5c-5.1-4.2-9.7-8.8-14.3-13.9l-6.5-7.4c-2.3-2.8-4.2-5.5-6.5-7.9l-12-16.2l-5.5-8.8
			c-1.8-2.8-3.2-5.5-4.6-9.2c-0.4,1.8-0.9,3.7-0.9,5.5l-3.7,23.6c-1.8,9.7-3.7,19-6,28.2c-0.9,4.2-2.3,8.8-4.2,12.5
			c-1.8,4.2-3.7,7.9-6.5,10.6c-2.3,2.8-5.1,4.6-8.3,5.1l-3.7,0.5l-7-0.9c-3.7-1.4-6.9-3.3-10.2-5.5c-3.2-2.3-6-5.5-8.8-9.2
			c-1.4-1.4-2.3-3.7-3.7-5.5l-3.2-5.5l-4.6-9.2c-0.5-1.4-0.9-2.3-0.9-3.2c-3.7-8.8-6.5-18-8.8-27.3c-1.8-9.2-3.7-18.5-5.1-27.7
			c-0.2-1.3-0.4-2.5-0.5-3.8c2.8-1.3,5.5-2.8,8.3-4.3c33.5-18.6,80.1-38.5,132.1-51.6c-3.7,4-7.2,7.7-11,11.1l-1.8,1.4l-2.8,1.4
			l-1.8,0.5l-1.4,0.9l-3.2,0.9l-3.7,0.4c-1.4,0.5-2.3,0.5-3.7,0.5h-4.2l2.8,2.8l3.7,2.8c1.4,1.4,2.3,0.9,4.2,1.8l1.8,0.9
			c0.9,0.4,1.4,0.4,2.3,0.4l2.3,0.9c3.2,0.5,6.9,0,10.2,1.4c4.6,2.3,8.8,6,13.4,9.2c5.1,3.7,10.6,7.9,15.7,12.5
			c10.6,8.3,20.3,17.5,28.6,28.2c4.2,5.1,7.4,10.2,10.6,15.7C1236.7,625.6,1239,631.6,1239.9,637.1z"/>
		<path class="st5" d="M1440.8,626v3.2l-0.4,0.9v2.3l-0.5,1.8c0,1.4-0.5,2.8-0.9,4.2c0,0.9,0,1.4-0.4,2.3l-0.5,1.8l-1.8,3.7
			l-0.5,1.8l-6,8.3l-6,5.5l-7,4.6l-7.8,3.7l-8.3,2.8c-6,1.8-12,3.2-18,3.7c-6,0.9-12,1.8-18.5,1.8l-4.6,0.5h-9.2
			c-1.4,0-2.8,0-4.2-0.5c-5.5-0.5-10.6-1.8-15.7-4.2c-4.6-2.3-9.2-6-13.4-9.7c-4.2-3.7-7.9-8.3-11.6-13.4c-3.2-4.6-6.5-9.7-8.8-15.3
			c-2.8-5.5-5.1-11.6-7.4-17.1c-1.8-6-3.7-12-5.1-18c-1.8-6-3.2-12-4.2-18c-0.9-7.4-1.4-7.8-1.8-14.3c-1.4-3.7-0.9-4.6-1.4-9.2v-4.6
			l-0.9-9.2v-19c0-5.1,0.1-10.2,0.4-15.2c55.3-1,110.7,9.9,158.2,40.8c-1.2,1.8-2.4,3.6-3.9,5.3c-2.3,2.8-4.6,5.1-7.9,6.9
			c-6.5,4.6-13.8,7.9-21.7,10.2l-10.2,2.8l-5.5,0.5c-3.3,0.9-6.5,1.4-9.7,2.8l19,5.1c6,1.8,12,3.2,17.5,5.5
			c10.2,4.1,14.8,6.5,21.2,12.9c0,1.4,0.5,0.9,1.4,1.8c0,1.4,0.9,1.4,1.8,2.8c0.9,0.9,0.4,0.9,0.9,1.8
			C1439.9,615.4,1440.8,620.5,1440.8,626z"/>
	</g>
	<g>
		<g>
			<path class="st2" d="M941,1143.2c-6.9,0-13.4-0.9-19.4-2.8c-7.9-2.3-14.8-6-20.8-10.6c-6-4.6-11.5-10.2-16.2-15.7
				c-5.1-5.5-9.2-12-12.9-18c-2.3-4.2-4.6-8.3-6.5-12.5l-0.5,8.8c-0.5,5.5-1.4,11.1-3.2,17.1c-1.4,5.5-3.7,11.1-7.4,16.2
				c-1.8,2.8-3.7,5.1-6.5,6.9c-2.3,2.3-5.1,4.2-7.9,5.5c-6,3.2-12,4.2-18,4.6h-3.2c-5.1,0-10.2-0.9-14.8-1.8
				c-6-1.8-11.5-4.6-16.6-8.3c-5.1-3.2-9.2-7.4-12.9-12c-7.4-9.2-12.5-18.9-16.2-29.6c-4.2-10.2-6.9-20.8-8.8-31.4
				c-3.7-18.5-5.1-37.9-5.1-56.4v-7.9c0-21.3,2.3-42.5,5.5-63.8c1.8-10.6,4.2-20.8,6.9-31.4c2.8-10.2,6-20.3,10.2-30.5
				c4.2-10.2,9.2-19.9,15.7-29.1c3.2-4.6,6.9-9.2,11.1-12.9c4.6-4.2,9.7-7.4,15.7-9.7c7.4-2.3,15.2-4.2,23.1-4.2h2.8
				c6.9,0,13.9,1.4,20.3,4.2c7.4,3.2,14.3,7.4,19.9,12.9c5.5,5.5,10.2,11.5,13.9,18c4.2,6.9,7.4,13.9,10.2,21.2v-0.9
				c1.4-6.9,3.2-14.3,6-21.2c1.4-3.7,3.2-6.9,5.5-10.6c1.8-3.2,4.2-6.5,7.4-9.7c2.8-2.8,6.5-5.5,10.2-7.4c4.2-1.8,8.3-3.2,12.5-3.7
				h6.5c1.8,0,3.7,0,6,0.5c3.7,0.5,7.9,1.4,11.5,2.8c7.4,2.8,14.3,7.4,20.3,12.5c5.5,5.5,10.2,11.5,14.3,18
				c3.7,6.5,6.9,12.9,9.7,19.9c5.5,13.9,8.8,27.7,11.1,42c2.8,14.3,3.7,28.6,4.2,42.5v11.5c0,10.6-0.5,20.8-0.9,31.4
				c-1.4,14.3-3.2,28.2-6,42.5c-2.8,13.9-6.5,27.7-11.5,41.6c-2.3,6.9-5.1,13.4-8.8,19.9c-3.2,6.5-6.9,12.9-11.5,18.9
				c-5.1,6-10.6,12-17.6,16.2l-5.5,2.8c-1.8,0.9-3.7,1.8-6,2.3l-6,0.9c-2.3,0.5-4.2,0.5-6,0.5H941z"/>
			<path class="st4" d="M1009.4,955.2c0,13.8-0.4,27.7-1.4,41.1c-1.4,13.9-3.2,27.3-5.5,40.7c-1.5,7.1-3.2,14.1-5.2,21.1
				c-1.8,6.2-3.7,12.3-5.9,18.2c-2.3,6.5-4.6,12.5-7.8,18.5c-2.8,6-6.5,11.6-10.2,16.6c-3.7,5.1-8.3,9.2-12.9,12.5l-3.7,1.8
				l-4.1,1.4c-0.9,0.9-1.8,0.4-2.8,0.9l-6,0.5h-3.2c-4.6,0-9.7-0.9-14.8-2.3c-5.5-1.8-11.1-4.6-16.6-8.3
				c-10.2-7.4-18.5-17.6-25.4-29.1c-3.7-5.5-6.9-11.6-9.7-17.6l-15.7-36.5c-0.5-2.3-1.4-4.1-2.3-6c-1.8-5.1-4.1-10.2-7.4-14.3v10.6
				c0,2.3,0,5.1,0.4,7.4c0,14.3,0.9,13.4,1.8,28.6c0.5,5.1,0.9,10.2,0.9,15.2c0,10.2-0.9,19.9-3.7,29.1c-1.4,4.2-3.2,8.3-6,12
				c-2.3,3.2-5.5,6-8.8,7.9c-3.7,1.4-7.9,2.3-12.5,2.8c-4.2,0-8.8-0.5-12.9-1.8c-8.3-2.3-15.7-7.9-21.7-15.3
				c-6-7.4-10.2-16.2-13.9-25.4c-3.7-9.2-6-18.9-8.3-28.6c-3.6-19.8-5-39.7-5.1-59.9v-1.5c0-20.3,1.8-41.1,5.1-61.5
				c1.8-10.2,3.7-19.9,6.5-30c2.8-9.7,5.5-19.4,9.2-29.1c4.2-9.2,8.3-18.5,13.9-26.3c3.2-3.7,6-7.4,9.7-10.6c3.3-2.8,7-5.5,10.6-6.9
				c6-1.8,12.5-3.2,18.5-3.2h2.3c5.5,0,11.1,1.4,15.7,3.2c5.5,1.8,10.6,5.5,15.2,10.2c4.6,4.2,8.3,9.2,12,14.8
				c6.5,11.6,11.1,24,14.3,37.4c3.2,13.4,1.4,27.3,4.1,40.6c1.4,6.5,2.8,12.9,4.6,19.4c2.3,6.5,1.4,6,4.6,13.8
				c0.9,1.4,1.8,2.8,2.3,4.2l-0.9-9.2c0-11.1,1.8-21.2,2.8-31.9c0.9-10.6,0.9-21.2,0.9-31.9c0-2.3,0-4.2,0.4-6
				c0.5-6.9,1.4-13.4,2.8-19.9c1.4-6.9,2.8-12.9,5.5-18.9c2.3-6,5.5-11.6,9.2-15.3c4.1-4.2,8.8-6.5,13.8-6.9h4.6
				c1.4,0,2.8,0,4.1,0.4c3.3,0.5,6,0.9,8.8,1.8c5.5,2.3,10.6,5.5,15.3,9.7c4.6,4.2,8.3,9.2,11.6,14.8c3.7,5.5,6.5,11.6,8.8,17.5
				c4.6,12.5,7.9,25.4,10.2,38.8C1007.5,927.9,1008.9,941.8,1009.4,955.2z"/>
		</g>
		<g>
			<path class="st2" d="M1047.3,1082.2c-18-37.9-21.7-85-21.7-118.3c0-16.6,1.8-58.7,21.7-95.6c19.4-35.6,49.9-54.5,87.8-54.5
				c74.4,0,111.8,55.9,111.8,150.1c0,120.1-37,179.2-107.2,179.2C1097.6,1143.2,1066.2,1121.9,1047.3,1082.2z"/>
			<path class="st4" d="M1232.5,964c0,14.5-0.5,27.9-1.5,40.4c-2.1,25.4-6.3,46.8-12.8,64.5c-15.2,40.2-40.7,60.1-78.5,60.1
				c-36,0-62.8-18-79.4-53.1c-0.5-1-0.9-2-1.4-3.1c-15.4-34.6-18.9-78.2-18.9-108.8c0-15.3,1.8-55,20.3-88.7
				c16.6-31,42-46.7,74.8-46.7C1215.9,828.6,1232.5,902,1232.5,964z"/>
			<path class="st2" d="M1155.4,1015.7l-18.9-24.9l-19.4,24.9c-1.4,1.8-3.2,2.8-5.5,2.8c-1.4,0-3.2-0.5-4.6-1.4
				c-1.4-1.4-2.8-3.7-2.8-5.5s0.5-3.2,1.8-4.6l21.3-28.2l-21.3-28.2c-1.4-1.4-1.8-2.8-1.8-4.2c0-2.3,1.4-4.6,2.8-6
				c1.4-0.9,2.8-1.4,4.2-1.4c2.3,0,4.6,0.9,6,2.8l19.4,24.9l18.9-24.9c1.4-1.8,3.7-2.8,6-2.8c1.4,0,2.8,0.5,4.2,1.4
				c1.8,1.8,2.8,3.7,2.8,6c0,1.4-0.5,2.8-1.4,4.2l-21.7,28.2l21.7,28.2c0.9,1.4,1.4,2.8,1.4,4.2c0,2.3-0.9,4.6-2.8,6
				c-1.4,0.9-3.2,1.4-4.6,1.4C1158.6,1018.5,1156.7,1017.5,1155.4,1015.7z"/>
		</g>
		<path class="st1" d="M806,847.3c0,0-33.5,56.5-24.3,81.5C790.2,951.9,806,847.3,806,847.3z"/>
		<path class="st1" d="M1126.2,841.6c0,0,61.1,6.3,68.4,39.1C1202,913.5,1126.2,841.6,1126.2,841.6z"/>
		<path class="st5" d="M854.1,984.7c42.4,18,90.2,53.1,143.1,73.3c-1.8,6.2-3.7,12.3-5.9,18.2c-2.3,6.5-4.6,12.5-7.8,18.5
			c-2.8,6-6.5,11.6-10.2,16.6c-3.7,5.1-8.3,9.2-12.9,12.5l-3.7,1.8l-4.1,1.4c-0.9,0.9-1.8,0.4-2.8,0.9l-6,0.5h-3.2
			c-4.6,0-9.7-0.9-14.8-2.3c-5.5-1.8-11.1-4.6-16.6-8.3c-10.2-7.4-18.5-17.6-25.4-29.1c-3.7-5.5-6.9-11.6-9.7-17.6l-15.7-36.5
			c-0.5-2.3-1.4-4.1-2.3-6c-1.8-5.1-4.1-10.2-7.4-14.3v10.6c0,2.3,0,5.1,0.4,7.4c0,14.3,0.9,13.4,1.8,28.6
			c0.5,5.1,0.9,10.2,0.9,15.2c0,10.2-0.9,19.9-3.7,29.1c-1.4,4.2-3.2,8.3-6,12c-2.3,3.2-5.5,6-8.8,7.9c-3.7,1.4-7.9,2.3-12.5,2.8
			c-4.2,0-8.8-0.5-12.9-1.8c-8.3-2.3-15.7-7.9-21.7-15.3c-6-7.4-10.2-16.2-13.9-25.4c-3.7-9.2-6-18.9-8.3-28.6
			c-3.6-19.8-5-39.7-5.1-59.9C784.1,980.7,817.6,969.3,854.1,984.7z"/>
		<path class="st5" d="M1231,1004.4c-2.1,25.4-6.3,46.8-12.8,64.5c-15.2,40.2-40.7,60.1-78.5,60.1c-36,0-62.8-18-79.4-53.1
			c-0.5-1-0.9-2-1.4-3.1c24.3,2,49.5-1.1,75.5-11.5C1185.5,1040.6,1208.6,1018.1,1231,1004.4z"/>
	</g>
	<g>
		<g>
			<path class="st2" d="M608.2,1564.4c-9.2-10.2-13.9-22.2-13.9-34.6c0-3.7,0.5-7.9,1.4-11.5c5.1-22.6,16.2-37.4,32.8-43.9
				c6.5-2.3,12.9-3.7,19.9-3.7l6.5,0.5l-5.1-4.6c-37.9-32.8-58.2-67.9-58.2-102.1c0-14.8,5.5-38.3,20.3-57.7
				c12.9-18,38.8-39.3,86.8-39.3c40.2,0,71.6,9.7,93.3,27.7c18,15.2,28.2,36.5,28.2,59.1c0,32.8-20.8,58.7-47.6,58.7
				c-8.3,0-15.7-0.5-22.6-1.8c26.3,22.6,58.2,50.8,67.9,82.7c2.8,8.3,3.7,16.2,3.7,24c0,12.5-3.2,24.5-10.2,34.6
				c-14.3,22.2-44.8,38.3-81.3,42.5c-9.7,1.4-18.9,1.8-28.2,1.8C660.8,1596.8,627.1,1585.2,608.2,1564.4z"/>
			<path class="st6" d="M807.3,1517.8c0,9.7-2.8,18.5-7.9,26.8c-12,18.9-38.8,32.3-70.7,36c-9.2,0.9-18.5,1.8-26.8,1.8
				c-37,0-67-10.2-82.7-27.7c-7.4-7.4-10.6-16.2-10.6-24.9l0.9-7.9c4.2-18,12.5-29.6,24.5-34.2c4.6-1.8,9.7-2.8,14.8-2.8
				c10.2,0,20.3,2.8,29.6,6.5c9.2,3.7,17.5,8.8,26.3,13.4c3.2,1.8,6,4.2,8.3,7c0.4,0.4,5.5,7.4,5.5,7.8c1.4-3.2,2.3-6.5,2.3-9.7
				c0-3.7-0.9-7.9-3.2-11.1c-4.2-6.9-11.1-10.2-18-13.4c-15.8-9.9-42.6-28.6-63.4-52.8c-16.9-19.7-29.9-43-29.9-68.3
				c0-12,4.2-32.3,17.1-49.4c16.2-21.7,41.6-32.8,75.3-32.8c36,0,65.1,8.3,84.1,24c14.8,12.5,23.1,29.6,23.1,48.1
				c0,24.5-14.8,44.4-33.3,44.4c-14.8,0-30.5-2.8-43.4-11.1c-4.2-2.3-7.9-6-11.1-9.7c-2.3-2.8-8.3-9.2-11.6-17.1l-2.8-8.3
				c-0.5-1.8-1.4-4.2-1.4-6.5c-2.3,4.6-3.3,9.7-3.7,14.8v2.3c0,6.9,1.8,19.9,13.8,33.3c6,6.5,12.9,12.5,19.4,18l7,6
				c14.2,12.3,30.4,26.5,43.4,41.6c9.9,11.5,17.9,23.6,21.7,36C806.4,1504.8,807.3,1511.3,807.3,1517.8z"/>
		</g>
		<g>
			<path class="st2" d="M987.4,1582.9c-22.6-23.6-24.9-75.8-24.9-98.9v-12c-1.8-0.5-4.2-0.5-6-0.5c-2.3,0-4.2,0-6,0.5
				c0.5,3.7,2.3,17.6,2.3,34.6c0,24.5-3.7,55-19.4,73.5c-8.8,10.6-20.8,16.2-35.6,16.2c-23.6,0-43.4-19.9-57.3-56.4
				c-11.5-31-18-72.5-18-115c0-40.7,6-78.5,17.1-106.2c13.4-33.3,33.3-51.3,58.2-51.3c14.8,0,26.8,5.5,35.6,15.7
				c13.9,16.2,16.6,42,16.6,61.9c0,10.2-0.9,18.9-1.4,24c1.8,0.5,3.2,0.5,5.1,0.5l5.5-0.5c0.5-7.4,2.3-27.3,7.9-47.6
				c12.5-44.3,33.7-54,49-54c16.6,0,39.7,9.2,55.4,51.7c10.2,27.3,16.2,65.1,16.2,106.2c0,42-6.5,84.1-17.1,114.6
				c-12.5,36.5-31.4,56.4-53.6,56.4C1005.5,1596.3,995.8,1591.7,987.4,1582.9z"/>
			<path class="st6" d="M1072.9,1425.4c0,4.4-0.1,8.7-0.2,13c-1,36-6.4,70.5-15.5,96.5c-6,17.5-19.4,46.6-40.2,46.6
				c-7.4,0-13.8-2.8-18.9-8.3c-19-20.3-21.3-68.4-21.3-89.6v-8.3c2.3,0.4,4.2,1.4,6,2.8c2.8,1.4,6,3.2,8.8,6c0-2.3-0.4-4.2-0.9-6
				l-2.8-5.1c-2.3-3.7-5.1-6.5-8.3-8.8c-6.5-4.6-13.8-6.9-21.7-6.9H956c-7.9,0-16.2,2.3-22.6,6.5c-3.7,1.8-6.5,4.6-9.2,7.4l-3.7,4.6
				c-0.9,1.8-1.8,3.7-2.3,5.5l10.2-4.6l7.9-2.3c0.4,3.7,2.3,17.1,2.3,33.7c0,21.7-3.2,48-15.7,62.8c-6.5,7.4-14.8,10.6-24.9,10.6
				c-22.6,0-37.4-29.1-43.9-46.6c-7-19-12.1-42.8-14.8-68.3c-1.5-13.5-2.3-27.5-2.3-41.6c0-38.8,5.5-74.8,16.2-100.7
				c7.4-19.4,21.7-42,44.8-42c10.6,0,18.5,3.2,24.5,10.6c11.1,12.9,13.4,35.1,13.4,52.7c0,8.8-0.5,16.2-0.9,20.8l-7.8-3.2l-8.8-6
				c0,1.8,0.4,3.7,1.4,5.5c0.5,2.3,1.4,3.7,2.3,5.5c2.3,3.3,5.1,6.5,8.8,8.8c6.5,5.1,15.2,6.9,23.1,6.9c8.3-0.5,16.2-2.3,23.1-6.5
				c3.3-2.3,6.5-4.6,8.8-7.8c1.4-1.4,2.8-2.8,3.7-4.6c0.9-1.4,1.8-3.2,2.3-5.1c-3.2,1.8-6.5,3.2-9.7,4.2l-5.1,1.8
				c-0.9,0-1.8,0.4-2.8,0.9c2.3-28.6,12.9-84.5,42-84.5c21.7,0,34.6,22.6,42,42C1067.8,1350.1,1072.9,1386.1,1072.9,1425.4z"/>
		</g>
		<g>
			<path class="st2" d="M1088.6,1412c0-38.3,4.2-73,12.5-97.5c12.5-38.8,31-47.1,44.8-47.1c14.8,0,35.6,9.7,49.9,55.4
				c9.2,30,14.3,69.8,14.3,112.7c0,79.9-17.6,160.8-56.8,160.8C1114.5,1596.3,1088.6,1512.2,1088.6,1412z"/>
			<path class="st6" d="M1195.8,1435.5c0,22.1-1.5,43.9-4.3,63.6c-2.1,14.8-4.9,28.4-8.2,39.9c-7.8,27.3-18.9,42.5-30,42.5
				c-22.5,0-42.8-56.6-48.6-127.9c-1.1-13.4-1.7-27.4-1.7-41.6c0-36.9,4.1-69.7,11.5-93.3c5.5-16.6,15.3-36.5,31.4-36.5
				c19.4,0,31,28.2,36.5,45.3C1191.2,1355.6,1195.8,1394,1195.8,1435.5z"/>
		</g>
		<g>
			<path class="st2" d="M1307.6,1576c-18.9-23.1-24.5-63.3-24.5-101.6c0-38.8,5.5-75.3,8.3-91.5c-43-0.9-80.4-9.7-80.4-55
				c0-21.3,10.6-36.5,31.9-46.7c19.9-9.2,49.4-13.9,90.5-13.9c98.9,0,131.7,9.7,131.7,65.6c0,12.5-4.2,23.1-12.9,31
				c-17.1,16.2-45.7,18.5-60.1,18.9c1.8,14.3,5.1,45.3,6,79v14.3c0,54.5-7.4,90.5-22.2,107.6c-6.9,8.3-15.2,12.5-25.4,12.5
				C1333,1596.3,1318.7,1589.4,1307.6,1576z"/>
			<path class="st6" d="M1450.8,1333c0,8.3-2.8,15.2-8.3,20.8c-9.7,9.2-34.2,16.2-53.6,16.2c-8.8,0-16.6-1.4-21.7-4.6
				c0,0,0.9,10.2,10.2,14.8c2,15.7,4.4,39.2,5.6,64.7c0.5,10.6,0.9,21.5,0.9,32.4c0,41.1-4.6,80.8-18.5,97.5
				c-4.2,4.6-9.2,6.9-14.8,6.9c-13.4,0-23.6-4.6-31.9-14.8c-12-14.8-19.2-40.7-20.8-76.2c-0.3-5.5-0.4-11.2-0.4-17.1l0.5-18.5
				c0.9-18,2.8-36,5.1-54.1l3.7-22.1c1.4-5.5,8.3-8.8,12-13.4c-4.6,2.3-15.2,2.8-22.6,3.2c-58.7-0.9-70.2-15.7-70.2-40.7
				c0-19.9,11.1-45.7,107.6-45.7c53.1,0,81.3,2.8,97.5,10.6C1445.2,1299.7,1450.8,1310.4,1450.8,1333z"/>
		</g>
		<path class="st1" d="M661.1,1301.3c0,0-51.6,32-40.2,71.1C632.3,1411.4,643.7,1307.8,661.1,1301.3z"/>
		<path class="st1" d="M880.3,1301.3c0,0-33.6,47.8-31.5,90.6S880.3,1301.3,880.3,1301.3z"/>
		<path class="st1" d="M1124,1324.6c0,0-20.6,74.9-11.4,92.8C1121.8,1435.3,1124,1324.6,1124,1324.6z"/>
		<path class="st4" d="M804,1497.9c2.3,6.9,3.2,13.4,3.2,19.9c0,9.7-2.8,18.5-7.9,26.8c-12,18.9-38.8,32.3-70.7,36
			c-9.2,0.9-18.5,1.8-26.8,1.8c-37,0-67-10.2-82.7-27.7c-7.4-7.4-10.6-16.2-10.6-24.9l0.9-7.9c4.2-18,12.5-29.6,24.5-34.2
			c4.6-1.8,9.7-2.8,14.8-2.8c10.2,0,20.3,2.8,29.6,6.5c9.2,3.7,17.5,8.8,26.3,13.4c3.2,1.8,6,4.2,8.3,7c0.4,0.4,5.5,7.4,5.5,7.8
			c1.4-3.2,2.3-6.5,2.3-9.7c0-3.7-0.9-7.9-3.2-11.1c-4.2-6.9-11.1-10.2-18-13.4c-15.8-9.9-42.6-28.6-63.4-52.8
			c26-6.3,59.6-6.8,96.3,11.8c16.5,8.3,33.2,13.9,49.8,17.4C792.2,1473.4,800.2,1485.5,804,1497.9z"/>
		<path class="st4" d="M1072.7,1438.4c-1,36-6.4,70.5-15.5,96.5c-6,17.5-19.4,46.6-40.2,46.6c-7.4,0-13.8-2.8-18.9-8.3
			c-19-20.3-21.3-68.4-21.3-89.6v-8.3c2.3,0.4,4.2,1.4,6,2.8c2.8,1.4,6,3.2,8.8,6c0-2.3-0.4-4.2-0.9-6l-2.8-5.1
			c-2.3-3.7-5.1-6.5-8.3-8.8c-6.5-4.6-13.8-6.9-21.7-6.9H956c-7.9,0-16.2,2.3-22.6,6.5c-3.7,1.8-6.5,4.6-9.2,7.4l-3.7,4.6
			c-0.9,1.8-1.8,3.7-2.3,5.5l10.2-4.6l7.9-2.3c0.4,3.7,2.3,17.1,2.3,33.7c0,21.7-3.2,48-15.7,62.8c-6.5,7.4-14.8,10.6-24.9,10.6
			c-22.6,0-37.4-29.1-43.9-46.6c-7-19-12.1-42.8-14.8-68.3c45.5-1.6,86.9-14.3,115.8-23.5C991.6,1431.5,1029.8,1423.4,1072.7,1438.4
			z"/>
		<path class="st4" d="M1124,1466.7c20,15.1,42.4,26.6,67.6,32.4c-2.1,14.8-4.9,28.4-8.2,39.9c-7.8,27.3-18.9,42.5-30,42.5
			c-22.5,0-42.8-56.6-48.6-127.9C1111,1457.4,1117.4,1461.7,1124,1466.7z"/>
		<path class="st4" d="M1383.8,1477.1c0,41.1-4.6,80.8-18.5,97.5c-4.2,4.6-9.2,6.9-14.8,6.9c-13.4,0-23.6-4.6-31.9-14.8
			c-12-14.8-19.2-40.7-20.8-76.2c26.3-9.4,54.6-24.2,85.1-45.8C1383.5,1455.4,1383.8,1466.3,1383.8,1477.1z"/>
	</g>
</g>
</svg>
