<svg version="1.1" id="Слой_1" xmlns="http://www.w3.org/2000/svg" xmlns:xlink="http://www.w3.org/1999/xlink" x="0px" y="0px"
	 viewBox="0 0 1024 1024" style="enable-background:new 0 0 1024 1024;" xml:space="preserve">
<g>
	<path d="M906.7,656.4c6.5,6.5,15.1,9.8,23.6,9.8c8.5,0,17.1-3.3,23.6-9.8c13-13,13-34.2,0-47.2l-93.7-93.7L483.7,138.9l-93.6-93.6
		C360.8,16.1,322,0,280.6,0c-41.3,0-80.2,16.1-109.5,45.3c-29.2,29.2-45.3,68.1-45.3,109.5S141.9,235,170.9,264l69.5,70.9
		L36.9,538.4c-22,22-34.1,51.1-34.1,82.2c0,31,12.1,60.2,34,82.2l259.3,259.3c0,0,0,0,0,0c22.7,22.7,52.4,34,82.2,34
		c29.8,0,59.5-11.3,82.2-34l375.9-375.9L906.7,656.4z M218.4,217c-34.3-34.3-34.3-90.2,0-124.5c16.6-16.6,38.7-25.8,62.2-25.8
		s45.6,9.2,62.2,25.8l70,70L287.7,287.7L218.4,217z M413.4,914.9c-19.3,19.3-50.7,19.3-70,0L84.2,655.6c-9.3-9.4-14.5-21.8-14.5-35
		c0-13.2,5.1-25.6,14.5-35l203.1-203.1L438,536.2c12.9,13.2,34,13.4,47.2,0.4c13.2-12.9,13.4-34.1,0.4-47.2L334.5,335.3L460,209.7
		L789.3,539L413.4,914.9z"/>
	<path d="M978.9,786.5c-47.2-84.5-63.9-84.5-77.4-84.5c-13.8,0-29.5,0-77,84.5c-20.1,35.8-44.1,85.6-44.1,119.1
		c0,65.4,54.3,118.6,121.1,118.6s121.1-53.2,121.1-118.6C1022.6,871.8,998.9,822.2,978.9,786.5z M901.5,957.2
		c-30,0-54.3-23.2-54.3-51.8c0-21.7,31.6-82.5,54.5-118.2c22.8,35.4,54.1,96,54.1,118.2C955.9,934,931.5,957.2,901.5,957.2z"/>
</g>
</svg>
