<svg version="1.1" id="Слой_1" xmlns="http://www.w3.org/2000/svg" xmlns:xlink="http://www.w3.org/1999/xlink" x="0px" y="0px"
	 viewBox="0 0 1024 1024" style="enable-background:new 0 0 1024 1024;" xml:space="preserve">
<g>
	<path d="M868.2,191.2H155.8C69.9,191.2,0,261,0,346.9v349.5c0,85.9,69.9,155.8,155.8,155.8h712.5c85.9,0,155.8-69.9,155.8-155.8
		V346.9C1024,261,954.1,191.2,868.2,191.2z M955,696.5c0,47.8-38.9,86.7-86.7,86.7H155.8c-47.8,0-86.7-38.9-86.7-86.7V346.9
		c0-47.8,38.9-86.7,86.7-86.7h712.5c47.8,0,86.7,38.9,86.7,86.7V696.5z"/>
	<path d="M499.7,456.7v-71.1c0-19.1-15.4-34.5-34.5-34.5H189.9c-19.1,0-34.5,15.5-34.5,34.5v64.1c0,19.1,15.4,34.5,34.5,34.5
		s34.5-15.5,34.5-34.5v-29.6H293v260.6c0,19.1,15.4,34.5,34.5,34.5c19.1,0,34.5-15.5,34.5-34.5V420.1h68.6v36.6
		c0,19.1,15.4,34.5,34.5,34.5C484.2,491.2,499.7,475.8,499.7,456.7z"/>
	<circle cx="507.4" cy="652.9" r="42.3"/>
	<circle cx="668.9" cy="652.9" r="42.3"/>
	<path d="M830.5,610.7c-23.3,0-42.3,18.9-42.3,42.3s18.9,42.3,42.3,42.3c23.4,0,42.3-18.9,42.3-42.3S853.8,610.7,830.5,610.7z"/>
</g>
</svg>
