<svg version="1.1" id="Слой_1" xmlns="http://www.w3.org/2000/svg" xmlns:xlink="http://www.w3.org/1999/xlink" x="0px" y="0px"
	 viewBox="0 0 1024 1024" style="enable-background:new 0 0 1024 1024;" xml:space="preserve">
<g>
	<path d="M828.7,0H195.3C87.6,0,0,87.6,0,195.4v633.3C0,936.4,87.6,1024,195.3,1024h633.3c107.7,0,195.3-87.6,195.3-195.3V195.4
		C1024,87.6,936.4,0,828.7,0z M956.1,828.7c0,70.3-57.2,127.4-127.4,127.4H195.3c-70.3,0-127.4-57.2-127.4-127.4V195.4
		c0-70.3,57.2-127.4,127.4-127.4h633.3c70.3,0,127.4,57.2,127.4,127.4V828.7z"/>
	<path d="M641,254.9H381.4c-69.4,0-125.9,56.5-125.9,125.8v14.6c0,18.8,15.2,34,34,34c18.8,0,34-15.2,34-34v-14.6
		c0-31.9,26-57.9,57.9-57.9h92.9V695h-78.9c-18.8,0-34,15.2-34,34c0,18.8,15.2,34,34,34h225.8c18.8,0,34-15.2,34-34
		c0-18.8-15.2-34-34-34h-78.9V322.8H641c31.9,0,57.9,26,57.9,57.9v14.6c0,18.8,15.2,34,34,34c18.8,0,34-15.2,34-34v-14.6
		C766.8,311.3,710.4,254.9,641,254.9z"/>
</g>
</svg>
