<svg width="18" height="4" viewBox="0 0 18 4" fill="none" xmlns="http://www.w3.org/2000/svg">
<path d="M8.99996 2.91665C9.50622 2.91665 9.91663 2.50624 9.91663 1.99998C9.91663 1.49372 9.50622 1.08331 8.99996 1.08331C8.4937 1.08331 8.08329 1.49372 8.08329 1.99998C8.08329 2.50624 8.4937 2.91665 8.99996 2.91665Z" stroke="#232B50" stroke-width="2" stroke-linecap="round" stroke-linejoin="round"/>
<path d="M15.4166 2.91665C15.9229 2.91665 16.3333 2.50624 16.3333 1.99998C16.3333 1.49372 15.9229 1.08331 15.4166 1.08331C14.9104 1.08331 14.5 1.49372 14.5 1.99998C14.5 2.50624 14.9104 2.91665 15.4166 2.91665Z" stroke="#232B50" stroke-width="2" stroke-linecap="round" stroke-linejoin="round"/>
<path d="M2.58329 2.91665C3.08955 2.91665 3.49996 2.50624 3.49996 1.99998C3.49996 1.49372 3.08955 1.08331 2.58329 1.08331C2.07703 1.08331 1.66663 1.49372 1.66663 1.99998C1.66663 2.50624 2.07703 2.91665 2.58329 2.91665Z" stroke="#232B50" stroke-width="2" stroke-linecap="round" stroke-linejoin="round"/>
</svg>
