<svg version="1.1" id="Layer_1" xmlns="http://www.w3.org/2000/svg" xmlns:xlink="http://www.w3.org/1999/xlink" x="0px" y="0px"
	 viewBox="0 0 252.8 614.5" style="enable-background:new 0 0 252.8 614.5;" xml:space="preserve">
<path d="M75,204.1v25.7c0,13.6-11,24.6-24.6,24.6H24.6C11.1,254.5,0,243.4,0,229.8v-25.7c0-13.6,11.1-24.6,24.6-24.6h25.7
	C63.9,179.5,75,190.5,75,204.1z M50.4,359.5H24.6c-13.6,0-24.6,11-24.6,24.6v25.7c0,13.6,11.1,24.6,24.6,24.6h25.7
	c13.6,0,24.6-11,24.6-24.6v-25.7C75,370.5,64,359.5,50.4,359.5L50.4,359.5z M50.4,539.5H24.6c-13.6,0-24.6,11-24.6,24.6v25.7
	c0,13.6,11.1,24.6,24.6,24.6h25.7c13.6,0,24.6-11,24.6-24.6v-25.7C75,550.5,64,539.5,50.4,539.5z"/>
<path d="M75,24.6v25.7C75,63.9,64,75,50.4,75H24.6C11.1,75,0,63.9,0,50.4V24.6C0,11,11.1,0,24.6,0h25.7C63.9,0,75,11,75,24.6z"/>
<path d="M252.8,204.1v25.7c0,13.6-11,24.6-24.6,24.6h-25.7c-13.6,0-24.6-11.1-24.6-24.6v-25.7c0-13.6,11.1-24.6,24.6-24.6h25.7
	C241.8,179.5,252.8,190.5,252.8,204.1z M228.2,359.5h-25.7c-13.6,0-24.6,11-24.6,24.6v25.7c0,13.6,11.1,24.6,24.6,24.6h25.7
	c13.6,0,24.6-11,24.6-24.6v-25.7C252.8,370.5,241.8,359.5,228.2,359.5L228.2,359.5z M228.2,539.5h-25.7c-13.6,0-24.6,11-24.6,24.6
	v25.7c0,13.6,11.1,24.6,24.6,24.6h25.7c13.6,0,24.6-11,24.6-24.6v-25.7C252.8,550.5,241.8,539.5,228.2,539.5z"/>
<path d="M252.8,24.6v25.7c0,13.6-11,24.6-24.6,24.6h-25.7c-13.6,0-24.6-11.1-24.6-24.6V24.6C177.8,11,188.9,0,202.4,0h25.7
	C241.8,0,252.8,11,252.8,24.6z"/>
</svg>
