<?xml version="1.0" encoding="utf-8"?>
<!-- Generator: Adobe Illustrator 23.0.1, SVG Export Plug-In . SVG Version: 6.00 Build 0)  -->
<svg version="1.1" id="Layer_1" xmlns="http://www.w3.org/2000/svg" xmlns:xlink="http://www.w3.org/1999/xlink" x="0px" y="0px"
	 viewBox="0 0 24 24" style="enable-background:new 0 0 24 24;" xml:space="preserve">
<style type="text/css">
	.st0{fill:#F4F4F4;}
	.st1{fill:#F44336;}
	.st2{fill:#2196F3;}
	.st3{fill:#FFC107;}
	.st4{fill:#00B060;}
	.st5{opacity:0.1;enable-background:new    ;}
	.st6{fill:#E6E6E6;}
	.st7{opacity:0.2;fill:#FFFFFF;enable-background:new    ;}
	.st8{fill:url(#SVGID_1_);}
</style>
<circle class="st0" cx="12" cy="12" r="12"/>
<g>
	<path class="st1" d="M12,7.1c1.1,0,2.2,0.4,3,1l2.5-2.4C16,4.4,14.1,3.6,12,3.6c-3.2,0-6,1.8-7.4,4.5l2.8,2.2
		C8.1,8.4,9.9,7.1,12,7.1z"/>
	<path class="st2" d="M20.3,13.1c0-0.3,0.1-0.7,0.1-1.1c0-0.6-0.1-1.2-0.2-1.7H12v3.5h4.5c-0.4,1-1,1.8-1.9,2.3l2.8,2.2
		C19,17,20.1,15.1,20.3,13.1z"/>
	<path class="st3" d="M7.1,12c0-0.6,0.1-1.2,0.3-1.7L4.6,8.1c-0.6,1.2-1,2.5-1,3.9s0.3,2.7,0.9,3.9l2.8-2.2
		C7.2,13.1,7.1,12.6,7.1,12z"/>
	<path class="st4" d="M12,16.9c-2.1,0-3.9-1.4-4.6-3.3l-2.8,2.2c1.4,2.7,4.2,4.5,7.4,4.5c2.1,0,4-0.8,5.5-2.1L14.7,16
		C13.9,16.6,13,16.9,12,16.9z"/>
	<path class="st5" d="M12,20.2c-2.5,0-4.7-1-6.3-2.6c1.5,1.7,3.8,2.8,6.3,2.8s4.7-1.1,6.2-2.8C16.6,19.2,14.4,20.2,12,20.2z"/>
	<polygon class="st5" points="12,13.6 12,13.7 16.5,13.7 16.6,13.6 	"/>
	<path class="st6" d="M20.4,12.1V12l0,0V12.1z"/>
	<path class="st7" d="M12,10.3v0.2h8.2c0-0.1,0-0.1,0-0.2H12z"/>
	
		<linearGradient id="SVGID_1_" gradientUnits="userSpaceOnUse" x1="3.6" y1="86" x2="20.38" y2="86" gradientTransform="matrix(1 0 0 1 0 -74)">
		<stop  offset="0" style="stop-color:#FFFFFF;stop-opacity:0.2"/>
		<stop  offset="1" style="stop-color:#FFFFFF;stop-opacity:0"/>
	</linearGradient>
	<path class="st8" d="M20.2,10.3H12v3.5h4.5c-0.7,1.8-2.5,3.1-4.5,3.1c-2.7,0-4.9-2.2-4.9-4.9S9.3,7.1,12,7.1c1,0,1.9,0.3,2.6,0.8
		C14.8,8,14.9,8.1,15,8.1l2.5-2.4h-0.1C16,4.4,14.1,3.6,12,3.6c-4.6,0-8.4,3.8-8.4,8.4s3.8,8.4,8.4,8.4c4.3,0,7.8-3.2,8.3-7.3
		c0-0.3,0.1-0.7,0.1-1.1C20.4,11.4,20.3,10.8,20.2,10.3z"/>
	<path class="st5" d="M14.6,7.7C13.9,7.2,13,6.9,12,6.9c-2.7,0-4.9,2.2-4.9,4.9v0.1c0-2.7,2.2-4.8,4.9-4.8c1,0,1.9,0.3,2.6,0.8
		C14.8,8,14.9,8.1,15,8.1l2.5-2.4L15,8C14.9,7.9,14.8,7.8,14.6,7.7z"/>
	<path class="st7" d="M12,3.8c2.1,0,4,0.8,5.4,2l0.1-0.1l-0.1-0.1c-1.5-1.3-3.4-2-5.5-2c-4.6,0-8.4,3.8-8.4,8.4v0.1
		C3.7,7.5,7.4,3.8,12,3.8z"/>
</g>
</svg>
