<svg width="23" height="23" viewBox="0 0 23 23" fill="none" xmlns="http://www.w3.org/2000/svg">
<path d="M11.5417 2.25002H6.45C4.62983 2.25002 3.71974 2.25002 3.02453 2.60425C2.413 2.91584 1.91582 3.41302 1.60423 4.02455C1.25 4.71976 1.25 5.62985 1.25 7.45002V16.55C1.25 18.3702 1.25 19.2803 1.60423 19.9755C1.91582 20.587 2.413 21.0842 3.02453 21.3958C3.71974 21.75 4.62983 21.75 6.45 21.75H16.4167C17.4241 21.75 17.9279 21.75 18.3412 21.6393C19.4627 21.3388 20.3387 20.4627 20.6393 19.3412C20.75 18.9279 20.75 18.4242 20.75 17.4167M18.5833 7.66669V1.16669M15.3333 4.41669H21.8333M9.375 8.20835C9.375 9.40497 8.40495 10.375 7.20833 10.375C6.01172 10.375 5.04167 9.40497 5.04167 8.20835C5.04167 7.01174 6.01172 6.04169 7.20833 6.04169C8.40495 6.04169 9.375 7.01174 9.375 8.20835ZM14.2392 11.9113L5.07541 20.2421C4.55998 20.7106 4.30226 20.9449 4.27946 21.1479C4.2597 21.3238 4.32716 21.4983 4.46012 21.6152C4.61351 21.75 4.9618 21.75 5.65839 21.75H15.8273C17.3864 21.75 18.166 21.75 18.7782 21.4881C19.5469 21.1593 20.1593 20.5469 20.4881 19.7783C20.75 19.166 20.75 18.3864 20.75 16.8273C20.75 16.3027 20.75 16.0405 20.6927 15.7962C20.6206 15.4892 20.4824 15.2017 20.2877 14.9536C20.1328 14.7562 19.928 14.5924 19.5183 14.2647L16.488 11.8404C16.078 11.5124 15.873 11.3484 15.6473 11.2906C15.4483 11.2395 15.2389 11.2462 15.0436 11.3096C14.8219 11.3816 14.6277 11.5582 14.2392 11.9113Z" stroke="#B2B2CB" stroke-width="2" stroke-linecap="round" stroke-linejoin="round"/>
</svg>
