<svg width="24" height="22" viewBox="0 0 24 22" fill="none" xmlns="http://www.w3.org/2000/svg">
<path d="M7.2028 20.75C8.64883 20.0564 10.2775 19.6667 12 19.6667C13.7225 19.6667 15.3512 20.0564 16.7972 20.75M6.36666 16.4167H17.6333C19.4535 16.4167 20.3636 16.4167 21.0588 16.0624C21.6703 15.7508 22.1675 15.2537 22.4791 14.6421C22.8333 13.9469 22.8333 13.0368 22.8333 11.2167V6.45C22.8333 4.62983 22.8333 3.71974 22.4791 3.02453C22.1675 2.413 21.6703 1.91582 21.0588 1.60423C20.3636 1.25 19.4535 1.25 17.6333 1.25H6.36666C4.54649 1.25 3.63641 1.25 2.9412 1.60423C2.32967 1.91582 1.83248 2.413 1.52089 3.02453C1.16666 3.71974 1.16666 4.62983 1.16666 6.45V11.2167C1.16666 13.0368 1.16666 13.9469 1.52089 14.6421C1.83248 15.2537 2.32967 15.7508 2.9412 16.0624C3.63641 16.4167 4.54649 16.4167 6.36666 16.4167Z" stroke="#B2B2CB" stroke-width="2" stroke-linecap="round" stroke-linejoin="round"/>
</svg>
