<svg width="20" height="18" viewBox="0 0 20 18" fill="none" xmlns="http://www.w3.org/2000/svg">
<path d="M19 6.25H13M19 1H1M19 11.75H13M19 17H1M2.6 13H7.4C7.96005 13 8.24008 13 8.45399 12.891C8.64215 12.7951 8.79513 12.6422 8.89101 12.454C9 12.2401 9 11.9601 9 11.4V6.6C9 6.03995 9 5.75992 8.89101 5.54601C8.79513 5.35785 8.64215 5.20487 8.45399 5.10899C8.24008 5 7.96005 5 7.4 5H2.6C2.03995 5 1.75992 5 1.54601 5.10899C1.35785 5.20487 1.20487 5.35785 1.10899 5.54601C1 5.75992 1 6.03995 1 6.6V11.4C1 11.9601 1 12.2401 1.10899 12.454C1.20487 12.6422 1.35785 12.7951 1.54601 12.891C1.75992 13 2.03995 13 2.6 13Z" stroke="#A4A4BB" stroke-width="1.5" stroke-linecap="round" stroke-linejoin="round"/>
</svg>
