<svg version="1.1" id="Слой_1" xmlns="http://www.w3.org/2000/svg" xmlns:xlink="http://www.w3.org/1999/xlink" x="0px" y="0px"
	 viewBox="0 0 1024 1024" style="enable-background:new 0 0 1024 1024;" xml:space="preserve">

<g>
	<path fill="#fff" d="M981.3,232.8H275.2c-23.6,0-42.7-19.1-42.7-42.7s19.1-42.7,42.7-42.7h706.1c23.6,0,42.7,19.1,42.7,42.7
		S1004.9,232.8,981.3,232.8z"/>
	<path fill="#fff" d="M981.3,555.2H275.2c-23.6,0-42.7-19.1-42.7-42.7s19.1-42.7,42.7-42.7h706.1c23.6,0,42.7,19.1,42.7,42.7
		S1004.9,555.2,981.3,555.2z"/>
	<path fill="#fff" d="M981.3,877.6H275.2c-23.6,0-42.7-19.1-42.7-42.7s19.1-42.7,42.7-42.7h706.1c23.6,0,42.7,19.1,42.7,42.7
		S1004.9,877.6,981.3,877.6z"/>
	<circle fill="#fff" cx="67.1" cy="195" r="67.1"/>
	<circle fill="#fff" cx="67.1" cy="512" r="67.1"/>
	<circle fill="#fff" cx="67.1" cy="829" r="67.1"/>
</g>
</svg>
