<svg width="24" height="24" viewBox="0 0 24 24" fill="none" xmlns="http://www.w3.org/2000/svg">
<path d="M1.16675 12C1.16675 17.983 6.017 22.8333 12.0001 22.8333C13.795 22.8333 15.2501 21.3782 15.2501 19.5833V19.0416C15.2501 18.5385 15.2501 18.2869 15.2779 18.0757C15.4699 16.6174 16.6175 15.4698 18.0759 15.2778C18.2871 15.25 18.5386 15.25 19.0417 15.25H19.5834C21.3783 15.25 22.8334 13.7949 22.8334 12C22.8334 6.01687 17.9832 1.16663 12.0001 1.16663C6.017 1.16663 1.16675 6.01687 1.16675 12Z" stroke="#B2B2CB" stroke-width="2" stroke-linecap="round" stroke-linejoin="round"/>
<path d="M6.58341 13.0833C7.18172 13.0833 7.66675 12.5983 7.66675 12C7.66675 11.4017 7.18172 10.9166 6.58341 10.9166C5.98511 10.9166 5.50008 11.4017 5.50008 12C5.50008 12.5983 5.98511 13.0833 6.58341 13.0833Z" stroke="#B2B2CB" stroke-width="2" stroke-linecap="round" stroke-linejoin="round"/>
<path d="M16.3334 8.74996C16.9317 8.74996 17.4167 8.26493 17.4167 7.66663C17.4167 7.06832 16.9317 6.58329 16.3334 6.58329C15.7351 6.58329 15.2501 7.06832 15.2501 7.66663C15.2501 8.26493 15.7351 8.74996 16.3334 8.74996Z" stroke="#B2B2CB" stroke-width="2" stroke-linecap="round" stroke-linejoin="round"/>
<path d="M9.83342 7.66663C10.4317 7.66663 10.9167 7.1816 10.9167 6.58329C10.9167 5.98498 10.4317 5.49996 9.83342 5.49996C9.23511 5.49996 8.75008 5.98498 8.75008 6.58329C8.75008 7.1816 9.23511 7.66663 9.83342 7.66663Z" stroke="#B2B2CB" stroke-width="2" stroke-linecap="round" stroke-linejoin="round"/>
</svg>
