<svg width="22" height="22" viewBox="0 0 22 22" fill="none" xmlns="http://www.w3.org/2000/svg">
<path d="M11 21C16.5228 21 21 16.5228 21 11C21 5.47715 16.5228 1 11 1C5.47715 1 1 5.47715 1 11C1 16.5228 5.47715 21 11 21Z" stroke="#A4A4BB" stroke-width="1.5" stroke-linecap="round" stroke-linejoin="round"/>
<path fill-rule="evenodd" clip-rule="evenodd" d="M10.9966 8.06791C9.9969 6.8992 8.32987 6.58482 7.07735 7.65501C5.82482 8.72519 5.64848 10.5145 6.6321 11.7802C7.26211 12.5909 8.87558 14.0942 9.95424 15.0704C10.3127 15.3947 10.4919 15.5569 10.7066 15.622C10.8911 15.6779 11.102 15.6779 11.2866 15.622C11.5012 15.5569 11.6805 15.3947 12.0389 15.0704C13.1176 14.0942 14.731 12.5909 15.3611 11.7802C16.3447 10.5145 16.1899 8.71393 14.9158 7.65501C13.6417 6.59608 11.9963 6.8992 10.9966 8.06791Z" stroke="#A4A4BB" stroke-width="1.5" stroke-linecap="round" stroke-linejoin="round"/>
</svg>
