<svg width="22" height="22" viewBox="0 0 22 22" fill="none" xmlns="http://www.w3.org/2000/svg">
<path d="M16.7448 1.81281C17.7096 0.816335 19.3036 0.803444 20.2844 1.78419C21.2382 2.73807 21.256 4.27904 20.3244 5.25464L17.5457 8.16441C17.3279 8.39248 17.219 8.50651 17.1519 8.64007C17.0925 8.75831 17.0571 8.88715 17.0479 9.01915C17.0375 9.16826 17.0729 9.3219 17.1438 9.62918L18.8717 17.1167C18.9445 17.4321 18.9809 17.5899 18.9691 17.7424C18.9588 17.8774 18.921 18.0089 18.8583 18.1289C18.7874 18.2645 18.673 18.379 18.4441 18.6079L18.0733 18.9786C17.4671 19.5848 17.1641 19.8879 16.8539 19.9427C16.583 19.9906 16.3044 19.9249 16.0835 19.7609C15.8306 19.5731 15.6951 19.1665 15.424 18.3532L13.4143 12.324L10.0689 15.6693C9.86926 15.869 9.76941 15.9688 9.70263 16.0864C9.64346 16.1906 9.60349 16.3045 9.58462 16.4228C9.56332 16.5563 9.57891 16.6967 9.6101 16.9773L9.79381 18.6307C9.825 18.9114 9.84059 19.0517 9.81929 19.1853C9.80042 19.3036 9.76045 19.4175 9.70128 19.5217C9.6345 19.6393 9.53465 19.7391 9.33497 19.9388L9.13746 20.1363C8.6644 20.6094 8.42787 20.8459 8.16502 20.9144C7.93448 20.9745 7.69005 20.9503 7.47577 20.8461C7.23146 20.7274 7.04591 20.4491 6.67481 19.8924L5.10649 17.54C5.04019 17.4405 5.00704 17.3908 4.96855 17.3457C4.93436 17.3056 4.89707 17.2683 4.857 17.2341C4.81191 17.1957 4.76218 17.1625 4.66273 17.0962L2.31025 15.5279C1.7536 15.1568 1.47527 14.9712 1.35655 14.7269C1.25242 14.5126 1.22822 14.2682 1.2883 14.0377C1.35681 13.7748 1.59334 13.5383 2.06639 13.0652L2.2639 12.8677C2.46359 12.668 2.56343 12.5682 2.68101 12.5014C2.78517 12.4422 2.89912 12.4023 3.01742 12.3834C3.15095 12.3621 3.29129 12.3777 3.57196 12.4089L5.22535 12.5926C5.50602 12.6238 5.64636 12.6394 5.77989 12.6181C5.89819 12.5992 6.01214 12.5592 6.1163 12.5001C6.23388 12.4333 6.33372 12.3334 6.53341 12.1338L9.87873 8.78843L3.84945 6.77867C3.03623 6.50759 2.62961 6.37206 2.44182 6.11915C2.27783 5.89831 2.21206 5.61967 2.25997 5.34881C2.31483 5.03862 2.6179 4.73555 3.22405 4.12941L3.59482 3.75863C3.82371 3.52974 3.93816 3.4153 4.07375 3.3444C4.19376 3.28166 4.32527 3.24394 4.46029 3.23355C4.61284 3.2218 4.77055 3.25819 5.08596 3.33098L12.5451 5.05232C12.8551 5.12385 13.01 5.15961 13.1597 5.14897C13.3041 5.1387 13.4446 5.09717 13.5715 5.02725C13.7028 4.95484 13.8135 4.84057 14.0347 4.61203L16.7448 1.81281Z" stroke="#A4A4BB" stroke-width="1.5" stroke-linecap="round" stroke-linejoin="round"/>
</svg>
